<svg version="1.1" xmlns="http://www.w3.org/2000/svg" viewBox="0 0 3400 1240" width="6800" height="2480">
  <!-- svg-source:excalidraw -->
  
  <defs>
    <style class="style-fonts">
      @font-face {
        font-family: "Virgil";
        src: url("https://excalidraw.com/Virgil.woff2");
      }
      @font-face {
        font-family: "Cascadia";
        src: url("https://excalidraw.com/Cascadia.woff2");
      }
    </style>
    
  </defs>
  <rect x="0" y="0" width="3400" height="1240" fill="#ffffff"></rect><g stroke-linecap="round" transform="translate(10 10) rotate(0 1690 610)"><path d="M32 0 C822.3 0, 1612.6 0, 3348 0 C3369.33 0, 3380 10.67, 3380 32 C3380 418.28, 3380 804.57, 3380 1188 C3380 1209.33, 3369.33 1220, 3348 1220 C2038.71 1220, 729.41 1220, 32 1220 C10.67 1220, 0 1209.33, 0 1188 C0 853.95, 0 519.91, 0 32 C0 10.67, 10.67 0, 32 0" stroke="none" stroke-width="0" fill="#fff9db"></path><path d="M32 0 C1124.46 0, 2216.93 0, 3348 0 M32 0 C1167.86 0, 2303.72 0, 3348 0 M3348 0 C3369.33 0, 3380 10.67, 3380 32 M3348 0 C3369.33 0, 3380 10.67, 3380 32 M3380 32 C3380 389.27, 3380 746.53, 3380 1188 M3380 32 C3380 346.06, 3380 660.12, 3380 1188 M3380 1188 C3380 1209.33, 3369.33 1220, 3348 1220 M3380 1188 C3380 1209.33, 3369.33 1220, 3348 1220 M3348 1220 C2128.32 1220, 908.63 1220, 32 1220 M3348 1220 C2607.57 1220, 1867.13 1220, 32 1220 M32 1220 C10.67 1220, 0 1209.33, 0 1188 M32 1220 C10.67 1220, 0 1209.33, 0 1188 M0 1188 C0 942.01, 0 696.03, 0 32 M0 1188 C0 937.61, 0 687.21, 0 32 M0 32 C0 10.67, 10.67 0, 32 0 M0 32 C0 10.67, 10.67 0, 32 0" stroke="#1e1e1e" stroke-width="4" fill="none"></path></g><g stroke-linecap="round" transform="translate(110 750) rotate(0 1590 190)"><path d="M32 0 C887.99 0, 1743.99 0, 3148 0 C3169.33 0, 3180 10.67, 3180 32 C3180 116.78, 3180 201.56, 3180 348 C3180 369.33, 3169.33 380, 3148 380 C2298.34 380, 1448.67 380, 32 380 C10.67 380, 0 369.33, 0 348 C0 283.9, 0 219.8, 0 32 C0 10.67, 10.67 0, 32 0" stroke="none" stroke-width="0" fill="#ffffff"></path><path d="M32 0 C1219.06 0, 2406.13 0, 3148 0 M3148 0 C3169.33 0, 3180 10.67, 3180 32 M3180 32 C3180 97.31, 3180 162.62, 3180 348 M3180 348 C3180 369.33, 3169.33 380, 3148 380 M3148 380 C2238.29 380, 1328.58 380, 32 380 M32 380 C10.67 380, 0 369.33, 0 348 M0 348 C0 252.02, 0 156.03, 0 32 M0 32 C0 10.67, 10.67 0, 32 0" stroke="#1e1e1e" stroke-width="4.5" fill="none" stroke-dasharray="8 12"></path></g><g stroke-linecap="round" transform="translate(130 130) rotate(0 490 190)"><path d="M32 0 C258.22 0, 484.43 0, 948 0 C969.33 0, 980 10.67, 980 32 C980 133.85, 980 235.71, 980 348 C980 369.33, 969.33 380, 948 380 C596.05 380, 244.1 380, 32 380 C10.67 380, 0 369.33, 0 348 C0 250.49, 0 152.98, 0 32 C0 10.67, 10.67 0, 32 0" stroke="none" stroke-width="0" fill="#ffffff"></path><path d="M32 0 C354.33 0, 676.67 0, 948 0 M948 0 C969.33 0, 980 10.67, 980 32 M980 32 C980 138.75, 980 245.5, 980 348 M980 348 C980 369.33, 969.33 380, 948 380 M948 380 C688.64 380, 429.27 380, 32 380 M32 380 C10.67 380, 0 369.33, 0 348 M0 348 C0 260.63, 0 173.27, 0 32 M0 32 C0 10.67, 10.67 0, 32 0" stroke="#1e1e1e" stroke-width="4.5" fill="none" stroke-dasharray="8 12"></path></g><g stroke-linecap="round" transform="translate(190 170) rotate(0 190 140)"><path d="M32 0 C150.14 0, 268.27 0, 348 0 C369.33 0, 380 10.67, 380 32 C380 82.74, 380 133.48, 380 248 C380 269.33, 369.33 280, 348 280 C283.47 280, 218.94 280, 32 280 C10.67 280, 0 269.33, 0 248 C0 167.07, 0 86.15, 0 32 C0 10.67, 10.67 0, 32 0" stroke="none" stroke-width="0" fill="#ebfbee"></path><path d="M32 0 C127.31 0, 222.62 0, 348 0 M32 0 C97.31 0, 162.62 0, 348 0 M348 0 C369.33 0, 380 10.67, 380 32 M348 0 C369.33 0, 380 10.67, 380 32 M380 32 C380 81.01, 380 130.02, 380 248 M380 32 C380 97.61, 380 163.22, 380 248 M380 248 C380 269.33, 369.33 280, 348 280 M380 248 C380 269.33, 369.33 280, 348 280 M348 280 C233.32 280, 118.64 280, 32 280 M348 280 C263.22 280, 178.44 280, 32 280 M32 280 C10.67 280, 0 269.33, 0 248 M32 280 C10.67 280, 0 269.33, 0 248 M0 248 C0 176.88, 0 105.77, 0 32 M0 248 C0 204.18, 0 160.37, 0 32 M0 32 C0 10.67, 10.67 0, 32 0 M0 32 C0 10.67, 10.67 0, 32 0" stroke="#1e1e1e" stroke-width="4" fill="none"></path></g><g stroke-linecap="round" transform="translate(270 210) rotate(0 110 50)"><path d="M25 0 C83.99 0, 142.98 0, 195 0 C211.67 0, 220 8.33, 220 25 C220 36.44, 220 47.89, 220 75 C220 91.67, 211.67 100, 195 100 C133.07 100, 71.15 100, 25 100 C8.33 100, 0 91.67, 0 75 C0 63.98, 0 52.96, 0 25 C0 8.33, 8.33 0, 25 0" stroke="none" stroke-width="0" fill="#b2f2bb"></path><path d="M25 0 C80.36 0, 135.72 0, 195 0 M25 0 C82.43 0, 139.85 0, 195 0 M195 0 C211.67 0, 220 8.33, 220 25 M195 0 C211.67 0, 220 8.33, 220 25 M220 25 C220 42.29, 220 59.59, 220 75 M220 25 C220 38.82, 220 52.65, 220 75 M220 75 C220 91.67, 211.67 100, 195 100 M220 75 C220 91.67, 211.67 100, 195 100 M195 100 C158.26 100, 121.53 100, 25 100 M195 100 C140.2 100, 85.41 100, 25 100 M25 100 C8.33 100, 0 91.67, 0 75 M25 100 C8.33 100, 0 91.67, 0 75 M0 75 C0 59.2, 0 43.41, 0 25 M0 75 C0 59.57, 0 44.14, 0 25 M0 25 C0 8.33, 8.33 0, 25 0 M0 25 C0 8.33, 8.33 0, 25 0" stroke="#2f9e44" stroke-width="4" fill="none"></path></g><g transform="translate(324 243.20000000000073) rotate(0 56 16.800000000000182)"><text x="56" y="0" font-family="Cascadia, Segoe UI Emoji" font-size="28px" fill="#1e1e1e" text-anchor="middle" style="white-space: pre;" direction="ltr" dominant-baseline="text-before-edge">用户管理</text></g><g stroke-linecap="round"><g transform="translate(592.6917671055126 865.4649392418814) rotate(0 77.62329244385728 84.64680948757086)" fill-rule="evenodd"><path d="M2.27 -0.39 C2.02 24.34, -0.12 121.54, -0.16 149.91 C-0.19 178.27, 0.61 165.13, 2.09 169.81 C3.57 174.49, 3.04 175.44, 8.72 177.96 C14.41 180.49, 23.64 183.73, 36.2 184.95 C48.76 186.17, 69.08 186.23, 84.1 185.27 C99.11 184.31, 114.74 181, 126.28 179.16 C137.83 177.33, 148.51 176.28, 153.36 174.24 C158.21 172.21, 155.36 170.09, 155.39 166.94 C155.43 163.8, 154 181.35, 153.57 155.38 C153.13 129.41, 152.48 36.77, 152.76 11.12 C153.05 -14.53, 156.82 4.7, 155.27 1.48 C153.73 -1.75, 148.54 -5.98, 143.48 -8.24 C138.42 -10.5, 135.98 -11.13, 124.91 -12.09 C113.85 -13.05, 91.57 -13.84, 77.09 -14.01 C62.6 -14.17, 49.8 -14.68, 38.02 -13.07 C26.23 -11.46, 12.63 -6.43, 6.36 -4.36 C0.09 -2.28, 1.52 -1.52, 0.4 -0.62 C-0.72 0.29, -0.46 1.22, -0.37 1.06" stroke="none" stroke-width="0" fill="#228be6" fill-rule="evenodd"></path><path d="M-0.1 -0.7 C-0.19 24.58, 0.44 123.01, 0.31 151.3 C0.18 179.58, -2.23 164.84, -0.85 169.03 C0.52 173.22, 2.65 174.17, 8.56 176.44 C14.47 178.7, 22.28 181.23, 34.62 182.61 C46.95 183.99, 67.26 184.95, 82.59 184.73 C97.93 184.5, 115.08 182.93, 126.61 181.26 C138.13 179.58, 147.12 176.75, 151.74 174.68 C156.36 172.61, 153.58 172.36, 154.33 168.85 C155.08 165.33, 156.06 179.76, 156.23 153.59 C156.41 127.42, 155.75 37.59, 155.36 11.83 C154.97 -13.94, 155.86 2.13, 153.89 -1 C151.93 -4.13, 148.57 -4.92, 143.57 -6.96 C138.58 -8.99, 135.49 -11.83, 123.94 -13.21 C112.39 -14.58, 88.85 -14.98, 74.27 -15.2 C59.7 -15.42, 47.87 -15.91, 36.49 -14.52 C25.12 -13.13, 12.05 -9.32, 6.02 -6.88 C-0.02 -4.43, 1.19 -0.9, 0.29 0.18 C-0.6 1.25, 0.52 -0.28, 0.65 -0.44 M-1.61 1.54 C-1.96 27.04, -1.27 124.49, -0.74 152.64 C-0.21 180.78, -0.06 166.24, 1.58 170.39 C3.22 174.55, 3.33 175.47, 9.09 177.56 C14.86 179.65, 23.71 181.92, 36.18 182.94 C48.64 183.97, 68.81 184.24, 83.89 183.71 C98.98 183.18, 115.52 181.27, 126.67 179.77 C137.83 178.26, 145.92 176.63, 150.81 174.68 C155.7 172.72, 155.51 171.67, 156 168.06 C156.5 164.46, 153.8 178.98, 153.78 153.03 C153.75 127.08, 155.49 38.12, 155.86 12.34 C156.23 -13.44, 158.04 1.62, 155.98 -1.64 C153.91 -4.89, 148.86 -5.17, 143.47 -7.2 C138.08 -9.24, 135.2 -12.48, 123.63 -13.84 C112.07 -15.19, 88.45 -15.38, 74.07 -15.34 C59.69 -15.31, 48.33 -15.13, 37.33 -13.63 C26.34 -12.12, 14.44 -8.71, 8.09 -6.33 C1.73 -3.94, 0.62 -0.3, -0.8 0.68 C-2.21 1.67, -0.28 -0.41, -0.4 -0.42" stroke="#0a11d3" stroke-width="1" fill="none"></path></g></g><mask></mask><g stroke-linecap="round"><g transform="translate(593.9032745411532 980.5418897027175) rotate(0 77.81979084577324 8.101048183447347)"><path d="M-0.03 -0.06 C0.63 1.11, 0.31 4.78, 3.96 6.9 C7.61 9.02, 15.01 11.13, 21.88 12.67 C28.74 14.21, 35.08 15.5, 45.12 16.14 C55.17 16.78, 68.83 16.81, 82.15 16.48 C95.46 16.16, 113.65 15.91, 125.02 14.2 C136.39 12.5, 145.27 8.72, 150.36 6.25 C155.44 3.79, 154.64 0.57, 155.55 -0.61 M-0.29 -0.26 C0.44 0.95, 0.64 4.96, 4.32 7.15 C8 9.35, 15.01 11.36, 21.8 12.88 C28.59 14.41, 35.05 15.7, 45.06 16.31 C55.08 16.92, 68.54 16.93, 81.89 16.55 C95.24 16.17, 113.73 15.75, 125.16 14.01 C136.59 12.27, 145.35 8.52, 150.48 6.09 C155.6 3.66, 155.07 0.63, 155.93 -0.57" stroke="#0a11d3" stroke-width="1" fill="none"></path></g></g><mask></mask><g stroke-linecap="round"><g transform="translate(591.9755031981258 922.2471220116695) rotate(0 77.81988234381606 7.932655999574308)"><path d="M-0.14 0.01 C0.56 1.17, 0.57 4.79, 4.19 6.89 C7.81 8.99, 14.74 11.1, 21.59 12.64 C28.44 14.19, 35.21 15.53, 45.28 16.16 C55.35 16.8, 68.68 16.73, 82 16.43 C95.33 16.13, 113.86 16.04, 125.23 14.35 C136.6 12.67, 145.14 8.87, 150.23 6.34 C155.32 3.8, 154.87 0.38, 155.78 -0.83 M0.14 -0.15 C0.83 1.05, 0.45 4.98, 4.08 7.14 C7.72 9.31, 15.09 11.31, 21.96 12.85 C28.83 14.38, 35.25 15.74, 45.3 16.35 C55.36 16.95, 68.9 16.82, 82.27 16.47 C95.63 16.12, 114.14 15.95, 125.48 14.24 C136.81 12.53, 145.25 8.74, 150.28 6.21 C155.32 3.69, 154.82 0.24, 155.69 -0.9" stroke="#0a11d3" stroke-width="1" fill="none"></path></g></g><mask></mask><g stroke-linecap="round" transform="translate(590 851.3210311497842) rotate(0 77.24430072362156 15.622078688616966)"><path d="M79.34 0.1 C91.57 -0.03, 106.47 1.08, 117.4 2.4 C128.33 3.73, 138.73 5.76, 144.92 8.04 C151.11 10.33, 154.81 13.48, 154.54 16.11 C154.27 18.74, 150.03 21.65, 143.31 23.84 C136.59 26.02, 125.59 28.02, 114.23 29.21 C102.86 30.4, 88.01 31.01, 75.12 30.99 C62.22 30.98, 47.82 30.41, 36.85 29.11 C25.88 27.82, 15.46 25.56, 9.29 23.23 C3.12 20.91, -0.49 17.81, -0.19 15.16 C0.11 12.51, 4.37 9.56, 11.11 7.34 C17.86 5.12, 28.76 3.02, 40.29 1.82 C51.82 0.62, 73.55 0.37, 80.29 0.14 C87.02 -0.09, 80.79 0.19, 80.68 0.44 M72.41 -0.23 C84.44 -0.59, 99.97 0.16, 111.46 1.34 C122.95 2.52, 134.17 4.58, 141.34 6.87 C148.5 9.15, 153.63 12.44, 154.45 15.05 C155.27 17.67, 151.99 20.26, 146.23 22.58 C140.47 24.9, 130.61 27.5, 119.9 28.95 C109.2 30.41, 94.86 31.15, 82 31.29 C69.15 31.44, 54.33 30.94, 42.77 29.82 C31.22 28.7, 19.75 26.79, 12.66 24.57 C5.56 22.35, 0.92 19.09, 0.22 16.49 C-0.49 13.89, 2.71 11.33, 8.42 8.98 C14.13 6.62, 23.76 3.87, 34.48 2.35 C45.2 0.83, 66.36 0.22, 72.75 -0.14 C79.13 -0.5, 72.78 -0.15, 72.81 0.19" stroke="none" stroke-width="0" fill="#fff"></path><path d="M67.35 -0.11 C79.33 -0.63, 95.01 0.22, 106.91 1.24 C118.81 2.26, 130.91 3.92, 138.77 6.01 C146.64 8.11, 152.48 11.18, 154.1 13.8 C155.72 16.41, 153.52 19.34, 148.49 21.71 C143.47 24.07, 134.17 26.43, 123.93 27.97 C113.69 29.52, 99.76 30.61, 87.06 30.98 C74.37 31.35, 59.65 31.22, 47.75 30.2 C35.86 29.19, 23.5 27, 15.67 24.89 C7.85 22.78, 2.45 20.11, 0.81 17.54 C-0.84 14.98, 0.89 11.85, 5.8 9.47 C10.71 7.1, 19.88 4.82, 30.28 3.29 C40.69 1.75, 61.76 0.69, 68.23 0.25 C74.69 -0.19, 68.95 0.38, 69.07 0.63 M83.42 -0.23 C95.69 -0.22, 110.88 1.34, 121.5 2.91 C132.13 4.48, 141.71 6.79, 147.17 9.18 C152.64 11.57, 155.33 14.68, 154.29 17.25 C153.26 19.81, 148.35 22.58, 140.98 24.6 C133.61 26.62, 121.7 28.26, 110.08 29.37 C98.45 30.47, 84.03 31.39, 71.25 31.23 C58.47 31.06, 44.07 29.8, 33.39 28.35 C22.7 26.91, 12.72 24.93, 7.14 22.56 C1.56 20.18, -1.23 16.68, -0.1 14.1 C1.02 11.52, 6.52 9.17, 13.88 7.07 C21.24 4.96, 32.42 2.64, 44.07 1.47 C55.72 0.31, 77.19 0.23, 83.8 0.1 C90.4 -0.04, 83.8 0.41, 83.68 0.68" stroke="#0a11d3" stroke-width="1" fill="none"></path></g><g stroke-linecap="round" transform="translate(716.0392982770863 894.6370505163486) rotate(0 11.320892721449127 12.286634182176385)"><path d="M10.99 0.16 C13.32 -0.08, 16.58 1.13, 18.49 2.73 C20.41 4.33, 21.97 7.18, 22.47 9.75 C22.97 12.31, 22.65 15.81, 21.48 18.13 C20.32 20.45, 17.75 22.68, 15.48 23.66 C13.21 24.65, 10.2 24.84, 7.88 24.04 C5.56 23.24, 2.88 21.12, 1.56 18.85 C0.24 16.58, -0.41 13.05, -0.03 10.44 C0.34 7.83, 1.95 4.93, 3.83 3.2 C5.72 1.47, 10.01 0.56, 11.26 0.05 C12.5 -0.46, 11.36 -0.03, 11.32 0.13 M11.19 -0.26 C13.45 -0.52, 16.43 0.69, 18.28 2.36 C20.12 4.02, 21.77 7.08, 22.26 9.75 C22.74 12.42, 22.28 16.09, 21.18 18.37 C20.08 20.66, 17.86 22.56, 15.64 23.46 C13.42 24.36, 10.19 24.56, 7.88 23.75 C5.56 22.93, 3 20.84, 1.76 18.57 C0.51 16.31, 0.1 12.79, 0.41 10.18 C0.73 7.56, 1.93 4.62, 3.65 2.88 C5.38 1.15, 9.57 0.21, 10.75 -0.25 C11.93 -0.71, 10.66 -0.16, 10.72 0.13" stroke="none" stroke-width="0" fill="#fff"></path><path d="M11.06 0.03 C13.38 -0.16, 16.62 0.95, 18.55 2.62 C20.48 4.3, 22.19 7.46, 22.63 10.07 C23.07 12.68, 22.43 16.02, 21.19 18.29 C19.96 20.56, 17.5 22.78, 15.23 23.7 C12.97 24.62, 9.82 24.62, 7.58 23.8 C5.34 22.97, 3.08 21.03, 1.82 18.76 C0.55 16.5, -0.38 12.84, -0.01 10.2 C0.36 7.57, 2.18 4.68, 4.02 2.96 C5.87 1.24, 9.87 0.33, 11.07 -0.11 C12.26 -0.55, 11.17 0.07, 11.2 0.31 M11.06 0.21 C13.35 -0.02, 16.67 0.98, 18.55 2.52 C20.42 4.06, 21.79 6.85, 22.3 9.45 C22.81 12.05, 22.71 15.72, 21.61 18.12 C20.51 20.52, 17.98 22.84, 15.7 23.86 C13.42 24.89, 10.22 25.1, 7.92 24.28 C5.62 23.45, 3.25 21.24, 1.91 18.92 C0.58 16.59, -0.42 12.94, -0.08 10.32 C0.26 7.7, 2.11 4.95, 3.94 3.22 C5.78 1.48, 9.82 0.37, 10.94 -0.09 C12.06 -0.55, 10.7 0.27, 10.65 0.46" stroke="#0a11d3" stroke-width="1" fill="none"></path></g><g stroke-linecap="round" transform="translate(716.0392982770863 948.5753283683753) rotate(0 11.320892721449127 12.286634182176385)"><path d="M12.33 0.13 C14.65 0.13, 17.55 1.63, 19.29 3.46 C21.03 5.29, 22.55 8.48, 22.77 11.1 C22.99 13.72, 22.01 16.99, 20.63 19.17 C19.25 21.35, 16.83 23.46, 14.48 24.19 C12.13 24.93, 8.78 24.69, 6.53 23.57 C4.28 22.46, 1.99 19.9, 0.97 17.53 C-0.05 15.15, -0.24 11.86, 0.41 9.33 C1.06 6.8, 2.87 3.93, 4.86 2.36 C6.84 0.8, 11.1 0.31, 12.33 -0.07 C13.55 -0.45, 12.25 -0.15, 12.21 0.09 M10.82 -0.3 C13.06 -0.51, 16.2 0.81, 18.11 2.52 C20.02 4.22, 21.73 7.39, 22.29 9.94 C22.85 12.48, 22.58 15.52, 21.49 17.77 C20.39 20.03, 17.98 22.46, 15.72 23.47 C13.46 24.48, 10.21 24.66, 7.93 23.83 C5.65 23.01, 3.36 20.75, 2.03 18.51 C0.7 16.27, -0.29 12.99, -0.05 10.4 C0.19 7.8, 1.69 4.68, 3.47 2.92 C5.24 1.17, 9.35 0.29, 10.6 -0.11 C11.86 -0.5, 10.95 0.34, 10.99 0.56" stroke="none" stroke-width="0" fill="#fff"></path><path d="M10.34 -0.05 C12.66 -0.43, 15.95 0.79, 17.93 2.3 C19.9 3.82, 21.6 6.55, 22.19 9.05 C22.78 11.56, 22.48 14.95, 21.47 17.32 C20.46 19.69, 18.26 22.09, 16.13 23.26 C14 24.43, 11.05 24.99, 8.69 24.32 C6.33 23.65, 3.38 21.43, 1.96 19.25 C0.54 17.08, -0.02 13.88, 0.17 11.27 C0.37 8.65, 1.44 5.43, 3.12 3.57 C4.8 1.71, 9.03 0.64, 10.26 0.11 C11.49 -0.41, 10.48 0.17, 10.49 0.4 M10.81 -0.02 C13.05 -0.42, 15.91 0.54, 17.87 2.11 C19.83 3.68, 21.95 6.78, 22.57 9.41 C23.19 12.03, 22.69 15.46, 21.6 17.86 C20.5 20.26, 18.19 22.74, 15.99 23.79 C13.79 24.85, 10.76 25, 8.38 24.18 C6.01 23.36, 3.11 21.05, 1.76 18.87 C0.41 16.68, 0 13.63, 0.29 11.05 C0.58 8.46, 1.84 5.17, 3.5 3.36 C5.17 1.56, 9.15 0.78, 10.28 0.23 C11.4 -0.31, 10.16 -0.15, 10.24 0.07" stroke="#0a11d3" stroke-width="1" fill="none"></path></g><g stroke-linecap="round" transform="translate(716.0392982770863 1007.1990695753211) rotate(0 11.320892721449127 12.286634182176385)"><path d="M12.27 0.01 C14.58 0.04, 17.72 1.72, 19.44 3.56 C21.15 5.4, 22.33 8.44, 22.54 11.07 C22.76 13.7, 22.13 17.13, 20.75 19.32 C19.36 21.51, 16.59 23.54, 14.22 24.21 C11.84 24.89, 8.66 24.47, 6.48 23.37 C4.31 22.28, 2.16 20.01, 1.17 17.65 C0.17 15.3, -0.1 11.85, 0.51 9.27 C1.12 6.69, 2.86 3.75, 4.81 2.18 C6.76 0.61, 10.95 0.14, 12.21 -0.15 C13.47 -0.44, 12.39 0.18, 12.38 0.44 M10.17 -0.02 C12.45 -0.31, 15.67 0.98, 17.71 2.45 C19.75 3.93, 21.74 6.37, 22.41 8.85 C23.08 11.32, 22.76 14.87, 21.72 17.27 C20.68 19.68, 18.36 22.18, 16.19 23.27 C14.02 24.37, 11.07 24.54, 8.69 23.85 C6.31 23.16, 3.38 21.28, 1.9 19.13 C0.42 16.99, -0.4 13.58, -0.22 10.97 C-0.03 8.37, 1.25 5.26, 3.02 3.49 C4.79 1.72, 9.2 0.89, 10.41 0.35 C11.62 -0.19, 10.24 0.08, 10.26 0.27" stroke="none" stroke-width="0" fill="#fff"></path><path d="M11.7 0.15 C13.98 0.06, 16.92 1.37, 18.7 3.06 C20.47 4.75, 21.96 7.72, 22.34 10.29 C22.72 12.86, 22.15 16.19, 20.97 18.48 C19.78 20.77, 17.52 23.18, 15.22 24.03 C12.92 24.88, 9.41 24.56, 7.14 23.59 C4.86 22.62, 2.75 20.49, 1.57 18.2 C0.39 15.91, -0.34 12.42, 0.08 9.85 C0.51 7.29, 2.19 4.44, 4.11 2.82 C6.04 1.2, 10.38 0.51, 11.62 0.12 C12.87 -0.28, 11.61 0.24, 11.57 0.44 M11.99 -0.2 C14.29 -0.16, 17.65 1.64, 19.43 3.53 C21.21 5.43, 22.44 8.52, 22.67 11.17 C22.89 13.81, 22.11 17.25, 20.78 19.41 C19.44 21.58, 17.01 23.53, 14.64 24.16 C12.27 24.8, 8.77 24.29, 6.57 23.22 C4.36 22.15, 2.42 20.06, 1.39 17.74 C0.36 15.41, -0.11 11.78, 0.39 9.25 C0.89 6.73, 2.5 4.15, 4.4 2.57 C6.3 1, 10.48 0.16, 11.78 -0.18 C13.08 -0.52, 12.18 0.31, 12.2 0.54" stroke="#0a11d3" stroke-width="1" fill="none"></path></g><g transform="translate(770 970) rotate(0 50.203125 16.800000000000182)"><text x="50.203125" y="0" font-family="Cascadia, Segoe UI Emoji" font-size="28px" fill="#1e1e1e" text-anchor="middle" style="white-space: pre;" direction="ltr" dominant-baseline="text-before-edge">数据库1</text></g><g transform="translate(180.546875 1070) rotate(0 108 21.600000000000364)"><text x="108" y="0" font-family="Cascadia, Segoe UI Emoji" font-size="36px" fill="#1e1e1e" text-anchor="middle" style="white-space: pre;" direction="ltr" dominant-baseline="text-before-edge">数据库服务器</text></g><g transform="translate(270 330) rotate(0 108 43.19999999999982)"><text x="108" y="0" font-family="Cascadia, Segoe UI Emoji" font-size="36px" fill="#1e1e1e" text-anchor="middle" style="white-space: pre;" direction="ltr" dominant-baseline="text-before-edge">电商销售系统</text><text x="108" y="43.199999999999996" font-family="Cascadia, Segoe UI Emoji" font-size="36px" fill="#1e1e1e" text-anchor="middle" style="white-space: pre;" direction="ltr" dominant-baseline="text-before-edge">（运动鞋服）</text></g><g stroke-linecap="round" transform="translate(670 170) rotate(0 190 140)"><path d="M32 0 C98.51 0, 165.03 0, 348 0 C369.33 0, 380 10.67, 380 32 C380 112.3, 380 192.61, 380 248 C380 269.33, 369.33 280, 348 280 C284.19 280, 220.38 280, 32 280 C10.67 280, 0 269.33, 0 248 C0 194.9, 0 141.81, 0 32 C0 10.67, 10.67 0, 32 0" stroke="none" stroke-width="0" fill="#ebfbee"></path><path d="M32 0 C141.75 0, 251.5 0, 348 0 M32 0 C136.95 0, 241.89 0, 348 0 M348 0 C369.33 0, 380 10.67, 380 32 M348 0 C369.33 0, 380 10.67, 380 32 M380 32 C380 82.49, 380 132.99, 380 248 M380 32 C380 115.42, 380 198.84, 380 248 M380 248 C380 269.33, 369.33 280, 348 280 M380 248 C380 269.33, 369.33 280, 348 280 M348 280 C279.87 280, 211.75 280, 32 280 M348 280 C260.14 280, 172.28 280, 32 280 M32 280 C10.67 280, 0 269.33, 0 248 M32 280 C10.67 280, 0 269.33, 0 248 M0 248 C0 164.76, 0 81.52, 0 32 M0 248 C0 167.54, 0 87.08, 0 32 M0 32 C0 10.67, 10.67 0, 32 0 M0 32 C0 10.67, 10.67 0, 32 0" stroke="#1e1e1e" stroke-width="4" fill="none"></path></g><g stroke-linecap="round" transform="translate(750 210) rotate(0 110 50)"><path d="M25 0 C67.14 0, 109.28 0, 195 0 C211.67 0, 220 8.33, 220 25 C220 38.99, 220 52.97, 220 75 C220 91.67, 211.67 100, 195 100 C129.73 100, 64.46 100, 25 100 C8.33 100, 0 91.67, 0 75 C0 60.14, 0 45.29, 0 25 C0 8.33, 8.33 0, 25 0" stroke="none" stroke-width="0" fill="#b2f2bb"></path><path d="M25 0 C82.19 0, 139.39 0, 195 0 M25 0 C79.49 0, 133.97 0, 195 0 M195 0 C211.67 0, 220 8.33, 220 25 M195 0 C211.67 0, 220 8.33, 220 25 M220 25 C220 40.34, 220 55.67, 220 75 M220 25 C220 40.96, 220 56.93, 220 75 M220 75 C220 91.67, 211.67 100, 195 100 M220 75 C220 91.67, 211.67 100, 195 100 M195 100 C134.27 100, 73.54 100, 25 100 M195 100 C155.72 100, 116.44 100, 25 100 M25 100 C8.33 100, 0 91.67, 0 75 M25 100 C8.33 100, 0 91.67, 0 75 M0 75 C0 63.5, 0 52.01, 0 25 M0 75 C0 58.47, 0 41.93, 0 25 M0 25 C0 8.33, 8.33 0, 25 0 M0 25 C0 8.33, 8.33 0, 25 0" stroke="#2f9e44" stroke-width="4" fill="none"></path></g><g transform="translate(804 243.20000000000073) rotate(0 56 16.800000000000182)"><text x="56" y="0" font-family="Cascadia, Segoe UI Emoji" font-size="28px" fill="#1e1e1e" text-anchor="middle" style="white-space: pre;" direction="ltr" dominant-baseline="text-before-edge">用户管理</text></g><g transform="translate(750 330) rotate(0 108 43.19999999999982)"><text x="108" y="0" font-family="Cascadia, Segoe UI Emoji" font-size="36px" fill="#1e1e1e" text-anchor="middle" style="white-space: pre;" direction="ltr" dominant-baseline="text-before-edge">电商销售系统</text><text x="108" y="43.199999999999996" font-family="Cascadia, Segoe UI Emoji" font-size="36px" fill="#1e1e1e" text-anchor="middle" style="white-space: pre;" direction="ltr" dominant-baseline="text-before-edge">（电脑数码）</text></g><g stroke-linecap="round" transform="translate(1210 130) rotate(0 490 190)"><path d="M32 0 C254.49 0, 476.98 0, 948 0 C969.33 0, 980 10.67, 980 32 C980 130.08, 980 228.15, 980 348 C980 369.33, 969.33 380, 948 380 C720.46 380, 492.91 380, 32 380 C10.67 380, 0 369.33, 0 348 C0 254.35, 0 160.7, 0 32 C0 10.67, 10.67 0, 32 0" stroke="none" stroke-width="0" fill="#ffffff"></path><path d="M32 0 C287.07 0, 542.13 0, 948 0 M948 0 C969.33 0, 980 10.67, 980 32 M980 32 C980 107.65, 980 183.3, 980 348 M980 348 C980 369.33, 969.33 380, 948 380 M948 380 C734.32 380, 520.64 380, 32 380 M32 380 C10.67 380, 0 369.33, 0 348 M0 348 C0 235.66, 0 123.32, 0 32 M0 32 C0 10.67, 10.67 0, 32 0" stroke="#1e1e1e" stroke-width="4.5" fill="none" stroke-dasharray="8 12"></path></g><g stroke-linecap="round" transform="translate(1270 170) rotate(0 190 140)"><path d="M32 0 C116.07 0, 200.15 0, 348 0 C369.33 0, 380 10.67, 380 32 C380 110.97, 380 189.94, 380 248 C380 269.33, 369.33 280, 348 280 C265.93 280, 183.87 280, 32 280 C10.67 280, 0 269.33, 0 248 C0 172.18, 0 96.37, 0 32 C0 10.67, 10.67 0, 32 0" stroke="none" stroke-width="0" fill="#ebfbee"></path><path d="M32 0 C147.88 0, 263.76 0, 348 0 M32 0 C151.45 0, 270.9 0, 348 0 M348 0 C369.33 0, 380 10.67, 380 32 M348 0 C369.33 0, 380 10.67, 380 32 M380 32 C380 113.06, 380 194.12, 380 248 M380 32 C380 78.37, 380 124.74, 380 248 M380 248 C380 269.33, 369.33 280, 348 280 M380 248 C380 269.33, 369.33 280, 348 280 M348 280 C255.61 280, 163.22 280, 32 280 M348 280 C232.16 280, 116.32 280, 32 280 M32 280 C10.67 280, 0 269.33, 0 248 M32 280 C10.67 280, 0 269.33, 0 248 M0 248 C0 176.37, 0 104.75, 0 32 M0 248 C0 163.93, 0 79.85, 0 32 M0 32 C0 10.67, 10.67 0, 32 0 M0 32 C0 10.67, 10.67 0, 32 0" stroke="#1e1e1e" stroke-width="4" fill="none"></path></g><g stroke-linecap="round" transform="translate(1350 210) rotate(0 110 50)"><path d="M25 0 C92.61 0, 160.21 0, 195 0 C211.67 0, 220 8.33, 220 25 C220 36.41, 220 47.83, 220 75 C220 91.67, 211.67 100, 195 100 C147.48 100, 99.96 100, 25 100 C8.33 100, 0 91.67, 0 75 C0 63.26, 0 51.51, 0 25 C0 8.33, 8.33 0, 25 0" stroke="none" stroke-width="0" fill="#b2f2bb"></path><path d="M25 0 C90.84 0, 156.68 0, 195 0 M25 0 C65.7 0, 106.39 0, 195 0 M195 0 C211.67 0, 220 8.33, 220 25 M195 0 C211.67 0, 220 8.33, 220 25 M220 25 C220 35.11, 220 45.23, 220 75 M220 25 C220 42.78, 220 60.55, 220 75 M220 75 C220 91.67, 211.67 100, 195 100 M220 75 C220 91.67, 211.67 100, 195 100 M195 100 C157.28 100, 119.55 100, 25 100 M195 100 C142.24 100, 89.48 100, 25 100 M25 100 C8.33 100, 0 91.67, 0 75 M25 100 C8.33 100, 0 91.67, 0 75 M0 75 C0 64.32, 0 53.65, 0 25 M0 75 C0 60.18, 0 45.36, 0 25 M0 25 C0 8.33, 8.33 0, 25 0 M0 25 C0 8.33, 8.33 0, 25 0" stroke="#2f9e44" stroke-width="4" fill="none"></path></g><g transform="translate(1404 243.20000000000073) rotate(0 56 16.800000000000182)"><text x="56" y="0" font-family="Cascadia, Segoe UI Emoji" font-size="28px" fill="#1e1e1e" text-anchor="middle" style="white-space: pre;" direction="ltr" dominant-baseline="text-before-edge">商品管理</text></g><g transform="translate(1350 330) rotate(0 108 43.19999999999982)"><text x="108" y="0" font-family="Cascadia, Segoe UI Emoji" font-size="36px" fill="#1e1e1e" text-anchor="middle" style="white-space: pre;" direction="ltr" dominant-baseline="text-before-edge">电商销售系统</text><text x="108" y="43.199999999999996" font-family="Cascadia, Segoe UI Emoji" font-size="36px" fill="#1e1e1e" text-anchor="middle" style="white-space: pre;" direction="ltr" dominant-baseline="text-before-edge">（运动鞋服）</text></g><g stroke-linecap="round" transform="translate(1750 170) rotate(0 190 140)"><path d="M32 0 C137.99 0, 243.99 0, 348 0 C369.33 0, 380 10.67, 380 32 C380 102.65, 380 173.29, 380 248 C380 269.33, 369.33 280, 348 280 C231.76 280, 115.51 280, 32 280 C10.67 280, 0 269.33, 0 248 C0 199.1, 0 150.19, 0 32 C0 10.67, 10.67 0, 32 0" stroke="none" stroke-width="0" fill="#ebfbee"></path><path d="M32 0 C131.93 0, 231.85 0, 348 0 M32 0 C100.08 0, 168.16 0, 348 0 M348 0 C369.33 0, 380 10.67, 380 32 M348 0 C369.33 0, 380 10.67, 380 32 M380 32 C380 106.33, 380 180.66, 380 248 M380 32 C380 100.47, 380 168.94, 380 248 M380 248 C380 269.33, 369.33 280, 348 280 M380 248 C380 269.33, 369.33 280, 348 280 M348 280 C235.21 280, 122.41 280, 32 280 M348 280 C231.96 280, 115.92 280, 32 280 M32 280 C10.67 280, 0 269.33, 0 248 M32 280 C10.67 280, 0 269.33, 0 248 M0 248 C0 189.56, 0 131.12, 0 32 M0 248 C0 165.54, 0 83.08, 0 32 M0 32 C0 10.67, 10.67 0, 32 0 M0 32 C0 10.67, 10.67 0, 32 0" stroke="#1e1e1e" stroke-width="4" fill="none"></path></g><g stroke-linecap="round" transform="translate(1830 210) rotate(0 110 50)"><path d="M25 0 C79.84 0, 134.68 0, 195 0 C211.67 0, 220 8.33, 220 25 C220 42.36, 220 59.71, 220 75 C220 91.67, 211.67 100, 195 100 C132.78 100, 70.56 100, 25 100 C8.33 100, 0 91.67, 0 75 C0 58.4, 0 41.8, 0 25 C0 8.33, 8.33 0, 25 0" stroke="none" stroke-width="0" fill="#b2f2bb"></path><path d="M25 0 C71.16 0, 117.32 0, 195 0 M25 0 C66.35 0, 107.71 0, 195 0 M195 0 C211.67 0, 220 8.33, 220 25 M195 0 C211.67 0, 220 8.33, 220 25 M220 25 C220 37.53, 220 50.05, 220 75 M220 25 C220 42.95, 220 60.89, 220 75 M220 75 C220 91.67, 211.67 100, 195 100 M220 75 C220 91.67, 211.67 100, 195 100 M195 100 C141.02 100, 87.04 100, 25 100 M195 100 C156.38 100, 117.76 100, 25 100 M25 100 C8.33 100, 0 91.67, 0 75 M25 100 C8.33 100, 0 91.67, 0 75 M0 75 C0 61.64, 0 48.27, 0 25 M0 75 C0 56.22, 0 37.44, 0 25 M0 25 C0 8.33, 8.33 0, 25 0 M0 25 C0 8.33, 8.33 0, 25 0" stroke="#2f9e44" stroke-width="4" fill="none"></path></g><g transform="translate(1884 243.20000000000073) rotate(0 56 16.800000000000182)"><text x="56" y="0" font-family="Cascadia, Segoe UI Emoji" font-size="28px" fill="#1e1e1e" text-anchor="middle" style="white-space: pre;" direction="ltr" dominant-baseline="text-before-edge">商品管理</text></g><g transform="translate(1830 330) rotate(0 108 43.19999999999982)"><text x="108" y="0" font-family="Cascadia, Segoe UI Emoji" font-size="36px" fill="#1e1e1e" text-anchor="middle" style="white-space: pre;" direction="ltr" dominant-baseline="text-before-edge">电商销售系统</text><text x="108" y="43.199999999999996" font-family="Cascadia, Segoe UI Emoji" font-size="36px" fill="#1e1e1e" text-anchor="middle" style="white-space: pre;" direction="ltr" dominant-baseline="text-before-edge">（电脑数码）</text></g><g stroke-linecap="round" transform="translate(2290 130) rotate(0 490 190)"><path d="M32 0 C329 0, 626 0, 948 0 C969.33 0, 980 10.67, 980 32 C980 113.84, 980 195.67, 980 348 C980 369.33, 969.33 380, 948 380 C675.75 380, 403.51 380, 32 380 C10.67 380, 0 369.33, 0 348 C0 237.72, 0 127.44, 0 32 C0 10.67, 10.67 0, 32 0" stroke="none" stroke-width="0" fill="#ffffff"></path><path d="M32 0 C392.12 0, 752.25 0, 948 0 M948 0 C969.33 0, 980 10.67, 980 32 M980 32 C980 132.56, 980 233.13, 980 348 M980 348 C980 369.33, 969.33 380, 948 380 M948 380 C691.75 380, 435.51 380, 32 380 M32 380 C10.67 380, 0 369.33, 0 348 M0 348 C0 266.4, 0 184.79, 0 32 M0 32 C0 10.67, 10.67 0, 32 0" stroke="#1e1e1e" stroke-width="4.5" fill="none" stroke-dasharray="8 12"></path></g><g stroke-linecap="round" transform="translate(2350 170) rotate(0 190 140)"><path d="M32 0 C102.93 0, 173.85 0, 348 0 C369.33 0, 380 10.67, 380 32 C380 82.19, 380 132.37, 380 248 C380 269.33, 369.33 280, 348 280 C268 280, 187.99 280, 32 280 C10.67 280, 0 269.33, 0 248 C0 197.73, 0 147.46, 0 32 C0 10.67, 10.67 0, 32 0" stroke="none" stroke-width="0" fill="#ebfbee"></path><path d="M32 0 C141.52 0, 251.04 0, 348 0 M32 0 C137.1 0, 242.2 0, 348 0 M348 0 C369.33 0, 380 10.67, 380 32 M348 0 C369.33 0, 380 10.67, 380 32 M380 32 C380 104.25, 380 176.5, 380 248 M380 32 C380 77.22, 380 122.44, 380 248 M380 248 C380 269.33, 369.33 280, 348 280 M380 248 C380 269.33, 369.33 280, 348 280 M348 280 C238.19 280, 128.37 280, 32 280 M348 280 C230.69 280, 113.39 280, 32 280 M32 280 C10.67 280, 0 269.33, 0 248 M32 280 C10.67 280, 0 269.33, 0 248 M0 248 C0 186.45, 0 124.9, 0 32 M0 248 C0 168.93, 0 89.87, 0 32 M0 32 C0 10.67, 10.67 0, 32 0 M0 32 C0 10.67, 10.67 0, 32 0" stroke="#1e1e1e" stroke-width="4" fill="none"></path></g><g stroke-linecap="round" transform="translate(2430 210) rotate(0 110 50)"><path d="M25 0 C67.35 0, 109.7 0, 195 0 C211.67 0, 220 8.33, 220 25 C220 35.56, 220 46.12, 220 75 C220 91.67, 211.67 100, 195 100 C144.77 100, 94.54 100, 25 100 C8.33 100, 0 91.67, 0 75 C0 60.28, 0 45.57, 0 25 C0 8.33, 8.33 0, 25 0" stroke="none" stroke-width="0" fill="#b2f2bb"></path><path d="M25 0 C74.28 0, 123.56 0, 195 0 M25 0 C79.1 0, 133.2 0, 195 0 M195 0 C211.67 0, 220 8.33, 220 25 M195 0 C211.67 0, 220 8.33, 220 25 M220 25 C220 42.36, 220 59.72, 220 75 M220 25 C220 37.91, 220 50.82, 220 75 M220 75 C220 91.67, 211.67 100, 195 100 M220 75 C220 91.67, 211.67 100, 195 100 M195 100 C142.64 100, 90.29 100, 25 100 M195 100 C150.97 100, 106.95 100, 25 100 M25 100 C8.33 100, 0 91.67, 0 75 M25 100 C8.33 100, 0 91.67, 0 75 M0 75 C0 60.92, 0 46.85, 0 25 M0 75 C0 57.55, 0 40.1, 0 25 M0 25 C0 8.33, 8.33 0, 25 0 M0 25 C0 8.33, 8.33 0, 25 0" stroke="#2f9e44" stroke-width="4" fill="none"></path></g><g transform="translate(2484 243.20000000000073) rotate(0 56 16.800000000000182)"><text x="56" y="0" font-family="Cascadia, Segoe UI Emoji" font-size="28px" fill="#1e1e1e" text-anchor="middle" style="white-space: pre;" direction="ltr" dominant-baseline="text-before-edge">订单管理</text></g><g transform="translate(2430 330) rotate(0 108 43.19999999999982)"><text x="108" y="0" font-family="Cascadia, Segoe UI Emoji" font-size="36px" fill="#1e1e1e" text-anchor="middle" style="white-space: pre;" direction="ltr" dominant-baseline="text-before-edge">电商销售系统</text><text x="108" y="43.199999999999996" font-family="Cascadia, Segoe UI Emoji" font-size="36px" fill="#1e1e1e" text-anchor="middle" style="white-space: pre;" direction="ltr" dominant-baseline="text-before-edge">（运动鞋服）</text></g><g stroke-linecap="round" transform="translate(2830 170) rotate(0 190 140)"><path d="M32 0 C99.38 0, 166.76 0, 348 0 C369.33 0, 380 10.67, 380 32 C380 77.45, 380 122.9, 380 248 C380 269.33, 369.33 280, 348 280 C283.72 280, 219.44 280, 32 280 C10.67 280, 0 269.33, 0 248 C0 181.15, 0 114.29, 0 32 C0 10.67, 10.67 0, 32 0" stroke="none" stroke-width="0" fill="#ebfbee"></path><path d="M32 0 C107.47 0, 182.95 0, 348 0 M32 0 C148.83 0, 265.66 0, 348 0 M348 0 C369.33 0, 380 10.67, 380 32 M348 0 C369.33 0, 380 10.67, 380 32 M380 32 C380 86.68, 380 141.36, 380 248 M380 32 C380 98.99, 380 165.99, 380 248 M380 248 C380 269.33, 369.33 280, 348 280 M380 248 C380 269.33, 369.33 280, 348 280 M348 280 C249.93 280, 151.87 280, 32 280 M348 280 C232.59 280, 117.18 280, 32 280 M32 280 C10.67 280, 0 269.33, 0 248 M32 280 C10.67 280, 0 269.33, 0 248 M0 248 C0 196.8, 0 145.6, 0 32 M0 248 C0 179.33, 0 110.65, 0 32 M0 32 C0 10.67, 10.67 0, 32 0 M0 32 C0 10.67, 10.67 0, 32 0" stroke="#1e1e1e" stroke-width="4" fill="none"></path></g><g stroke-linecap="round" transform="translate(2910 210) rotate(0 110 50)"><path d="M25 0 C88.04 0, 151.09 0, 195 0 C211.67 0, 220 8.33, 220 25 C220 37.08, 220 49.15, 220 75 C220 91.67, 211.67 100, 195 100 C139.64 100, 84.28 100, 25 100 C8.33 100, 0 91.67, 0 75 C0 63.7, 0 52.4, 0 25 C0 8.33, 8.33 0, 25 0" stroke="none" stroke-width="0" fill="#b2f2bb"></path><path d="M25 0 C67.06 0, 109.12 0, 195 0 M25 0 C69 0, 113 0, 195 0 M195 0 C211.67 0, 220 8.33, 220 25 M195 0 C211.67 0, 220 8.33, 220 25 M220 25 C220 45, 220 65, 220 75 M220 25 C220 39.27, 220 53.54, 220 75 M220 75 C220 91.67, 211.67 100, 195 100 M220 75 C220 91.67, 211.67 100, 195 100 M195 100 C134.51 100, 74.01 100, 25 100 M195 100 C159.68 100, 124.36 100, 25 100 M25 100 C8.33 100, 0 91.67, 0 75 M25 100 C8.33 100, 0 91.67, 0 75 M0 75 C0 61.17, 0 47.34, 0 25 M0 75 C0 56.77, 0 38.55, 0 25 M0 25 C0 8.33, 8.33 0, 25 0 M0 25 C0 8.33, 8.33 0, 25 0" stroke="#2f9e44" stroke-width="4" fill="none"></path></g><g transform="translate(2964 243.20000000000073) rotate(0 56 16.800000000000182)"><text x="56" y="0" font-family="Cascadia, Segoe UI Emoji" font-size="28px" fill="#1e1e1e" text-anchor="middle" style="white-space: pre;" direction="ltr" dominant-baseline="text-before-edge">订单管理</text></g><g transform="translate(2910 330) rotate(0 108 43.19999999999982)"><text x="108" y="0" font-family="Cascadia, Segoe UI Emoji" font-size="36px" fill="#1e1e1e" text-anchor="middle" style="white-space: pre;" direction="ltr" dominant-baseline="text-before-edge">电商销售系统</text><text x="108" y="43.199999999999996" font-family="Cascadia, Segoe UI Emoji" font-size="36px" fill="#1e1e1e" text-anchor="middle" style="white-space: pre;" direction="ltr" dominant-baseline="text-before-edge">（电脑数码）</text></g><g stroke-linecap="round"><g transform="translate(1632.6917671055126 865.828360382191) rotate(0 77.55033907774487 84.32058031767065)" fill-rule="evenodd"><path d="M-1.57 1.64 C-1.55 26.18, -0.44 121.2, 0.12 149.45 C0.69 177.7, 0.59 166.82, 1.82 171.15 C3.04 175.48, 1.7 173.75, 7.47 175.42 C13.24 177.09, 23.87 180.03, 36.44 181.18 C49.01 182.32, 67.42 182.26, 82.89 182.31 C98.35 182.35, 117.68 182.8, 129.24 181.43 C140.8 180.07, 147.55 176.57, 152.23 174.11 C156.92 171.64, 156.97 170.33, 157.36 166.65 C157.74 162.98, 154.51 177.62, 154.52 152.03 C154.53 126.44, 157.18 38.77, 157.43 13.12 C157.68 -12.53, 157.94 1.37, 156.02 -1.87 C154.1 -5.11, 151.51 -4.34, 145.9 -6.34 C140.29 -8.34, 133.86 -11.93, 122.37 -13.86 C110.87 -15.8, 91.21 -17.87, 76.94 -17.96 C62.67 -18.05, 48.46 -16.59, 36.74 -14.4 C25.02 -12.2, 12.49 -6.95, 6.61 -4.8 C0.72 -2.65, 2.48 -1.99, 1.42 -1.49 C0.36 -1, 0.41 -1.75, 0.23 -1.83" stroke="none" stroke-width="0" fill="#228be6" fill-rule="evenodd"></path><path d="M-1.01 0.31 C-1.12 25.78, 0.21 123.98, 0.38 152.17 C0.54 180.37, -1.39 165.26, -0.03 169.49 C1.33 173.72, 2.64 175.25, 8.53 177.56 C14.43 179.87, 22.96 182.22, 35.35 183.34 C47.73 184.46, 67.54 184.41, 82.86 184.25 C98.18 184.1, 115.68 184.13, 127.27 182.43 C138.86 180.73, 148 176.62, 152.41 174.06 C156.82 171.5, 153.07 170.29, 153.75 167.05 C154.43 163.82, 156.21 180.56, 156.47 154.64 C156.72 128.73, 155.75 37.58, 155.28 11.57 C154.81 -14.45, 155.66 1.86, 153.64 -1.43 C151.62 -4.73, 148.24 -6.49, 143.17 -8.21 C138.11 -9.93, 134.73 -10.53, 123.25 -11.75 C111.77 -12.97, 88.63 -15.17, 74.3 -15.52 C59.96 -15.86, 48.68 -15.14, 37.24 -13.82 C25.81 -12.5, 11.8 -9.99, 5.71 -7.6 C-0.38 -5.2, 1.76 -0.8, 0.72 0.54 C-0.32 1.89, -0.4 0.61, -0.53 0.48 M0.66 -0.57 C0.29 24.59, -0.39 122.31, -0.64 150.32 C-0.89 178.32, -2.43 163.22, -0.82 167.44 C0.8 171.66, 2.7 172.84, 9.06 175.61 C15.41 178.38, 24.75 182.83, 37.29 184.06 C49.83 185.29, 69.23 183.41, 84.3 182.99 C99.36 182.57, 116.43 183.09, 127.69 181.55 C138.94 180.01, 147.25 175.83, 151.83 173.73 C156.4 171.64, 154.74 172.17, 155.12 168.99 C155.51 165.8, 154.03 180.81, 154.14 154.63 C154.24 128.46, 155.49 38.1, 155.74 11.94 C155.98 -14.21, 157.74 1.22, 155.59 -2.29 C153.45 -5.8, 148.36 -7.56, 142.86 -9.11 C137.35 -10.66, 134.04 -10.5, 122.58 -11.62 C111.12 -12.74, 88.13 -15.66, 74.11 -15.82 C60.09 -15.98, 49.56 -13.96, 38.48 -12.56 C27.4 -11.16, 14.06 -9.73, 7.62 -7.43 C1.19 -5.13, 0.88 -0.16, -0.15 1.24 C-1.17 2.64, 1.38 0.94, 1.46 0.99" stroke="#0a11d3" stroke-width="1" fill="none"></path></g></g><mask></mask><g stroke-linecap="round"><g transform="translate(1633.9032745411532 980.9053108430307) rotate(0 77.75669254100649 7.830671953840465)"><path d="M-0.02 0.08 C0.69 1.24, 0.44 4.85, 4.09 6.97 C7.74 9.1, 15.01 11.3, 21.87 12.85 C28.73 14.4, 35.19 15.67, 45.24 16.26 C55.29 16.85, 68.88 16.72, 82.19 16.41 C95.51 16.09, 113.75 16.1, 125.13 14.39 C136.51 12.69, 145.41 8.7, 150.47 6.15 C155.52 3.6, 154.56 0.23, 155.45 -0.9 M-0.27 -0.05 C0.43 1.05, 0.26 4.57, 3.93 6.68 C7.61 8.78, 14.91 11.03, 21.79 12.57 C28.68 14.1, 35.21 15.25, 45.24 15.9 C55.27 16.54, 68.61 16.7, 81.96 16.43 C95.3 16.17, 113.98 16.05, 125.32 14.3 C136.67 12.55, 144.97 8.49, 150.05 5.94 C155.12 3.38, 154.85 0.11, 155.78 -1.01" stroke="#0a11d3" stroke-width="1" fill="none"></path></g></g><mask></mask><g stroke-linecap="round"><g transform="translate(1631.9755031981258 922.6105431519827) rotate(0 77.78666025128587 8.142210664431332)"><path d="M-0.01 0.09 C0.69 1.26, 0.57 4.96, 4.19 7.07 C7.81 9.19, 14.85 11.26, 21.71 12.76 C28.56 14.26, 35.26 15.44, 45.33 16.09 C55.39 16.73, 68.77 16.93, 82.11 16.62 C95.45 16.32, 114 16.02, 125.34 14.25 C136.68 12.49, 145.05 8.53, 150.13 6.04 C155.21 3.56, 154.9 0.51, 155.82 -0.66 M-0.25 -0.03 C0.44 1.08, 0.44 4.75, 4.08 6.83 C7.71 8.9, 14.66 10.87, 21.55 12.43 C28.43 14, 35.22 15.51, 45.37 16.23 C55.52 16.95, 69.15 17.12, 82.43 16.76 C95.71 16.4, 113.76 15.82, 125.05 14.09 C136.33 12.35, 145.02 8.82, 150.14 6.36 C155.26 3.91, 154.86 0.54, 155.74 -0.64" stroke="#0a11d3" stroke-width="1" fill="none"></path></g></g><mask></mask><g stroke-linecap="round" transform="translate(1630 851.6844522900938) rotate(0 77.24430072362156 15.622078688616966)"><path d="M83.16 0.09 C95.43 0.09, 110.19 1.52, 120.83 3.01 C131.46 4.5, 141.41 6.76, 146.98 9.03 C152.55 11.3, 155.29 14.09, 154.23 16.63 C153.17 19.16, 147.89 22.08, 140.62 24.24 C133.35 26.39, 122.21 28.37, 110.61 29.56 C99.01 30.75, 83.87 31.62, 71.01 31.4 C58.15 31.18, 44.06 29.77, 33.46 28.26 C22.86 26.75, 12.99 24.64, 7.42 22.34 C1.85 20.04, -1.02 17.01, 0.04 14.44 C1.1 11.87, 6.49 9.02, 13.79 6.9 C21.08 4.79, 32.04 2.92, 43.82 1.77 C55.59 0.61, 77.55 0.2, 84.44 -0.02 C91.33 -0.24, 85.34 0.15, 85.16 0.43 M72.38 0.03 C84.53 -0.39, 99.69 0.6, 111.2 1.72 C122.71 2.85, 134.29 4.61, 141.43 6.77 C148.57 8.94, 153.2 12.12, 154.04 14.7 C154.87 17.28, 152.11 19.93, 146.42 22.26 C140.73 24.58, 130.52 27.12, 119.89 28.64 C109.25 30.15, 95.34 31.17, 82.59 31.35 C69.84 31.53, 55.05 30.89, 43.4 29.72 C31.75 28.55, 19.93 26.47, 12.69 24.3 C5.45 22.14, 0.71 19.35, -0.05 16.72 C-0.81 14.09, 2.47 10.83, 8.14 8.51 C13.82 6.2, 23.34 4.25, 33.99 2.84 C44.64 1.43, 65.63 0.43, 72.03 0.06 C78.43 -0.3, 72.22 0.44, 72.4 0.63" stroke="none" stroke-width="0" fill="#fff"></path><path d="M73.28 -0.07 C85.45 -0.39, 101.18 0.74, 112.66 1.9 C124.13 3.06, 135.19 4.69, 142.13 6.89 C149.06 9.08, 153.58 12.42, 154.25 15.07 C154.93 17.72, 152.06 20.54, 146.17 22.8 C140.28 25.06, 129.79 27.26, 118.92 28.62 C108.05 29.99, 93.76 30.85, 80.94 31 C68.11 31.15, 53.4 30.72, 41.99 29.54 C30.58 28.35, 19.47 26.07, 12.5 23.89 C5.54 21.71, 0.87 19.09, 0.2 16.49 C-0.47 13.89, 2.69 10.6, 8.5 8.3 C14.31 5.99, 24.06 4.07, 35.08 2.67 C46.1 1.27, 67.84 0.29, 74.62 -0.1 C81.39 -0.5, 75.71 0.02, 75.73 0.3 M86 -0.25 C98.37 -0.18, 113.2 1.84, 123.54 3.42 C133.87 5.01, 142.94 6.96, 148.03 9.25 C153.12 11.54, 155.54 14.61, 154.08 17.16 C152.63 19.71, 146.95 22.42, 139.3 24.55 C131.66 26.68, 120.01 28.84, 108.22 29.94 C96.42 31.04, 81.3 31.48, 68.53 31.15 C55.76 30.83, 42 29.6, 31.62 28 C21.24 26.41, 11.36 23.91, 6.24 21.56 C1.11 19.21, -0.66 16.47, 0.88 13.9 C2.43 11.33, 7.84 8.17, 15.48 6.12 C23.13 4.06, 35.04 2.6, 46.78 1.56 C58.52 0.52, 79.37 0.11, 85.94 -0.13 C92.5 -0.38, 86.28 -0.18, 86.15 0.1" stroke="#0a11d3" stroke-width="1" fill="none"></path></g><g stroke-linecap="round" transform="translate(1756.0392982770863 895.0004716566618) rotate(0 11.320892721449127 12.286634182176385)"><path d="M12.01 0.18 C14.27 0.21, 17.29 1.65, 19.04 3.46 C20.79 5.27, 22.24 8.39, 22.53 11.03 C22.83 13.68, 22.21 17.13, 20.83 19.32 C19.46 21.5, 16.67 23.43, 14.29 24.13 C11.9 24.83, 8.75 24.57, 6.53 23.53 C4.31 22.48, 1.99 20.21, 0.96 17.85 C-0.07 15.49, -0.28 12, 0.34 9.38 C0.96 6.76, 2.73 3.73, 4.68 2.14 C6.63 0.55, 10.74 0.18, 12.04 -0.15 C13.33 -0.48, 12.45 -0.1, 12.45 0.16 M11.33 -0.25 C13.7 -0.35, 16.79 1.41, 18.67 3.1 C20.56 4.79, 22.18 7.3, 22.64 9.91 C23.1 12.51, 22.68 16.34, 21.42 18.72 C20.16 21.09, 17.4 23.3, 15.08 24.13 C12.75 24.95, 9.74 24.64, 7.49 23.66 C5.24 22.68, 2.84 20.47, 1.58 18.26 C0.31 16.05, -0.56 12.96, -0.13 10.4 C0.3 7.83, 2.29 4.58, 4.17 2.86 C6.04 1.15, 9.94 0.55, 11.13 0.09 C12.31 -0.37, 11.28 -0.1, 11.28 0.1" stroke="none" stroke-width="0" fill="#fff"></path><path d="M11.53 0.15 C13.85 -0.02, 16.84 1, 18.64 2.7 C20.45 4.41, 21.93 7.76, 22.36 10.4 C22.8 13.03, 22.48 16.3, 21.25 18.52 C20.01 20.75, 17.27 22.9, 14.94 23.75 C12.61 24.6, 9.5 24.52, 7.26 23.63 C5.01 22.74, 2.63 20.68, 1.46 18.39 C0.3 16.11, -0.16 12.51, 0.29 9.93 C0.74 7.34, 2.3 4.59, 4.17 2.91 C6.03 1.22, 10.27 0.25, 11.47 -0.16 C12.67 -0.58, 11.35 0.17, 11.37 0.39 M11.8 0.29 C14.08 0.29, 16.97 1.75, 18.76 3.43 C20.54 5.11, 22.1 7.76, 22.49 10.38 C22.88 13, 22.41 16.91, 21.11 19.16 C19.8 21.41, 17.01 23.16, 14.67 23.87 C12.33 24.59, 9.31 24.48, 7.08 23.44 C4.85 22.41, 2.4 19.97, 1.3 17.67 C0.19 15.36, -0.07 12.15, 0.46 9.63 C1 7.11, 2.56 4.18, 4.5 2.56 C6.45 0.93, 10.92 0.3, 12.11 -0.12 C13.31 -0.55, 11.69 -0.21, 11.68 0.03" stroke="#0a11d3" stroke-width="1" fill="none"></path></g><g stroke-linecap="round" transform="translate(1756.0392982770863 948.9387495086849) rotate(0 11.320892721449127 12.286634182176385)"><path d="M10.75 0 C13.06 -0.27, 16.27 0.95, 18.24 2.6 C20.2 4.24, 22.05 7.28, 22.54 9.86 C23.03 12.44, 22.39 15.76, 21.2 18.07 C20.01 20.38, 17.67 22.69, 15.41 23.71 C13.15 24.73, 9.94 24.98, 7.66 24.18 C5.38 23.38, 2.98 21.2, 1.72 18.9 C0.46 16.61, -0.2 13.05, 0.1 10.39 C0.4 7.74, 1.68 4.72, 3.53 2.96 C5.38 1.21, 9.93 0.29, 11.19 -0.13 C12.45 -0.56, 11.13 0.22, 11.11 0.41 M10.97 0.23 C13.29 -0.03, 16.49 0.7, 18.44 2.33 C20.4 3.95, 22.23 7.31, 22.69 9.98 C23.16 12.65, 22.4 16.07, 21.22 18.32 C20.05 20.58, 17.85 22.58, 15.63 23.5 C13.41 24.42, 10.28 24.56, 7.91 23.82 C5.54 23.08, 2.71 21.28, 1.43 19.08 C0.15 16.88, -0.13 13.24, 0.22 10.6 C0.57 7.96, 1.75 5.05, 3.52 3.26 C5.29 1.47, 9.66 0.35, 10.85 -0.14 C12.04 -0.63, 10.67 0.13, 10.67 0.32" stroke="none" stroke-width="0" fill="#fff"></path><path d="M10.89 -0.2 C13.14 -0.44, 16.2 1.11, 18.15 2.77 C20.09 4.42, 22.04 7.21, 22.53 9.73 C23.03 12.26, 22.31 15.63, 21.13 17.92 C19.95 20.21, 17.67 22.47, 15.45 23.48 C13.24 24.49, 10.1 24.8, 7.83 24 C5.57 23.19, 3.12 20.88, 1.85 18.66 C0.58 16.44, -0.12 13.29, 0.19 10.69 C0.5 8.08, 1.95 4.77, 3.72 3.02 C5.49 1.26, 9.54 0.62, 10.79 0.15 C12.04 -0.33, 11.14 -0.02, 11.2 0.16 M10.9 0.21 C13.19 -0.09, 16.42 0.77, 18.38 2.44 C20.34 4.1, 22.2 7.59, 22.66 10.2 C23.13 12.81, 22.36 15.87, 21.16 18.1 C19.97 20.32, 17.73 22.63, 15.48 23.55 C13.23 24.47, 9.94 24.43, 7.67 23.6 C5.39 22.78, 3.07 20.82, 1.83 18.62 C0.59 16.42, -0.17 13.02, 0.22 10.4 C0.62 7.78, 2.4 4.66, 4.19 2.89 C5.99 1.12, 9.78 0.21, 10.99 -0.23 C12.19 -0.66, 11.35 0.08, 11.42 0.3" stroke="#0a11d3" stroke-width="1" fill="none"></path></g><g stroke-linecap="round" transform="translate(1756.0392982770863 1007.5624907156307) rotate(0 11.320892721449127 12.286634182176385)"><path d="M12.08 0.03 C14.44 0.07, 17.62 1.76, 19.35 3.59 C21.08 5.43, 22.26 8.44, 22.46 11.04 C22.66 13.65, 21.91 16.99, 20.54 19.21 C19.17 21.42, 16.56 23.58, 14.25 24.31 C11.95 25.05, 8.88 24.75, 6.69 23.6 C4.51 22.46, 2.22 19.88, 1.13 17.47 C0.03 15.05, -0.48 11.64, 0.13 9.1 C0.75 6.55, 2.81 3.68, 4.8 2.2 C6.8 0.72, 10.87 0.56, 12.11 0.21 C13.36 -0.14, 12.3 -0.07, 12.29 0.1 M10.55 -0.22 C12.87 -0.57, 16.22 0.91, 18.16 2.52 C20.09 4.14, 21.59 6.98, 22.17 9.45 C22.74 11.92, 22.62 15.05, 21.61 17.36 C20.6 19.66, 18.39 22.11, 16.13 23.29 C13.87 24.46, 10.37 25.07, 8.04 24.4 C5.71 23.74, 3.5 21.48, 2.13 19.29 C0.77 17.1, -0.35 13.9, -0.16 11.25 C0.03 8.61, 1.58 5.27, 3.29 3.42 C5.01 1.56, 8.97 0.67, 10.14 0.11 C11.32 -0.45, 10.31 -0.14, 10.33 0.05" stroke="none" stroke-width="0" fill="#fff"></path><path d="M12.05 0.22 C14.38 0.29, 17.65 1.74, 19.37 3.53 C21.09 5.32, 22.19 8.38, 22.38 10.96 C22.58 13.54, 21.87 16.83, 20.53 19.02 C19.2 21.21, 16.66 23.41, 14.37 24.12 C12.07 24.84, 8.97 24.39, 6.78 23.32 C4.59 22.24, 2.28 20.06, 1.21 17.69 C0.14 15.32, -0.2 11.63, 0.35 9.1 C0.9 6.56, 2.51 3.98, 4.51 2.46 C6.52 0.93, 11.05 0.31, 12.37 -0.05 C13.69 -0.41, 12.47 0.06, 12.43 0.28 M12.33 -0.23 C14.71 -0.14, 17.91 2.04, 19.61 3.94 C21.31 5.84, 22.36 8.62, 22.53 11.17 C22.71 13.71, 22.02 17.08, 20.63 19.2 C19.24 21.32, 16.52 23.17, 14.19 23.87 C11.86 24.56, 8.85 24.45, 6.67 23.37 C4.49 22.3, 2.11 19.83, 1.12 17.42 C0.12 15, 0.11 11.47, 0.72 8.89 C1.33 6.32, 2.78 3.41, 4.77 1.95 C6.77 0.48, 11.39 0.41, 12.69 0.1 C13.99 -0.2, 12.63 -0.1, 12.59 0.13" stroke="#0a11d3" stroke-width="1" fill="none"></path></g><g transform="translate(1810 970.3634211403114) rotate(0 50.203125 16.800000000000182)"><text x="50.203125" y="0" font-family="Cascadia, Segoe UI Emoji" font-size="28px" fill="#1e1e1e" text-anchor="middle" style="white-space: pre;" direction="ltr" dominant-baseline="text-before-edge">数据库2</text></g><g stroke-linecap="round"><g transform="translate(2692.6917671055126 865.4182245602715) rotate(0 77.25807410016569 84.78740515490881)" fill-rule="evenodd"><path d="M-1.97 2.28 C-1.62 27.64, 0.95 125.61, 1.41 153.23 C1.87 180.85, -0.33 164.43, 0.8 167.99 C1.93 171.56, 2.14 172.4, 8.19 174.61 C14.25 176.83, 24.52 179.88, 37.13 181.28 C49.74 182.68, 68.67 182.65, 83.84 183.02 C99.02 183.39, 116.89 185.31, 128.18 183.5 C139.47 181.7, 147.27 174.53, 151.58 172.19 C155.9 169.85, 153.24 172.12, 154.07 169.45 C154.89 166.78, 156.66 182.07, 156.53 156.17 C156.41 130.28, 153.52 40.27, 153.32 14.09 C153.11 -12.09, 156.99 2.69, 155.3 -0.91 C153.61 -4.52, 148.67 -5.97, 143.18 -7.54 C137.69 -9.11, 133.31 -8.94, 122.37 -10.34 C111.44 -11.75, 91.5 -15.44, 77.6 -15.96 C63.69 -16.48, 50.79 -15.35, 38.92 -13.46 C27.05 -11.56, 13.01 -6.66, 6.39 -4.58 C-0.22 -2.49, -0.08 -1.62, -0.76 -0.94 C-1.44 -0.26, 2.54 -0.89, 2.31 -0.49" stroke="none" stroke-width="0" fill="#228be6" fill-rule="evenodd"></path><path d="M-0.06 -0.23 C0.08 24.91, 1.69 122.77, 1.59 151.11 C1.48 179.44, -1.9 165.63, -0.71 169.79 C0.49 173.95, 2.47 173.71, 8.74 176.06 C15.01 178.4, 24.61 182.43, 36.91 183.89 C49.22 185.35, 67.47 185.02, 82.56 184.81 C97.65 184.6, 115.86 184.33, 127.46 182.63 C139.05 180.93, 147.48 177.05, 152.12 174.62 C156.75 172.18, 154.6 171.68, 155.28 168.03 C155.96 164.38, 156.29 178.55, 156.2 152.73 C156.11 126.9, 154.97 38.5, 154.73 13.08 C154.5 -12.34, 156.44 3.8, 154.79 0.21 C153.14 -3.37, 150.08 -6.41, 144.83 -8.43 C139.58 -10.44, 134.87 -10.75, 123.27 -11.88 C111.67 -13.02, 89.73 -14.91, 75.23 -15.25 C60.74 -15.58, 47.63 -15.52, 36.3 -13.91 C24.97 -12.31, 13.52 -7.78, 7.27 -5.6 C1.02 -3.42, 0.07 -1.59, -1.22 -0.82 C-2.51 -0.06, -0.85 -1.02, -0.47 -1.01 M-1.55 -1.39 C-1.54 23.87, 0.64 124.13, 1.2 152.35 C1.76 180.56, 0.44 163.79, 1.8 167.9 C3.17 172, 3.67 174.76, 9.38 176.98 C15.08 179.2, 23.61 180.09, 36.02 181.23 C48.43 182.38, 68.52 183.73, 83.84 183.83 C99.17 183.94, 116.71 183.4, 127.97 181.86 C139.22 180.32, 147.08 177.09, 151.38 174.58 C155.69 172.07, 153.41 170.02, 153.8 166.81 C154.19 163.61, 153.54 180.8, 153.73 155.37 C153.91 129.94, 154.91 40.11, 154.9 14.25 C154.89 -11.61, 155.27 4.17, 153.69 0.22 C152.1 -3.73, 150.56 -7.44, 145.38 -9.45 C140.2 -11.45, 134.25 -10.82, 122.61 -11.82 C110.96 -12.81, 89.8 -15.26, 75.54 -15.41 C61.28 -15.56, 48.57 -13.93, 37.04 -12.71 C25.5 -11.48, 12.42 -10.02, 6.34 -8.04 C0.26 -6.07, 1.36 -1.97, 0.57 -0.84 C-0.23 0.28, 1.91 -1.55, 1.55 -1.29" stroke="#0a11d3" stroke-width="1" fill="none"></path></g></g><mask></mask><g stroke-linecap="round"><g transform="translate(2693.903274541153 980.4951750211112) rotate(0 77.86703812667656 8.008544439415346)"><path d="M0.18 -0.09 C0.84 1.08, 0.36 4.91, 3.98 7.02 C7.6 9.14, 14.99 11.05, 21.91 12.6 C28.83 14.16, 35.46 15.7, 45.5 16.35 C55.54 17, 68.86 16.82, 82.14 16.5 C95.42 16.18, 113.78 16.14, 125.16 14.43 C136.54 12.72, 145.33 8.77, 150.42 6.24 C155.51 3.72, 154.81 0.46, 155.71 -0.74 M0.03 0.28 C0.76 1.41, 0.72 4.67, 4.36 6.75 C8 8.83, 15.06 11.24, 21.84 12.79 C28.62 14.33, 34.93 15.4, 45.04 16.03 C55.14 16.66, 69.09 16.85, 82.48 16.57 C95.86 16.29, 114.02 16.1, 125.37 14.35 C136.72 12.6, 145.53 8.59, 150.57 6.07 C155.6 3.55, 154.73 0.36, 155.57 -0.77" stroke="#0a11d3" stroke-width="1" fill="none"></path></g></g><mask></mask><g stroke-linecap="round"><g transform="translate(2691.975503198126 922.2004073300632) rotate(0 77.82917937605998 7.91860232021827)"><path d="M-0.12 0.14 C0.55 1.29, 0.54 4.71, 4.22 6.83 C7.9 8.95, 15.12 11.29, 21.97 12.85 C28.81 14.41, 35.25 15.54, 45.28 16.18 C55.31 16.81, 68.8 16.96, 82.14 16.65 C95.48 16.35, 113.92 16.09, 125.29 14.34 C136.67 12.6, 145.3 8.75, 150.39 6.2 C155.47 3.65, 154.91 0.19, 155.78 -0.97 M0.18 0.04 C0.82 1.23, 0.5 4.96, 4.13 7.05 C7.75 9.14, 15.07 11.02, 21.93 12.57 C28.79 14.12, 35.21 15.76, 45.3 16.37 C55.39 16.97, 69.19 16.57, 82.47 16.22 C95.75 15.86, 113.63 15.92, 124.98 14.22 C136.32 12.52, 145.4 8.47, 150.52 6.01 C155.64 3.55, 154.78 0.63, 155.68 -0.52" stroke="#0a11d3" stroke-width="1" fill="none"></path></g></g><mask></mask><g stroke-linecap="round" transform="translate(2690 851.2743164681742) rotate(0 77.24430072362156 15.622078688616966)"><path d="M74.43 -0.22 C86.65 -0.55, 102.19 0.7, 113.6 1.99 C125.02 3.28, 136.13 5.38, 142.93 7.54 C149.72 9.7, 153.93 12.41, 154.36 14.96 C154.79 17.51, 151.54 20.53, 145.49 22.86 C139.43 25.2, 128.93 27.59, 118.02 28.97 C107.12 30.35, 92.85 31.07, 80.05 31.14 C67.25 31.2, 52.59 30.57, 41.22 29.35 C29.86 28.12, 18.75 25.97, 11.87 23.79 C4.98 21.6, 0.37 18.85, -0.09 16.24 C-0.56 13.63, 3.02 10.41, 9.07 8.12 C15.13 5.84, 25.21 3.89, 36.25 2.54 C47.29 1.18, 68.64 0.4, 75.32 0.01 C81.99 -0.38, 76.29 -0.02, 76.32 0.22 M78.99 0.19 C91.29 0.05, 106.87 0.82, 117.94 2.13 C129.01 3.44, 139.3 5.69, 145.42 8.05 C151.53 10.41, 155.07 13.68, 154.63 16.29 C154.2 18.9, 149.56 21.59, 142.81 23.7 C136.05 25.82, 125.41 27.71, 114.08 28.98 C102.75 30.24, 87.69 31.33, 74.84 31.29 C62 31.26, 47.99 30.17, 37.03 28.78 C26.08 27.39, 15.24 25.24, 9.12 22.96 C3 20.68, -0.1 17.63, 0.3 15.1 C0.7 12.57, 4.87 10.03, 11.54 7.78 C18.2 5.53, 29.05 2.95, 40.28 1.61 C51.52 0.27, 72.43 -0.06, 78.94 -0.24 C85.46 -0.42, 79.34 0.2, 79.35 0.53" stroke="none" stroke-width="0" fill="#fff"></path><path d="M86.4 0.06 C98.68 0.15, 113.41 1.65, 123.74 3.23 C134.06 4.81, 143.32 7.14, 148.36 9.54 C153.41 11.94, 155.6 15.08, 154.02 17.64 C152.44 20.2, 146.58 22.84, 138.87 24.91 C131.16 26.99, 119.53 29.05, 107.76 30.11 C96 31.17, 81.1 31.59, 68.29 31.27 C55.48 30.94, 41.23 29.73, 30.9 28.15 C20.58 26.57, 11.39 24.19, 6.36 21.77 C1.32 19.35, -0.8 16.22, 0.7 13.65 C2.21 11.09, 7.65 8.5, 15.37 6.4 C23.08 4.29, 35.06 2.08, 46.99 1.02 C58.93 -0.04, 80.23 0.08, 86.97 0.03 C93.72 -0.03, 87.62 0.42, 87.45 0.68 M81.74 0.27 C94.09 0.1, 108.95 1.07, 119.7 2.41 C130.45 3.74, 140.43 5.99, 146.24 8.3 C152.05 10.62, 155.28 13.67, 154.57 16.28 C153.87 18.88, 149.1 21.65, 142.02 23.92 C134.94 26.19, 123.63 28.71, 112.11 29.88 C100.59 31.05, 85.78 31.08, 72.89 30.93 C60.01 30.78, 45.52 30.28, 34.78 28.97 C24.04 27.65, 14.28 25.37, 8.46 23.03 C2.64 20.7, -0.87 17.63, -0.15 14.96 C0.58 12.29, 5.73 9.21, 12.81 7.01 C19.88 4.81, 30.85 2.87, 42.29 1.76 C53.73 0.64, 74.87 0.58, 81.47 0.34 C88.07 0.11, 81.87 0.13, 81.88 0.34" stroke="#0a11d3" stroke-width="1" fill="none"></path></g><g stroke-linecap="round" transform="translate(2816.0392982770863 894.5903358347423) rotate(0 11.320892721449127 12.286634182176385)"><path d="M10.99 0.21 C13.28 -0.01, 16.31 1.15, 18.21 2.71 C20.11 4.27, 21.85 7.07, 22.4 9.6 C22.96 12.13, 22.67 15.52, 21.53 17.89 C20.4 20.27, 17.86 22.85, 15.59 23.83 C13.31 24.82, 10.16 24.62, 7.88 23.82 C5.6 23.02, 3.17 21.19, 1.9 19.03 C0.63 16.87, -0.02 13.51, 0.27 10.86 C0.55 8.22, 1.82 4.97, 3.6 3.15 C5.38 1.33, 9.73 0.41, 10.94 -0.06 C12.15 -0.53, 10.86 0.13, 10.88 0.33 M12.03 -0.14 C14.37 -0.11, 17.58 1.71, 19.31 3.58 C21.03 5.45, 22.11 8.47, 22.37 11.07 C22.63 13.68, 22.19 17, 20.86 19.19 C19.52 21.39, 16.76 23.53, 14.38 24.24 C11.99 24.95, 8.77 24.54, 6.53 23.45 C4.3 22.35, 2.02 20.07, 0.99 17.67 C-0.04 15.26, -0.2 11.55, 0.38 9.01 C0.96 6.47, 2.45 3.97, 4.45 2.45 C6.46 0.93, 11.1 0.27, 12.42 -0.11 C13.74 -0.49, 12.41 -0.08, 12.38 0.18" stroke="none" stroke-width="0" fill="#fff"></path><path d="M11.27 0.1 C13.58 -0.09, 16.64 1.11, 18.51 2.77 C20.38 4.42, 22.06 7.47, 22.48 10.03 C22.91 12.59, 22.22 15.84, 21.06 18.14 C19.89 20.45, 17.69 22.86, 15.49 23.84 C13.28 24.82, 10.14 24.89, 7.83 24.03 C5.51 23.17, 2.84 20.94, 1.58 18.67 C0.31 16.4, -0.18 13.03, 0.22 10.41 C0.62 7.79, 2.15 4.67, 3.99 2.95 C5.83 1.23, 9.97 0.59, 11.23 0.11 C12.5 -0.37, 11.59 -0.13, 11.57 0.05 M10.23 0.19 C12.42 -0.11, 15.52 0.99, 17.54 2.5 C19.57 4.02, 21.67 6.81, 22.37 9.29 C23.06 11.76, 22.73 15.02, 21.69 17.34 C20.65 19.65, 18.33 22.07, 16.15 23.18 C13.96 24.29, 10.91 24.65, 8.58 23.97 C6.26 23.3, 3.61 21.22, 2.19 19.14 C0.78 17.06, -0.08 14.12, 0.1 11.49 C0.29 8.87, 1.62 5.25, 3.3 3.38 C4.99 1.51, 9.01 0.74, 10.2 0.27 C11.4 -0.19, 10.48 0.4, 10.48 0.6" stroke="#0a11d3" stroke-width="1" fill="none"></path></g><g stroke-linecap="round" transform="translate(2816.0392982770863 948.5286136867653) rotate(0 11.320892721449127 12.286634182176385)"><path d="M10.93 0.18 C13.2 -0.1, 16.38 1, 18.32 2.58 C20.26 4.16, 22.07 7.06, 22.56 9.67 C23.05 12.28, 22.42 15.95, 21.24 18.25 C20.07 20.55, 17.74 22.51, 15.52 23.49 C13.31 24.47, 10.22 24.86, 7.95 24.11 C5.68 23.36, 3.21 21.24, 1.89 18.97 C0.58 16.7, -0.26 13.14, 0.05 10.49 C0.36 7.85, 1.95 4.83, 3.75 3.09 C5.55 1.36, 9.61 0.58, 10.85 0.09 C12.08 -0.4, 11.09 -0.01, 11.15 0.17 M11.82 0.09 C14.12 0.05, 16.89 1.43, 18.71 3.18 C20.53 4.93, 22.36 7.96, 22.73 10.59 C23.1 13.22, 22.25 16.73, 20.91 18.95 C19.56 21.18, 17 23.16, 14.67 23.96 C12.34 24.75, 9.14 24.76, 6.92 23.73 C4.7 22.7, 2.49 20.11, 1.33 17.79 C0.18 15.48, -0.56 12.4, -0.02 9.84 C0.53 7.28, 2.62 4.09, 4.62 2.43 C6.61 0.78, 10.75 0.24, 11.97 -0.09 C13.18 -0.42, 11.97 0.25, 11.89 0.46" stroke="none" stroke-width="0" fill="#fff"></path><path d="M11.17 0.07 C13.45 -0.14, 16.62 1.21, 18.46 2.84 C20.3 4.47, 21.76 7.26, 22.23 9.83 C22.71 12.41, 22.42 15.96, 21.31 18.3 C20.2 20.63, 17.85 22.91, 15.57 23.85 C13.29 24.79, 9.93 24.8, 7.62 23.94 C5.31 23.07, 2.96 20.93, 1.73 18.66 C0.5 16.39, -0.09 12.9, 0.26 10.32 C0.62 7.74, 2 4.91, 3.84 3.16 C5.68 1.41, 10.11 0.3, 11.33 -0.2 C12.54 -0.7, 11.19 -0.11, 11.14 0.16 M10.31 0.32 C12.63 0.01, 16.1 1.09, 18.12 2.57 C20.14 4.05, 21.85 6.74, 22.41 9.23 C22.98 11.71, 22.56 15.12, 21.5 17.47 C20.45 19.83, 18.27 22.27, 16.06 23.34 C13.86 24.41, 10.65 24.53, 8.3 23.87 C5.95 23.21, 3.35 21.57, 1.98 19.38 C0.61 17.19, -0.16 13.35, 0.07 10.73 C0.3 8.11, 1.6 5.38, 3.37 3.65 C5.14 1.92, 9.55 0.87, 10.71 0.33 C11.88 -0.2, 10.35 0.3, 10.36 0.45" stroke="#0a11d3" stroke-width="1" fill="none"></path></g><g stroke-linecap="round" transform="translate(2816.0392982770863 1007.1523548937112) rotate(0 11.320892721449127 12.286634182176385)"><path d="M12.48 0.04 C14.82 0.09, 17.92 1.73, 19.59 3.65 C21.27 5.57, 22.39 8.97, 22.54 11.57 C22.68 14.17, 21.85 17.15, 20.47 19.27 C19.09 21.4, 16.55 23.62, 14.24 24.33 C11.92 25.04, 8.79 24.71, 6.58 23.53 C4.36 22.35, 1.96 19.69, 0.94 17.25 C-0.09 14.81, -0.21 11.4, 0.43 8.89 C1.07 6.38, 2.75 3.7, 4.77 2.22 C6.8 0.73, 11.26 0.32, 12.59 -0.01 C13.92 -0.33, 12.8 0.07, 12.78 0.27 M10.45 0.01 C12.76 -0.31, 16.29 0.81, 18.27 2.4 C20.26 3.99, 21.83 7.01, 22.34 9.57 C22.85 12.13, 22.43 15.43, 21.32 17.77 C20.21 20.11, 17.89 22.62, 15.68 23.63 C13.48 24.64, 10.45 24.57, 8.1 23.83 C5.75 23.09, 2.89 21.38, 1.59 19.19 C0.29 17, -0.05 13.37, 0.31 10.71 C0.67 8.06, 2.01 5, 3.76 3.25 C5.51 1.5, 9.69 0.73, 10.81 0.22 C11.92 -0.29, 10.46 0.07, 10.46 0.19" stroke="none" stroke-width="0" fill="#fff"></path><path d="M11.93 0.15 C14.19 0.1, 17.04 1.43, 18.82 3.22 C20.6 5, 22.25 8.21, 22.61 10.85 C22.97 13.49, 22.32 16.85, 20.98 19.05 C19.65 21.25, 16.93 23.28, 14.61 24.04 C12.28 24.8, 9.23 24.65, 7.02 23.61 C4.82 22.57, 2.51 20.13, 1.39 17.81 C0.26 15.48, -0.27 12.26, 0.27 9.68 C0.81 7.09, 2.7 3.93, 4.63 2.3 C6.56 0.68, 10.64 0.25, 11.85 -0.06 C13.06 -0.37, 11.91 0.25, 11.9 0.46 M11.96 0.21 C14.33 0.1, 17.32 1.42, 19.09 3.13 C20.86 4.84, 22.25 7.88, 22.57 10.48 C22.89 13.08, 22.31 16.51, 21.02 18.73 C19.73 20.95, 17.17 22.94, 14.83 23.8 C12.5 24.66, 9.28 24.9, 7.02 23.88 C4.76 22.86, 2.41 20.04, 1.27 17.69 C0.12 15.35, -0.39 12.3, 0.16 9.82 C0.72 7.35, 2.69 4.43, 4.6 2.83 C6.51 1.22, 10.39 0.62, 11.62 0.19 C12.85 -0.24, 11.97 0.03, 11.98 0.22" stroke="#0a11d3" stroke-width="1" fill="none"></path></g><g transform="translate(2870 969.9532853183919) rotate(0 50.203125 16.800000000000182)"><text x="50.203125" y="0" font-family="Cascadia, Segoe UI Emoji" font-size="28px" fill="#1e1e1e" text-anchor="middle" style="white-space: pre;" direction="ltr" dominant-baseline="text-before-edge">数据库3</text></g><g stroke-linecap="round"><g transform="translate(650 510) rotate(0 0 120)"><path d="M0 0 C0 40, 0 200, 0 240 M0 0 C0 40, 0 200, 0 240" stroke="#1e1e1e" stroke-width="4" fill="none"></path></g><g transform="translate(650 510) rotate(0 0 120)"><path d="M-10.26 211.81 C-7.36 219.78, -4.46 227.76, 0 240 M-10.26 211.81 C-7.86 218.41, -5.46 225.01, 0 240" stroke="#1e1e1e" stroke-width="4" fill="none"></path></g><g transform="translate(650 510) rotate(0 0 120)"><path d="M10.26 211.81 C7.36 219.78, 4.46 227.76, 0 240 M10.26 211.81 C7.86 218.41, 5.46 225.01, 0 240" stroke="#1e1e1e" stroke-width="4" fill="none"></path></g></g><mask></mask><g stroke-linecap="round"><g transform="translate(1730 510) rotate(0 0 120)"><path d="M0 0 C0 40, 0 200, 0 240 M0 0 C0 40, 0 200, 0 240" stroke="#1e1e1e" stroke-width="4" fill="none"></path></g><g transform="translate(1730 510) rotate(0 0 120)"><path d="M-10.26 211.81 C-7.52 219.35, -4.77 226.88, 0 240 M-10.26 211.81 C-6.98 220.83, -3.69 229.86, 0 240" stroke="#1e1e1e" stroke-width="4" fill="none"></path></g><g transform="translate(1730 510) rotate(0 0 120)"><path d="M10.26 211.81 C7.52 219.35, 4.77 226.88, 0 240 M10.26 211.81 C6.98 220.83, 3.69 229.86, 0 240" stroke="#1e1e1e" stroke-width="4" fill="none"></path></g></g><mask></mask><g stroke-linecap="round"><g transform="translate(2790 510) rotate(0 0 120)"><path d="M0 0 C0 40, 0 200, 0 240 M0 0 C0 40, 0 200, 0 240" stroke="#1e1e1e" stroke-width="4" fill="none"></path></g><g transform="translate(2790 510) rotate(0 0 120)"><path d="M-10.26 211.81 C-7.47 219.47, -4.69 227.13, 0 240 M-10.26 211.81 C-6.47 222.22, -2.68 232.63, 0 240" stroke="#1e1e1e" stroke-width="4" fill="none"></path></g><g transform="translate(2790 510) rotate(0 0 120)"><path d="M10.26 211.81 C7.47 219.47, 4.69 227.13, 0 240 M10.26 211.81 C6.47 222.22, 2.68 232.63, 0 240" stroke="#1e1e1e" stroke-width="4" fill="none"></path></g></g><mask></mask></svg>