<svg version="1.1" xmlns="http://www.w3.org/2000/svg" viewBox="0 0 2640 1240" width="5280" height="2480">
  <!-- svg-source:excalidraw -->
  
  <defs>
    <style class="style-fonts">
      @font-face {
        font-family: "Virgil";
        src: url("https://excalidraw.com/Virgil.woff2");
      }
      @font-face {
        font-family: "Cascadia";
        src: url("https://excalidraw.com/Cascadia.woff2");
      }
    </style>
    
  </defs>
  <rect x="0" y="0" width="2640" height="1240" fill="#ffffff"></rect><g stroke-linecap="round" transform="translate(10 10) rotate(0 1310 610)"><path d="M32 0 C980.31 0, 1928.63 0, 2588 0 C2609.33 0, 2620 10.67, 2620 32 C2620 278.62, 2620 525.24, 2620 1188 C2620 1209.33, 2609.33 1220, 2588 1220 C1716.13 1220, 844.26 1220, 32 1220 C10.67 1220, 0 1209.33, 0 1188 C0 800.17, 0 412.34, 0 32 C0 10.67, 10.67 0, 32 0" stroke="none" stroke-width="0" fill="#fff9db"></path><path d="M32 0 C774.73 0, 1517.46 0, 2588 0 M32 0 C601.86 0, 1171.73 0, 2588 0 M2588 0 C2609.33 0, 2620 10.67, 2620 32 M2588 0 C2609.33 0, 2620 10.67, 2620 32 M2620 32 C2620 291.06, 2620 550.11, 2620 1188 M2620 32 C2620 471.65, 2620 911.29, 2620 1188 M2620 1188 C2620 1209.33, 2609.33 1220, 2588 1220 M2620 1188 C2620 1209.33, 2609.33 1220, 2588 1220 M2588 1220 C2053.51 1220, 1519.03 1220, 32 1220 M2588 1220 C1855.32 1220, 1122.64 1220, 32 1220 M32 1220 C10.67 1220, 0 1209.33, 0 1188 M32 1220 C10.67 1220, 0 1209.33, 0 1188 M0 1188 C0 766.76, 0 345.53, 0 32 M0 1188 C0 769.58, 0 351.16, 0 32 M0 32 C0 10.67, 10.67 0, 32 0 M0 32 C0 10.67, 10.67 0, 32 0" stroke="#1e1e1e" stroke-width="4" fill="none"></path></g><g stroke-linecap="round" transform="translate(130 750) rotate(0 550 190)"><path d="M32 0 C415.82 0, 799.63 0, 1068 0 C1089.33 0, 1100 10.67, 1100 32 C1100 134.99, 1100 237.97, 1100 348 C1100 369.33, 1089.33 380, 1068 380 C723 380, 378 380, 32 380 C10.67 380, 0 369.33, 0 348 C0 256.42, 0 164.85, 0 32 C0 10.67, 10.67 0, 32 0" stroke="none" stroke-width="0" fill="#ffffff"></path><path d="M32 0 C281.14 0, 530.28 0, 1068 0 M1068 0 C1089.33 0, 1100 10.67, 1100 32 M1100 32 C1100 114.03, 1100 196.06, 1100 348 M1100 348 C1100 369.33, 1089.33 380, 1068 380 M1068 380 C828.5 380, 589 380, 32 380 M32 380 C10.67 380, 0 369.33, 0 348 M0 348 C0 245.92, 0 143.85, 0 32 M0 32 C0 10.67, 10.67 0, 32 0" stroke="#1e1e1e" stroke-width="4.5" fill="none" stroke-dasharray="8 12"></path></g><g stroke-linecap="round" transform="translate(130 110) rotate(0 550 210)"><path d="M32 0 C289.99 0, 547.98 0, 1068 0 C1089.33 0, 1100 10.67, 1100 32 C1100 164.22, 1100 296.45, 1100 388 C1100 409.33, 1089.33 420, 1068 420 C677.23 420, 286.45 420, 32 420 C10.67 420, 0 409.33, 0 388 C0 262.69, 0 137.39, 0 32 C0 10.67, 10.67 0, 32 0" stroke="none" stroke-width="0" fill="#ffffff"></path><path d="M32 0 C344.8 0, 657.6 0, 1068 0 M1068 0 C1089.33 0, 1100 10.67, 1100 32 M1100 32 C1100 144.94, 1100 257.87, 1100 388 M1100 388 C1100 409.33, 1089.33 420, 1068 420 M1068 420 C841.05 420, 614.11 420, 32 420 M32 420 C10.67 420, 0 409.33, 0 388 M0 388 C0 298.3, 0 208.59, 0 32 M0 32 C0 10.67, 10.67 0, 32 0" stroke="#1e1e1e" stroke-width="4.5" fill="none" stroke-dasharray="8 12"></path></g><g stroke-linecap="round" transform="translate(190 170) rotate(0 490 120)"><path d="M32 0 C389.54 0, 747.09 0, 948 0 C969.33 0, 980 10.67, 980 32 C980 85.62, 980 139.25, 980 208 C980 229.33, 969.33 240, 948 240 C650.24 240, 352.47 240, 32 240 C10.67 240, 0 229.33, 0 208 C0 165.95, 0 123.9, 0 32 C0 10.67, 10.67 0, 32 0" stroke="none" stroke-width="0" fill="#ebfbee"></path><path d="M32 0 C303.88 0, 575.75 0, 948 0 M32 0 C319.47 0, 606.95 0, 948 0 M948 0 C969.33 0, 980 10.67, 980 32 M948 0 C969.33 0, 980 10.67, 980 32 M980 32 C980 76.68, 980 121.37, 980 208 M980 32 C980 82.3, 980 132.6, 980 208 M980 208 C980 229.33, 969.33 240, 948 240 M980 208 C980 229.33, 969.33 240, 948 240 M948 240 C669.29 240, 390.58 240, 32 240 M948 240 C732.79 240, 517.57 240, 32 240 M32 240 C10.67 240, 0 229.33, 0 208 M32 240 C10.67 240, 0 229.33, 0 208 M0 208 C0 169.89, 0 131.78, 0 32 M0 208 C0 140.31, 0 72.63, 0 32 M0 32 C0 10.67, 10.67 0, 32 0 M0 32 C0 10.67, 10.67 0, 32 0" stroke="#1e1e1e" stroke-width="4" fill="none"></path></g><g stroke-linecap="round" transform="translate(230 210) rotate(0 110 50)"><path d="M25 0 C75.46 0, 125.92 0, 195 0 C211.67 0, 220 8.33, 220 25 C220 39.17, 220 53.35, 220 75 C220 91.67, 211.67 100, 195 100 C152.35 100, 109.71 100, 25 100 C8.33 100, 0 91.67, 0 75 C0 61.51, 0 48.03, 0 25 C0 8.33, 8.33 0, 25 0" stroke="none" stroke-width="0" fill="#b2f2bb"></path><path d="M25 0 C90.02 0, 155.05 0, 195 0 M25 0 C69.78 0, 114.56 0, 195 0 M195 0 C211.67 0, 220 8.33, 220 25 M195 0 C211.67 0, 220 8.33, 220 25 M220 25 C220 40.33, 220 55.65, 220 75 M220 25 C220 44, 220 62.99, 220 75 M220 75 C220 91.67, 211.67 100, 195 100 M220 75 C220 91.67, 211.67 100, 195 100 M195 100 C127.99 100, 60.99 100, 25 100 M195 100 C151.67 100, 108.34 100, 25 100 M25 100 C8.33 100, 0 91.67, 0 75 M25 100 C8.33 100, 0 91.67, 0 75 M0 75 C0 58.72, 0 42.44, 0 25 M0 75 C0 61.92, 0 48.84, 0 25 M0 25 C0 8.33, 8.33 0, 25 0 M0 25 C0 8.33, 8.33 0, 25 0" stroke="#2f9e44" stroke-width="4" fill="none"></path></g><g transform="translate(284 243.20000000000073) rotate(0 56 16.800000000000182)"><text x="56" y="0" font-family="Cascadia, Segoe UI Emoji" font-size="28px" fill="#1e1e1e" text-anchor="middle" style="white-space: pre;" direction="ltr" dominant-baseline="text-before-edge">用户管理</text></g><g stroke-linecap="round" transform="translate(570 210) rotate(0 110 50)"><path d="M25 0 C62.97 0, 100.94 0, 195 0 C211.67 0, 220 8.33, 220 25 C220 38.57, 220 52.13, 220 75 C220 91.67, 211.67 100, 195 100 C139.67 100, 84.34 100, 25 100 C8.33 100, 0 91.67, 0 75 C0 56.29, 0 37.58, 0 25 C0 8.33, 8.33 0, 25 0" stroke="none" stroke-width="0" fill="#b2f2bb"></path><path d="M25 0 C78 0, 131 0, 195 0 M25 0 C85.96 0, 146.93 0, 195 0 M195 0 C211.67 0, 220 8.33, 220 25 M195 0 C211.67 0, 220 8.33, 220 25 M220 25 C220 39.52, 220 54.04, 220 75 M220 25 C220 43.44, 220 61.89, 220 75 M220 75 C220 91.67, 211.67 100, 195 100 M220 75 C220 91.67, 211.67 100, 195 100 M195 100 C140.26 100, 85.52 100, 25 100 M195 100 C159.47 100, 123.95 100, 25 100 M25 100 C8.33 100, 0 91.67, 0 75 M25 100 C8.33 100, 0 91.67, 0 75 M0 75 C0 63.49, 0 51.98, 0 25 M0 75 C0 61.91, 0 48.82, 0 25 M0 25 C0 8.33, 8.33 0, 25 0 M0 25 C0 8.33, 8.33 0, 25 0" stroke="#2f9e44" stroke-width="4" fill="none"></path></g><g transform="translate(624 243.20000000000073) rotate(0 56 16.800000000000182)"><text x="56" y="0" font-family="Cascadia, Segoe UI Emoji" font-size="28px" fill="#1e1e1e" text-anchor="middle" style="white-space: pre;" direction="ltr" dominant-baseline="text-before-edge">商品管理</text></g><g stroke-linecap="round" transform="translate(890 210) rotate(0 110 50)"><path d="M25 0 C78.28 0, 131.55 0, 195 0 C211.67 0, 220 8.33, 220 25 C220 39.45, 220 53.89, 220 75 C220 91.67, 211.67 100, 195 100 C137.44 100, 79.87 100, 25 100 C8.33 100, 0 91.67, 0 75 C0 60.26, 0 45.52, 0 25 C0 8.33, 8.33 0, 25 0" stroke="none" stroke-width="0" fill="#b2f2bb"></path><path d="M25 0 C68.79 0, 112.57 0, 195 0 M25 0 C67.63 0, 110.26 0, 195 0 M195 0 C211.67 0, 220 8.33, 220 25 M195 0 C211.67 0, 220 8.33, 220 25 M220 25 C220 43.51, 220 62.02, 220 75 M220 25 C220 35.52, 220 46.05, 220 75 M220 75 C220 91.67, 211.67 100, 195 100 M220 75 C220 91.67, 211.67 100, 195 100 M195 100 C144.33 100, 93.67 100, 25 100 M195 100 C155.47 100, 115.94 100, 25 100 M25 100 C8.33 100, 0 91.67, 0 75 M25 100 C8.33 100, 0 91.67, 0 75 M0 75 C0 60.58, 0 46.16, 0 25 M0 75 C0 62.39, 0 49.78, 0 25 M0 25 C0 8.33, 8.33 0, 25 0 M0 25 C0 8.33, 8.33 0, 25 0" stroke="#2f9e44" stroke-width="4" fill="none"></path></g><g transform="translate(944 243.20000000000073) rotate(0 56 16.800000000000182)"><text x="56" y="0" font-family="Cascadia, Segoe UI Emoji" font-size="28px" fill="#1e1e1e" text-anchor="middle" style="white-space: pre;" direction="ltr" dominant-baseline="text-before-edge">订单管理</text></g><g transform="translate(570 350) rotate(0 108 21.600000000000364)"><text x="108" y="0" font-family="Cascadia, Segoe UI Emoji" font-size="36px" fill="#1e1e1e" text-anchor="middle" style="white-space: pre;" direction="ltr" dominant-baseline="text-before-edge">电商销售系统</text></g><g stroke-linecap="round"><g transform="translate(572.6917671055126 906.2281328787303) rotate(0 77.07932809809972 84.45323363257558)" fill-rule="evenodd"><path d="M-0.39 -0.5 C0.14 24.63, 2.75 124.38, 2.93 152.36 C3.11 180.34, -0.05 163.18, 0.69 167.35 C1.43 171.53, 1.69 174.47, 7.38 177.39 C13.06 180.31, 22.55 183.57, 34.8 184.9 C47.05 186.22, 65.27 185.93, 80.88 185.35 C96.5 184.77, 116.73 183.63, 128.48 181.42 C140.23 179.2, 147.18 174.72, 151.36 172.06 C155.55 169.41, 153 168.34, 153.6 165.5 C154.21 162.66, 154.57 180.52, 155 155.03 C155.44 129.54, 156.18 38.69, 156.22 12.57 C156.26 -13.55, 157.51 2.13, 155.24 -1.68 C152.96 -5.48, 147.68 -8.38, 142.58 -10.26 C137.49 -12.13, 135.72 -12.07, 124.67 -12.92 C113.62 -13.78, 90.61 -15.47, 76.29 -15.39 C61.97 -15.31, 50.11 -13.96, 38.75 -12.45 C27.39 -10.93, 14.27 -8.11, 8.11 -6.3 C1.96 -4.48, 3.48 -2.74, 1.82 -1.56 C0.15 -0.38, -1.57 0.62, -1.89 0.78" stroke="none" stroke-width="0" fill="#228be6" fill-rule="evenodd"></path><path d="M0.55 0.6 C0.58 25.95, 1.03 123.58, 0.82 151.75 C0.6 179.91, -1.95 165.58, -0.76 169.59 C0.44 173.61, 1.84 173.66, 7.98 175.86 C14.12 178.06, 23.79 181.24, 36.07 182.78 C48.35 184.32, 66.51 185.32, 81.67 185.11 C96.82 184.9, 115.5 183.44, 127.01 181.53 C138.53 179.63, 145.93 176.11, 150.74 173.67 C155.55 171.24, 155.28 170.26, 155.88 166.91 C156.47 163.57, 154.51 179.49, 154.29 153.61 C154.08 127.74, 154.76 37.37, 154.57 11.68 C154.38 -14.01, 154.74 2.69, 153.15 -0.52 C151.56 -3.73, 149.87 -5.73, 145.02 -7.56 C140.17 -9.4, 135.63 -10.17, 124.05 -11.52 C112.46 -12.88, 90.12 -15.11, 75.51 -15.68 C60.89 -16.24, 47.84 -16.41, 36.34 -14.92 C24.84 -13.42, 12.61 -9.11, 6.5 -6.71 C0.4 -4.31, 0.63 -1.7, -0.27 -0.54 C-1.18 0.62, 0.98 0.23, 1.07 0.26 M-0.63 -0.13 C-0.77 25.46, -0.36 125.37, 0.03 153.32 C0.42 181.28, 0.36 163.7, 1.73 167.6 C3.09 171.49, 2.71 174.08, 8.21 176.68 C13.72 179.29, 22.36 181.94, 34.74 183.21 C47.12 184.48, 67.05 184.8, 82.48 184.29 C97.9 183.79, 115.55 182.04, 127.29 180.18 C139.04 178.32, 148.37 175.04, 152.94 173.14 C157.51 171.24, 154.44 172.12, 154.7 168.77 C154.96 165.43, 154.49 179.17, 154.48 153.06 C154.47 126.95, 154.59 37.77, 154.65 12.11 C154.71 -13.55, 156.34 2.47, 154.85 -0.9 C153.35 -4.28, 150.85 -6.4, 145.67 -8.13 C140.5 -9.86, 135.41 -9.95, 123.79 -11.27 C112.17 -12.6, 90.41 -15.57, 75.96 -16.07 C61.51 -16.56, 48.89 -15.9, 37.09 -14.24 C25.3 -12.57, 11.63 -8.38, 5.17 -6.08 C-1.29 -3.77, -0.83 -1.53, -1.65 -0.41 C-2.47 0.72, -0.17 0.36, 0.25 0.65" stroke="#0a11d3" stroke-width="1" fill="none"></path></g></g><mask></mask><g stroke-linecap="round"><g transform="translate(573.9032745411532 1021.3050833395646) rotate(0 77.82056665689561 7.924516096336447)"><path d="M0.05 0.01 C0.7 1.16, 0.35 4.9, 3.97 6.99 C7.59 9.08, 14.88 11.04, 21.78 12.57 C28.68 14.1, 35.32 15.51, 45.36 16.17 C55.4 16.83, 68.71 16.87, 82 16.55 C95.28 16.23, 113.72 15.99, 125.09 14.25 C136.46 12.5, 145.07 8.62, 150.19 6.09 C155.31 3.56, 154.92 0.23, 155.8 -0.92 M-0.16 -0.15 C0.54 0.93, 0.71 4.55, 4.35 6.7 C7.98 8.85, 14.81 11.13, 21.65 12.74 C28.5 14.35, 35.32 15.7, 45.42 16.35 C55.52 17, 68.95 17.02, 82.25 16.64 C95.56 16.26, 113.93 15.78, 125.26 14.08 C136.59 12.38, 145.15 8.95, 150.23 6.43 C155.3 3.91, 154.8 0.21, 155.71 -1.04" stroke="#0a11d3" stroke-width="1" fill="none"></path></g></g><mask></mask><g stroke-linecap="round"><g transform="translate(571.9755031981258 963.0103156485166) rotate(0 77.83606040803716 7.986751817602453)"><path d="M-0.13 0.11 C0.55 1.24, 0.44 4.7, 4.1 6.8 C7.76 8.89, 14.99 11.1, 21.83 12.67 C28.67 14.24, 35.09 15.59, 45.13 16.23 C55.17 16.86, 68.75 16.81, 82.07 16.47 C95.39 16.13, 113.67 15.93, 125.07 14.19 C136.47 12.45, 145.42 8.52, 150.48 6.02 C155.55 3.52, 154.62 0.34, 155.47 -0.82 M0.16 -0.01 C0.81 1.15, 0.35 4.85, 3.94 7 C7.53 9.15, 14.87 11.32, 21.73 12.89 C28.58 14.46, 34.97 15.83, 45.07 16.44 C55.18 17.05, 69.01 16.94, 82.37 16.54 C95.72 16.13, 113.94 15.69, 125.23 13.99 C136.51 12.29, 144.98 8.81, 150.07 6.33 C155.17 3.85, 154.84 0.27, 155.8 -0.9" stroke="#0a11d3" stroke-width="1" fill="none"></path></g></g><mask></mask><g stroke-linecap="round" transform="translate(570 892.0842247866294) rotate(0 77.24430072362156 15.622078688616966)"><path d="M85.05 0.07 C97.35 0.13, 111.88 1.49, 122.3 2.97 C132.72 4.46, 142.33 6.62, 147.59 8.97 C152.86 11.32, 155.16 14.42, 153.89 17.07 C152.62 19.72, 147.48 22.73, 139.96 24.87 C132.45 27.02, 120.51 28.9, 108.78 29.94 C97.05 30.98, 82.38 31.42, 69.58 31.12 C56.78 30.83, 42.44 29.68, 31.98 28.18 C21.52 26.68, 12.1 24.45, 6.81 22.13 C1.53 19.82, -1.05 16.89, 0.25 14.31 C1.55 11.74, 7.02 8.81, 14.6 6.69 C22.19 4.56, 33.84 2.72, 45.75 1.58 C57.67 0.44, 79.3 0.07, 86.08 -0.14 C92.85 -0.35, 86.56 0.06, 86.42 0.31 M68.13 -0.21 C80.18 -0.74, 96.36 0.25, 108.18 1.31 C119.99 2.37, 131.43 4.04, 139.01 6.14 C146.58 8.24, 152.05 11.26, 153.62 13.89 C155.18 16.51, 153.49 19.53, 148.42 21.89 C143.35 24.26, 133.51 26.48, 123.18 28.07 C112.84 29.67, 99.09 31.08, 86.4 31.46 C73.71 31.84, 58.89 31.46, 47.03 30.33 C35.18 29.2, 23.08 26.79, 15.27 24.69 C7.45 22.59, 1.67 20.31, 0.14 17.74 C-1.38 15.17, 0.99 11.75, 6.12 9.27 C11.25 6.79, 20.63 4.44, 30.93 2.88 C41.23 1.32, 61.59 0.32, 67.91 -0.08 C74.22 -0.48, 68.61 0.25, 68.82 0.49" stroke="none" stroke-width="0" fill="#fff"></path><path d="M79.5 -0.14 C91.76 -0.29, 106.79 0.72, 117.73 2.14 C128.66 3.56, 139.03 6.12, 145.12 8.4 C151.21 10.68, 154.64 13.27, 154.29 15.82 C153.93 18.37, 149.75 21.49, 142.99 23.71 C136.23 25.93, 125.07 27.86, 113.75 29.14 C102.43 30.42, 87.91 31.42, 75.1 31.41 C62.28 31.41, 47.8 30.5, 36.87 29.11 C25.93 27.73, 15.6 25.44, 9.47 23.1 C3.35 20.76, -0.19 17.69, 0.1 15.07 C0.39 12.45, 4.5 9.61, 11.23 7.4 C17.95 5.2, 29.01 3.03, 40.47 1.84 C51.92 0.65, 73.25 0.48, 79.95 0.24 C86.65 0, 80.71 0.17, 80.67 0.39 M83.91 0.16 C96.22 0.11, 110.78 1.03, 121.29 2.52 C131.8 4.01, 141.5 6.64, 146.96 9.09 C152.43 11.55, 155.15 14.65, 154.07 17.24 C152.99 19.82, 147.75 22.53, 140.47 24.61 C133.2 26.69, 122.01 28.68, 110.42 29.72 C98.83 30.77, 83.81 31.15, 70.93 30.88 C58.04 30.61, 43.69 29.52, 33.1 28.12 C22.5 26.72, 12.81 24.8, 7.36 22.5 C1.92 20.2, -0.64 16.98, 0.44 14.33 C1.53 11.67, 6.63 8.76, 13.88 6.57 C21.13 4.37, 32.29 2.25, 43.94 1.15 C55.58 0.05, 77.16 0.08, 83.76 -0.04 C90.37 -0.15, 83.66 0.15, 83.56 0.46" stroke="#0a11d3" stroke-width="1" fill="none"></path></g><g stroke-linecap="round" transform="translate(696.0392982770863 935.4002441531957) rotate(0 11.320892721449127 12.286634182176385)"><path d="M10.48 0.12 C12.81 -0.21, 16.03 0.95, 18.02 2.51 C20.01 4.06, 21.84 6.88, 22.42 9.43 C23.01 11.99, 22.62 15.51, 21.52 17.83 C20.41 20.15, 18.01 22.3, 15.8 23.35 C13.6 24.39, 10.59 24.78, 8.27 24.09 C5.95 23.4, 3.27 21.4, 1.89 19.19 C0.51 16.97, -0.23 13.46, 0 10.82 C0.24 8.18, 1.51 5.14, 3.28 3.36 C5.05 1.58, 9.43 0.63, 10.64 0.13 C11.86 -0.38, 10.56 0.14, 10.57 0.32 M10.77 -0.14 C13.13 -0.43, 16.41 0.85, 18.38 2.5 C20.35 4.15, 22.01 7.15, 22.57 9.75 C23.12 12.35, 22.86 15.8, 21.69 18.08 C20.51 20.36, 17.82 22.39, 15.53 23.44 C13.23 24.49, 10.27 25.14, 7.94 24.36 C5.62 23.58, 2.85 20.99, 1.56 18.76 C0.28 16.53, -0.1 13.59, 0.21 10.98 C0.52 8.37, 1.65 4.92, 3.44 3.09 C5.23 1.27, 9.77 0.54, 10.95 0.05 C12.12 -0.44, 10.6 -0.07, 10.52 0.14" stroke="none" stroke-width="0" fill="#fff"></path><path d="M10.18 -0.08 C12.44 -0.44, 15.65 0.82, 17.63 2.3 C19.61 3.77, 21.41 6.26, 22.08 8.76 C22.74 11.25, 22.61 14.85, 21.61 17.25 C20.61 19.65, 18.23 21.99, 16.06 23.17 C13.88 24.35, 10.86 24.93, 8.55 24.34 C6.24 23.75, 3.61 21.77, 2.22 19.62 C0.82 17.46, 0.01 14.08, 0.18 11.42 C0.35 8.75, 1.61 5.52, 3.27 3.62 C4.92 1.72, 8.92 0.59, 10.11 0.02 C11.29 -0.54, 10.35 0.01, 10.39 0.25 M11.54 0.2 C13.83 0.11, 16.86 1.27, 18.74 2.99 C20.62 4.71, 22.43 7.94, 22.82 10.52 C23.21 13.1, 22.41 16.21, 21.08 18.46 C19.76 20.72, 17.2 23.13, 14.87 24.05 C12.54 24.98, 9.37 24.98, 7.08 24.02 C4.79 23.05, 2.27 20.63, 1.14 18.27 C0.02 15.92, -0.19 12.5, 0.32 9.86 C0.83 7.23, 2.37 4.13, 4.22 2.44 C6.06 0.75, 10.19 0.06, 11.41 -0.28 C12.62 -0.62, 11.47 0.16, 11.52 0.41" stroke="#0a11d3" stroke-width="1" fill="none"></path></g><g stroke-linecap="round" transform="translate(696.0392982770863 989.3385220052241) rotate(0 11.320892721449127 12.286634182176385)"><path d="M12.1 0.19 C14.43 0.2, 17.51 1.71, 19.26 3.52 C21.01 5.34, 22.36 8.53, 22.59 11.1 C22.82 13.66, 21.95 16.77, 20.62 18.93 C19.28 21.1, 16.89 23.3, 14.57 24.07 C12.26 24.84, 8.97 24.65, 6.73 23.57 C4.48 22.48, 2.21 19.93, 1.12 17.55 C0.02 15.17, -0.44 11.8, 0.15 9.29 C0.73 6.78, 2.66 4.02, 4.63 2.49 C6.6 0.96, 10.69 0.47, 11.96 0.09 C13.23 -0.28, 12.24 0.07, 12.24 0.25 M11.59 0.07 C13.91 -0.01, 16.95 1.43, 18.8 3.16 C20.65 4.88, 22.37 7.88, 22.71 10.4 C23.05 12.92, 22.13 15.98, 20.86 18.27 C19.59 20.56, 17.37 23.24, 15.09 24.12 C12.81 25, 9.42 24.48, 7.18 23.56 C4.95 22.64, 2.86 20.85, 1.67 18.58 C0.48 16.31, -0.38 12.54, 0.06 9.93 C0.5 7.33, 2.46 4.61, 4.31 2.93 C6.15 1.25, 10.02 0.31, 11.13 -0.12 C12.25 -0.56, 10.94 0.08, 11 0.31" stroke="none" stroke-width="0" fill="#fff"></path><path d="M10.57 0.19 C12.83 -0.13, 15.96 0.69, 17.92 2.21 C19.87 3.74, 21.74 6.78, 22.3 9.34 C22.85 11.9, 22.34 15.19, 21.27 17.58 C20.19 19.98, 18.03 22.59, 15.85 23.7 C13.67 24.8, 10.5 24.98, 8.19 24.22 C5.89 23.45, 3.37 21.34, 2.03 19.11 C0.69 16.87, -0.09 13.43, 0.13 10.8 C0.35 8.18, 1.58 5.15, 3.34 3.35 C5.09 1.54, 9.44 0.47, 10.67 -0.01 C11.9 -0.5, 10.69 0.23, 10.71 0.45 M10.93 -0.06 C13.28 -0.31, 16.72 1.12, 18.64 2.73 C20.57 4.33, 22.06 7, 22.49 9.58 C22.92 12.17, 22.4 15.83, 21.21 18.23 C20.03 20.63, 17.66 23.01, 15.38 23.98 C13.1 24.95, 9.79 24.92, 7.52 24.04 C5.26 23.17, 3.03 21.03, 1.79 18.73 C0.55 16.44, -0.21 12.92, 0.09 10.27 C0.39 7.62, 1.81 4.52, 3.61 2.83 C5.42 1.15, 9.67 0.6, 10.93 0.16 C12.18 -0.27, 11.1 0.08, 11.14 0.23" stroke="#0a11d3" stroke-width="1" fill="none"></path></g><g stroke-linecap="round" transform="translate(696.0392982770863 1047.9622632121682) rotate(0 11.320892721449127 12.286634182176385)"><path d="M11.93 0.14 C14.24 0.09, 17.24 1.66, 18.99 3.39 C20.73 5.12, 22.09 7.94, 22.42 10.52 C22.74 13.1, 22.23 16.63, 20.94 18.88 C19.65 21.13, 17.01 23.27, 14.68 24.03 C12.34 24.79, 9.19 24.48, 6.93 23.45 C4.67 22.42, 2.21 20.15, 1.11 17.87 C0 15.58, -0.24 12.27, 0.29 9.73 C0.81 7.19, 2.32 4.22, 4.26 2.6 C6.21 0.98, 10.7 0.39, 11.97 -0.02 C13.24 -0.42, 11.92 -0.05, 11.9 0.17 M10.93 0.33 C13.21 0.07, 16.5 1.24, 18.35 2.74 C20.21 4.25, 21.57 6.8, 22.06 9.37 C22.54 11.93, 22.38 15.82, 21.28 18.14 C20.18 20.46, 17.65 22.29, 15.47 23.3 C13.29 24.3, 10.46 24.92, 8.17 24.16 C5.89 23.4, 3.04 20.96, 1.74 18.74 C0.44 16.53, 0.09 13.44, 0.37 10.85 C0.65 8.26, 1.75 5, 3.43 3.2 C5.1 1.41, 9.17 0.56, 10.41 0.09 C11.66 -0.39, 10.88 0.15, 10.91 0.33" stroke="none" stroke-width="0" fill="#fff"></path><path d="M10.36 -0.16 C12.65 -0.54, 15.96 0.7, 17.92 2.24 C19.87 3.79, 21.51 6.51, 22.11 9.1 C22.72 11.69, 22.54 15.36, 21.53 17.78 C20.51 20.21, 18.23 22.59, 16.04 23.65 C13.85 24.71, 10.72 24.91, 8.38 24.15 C6.04 23.39, 3.43 21.28, 2.01 19.09 C0.59 16.9, -0.36 13.62, -0.13 11.01 C0.1 8.4, 1.62 5.24, 3.4 3.44 C5.17 1.64, 9.28 0.74, 10.51 0.22 C11.73 -0.31, 10.72 0.14, 10.73 0.31 M12.39 0.12 C14.72 0.1, 17.56 1.39, 19.25 3.22 C20.93 5.05, 22.27 8.39, 22.49 11.09 C22.72 13.79, 21.97 17.23, 20.6 19.41 C19.22 21.59, 16.52 23.49, 14.23 24.17 C11.94 24.86, 9.03 24.63, 6.85 23.51 C4.67 22.39, 2.25 19.86, 1.14 17.45 C0.02 15.04, -0.42 11.55, 0.16 9.07 C0.73 6.58, 2.57 4.04, 4.59 2.53 C6.6 1.02, 10.96 0.41, 12.23 0.01 C13.5 -0.39, 12.27 -0.03, 12.19 0.13" stroke="#0a11d3" stroke-width="1" fill="none"></path></g><g transform="translate(736 1010) rotate(0 56 33.600000000000364)"><text x="56" y="0" font-family="Cascadia, Segoe UI Emoji" font-size="28px" fill="#1e1e1e" text-anchor="middle" style="white-space: pre;" direction="ltr" dominant-baseline="text-before-edge">数据库1</text><text x="56" y="33.6" font-family="Cascadia, Segoe UI Emoji" font-size="28px" fill="#1e1e1e" text-anchor="middle" style="white-space: pre;" direction="ltr" dominant-baseline="text-before-edge">运动鞋服</text></g><g transform="translate(170 470) rotate(0 100.546875 21.600000000000364)"><text x="100.546875" y="0" font-family="Cascadia, Segoe UI Emoji" font-size="36px" fill="#1e1e1e" text-anchor="middle" style="white-space: pre;" direction="ltr" dominant-baseline="text-before-edge">应用服务器1</text></g><g transform="translate(170 1070) rotate(0 118.546875 21.600000000000364)"><text x="118.546875" y="0" font-family="Cascadia, Segoe UI Emoji" font-size="36px" fill="#1e1e1e" text-anchor="middle" style="white-space: pre;" direction="ltr" dominant-baseline="text-before-edge">数据库服务器1</text></g><g stroke-linecap="round"><g transform="translate(670 530) rotate(0 0 110)"><path d="M0 0 C0 36.67, 0 183.33, 0 220 M0 0 C0 36.67, 0 183.33, 0 220" stroke="#1e1e1e" stroke-width="4" fill="none"></path></g><g transform="translate(670 530) rotate(0 0 110)"><path d="M-10.26 191.81 C-8.05 197.88, -5.84 203.94, 0 220 M-10.26 191.81 C-6.52 202.08, -2.79 212.35, 0 220" stroke="#1e1e1e" stroke-width="4" fill="none"></path></g><g transform="translate(670 530) rotate(0 0 110)"><path d="M10.26 191.81 C8.05 197.88, 5.84 203.94, 0 220 M10.26 191.81 C6.52 202.08, 2.79 212.35, 0 220" stroke="#1e1e1e" stroke-width="4" fill="none"></path></g></g><mask></mask><g stroke-linecap="round" transform="translate(1390 750) rotate(0 550 190)"><path d="M32 0 C317.57 0, 603.13 0, 1068 0 C1089.33 0, 1100 10.67, 1100 32 C1100 150.75, 1100 269.5, 1100 348 C1100 369.33, 1089.33 380, 1068 380 C820.55 380, 573.09 380, 32 380 C10.67 380, 0 369.33, 0 348 C0 247.93, 0 147.85, 0 32 C0 10.67, 10.67 0, 32 0" stroke="none" stroke-width="0" fill="#ffffff"></path><path d="M32 0 C439.48 0, 846.96 0, 1068 0 M1068 0 C1089.33 0, 1100 10.67, 1100 32 M1100 32 C1100 131.4, 1100 230.8, 1100 348 M1100 348 C1100 369.33, 1089.33 380, 1068 380 M1068 380 C730.91 380, 393.81 380, 32 380 M32 380 C10.67 380, 0 369.33, 0 348 M0 348 C0 280.34, 0 212.68, 0 32 M0 32 C0 10.67, 10.67 0, 32 0" stroke="#1e1e1e" stroke-width="4.5" fill="none" stroke-dasharray="8 12"></path></g><g stroke-linecap="round" transform="translate(1390 110) rotate(0 550 210)"><path d="M32 0 C241.01 0, 450.01 0, 1068 0 C1089.33 0, 1100 10.67, 1100 32 C1100 108.88, 1100 185.75, 1100 388 C1100 409.33, 1089.33 420, 1068 420 C702.08 420, 336.17 420, 32 420 C10.67 420, 0 409.33, 0 388 C0 298.29, 0 208.59, 0 32 C0 10.67, 10.67 0, 32 0" stroke="none" stroke-width="0" fill="#ffffff"></path><path d="M32 0 C294.17 0, 556.33 0, 1068 0 M1068 0 C1089.33 0, 1100 10.67, 1100 32 M1100 32 C1100 144.81, 1100 257.62, 1100 388 M1100 388 C1100 409.33, 1089.33 420, 1068 420 M1068 420 C694.87 420, 321.74 420, 32 420 M32 420 C10.67 420, 0 409.33, 0 388 M0 388 C0 260.91, 0 133.81, 0 32 M0 32 C0 10.67, 10.67 0, 32 0" stroke="#1e1e1e" stroke-width="4.5" fill="none" stroke-dasharray="8 12"></path></g><g stroke-linecap="round" transform="translate(1450 170) rotate(0 490 120)"><path d="M32 0 C298.59 0, 565.18 0, 948 0 C969.33 0, 980 10.67, 980 32 C980 76.44, 980 120.88, 980 208 C980 229.33, 969.33 240, 948 240 C644.89 240, 341.78 240, 32 240 C10.67 240, 0 229.33, 0 208 C0 160.45, 0 112.89, 0 32 C0 10.67, 10.67 0, 32 0" stroke="none" stroke-width="0" fill="#ebfbee"></path><path d="M32 0 C257.45 0, 482.89 0, 948 0 M32 0 C320.14 0, 608.27 0, 948 0 M948 0 C969.33 0, 980 10.67, 980 32 M948 0 C969.33 0, 980 10.67, 980 32 M980 32 C980 97.68, 980 163.36, 980 208 M980 32 C980 69.68, 980 107.37, 980 208 M980 208 C980 229.33, 969.33 240, 948 240 M980 208 C980 229.33, 969.33 240, 948 240 M948 240 C702.56 240, 457.12 240, 32 240 M948 240 C603.77 240, 259.54 240, 32 240 M32 240 C10.67 240, 0 229.33, 0 208 M32 240 C10.67 240, 0 229.33, 0 208 M0 208 C0 154.27, 0 100.54, 0 32 M0 208 C0 152.26, 0 96.53, 0 32 M0 32 C0 10.67, 10.67 0, 32 0 M0 32 C0 10.67, 10.67 0, 32 0" stroke="#1e1e1e" stroke-width="4" fill="none"></path></g><g stroke-linecap="round" transform="translate(1490 210) rotate(0 110 50)"><path d="M25 0 C62.66 0, 100.32 0, 195 0 C211.67 0, 220 8.33, 220 25 C220 38.52, 220 52.05, 220 75 C220 91.67, 211.67 100, 195 100 C133.43 100, 71.85 100, 25 100 C8.33 100, 0 91.67, 0 75 C0 59.47, 0 43.94, 0 25 C0 8.33, 8.33 0, 25 0" stroke="none" stroke-width="0" fill="#b2f2bb"></path><path d="M25 0 C75.23 0, 125.46 0, 195 0 M25 0 C78.87 0, 132.74 0, 195 0 M195 0 C211.67 0, 220 8.33, 220 25 M195 0 C211.67 0, 220 8.33, 220 25 M220 25 C220 43.17, 220 61.33, 220 75 M220 25 C220 42.85, 220 60.7, 220 75 M220 75 C220 91.67, 211.67 100, 195 100 M220 75 C220 91.67, 211.67 100, 195 100 M195 100 C160.08 100, 125.16 100, 25 100 M195 100 C158.29 100, 121.58 100, 25 100 M25 100 C8.33 100, 0 91.67, 0 75 M25 100 C8.33 100, 0 91.67, 0 75 M0 75 C0 64.26, 0 53.53, 0 25 M0 75 C0 62.4, 0 49.8, 0 25 M0 25 C0 8.33, 8.33 0, 25 0 M0 25 C0 8.33, 8.33 0, 25 0" stroke="#2f9e44" stroke-width="4" fill="none"></path></g><g transform="translate(1544 243.20000000000073) rotate(0 56 16.800000000000182)"><text x="56" y="0" font-family="Cascadia, Segoe UI Emoji" font-size="28px" fill="#1e1e1e" text-anchor="middle" style="white-space: pre;" direction="ltr" dominant-baseline="text-before-edge">用户管理</text></g><g stroke-linecap="round" transform="translate(1830 210) rotate(0 110 50)"><path d="M25 0 C92.74 0, 160.48 0, 195 0 C211.67 0, 220 8.33, 220 25 C220 39.82, 220 54.64, 220 75 C220 91.67, 211.67 100, 195 100 C132.54 100, 70.08 100, 25 100 C8.33 100, 0 91.67, 0 75 C0 59.28, 0 43.56, 0 25 C0 8.33, 8.33 0, 25 0" stroke="none" stroke-width="0" fill="#b2f2bb"></path><path d="M25 0 C88.87 0, 152.75 0, 195 0 M25 0 C91.67 0, 158.35 0, 195 0 M195 0 C211.67 0, 220 8.33, 220 25 M195 0 C211.67 0, 220 8.33, 220 25 M220 25 C220 36.77, 220 48.55, 220 75 M220 25 C220 44.69, 220 64.37, 220 75 M220 75 C220 91.67, 211.67 100, 195 100 M220 75 C220 91.67, 211.67 100, 195 100 M195 100 C156.38 100, 117.77 100, 25 100 M195 100 C158.09 100, 121.18 100, 25 100 M25 100 C8.33 100, 0 91.67, 0 75 M25 100 C8.33 100, 0 91.67, 0 75 M0 75 C0 63.18, 0 51.36, 0 25 M0 75 C0 57.66, 0 40.32, 0 25 M0 25 C0 8.33, 8.33 0, 25 0 M0 25 C0 8.33, 8.33 0, 25 0" stroke="#2f9e44" stroke-width="4" fill="none"></path></g><g transform="translate(1884 243.20000000000073) rotate(0 56 16.800000000000182)"><text x="56" y="0" font-family="Cascadia, Segoe UI Emoji" font-size="28px" fill="#1e1e1e" text-anchor="middle" style="white-space: pre;" direction="ltr" dominant-baseline="text-before-edge">商品管理</text></g><g stroke-linecap="round" transform="translate(2150 210) rotate(0 110 50)"><path d="M25 0 C81.37 0, 137.74 0, 195 0 C211.67 0, 220 8.33, 220 25 C220 39.79, 220 54.57, 220 75 C220 91.67, 211.67 100, 195 100 C150.02 100, 105.04 100, 25 100 C8.33 100, 0 91.67, 0 75 C0 55.94, 0 36.88, 0 25 C0 8.33, 8.33 0, 25 0" stroke="none" stroke-width="0" fill="#b2f2bb"></path><path d="M25 0 C67.26 0, 109.52 0, 195 0 M25 0 C62.05 0, 99.09 0, 195 0 M195 0 C211.67 0, 220 8.33, 220 25 M195 0 C211.67 0, 220 8.33, 220 25 M220 25 C220 40.71, 220 56.41, 220 75 M220 25 C220 42.51, 220 60.01, 220 75 M220 75 C220 91.67, 211.67 100, 195 100 M220 75 C220 91.67, 211.67 100, 195 100 M195 100 C154.65 100, 114.3 100, 25 100 M195 100 C152.21 100, 109.42 100, 25 100 M25 100 C8.33 100, 0 91.67, 0 75 M25 100 C8.33 100, 0 91.67, 0 75 M0 75 C0 61.43, 0 47.87, 0 25 M0 75 C0 62.08, 0 49.17, 0 25 M0 25 C0 8.33, 8.33 0, 25 0 M0 25 C0 8.33, 8.33 0, 25 0" stroke="#2f9e44" stroke-width="4" fill="none"></path></g><g transform="translate(2204 243.20000000000073) rotate(0 56 16.800000000000182)"><text x="56" y="0" font-family="Cascadia, Segoe UI Emoji" font-size="28px" fill="#1e1e1e" text-anchor="middle" style="white-space: pre;" direction="ltr" dominant-baseline="text-before-edge">订单管理</text></g><g transform="translate(1830 350) rotate(0 108 21.600000000000364)"><text x="108" y="0" font-family="Cascadia, Segoe UI Emoji" font-size="36px" fill="#1e1e1e" text-anchor="middle" style="white-space: pre;" direction="ltr" dominant-baseline="text-before-edge">电商销售系统</text></g><g stroke-linecap="round"><g transform="translate(1832.6917671055126 906.2281328787285) rotate(0 77.46890394273214 84.03883968559603)" fill-rule="evenodd"><path d="M-1.33 -1.18 C-1.71 24.63, -1.43 124.24, -0.98 152.86 C-0.54 181.47, -0.19 166.26, 1.33 170.51 C2.85 174.77, 2.74 176.36, 8.14 178.4 C13.54 180.44, 21.24 181.97, 33.72 182.77 C46.21 183.58, 67.66 183.36, 83.06 183.22 C98.46 183.09, 114.49 183.68, 126.15 181.95 C137.81 180.22, 148.32 174.98, 153 172.86 C157.68 170.73, 153.82 172.19, 154.23 169.2 C154.64 166.22, 155.65 181.06, 155.45 154.95 C155.26 128.84, 153.12 38.64, 153.06 12.55 C153.01 -13.55, 156.92 1.92, 155.15 -1.63 C153.38 -5.18, 148.13 -7.06, 142.46 -8.75 C136.78 -10.45, 132.33 -10.84, 121.1 -11.8 C109.87 -12.76, 89.42 -14.09, 75.06 -14.51 C60.7 -14.92, 46.55 -15.73, 34.94 -14.29 C23.33 -12.84, 10.83 -8.1, 5.39 -5.84 C-0.04 -3.57, 2.87 -1.41, 2.33 -0.68 C1.79 0.04, 2.42 -1.41, 2.16 -1.49" stroke="none" stroke-width="0" fill="#228be6" fill-rule="evenodd"></path><path d="M0.3 1.06 C0.44 26.51, 1.14 123.84, 1.23 151.72 C1.33 179.6, -0.35 164.29, 0.9 168.33 C2.16 172.37, 2.95 173.49, 8.77 175.97 C14.59 178.45, 23.62 181.92, 35.83 183.2 C48.04 184.48, 66.52 183.81, 82.03 183.65 C97.54 183.49, 117.28 183.68, 128.89 182.23 C140.51 180.77, 147.39 177.15, 151.73 174.92 C156.08 172.69, 154.17 172.42, 154.95 168.83 C155.73 165.24, 156.21 179.31, 156.41 153.39 C156.61 127.47, 156.56 38.96, 156.14 13.33 C155.73 -12.31, 156.09 3.08, 153.9 -0.42 C151.72 -3.93, 148.22 -5.63, 143.03 -7.71 C137.85 -9.8, 134.28 -11.44, 122.8 -12.95 C111.32 -14.46, 88.49 -16.65, 74.14 -16.79 C59.79 -16.92, 48.09 -15.62, 36.69 -13.75 C25.3 -11.88, 11.91 -7.69, 5.78 -5.59 C-0.35 -3.48, 1.02 -1.96, -0.07 -1.1 C-1.16 -0.24, -0.83 -0.44, -0.75 -0.42 M-0.99 0.58 C-0.99 26.32, 0.4 125.16, 0.67 153.29 C0.93 181.41, -0.86 165.4, 0.6 169.32 C2.06 173.25, 3.79 174.43, 9.41 176.85 C15.04 179.27, 22.09 182.37, 34.36 183.85 C46.63 185.33, 67.68 186.16, 83.04 185.73 C98.39 185.29, 115.2 183.02, 126.5 181.24 C137.79 179.46, 146.33 177.24, 150.8 175.04 C155.26 172.84, 152.75 171.76, 153.29 168.04 C153.83 164.32, 154.03 178.9, 154.04 152.72 C154.06 126.54, 153.06 36.55, 153.39 10.97 C153.71 -14.61, 157.79 2.47, 156 -0.75 C154.21 -3.97, 148.33 -6.24, 142.64 -8.36 C136.96 -10.47, 133.36 -11.88, 121.9 -13.45 C110.44 -15.01, 87.92 -17.93, 73.87 -17.76 C59.83 -17.6, 48.66 -14.08, 37.64 -12.46 C26.61 -10.83, 14.23 -9.88, 7.73 -8.02 C1.23 -6.15, -0.25 -2.53, -1.35 -1.26 C-2.45 0.01, 0.72 -0.66, 1.13 -0.38" stroke="#0a11d3" stroke-width="1" fill="none"></path></g></g><mask></mask><g stroke-linecap="round"><g transform="translate(1833.9032745411532 1021.3050833395646) rotate(0 77.7961448315491 8.007524796245889)"><path d="M0.12 0.01 C0.82 1.11, 0.61 4.69, 4.24 6.78 C7.88 8.88, 15.06 11.01, 21.91 12.59 C28.76 14.16, 35.29 15.62, 45.32 16.24 C55.34 16.86, 68.71 16.62, 82.06 16.31 C95.4 15.99, 114.01 16.03, 125.4 14.36 C136.78 12.69, 145.31 8.79, 150.36 6.29 C155.4 3.8, 154.74 0.58, 155.65 -0.61 M-0.06 -0.16 C0.62 1.05, 0.51 4.83, 4.16 6.98 C7.82 9.14, 14.98 11.29, 21.85 12.77 C28.71 14.25, 35.28 15.28, 45.36 15.86 C55.44 16.45, 69.05 16.55, 82.35 16.28 C95.64 16.02, 113.78 15.94, 125.13 14.25 C136.49 12.56, 145.41 8.62, 150.47 6.15 C155.53 3.68, 154.63 0.54, 155.49 -0.57" stroke="#0a11d3" stroke-width="1" fill="none"></path></g></g><mask></mask><g stroke-linecap="round"><g transform="translate(1831.9755031981258 963.0103156485166) rotate(0 77.89630855642099 7.944011409416817)"><path d="M0.14 -0.1 C0.83 1.03, 0.62 4.67, 4.23 6.81 C7.83 8.95, 14.96 11.21, 21.79 12.74 C28.61 14.27, 35.09 15.35, 45.19 15.99 C55.29 16.63, 69.04 16.85, 82.38 16.59 C95.72 16.32, 113.91 16.1, 125.23 14.39 C136.56 12.68, 145.23 8.88, 150.33 6.33 C155.43 3.79, 154.9 0.31, 155.81 -0.86 M-0.02 0.27 C0.64 1.43, 0.52 5, 4.13 7.03 C7.75 9.05, 14.83 10.89, 21.66 12.4 C28.5 13.91, 35.07 15.36, 45.17 16.08 C55.26 16.8, 68.85 17, 82.24 16.71 C95.62 16.41, 114.11 16.05, 125.47 14.3 C136.84 12.55, 145.39 8.75, 150.44 6.21 C155.48 3.67, 154.86 0.23, 155.73 -0.95" stroke="#0a11d3" stroke-width="1" fill="none"></path></g></g><mask></mask><g stroke-linecap="round" transform="translate(1830 892.0842247866312) rotate(0 77.24430072362156 15.622078688616966)"><path d="M86.87 0.21 C99.14 0.24, 113.65 1.46, 123.91 3.05 C134.17 4.64, 143.4 7.26, 148.42 9.73 C153.44 12.19, 155.64 15.28, 154.02 17.86 C152.4 20.44, 146.5 23.18, 138.7 25.2 C130.9 27.22, 119.09 28.98, 107.21 29.98 C95.34 30.98, 80.2 31.49, 67.45 31.2 C54.69 30.9, 40.89 29.81, 30.67 28.21 C20.45 26.62, 11.17 24.02, 6.12 21.62 C1.08 19.22, -1.19 16.38, 0.39 13.82 C1.98 11.25, 7.76 8.35, 15.64 6.24 C23.52 4.12, 35.67 2.12, 47.66 1.12 C59.66 0.12, 80.86 0.35, 87.61 0.22 C94.35 0.1, 88.34 0.15, 88.14 0.39 M78.31 0.32 C90.59 0.12, 105.98 1.13, 117.1 2.41 C128.22 3.7, 138.74 5.8, 145.03 8.01 C151.32 10.21, 155.04 13.09, 154.82 15.64 C154.61 18.19, 150.43 21.08, 143.74 23.31 C137.05 25.54, 126.01 27.69, 114.7 29.02 C103.39 30.36, 88.74 31.34, 75.88 31.31 C63.02 31.28, 48.58 30.24, 37.54 28.83 C26.49 27.42, 15.84 25.07, 9.62 22.83 C3.39 20.59, 0 17.95, 0.18 15.39 C0.36 12.82, 4.12 9.66, 10.72 7.43 C17.32 5.21, 28.45 3.28, 39.78 2.03 C51.11 0.78, 72.2 0.21, 78.7 -0.08 C85.2 -0.37, 78.75 0.04, 78.78 0.28" stroke="none" stroke-width="0" fill="#fff"></path><path d="M77.15 0.25 C89.39 0.07, 104.91 0.88, 116.12 2.14 C127.33 3.41, 137.96 5.55, 144.39 7.84 C150.83 10.12, 154.8 13.22, 154.73 15.86 C154.66 18.51, 150.46 21.49, 143.99 23.69 C137.52 25.9, 127.03 27.88, 115.89 29.1 C104.75 30.32, 90.04 31, 77.16 30.99 C64.28 30.98, 49.75 30.36, 38.59 29.06 C27.42 27.75, 16.62 25.42, 10.16 23.17 C3.7 20.92, -0.21 18.15, -0.17 15.56 C-0.13 12.97, 3.91 9.85, 10.43 7.6 C16.94 5.36, 27.68 3.38, 38.93 2.08 C50.17 0.79, 71.26 0.12, 77.89 -0.16 C84.52 -0.44, 78.74 0.09, 78.72 0.4 M68.71 0.28 C80.82 -0.14, 96.84 0.51, 108.66 1.58 C120.48 2.65, 132.12 4.66, 139.62 6.72 C147.13 8.78, 152.33 11.46, 153.71 13.95 C155.1 16.45, 153.13 19.31, 147.94 21.7 C142.75 24.1, 132.94 26.75, 122.58 28.3 C112.22 29.84, 98.55 30.66, 85.77 30.97 C72.99 31.28, 57.73 31.14, 45.92 30.15 C34.11 29.16, 22.52 27.17, 14.89 25.02 C7.26 22.88, 1.49 19.92, 0.14 17.27 C-1.22 14.63, 1.53 11.54, 6.74 9.15 C11.95 6.75, 21.07 4.39, 31.38 2.9 C41.7 1.41, 62.34 0.56, 68.62 0.18 C74.9 -0.2, 68.94 0.4, 69.08 0.64" stroke="#0a11d3" stroke-width="1" fill="none"></path></g><g stroke-linecap="round" transform="translate(1956.0392982770863 935.4002441531957) rotate(0 11.320892721449127 12.286634182176385)"><path d="M10.51 0.02 C12.83 -0.33, 16.09 0.62, 18.05 2.14 C20.01 3.66, 21.66 6.52, 22.25 9.14 C22.84 11.75, 22.63 15.39, 21.58 17.82 C20.53 20.24, 18.18 22.61, 15.94 23.67 C13.69 24.73, 10.48 24.94, 8.14 24.18 C5.79 23.42, 3.23 21.27, 1.87 19.1 C0.52 16.93, -0.28 13.75, -0.01 11.19 C0.27 8.62, 1.78 5.55, 3.54 3.71 C5.3 1.86, 9.35 0.7, 10.56 0.12 C11.77 -0.46, 10.78 0.02, 10.79 0.22 M12.27 -0.23 C14.58 -0.23, 17.8 1.47, 19.54 3.43 C21.28 5.39, 22.54 8.9, 22.7 11.53 C22.85 14.17, 21.87 17.13, 20.48 19.24 C19.09 21.35, 16.69 23.54, 14.35 24.19 C12.01 24.84, 8.65 24.26, 6.44 23.15 C4.22 22.04, 2.11 19.82, 1.07 17.52 C0.03 15.22, -0.37 11.85, 0.21 9.34 C0.79 6.83, 2.51 4, 4.53 2.48 C6.55 0.95, 10.99 0.56, 12.31 0.19 C13.63 -0.18, 12.41 0.1, 12.44 0.25" stroke="none" stroke-width="0" fill="#fff"></path><path d="M10.67 0.06 C13.02 -0.3, 16.17 0.79, 18.15 2.36 C20.12 3.94, 21.96 6.92, 22.51 9.51 C23.05 12.1, 22.5 15.56, 21.41 17.89 C20.33 20.21, 18.21 22.47, 16.01 23.47 C13.81 24.47, 10.55 24.62, 8.21 23.88 C5.88 23.15, 3.36 21.26, 1.98 19.07 C0.61 16.89, -0.26 13.39, -0.04 10.78 C0.19 8.17, 1.55 5.22, 3.33 3.4 C5.12 1.58, 9.41 0.39, 10.68 -0.13 C11.95 -0.66, 10.97 0.05, 10.94 0.26 M11.07 -0.26 C13.32 -0.49, 16.25 0.75, 18.1 2.44 C19.95 4.12, 21.63 7.23, 22.2 9.86 C22.76 12.49, 22.6 15.89, 21.5 18.24 C20.4 20.58, 17.92 22.97, 15.6 23.93 C13.28 24.89, 9.88 24.87, 7.57 23.99 C5.27 23.1, 3.04 20.85, 1.77 18.63 C0.49 16.41, -0.45 13.26, -0.09 10.65 C0.26 8.05, 2.1 4.76, 3.91 3.02 C5.73 1.28, 9.64 0.64, 10.81 0.2 C11.98 -0.23, 10.94 0.23, 10.92 0.4" stroke="#0a11d3" stroke-width="1" fill="none"></path></g><g stroke-linecap="round" transform="translate(1956.0392982770863 989.3385220052223) rotate(0 11.320892721449127 12.286634182176385)"><path d="M10.43 -0.12 C12.7 -0.51, 15.77 0.53, 17.75 2.09 C19.73 3.66, 21.67 6.69, 22.3 9.28 C22.94 11.87, 22.59 15.27, 21.54 17.64 C20.49 20, 18.21 22.41, 16.01 23.47 C13.8 24.54, 10.65 24.71, 8.32 24.05 C5.99 23.38, 3.36 21.57, 2 19.47 C0.64 17.38, -0.05 14.09, 0.17 11.46 C0.38 8.83, 1.56 5.63, 3.29 3.72 C5.01 1.81, 9.3 0.56, 10.5 0 C11.7 -0.56, 10.45 0.11, 10.48 0.34 M12.14 -0.15 C14.47 -0.08, 17.43 1.81, 19.15 3.62 C20.86 5.43, 22.15 8.14, 22.45 10.71 C22.74 13.27, 22.23 16.85, 20.91 19.02 C19.59 21.2, 16.86 23, 14.52 23.77 C12.19 24.54, 9.14 24.58, 6.9 23.64 C4.65 22.69, 2.2 20.4, 1.05 18.09 C-0.1 15.78, -0.58 12.35, -0.01 9.77 C0.57 7.19, 2.5 4.24, 4.51 2.61 C6.53 0.98, 10.8 0.4, 12.08 -0.03 C13.36 -0.46, 12.19 -0.12, 12.2 0.04" stroke="none" stroke-width="0" fill="#fff"></path><path d="M12.65 0.07 C14.97 0.2, 18.01 2, 19.66 3.92 C21.31 5.85, 22.39 9.03, 22.54 11.62 C22.7 14.21, 22 17.39, 20.59 19.45 C19.18 21.52, 16.46 23.36, 14.1 24 C11.74 24.63, 8.63 24.42, 6.42 23.26 C4.22 22.11, 1.9 19.49, 0.88 17.09 C-0.14 14.69, -0.39 11.4, 0.3 8.88 C0.98 6.35, 2.93 3.42, 5 1.95 C7.07 0.48, 11.5 0.37, 12.74 0.08 C13.99 -0.21, 12.52 -0.02, 12.46 0.2 M10.16 -0.11 C12.38 -0.41, 15.57 0.8, 17.62 2.37 C19.66 3.94, 21.76 6.75, 22.42 9.31 C23.09 11.87, 22.7 15.38, 21.6 17.74 C20.5 20.09, 18.03 22.39, 15.84 23.43 C13.64 24.47, 10.76 24.64, 8.43 23.97 C6.09 23.29, 3.21 21.54, 1.85 19.39 C0.48 17.24, 0 13.67, 0.23 11.07 C0.46 8.47, 1.54 5.61, 3.22 3.79 C4.91 1.98, 9.19 0.78, 10.34 0.2 C11.48 -0.39, 10.06 0.11, 10.1 0.27" stroke="#0a11d3" stroke-width="1" fill="none"></path></g><g stroke-linecap="round" transform="translate(1956.0392982770863 1047.9622632121682) rotate(0 11.320892721449127 12.286634182176385)"><path d="M11.17 -0.11 C13.47 -0.23, 16.7 1.29, 18.57 3.01 C20.44 4.73, 21.99 7.66, 22.4 10.23 C22.81 12.79, 22.25 16.15, 21.05 18.4 C19.85 20.64, 17.45 22.74, 15.19 23.68 C12.93 24.61, 9.74 24.81, 7.49 23.99 C5.24 23.16, 2.92 21.01, 1.7 18.74 C0.47 16.47, -0.25 13, 0.15 10.36 C0.54 7.72, 2.22 4.62, 4.07 2.91 C5.93 1.19, 10.04 0.49, 11.28 0.07 C12.53 -0.36, 11.53 0.19, 11.55 0.38 M10.36 0.37 C12.58 -0.01, 15.65 0.63, 17.64 2.08 C19.64 3.53, 21.69 6.55, 22.34 9.06 C22.98 11.57, 22.54 14.74, 21.52 17.14 C20.49 19.53, 18.38 22.22, 16.18 23.43 C13.98 24.65, 10.68 25.04, 8.29 24.41 C5.89 23.78, 3.17 21.82, 1.79 19.66 C0.42 17.49, -0.24 14.11, 0.03 11.44 C0.3 8.76, 1.66 5.54, 3.42 3.61 C5.17 1.67, 9.36 0.43, 10.55 -0.17 C11.73 -0.77, 10.57 -0.21, 10.55 -0.01" stroke="none" stroke-width="0" fill="#fff"></path><path d="M11.69 0.18 C13.96 0.09, 16.83 1.51, 18.65 3.19 C20.47 4.87, 22.2 7.75, 22.6 10.28 C23.01 12.81, 22.32 16.12, 21.07 18.38 C19.82 20.64, 17.41 22.96, 15.09 23.83 C12.78 24.69, 9.49 24.5, 7.19 23.57 C4.89 22.64, 2.46 20.53, 1.29 18.24 C0.13 15.95, -0.29 12.4, 0.22 9.82 C0.72 7.24, 2.46 4.42, 4.33 2.76 C6.21 1.1, 10.24 0.28, 11.47 -0.13 C12.7 -0.53, 11.72 0.08, 11.72 0.32 M10.13 0.2 C12.47 -0.12, 15.95 0.89, 17.98 2.42 C20 3.95, 21.71 6.85, 22.27 9.36 C22.83 11.87, 22.34 15.17, 21.31 17.48 C20.29 19.79, 18.33 22.11, 16.15 23.23 C13.96 24.35, 10.52 24.88, 8.2 24.21 C5.88 23.54, 3.61 21.32, 2.24 19.19 C0.86 17.06, -0.23 13.99, -0.05 11.42 C0.13 8.85, 1.63 5.65, 3.32 3.75 C5 1.85, 8.88 0.62, 10.07 0.02 C11.26 -0.57, 10.45 -0.03, 10.47 0.16" stroke="#0a11d3" stroke-width="1" fill="none"></path></g><g transform="translate(1996 1010) rotate(0 56 33.600000000000364)"><text x="56" y="0" font-family="Cascadia, Segoe UI Emoji" font-size="28px" fill="#1e1e1e" text-anchor="middle" style="white-space: pre;" direction="ltr" dominant-baseline="text-before-edge">数据库2</text><text x="56" y="33.6" font-family="Cascadia, Segoe UI Emoji" font-size="28px" fill="#1e1e1e" text-anchor="middle" style="white-space: pre;" direction="ltr" dominant-baseline="text-before-edge">电脑数码</text></g><g transform="translate(1430 470) rotate(0 100.546875 21.600000000000364)"><text x="100.546875" y="0" font-family="Cascadia, Segoe UI Emoji" font-size="36px" fill="#1e1e1e" text-anchor="middle" style="white-space: pre;" direction="ltr" dominant-baseline="text-before-edge">应用服务器2</text></g><g transform="translate(1430 1070) rotate(0 118.546875 21.600000000000364)"><text x="118.546875" y="0" font-family="Cascadia, Segoe UI Emoji" font-size="36px" fill="#1e1e1e" text-anchor="middle" style="white-space: pre;" direction="ltr" dominant-baseline="text-before-edge">数据库服务器2</text></g><g stroke-linecap="round"><g transform="translate(1930 530) rotate(0 0 110)"><path d="M0 0 C0 36.67, 0 183.33, 0 220 M0 0 C0 36.67, 0 183.33, 0 220" stroke="#1e1e1e" stroke-width="4" fill="none"></path></g><g transform="translate(1930 530) rotate(0 0 110)"><path d="M-10.26 191.81 C-6.32 202.63, -2.39 213.45, 0 220 M-10.26 191.81 C-6.89 201.07, -3.52 210.33, 0 220" stroke="#1e1e1e" stroke-width="4" fill="none"></path></g><g transform="translate(1930 530) rotate(0 0 110)"><path d="M10.26 191.81 C6.32 202.63, 2.39 213.45, 0 220 M10.26 191.81 C6.89 201.07, 3.52 210.33, 0 220" stroke="#1e1e1e" stroke-width="4" fill="none"></path></g></g><mask></mask></svg>