<svg version="1.1" xmlns="http://www.w3.org/2000/svg" viewBox="0 0 1120 740" width="2240" height="1480">
  <!-- svg-source:excalidraw -->
  
  <defs>
    <style class="style-fonts">
      @font-face {
        font-family: "Virgil";
        src: url("https://excalidraw.com/Virgil.woff2");
      }
      @font-face {
        font-family: "Cascadia";
        src: url("https://excalidraw.com/Cascadia.woff2");
      }
    </style>
    
  </defs>
  <rect x="0" y="0" width="1120" height="740" fill="#ffffff"></rect><g stroke-linecap="round" transform="translate(10 10) rotate(0 550 360)"><path d="M32 0 C289.99 0, 547.98 0, 1068 0 C1089.33 0, 1100 10.67, 1100 32 C1100 275.65, 1100 519.29, 1100 688 C1100 709.33, 1089.33 720, 1068 720 C677.23 720, 286.45 720, 32 720 C10.67 720, 0 709.33, 0 688 C0 457.1, 0 226.2, 0 32 C0 10.67, 10.67 0, 32 0" stroke="none" stroke-width="0" fill="#ffffff"></path><path d="M32 0 C344.8 0, 657.6 0, 1068 0 M1068 0 C1089.33 0, 1100 10.67, 1100 32 M1100 32 C1100 240.11, 1100 448.21, 1100 688 M1100 688 C1100 709.33, 1089.33 720, 1068 720 M1068 720 C841.05 720, 614.11 720, 32 720 M32 720 C10.67 720, 0 709.33, 0 688 M0 688 C0 522.7, 0 357.4, 0 32 M0 32 C0 10.67, 10.67 0, 32 0" stroke="#1e1e1e" stroke-width="4.5" fill="none" stroke-dasharray="8 12"></path></g><g stroke-linecap="round" transform="translate(70 50) rotate(0 490 120)"><path d="M32 0 C389.54 0, 747.09 0, 948 0 C969.33 0, 980 10.67, 980 32 C980 85.62, 980 139.25, 980 208 C980 229.33, 969.33 240, 948 240 C650.24 240, 352.47 240, 32 240 C10.67 240, 0 229.33, 0 208 C0 165.95, 0 123.9, 0 32 C0 10.67, 10.67 0, 32 0" stroke="none" stroke-width="0" fill="#ebfbee"></path><path d="M32 0 C303.88 0, 575.75 0, 948 0 M32 0 C319.47 0, 606.95 0, 948 0 M948 0 C969.33 0, 980 10.67, 980 32 M948 0 C969.33 0, 980 10.67, 980 32 M980 32 C980 76.68, 980 121.37, 980 208 M980 32 C980 82.3, 980 132.6, 980 208 M980 208 C980 229.33, 969.33 240, 948 240 M980 208 C980 229.33, 969.33 240, 948 240 M948 240 C669.29 240, 390.58 240, 32 240 M948 240 C732.79 240, 517.57 240, 32 240 M32 240 C10.67 240, 0 229.33, 0 208 M32 240 C10.67 240, 0 229.33, 0 208 M0 208 C0 169.89, 0 131.78, 0 32 M0 208 C0 140.31, 0 72.63, 0 32 M0 32 C0 10.67, 10.67 0, 32 0 M0 32 C0 10.67, 10.67 0, 32 0" stroke="#1e1e1e" stroke-width="4" fill="none"></path></g><g stroke-linecap="round" transform="translate(110 90) rotate(0 110 50)"><path d="M25 0 C75.46 0, 125.92 0, 195 0 C211.67 0, 220 8.33, 220 25 C220 39.17, 220 53.35, 220 75 C220 91.67, 211.67 100, 195 100 C152.35 100, 109.71 100, 25 100 C8.33 100, 0 91.67, 0 75 C0 61.51, 0 48.03, 0 25 C0 8.33, 8.33 0, 25 0" stroke="none" stroke-width="0" fill="#b2f2bb"></path><path d="M25 0 C90.02 0, 155.05 0, 195 0 M25 0 C69.78 0, 114.56 0, 195 0 M195 0 C211.67 0, 220 8.33, 220 25 M195 0 C211.67 0, 220 8.33, 220 25 M220 25 C220 40.33, 220 55.65, 220 75 M220 25 C220 44, 220 62.99, 220 75 M220 75 C220 91.67, 211.67 100, 195 100 M220 75 C220 91.67, 211.67 100, 195 100 M195 100 C127.99 100, 60.99 100, 25 100 M195 100 C151.67 100, 108.34 100, 25 100 M25 100 C8.33 100, 0 91.67, 0 75 M25 100 C8.33 100, 0 91.67, 0 75 M0 75 C0 58.72, 0 42.44, 0 25 M0 75 C0 61.92, 0 48.84, 0 25 M0 25 C0 8.33, 8.33 0, 25 0 M0 25 C0 8.33, 8.33 0, 25 0" stroke="#2f9e44" stroke-width="4" fill="none"></path></g><g transform="translate(164 123.20000000000073) rotate(0 56 16.800000000000182)"><text x="56" y="0" font-family="Cascadia, Segoe UI Emoji" font-size="28px" fill="#1e1e1e" text-anchor="middle" style="white-space: pre;" direction="ltr" dominant-baseline="text-before-edge">用户管理</text></g><g stroke-linecap="round" transform="translate(450 90) rotate(0 110 50)"><path d="M25 0 C62.97 0, 100.94 0, 195 0 C211.67 0, 220 8.33, 220 25 C220 38.57, 220 52.13, 220 75 C220 91.67, 211.67 100, 195 100 C139.67 100, 84.34 100, 25 100 C8.33 100, 0 91.67, 0 75 C0 56.29, 0 37.58, 0 25 C0 8.33, 8.33 0, 25 0" stroke="none" stroke-width="0" fill="#b2f2bb"></path><path d="M25 0 C78 0, 131 0, 195 0 M25 0 C85.96 0, 146.93 0, 195 0 M195 0 C211.67 0, 220 8.33, 220 25 M195 0 C211.67 0, 220 8.33, 220 25 M220 25 C220 39.52, 220 54.04, 220 75 M220 25 C220 43.44, 220 61.89, 220 75 M220 75 C220 91.67, 211.67 100, 195 100 M220 75 C220 91.67, 211.67 100, 195 100 M195 100 C140.26 100, 85.52 100, 25 100 M195 100 C159.47 100, 123.95 100, 25 100 M25 100 C8.33 100, 0 91.67, 0 75 M25 100 C8.33 100, 0 91.67, 0 75 M0 75 C0 63.49, 0 51.98, 0 25 M0 75 C0 61.91, 0 48.82, 0 25 M0 25 C0 8.33, 8.33 0, 25 0 M0 25 C0 8.33, 8.33 0, 25 0" stroke="#2f9e44" stroke-width="4" fill="none"></path></g><g transform="translate(504 123.20000000000073) rotate(0 56 16.800000000000182)"><text x="56" y="0" font-family="Cascadia, Segoe UI Emoji" font-size="28px" fill="#1e1e1e" text-anchor="middle" style="white-space: pre;" direction="ltr" dominant-baseline="text-before-edge">商品管理</text></g><g stroke-linecap="round" transform="translate(770 90) rotate(0 110 50)"><path d="M25 0 C78.28 0, 131.55 0, 195 0 C211.67 0, 220 8.33, 220 25 C220 39.45, 220 53.89, 220 75 C220 91.67, 211.67 100, 195 100 C137.44 100, 79.87 100, 25 100 C8.33 100, 0 91.67, 0 75 C0 60.26, 0 45.52, 0 25 C0 8.33, 8.33 0, 25 0" stroke="none" stroke-width="0" fill="#b2f2bb"></path><path d="M25 0 C68.79 0, 112.57 0, 195 0 M25 0 C67.63 0, 110.26 0, 195 0 M195 0 C211.67 0, 220 8.33, 220 25 M195 0 C211.67 0, 220 8.33, 220 25 M220 25 C220 43.51, 220 62.02, 220 75 M220 25 C220 35.52, 220 46.05, 220 75 M220 75 C220 91.67, 211.67 100, 195 100 M220 75 C220 91.67, 211.67 100, 195 100 M195 100 C144.33 100, 93.67 100, 25 100 M195 100 C155.47 100, 115.94 100, 25 100 M25 100 C8.33 100, 0 91.67, 0 75 M25 100 C8.33 100, 0 91.67, 0 75 M0 75 C0 60.58, 0 46.16, 0 25 M0 75 C0 62.39, 0 49.78, 0 25 M0 25 C0 8.33, 8.33 0, 25 0 M0 25 C0 8.33, 8.33 0, 25 0" stroke="#2f9e44" stroke-width="4" fill="none"></path></g><g transform="translate(824 123.20000000000073) rotate(0 56 16.800000000000182)"><text x="56" y="0" font-family="Cascadia, Segoe UI Emoji" font-size="28px" fill="#1e1e1e" text-anchor="middle" style="white-space: pre;" direction="ltr" dominant-baseline="text-before-edge">订单管理</text></g><g transform="translate(450 230) rotate(0 108 21.600000000000364)"><text x="108" y="0" font-family="Cascadia, Segoe UI Emoji" font-size="36px" fill="#1e1e1e" text-anchor="middle" style="white-space: pre;" direction="ltr" dominant-baseline="text-before-edge">电商销售系统</text></g><g stroke-linecap="round"><g transform="translate(492.69176710551255 506.2281328787303) rotate(0 77.07932809809972 84.45323363257558)" fill-rule="evenodd"><path d="M-0.39 -0.5 C0.14 24.63, 2.75 124.38, 2.93 152.36 C3.11 180.34, -0.05 163.18, 0.69 167.35 C1.43 171.53, 1.69 174.47, 7.38 177.39 C13.06 180.31, 22.55 183.57, 34.8 184.9 C47.05 186.22, 65.27 185.93, 80.88 185.35 C96.5 184.77, 116.73 183.63, 128.48 181.42 C140.23 179.2, 147.18 174.72, 151.36 172.06 C155.55 169.41, 153 168.34, 153.6 165.5 C154.21 162.66, 154.57 180.52, 155 155.03 C155.44 129.54, 156.18 38.69, 156.22 12.57 C156.26 -13.55, 157.51 2.13, 155.24 -1.68 C152.96 -5.48, 147.68 -8.38, 142.58 -10.26 C137.49 -12.13, 135.72 -12.07, 124.67 -12.92 C113.62 -13.78, 90.61 -15.47, 76.29 -15.39 C61.97 -15.31, 50.11 -13.96, 38.75 -12.45 C27.39 -10.93, 14.27 -8.11, 8.11 -6.3 C1.96 -4.48, 3.48 -2.74, 1.82 -1.56 C0.15 -0.38, -1.57 0.62, -1.89 0.78" stroke="none" stroke-width="0" fill="#228be6" fill-rule="evenodd"></path><path d="M0.55 0.6 C0.58 25.95, 1.03 123.58, 0.82 151.75 C0.6 179.91, -1.95 165.58, -0.76 169.59 C0.44 173.61, 1.84 173.66, 7.98 175.86 C14.12 178.06, 23.79 181.24, 36.07 182.78 C48.35 184.32, 66.51 185.32, 81.67 185.11 C96.82 184.9, 115.5 183.44, 127.01 181.53 C138.53 179.63, 145.93 176.11, 150.74 173.67 C155.55 171.24, 155.28 170.26, 155.88 166.91 C156.47 163.57, 154.51 179.49, 154.29 153.61 C154.08 127.74, 154.76 37.37, 154.57 11.68 C154.38 -14.01, 154.74 2.69, 153.15 -0.52 C151.56 -3.73, 149.87 -5.73, 145.02 -7.56 C140.17 -9.4, 135.63 -10.17, 124.05 -11.52 C112.46 -12.88, 90.12 -15.11, 75.51 -15.68 C60.89 -16.24, 47.84 -16.41, 36.34 -14.92 C24.84 -13.42, 12.61 -9.11, 6.5 -6.71 C0.4 -4.31, 0.63 -1.7, -0.27 -0.54 C-1.18 0.62, 0.98 0.23, 1.07 0.26 M-0.63 -0.13 C-0.77 25.46, -0.36 125.37, 0.03 153.32 C0.42 181.28, 0.36 163.7, 1.73 167.6 C3.09 171.49, 2.71 174.08, 8.21 176.68 C13.72 179.29, 22.36 181.94, 34.74 183.21 C47.12 184.48, 67.05 184.8, 82.48 184.29 C97.9 183.79, 115.55 182.04, 127.29 180.18 C139.04 178.32, 148.37 175.04, 152.94 173.14 C157.51 171.24, 154.44 172.12, 154.7 168.77 C154.96 165.43, 154.49 179.17, 154.48 153.06 C154.47 126.95, 154.59 37.77, 154.65 12.11 C154.71 -13.55, 156.34 2.47, 154.85 -0.9 C153.35 -4.28, 150.85 -6.4, 145.67 -8.13 C140.5 -9.86, 135.41 -9.95, 123.79 -11.27 C112.17 -12.6, 90.41 -15.57, 75.96 -16.07 C61.51 -16.56, 48.89 -15.9, 37.09 -14.24 C25.3 -12.57, 11.63 -8.38, 5.17 -6.08 C-1.29 -3.77, -0.83 -1.53, -1.65 -0.41 C-2.47 0.72, -0.17 0.36, 0.25 0.65" stroke="#0a11d3" stroke-width="1" fill="none"></path></g></g><mask></mask><g stroke-linecap="round"><g transform="translate(493.9032745411532 621.3050833395646) rotate(0 77.82056665689561 7.924516096336447)"><path d="M0.05 0.01 C0.7 1.16, 0.35 4.9, 3.97 6.99 C7.59 9.08, 14.88 11.04, 21.78 12.57 C28.68 14.1, 35.32 15.51, 45.36 16.17 C55.4 16.83, 68.71 16.87, 82 16.55 C95.28 16.23, 113.72 15.99, 125.09 14.25 C136.46 12.5, 145.07 8.62, 150.19 6.09 C155.31 3.56, 154.92 0.23, 155.8 -0.92 M-0.16 -0.15 C0.54 0.93, 0.71 4.55, 4.35 6.7 C7.98 8.85, 14.81 11.13, 21.65 12.74 C28.5 14.35, 35.32 15.7, 45.42 16.35 C55.52 17, 68.95 17.02, 82.25 16.64 C95.56 16.26, 113.93 15.78, 125.26 14.08 C136.59 12.38, 145.15 8.95, 150.23 6.43 C155.3 3.91, 154.8 0.21, 155.71 -1.04" stroke="#0a11d3" stroke-width="1" fill="none"></path></g></g><mask></mask><g stroke-linecap="round"><g transform="translate(491.9755031981258 563.0103156485166) rotate(0 77.83606040803716 7.986751817602453)"><path d="M-0.13 0.11 C0.55 1.24, 0.44 4.7, 4.1 6.8 C7.76 8.89, 14.99 11.1, 21.83 12.67 C28.67 14.24, 35.09 15.59, 45.13 16.23 C55.17 16.86, 68.75 16.81, 82.07 16.47 C95.39 16.13, 113.67 15.93, 125.07 14.19 C136.47 12.45, 145.42 8.52, 150.48 6.02 C155.55 3.52, 154.62 0.34, 155.47 -0.82 M0.16 -0.01 C0.81 1.15, 0.35 4.85, 3.94 7 C7.53 9.15, 14.87 11.32, 21.73 12.89 C28.58 14.46, 34.97 15.83, 45.07 16.44 C55.18 17.05, 69.01 16.94, 82.37 16.54 C95.72 16.13, 113.94 15.69, 125.23 13.99 C136.51 12.29, 144.98 8.81, 150.07 6.33 C155.17 3.85, 154.84 0.27, 155.8 -0.9" stroke="#0a11d3" stroke-width="1" fill="none"></path></g></g><mask></mask><g stroke-linecap="round" transform="translate(490 492.0842247866294) rotate(0 77.24430072362156 15.622078688616966)"><path d="M85.05 0.07 C97.35 0.13, 111.88 1.49, 122.3 2.97 C132.72 4.46, 142.33 6.62, 147.59 8.97 C152.86 11.32, 155.16 14.42, 153.89 17.07 C152.62 19.72, 147.48 22.73, 139.96 24.87 C132.45 27.02, 120.51 28.9, 108.78 29.94 C97.05 30.98, 82.38 31.42, 69.58 31.12 C56.78 30.83, 42.44 29.68, 31.98 28.18 C21.52 26.68, 12.1 24.45, 6.81 22.13 C1.53 19.82, -1.05 16.89, 0.25 14.31 C1.55 11.74, 7.02 8.81, 14.6 6.69 C22.19 4.56, 33.84 2.72, 45.75 1.58 C57.67 0.44, 79.3 0.07, 86.08 -0.14 C92.85 -0.35, 86.56 0.06, 86.42 0.31 M68.13 -0.21 C80.18 -0.74, 96.36 0.25, 108.18 1.31 C119.99 2.37, 131.43 4.04, 139.01 6.14 C146.58 8.24, 152.05 11.26, 153.62 13.89 C155.18 16.51, 153.49 19.53, 148.42 21.89 C143.35 24.26, 133.51 26.48, 123.18 28.07 C112.84 29.67, 99.09 31.08, 86.4 31.46 C73.71 31.84, 58.89 31.46, 47.03 30.33 C35.18 29.2, 23.08 26.79, 15.27 24.69 C7.45 22.59, 1.67 20.31, 0.14 17.74 C-1.38 15.17, 0.99 11.75, 6.12 9.27 C11.25 6.79, 20.63 4.44, 30.93 2.88 C41.23 1.32, 61.59 0.32, 67.91 -0.08 C74.22 -0.48, 68.61 0.25, 68.82 0.49" stroke="none" stroke-width="0" fill="#fff"></path><path d="M79.5 -0.14 C91.76 -0.29, 106.79 0.72, 117.73 2.14 C128.66 3.56, 139.03 6.12, 145.12 8.4 C151.21 10.68, 154.64 13.27, 154.29 15.82 C153.93 18.37, 149.75 21.49, 142.99 23.71 C136.23 25.93, 125.07 27.86, 113.75 29.14 C102.43 30.42, 87.91 31.42, 75.1 31.41 C62.28 31.41, 47.8 30.5, 36.87 29.11 C25.93 27.73, 15.6 25.44, 9.47 23.1 C3.35 20.76, -0.19 17.69, 0.1 15.07 C0.39 12.45, 4.5 9.61, 11.23 7.4 C17.95 5.2, 29.01 3.03, 40.47 1.84 C51.92 0.65, 73.25 0.48, 79.95 0.24 C86.65 0, 80.71 0.17, 80.67 0.39 M83.91 0.16 C96.22 0.11, 110.78 1.03, 121.29 2.52 C131.8 4.01, 141.5 6.64, 146.96 9.09 C152.43 11.55, 155.15 14.65, 154.07 17.24 C152.99 19.82, 147.75 22.53, 140.47 24.61 C133.2 26.69, 122.01 28.68, 110.42 29.72 C98.83 30.77, 83.81 31.15, 70.93 30.88 C58.04 30.61, 43.69 29.52, 33.1 28.12 C22.5 26.72, 12.81 24.8, 7.36 22.5 C1.92 20.2, -0.64 16.98, 0.44 14.33 C1.53 11.67, 6.63 8.76, 13.88 6.57 C21.13 4.37, 32.29 2.25, 43.94 1.15 C55.58 0.05, 77.16 0.08, 83.76 -0.04 C90.37 -0.15, 83.66 0.15, 83.56 0.46" stroke="#0a11d3" stroke-width="1" fill="none"></path></g><g stroke-linecap="round" transform="translate(616.0392982770863 535.4002441531957) rotate(0 11.320892721449127 12.286634182176385)"><path d="M10.48 0.12 C12.81 -0.21, 16.03 0.95, 18.02 2.51 C20.01 4.06, 21.84 6.88, 22.42 9.43 C23.01 11.99, 22.62 15.51, 21.52 17.83 C20.41 20.15, 18.01 22.3, 15.8 23.35 C13.6 24.39, 10.59 24.78, 8.27 24.09 C5.95 23.4, 3.27 21.4, 1.89 19.19 C0.51 16.97, -0.23 13.46, 0 10.82 C0.24 8.18, 1.51 5.14, 3.28 3.36 C5.05 1.58, 9.43 0.63, 10.64 0.13 C11.86 -0.38, 10.56 0.14, 10.57 0.32 M10.77 -0.14 C13.13 -0.43, 16.41 0.85, 18.38 2.5 C20.35 4.15, 22.01 7.15, 22.57 9.75 C23.12 12.35, 22.86 15.8, 21.69 18.08 C20.51 20.36, 17.82 22.39, 15.53 23.44 C13.23 24.49, 10.27 25.14, 7.94 24.36 C5.62 23.58, 2.85 20.99, 1.56 18.76 C0.28 16.53, -0.1 13.59, 0.21 10.98 C0.52 8.37, 1.65 4.92, 3.44 3.09 C5.23 1.27, 9.77 0.54, 10.95 0.05 C12.12 -0.44, 10.6 -0.07, 10.52 0.14" stroke="none" stroke-width="0" fill="#fff"></path><path d="M10.18 -0.08 C12.44 -0.44, 15.65 0.82, 17.63 2.3 C19.61 3.77, 21.41 6.26, 22.08 8.76 C22.74 11.25, 22.61 14.85, 21.61 17.25 C20.61 19.65, 18.23 21.99, 16.06 23.17 C13.88 24.35, 10.86 24.93, 8.55 24.34 C6.24 23.75, 3.61 21.77, 2.22 19.62 C0.82 17.46, 0.01 14.08, 0.18 11.42 C0.35 8.75, 1.61 5.52, 3.27 3.62 C4.92 1.72, 8.92 0.59, 10.11 0.02 C11.29 -0.54, 10.35 0.01, 10.39 0.25 M11.54 0.2 C13.83 0.11, 16.86 1.27, 18.74 2.99 C20.62 4.71, 22.43 7.94, 22.82 10.52 C23.21 13.1, 22.41 16.21, 21.08 18.46 C19.76 20.72, 17.2 23.13, 14.87 24.05 C12.54 24.98, 9.37 24.98, 7.08 24.02 C4.79 23.05, 2.27 20.63, 1.14 18.27 C0.02 15.92, -0.19 12.5, 0.32 9.86 C0.83 7.23, 2.37 4.13, 4.22 2.44 C6.06 0.75, 10.19 0.06, 11.41 -0.28 C12.62 -0.62, 11.47 0.16, 11.52 0.41" stroke="#0a11d3" stroke-width="1" fill="none"></path></g><g stroke-linecap="round" transform="translate(616.0392982770863 589.3385220052241) rotate(0 11.320892721449127 12.286634182176385)"><path d="M12.1 0.19 C14.43 0.2, 17.51 1.71, 19.26 3.52 C21.01 5.34, 22.36 8.53, 22.59 11.1 C22.82 13.66, 21.95 16.77, 20.62 18.93 C19.28 21.1, 16.89 23.3, 14.57 24.07 C12.26 24.84, 8.97 24.65, 6.73 23.57 C4.48 22.48, 2.21 19.93, 1.12 17.55 C0.02 15.17, -0.44 11.8, 0.15 9.29 C0.73 6.78, 2.66 4.02, 4.63 2.49 C6.6 0.96, 10.69 0.47, 11.96 0.09 C13.23 -0.28, 12.24 0.07, 12.24 0.25 M11.59 0.07 C13.91 -0.01, 16.95 1.43, 18.8 3.16 C20.65 4.88, 22.37 7.88, 22.71 10.4 C23.05 12.92, 22.13 15.98, 20.86 18.27 C19.59 20.56, 17.37 23.24, 15.09 24.12 C12.81 25, 9.42 24.48, 7.18 23.56 C4.95 22.64, 2.86 20.85, 1.67 18.58 C0.48 16.31, -0.38 12.54, 0.06 9.93 C0.5 7.33, 2.46 4.61, 4.31 2.93 C6.15 1.25, 10.02 0.31, 11.13 -0.12 C12.25 -0.56, 10.94 0.08, 11 0.31" stroke="none" stroke-width="0" fill="#fff"></path><path d="M10.57 0.19 C12.83 -0.13, 15.96 0.69, 17.92 2.21 C19.87 3.74, 21.74 6.78, 22.3 9.34 C22.85 11.9, 22.34 15.19, 21.27 17.58 C20.19 19.98, 18.03 22.59, 15.85 23.7 C13.67 24.8, 10.5 24.98, 8.19 24.22 C5.89 23.45, 3.37 21.34, 2.03 19.11 C0.69 16.87, -0.09 13.43, 0.13 10.8 C0.35 8.18, 1.58 5.15, 3.34 3.35 C5.09 1.54, 9.44 0.47, 10.67 -0.01 C11.9 -0.5, 10.69 0.23, 10.71 0.45 M10.93 -0.06 C13.28 -0.31, 16.72 1.12, 18.64 2.73 C20.57 4.33, 22.06 7, 22.49 9.58 C22.92 12.17, 22.4 15.83, 21.21 18.23 C20.03 20.63, 17.66 23.01, 15.38 23.98 C13.1 24.95, 9.79 24.92, 7.52 24.04 C5.26 23.17, 3.03 21.03, 1.79 18.73 C0.55 16.44, -0.21 12.92, 0.09 10.27 C0.39 7.62, 1.81 4.52, 3.61 2.83 C5.42 1.15, 9.67 0.6, 10.93 0.16 C12.18 -0.27, 11.1 0.08, 11.14 0.23" stroke="#0a11d3" stroke-width="1" fill="none"></path></g><g stroke-linecap="round" transform="translate(616.0392982770863 647.9622632121682) rotate(0 11.320892721449127 12.286634182176385)"><path d="M11.93 0.14 C14.24 0.09, 17.24 1.66, 18.99 3.39 C20.73 5.12, 22.09 7.94, 22.42 10.52 C22.74 13.1, 22.23 16.63, 20.94 18.88 C19.65 21.13, 17.01 23.27, 14.68 24.03 C12.34 24.79, 9.19 24.48, 6.93 23.45 C4.67 22.42, 2.21 20.15, 1.11 17.87 C0 15.58, -0.24 12.27, 0.29 9.73 C0.81 7.19, 2.32 4.22, 4.26 2.6 C6.21 0.98, 10.7 0.39, 11.97 -0.02 C13.24 -0.42, 11.92 -0.05, 11.9 0.17 M10.93 0.33 C13.21 0.07, 16.5 1.24, 18.35 2.74 C20.21 4.25, 21.57 6.8, 22.06 9.37 C22.54 11.93, 22.38 15.82, 21.28 18.14 C20.18 20.46, 17.65 22.29, 15.47 23.3 C13.29 24.3, 10.46 24.92, 8.17 24.16 C5.89 23.4, 3.04 20.96, 1.74 18.74 C0.44 16.53, 0.09 13.44, 0.37 10.85 C0.65 8.26, 1.75 5, 3.43 3.2 C5.1 1.41, 9.17 0.56, 10.41 0.09 C11.66 -0.39, 10.88 0.15, 10.91 0.33" stroke="none" stroke-width="0" fill="#fff"></path><path d="M10.36 -0.16 C12.65 -0.54, 15.96 0.7, 17.92 2.24 C19.87 3.79, 21.51 6.51, 22.11 9.1 C22.72 11.69, 22.54 15.36, 21.53 17.78 C20.51 20.21, 18.23 22.59, 16.04 23.65 C13.85 24.71, 10.72 24.91, 8.38 24.15 C6.04 23.39, 3.43 21.28, 2.01 19.09 C0.59 16.9, -0.36 13.62, -0.13 11.01 C0.1 8.4, 1.62 5.24, 3.4 3.44 C5.17 1.64, 9.28 0.74, 10.51 0.22 C11.73 -0.31, 10.72 0.14, 10.73 0.31 M12.39 0.12 C14.72 0.1, 17.56 1.39, 19.25 3.22 C20.93 5.05, 22.27 8.39, 22.49 11.09 C22.72 13.79, 21.97 17.23, 20.6 19.41 C19.22 21.59, 16.52 23.49, 14.23 24.17 C11.94 24.86, 9.03 24.63, 6.85 23.51 C4.67 22.39, 2.25 19.86, 1.14 17.45 C0.02 15.04, -0.42 11.55, 0.16 9.07 C0.73 6.58, 2.57 4.04, 4.59 2.53 C6.6 1.02, 10.96 0.41, 12.23 0.01 C13.5 -0.39, 12.27 -0.03, 12.19 0.13" stroke="#0a11d3" stroke-width="1" fill="none"></path></g><g stroke-linecap="round"><g transform="translate(550 290) rotate(0 0 100)"><path d="M0 0 C0 33.33, 0 166.67, 0 200 M0 0 C0 33.33, 0 166.67, 0 200" stroke="#1e1e1e" stroke-width="4" fill="none"></path></g><g transform="translate(550 290) rotate(0 0 100)"><path d="M-10.26 171.81 C-7.08 180.56, -3.89 189.3, 0 200 M-10.26 171.81 C-7.2 180.21, -4.15 188.61, 0 200" stroke="#1e1e1e" stroke-width="4" fill="none"></path></g><g transform="translate(550 290) rotate(0 0 100)"><path d="M10.26 171.81 C7.08 180.56, 3.89 189.3, 0 200 M10.26 171.81 C7.2 180.21, 4.15 188.61, 0 200" stroke="#1e1e1e" stroke-width="4" fill="none"></path></g></g><mask></mask><g transform="translate(670 610) rotate(0 42 16.800000000000182)"><text x="42" y="0" font-family="Cascadia, Segoe UI Emoji" font-size="28px" fill="#1e1e1e" text-anchor="middle" style="white-space: pre;" direction="ltr" dominant-baseline="text-before-edge">数据库</text></g><g transform="translate(50 670) rotate(0 54 21.600000000000364)"><text x="54" y="0" font-family="Cascadia, Segoe UI Emoji" font-size="36px" fill="#1e1e1e" text-anchor="middle" style="white-space: pre;" direction="ltr" dominant-baseline="text-before-edge">服务器</text></g></svg>