<svg version="1.1" xmlns="http://www.w3.org/2000/svg" viewBox="0 0 887.1720431311651 837.6720498378634" width="1774.3440862623302" height="1675.3440996757267">
  <!-- svg-source:excalidraw -->
  
  <defs>
    <style class="style-fonts">
      @font-face {
        font-family: "Virgil";
        src: url("https://excalidraw.com/Virgil.woff2");
      }
      @font-face {
        font-family: "Cascadia";
        src: url("https://excalidraw.com/Cascadia.woff2");
      }
    </style>
    
  </defs>
  <rect x="0" y="0" width="887.1720431311651" height="837.6720498378634" fill="#ffffff"></rect><g stroke-linecap="round" transform="translate(10 10) rotate(0 433.58602156558254 408.8360249189317)"><path d="M32.95 0.05 L834.43 -1.64 L850.15 1.83 L858.66 8.99 L863.77 19.18 L865.69 31.67 L866.93 784.37 L866.25 800.19 L858.6 808.14 L849.07 813.75 L834.79 817.72 L33.75 819.06 L17.37 814.11 L9.45 809.62 L2.75 797.8 L-0.18 787.4 L-1.14 31.08 L3.73 17.17 L7.83 6.71 L16.08 1.17 L30.83 1.9" stroke="none" stroke-width="0" fill="#ffffff"></path><path d="M32 0 M32 0 C264.85 3.07, 498.01 3.42, 835.17 0 M32 0 C269.44 2.1, 506.63 2.4, 835.17 0 M835.17 0 C854.96 1.6, 867.24 10.88, 867.17 32 M835.17 0 C855.5 1.63, 869.1 9.4, 867.17 32 M867.17 32 C866.29 199.78, 865.44 368.02, 867.17 785.67 M867.17 32 C866.85 221.59, 866.6 412.13, 867.17 785.67 M867.17 785.67 C868.9 807.93, 858.08 816.02, 835.17 817.67 M867.17 785.67 C866.16 808.21, 857.18 819.6, 835.17 817.67 M835.17 817.67 C587.98 817.79, 339.45 817.11, 32 817.67 M835.17 817.67 C642.37 817.58, 449.45 817.97, 32 817.67 M32 817.67 C12.44 816.11, 1.46 807.84, 0 785.67 M32 817.67 C11.74 815.87, 1.11 806.31, 0 785.67 M0 785.67 C-3.2 572.48, -3.58 357.61, 0 32 M0 785.67 C-2.98 504.96, -2.84 224.51, 0 32 M0 32 C1.53 11.18, 9.2 -1.47, 32 0 M0 32 C0 11.93, 12.66 -1.78, 32 0" stroke="#1e1e1e" stroke-width="1" fill="none"></path></g><g stroke-linecap="round" transform="translate(211.63916956356752 112.44140056444303) rotate(0 241.17092926589066 231.36833844539592)"><path d="M279.97 3.54 C299.4 2.8, 319.6 12.27, 337.83 19.78 C356.06 27.28, 373.81 36.86, 389.36 48.55 C404.91 60.24, 418.92 74.67, 431.14 89.91 C443.37 105.14, 454.79 122.18, 462.71 139.93 C470.64 157.69, 475.5 177.49, 478.7 196.46 C481.9 215.43, 483.81 234.79, 481.93 253.78 C480.05 272.76, 474.52 292.38, 467.44 310.38 C460.37 328.38, 450.49 346.14, 439.48 361.77 C428.48 377.4, 416.23 391.58, 401.41 404.16 C386.59 416.73, 368.45 428.28, 350.55 437.22 C332.66 446.16, 313.54 453.58, 294.03 457.81 C274.53 462.05, 253.69 463.29, 233.52 462.62 C213.35 461.94, 192.35 458.96, 173.01 453.75 C153.67 448.53, 134.53 441.12, 117.49 431.31 C100.45 421.51, 84.65 408.79, 70.75 394.91 C56.85 381.04, 44.19 364.62, 34.07 348.06 C23.96 331.51, 15.83 313.94, 10.05 295.6 C4.27 277.26, -0.07 257.15, -0.62 238.02 C-1.16 218.89, 2.36 199.36, 6.77 180.81 C11.17 162.27, 16.77 144.02, 25.82 126.76 C34.88 109.5, 47.88 91.61, 61.09 77.24 C74.3 62.87, 88.53 51.22, 105.07 40.54 C121.61 29.87, 141.4 19.89, 160.33 13.2 C179.27 6.51, 196.8 1.66, 218.67 0.39 C240.54 -0.89, 277.48 3.43, 291.54 5.54 C305.61 7.66, 303.91 9.53, 303.05 13.07 M212.1 0.91 C230.54 -4.98, 252.08 -1.15, 271.98 1.66 C291.87 4.47, 312.89 10.62, 331.5 17.79 C350.11 24.96, 367.81 33.73, 383.64 44.68 C399.48 55.64, 414.06 68.91, 426.49 83.52 C438.92 98.13, 449.87 114.99, 458.23 132.36 C466.59 149.74, 472.52 169, 476.65 187.76 C480.79 206.51, 484.22 225.8, 483.03 244.87 C481.85 263.94, 476.05 283.72, 469.55 302.18 C463.05 320.65, 454.75 339.28, 444.05 355.65 C433.35 372.01, 420.05 387.35, 405.35 400.38 C390.65 413.41, 373.29 424.82, 355.88 433.82 C338.46 442.81, 320.19 449.75, 300.86 454.34 C281.53 458.94, 259.86 461.45, 239.9 461.38 C219.93 461.32, 200.47 458.57, 181.06 453.94 C161.65 449.3, 140.75 442.58, 123.43 433.55 C106.12 424.52, 91.57 412.7, 77.19 399.76 C62.81 386.83, 48.03 372.3, 37.14 355.96 C26.26 339.61, 18.01 320.26, 11.88 301.67 C5.76 283.08, 1.83 263.21, 0.39 244.4 C-1.04 225.59, -0.58 207.3, 3.26 188.82 C7.1 170.34, 14.56 150.95, 23.43 133.52 C32.3 116.09, 43.64 99.07, 56.5 84.25 C69.37 69.43, 84.55 55.76, 100.62 44.61 C116.68 33.46, 134.6 24.59, 152.88 17.35 C171.17 10.11, 200.38 3.14, 210.33 1.16 C220.28 -0.81, 211.94 1.63, 212.57 5.49" stroke="none" stroke-width="0" fill="#fff0f6"></path><path d="M149.98 16.24 C166.05 5.9, 188.24 4.46, 207.91 2.02 C227.58 -0.42, 247.9 -0.6, 268.01 1.61 C288.13 3.81, 309.87 8.32, 328.58 15.25 C347.3 22.18, 363.99 32.19, 380.28 43.19 C396.57 54.18, 413.42 66.52, 426.32 81.21 C439.22 95.9, 449.19 113.96, 457.66 131.33 C466.14 148.71, 473 166.66, 477.16 185.46 C481.32 204.25, 483.66 224.98, 482.62 244.1 C481.59 263.21, 476.88 281.89, 470.93 300.14 C464.98 318.39, 457.51 337.06, 446.93 353.59 C436.35 370.13, 421.92 385.96, 407.45 399.35 C392.98 412.74, 377.49 424.63, 360.1 433.93 C342.72 443.23, 322.46 450.34, 303.14 455.17 C283.83 460, 264.05 462.67, 244.22 462.91 C224.39 463.15, 203.58 461.11, 184.15 456.61 C164.72 452.11, 145.49 444.99, 127.62 435.91 C109.75 426.83, 91.75 415.32, 76.94 402.12 C62.14 388.92, 49.62 372.95, 38.8 356.7 C27.97 340.45, 18.41 322.61, 11.99 304.62 C5.57 286.63, 1.57 267.66, 0.28 248.76 C-1 229.85, 0.61 210.06, 4.27 191.19 C7.93 172.32, 13.92 153.02, 22.26 135.52 C30.59 118.01, 41.8 101.3, 54.29 86.15 C66.78 71.01, 80.35 56.47, 97.17 44.66 C114 32.84, 144.64 19.7, 155.23 15.28 C165.83 10.85, 159.25 14.53, 160.72 18.09 M314.49 10.5 C333.65 12.73, 352.92 26.45, 369.72 36.86 C386.53 47.27, 401.79 59.18, 415.32 72.96 C428.85 86.74, 440.83 102.68, 450.89 119.55 C460.96 136.42, 470.25 155.54, 475.69 174.19 C481.13 192.84, 483.78 212.56, 483.54 231.46 C483.29 250.35, 479.08 269.37, 474.2 287.54 C469.32 305.71, 463.57 323.6, 454.25 340.48 C444.94 357.35, 432.23 374.59, 418.31 388.8 C404.4 403, 387.83 415.55, 370.76 425.71 C353.69 435.87, 334.6 443.72, 315.91 449.73 C297.21 455.75, 278.36 460.45, 258.59 461.8 C238.82 463.14, 217.11 461.33, 197.28 457.79 C177.45 454.25, 157.57 448.64, 139.6 440.57 C121.63 432.5, 104.79 421.35, 89.44 409.38 C74.09 397.41, 59.67 384.02, 47.48 368.76 C35.3 353.51, 24.05 335.62, 16.32 317.86 C8.58 300.1, 3.36 281.35, 1.07 262.22 C-1.22 243.09, 0.23 222.43, 2.58 203.05 C4.92 183.67, 7.77 163.77, 15.14 145.94 C22.51 128.11, 34.78 111.24, 46.79 96.09 C58.8 80.94, 72.15 67.39, 87.18 55.03 C102.21 42.67, 119.21 30.21, 136.98 21.91 C154.75 13.61, 174.17 8.84, 193.8 5.23 C213.44 1.61, 234.66 -0.53, 254.78 0.21 C274.89 0.95, 304.57 6.97, 314.5 9.66 C324.42 12.36, 315.58 12.63, 314.3 16.38" stroke="#1e1e1e" stroke-width="1" fill="none"></path></g><g stroke-linecap="round" transform="translate(303.1926483188154 240.41156602483284) rotate(0 60.78100764738019 33.89496094551885)"><path d="M17.24 1.74 L104.12 0.82 L115.83 0.96 L119.48 7.65 L123.15 13.1 L122.58 50.55 L120.85 60.6 L111.18 67.44 L105.94 66.41 L16.6 67.68 L4.87 64.21 L3.32 60.32 L0.6 52.97 L1.17 13.39 L2.36 8.49 L5.52 2.04 L16.96 0.17" stroke="none" stroke-width="0" fill="#a5d8ff"></path><path d="M16.95 0 M16.95 0 C49.32 1.91, 83.12 1.1, 104.61 0 M16.95 0 C38.05 -1.4, 58.13 -1.24, 104.61 0 M104.61 0 C115.31 -0.14, 121.45 3.88, 121.56 16.95 M104.61 0 C114.15 0.67, 120.33 3.6, 121.56 16.95 M121.56 16.95 C122.15 25.82, 121.65 33.54, 121.56 50.84 M121.56 16.95 C121.33 23.13, 121.01 31.39, 121.56 50.84 M121.56 50.84 C121.91 62.24, 116.85 68.35, 104.61 67.79 M121.56 50.84 C122.23 63.69, 117.16 66.84, 104.61 67.79 M104.61 67.79 C70.25 68.19, 36.82 67.52, 16.95 67.79 M104.61 67.79 C80.68 68.38, 58.76 68.61, 16.95 67.79 M16.95 67.79 C5.94 66.31, -1.36 62.51, 0 50.84 M16.95 67.79 C5.59 66.02, -1.64 63.68, 0 50.84 M0 50.84 C-0.85 42.5, 2.01 29, 0 16.95 M0 50.84 C-0.42 41.34, 0.31 32.42, 0 16.95 M0 16.95 C1.01 6.59, 7.51 -1.39, 16.95 0 M0 16.95 C-1.55 6.54, 4.39 0.32, 16.95 0" stroke="#1e1e1e" stroke-width="1" fill="none"></path></g><g transform="translate(335.633812216196 262.80652697035157) rotate(0 28.33984375 11.5)"><text x="28.33984375" y="0" font-family="Helvetica, Segoe UI Emoji" font-size="20px" fill="#1e1e1e" text-anchor="middle" style="white-space: pre;" direction="ltr" dominant-baseline="text-before-edge">程序 4</text></g><g stroke-linecap="round" transform="translate(302.6017733614144 369.62281612378183) rotate(0 60.78100764738019 33.89496094551885)"><path d="M16.92 1.68 L104.23 -1.33 L113.15 2.78 L120.05 5.55 L121.13 11.46 L121.04 50.16 L118.58 60.88 L111.51 66.61 L103.54 67.69 L18.32 67.46 L8.51 66.27 L2.5 59.98 L-0.48 55.3 L-0.56 13.39 L1.82 5.27 L7.05 3.04 L15.28 -0.7" stroke="none" stroke-width="0" fill="#a5d8ff"></path><path d="M16.95 0 M16.95 0 C36.02 0.96, 53.19 0.59, 104.61 0 M16.95 0 C42.92 0.8, 68.7 -0.46, 104.61 0 M104.61 0 C116.14 -1.65, 120.9 4.96, 121.56 16.95 M104.61 0 C116.42 -0.66, 121.7 6.29, 121.56 16.95 M121.56 16.95 C119.88 28.1, 123.28 37.14, 121.56 50.84 M121.56 16.95 C122.14 29.95, 121.01 41.3, 121.56 50.84 M121.56 50.84 C120.49 63.5, 116.4 68.66, 104.61 67.79 M121.56 50.84 C119.67 60.21, 115.98 66.69, 104.61 67.79 M104.61 67.79 C82.13 65.76, 55.99 65.7, 16.95 67.79 M104.61 67.79 C70.81 66.91, 34.46 66.93, 16.95 67.79 M16.95 67.79 C4.85 69.73, 1.24 63.68, 0 50.84 M16.95 67.79 C6.96 65.62, 2.23 63.17, 0 50.84 M0 50.84 C-1.56 37.64, 1.41 28.49, 0 16.95 M0 50.84 C1.06 38.05, 0.78 26.95, 0 16.95 M0 16.95 C-1.96 3.9, 4.74 0.16, 16.95 0 M0 16.95 C-1.19 6.92, 4.26 0.78, 16.95 0" stroke="#1e1e1e" stroke-width="1" fill="none"></path></g><g transform="translate(335.04293725879506 392.0177770693008) rotate(0 28.33984375 11.5)"><text x="28.33984375" y="0" font-family="Helvetica, Segoe UI Emoji" font-size="20px" fill="#1e1e1e" text-anchor="middle" style="white-space: pre;" direction="ltr" dominant-baseline="text-before-edge">程序 2</text></g><g stroke-linecap="round" transform="translate(75.7898472444349 528.1058632756078) rotate(0 60.78100764738019 33.89496094551885)"><path d="M17.79 1.04 L104.05 -1.72 L116.33 2.36 L120.77 7.77 L122.64 12.64 L119.92 52.11 L117.82 59.88 L110.5 67.47 L104.89 66.99 L15.6 65.89 L6.85 66.08 L4.06 59.58 L1.83 52.97 L-1.37 12.13 L0.72 6.75 L8.15 2.7 L18.6 -1.46" stroke="none" stroke-width="0" fill="#a5d8ff"></path><path d="M16.95 0 M16.95 0 C42.33 0.11, 70.13 0.76, 104.61 0 M16.95 0 C51.07 -1.41, 85.3 -1.02, 104.61 0 M104.61 0 C114.37 1.11, 119.7 5.58, 121.56 16.95 M104.61 0 C117.18 -1.78, 121.02 6.95, 121.56 16.95 M121.56 16.95 C121.35 25.76, 122.09 31.39, 121.56 50.84 M121.56 16.95 C121.26 25.78, 120.62 34.41, 121.56 50.84 M121.56 50.84 C119.79 62.8, 114.15 68.79, 104.61 67.79 M121.56 50.84 C120.23 62.52, 114.91 66.97, 104.61 67.79 M104.61 67.79 C85.3 66.06, 65.46 67.88, 16.95 67.79 M104.61 67.79 C84.95 68.77, 66.95 68.51, 16.95 67.79 M16.95 67.79 C6.5 66.54, 1.5 64.12, 0 50.84 M16.95 67.79 C5.76 68.3, 1.23 61.65, 0 50.84 M0 50.84 C-0.57 42.79, 1.59 34.25, 0 16.95 M0 50.84 C0.08 40.43, 0.34 31.73, 0 16.95 M0 16.95 C-1.49 6.8, 6.33 0.36, 16.95 0 M0 16.95 C-1.11 5.93, 5.36 1.77, 16.95 0" stroke="#1e1e1e" stroke-width="1" fill="none"></path></g><g transform="translate(108.23101114181554 550.5008242211265) rotate(0 28.33984375 11.5)"><text x="28.33984375" y="0" font-family="Helvetica, Segoe UI Emoji" font-size="20px" fill="#1e1e1e" text-anchor="middle" style="white-space: pre;" direction="ltr" dominant-baseline="text-before-edge">程序 1</text></g><g stroke-linecap="round" transform="translate(235.01457844320976 664.3779455015012) rotate(0 60.78100764738019 33.89496094551885)"><path d="M16.29 -0.29 L105.1 1.64 L115.11 0.54 L117.5 6.77 L120.22 13.8 L123.42 49.54 L120.1 59.89 L111.71 66.01 L106.1 69.1 L18.32 67.13 L6.62 63.94 L1.97 62.97 L2.11 53.62 L0.23 14.04 L2.85 5.61 L5.83 3.36 L16.26 -1.56" stroke="none" stroke-width="0" fill="#a5d8ff"></path><path d="M16.95 0 M16.95 0 C40.08 -0.57, 62.85 0.86, 104.61 0 M16.95 0 C47.05 0.72, 77.32 0.21, 104.61 0 M104.61 0 C117.19 -1.87, 120.57 5.94, 121.56 16.95 M104.61 0 C116.22 -1.78, 121.35 5.02, 121.56 16.95 M121.56 16.95 C121.3 24.12, 123.12 33.75, 121.56 50.84 M121.56 16.95 C120.88 26.53, 122.36 36.52, 121.56 50.84 M121.56 50.84 C123.28 61.65, 117.88 68.94, 104.61 67.79 M121.56 50.84 C120.79 61.5, 114.36 69.23, 104.61 67.79 M104.61 67.79 C77.09 67.16, 47.82 68.04, 16.95 67.79 M104.61 67.79 C83.43 69.31, 63.09 69.28, 16.95 67.79 M16.95 67.79 C3.77 69.72, 1.52 61.42, 0 50.84 M16.95 67.79 C6.5 66.49, -1 59.98, 0 50.84 M0 50.84 C-1.7 41.55, -1.91 35.05, 0 16.95 M0 50.84 C-0.72 41.1, 0.03 32.02, 0 16.95 M0 16.95 C-1.17 7.01, 5.97 -0.29, 16.95 0 M0 16.95 C0.28 6.78, 4.42 2.01, 16.95 0" stroke="#1e1e1e" stroke-width="1" fill="none"></path></g><g transform="translate(267.4557423405895 686.77290644702) rotate(0 28.33984375 11.5)"><text x="28.33984375" y="0" font-family="Helvetica, Segoe UI Emoji" font-size="20px" fill="#1e1e1e" text-anchor="middle" style="white-space: pre;" direction="ltr" dominant-baseline="text-before-edge">程序 2</text></g><g stroke-linecap="round" transform="translate(665.3099951204995 599.1591949732167) rotate(0 60.78100764738019 33.89496094551885)"><path d="M16.18 -1.3 L105.99 0.58 L116.46 3.67 L119.95 5.24 L120.72 12.41 L121.54 52.44 L119.41 63.09 L112.32 64.81 L104.31 68.36 L17.38 66.44 L6.65 65.65 L0.99 63.09 L0.19 55.62 L-1.26 13.51 L2.92 5.8 L5.82 1.57 L16.44 -0.69" stroke="none" stroke-width="0" fill="#a5d8ff"></path><path d="M16.95 0 M16.95 0 C47.48 0.71, 81.11 0.89, 104.61 0 M16.95 0 C42.12 0.33, 67 0.13, 104.61 0 M104.61 0 C115.57 -1.61, 121.83 4.48, 121.56 16.95 M104.61 0 C114.89 0.65, 119.58 7.57, 121.56 16.95 M121.56 16.95 C119.7 28.73, 122.86 40.08, 121.56 50.84 M121.56 16.95 C122.32 30.2, 122.64 41.99, 121.56 50.84 M121.56 50.84 C121.75 61.21, 114.57 68.2, 104.61 67.79 M121.56 50.84 C121.09 64.22, 114.44 69.11, 104.61 67.79 M104.61 67.79 C77.28 68.27, 49.34 68.13, 16.95 67.79 M104.61 67.79 C76.16 67.46, 47.93 66.93, 16.95 67.79 M16.95 67.79 C6.29 65.89, 1.9 63.08, 0 50.84 M16.95 67.79 C6.39 68.15, 0.94 62.48, 0 50.84 M0 50.84 C1.05 39.89, 0.87 28.66, 0 16.95 M0 50.84 C-0.02 39.4, 0.03 26.61, 0 16.95 M0 16.95 C-0.26 6.22, 4.03 0.03, 16.95 0 M0 16.95 C-1.69 4.45, 6.65 0.09, 16.95 0" stroke="#1e1e1e" stroke-width="1" fill="none"></path></g><g transform="translate(697.7511590178801 621.5541559187357) rotate(0 28.33984375 11.5)"><text x="28.33984375" y="0" font-family="Helvetica, Segoe UI Emoji" font-size="20px" fill="#1e1e1e" text-anchor="middle" style="white-space: pre;" direction="ltr" dominant-baseline="text-before-edge">程序 4</text></g><g stroke-linecap="round" transform="translate(462.5088538833779 693.5409622274922) rotate(0 60.78100764738019 33.89496094551885)"><path d="M18.75 1.32 L106.01 -0.62 L115.65 1.45 L119.5 5.07 L122.59 14.32 L122.69 51.27 L118.9 59.44 L111.3 65.14 L102.83 66.22 L16.15 68.78 L5.63 64.3 L2.84 59.37 L-1.36 54.01 L-0.18 12.54 L3.01 5.96 L6.68 2.45 L17.03 1.79" stroke="none" stroke-width="0" fill="#a5d8ff"></path><path d="M16.95 0 M16.95 0 C38.58 -0.84, 59.02 -1.47, 104.61 0 M16.95 0 C43.24 0.1, 68.85 1.03, 104.61 0 M104.61 0 C115.8 -1.58, 122.6 6.57, 121.56 16.95 M104.61 0 C115.39 -0.18, 120.15 7.01, 121.56 16.95 M121.56 16.95 C119.87 30.04, 122.6 40.9, 121.56 50.84 M121.56 16.95 C121.23 26.63, 120.6 36.51, 121.56 50.84 M121.56 50.84 C121.46 62.63, 115.57 69.26, 104.61 67.79 M121.56 50.84 C122.21 60.5, 117.7 68.15, 104.61 67.79 M104.61 67.79 C69.6 68.34, 34.63 66.54, 16.95 67.79 M104.61 67.79 C77.18 67.95, 51.95 67.77, 16.95 67.79 M16.95 67.79 C7.16 68.45, -0.76 61.51, 0 50.84 M16.95 67.79 C5.1 65.86, 1.52 61.12, 0 50.84 M0 50.84 C-1.11 43.51, -1.44 31.8, 0 16.95 M0 50.84 C-0.21 37.78, -0.04 24.39, 0 16.95 M0 16.95 C-1.36 6.23, 7.16 -0.19, 16.95 0 M0 16.95 C0.88 3.38, 7.74 -1.77, 16.95 0" stroke="#1e1e1e" stroke-width="1" fill="none"></path></g><g transform="translate(494.95001778075857 715.9359231730109) rotate(0 28.33984375 11.5)"><text x="28.33984375" y="0" font-family="Helvetica, Segoe UI Emoji" font-size="20px" fill="#1e1e1e" text-anchor="middle" style="white-space: pre;" direction="ltr" dominant-baseline="text-before-edge">程序 3</text></g><g stroke-linecap="round"><g transform="translate(200.33096012776878 78.59588522205422) rotate(0 74.86022228916136 81.61503597285042)"><path d="M1.12 -0.24 C26.18 27.01, 124.66 137.14, 149.48 164.64 M0.24 -1.41 C25.23 26.01, 123.65 135.56, 148.55 162.93" stroke="#1e1e1e" stroke-width="1" fill="none"></path></g><g transform="translate(200.33096012776878 78.59588522205422) rotate(0 74.86022228916136 81.61503597285042)"><path d="M121.64 148.94 C129.46 152.8, 135.56 153.54, 150.16 164.63 M121.93 148.77 C128.86 152.8, 135.07 154.93, 147.83 162.45" stroke="#1e1e1e" stroke-width="1" fill="none"></path></g><g transform="translate(200.33096012776878 78.59588522205422) rotate(0 74.86022228916136 81.61503597285042)"><path d="M136.87 135.19 C141.39 142.28, 144.07 146.11, 150.16 164.63 M137.16 135.01 C140.69 142.07, 143.41 147.35, 147.83 162.45" stroke="#1e1e1e" stroke-width="1" fill="none"></path></g></g><mask></mask><g stroke-linecap="round"><g transform="translate(428.40869368487165 268.936734470449) rotate(0 147.21709971165137 163.40178331997777)"><path d="M0.93 -1.12 C49.83 53.66, 245.51 273.24, 294.47 327.93 M-0.03 0.9 C48.61 55.37, 244.52 271.4, 293.52 325.91" stroke="#1e1e1e" stroke-width="1" fill="none"></path></g><g transform="translate(428.40869368487165 268.936734470449) rotate(0 147.21709971165137 163.40178331997777)"><path d="M265.14 311.87 C277.6 317.47, 286.4 321.26, 292.85 327.85 M266.75 312.33 C276.26 317.84, 285.01 321.07, 293.27 325.07" stroke="#1e1e1e" stroke-width="1" fill="none"></path></g><g transform="translate(428.40869368487165 268.936734470449) rotate(0 147.21709971165137 163.40178331997777)"><path d="M280.37 298.12 C286.8 309.2, 289.66 318.35, 292.85 327.85 M281.98 298.57 C286.04 309, 289.34 317.15, 293.27 325.07" stroke="#1e1e1e" stroke-width="1" fill="none"></path></g></g><mask></mask><g stroke-linecap="round"><g transform="translate(281.4217492607386 661.1244248155567) rotate(0 46.69162337735679 -111.83165691878696)"><path d="M-1.05 0.87 C14.77 -36.16, 78.55 -185.43, 94.43 -222.78 M0.61 0.28 C16.39 -37.03, 78.43 -187.52, 93.98 -224.54" stroke="#1e1e1e" stroke-width="1" fill="none"></path></g><g transform="translate(281.4217492607386 661.1244248155567) rotate(0 46.69162337735679 -111.83165691878696)"><path d="M94.08 -192.99 C94.3 -201.07, 93.88 -208.95, 92.91 -226.53 M93.01 -194.83 C93.61 -201.07, 93.37 -207.04, 94.06 -223.95" stroke="#1e1e1e" stroke-width="1" fill="none"></path></g><g transform="translate(281.4217492607386 661.1244248155567) rotate(0 46.69162337735679 -111.83165691878696)"><path d="M75.14 -200.86 C80.25 -206.73, 84.77 -212.55, 92.91 -226.53 M74.06 -202.71 C78.46 -207.21, 82.01 -211.6, 94.06 -223.95" stroke="#1e1e1e" stroke-width="1" fill="none"></path></g></g><mask></mask><g stroke-linecap="round"><g transform="translate(511.140805999381 692.49271544114) rotate(0 -5.665008722219227 -60.92007739906467)"><path d="M0.26 0.22 C-1.6 -20.06, -8.86 -102.01, -10.34 -122.06 M-1.07 -0.71 C-3.21 -20.84, -10.3 -100.87, -11.59 -121.06" stroke="#1e1e1e" stroke-width="1" fill="none"></path></g><g transform="translate(511.140805999381 692.49271544114) rotate(0 -5.665008722219227 -60.92007739906467)"><path d="M1.2 -94.7 C-5.35 -101.87, -6.57 -115.33, -10.13 -119.94 M1.16 -94.41 C-2.47 -102.95, -6.39 -111.63, -10.92 -121.28" stroke="#1e1e1e" stroke-width="1" fill="none"></path></g><g transform="translate(511.140805999381 692.49271544114) rotate(0 -5.665008722219227 -60.92007739906467)"><path d="M-19.25 -93.1 C-18.27 -100.9, -11.94 -114.95, -10.13 -119.94 M-19.3 -92.8 C-16.58 -101.75, -14.15 -110.93, -10.92 -121.28" stroke="#1e1e1e" stroke-width="1" fill="none"></path></g></g><mask></mask><g transform="translate(533.8959434021144 214.21867113802318) rotate(0 42 16.100000000000023)"><text x="0" y="0" font-family="Helvetica, Segoe UI Emoji" font-size="28px" fill="#1e1e1e" text-anchor="start" style="white-space: pre;" direction="ltr" dominant-baseline="text-before-edge">协调者</text></g><g transform="translate(146.52335010035767 114.34948922433819) rotate(0 42 16.100000000000023)"><text x="0" y="0" font-family="Helvetica, Segoe UI Emoji" font-size="28px" fill="#1e1e1e" text-anchor="start" style="white-space: pre;" direction="ltr" dominant-baseline="text-before-edge">请求者</text></g><g transform="translate(304.32495263048895 616.1205957556817) rotate(0 51.1181640625 11.5)"><text x="0" y="0" font-family="Helvetica, Segoe UI Emoji" font-size="20px" fill="#1e1e1e" text-anchor="start" style="white-space: pre;" direction="ltr" dominant-baseline="text-before-edge">1. 请求授权</text></g><g transform="translate(520.3231253429676 629.8500808359208) rotate(0 51.1181640625 11.5)"><text x="0" y="0" font-family="Helvetica, Segoe UI Emoji" font-size="20px" fill="#1e1e1e" text-anchor="start" style="white-space: pre;" direction="ltr" dominant-baseline="text-before-edge">2. 释放授权</text></g><g transform="translate(665.3952253791249 505.411378727008) rotate(0 51.1181640625 11.5)"><text x="0" y="0" font-family="Helvetica, Segoe UI Emoji" font-size="20px" fill="#1e1e1e" text-anchor="start" style="white-space: pre;" direction="ltr" dominant-baseline="text-before-edge">3. 发放授权</text></g></svg>