<svg version="1.1" xmlns="http://www.w3.org/2000/svg" viewBox="0 0 896.6277687053353 465.0932482882172" width="1793.2555374106705" height="930.1864965764344">
  <!-- svg-source:excalidraw -->
  
  <defs>
    <style class="style-fonts">
      @font-face {
        font-family: "Virgil";
        src: url("https://excalidraw.com/Virgil.woff2");
      }
      @font-face {
        font-family: "Cascadia";
        src: url("https://excalidraw.com/Cascadia.woff2");
      }
    </style>
    
  </defs>
  <rect x="0" y="0" width="896.6277687053353" height="465.0932482882172" fill="#ffffff"></rect><g stroke-linecap="round" transform="translate(10 10) rotate(0 438.3138843526676 222.5466241441086)"><path d="M33.15 -1.05 L845.19 -1.99 L850.6 0.42 L866.09 5.69 L870.6 13.68 L875.47 16.07 L875.01 30.81 L878.56 412.1 L875.04 421.52 L870.54 433.98 L862.36 442.28 L860.58 442.7 L846.62 444.36 L32.67 444.22 L25.79 446.47 L13.66 439.01 L3.21 434.35 L0.49 426.08 L-1.71 414.28 L-1.82 31.37 L1.56 16.46 L6.24 9.15 L17.5 3.91 L31.14 -1.09" stroke="none" stroke-width="0" fill="#ffffff"></path><path d="M32 0 M32 0 C216.72 -3.48, 402.36 -2.28, 844.63 0 M32 0 C354.77 -2.03, 678.32 -2.08, 844.63 0 M844.63 0 C864.86 1.94, 877.14 12.53, 876.63 32 M844.63 0 C867.61 -1.44, 875.94 9.76, 876.63 32 M876.63 32 C878.73 135.26, 878.71 241.21, 876.63 413.09 M876.63 32 C875.61 121.33, 875.54 211.77, 876.63 413.09 M876.63 413.09 C877.15 433.12, 864.53 446.51, 844.63 445.09 M876.63 413.09 C877.64 433.55, 865.63 444.7, 844.63 445.09 M844.63 445.09 C670.78 444.44, 495.31 445.57, 32 445.09 M844.63 445.09 C557.97 448.2, 271.88 447.85, 32 445.09 M32 445.09 C9.22 445.3, -1.95 435.41, 0 413.09 M32 445.09 C9.71 446.26, -0.85 433.46, 0 413.09 M0 413.09 C-1.53 293.32, -1.01 173.21, 0 32 M0 413.09 C0.04 277.36, -0.23 141.41, 0 32 M0 32 C1.91 11.63, 10.06 1.62, 32 0 M0 32 C-1.74 11.33, 8.57 0.5, 32 0" stroke="#1e1e1e" stroke-width="1" fill="none"></path></g><g stroke-linecap="round" transform="translate(433.4413028539693 105.15446785016957) rotate(0 60.78100764738065 33.89496094551885)"><path d="M16.21 -0.84 L106.34 1.25 L115.98 3.96 L118.95 4.86 L121.94 13.46 L121.06 51.45 L119.57 61.08 L112.7 67.36 L102.65 67.69 L16.5 69.43 L7.43 63.96 L1.25 61.16 L-0.31 56.79 L2.06 12.03 L0.43 4.94 L8.62 1.64 L17.27 -0.24" stroke="none" stroke-width="0" fill="#a5d8ff"></path><path d="M16.95 0 M16.95 0 C50.75 1.46, 85.38 0.01, 104.61 0 M16.95 0 C37.81 -0.63, 58.71 -0.24, 104.61 0 M104.61 0 C116.07 1.21, 122.43 5.52, 121.56 16.95 M104.61 0 C116.73 -0.08, 123.57 7.14, 121.56 16.95 M121.56 16.95 C121.43 27.22, 120.09 34.83, 121.56 50.84 M121.56 16.95 C120.7 26.59, 121.94 36.23, 121.56 50.84 M121.56 50.84 C121.15 61.92, 116.99 68.24, 104.61 67.79 M121.56 50.84 C120.62 62.89, 118.09 68.66, 104.61 67.79 M104.61 67.79 C74.9 67.33, 49.51 68.03, 16.95 67.79 M104.61 67.79 C72.94 66.34, 42.38 66.67, 16.95 67.79 M16.95 67.79 C4.55 66.66, -1.06 61.01, 0 50.84 M16.95 67.79 C7.12 67.54, 0.52 60.83, 0 50.84 M0 50.84 C-0.17 38.33, 1.19 23.76, 0 16.95 M0 50.84 C0.65 38.66, -0.16 25.22, 0 16.95 M0 16.95 C-0.99 4.88, 4.48 1.56, 16.95 0 M0 16.95 C-1.04 5.89, 4.93 -0.25, 16.95 0" stroke="#1e1e1e" stroke-width="1" fill="none"></path></g><g transform="translate(465.88246675134906 127.5494287956883) rotate(0 28.33984375 11.5)"><text x="28.33984375" y="0" font-family="Helvetica, Segoe UI Emoji" font-size="20px" fill="#1e1e1e" text-anchor="middle" style="white-space: pre;" direction="ltr" dominant-baseline="text-before-edge">程序 1</text></g><g stroke-linecap="round" transform="translate(232.6377639832972 293.33454424179104) rotate(0 60.78100764737974 33.89496094551885)"><path d="M18.59 0.81 L103.16 -1.13 L114.93 1.81 L121.15 8.42 L120.35 11.02 L119.88 52.84 L118.43 61.49 L111.79 68.33 L104.64 67.15 L17.46 68.97 L8.47 65.14 L1.2 63 L0.5 54.31 L-0.79 12.03 L2.1 6.78 L7.83 3.25 L16.82 0.71" stroke="none" stroke-width="0" fill="#a5d8ff"></path><path d="M16.95 0 M16.95 0 C42.56 0.92, 69.56 -0.95, 104.61 0 M16.95 0 C46.36 0.28, 75.63 -0.3, 104.61 0 M104.61 0 C116.56 0.91, 122.84 5.23, 121.56 16.95 M104.61 0 C115.66 1.24, 122.08 4.71, 121.56 16.95 M121.56 16.95 C122.38 28.28, 122.49 38.25, 121.56 50.84 M121.56 16.95 C122.38 26.75, 121.26 33.9, 121.56 50.84 M121.56 50.84 C119.74 60.71, 114.74 66.69, 104.61 67.79 M121.56 50.84 C120.26 60.92, 114.61 69.27, 104.61 67.79 M104.61 67.79 C81.21 66.91, 53.16 67.06, 16.95 67.79 M104.61 67.79 C75.03 67.62, 44.38 68.32, 16.95 67.79 M16.95 67.79 C7.05 67.42, 0.28 61.15, 0 50.84 M16.95 67.79 C4.77 66.44, 1.79 61.1, 0 50.84 M0 50.84 C0.03 40.77, 0.8 29.66, 0 16.95 M0 50.84 C-0.84 43.32, -0.98 35.19, 0 16.95 M0 16.95 C-0.71 6.01, 7.22 -0.46, 16.95 0 M0 16.95 C0.7 5.6, 4.3 1.78, 16.95 0" stroke="#1e1e1e" stroke-width="1" fill="none"></path></g><g transform="translate(265.07892788067693 315.72950518731) rotate(0 28.33984375 11.5)"><text x="28.33984375" y="0" font-family="Helvetica, Segoe UI Emoji" font-size="20px" fill="#1e1e1e" text-anchor="middle" style="white-space: pre;" direction="ltr" dominant-baseline="text-before-edge">程序 2</text></g><g stroke-linecap="round" transform="translate(651.2046835981837 308.1088904569938) rotate(0 60.78100764738065 33.89496094551885)"><path d="M17.07 -1.86 L102.91 1.95 L113.91 3.84 L120.51 6.82 L122.45 12.36 L123.31 50.71 L118.3 59.22 L113 66.57 L104.39 68.4 L16.83 66.86 L5.12 66.67 L3.23 59.67 L1.4 54.06 L1.96 12.1 L4.38 7.43 L8.34 2.35 L18.8 1.23" stroke="none" stroke-width="0" fill="#a5d8ff"></path><path d="M16.95 0 M16.95 0 C40.76 -1.01, 67.45 -2.81, 104.61 0 M16.95 0 C46.79 -0.31, 77.83 1.2, 104.61 0 M104.61 0 C117.29 1.48, 121.34 5.13, 121.56 16.95 M104.61 0 C114.06 1.92, 119.7 4.36, 121.56 16.95 M121.56 16.95 C121.77 26.43, 122.56 34.5, 121.56 50.84 M121.56 16.95 C120.88 26.48, 122.2 36.89, 121.56 50.84 M121.56 50.84 C122.03 64.04, 114.74 67.85, 104.61 67.79 M121.56 50.84 C120.6 61.69, 115.22 65.51, 104.61 67.79 M104.61 67.79 C80.69 69.06, 58.55 66.43, 16.95 67.79 M104.61 67.79 C74.64 67.1, 44.08 66.07, 16.95 67.79 M16.95 67.79 C3.88 67.41, -1.85 61.35, 0 50.84 M16.95 67.79 C4.47 66.27, 2.24 62.8, 0 50.84 M0 50.84 C-0.13 40.85, 0.25 33.23, 0 16.95 M0 50.84 C1.12 43.12, -0.46 34.42, 0 16.95 M0 16.95 C-0.58 3.79, 3.95 -1.23, 16.95 0 M0 16.95 C0.44 5.5, 4.26 1.77, 16.95 0" stroke="#1e1e1e" stroke-width="1" fill="none"></path></g><g transform="translate(683.6458474955634 330.5038514025125) rotate(0 28.33984375 11.5)"><text x="28.33984375" y="0" font-family="Helvetica, Segoe UI Emoji" font-size="20px" fill="#1e1e1e" text-anchor="middle" style="white-space: pre;" direction="ltr" dominant-baseline="text-before-edge">程序 3</text></g><g mask="url(#mask-yPHbU1v4lsobsSvhySRsq)" stroke-linecap="round"><g transform="translate(454.5361041271135 102.4531331708497) rotate(0 44.23709574273198 -30.45674231965586)"><path d="M-0.4 0.55 C4.1 -9.84, 12.79 -61.42, 27.67 -61.16 C42.55 -60.9, 78.55 -8.29, 88.87 2.09 M1.6 -0.21 C6.43 -10.45, 15.64 -63.08, 30.04 -63 C44.44 -62.92, 77.99 -10.59, 88.01 0.27" stroke="#1e1e1e" stroke-width="1" fill="none"></path></g><g transform="translate(454.5361041271135 102.4531331708497) rotate(0 44.23709574273198 -30.45674231965586)"><path d="M63.58 -16.88 C72.73 -10.31, 82.53 -3.39, 88.01 1.34 M62.02 -16.09 C71.62 -11.42, 78.74 -4.64, 87.84 0.72" stroke="#1e1e1e" stroke-width="1" fill="none"></path></g><g transform="translate(454.5361041271135 102.4531331708497) rotate(0 44.23709574273198 -30.45674231965586)"><path d="M79.83 -29.41 C83.32 -18.43, 87.34 -7.05, 88.01 1.34 M78.27 -28.62 C82.54 -19.75, 84.32 -8.85, 87.84 0.72" stroke="#1e1e1e" stroke-width="1" fill="none"></path></g></g><mask id="mask-yPHbU1v4lsobsSvhySRsq"><rect x="0" y="0" fill="#fff" width="643.5961555766207" height="265.2275691134105"></rect><rect x="477.30035939231675" y="29.258502573116402" fill="#000" width="11.123046875" height="23" opacity="1"></rect></mask><g transform="translate(477.30035939231675 29.258502573116402) rotate(0 21.472840477528734 42.737888278077435)"><text x="5.5615234375" y="0" font-family="Helvetica, Segoe UI Emoji" font-size="20px" fill="#1e1e1e" text-anchor="middle" style="white-space: pre;" direction="ltr" dominant-baseline="text-before-edge">8</text></g><g mask="url(#mask-4xQsi_Id7zuTZ9DTyZOrP)" stroke-linecap="round"><g transform="translate(442.91386297094687 175.56455523524596) rotate(0 -62.93400800910513 57.59587318429902)"><path d="M-0.13 0.47 C-20.71 19.66, -103.95 95.3, -124.49 114.34 M-1.66 -0.33 C-22.36 19.07, -105.37 96.16, -125.74 115.52" stroke="#1e1e1e" stroke-width="1" fill="none"></path></g><g transform="translate(442.91386297094687 175.56455523524596) rotate(0 -62.93400800910513 57.59587318429902)"><path d="M-111.42 87.8 C-116.4 95.38, -118.73 100, -125.11 117.26 M-112.57 88.04 C-117.67 99.16, -122.57 108.36, -124.74 115.86" stroke="#1e1e1e" stroke-width="1" fill="none"></path></g><g transform="translate(442.91386297094687 175.56455523524596) rotate(0 -62.93400800910513 57.59587318429902)"><path d="M-97.38 102.77 C-105.29 107.11, -110.63 108.51, -125.11 117.26 M-98.53 103.01 C-108.65 108.77, -118.54 112.65, -124.74 115.86" stroke="#1e1e1e" stroke-width="1" fill="none"></path></g></g><mask id="mask-4xQsi_Id7zuTZ9DTyZOrP"><rect x="0" y="0" fill="#fff" width="666.8310820894367" height="390.5733802589082"></rect><rect x="375.39372997420287" y="221.56896774707707" fill="#000" width="11.123046875" height="23" opacity="1"></rect></mask><g transform="translate(375.39372997420287 221.56896774707707) rotate(0 4.586124987638868 11.591460672467917)"><text x="5.5615234375" y="0" font-family="Helvetica, Segoe UI Emoji" font-size="20px" fill="#1e1e1e" text-anchor="middle" style="white-space: pre;" direction="ltr" dominant-baseline="text-before-edge">8</text></g><g mask="url(#mask-bZd_OhH4ykuxLnCHwRt-e)" stroke-linecap="round"><g transform="translate(649.6894196558205 342.31325671527657) rotate(0 -146.88638131775588 -3.3331622635308804)"><path d="M0.93 -1.18 C-48.12 -2.15, -244.9 -4.83, -294.34 -5.83 M-0.04 0.82 C-49.15 -0.48, -245.27 -6.34, -294.7 -7.49" stroke="#1e1e1e" stroke-width="1" fill="none"></path></g><g transform="translate(649.6894196558205 342.31325671527657) rotate(0 -146.88638131775588 -3.3331622635308804)"><path d="M-268.2 -15.11 C-273.25 -14.36, -283.96 -11.74, -293.18 -5.54 M-266.27 -17.19 C-276.73 -13.44, -286 -11.14, -293.79 -7.52" stroke="#1e1e1e" stroke-width="1" fill="none"></path></g><g transform="translate(649.6894196558205 342.31325671527657) rotate(0 -146.88638131775588 -3.3331622635308804)"><path d="M-268.76 5.4 C-273.65 0.04, -284.18 -3.45, -293.18 -5.54 M-266.82 3.33 C-277.1 0.15, -286.17 -4.48, -293.79 -7.52" stroke="#1e1e1e" stroke-width="1" fill="none"></path></g></g><mask id="mask-bZd_OhH4ykuxLnCHwRt-e"><rect x="0" y="0" fill="#fff" width="1045.154740559119" height="449.0166500727689"></rect><rect x="490.83371232917125" y="327.4615600365305" fill="#000" width="22.24609375" height="23" opacity="1"></rect></mask><g transform="translate(490.83371232917125 327.4615600365305) rotate(0 11.969326008893404 11.518534415215186)"><text x="11.123046875" y="0" font-family="Helvetica, Segoe UI Emoji" font-size="20px" fill="#1e1e1e" text-anchor="middle" style="white-space: pre;" direction="ltr" dominant-baseline="text-before-edge">12</text></g><g mask="url(#mask-UCwg2ajkqP1DFJ7Fryr1H)" stroke-linecap="round"><g transform="translate(555.6866309088618 158.32350396617176) rotate(0 67.77869478778484 74.16343454419183)"><path d="M1.05 -1.11 C23.48 23.7, 112.91 124.34, 135.41 149.44 M0.15 0.92 C22.31 25.37, 111.74 123.43, 134.29 147.89" stroke="#1e1e1e" stroke-width="1" fill="none"></path></g><g transform="translate(555.6866309088618 158.32350396617176) rotate(0 67.77869478778484 74.16343454419183)"><path d="M105.83 133.48 C119.43 139.42, 129.3 144.97, 134.63 146.57 M108.37 133.19 C113.67 136.79, 119.65 141.49, 134.33 148.33" stroke="#1e1e1e" stroke-width="1" fill="none"></path></g><g transform="translate(555.6866309088618 158.32350396617176) rotate(0 67.77869478778484 74.16343454419183)"><path d="M120.96 119.62 C129.03 130.82, 133.3 141.5, 134.63 146.57 M123.5 119.33 C125.18 126.15, 127.57 134.14, 134.33 148.33" stroke="#1e1e1e" stroke-width="1" fill="none"></path></g></g><mask id="mask-UCwg2ajkqP1DFJ7Fryr1H"><rect x="0" y="0" fill="#fff" width="791.4315408730199" height="406.65817978706104"></rect><rect x="617.9975624534418" y="220.9908418766163" fill="#000" width="11.123046875" height="23" opacity="1"></rect></mask><g transform="translate(617.9975624534418 220.9908418766165) rotate(0 5.4677632432048995 11.496096633747186)"><text x="5.5615234375" y="0" font-family="Helvetica, Segoe UI Emoji" font-size="20px" fill="#1e1e1e" text-anchor="middle" style="white-space: pre;" direction="ltr" dominant-baseline="text-before-edge">8</text></g><g mask="url(#mask-HgtH36tAVm4o-UqXHRBbA)" stroke-linecap="round"><g transform="translate(726.7258863696661 302.833471032483) rotate(0 -84.90732545715764 -92.75608275735954)"><path d="M0.16 0.12 C-28.27 -31, -140.95 -154.68, -169.41 -185.63 M-1.21 -0.87 C-29.84 -31.34, -141.57 -153.97, -169.98 -184.61" stroke="#1e1e1e" stroke-width="1" fill="none"></path></g><g transform="translate(726.7258863696661 302.833471032483) rotate(0 -84.90732545715764 -92.75608275735954)"><path d="M-143.16 -169.57 C-155.68 -177.06, -166.1 -182, -169.12 -183.9 M-142.65 -171.35 C-150.98 -174.18, -158.34 -178.43, -170.07 -183.65" stroke="#1e1e1e" stroke-width="1" fill="none"></path></g><g transform="translate(726.7258863696661 302.833471032483) rotate(0 -84.90732545715764 -92.75608275735954)"><path d="M-158.27 -155.68 C-164.92 -168.7, -169.35 -179.15, -169.12 -183.9 M-157.76 -157.47 C-161.76 -164.32, -164.83 -172.51, -170.07 -183.65" stroke="#1e1e1e" stroke-width="1" fill="none"></path></g></g><mask id="mask-HgtH36tAVm4o-UqXHRBbA"><rect x="0" y="0" fill="#fff" width="996.8740635260019" height="587.4730181483867"></rect><rect x="630.5287509164991" y="199.013697474531" fill="#000" width="22.24609375" height="23" opacity="1"></rect></mask><g transform="translate(630.5287509164991 199.01369747453123) rotate(0 11.289809996009353 11.063690800592326)"><text x="11.123046875" y="0" font-family="Helvetica, Segoe UI Emoji" font-size="20px" fill="#1e1e1e" text-anchor="middle" style="white-space: pre;" direction="ltr" dominant-baseline="text-before-edge">12</text></g><g mask="url(#mask--Mq5fywetrx0Y_kcVnipp)" stroke-linecap="round"><g transform="translate(773.579449472687 310.42660429921125) rotate(0 33.65726271631229 29.159585474489745)"><path d="M-0.47 0.45 C10.48 5.72, 65.3 21.78, 65.48 31.48 C65.66 41.18, 11.62 54.35, 0.59 58.67 M1.48 -0.35 C12.83 5.07, 68.05 23.15, 67.79 32.69 C67.52 42.24, 11.36 52.62, -0.11 56.91" stroke="#1e1e1e" stroke-width="1" fill="none"></path></g><g transform="translate(773.579449472687 310.42660429921125) rotate(0 33.65726271631229 29.159585474489745)"><path d="M25.18 38.35 C16.45 44.61, 12.4 47.36, -0.37 57.87 M25.05 39.64 C18.51 44.2, 11.41 47.86, -0.67 57" stroke="#1e1e1e" stroke-width="1" fill="none"></path></g><g transform="translate(773.579449472687 310.42660429921125) rotate(0 33.65726271631229 29.159585474489745)"><path d="M30.54 58.16 C20.31 58.81, 14.75 55.97, -0.37 57.87 M30.41 59.45 C22.54 59.03, 14.09 57.68, -0.67 57" stroke="#1e1e1e" stroke-width="1" fill="none"></path></g></g><mask id="mask--Mq5fywetrx0Y_kcVnipp"><rect x="0" y="0" fill="#fff" width="939.8393632871575" height="467.99551845774636"></rect><rect x="828.7163164121575" y="331.0317017088123" fill="#000" width="22.24609375" height="23" opacity="1"></rect></mask><g transform="translate(828.7163164121575 331.0317017088123) rotate(0 -21.479604223158276 8.554488064888687)"><text x="11.123046875" y="0" font-family="Helvetica, Segoe UI Emoji" font-size="20px" fill="#1e1e1e" text-anchor="middle" style="white-space: pre;" direction="ltr" dominant-baseline="text-before-edge">12</text></g><g stroke-linecap="round" transform="translate(41.939868552238295 91.29938610684371) rotate(0 121.93558519474163 28)"><path d="M13.93 1.24 L231.97 -0.07 L240.95 2.03 L244.85 8.45 L244.6 44.69 L242.08 50.79 L235.46 54.41 L230.89 54.26 L9.26 53.81 L5.01 51.84 L-0.48 50.11 L1.88 13.85 L1.14 9.85 L3.41 3.1 L9.8 0.14 L12.37 1.85" stroke="none" stroke-width="0" fill="#a5d8ff"></path><path d="M14 0 M14 0 C58.49 2.26, 103.5 1.66, 229.87 0 M14 0 C82.3 0.33, 148.42 1.77, 229.87 0 M229.87 0 C239.67 -1.42, 245.18 3.72, 243.87 14 M229.87 0 C238.1 -0.31, 246.1 6.24, 243.87 14 M243.87 14 C242.94 21.7, 242.24 33.74, 243.87 42 M243.87 14 C243.18 24.82, 244.4 34.57, 243.87 42 M243.87 42 C243.97 50.69, 241.12 56.57, 229.87 56 M243.87 42 C243.46 50.99, 237.12 55.95, 229.87 56 M229.87 56 C165.31 56.68, 101.06 56.68, 14 56 M229.87 56 C144.69 56.46, 60.02 56.98, 14 56 M14 56 C4.4 54.98, 1.74 52.12, 0 42 M14 56 C6.91 55.92, 0.42 49.79, 0 42 M0 42 C-0.88 34.5, 1.82 26.91, 0 14 M0 42 C-0.07 35.48, 1.04 31.02, 0 14 M0 14 C-1.83 4.4, 4.57 1.94, 14 0 M0 14 C-2 3.35, 5.54 -1.98, 14 0" stroke="#1e1e1e" stroke-width="1" fill="none"></path></g><g transform="translate(66.52389124697947 110.09938610684367) rotate(0 97.3515625 9.199999999999989)"><text x="97.3515625" y="0" font-family="Helvetica, Segoe UI Emoji" font-size="16px" fill="#1e1e1e" text-anchor="middle" style="white-space: pre;" direction="ltr" dominant-baseline="text-before-edge">资源 A，程序 3，时间戳 12</text></g><g transform="translate(80.22995719581922 62.99988585279743) rotate(0 80.89453125 9.199999999999989)"><text x="0" y="0" font-family="Helvetica, Segoe UI Emoji" font-size="16px" fill="#1e1e1e" text-anchor="start" style="white-space: pre;" direction="ltr" dominant-baseline="text-before-edge">程序 1 维护的请求队列</text></g><g stroke-linecap="round" transform="translate(42.91814352725669 146.8481301879483) rotate(0 121.93558519474118 28)"><path d="M14.26 -1.77 L234.86 1.18 L240.35 5.07 L244.94 9.21 L244.52 44.76 L240.7 52.65 L236.14 56.68 L230.21 54.97 L9.78 57.63 L4 53.35 L1.74 49.04 L0.33 14.31 L1.76 7.6 L1.9 4.82 L8.33 2.65 L12.32 -0.65" stroke="none" stroke-width="0" fill="#a5d8ff"></path><path d="M14 0 M14 0 C88.15 2.69, 165.03 0.56, 229.87 0 M14 0 C95.53 -0.91, 178.21 -1.81, 229.87 0 M229.87 0 C239.81 0.08, 244.21 3.32, 243.87 14 M229.87 0 C239.06 0.44, 242.66 3.71, 243.87 14 M243.87 14 C244.09 23.31, 244.23 30.56, 243.87 42 M243.87 14 C243.84 25.22, 243.66 34.59, 243.87 42 M243.87 42 C244.94 51.48, 239.93 55.32, 229.87 56 M243.87 42 C242.36 49.88, 238.72 54.27, 229.87 56 M229.87 56 C182.33 57.38, 138.59 56.61, 14 56 M229.87 56 C181.01 55.66, 133.2 56.3, 14 56 M14 56 C3.85 54.21, -1.88 52.6, 0 42 M14 56 C4.56 56.74, 0.59 50.41, 0 42 M0 42 C1.03 32.39, -1.2 24.67, 0 14 M0 42 C-0.34 32.27, -0.81 22.13, 0 14 M0 14 C-1.22 4, 3.63 -0.69, 14 0 M0 14 C1.62 3.35, 6.79 -2.13, 14 0" stroke="#1e1e1e" stroke-width="1" fill="none"></path></g><g transform="translate(266.45310103544944 417.3103658645082) rotate(0 177.34765625 9.200000000000045)"><text x="0" y="0" font-family="Helvetica, Segoe UI Emoji" font-size="16px" fill="#1e1e1e" text-anchor="start" style="white-space: pre;" direction="ltr" dominant-baseline="text-before-edge">程序 1 和程序 3 差不多同一时间要访问共享资源 A</text></g></svg>