<svg version="1.1" xmlns="http://www.w3.org/2000/svg" viewBox="0 0 1020 500" width="1020" height="500">
  <!-- svg-source:excalidraw -->
  
  <defs>
    <style class="style-fonts">
      @font-face {
        font-family: "Virgil";
        src: url("https://excalidraw.com/Virgil.woff2");
      }
      @font-face {
        font-family: "Cascadia";
        src: url("https://excalidraw.com/Cascadia.woff2");
      }
    </style>
    
  </defs>
  <rect x="0" y="0" width="1020" height="500" fill="#f8f9fa"></rect><g stroke-linecap="round" transform="translate(10 10) rotate(0 500 240)"><path d="M30.93 -0.95 L968.29 -0.48 L975.13 1.06 L988.86 3.29 L997.34 13.13 L996.35 18.38 L1000.01 32.26 L1000.72 448.51 L997.6 454.91 L993.94 466.88 L987.11 474.51 L982.03 477.15 L969.57 478.96 L30.53 481.96 L25.05 479.62 L14.03 475.41 L3.13 465.84 L3.14 463.06 L1.44 446.41 L-0.02 31.46 L2.15 18.11 L9.24 9.12 L19.42 2.19 L30.62 -1.98" stroke="none" stroke-width="0" fill="#ffffff"></path><path d="M32 0 M32 0 C381.74 3.13, 732.71 3.57, 968 0 M32 0 C278.1 2.45, 524.34 2.77, 968 0 M968 0 C989.28 -1.63, 999.65 12.67, 1000 32 M968 0 C989.38 0, 998.33 8.56, 1000 32 M1000 32 C998.38 148, 996.91 266.06, 1000 448 M1000 32 C1001.14 137.82, 1001.71 243.83, 1000 448 M1000 448 C999.75 468.92, 988.59 479.41, 968 480 M1000 448 C998.42 471.47, 989.6 479.33, 968 480 M968 480 C698.5 479.18, 428.35 478.79, 32 480 M968 480 C660.44 479.92, 352.51 480.08, 32 480 M32 480 C11.41 480.22, -0.33 470.54, 0 448 M32 480 C11.88 480.26, -0.45 469.32, 0 448 M0 448 C2 330.4, 1.83 211.54, 0 32 M0 448 C-2.16 303.96, -2.09 161.07, 0 32 M0 32 C0.65 10.11, 9.68 -0.96, 32 0 M0 32 C1.87 11.12, 11.8 -2.28, 32 0" stroke="#1e1e1e" stroke-width="1" fill="none"></path></g><g stroke-linecap="round" transform="translate(50 130) rotate(0 121.66664123535156 92.77778625488281)"><path d="M32.39 -1.96 L209.21 1.92 L224.13 1.78 L235.67 6.97 L239.79 16.35 L246.71 28.74 L242.44 155.01 L240.22 164.34 L232.09 178.07 L224.32 183.98 L210.98 188.3 L28.04 186.28 L14.26 182.63 L10.67 176.06 L5.37 163.75 L3.75 155.88 L2.45 25.05 L4.39 4.51 L19.25 4.34 L29.98 -2.87" stroke="none" stroke-width="0" fill="#ffec99"></path><path d="M32 0 M32 0 C84.31 -2.05, 126.34 0.39, 211.33 0 M32 0 C87.66 -0.93, 147.16 -0.75, 211.33 0 M211.33 0 C230.57 0.44, 241.08 14.5, 243.33 32 M211.33 0 C229.8 1.65, 245.13 13.18, 243.33 32 M243.33 32 C243.22 70.15, 239.39 99.88, 243.33 153.56 M243.33 32 C245.96 69.83, 245.78 108.85, 243.33 153.56 M243.33 153.56 C246.33 172.82, 230.64 186.2, 211.33 185.56 M243.33 153.56 C238.74 170.9, 237.14 181.93, 211.33 185.56 M211.33 185.56 C153.46 184.45, 103.37 183.45, 32 185.56 M211.33 185.56 C170.78 184.43, 129.48 181.68, 32 185.56 M32 185.56 C10.66 187.37, 2.37 178.83, 0 153.56 M32 185.56 C9.62 183.6, 3.31 178.33, 0 153.56 M0 153.56 C-1.46 117.64, 1.14 75.99, 0 32 M0 153.56 C-1.44 115.53, -1.24 74.98, 0 32 M0 32 C1.16 12.25, 7.94 3.92, 32 0 M0 32 C-2.7 9.7, 11.17 0.85, 32 0" stroke="#f08c00" stroke-width="1" fill="none"></path></g><g stroke-linecap="round" transform="translate(164.44448852539062 181.11114501953125) rotate(0 46.5 15)"><path d="M6.6 -0.63 L86.98 0.34 L91.96 3.13 L90.75 24.91 L91.96 28.22 L86.83 30.38 L4.72 31.15 L-0.75 24.36 L-0.79 6.68 L2.21 0.51 L6.71 -0.57" stroke="none" stroke-width="0" fill="#a5d8ff"></path><path d="M7.5 0 M7.5 0 C33.97 0.1, 58.34 0.58, 85.5 0 M7.5 0 C35.74 1.16, 64.85 0.86, 85.5 0 M85.5 0 C90.03 0.08, 93.57 3.13, 93 7.5 M85.5 0 C92.66 1.57, 94.77 4, 93 7.5 M93 7.5 C93.99 12.29, 91.55 15.18, 93 22.5 M93 7.5 C93.49 12.45, 92.5 18.26, 93 22.5 M93 22.5 C92.55 25.84, 90.3 28.67, 85.5 30 M93 22.5 C93.74 27.81, 91.26 28.03, 85.5 30 M85.5 30 C60.25 30.3, 34.98 29.53, 7.5 30 M85.5 30 C65.68 30.81, 48.46 30.64, 7.5 30 M7.5 30 C3.25 28.32, -1.7 29.1, 0 22.5 M7.5 30 C4.06 30.22, -1.83 26.25, 0 22.5 M0 22.5 C-0.44 18.88, 1.52 14.99, 0 7.5 M0 22.5 C0.35 17.39, 0.54 11.82, 0 7.5 M0 7.5 C-0.75 3.51, 2.15 0.81, 7.5 0 M0 7.5 C0.96 0.32, 3.3 -1.22, 7.5 0" stroke="#1971c2" stroke-width="1" fill="none"></path></g><g transform="translate(186.94448852539062 186.11114501953125) rotate(0 24 10)"><text x="24" y="0" font-family="Virgil, Segoe UI Emoji" font-size="16px" fill="#1e1e1e" text-anchor="middle" style="white-space: pre;" direction="ltr" dominant-baseline="text-before-edge">序列化</text></g><g stroke-linecap="round" transform="translate(166.66661071777344 265.44439697265625) rotate(0 46.11109924316406 15)"><path d="M9.38 1.36 L89.54 1.77 L91.13 3.78 L93.6 27.14 L91.37 26.23 L84.22 31.47 L5.56 28.94 L1.51 24.04 L-1.59 6.31 L1.43 0.21 L7.3 -1.33" stroke="none" stroke-width="0" fill="#a5d8ff"></path><path d="M7.5 0 M7.5 0 C31.44 0.2, 59.42 1.37, 84.72 0 M7.5 0 C29.86 -0.51, 54.04 0.29, 84.72 0 M84.72 0 C87.91 1.25, 93.81 3.41, 92.22 7.5 M84.72 0 C90.58 -1.94, 90.27 4.34, 92.22 7.5 M92.22 7.5 C91.42 11.76, 90.74 17.95, 92.22 22.5 M92.22 7.5 C91.67 11.71, 92.28 14.84, 92.22 22.5 M92.22 22.5 C93.22 27.48, 91.21 28.72, 84.72 30 M92.22 22.5 C91.36 28.66, 89.32 30.93, 84.72 30 M84.72 30 C57.26 32.02, 33.39 28.41, 7.5 30 M84.72 30 C60.84 28.75, 38.04 29.54, 7.5 30 M7.5 30 C4.34 29.79, -1.75 28.19, 0 22.5 M7.5 30 C1.07 28.98, 1.06 28.04, 0 22.5 M0 22.5 C-0.64 16.11, 0.61 10.74, 0 7.5 M0 22.5 C-0.2 17.15, -0.5 13.27, 0 7.5 M0 7.5 C-1.9 1.8, 3.44 -0.43, 7.5 0 M0 7.5 C2.14 1.06, 0.23 1.4, 7.5 0" stroke="#1971c2" stroke-width="1" fill="none"></path></g><g transform="translate(180.7777099609375 270.44439697265625) rotate(0 32 10)"><text x="32" y="0" font-family="Virgil, Segoe UI Emoji" font-size="16px" fill="#1e1e1e" text-anchor="middle" style="white-space: pre;" direction="ltr" dominant-baseline="text-before-edge">反序列化</text></g><g transform="translate(71.11111450195312 191.66671752929688) rotate(0 24 10)"><text x="0" y="0" font-family="Virgil, Segoe UI Emoji" font-size="16px" fill="#1e1e1e" text-anchor="start" style="white-space: pre;" direction="ltr" dominant-baseline="text-before-edge">生产者</text></g><g transform="translate(66.66668701171875 272.7778015136719) rotate(0 24 10)"><text x="0" y="0" font-family="Virgil, Segoe UI Emoji" font-size="16px" fill="#1e1e1e" text-anchor="start" style="white-space: pre;" direction="ltr" dominant-baseline="text-before-edge">消费者</text></g><g stroke-linecap="round"><g transform="translate(330 170) rotate(0 90.13129402510825 -0.11292081291128397)"><path d="M-0.37 0.09 C29.86 0.1, 150.68 0.91, 180.63 0.9 M1.64 -0.91 C31.83 -1.29, 150.59 -1.13, 180.01 -0.75" stroke="#1e1e1e" stroke-width="1" fill="none"></path></g><g transform="translate(330 170) rotate(0 90.13129402510825 -0.11292081291128397)"><path d="M151.9 10.39 C159.99 5.86, 165.32 6.51, 179.16 -0.37 M151.82 9.52 C159.41 6.39, 165.97 3.56, 180.97 0.13" stroke="#1e1e1e" stroke-width="1" fill="none"></path></g><g transform="translate(330 170) rotate(0 90.13129402510825 -0.11292081291128397)"><path d="M152.02 -10.13 C160.22 -9.73, 165.52 -4.14, 179.16 -0.37 M151.95 -11 C159.31 -8.97, 165.85 -6.65, 180.97 0.13" stroke="#1e1e1e" stroke-width="1" fill="none"></path></g></g><mask></mask><g stroke-linecap="round"><g transform="translate(512.2222290039062 287.77777099609375) rotate(0 -90.24164048607463 1.312291714949538)"><path d="M1.07 0.8 C-29.03 1.02, -150.61 2.04, -181.16 2.44 M0.17 0.18 C-29.94 0.53, -151.02 0.24, -181.55 0.44" stroke="#1e1e1e" stroke-width="1" fill="none"></path></g><g transform="translate(512.2222290039062 287.77777099609375) rotate(0 -90.24164048607463 1.312291714949538)"><path d="M-152.04 -8.1 C-160.02 -7.05, -165.86 -4.1, -182.98 2.27 M-154.35 -9.97 C-162.77 -7.61, -171.71 -3.86, -182.44 -0.3" stroke="#1e1e1e" stroke-width="1" fill="none"></path></g><g transform="translate(512.2222290039062 287.77777099609375) rotate(0 -90.24164048607463 1.312291714949538)"><path d="M-152 12.42 C-160.19 8.29, -166.03 6.06, -182.98 2.27 M-154.32 10.55 C-162.82 6.53, -171.76 3.91, -182.44 -0.3" stroke="#1e1e1e" stroke-width="1" fill="none"></path></g></g><mask></mask><g transform="translate(350 150) rotate(0 48 10)"><text x="0" y="0" font-family="Virgil, Segoe UI Emoji" font-size="16px" fill="#1e1e1e" text-anchor="start" style="white-space: pre;" direction="ltr" dominant-baseline="text-before-edge">请求通信协议</text></g><g transform="translate(390 290) rotate(0 48 10)"><text x="0" y="0" font-family="Virgil, Segoe UI Emoji" font-size="16px" fill="#1e1e1e" text-anchor="start" style="white-space: pre;" direction="ltr" dominant-baseline="text-before-edge">返回通信协议</text></g><g stroke-linecap="round" transform="translate(545.5556030273438 34.4444580078125) rotate(0 206.11111450195312 214.44444274902344)"><path d="M31.59 0 L381.4 -1.59 L393.82 2.32 L403.26 8.68 L409.88 18.18 L413.91 30.17 L411.69 396.47 L411.76 410.78 L404.9 420.94 L396.22 426.29 L381.16 427.54 L31.42 429.67 L17.85 428.87 L9.17 421.51 L2.97 411.04 L-0.48 394.96 L1.84 32.83 L3.77 18.8 L7.99 7.2 L18.14 1.02 L30.87 -0.02" stroke="none" stroke-width="0" fill="#eaddd7"></path><path d="M32 0 M32 0 C168.52 -2.79, 305.38 -3.11, 380.22 0 M32 0 C123.65 -0.35, 216.98 -0.85, 380.22 0 M380.22 0 C401.82 -0.85, 410.53 11.32, 412.22 32 M380.22 0 C401.46 0.4, 413.17 10.41, 412.22 32 M412.22 32 C413.13 115.23, 411.96 197.25, 412.22 396.89 M412.22 32 C412.05 174.07, 411.86 317.89, 412.22 396.89 M412.22 396.89 C413.43 417.47, 402.64 430.06, 380.22 428.89 M412.22 396.89 C412.35 417.19, 400.03 428.66, 380.22 428.89 M380.22 428.89 C248.08 429.6, 116.05 429.88, 32 428.89 M380.22 428.89 C292.26 430.41, 203.4 431.48, 32 428.89 M32 428.89 C10.53 427.78, 1 419.05, 0 396.89 M32 428.89 C12.95 430.51, -0.62 416, 0 396.89 M0 396.89 C0.88 302.57, 2.23 208.75, 0 32 M0 396.89 C1.61 310.54, 1.87 223.03, 0 32 M0 32 C0.22 11.04, 11.15 0.11, 32 0 M0 32 C-0.41 10.4, 10.81 -1.29, 32 0" stroke="#846358" stroke-width="1" fill="none"></path></g><g transform="translate(726.666748046875 61.284655834753266) rotate(0 54.007286071777344 11.891015588482759)"><text x="0" y="0" font-family="Helvetica, Segoe UI Emoji" font-size="20.680027110404787px" fill="#1e1e1e" text-anchor="start" style="white-space: pre;" direction="ltr" dominant-baseline="text-before-edge">Broker 节点</text></g><g stroke-linecap="round" transform="translate(562.2222290039062 73.3333740234375) rotate(0 32.777801513671875 174.44444274902344)"><path d="M17.64 2 L55.12 2.57 L60.95 5.82 L63.79 13.59 L65.18 331.56 L63.65 340.97 L58.06 347.77 L51.78 346.93 L9.32 346.12 L4.51 345.65 L1.8 337.71 L-1.36 16.92 L0.09 9.85 L3.42 3.71 L9.26 0.12 L15.24 -1.58" stroke="none" stroke-width="0" fill="#99e9f2"></path><path d="M16.39 0 M16.39 0 C29.66 -0.19, 39.22 0.94, 49.17 0 M16.39 0 C22.38 -0.35, 30.83 -0.17, 49.17 0 M49.17 0 C61.84 1.46, 63.57 3.55, 65.56 16.39 M49.17 0 C62.3 0.09, 65.93 3.32, 65.56 16.39 M65.56 16.39 C68.56 117.51, 67.05 218.4, 65.56 332.5 M65.56 16.39 C64.56 113.51, 65.52 211.19, 65.56 332.5 M65.56 332.5 C64.55 343.75, 62.08 346.92, 49.17 348.89 M65.56 332.5 C66.27 341.88, 60.61 351.01, 49.17 348.89 M49.17 348.89 C35.08 350.18, 23.39 348.4, 16.39 348.89 M49.17 348.89 C40.6 348.83, 31.46 349.95, 16.39 348.89 M16.39 348.89 C4.96 348.2, -1.88 344.59, 0 332.5 M16.39 348.89 C4.34 348.2, 2.18 341.28, 0 332.5 M0 332.5 C-0.01 215.7, 1.35 101.31, 0 16.39 M0 332.5 C1.28 220.22, 1.99 109.18, 0 16.39 M0 16.39 C1.74 7.41, 6.49 -0.26, 16.39 0 M0 16.39 C-0.34 5.99, 6.61 -2.02, 16.39 0" stroke="#1971c2" stroke-width="1" fill="none"></path></g><g transform="translate(578.888916015625 125.03334350585936) rotate(0 14 112.69999999999999)"><text x="0" y="0" font-family="Helvetica, Segoe UI Emoji" font-size="28px" fill="#1e1e1e" text-anchor="start" style="white-space: pre;" direction="ltr" dominant-baseline="text-before-edge">网</text><text x="0" y="32.199999999999996" font-family="Helvetica, Segoe UI Emoji" font-size="28px" fill="#1e1e1e" text-anchor="start" style="white-space: pre;" direction="ltr" dominant-baseline="text-before-edge"></text><text x="0" y="64.39999999999999" font-family="Helvetica, Segoe UI Emoji" font-size="28px" fill="#1e1e1e" text-anchor="start" style="white-space: pre;" direction="ltr" dominant-baseline="text-before-edge">络</text><text x="0" y="96.6" font-family="Helvetica, Segoe UI Emoji" font-size="28px" fill="#1e1e1e" text-anchor="start" style="white-space: pre;" direction="ltr" dominant-baseline="text-before-edge"></text><text x="0" y="128.79999999999998" font-family="Helvetica, Segoe UI Emoji" font-size="28px" fill="#1e1e1e" text-anchor="start" style="white-space: pre;" direction="ltr" dominant-baseline="text-before-edge">模</text><text x="0" y="160.99999999999997" font-family="Helvetica, Segoe UI Emoji" font-size="28px" fill="#1e1e1e" text-anchor="start" style="white-space: pre;" direction="ltr" dominant-baseline="text-before-edge"></text><text x="0" y="193.2" font-family="Helvetica, Segoe UI Emoji" font-size="28px" fill="#1e1e1e" text-anchor="start" style="white-space: pre;" direction="ltr" dominant-baseline="text-before-edge">块</text></g><g stroke-linecap="round" transform="translate(649.4445877075195 152.61114501953125) rotate(0 46.5 15)"><path d="M6.03 0.11 L89.73 -0.65 L94.09 4.58 L92.38 24.08 L92.19 26.58 L85.74 29.47 L4.53 29.36 L0.58 24.61 L0.51 6.96 L2.3 3.25 L6.38 -0.17" stroke="none" stroke-width="0" fill="#a5d8ff"></path><path d="M7.5 0 M7.5 0 C28.41 1.62, 45.94 -0.72, 85.5 0 M7.5 0 C25.22 0.74, 43.11 0.86, 85.5 0 M85.5 0 C91.27 -1.59, 91.06 3.98, 93 7.5 M85.5 0 C89.1 -0.44, 92.37 4.26, 93 7.5 M93 7.5 C91.8 14.46, 92.13 20.08, 93 22.5 M93 7.5 C93.52 12.85, 93.51 18.81, 93 22.5 M93 22.5 C94.96 25.7, 88.58 29.53, 85.5 30 M93 22.5 C94.88 25.93, 90.72 31.21, 85.5 30 M85.5 30 C59.53 31.31, 30.72 31.56, 7.5 30 M85.5 30 C57.06 29.38, 30.61 29.55, 7.5 30 M7.5 30 C1.59 30.66, 0.77 28.48, 0 22.5 M7.5 30 C3.82 28.23, -1.85 28.6, 0 22.5 M0 22.5 C0.36 18.08, -1.12 14.55, 0 7.5 M0 22.5 C0.19 18.66, 0.38 14.4, 0 7.5 M0 7.5 C1.43 4.14, 3.72 -1.52, 7.5 0 M0 7.5 C-0.65 0.65, 0.65 -1.19, 7.5 0" stroke="#1971c2" stroke-width="1" fill="none"></path></g><g transform="translate(671.9445877075195 157.61114501953125) rotate(0 24 10)"><text x="24" y="0" font-family="Virgil, Segoe UI Emoji" font-size="16px" fill="#1e1e1e" text-anchor="middle" style="white-space: pre;" direction="ltr" dominant-baseline="text-before-edge">序列化</text></g><g stroke-linecap="round" transform="translate(651.6667098999023 238.05551147460938) rotate(0 46.11109924316406 15)"><path d="M9.06 0.36 L87.86 -1.23 L92.82 2.67 L92 25.25 L90.65 27.96 L84.84 28.83 L4.73 28.99 L0.89 27.16 L-1.12 7.33 L0.98 0.5 L6.07 0.99" stroke="none" stroke-width="0" fill="#a5d8ff"></path><path d="M7.5 0 M7.5 0 C33.24 0.64, 61.93 0.92, 84.72 0 M7.5 0 C36.54 -1.44, 63.83 0.1, 84.72 0 M84.72 0 C88.5 -0.38, 91.68 4.03, 92.22 7.5 M84.72 0 C91.41 -1.46, 91.24 0.81, 92.22 7.5 M92.22 7.5 C93.43 13.92, 91.44 20.14, 92.22 22.5 M92.22 7.5 C93.05 10.45, 91.59 14.58, 92.22 22.5 M92.22 22.5 C93.86 26.13, 89.91 31.05, 84.72 30 M92.22 22.5 C93.2 26.92, 90.15 30.87, 84.72 30 M84.72 30 C58.1 29.65, 27.97 28.63, 7.5 30 M84.72 30 C61.65 30.41, 39.86 30.57, 7.5 30 M7.5 30 C3.65 28.46, -1.61 28.45, 0 22.5 M7.5 30 C1.24 32.04, 1.63 28.26, 0 22.5 M0 22.5 C-0.51 17.28, -0.83 15.07, 0 7.5 M0 22.5 C0.49 18.52, 0.41 12.73, 0 7.5 M0 7.5 C-0.57 0.89, 0.89 -1.04, 7.5 0 M0 7.5 C-0.73 2.01, 3.2 0.36, 7.5 0" stroke="#1971c2" stroke-width="1" fill="none"></path></g><g transform="translate(665.7778091430664 243.05551147460938) rotate(0 32 10)"><text x="32" y="0" font-family="Virgil, Segoe UI Emoji" font-size="16px" fill="#1e1e1e" text-anchor="middle" style="white-space: pre;" direction="ltr" dominant-baseline="text-before-edge">反序列化</text></g><g stroke-linecap="round" transform="translate(647.77783203125 313.3334045410156) rotate(0 147.77777099609375 56.666656494140625)"><path d="M29.87 -1 L265.26 1.85 L278.48 2.61 L289.59 8.17 L290.53 12.52 L293.61 20.3 L294.32 86.1 L292.4 98.8 L293.29 100.28 L283.92 108.79 L279.43 109.94 L265.68 112.98 L27.88 111.7 L14.65 111.48 L7.07 104.35 L0.53 96.52 L-0.86 91.34 L-0.86 20.8 L5.78 12.3 L9.22 2.64 L23.61 -0.83 L26.6 -0.44" stroke="none" stroke-width="0" fill="#ffc9c9"></path><path d="M28.33 0 M28.33 0 C103.34 0.64, 177.09 0.92, 267.22 0 M28.33 0 C92 0.5, 155.56 0.26, 267.22 0 M267.22 0 C284.25 0.06, 297.05 10.34, 295.56 28.33 M267.22 0 C286.72 -2.03, 294.35 10.9, 295.56 28.33 M295.56 28.33 C296.21 42.07, 295.34 54.77, 295.56 85 M295.56 28.33 C296.21 45.96, 295.4 62.2, 295.56 85 M295.56 85 C293.71 104.09, 287.45 113.11, 267.22 113.33 M295.56 85 C297.55 105.04, 287.3 112.95, 267.22 113.33 M267.22 113.33 C203.54 111.09, 137.13 113.21, 28.33 113.33 M267.22 113.33 C191.14 113.69, 113.44 113.46, 28.33 113.33 M28.33 113.33 C9.27 115.11, 0.66 105.17, 0 85 M28.33 113.33 C10.97 113.37, -1.24 106.17, 0 85 M0 85 C0.58 70.47, 1.5 54.62, 0 28.33 M0 85 C-0.19 65.55, 0.12 46.88, 0 28.33 M0 28.33 C-0.15 9.89, 10.57 1.97, 28.33 0 M0 28.33 C-0.33 9.41, 9 -2.15, 28.33 0" stroke="#e03131" stroke-width="1" fill="none"></path></g><g transform="translate(753.5556030273438 353.9000610351562) rotate(0 42 16.099999999999994)"><text x="42" y="0" font-family="Helvetica, Segoe UI Emoji" font-size="28px" fill="#1e1e1e" text-anchor="middle" style="white-space: pre;" direction="ltr" dominant-baseline="text-before-edge">存储层</text></g><g stroke-linecap="round" transform="translate(758.8890380859375 135.55560302734375) rotate(0 95 75)"><path d="M119.6 17.81 L176.1 67.37 L181.43 72.19 L184.4 76.54 L173.56 89.01 L108.84 139.77 L102.42 145.47 L90.23 142.38 L80.3 136.28 L17.76 86.8 L8.21 80.54 L5.25 75.1 L14.64 64.75 L89.7 6.6 L97.58 6.14 L99.09 5.07 L119.75 20.44" stroke="none" stroke-width="0" fill="#ced4da"></path><path d="M120 19 M120 19 C132.32 27.82, 145.12 36.38, 166 57 M120 19 C135.6 30.42, 149.47 44.03, 166 57 M166 57 C189.85 75.53, 188.65 74.87, 166 95 M166 57 C188.2 77.67, 188.32 73.95, 166 95 M166 95 C152.11 104.84, 137.95 116.94, 120 131 M166 95 C155.88 102.1, 147.53 109.46, 120 131 M120 131 C97.75 148.47, 94.99 148.49, 72 131 M120 131 C95.47 148.35, 95.17 148.49, 72 131 M72 131 C62.46 123.15, 52.23 117.23, 24 95 M72 131 C58.84 121.61, 45.63 111.46, 24 95 M24 95 C0.56 76.38, 1.75 74.75, 24 57 M24 95 C-0.18 75.14, -1.49 74.24, 24 57 M24 57 C34.32 46.33, 45.5 40.77, 72 19 M24 57 C39.41 44.03, 55.07 31.42, 72 19 M72 19 C95.8 0.86, 97.47 -0.94, 120 19 M72 19 C96.8 -0.08, 94.61 -2.05, 120 19" stroke="#1e1e1e" stroke-width="1" fill="none"></path></g><g transform="translate(823.8890380859375 199.05560302734375) rotate(0 30 11.5)"><text x="30" y="0" font-family="Helvetica, Segoe UI Emoji" font-size="20px" fill="#1e1e1e" text-anchor="middle" style="white-space: pre;" direction="ltr" dominant-baseline="text-before-edge">逻辑层</text></g><g transform="translate(130 130) rotate(0 38.67578125 9.200000000000003)"><text x="0" y="0" font-family="Helvetica, Segoe UI Emoji" font-size="16px" fill="#1e1e1e" text-anchor="start" style="white-space: pre;" direction="ltr" dominant-baseline="text-before-edge">Client 节点</text></g></svg>