<svg version="1.1" xmlns="http://www.w3.org/2000/svg" viewBox="0 0 1757.5886797454395 885.9227087450047" width="3515.177359490879" height="1771.8454174900094">
  <!-- svg-source:excalidraw -->
  
  <defs>
    <style class="style-fonts">
      @font-face {
        font-family: "Virgil";
        src: url("https://excalidraw.com/Virgil.woff2");
      }
      @font-face {
        font-family: "Cascadia";
        src: url("https://excalidraw.com/Cascadia.woff2");
      }
    </style>
    
  </defs>
  <rect x="0" y="0" width="1757.5886797454395" height="885.9227087450047" fill="#ffffff"></rect><g stroke-linecap="round" transform="translate(10 10) rotate(0 868.7943398727198 432.96135437250234)"><path d="M7.86 8.16 C7.86 8.16, 7.86 8.16, 7.86 8.16 M7.86 8.16 C7.86 8.16, 7.86 8.16, 7.86 8.16 M6.68 21.71 C9.94 17.03, 11.93 13.2, 21.12 5.11 M6.68 21.71 C12.79 17.26, 17.75 12.78, 21.12 5.11 M4.85 36.01 C16.24 26.34, 17.74 21.32, 34.37 2.05 M4.85 36.01 C12.27 28.48, 19.05 15.9, 34.37 2.05 M4.98 48.06 C20.78 29.67, 30.98 12.93, 45 2.02 M4.98 48.06 C19.79 29.17, 38.06 10.61, 45 2.02 M4.46 60.85 C21.28 35.13, 41.35 17.64, 55.63 1.98 M4.46 60.85 C19.2 44.88, 31.26 28.83, 55.63 1.98 M4.59 72.89 C26.48 49.67, 42.96 32.94, 66.26 1.95 M4.59 72.89 C20.35 58.42, 34.15 38, 66.26 1.95 M4.72 84.93 C19.2 65.5, 31.51 54.31, 76.89 1.91 M4.72 84.93 C27.49 61.42, 49.43 37.57, 76.89 1.91 M4.86 96.97 C32.63 69.5, 54.58 47.64, 87.52 1.88 M4.86 96.97 C35.13 65.64, 63.31 30.63, 87.52 1.88 M4.99 109.01 C35.22 76.11, 67.35 38.98, 98.15 1.85 M4.99 109.01 C34.73 75.61, 63.1 39.66, 98.15 1.85 M4.47 121.81 C25.25 94.4, 48.96 74.41, 108.78 1.81 M4.47 121.81 C39.08 79.93, 76.1 40.94, 108.78 1.81 M4.6 133.85 C28.54 106.27, 53.56 72.2, 119.41 1.78 M4.6 133.85 C46.2 82.63, 89.4 33.06, 119.41 1.78 M4.73 145.89 C52.49 91.65, 98.75 36.19, 130.04 1.74 M4.73 145.89 C42.75 100.62, 81.85 56.83, 130.04 1.74 M4.87 157.93 C53.95 101.99, 96.08 50.71, 140.67 1.71 M4.87 157.93 C55.47 100.01, 102.9 44.33, 140.67 1.71 M5 169.97 C34.42 130.22, 73.61 86.33, 150.65 2.43 M5 169.97 C43.1 123.7, 83.2 76.12, 150.65 2.43 M4.48 182.77 C65.88 109.63, 132.46 40.45, 161.28 2.39 M4.48 182.77 C47.08 137.47, 87.73 92.25, 161.28 2.39 M4.61 194.81 C69.32 122.48, 131.56 50.08, 171.91 2.36 M4.61 194.81 C60.82 127.6, 116.39 62.88, 171.91 2.36 M4.74 206.85 C59 144.94, 109.58 88.86, 182.54 2.32 M4.74 206.85 C72.55 123.71, 144.12 41.06, 182.54 2.32 M4.88 218.89 C52.04 164.93, 99.1 113.08, 193.17 2.29 M4.88 218.89 C56.7 153.95, 114.52 89.86, 193.17 2.29 M5.01 230.93 C47.83 177.96, 89.6 129.02, 203.8 2.26 M5.01 230.93 C54.3 166.93, 107.88 105.58, 203.8 2.26 M4.49 243.73 C82.13 153.92, 157.93 63.15, 214.43 2.22 M4.49 243.73 C54.98 181.8, 106.03 121.24, 214.43 2.22 M4.62 255.77 C71.91 176.05, 138.26 97.01, 225.06 2.19 M4.62 255.77 C77.14 179.29, 144.75 98.34, 225.06 2.19 M4.75 267.81 C81.35 175.81, 159.68 81.3, 235.69 2.15 M4.75 267.81 C47.82 216.36, 95.08 163.89, 235.69 2.15 M4.89 279.85 C53.63 223.03, 103.84 162.65, 246.32 2.12 M4.89 279.85 C78.76 195.34, 152.94 108.51, 246.32 2.12 M5.02 291.89 C72.41 212.45, 143.33 134.65, 256.95 2.08 M5.02 291.89 C63.86 226.01, 122.25 157.7, 256.95 2.08 M4.5 304.69 C88.38 211.03, 171.59 113.96, 267.58 2.05 M4.5 304.69 C55.53 245.44, 107.69 186.26, 267.58 2.05 M4.63 316.73 C87.99 228.26, 166.5 134.07, 278.21 2.01 M4.63 316.73 C109.23 201.78, 210.08 85.7, 278.21 2.01 M4.76 328.77 C95.1 224.33, 185.28 117.73, 288.84 1.98 M4.76 328.77 C75.1 242.89, 148.17 158.76, 288.84 1.98 M4.9 340.81 C82.31 257.11, 158.03 168.03, 299.47 1.94 M4.9 340.81 C85.04 245.87, 165.48 155.05, 299.47 1.94 M5.03 352.85 C84.86 258.4, 166.06 162.31, 310.1 1.91 M5.03 352.85 C104.71 236.51, 203.22 121.04, 310.1 1.91 M4.51 365.65 C83.31 273.96, 160.18 184.49, 320.73 1.88 M4.51 365.65 C119.65 232.65, 233.86 101.51, 320.73 1.88 M4.64 377.69 C104.6 261.35, 205.77 144.32, 331.36 1.84 M4.64 377.69 C125.41 242.14, 245.04 104.95, 331.36 1.84 M4.77 389.73 C98.98 285.14, 193.81 176.29, 341.99 1.81 M4.77 389.73 C102.89 275.7, 204.75 159.73, 341.99 1.81 M4.91 401.77 C129.4 259.78, 250.98 119.33, 352.62 1.77 M4.91 401.77 C119.74 270.28, 234.2 140.16, 352.62 1.77 M5.04 413.81 C148.83 252.06, 289.04 88.88, 363.25 1.74 M5.04 413.81 C114.56 287.02, 225.84 160.1, 363.25 1.74 M4.52 426.6 C149.27 259.67, 292.76 93.28, 373.88 1.7 M4.52 426.6 C99.08 317.14, 193.39 206.41, 373.88 1.7 M4.65 438.65 C137.37 284.07, 271.14 130.18, 383.85 2.42 M4.65 438.65 C100.29 331.23, 193.19 225.51, 383.85 2.42 M4.78 450.69 C151.24 276.55, 298.99 106.46, 394.48 2.39 M4.78 450.69 C87.57 356.65, 171.48 259.82, 394.48 2.39 M4.92 462.73 C138.55 303.67, 276.92 143.55, 405.11 2.35 M4.92 462.73 C133.07 317.81, 260.92 170.58, 405.11 2.35 M5.05 474.77 C160.42 296.63, 309.72 121.6, 415.74 2.32 M5.05 474.77 C147.17 315.06, 286.02 155.14, 415.74 2.32 M4.53 487.56 C129.45 344.7, 251.41 203.09, 426.37 2.29 M4.53 487.56 C168.88 292.34, 335.68 100.86, 426.37 2.29 M4.66 499.6 C165.22 311.7, 328.22 124.24, 437 2.25 M4.66 499.6 C167.97 311.4, 332.07 122.78, 437 2.25 M4.79 511.65 C158.24 336.75, 310.74 161.48, 447.63 2.22 M4.79 511.65 C128.3 372.86, 251.27 230.74, 447.63 2.22 M4.93 523.69 C139.31 366.03, 276.14 211.47, 458.26 2.18 M4.93 523.69 C175.84 324.18, 348.5 124.37, 458.26 2.18 M5.06 535.73 C176.67 341, 348.59 146.16, 468.89 2.15 M5.06 535.73 C111.56 417.87, 214.85 298.75, 468.89 2.15 M4.54 548.52 C104.77 440.76, 203.41 329.22, 479.52 2.11 M4.54 548.52 C186.36 336.41, 370.72 125.03, 479.52 2.11 M4.67 560.56 C124.2 419.65, 249.17 279.28, 490.15 2.08 M4.67 560.56 C121.1 424.95, 236.57 292.13, 490.15 2.08 M4.8 572.6 C122.24 434.47, 245.85 293.38, 500.78 2.04 M4.8 572.6 C171.6 377.67, 339.32 185.31, 500.78 2.04 M4.93 584.65 C119.58 446.06, 242.47 307.38, 511.41 2.01 M4.93 584.65 C195.09 365.64, 384.79 145.82, 511.41 2.01 M5.07 596.69 C180.28 390.78, 359.12 185.18, 522.04 1.98 M5.07 596.69 C203.21 374.79, 398.88 150.17, 522.04 1.98 M4.54 609.48 C194.46 391.26, 387.74 169.09, 532.67 1.94 M4.54 609.48 C125.91 462.81, 251.77 319.53, 532.67 1.94 M4.68 621.52 C170.37 429.9, 336.32 238.85, 543.3 1.91 M4.68 621.52 C188.12 408.52, 370.4 200.07, 543.3 1.91 M4.81 633.56 C117.18 499.3, 238.03 363.89, 553.93 1.87 M4.81 633.56 C155.36 459.67, 305.24 287.93, 553.93 1.87 M4.94 645.6 C174.14 443.78, 345.15 246.86, 564.56 1.84 M4.94 645.6 C154.44 474.74, 300.26 306.95, 564.56 1.84 M4.42 658.4 C227.65 403.68, 450.13 146.62, 575.19 1.8 M4.42 658.4 C167.33 470.74, 326.84 286.51, 575.19 1.8 M4.55 670.44 C121.71 532.97, 240.24 397.7, 585.82 1.77 M4.55 670.44 C169.16 482.89, 331.35 296, 585.82 1.77 M4.69 682.48 C136.09 528.95, 268.03 377.52, 596.45 1.73 M4.69 682.48 C191.26 475.41, 372.45 265.79, 596.45 1.73 M4.82 694.52 C140.91 537.62, 275.68 382.33, 607.08 1.7 M4.82 694.52 C201.64 466.42, 399.45 239.25, 607.08 1.7 M4.95 706.56 C167.62 517.35, 334.18 324.01, 617.06 2.42 M4.95 706.56 C213.08 465.79, 426.78 219.26, 617.06 2.42 M4.43 719.36 C174.87 520.95, 346.54 322.86, 627.69 2.38 M4.43 719.36 C147.99 552.29, 296.69 381.35, 627.69 2.38 M4.56 731.4 C138.86 574.24, 277.15 414.15, 638.32 2.35 M4.56 731.4 C164.74 550.73, 324.44 367.64, 638.32 2.35 M4.7 743.44 C168.55 554.79, 330.67 369.26, 648.95 2.32 M4.7 743.44 C158.61 562.63, 314.75 383.63, 648.95 2.32 M4.83 755.48 C252.26 475.27, 494.76 195.69, 659.58 2.28 M4.83 755.48 C134.02 601.39, 265.93 448.57, 659.58 2.28 M4.96 767.52 C205.55 534.54, 406.86 303.4, 670.21 2.25 M4.96 767.52 C188.69 564.57, 366.79 359.74, 670.21 2.25 M4.44 780.32 C257.28 488.29, 507.77 203.43, 680.84 2.21 M4.44 780.32 C168.47 583.37, 335.55 389.3, 680.84 2.21 M4.57 792.36 C262.87 493.33, 521.36 195.01, 691.47 2.18 M4.57 792.36 C170.93 597.51, 337.89 405.48, 691.47 2.18 M4.71 804.4 C196.28 586.89, 390.03 364.99, 702.1 2.14 M4.71 804.4 C263.46 507.49, 523.85 208.87, 702.1 2.14 M4.84 816.44 C196.2 593.17, 393.77 365.26, 712.73 2.11 M4.84 816.44 C281.69 499.68, 560.94 178.92, 712.73 2.11 M0.38 833.76 C203.66 598.85, 406.56 364.2, 723.36 2.07 M0.38 833.76 C158.89 649.41, 318.27 467.1, 723.36 2.07 M1.83 844.3 C146.02 675.34, 295.82 504.87, 733.99 2.04 M1.83 844.3 C260.73 548.08, 512.42 257.93, 733.99 2.04 M5.9 851.81 C156.25 682.6, 306.33 507.63, 744.62 2.01 M5.9 851.81 C280.3 532.14, 553.08 217.74, 744.62 2.01 M11.28 857.81 C169.85 678.03, 333.26 490.35, 755.25 1.97 M11.28 857.81 C171.6 673.29, 334.84 486.01, 755.25 1.97 M16 864.57 C308.95 526.87, 596.85 196.31, 765.88 1.94 M16 864.57 C213.63 636.95, 408.47 412.56, 765.88 1.94 M24.66 866.8 C295 551.81, 572.14 234.33, 776.51 1.9 M24.66 866.8 C282.06 571.53, 533.78 281.59, 776.51 1.9 M33.98 868.27 C325.83 534.17, 619.11 194.64, 787.14 1.87 M33.98 868.27 C244.44 635.64, 448.72 400.53, 787.14 1.87 M44.61 868.24 C331.27 546.15, 609.4 227.82, 797.77 1.83 M44.61 868.24 C275.93 591.31, 514.13 317.93, 797.77 1.83 M55.24 868.21 C299.95 587.96, 545.79 305.48, 808.4 1.8 M55.24 868.21 C236.42 662.01, 416.51 453.49, 808.4 1.8 M65.87 868.17 C305.68 592.53, 550.84 309.44, 819.03 1.76 M65.87 868.17 C356.08 543.1, 641.86 215.87, 819.03 1.76 M76.5 868.14 C306.12 599.43, 535.02 333.19, 829.66 1.73 M76.5 868.14 C339.21 568.53, 595.72 273.86, 829.66 1.73 M87.13 868.1 C248.23 685.99, 400.24 506.78, 840.29 1.69 M87.13 868.1 C259.86 657.08, 439.06 451.18, 840.29 1.69 M97.76 868.07 C383.5 540.41, 672.46 210.55, 850.26 2.42 M97.76 868.07 C255.03 691.85, 407.64 514.81, 850.26 2.42 M108.39 868.03 C382.84 554.88, 654.93 244.93, 860.89 2.38 M108.39 868.03 C274.17 682.92, 435.08 498.53, 860.89 2.38 M119.02 868 C290.7 666.18, 467.59 462.74, 871.52 2.35 M119.02 868 C274.3 694.44, 428.63 516.49, 871.52 2.35 M129.65 867.96 C296.66 679.72, 459.24 493.08, 882.15 2.31 M129.65 867.96 C372.46 591.7, 607.47 321.66, 882.15 2.31 M140.28 867.93 C335.46 635.7, 532.42 411.98, 892.78 2.28 M140.28 867.93 C415.58 551.29, 694.31 229.11, 892.78 2.28 M150.91 867.89 C439.84 534.25, 725.53 204.3, 903.41 2.24 M150.91 867.89 C415.55 568.24, 681.48 262.14, 903.41 2.24 M161.54 867.86 C374.85 619.59, 594.53 368.26, 914.04 2.21 M161.54 867.86 C364.88 626.92, 574.19 388.25, 914.04 2.21 M172.17 867.83 C417.65 586.6, 667.18 300.88, 924.67 2.17 M172.17 867.83 C352.06 660.46, 534.38 452.5, 924.67 2.17 M182.8 867.79 C390.86 623.33, 605.69 378.95, 935.3 2.14 M182.8 867.79 C444.9 570.72, 701.29 277.1, 935.3 2.14 M193.43 867.76 C438.16 590.22, 679.18 314.09, 945.93 2.1 M193.43 867.76 C415.99 625.45, 631.48 377.09, 945.93 2.1 M204.06 867.72 C366.06 681.04, 529.42 492.98, 956.56 2.07 M204.06 867.72 C453.54 582.95, 705.93 294.16, 956.56 2.07 M214.69 867.69 C432.31 615.84, 646.4 368.55, 967.19 2.04 M214.69 867.69 C441.79 611.81, 667.09 354.36, 967.19 2.04 M225.32 867.65 C373.86 697.82, 525.71 523.18, 977.82 2 M225.32 867.65 C438.31 632.03, 646.63 391.46, 977.82 2 M235.95 867.62 C496.24 571.78, 749.34 282.38, 988.45 1.97 M235.95 867.62 C449.99 624.73, 659.31 383.2, 988.45 1.97 M246.58 867.58 C533 538.37, 814.31 211.72, 999.08 1.93 M246.58 867.58 C497.81 579.27, 753.85 287.34, 999.08 1.93 M257.21 867.55 C452.13 644.36, 645.59 421.32, 1009.71 1.9 M257.21 867.55 C506.61 573.66, 759.84 281.87, 1009.71 1.9 M267.19 868.27 C559.59 527.26, 857.1 182.23, 1020.34 1.86 M267.19 868.27 C519.3 578.8, 767.61 291.13, 1020.34 1.86 M277.82 868.24 C440.53 681.73, 598.6 498.77, 1030.97 1.83 M277.82 868.24 C562.36 548.07, 842.02 226.56, 1030.97 1.83 M288.45 868.2 C562.05 561.74, 829.27 255.43, 1041.6 1.79 M288.45 868.2 C449.8 683.46, 615.85 491.56, 1041.6 1.79 M299.08 868.17 C484.38 659.97, 661.72 453, 1052.23 1.76 M299.08 868.17 C579.54 534.65, 868.51 203.4, 1052.23 1.76 M309.71 868.13 C512.23 642.26, 709.34 413.96, 1062.86 1.73 M309.71 868.13 C479.06 682.57, 643.84 493.39, 1062.86 1.73 M320.34 868.1 C581.39 557.99, 846.68 250.49, 1073.49 1.69 M320.34 868.1 C603.79 543.21, 884.49 221.06, 1073.49 1.69 M330.97 868.06 C609.09 551.43, 886.77 229.21, 1083.47 2.41 M330.97 868.06 C542.11 621.33, 758.31 372.89, 1083.47 2.41 M341.6 868.03 C527.96 647.84, 714.34 433.85, 1094.1 2.38 M341.6 868.03 C514.71 659.11, 691.76 454.15, 1094.1 2.38 M352.23 867.99 C530.13 665.41, 707.89 460.74, 1104.73 2.34 M352.23 867.99 C526.39 664.45, 704.39 460.06, 1104.73 2.34 M362.86 867.96 C662.36 528.28, 959.95 185.57, 1115.36 2.31 M362.86 867.96 C562.72 635.09, 767.93 399.34, 1115.36 2.31 M373.49 867.92 C568.82 640, 763.77 415.88, 1125.99 2.27 M373.49 867.92 C535.93 679.15, 703.59 486.69, 1125.99 2.27 M384.12 867.89 C641.42 574.75, 896.02 283.43, 1136.62 2.24 M384.12 867.89 C590.52 624.29, 797.9 385.94, 1136.62 2.24 M394.75 867.86 C671.99 550.91, 943.54 240.37, 1147.25 2.2 M394.75 867.86 C591.02 645.34, 780.98 425.49, 1147.25 2.2 M405.38 867.82 C704.8 523.09, 1006.5 179.55, 1157.88 2.17 M405.38 867.82 C589.78 664.25, 769.52 459.16, 1157.88 2.17 M416.01 867.79 C629.1 612.95, 846.06 361.94, 1168.51 2.14 M416.01 867.79 C632.78 620.96, 846.47 375.42, 1168.51 2.14 M426.64 867.75 C705.01 548.26, 985.49 223.85, 1179.14 2.1 M426.64 867.75 C619.58 651.79, 808.54 433.93, 1179.14 2.1 M437.27 867.72 C681.1 592.2, 921.88 315.81, 1189.77 2.07 M437.27 867.72 C672.21 597.98, 911.05 323.17, 1189.77 2.07 M447.9 867.68 C633.08 665.96, 815.31 456.6, 1200.4 2.03 M447.9 867.68 C605.41 689, 759.81 511.7, 1200.4 2.03 M458.53 867.65 C715.27 563.78, 978.13 262.26, 1211.03 2 M458.53 867.65 C691.68 605.52, 921.15 342.39, 1211.03 2 M469.16 867.61 C653.36 644.13, 841.28 426.85, 1221.66 1.96 M469.16 867.61 C692.23 613.9, 908.66 363.89, 1221.66 1.96 M479.79 867.58 C635.92 683.06, 794.05 504.64, 1232.29 1.93 M479.79 867.58 C660.35 654.88, 844.38 442.59, 1232.29 1.93 M490.42 867.55 C662 668.62, 835.49 467.34, 1242.92 1.89 M490.42 867.55 C705.21 618.81, 922.83 367.49, 1242.92 1.89 M500.39 868.27 C760.69 563.75, 1025.15 264.36, 1253.55 1.86 M500.39 868.27 C724.22 614.67, 943.1 363.87, 1253.55 1.86 M511.02 868.23 C735.43 617.85, 956.2 366.12, 1264.18 1.82 M511.02 868.23 C724.26 617.27, 942.78 365.68, 1264.18 1.82 M521.65 868.2 C791.55 564.36, 1057.34 254.12, 1274.81 1.79 M521.65 868.2 C691.87 665.15, 868.72 461.81, 1274.81 1.79 M532.28 868.16 C760.24 606.96, 994.38 338.1, 1285.44 1.76 M532.28 868.16 C824.19 534, 1109.77 207.22, 1285.44 1.76 M542.91 868.13 C710.45 663.16, 885.28 461.23, 1296.07 1.72 M542.91 868.13 C710.74 668.48, 880.33 473.51, 1296.07 1.72 M553.55 868.09 C734.97 662.94, 915 455.1, 1306.7 1.69 M553.55 868.09 C809.44 582.2, 1059.72 293.54, 1306.7 1.69 M564.18 868.06 C795.58 599.86, 1033.46 328.73, 1316.67 2.41 M564.18 868.06 C752.41 643.53, 943.11 423.23, 1316.67 2.41 M574.81 868.02 C741.72 674.62, 909.71 481.41, 1327.3 2.37 M574.81 868.02 C824.17 577.66, 1077.19 285.93, 1327.3 2.37 M585.44 867.99 C857.33 559.2, 1131.32 246.39, 1337.94 2.34 M585.44 867.99 C786.47 635.27, 986.32 405.89, 1337.94 2.34 M596.07 867.96 C793.83 632.14, 996.82 401.08, 1348.57 2.3 M596.07 867.96 C796.5 637.45, 997.44 404.64, 1348.57 2.3 M606.7 867.92 C796.56 648.73, 994.38 420.11, 1359.2 2.27 M606.7 867.92 C787.49 656.19, 974.99 441.25, 1359.2 2.27 M617.33 867.89 C892.28 548.86, 1165.03 234.98, 1369.83 2.23 M617.33 867.89 C776.56 690.24, 930.87 514.04, 1369.83 2.23 M627.96 867.85 C877.7 591.55, 1123.68 307.5, 1380.46 2.2 M627.96 867.85 C892.04 566.48, 1150.81 268.54, 1380.46 2.2 M638.59 867.82 C910.47 546.05, 1189.93 227.34, 1391.09 2.17 M638.59 867.82 C886.91 585.49, 1127.77 307.82, 1391.09 2.17 M649.22 867.78 C942.65 519.63, 1242.31 177.66, 1401.72 2.13 M649.22 867.78 C905.38 572.51, 1162.41 277.89, 1401.72 2.13 M659.85 867.75 C908.32 585.72, 1157.68 296.71, 1412.35 2.1 M659.85 867.75 C956.39 528.62, 1251.77 188.47, 1412.35 2.1 M670.48 867.71 C926.66 572.66, 1184.26 277.22, 1422.98 2.06 M670.48 867.71 C954.78 541.77, 1234.22 219.32, 1422.98 2.06 M681.11 867.68 C955.75 552.05, 1232.45 235.92, 1433.61 2.03 M681.11 867.68 C901.5 615.63, 1123 362.63, 1433.61 2.03 M691.74 867.64 C961.52 557.72, 1226.59 252.72, 1444.24 1.99 M691.74 867.64 C862.26 675.87, 1030.07 481.71, 1444.24 1.99 M702.37 867.61 C979.4 556.33, 1258.23 238.33, 1454.87 1.96 M702.37 867.61 C927.34 612.32, 1148.04 359.03, 1454.87 1.96 M713 867.58 C898.88 659.97, 1082.85 444.84, 1465.5 1.92 M713 867.58 C888.24 667.61, 1059.71 470.76, 1465.5 1.92 M723.63 867.54 C957.48 601.49, 1188.96 337.87, 1476.13 1.89 M723.63 867.54 C1002.2 554.27, 1275.7 240.85, 1476.13 1.89 M733.6 868.26 C1016.93 541.63, 1296.78 217.61, 1486.76 1.85 M733.6 868.26 C1007.77 546, 1284.38 228.06, 1486.76 1.85 M744.23 868.23 C984.99 586.34, 1229.24 304.05, 1497.39 1.82 M744.23 868.23 C948.03 632.3, 1150.22 399.56, 1497.39 1.82 M754.86 868.19 C989.44 608.77, 1219.3 345.35, 1508.02 1.79 M754.86 868.19 C1031.92 552.07, 1310.94 230.97, 1508.02 1.79 M765.49 868.16 C963.13 650.06, 1153.03 433.15, 1518.65 1.75 M765.49 868.16 C970.47 623.26, 1178.41 382.2, 1518.65 1.75 M776.12 868.12 C1028.16 575.33, 1284.57 282.67, 1529.28 1.72 M776.12 868.12 C936.94 686.09, 1100.18 499.16, 1529.28 1.72 M786.75 868.09 C1008.5 612.86, 1225.02 365.16, 1539.91 1.68 M786.75 868.09 C983.24 645.54, 1176.3 423.19, 1539.91 1.68 M797.38 868.05 C959 688.05, 1112.71 510.14, 1549.88 2.4 M797.38 868.05 C970.5 672.22, 1146.05 470.24, 1549.88 2.4 M808.01 868.02 C1035.2 605.85, 1267.45 340.46, 1560.51 2.37 M808.01 868.02 C1086.29 544.99, 1362.06 226.82, 1560.51 2.37 M818.64 867.99 C1082.69 556.43, 1347 253.26, 1571.14 2.33 M818.64 867.99 C1110.88 527.68, 1405.07 187.47, 1571.14 2.33 M829.27 867.95 C1099.79 555.12, 1372.9 240, 1581.77 2.3 M829.27 867.95 C1112.49 550.16, 1392.65 229.14, 1581.77 2.3 M839.9 867.92 C1029.48 643.27, 1227.81 417.44, 1592.4 2.26 M839.9 867.92 C1004.87 676.66, 1169.74 484.76, 1592.4 2.26 M850.53 867.88 C1145.41 534.12, 1437.5 198.79, 1603.03 2.23 M850.53 867.88 C1092.39 586.76, 1341.59 301.16, 1603.03 2.23 M861.16 867.85 C1122.63 571.14, 1377.2 277.58, 1613.66 2.2 M861.16 867.85 C1080.18 617.25, 1297.39 367.34, 1613.66 2.2 M871.79 867.81 C1081.07 621.11, 1296.99 372.76, 1624.29 2.16 M871.79 867.81 C1094.93 602, 1322.57 340.2, 1624.29 2.16 M882.42 867.78 C1042.46 686.95, 1205.86 498.42, 1634.92 2.13 M882.42 867.78 C1124.91 597.21, 1364.52 321.29, 1634.92 2.13 M893.05 867.74 C1073.25 656.17, 1256.72 449.04, 1645.55 2.09 M893.05 867.74 C1079.8 658.16, 1264.85 445.35, 1645.55 2.09 M903.68 867.71 C1094.71 653.14, 1284.66 436.86, 1656.18 2.06 M903.68 867.71 C1115 629.24, 1325.22 389.39, 1656.18 2.06 M914.31 867.68 C1076.98 687.3, 1239.99 502.47, 1666.81 2.02 M914.31 867.68 C1146.44 593.88, 1383.09 322.27, 1666.81 2.02 M924.94 867.64 C1099.07 668.05, 1270.89 468.53, 1677.44 1.99 M924.94 867.64 C1140.85 625.33, 1354.57 379.19, 1677.44 1.99 M935.57 867.61 C1111.63 663.75, 1289.7 458.11, 1688.07 1.95 M935.57 867.61 C1212.85 551.27, 1488.06 236.73, 1688.07 1.95 M946.2 867.57 C1141.03 639.99, 1340.6 411.52, 1698.7 1.92 M946.2 867.57 C1178.13 605.5, 1408.03 342.67, 1698.7 1.92 M956.18 868.29 C1211.64 583.12, 1456.59 296.03, 1708.68 2.64 M956.18 868.29 C1147.24 657.14, 1332.73 442.58, 1708.68 2.64 M966.81 868.26 C1185.89 611.37, 1406.52 358.44, 1717.34 4.87 M966.81 868.26 C1153.08 653.01, 1340.74 437.46, 1717.34 4.87 M977.44 868.22 C1256.84 549.44, 1537.05 226.21, 1726.66 6.34 M977.44 868.22 C1211.65 593.64, 1445.53 325.51, 1726.66 6.34 M988.07 868.19 C1266.53 542.28, 1550.76 216.4, 1732.69 11.59 M988.07 868.19 C1207.47 626.21, 1420.86 380.34, 1732.69 11.59 M998.7 868.15 C1173.6 663.1, 1352.71 459.44, 1738.73 16.84 M998.7 868.15 C1230.16 607.52, 1460.91 342.27, 1738.73 16.84 M1009.33 868.12 C1175.73 689.91, 1335.8 504.38, 1740.83 26.62 M1009.33 868.12 C1252.42 601.5, 1489.06 328.35, 1740.83 26.62 M1019.96 868.08 C1209.51 648.9, 1405.69 424.65, 1742.93 36.39 M1019.96 868.08 C1236.97 631.03, 1445.19 389.1, 1742.93 36.39 M1030.59 868.05 C1192.45 682.17, 1357.89 492.84, 1743.07 48.44 M1030.59 868.05 C1255.78 608.18, 1484.74 345.11, 1743.07 48.44 M1041.22 868.02 C1301.62 562.89, 1569.01 255, 1742.54 61.23 M1041.22 868.02 C1246.88 626.69, 1454.85 386.31, 1742.54 61.23 M1051.85 867.98 C1223.42 667.81, 1395.94 469.52, 1742.68 73.27 M1051.85 867.98 C1318.16 563.1, 1585.09 255.91, 1742.68 73.27 M1062.48 867.95 C1311.45 584.12, 1559.16 299.45, 1742.81 85.31 M1062.48 867.95 C1243.53 649.53, 1431.12 433.7, 1742.81 85.31 M1073.11 867.91 C1241.22 668.73, 1414.31 470.89, 1742.94 97.35 M1073.11 867.91 C1259.9 656.13, 1445.56 442.02, 1742.94 97.35 M1083.74 867.88 C1212.27 710.06, 1346.86 553.47, 1743.08 109.39 M1083.74 867.88 C1329.12 588.45, 1571.92 308.34, 1743.08 109.39 M1094.37 867.84 C1253.62 685.77, 1415.92 499.74, 1742.55 122.19 M1094.37 867.84 C1287.82 648.01, 1480.96 426.35, 1742.55 122.19 M1105 867.81 C1321.36 621.7, 1538.15 371.44, 1742.69 134.23 M1105 867.81 C1243.54 706.95, 1383.5 545.97, 1742.69 134.23 M1115.63 867.77 C1329.54 617.76, 1549.03 367, 1742.82 146.27 M1115.63 867.77 C1242.72 722.53, 1368.63 577.32, 1742.82 146.27 M1126.26 867.74 C1371.85 582.11, 1619.92 300.4, 1742.95 158.31 M1126.26 867.74 C1290.96 684.01, 1453.02 496.12, 1742.95 158.31 M1136.89 867.71 C1325.05 659.65, 1509.37 445.52, 1743.09 170.35 M1136.89 867.71 C1316.01 663.79, 1492.03 461.48, 1743.09 170.35 M1147.52 867.67 C1320.58 672.63, 1489.72 479.72, 1742.56 183.15 M1147.52 867.67 C1298.03 695.56, 1445.07 526.79, 1742.56 183.15 M1158.15 867.64 C1384.95 598.55, 1617.51 333.91, 1742.7 195.19 M1158.15 867.64 C1346.16 653.85, 1528.3 444.26, 1742.7 195.19 M1168.78 867.6 C1324.87 683.64, 1481.32 504.15, 1742.83 207.23 M1168.78 867.6 C1339.71 665.78, 1511.01 468.39, 1742.83 207.23 M1179.41 867.57 C1364.4 648.73, 1549.6 435.95, 1742.96 219.27 M1179.41 867.57 C1382.6 625.81, 1591.36 386.77, 1742.96 219.27 M1189.38 868.29 C1366.03 666.09, 1544.05 464.77, 1743.1 231.31 M1189.38 868.29 C1336.84 699.8, 1480.23 533.37, 1743.1 231.31 M1200.01 868.25 C1384.8 661.07, 1568.38 450.7, 1742.57 244.11 M1200.01 868.25 C1307.65 735.31, 1419.92 607.52, 1742.57 244.11 M1210.64 868.22 C1398.81 650.84, 1588.98 432.85, 1742.71 256.15 M1210.64 868.22 C1406.22 651.68, 1598.17 430.74, 1742.71 256.15 M1221.27 868.18 C1364.12 706.92, 1503.98 546.18, 1742.84 268.19 M1221.27 868.18 C1387.68 672.99, 1554.53 481.94, 1742.84 268.19 M1231.9 868.15 C1432.07 642.79, 1631.45 412.6, 1742.97 280.23 M1231.9 868.15 C1405.15 668.49, 1577.05 471.2, 1742.97 280.23 M1242.53 868.12 C1395.69 689.99, 1554.19 510.52, 1743.11 292.27 M1242.53 868.12 C1367.73 722.51, 1494.51 577.85, 1743.11 292.27 M1253.16 868.08 C1350.77 752.49, 1452.55 634.56, 1742.58 305.07 M1253.16 868.08 C1402.53 691.9, 1555.56 514.16, 1742.58 305.07 M1263.79 868.05 C1397.76 717.95, 1531.82 565.44, 1742.72 317.11 M1263.79 868.05 C1406.82 702.7, 1549.76 538.75, 1742.72 317.11 M1274.42 868.01 C1396.68 722.35, 1523.8 576.93, 1742.85 329.15 M1274.42 868.01 C1429.86 690.51, 1581.53 516.11, 1742.85 329.15 M1285.05 867.98 C1427.09 704.22, 1567.96 546.37, 1742.98 341.19 M1285.05 867.98 C1464.26 663.16, 1644.85 455.57, 1742.98 341.19 M1295.68 867.94 C1392.81 759.73, 1487.63 651.42, 1743.12 353.23 M1295.68 867.94 C1472.42 663.33, 1649.21 459.08, 1743.12 353.23 M1306.31 867.91 C1460.75 687.51, 1613.88 511.45, 1742.59 366.03 M1306.31 867.91 C1409.87 748.45, 1512.09 629.64, 1742.59 366.03 M1316.94 867.87 C1462.53 697.28, 1612.96 527.25, 1742.73 378.07 M1316.94 867.87 C1423.81 743.46, 1531.52 618.13, 1742.73 378.07 M1327.57 867.84 C1457.99 716.33, 1586.86 564.77, 1742.86 390.11 M1327.57 867.84 C1476.26 694.55, 1624.13 525.52, 1742.86 390.11 M1338.2 867.8 C1492.85 694.78, 1641.91 520.35, 1742.99 402.15 M1338.2 867.8 C1429.55 762.88, 1520.63 658.22, 1742.99 402.15 M1348.83 867.77 C1465.23 727.05, 1586.91 591.21, 1743.13 414.19 M1348.83 867.77 C1441.57 758.72, 1538.14 649.66, 1743.13 414.19 M1359.46 867.74 C1453.63 759.86, 1550.95 645.59, 1742.6 426.99 M1359.46 867.74 C1481.68 720.79, 1606.05 577.59, 1742.6 426.99 M1370.09 867.7 C1511.18 712.58, 1647.07 551.84, 1742.74 439.03 M1370.09 867.7 C1457.04 769.82, 1542.37 671.29, 1742.74 439.03 M1380.72 867.67 C1501.58 729.92, 1621.79 592.17, 1742.87 451.07 M1380.72 867.67 C1517.32 711.27, 1655.79 551.91, 1742.87 451.07 M1391.35 867.63 C1523.99 717.41, 1655.83 564.13, 1743 463.11 M1391.35 867.63 C1462.54 786.73, 1532.98 706.36, 1743 463.11 M1401.98 867.6 C1480.44 775.3, 1557.11 686.68, 1743.13 475.15 M1401.98 867.6 C1507.62 743.19, 1614.82 619.8, 1743.13 475.15 M1412.61 867.56 C1520.17 746.08, 1626.79 622.61, 1742.61 487.94 M1412.61 867.56 C1509.78 759.31, 1604.18 650.72, 1742.61 487.94 M1422.59 868.28 C1528.27 745.48, 1635.4 624.02, 1742.75 499.99 M1422.59 868.28 C1498.99 778.63, 1576.69 690.93, 1742.75 499.99 M1433.22 868.25 C1506.6 788.24, 1577.62 707.96, 1742.88 512.03 M1433.22 868.25 C1548.21 738.24, 1660.94 607.53, 1742.88 512.03 M1443.85 868.21 C1549.46 750.3, 1649.29 632.38, 1743.01 524.07 M1443.85 868.21 C1554.37 741.14, 1665.53 612.63, 1743.01 524.07 M1454.48 868.18 C1526.58 787.58, 1599.8 705.98, 1742.49 536.86 M1454.48 868.18 C1561.72 745.91, 1668.64 622.59, 1742.49 536.86 M1465.11 868.15 C1538.94 779.02, 1614.97 691.22, 1742.62 548.9 M1465.11 868.15 C1558.52 760.47, 1649.45 656.35, 1742.62 548.9 M1475.74 868.11 C1569.57 761.52, 1662.66 655.86, 1742.75 560.94 M1475.74 868.11 C1577.86 751.53, 1677.58 634.39, 1742.75 560.94 M1486.37 868.08 C1557.55 785.75, 1627.22 704.2, 1742.89 572.99 M1486.37 868.08 C1542.06 802.43, 1600.47 736.73, 1742.89 572.99 M1497 868.04 C1552.82 801.18, 1615.09 733.55, 1743.02 585.03 M1497 868.04 C1572.56 781.13, 1649.35 694.9, 1743.02 585.03 M1507.63 868.01 C1566.53 797.89, 1627.41 726.93, 1742.5 597.82 M1507.63 868.01 C1596.24 770.09, 1684.3 667.99, 1742.5 597.82 M1518.26 867.97 C1578.5 802.21, 1635.99 735.45, 1742.63 609.86 M1518.26 867.97 C1571.91 805.65, 1623.24 744.37, 1742.63 609.86 M1528.89 867.94 C1611.88 775.15, 1691.84 677.78, 1742.76 621.9 M1528.89 867.94 C1607.74 774.64, 1687.37 680.89, 1742.76 621.9 M1539.52 867.9 C1592.66 813.24, 1639.07 752.46, 1742.9 633.94 M1539.52 867.9 C1595.53 802.41, 1652.73 734.48, 1742.9 633.94 M1550.15 867.87 C1586.3 820.28, 1629.13 769.14, 1743.03 645.98 M1550.15 867.87 C1601.19 814.9, 1648.13 759.07, 1743.03 645.98 M1560.78 867.84 C1613.75 807.1, 1666.5 749.81, 1742.51 658.78 M1560.78 867.84 C1620.26 803.57, 1678.39 736.11, 1742.51 658.78 M1571.41 867.8 C1639.51 789.91, 1706.89 716.38, 1742.64 670.82 M1571.41 867.8 C1624.29 807.39, 1675.81 748.57, 1742.64 670.82 M1582.04 867.77 C1643.56 795, 1709.69 720.5, 1742.77 682.86 M1582.04 867.77 C1626 818.06, 1667.7 769.3, 1742.77 682.86 M1592.67 867.73 C1634.72 813.53, 1681.7 759.4, 1742.91 694.9 M1592.67 867.73 C1628.71 825.32, 1663.45 786.17, 1742.91 694.9 M1603.3 867.7 C1631.96 830.29, 1660.86 795.58, 1743.04 706.94 M1603.3 867.7 C1659.94 803.48, 1716.41 739.58, 1743.04 706.94 M1613.93 867.66 C1649.77 824.71, 1682.76 785.33, 1742.52 719.74 M1613.93 867.66 C1642.74 828.46, 1678.65 794.6, 1742.52 719.74 M1624.56 867.63 C1659.51 830.19, 1692.36 795.77, 1742.65 731.78 M1624.56 867.63 C1647.91 835.73, 1676.85 807.01, 1742.65 731.78 M1635.19 867.59 C1663.83 829.95, 1702.63 788.08, 1742.78 743.82 M1635.19 867.59 C1675.8 824.36, 1711.36 781.03, 1742.78 743.82 M1645.82 867.56 C1664.22 845.25, 1688.18 819.48, 1742.92 755.86 M1645.82 867.56 C1687.72 823.04, 1723.41 777.78, 1742.92 755.86 M1655.79 868.28 C1695.66 830.49, 1727.72 787.45, 1743.05 767.9 M1655.79 868.28 C1677.4 845.79, 1700.03 817.94, 1743.05 767.9 M1666.42 868.24 C1692.1 838.58, 1715.27 812.15, 1742.53 780.7 M1666.42 868.24 C1686.04 844.35, 1703.6 825.17, 1742.53 780.7 M1677.05 868.21 C1696.38 852.82, 1708.18 830.65, 1742.66 792.74 M1677.05 868.21 C1689.64 851.54, 1706.53 831.19, 1742.66 792.74 M1687.68 868.18 C1706.33 846.11, 1717.9 832.87, 1742.79 804.78 M1687.68 868.18 C1700.51 852.67, 1712.12 841.95, 1742.79 804.78 M1698.31 868.14 C1706 857.78, 1716.68 849.26, 1742.93 816.82 M1698.31 868.14 C1711.64 852.84, 1723.17 839.37, 1742.93 816.82 M1708.29 868.86 C1713.96 856.93, 1725.93 847.36, 1738.47 834.14 M1708.29 868.86 C1713.49 860.67, 1724.84 852.85, 1738.47 834.14 M1725.48 861.28 C1730.89 856.13, 1730.85 854.16, 1734.66 850.71 M1725.48 861.28 C1727.2 858.46, 1729.2 857.18, 1734.66 850.71" stroke="#ffffff" stroke-width="1" fill="none"></path><path d="M32 0 M32 0 C564.95 0.61, 1099.51 2.7, 1705.59 0 M32 0 C650.48 -0.73, 1267.85 -2.04, 1705.59 0 M1705.59 0 C1730.23 -2.89, 1739 14.61, 1737.59 32 M1705.59 0 C1731.2 4.53, 1740.56 14.36, 1737.59 32 M1737.59 32 C1735.55 200.79, 1736.06 368.69, 1737.59 833.92 M1737.59 32 C1736.09 271.43, 1736.56 511.87, 1737.59 833.92 M1737.59 833.92 C1741.19 857.89, 1725.82 869.91, 1705.59 865.92 M1737.59 833.92 C1739.06 858.18, 1723.41 867.9, 1705.59 865.92 M1705.59 865.92 C1252.81 865.75, 804.36 866.07, 32 865.92 M1705.59 865.92 C1266.13 876.58, 826.66 875.91, 32 865.92 M32 865.92 C14.12 864.95, -3.28 858.62, 0 833.92 M32 865.92 C9.19 865, -4.15 858.04, 0 833.92 M0 833.92 C-5.91 514.11, -4.38 192.04, 0 32 M0 833.92 C0.08 587.07, 0.95 340.76, 0 32 M0 32 C-1.17 10.83, 10.26 0.85, 32 0 M0 32 C1.33 15.26, 13.03 1.24, 32 0" stroke="#1e1e1e" stroke-width="2" fill="none"></path></g><g stroke-linecap="round" transform="translate(189.09386083820084 129.15958114203477) rotate(0 137.51543266234643 66.72315121951789)"><path d="M33.31 -1.07 L244.14 0.88 L264.97 5.05 L267.59 9.3 L275.97 27.87 L277.63 98.46 L266.54 118.52 L265.98 129.11 L241.93 132.71 L30.39 134.29 L14.41 127.44 L7.76 122.5 L4.43 112.18 L-0.54 25.25 L6.87 11.43 L17.47 -1.16 L35.76 -1.07" stroke="none" stroke-width="0" fill="#ffc9c9"></path><path d="M32 0 M32 0 C97.43 -2.19, 153.92 3.6, 243.03 0 M32 0 C99.48 -2.63, 167.92 0.34, 243.03 0 M243.03 0 C262.19 -1.02, 272.34 8.49, 275.03 32 M243.03 0 C267.31 -3.78, 279.01 12.88, 275.03 32 M275.03 32 C272.1 62.19, 273.28 89.19, 275.03 101.45 M275.03 32 C275.49 52.7, 275.9 71.99, 275.03 101.45 M275.03 101.45 C272.37 126.45, 260.92 135.68, 243.03 133.45 M275.03 101.45 C275.53 119.83, 264.99 132.29, 243.03 133.45 M243.03 133.45 C161.78 131.4, 87.28 134.46, 32 133.45 M243.03 133.45 C182.3 130.81, 116.97 130.41, 32 133.45 M32 133.45 C10.59 135.17, 0.82 126.26, 0 101.45 M32 133.45 C9.12 128.96, -2.74 127.28, 0 101.45 M0 101.45 C0.26 84.74, -1.64 73.79, 0 32 M0 101.45 C-0.56 78.35, -0.68 53.98, 0 32 M0 32 C2.79 12.49, 11.59 0.29, 32 0 M0 32 C1.51 15.14, 14.86 3.05, 32 0" stroke="#1e1e1e" stroke-width="1" fill="none"></path></g><g transform="translate(218.54777006304727 175.18273236155267) rotate(0 108.0615234375 20.700000000000003)"><text x="108.0615234375" y="0" font-family="Helvetica, Segoe UI Emoji" font-size="36px" fill="#1e1e1e" text-anchor="middle" style="white-space: pre;" direction="ltr" dominant-baseline="text-before-edge">correlation_id</text></g><g stroke-linecap="round" transform="translate(199.83119001127227 597.5388147798471) rotate(0 303.9851965668632 66.72315121951789)"><path d="M34.44 0.55 L580.53 -2.7 L601.41 11.37 L610.07 21.51 L603.48 106.52 L606.92 121.11 L594.37 128.21 L574.36 134.29 L26.41 131.44 L15.76 130.5 L5.93 118.68 L-1.04 102.2 L-1.13 35.43 L1.47 14.84 L11.76 6.93 L17.81 2.13 L30.64 3.52" stroke="none" stroke-width="0" fill="#ffc9c9"></path><path d="M32 0 M32 0 C142.28 -3.91, 252.33 -3.7, 575.97 0 M32 0 C152.72 -4.17, 273.78 -4.4, 575.97 0 M575.97 0 C599.87 -3.28, 611.43 12.59, 607.97 32 M575.97 0 C601.38 -2.75, 605.6 8.25, 607.97 32 M607.97 32 C607.29 61.44, 608.13 83.61, 607.97 101.45 M607.97 32 C606.51 56.37, 606.12 78.18, 607.97 101.45 M607.97 101.45 C608.4 120.21, 597.85 132.44, 575.97 133.45 M607.97 101.45 C611.21 127.26, 598.84 129.42, 575.97 133.45 M575.97 133.45 C463.38 132.22, 349.82 134.61, 32 133.45 M575.97 133.45 C413.94 132.72, 252.11 133.07, 32 133.45 M32 133.45 C9.32 129.55, -2.38 126.69, 0 101.45 M32 133.45 C7.05 137.87, 0.38 124.61, 0 101.45 M0 101.45 C1.82 86.2, -3.57 65.56, 0 32 M0 101.45 C1.07 79.03, 0.14 54.94, 0 32 M0 32 C1.32 14.56, 14.32 2.66, 32 0 M0 32 C3.63 6.76, 6.69 4.45, 32 0" stroke="#1e1e1e" stroke-width="1" fill="none"></path></g><g transform="translate(358.72654282813545 643.561965999365) rotate(0 145.08984375 20.69999999999999)"><text x="145.08984375" y="0" font-family="Helvetica, Segoe UI Emoji" font-size="36px" fill="#1e1e1e" text-anchor="middle" style="white-space: pre;" direction="ltr" dominant-baseline="text-before-edge">ResponsetHeader</text></g><g stroke-linecap="round" transform="translate(811.0465834747305 596.3767647126749) rotate(0 431.99999999999994 67)"><path d="M34.6 -2.99 L835.51 -1.93 L859.45 8.17 L862.4 23.76 L861.89 110.34 L861.41 119.99 L854.76 131.05 L835.93 137.24 L23.46 134.25 L11.37 132.93 L1.47 112.84 L3.76 100.93 L-0.19 32.13 L0.64 21.52 L4.08 4.91 L20.65 2.96 L29.43 1.36" stroke="none" stroke-width="0" fill="#ffffff"></path><path d="M32 0 M32 0 C232.64 2.2, 429.96 2, 832 0 M32 0 C229.19 5.64, 425.71 4.78, 832 0 M832 0 C851.27 -2.1, 867.2 9.74, 864 32 M832 0 C857.03 -0.41, 867.5 11.22, 864 32 M864 32 C863.47 48.26, 868.01 66.41, 864 102 M864 32 C864.42 56.41, 865.56 83.78, 864 102 M864 102 C865.34 119.84, 849.61 134.65, 832 134 M864 102 C863.7 123.12, 850.63 130.79, 832 134 M832 134 C519.21 128.91, 207.89 129.27, 32 134 M832 134 C521.99 128.54, 212.31 128.53, 32 134 M32 134 C10.99 135.59, -1.33 123.03, 0 102 M32 134 C14.23 135.98, 3.77 119.11, 0 102 M0 102 C-0.16 81.75, 1.32 56.85, 0 32 M0 102 C1.36 81.82, 1.12 57.29, 0 32 M0 32 C-3.46 14.53, 10.45 0.84, 32 0 M0 32 C-2.2 13.29, 14.94 1.66, 32 0" stroke="#1e1e1e" stroke-width="1" fill="none"></path></g><g transform="translate(1044.9323256622306 642.6767647126749) rotate(0 198.1142578125 20.69999999999999)"><text x="198.1142578125" y="0" font-family="Helvetica, Segoe UI Emoji" font-size="36px" fill="#1e1e1e" text-anchor="middle" style="white-space: pre;" direction="ltr" dominant-baseline="text-before-edge">Response Protocol Body</text></g><g stroke-linecap="round"><g transform="translate(781.975542768148 586.5015930614164) rotate(0 -158.44901625840706 -165.80984363114828)"><path d="M2.42 0.12 C-50.34 -54.89, -265.63 -276.61, -319.32 -331.74" stroke="#1e1e1e" stroke-width="1.5" fill="none" stroke-dasharray="8 9"></path></g><g transform="translate(781.975542768148 586.5015930614164) rotate(0 -158.44901625840706 -165.80984363114828)"><path d="M-292.14 -319.77 C-298.3 -322.43, -302.13 -321.53, -320.83 -328.48" stroke="#1e1e1e" stroke-width="1.5" fill="none"></path></g><g transform="translate(781.975542768148 586.5015930614164) rotate(0 -158.44901625840706 -165.80984363114828)"><path d="M-306.86 -305.47 C-309.89 -311.25, -310.78 -313.21, -320.83 -328.48" stroke="#1e1e1e" stroke-width="1.5" fill="none"></path></g></g><mask></mask><g stroke-linecap="round"><g transform="translate(211.42703509851003 586.2663832219185) rotate(0 -1.3481187513769441 -156.62467768521893)"><path d="M-0.77 -0.51 C-1.49 -52.66, -2.1 -260.42, -1.88 -312.73" stroke="#1e1e1e" stroke-width="1.5" fill="none" stroke-dasharray="8 9"></path></g><g transform="translate(211.42703509851003 586.2663832219185) rotate(0 -1.3481187513769441 -156.62467768521893)"><path d="M7.65 -286.15 C5.24 -293.58, -1.08 -303.12, -0.33 -308.81" stroke="#1e1e1e" stroke-width="1.5" fill="none"></path></g><g transform="translate(211.42703509851003 586.2663832219185) rotate(0 -1.3481187513769441 -156.62467768521893)"><path d="M-12.87 -286.15 C-7.36 -293.47, -5.74 -303.01, -0.33 -308.81" stroke="#1e1e1e" stroke-width="1.5" fill="none"></path></g></g><mask></mask><g transform="translate(293.07377784415223 83.4458101523229) rotate(0 39.0322265625 20.69999999999999)"><text x="0" y="0" font-family="Helvetica, Segoe UI Emoji" font-size="36px" fill="#1e1e1e" text-anchor="start" style="white-space: pre;" direction="ltr" dominant-baseline="text-before-edge">int32</text></g></svg>