<svg version="1.1" xmlns="http://www.w3.org/2000/svg" viewBox="0 0 2020 1460" width="2020" height="1460">
  <!-- svg-source:excalidraw -->
  
  <defs>
    <style class="style-fonts">
      @font-face {
        font-family: "Virgil";
        src: url("https://excalidraw.com/Virgil.woff2");
      }
      @font-face {
        font-family: "Cascadia";
        src: url("https://excalidraw.com/Cascadia.woff2");
      }
    </style>
    
  </defs>
  <rect x="0" y="0" width="2020" height="1460" fill="#ffffff"></rect><g stroke-linecap="round" transform="translate(10 10) rotate(0 1000 720)"><path d="M30.55 0.76 L1968.44 -0.35 L1975 1.2 L1986.58 4.38 L1996.63 10.79 L1996.29 17.02 L1999.96 30.17 L2000.35 1409.74 L2000.02 1416.05 L1995.98 1426.74 L1988.76 1434.63 L1982.92 1437.25 L1968.65 1439.17 L32.83 1440.04 L23.59 1438.95 L10.87 1435.91 L5.47 1425.78 L2.65 1423.68 L0.64 1407.49 L1.76 33.72 L2.43 16.48 L8.76 8.91 L18.61 2.14 L31.66 0.18" stroke="none" stroke-width="0" fill="#fff"></path><path d="M32 0 M32 0 C752.86 -5.2, 1474.04 -5.62, 1968 0 M32 0 C735.47 3.54, 1439.5 3.46, 1968 0 M1968 0 C1988.08 -1, 1999.48 10.06, 2000 32 M1968 0 C1988.71 -1.09, 1998.16 12.81, 2000 32 M2000 32 C1999.71 345.75, 1998.86 660.77, 2000 1408 M2000 32 C1995.06 417.74, 1994.77 803.58, 2000 1408 M2000 1408 C1999.83 1431.14, 1988.93 1439.47, 1968 1440 M2000 1408 C2000.68 1430, 1987.19 1438.05, 1968 1440 M1968 1440 C1504.85 1441.01, 1040.28 1442.13, 32 1440 M1968 1440 C1435.18 1437.85, 901.8 1438.09, 32 1440 M32 1440 C11.57 1438.26, 1.17 1429.67, 0 1408 M32 1440 C10.78 1441.76, -2.09 1429.09, 0 1408 M0 1408 C0.53 869.12, 1.15 330.89, 0 32 M0 1408 C0.72 1053.94, 0.74 699.7, 0 32 M0 32 C1.72 10.11, 12.52 -1.2, 32 0 M0 32 C0.84 11.02, 10.15 0.08, 32 0" stroke="#1e1e1e" stroke-width="1" fill="none"></path></g><g stroke-linecap="round" transform="translate(610 130) rotate(0 630 430)"><path d="M32.61 0.11 L1229.15 1.56 L1234.43 -0.24 L1249.31 5.24 L1254.36 10.58 L1259.33 19.99 L1261.53 33.87 L1261.85 827.86 L1261.1 834.41 L1253.54 848.35 L1248.75 853.94 L1241.11 859.44 L1228.2 860.67 L30.78 858.08 L26.2 858.29 L13.83 856.68 L3.03 848.44 L1.55 843.12 L-1 828.23 L0.77 30.26 L2.96 18.77 L8.84 8.92 L19.78 1.59 L30.16 -0.61" stroke="none" stroke-width="0" fill="#fff"></path><path d="M32 0 M32 0 C412.44 0.49, 793.41 0.34, 1228 0 M1228 0 C1248.08 -1.89, 1260.9 12.14, 1260 32 M1260 32 C1261.31 272.13, 1261.21 514.17, 1260 828 M1260 828 C1260.32 848.1, 1250 861.8, 1228 860 M1228 860 C805.58 860.96, 383.9 862.12, 32 860 M32 860 C9.64 859.75, 0.59 847.97, 0 828 M0 828 C0.2 598.78, 0.64 370.96, 0 32 M0 32 C1.47 10.04, 9.02 1.29, 32 0" stroke="#1e1e1e" stroke-width="1.5" fill="none" stroke-dasharray="8 9"></path></g><g stroke-linecap="round" transform="translate(130 270) rotate(0 100 60)"><path d="M81.62 0.08 C93.96 -2.27, 109.21 -0.85, 122.49 1.09 C135.78 3.03, 150.33 6.59, 161.31 11.7 C172.29 16.82, 181.93 24.4, 188.39 31.77 C194.85 39.13, 198.97 47.84, 200.07 55.89 C201.17 63.94, 199.51 72.49, 194.98 80.06 C190.45 87.64, 182.39 95.57, 172.89 101.35 C163.38 107.12, 150.67 111.49, 137.96 114.71 C125.26 117.92, 109.97 120.81, 96.66 120.63 C83.35 120.45, 70.31 117.17, 58.1 113.62 C45.89 110.07, 32.43 105.53, 23.38 99.33 C14.33 93.14, 7.64 84.13, 3.79 76.46 C-0.06 68.78, -1.48 61.18, 0.29 53.29 C2.07 45.39, 7.37 36.24, 14.43 29.09 C21.49 21.95, 30.78 15.26, 42.66 10.43 C54.54 5.59, 78.13 1.59, 85.72 0.07 C93.31 -1.46, 88.23 0.21, 88.21 1.27 M138.37 2.99 C150.85 5.1, 163.43 13.89, 172.85 19.8 C182.28 25.7, 190.37 31.03, 194.93 38.41 C199.48 45.8, 201.56 55.69, 200.18 64.11 C198.81 72.53, 192.94 81.84, 186.69 88.92 C180.45 96, 173.43 101.91, 162.73 106.59 C152.02 111.26, 135.8 114.77, 122.46 116.97 C109.12 119.18, 95.98 121.01, 82.71 119.82 C69.45 118.62, 54.12 114.65, 42.87 109.8 C31.63 104.96, 22.4 97.88, 15.22 90.76 C8.04 83.63, 1.82 75.13, -0.2 67.07 C-2.22 59.01, -0.72 49.8, 3.1 42.38 C6.93 34.97, 14.09 28.77, 22.74 22.57 C31.38 16.37, 42.86 8.86, 55 5.19 C67.13 1.53, 81.56 0.86, 95.55 0.58 C109.54 0.3, 132.25 2.8, 138.94 3.53 C145.63 4.26, 136.38 3.7, 135.68 4.96" stroke="none" stroke-width="0" fill="#868e96"></path><path d="M89.94 -0.15 C102.43 -1.99, 118.58 0.33, 131.38 2.92 C144.18 5.52, 156.83 9.74, 166.75 15.42 C176.66 21.09, 185.32 29.41, 190.87 37 C196.43 44.59, 200.16 52.98, 200.07 60.96 C199.97 68.93, 195.99 77.64, 190.3 84.85 C184.61 92.06, 175.83 98.79, 165.92 104.22 C156.02 109.65, 143.79 114.92, 130.87 117.41 C117.95 119.9, 101.96 120.22, 88.38 119.16 C74.8 118.09, 61.16 115.13, 49.4 111 C37.63 106.87, 25.58 100.81, 17.78 94.39 C9.99 87.97, 5.29 80.43, 2.63 72.47 C-0.04 64.51, -0.92 54.73, 1.78 46.62 C4.49 38.51, 10.54 30.44, 18.85 23.8 C27.17 17.17, 36.48 10.83, 51.66 6.81 C66.83 2.8, 96.97 0.37, 109.9 -0.28 C122.84 -0.93, 129.41 1.82, 129.25 2.9 M108.18 0.69 C121.18 0.35, 136.33 2.82, 148.14 6.77 C159.96 10.71, 170.68 17.76, 179.07 24.37 C187.46 30.99, 195.32 38.5, 198.5 46.46 C201.68 54.42, 201.06 64.12, 198.14 72.13 C195.21 80.15, 188.6 88.01, 180.95 94.53 C173.3 101.05, 163.77 107.3, 152.22 111.26 C140.67 115.23, 125.27 117.31, 111.64 118.31 C98.01 119.31, 83.42 119.35, 70.44 117.24 C57.46 115.14, 44.09 110.73, 33.77 105.67 C23.44 100.61, 14.01 94.04, 8.5 86.87 C2.99 79.7, 0.63 71.06, 0.7 62.67 C0.76 54.28, 3.78 44.46, 8.89 36.52 C14 28.57, 21.77 20.29, 31.33 15 C40.9 9.71, 53.47 7.41, 66.29 4.77 C79.11 2.13, 101.13 -0.47, 108.27 -0.82 C115.41 -1.18, 109.56 1.51, 109.13 2.65" stroke="#1e1e1e" stroke-width="1" fill="none"></path></g><g transform="translate(183.76979063134513 309.37359312880744) rotate(0 46.01953125 20.700000000000045)"><text x="46.01953125" y="0" font-family="Helvetica, Segoe UI Emoji" font-size="36px" fill="#1e1e1e" text-anchor="middle" style="white-space: pre;" direction="ltr" dominant-baseline="text-before-edge">Client</text></g><g stroke-linecap="round" transform="translate(130 770) rotate(0 100 60)"><path d="M54.63 6.12 C65.57 1.93, 81.22 0.88, 94.72 0.63 C108.21 0.37, 122.91 1.78, 135.6 4.59 C148.3 7.39, 161.25 11.85, 170.87 17.46 C180.48 23.08, 188.54 30.84, 193.29 38.28 C198.04 45.71, 200.17 53.86, 199.36 62.07 C198.55 70.28, 194.26 80.24, 188.43 87.53 C182.6 94.81, 174.82 100.68, 164.39 105.78 C153.95 110.87, 139.09 115.97, 125.8 118.1 C112.5 120.24, 97.99 119.7, 84.62 118.6 C71.25 117.5, 56.96 115.72, 45.57 111.51 C34.19 107.3, 23.78 100.33, 16.33 93.34 C8.87 86.35, 2.91 77.76, 0.84 69.58 C-1.22 61.4, 0.53 52.14, 3.94 44.25 C7.36 36.36, 12.02 28.84, 21.34 22.24 C30.66 15.64, 51.91 7.52, 59.87 4.64 C67.84 1.76, 68.2 3.93, 69.12 4.96 M54.77 5.55 C65.45 0.91, 81.28 0.07, 94.42 -0.12 C107.56 -0.3, 120.76 1.68, 133.6 4.44 C146.45 7.2, 161.84 11.07, 171.5 16.46 C181.16 21.84, 186.79 28.94, 191.57 36.77 C196.36 44.6, 200.74 55.05, 200.22 63.42 C199.7 71.78, 194.54 79.96, 188.46 86.96 C182.37 93.96, 174.2 100.46, 163.7 105.41 C153.21 110.37, 138.74 114.53, 125.51 116.7 C112.27 118.86, 97.66 119.21, 84.31 118.4 C70.95 117.59, 56.91 116.18, 45.39 111.83 C33.87 107.47, 22.72 99.17, 15.18 92.26 C7.65 85.36, 1.94 78.44, 0.16 70.41 C-1.63 62.37, 1.06 52.1, 4.46 44.04 C7.86 35.97, 12.16 28.07, 20.54 22.04 C28.91 16.01, 48.86 10.33, 54.71 7.87 C60.56 5.41, 54.75 6.62, 55.63 7.27" stroke="none" stroke-width="0" fill="#868e96"></path><path d="M77.81 1.04 C89.99 -1.32, 105.95 0.38, 119.38 2.16 C132.8 3.93, 147.33 7.1, 158.37 11.69 C169.41 16.27, 178.83 22.83, 185.61 29.66 C192.39 36.49, 197.31 44.53, 199.05 52.66 C200.8 60.78, 200.19 70.59, 196.09 78.39 C191.98 86.18, 183.53 93.49, 174.41 99.42 C165.29 105.35, 153.8 110.62, 141.36 113.97 C128.93 117.32, 113.27 119.29, 99.79 119.54 C86.31 119.79, 72.87 118.72, 60.49 115.46 C48.11 112.21, 34.86 106.2, 25.5 100.02 C16.14 93.84, 8.34 86.19, 4.32 78.37 C0.3 70.55, -0.04 61.23, 1.39 53.12 C2.82 45.01, 6.28 36.78, 12.91 29.72 C19.55 22.67, 29.13 15.64, 41.2 10.78 C53.28 5.92, 76.78 2.13, 85.36 0.58 C93.94 -0.98, 92.46 0.44, 92.69 1.47 M116.31 1.71 C129.41 2.25, 145.21 5.9, 156.52 10.44 C167.84 14.99, 177.38 22.11, 184.21 28.99 C191.03 35.87, 195.45 43.85, 197.47 51.72 C199.5 59.58, 199.97 68.63, 196.34 76.18 C192.72 83.73, 184.55 90.82, 175.73 97.03 C166.91 103.24, 155.53 109.61, 143.41 113.44 C131.29 117.27, 116.57 119.43, 103.01 120 C89.44 120.57, 74.33 119.68, 62.04 116.86 C49.75 114.05, 38.35 109.2, 29.27 103.13 C20.2 97.07, 12.39 88.51, 7.56 80.46 C2.74 72.41, -0.23 62.63, 0.34 54.82 C0.9 47, 4.67 40.72, 10.98 33.58 C17.29 26.45, 27.3 17.07, 38.21 12 C49.13 6.93, 63.63 5.05, 76.46 3.16 C89.29 1.27, 108.59 1.02, 115.2 0.64 C121.8 0.26, 116.23 -0.05, 116.09 0.88" stroke="#1e1e1e" stroke-width="1" fill="none"></path></g><g transform="translate(183.76979063134513 809.3735931288074) rotate(0 46.01953125 20.700000000000045)"><text x="46.01953125" y="0" font-family="Helvetica, Segoe UI Emoji" font-size="36px" fill="#1e1e1e" text-anchor="middle" style="white-space: pre;" direction="ltr" dominant-baseline="text-before-edge">Client</text></g><g stroke-linecap="round" transform="translate(130 510) rotate(0 100 60)"><path d="M70.61 3.47 C82.46 0.24, 98.83 -0.27, 112.26 0.58 C125.69 1.43, 139.73 4.54, 151.19 8.55 C162.66 12.56, 173.41 17.92, 181.05 24.64 C188.7 31.36, 194.17 40.88, 197.08 48.87 C199.99 56.85, 201.43 64.7, 198.49 72.57 C195.56 80.44, 187.79 89.59, 179.47 96.09 C171.15 102.59, 160.37 107.48, 148.58 111.59 C136.8 115.69, 122.22 119.78, 108.76 120.71 C95.29 121.64, 80.65 119.96, 67.81 117.16 C54.97 114.36, 41.54 109.57, 31.72 103.9 C21.9 98.24, 14.26 90.64, 8.88 83.15 C3.51 75.66, -0.41 67.04, -0.52 58.98 C-0.62 50.92, 2.38 42.02, 8.26 34.78 C14.14 27.54, 22.74 21.06, 34.74 15.55 C46.73 10.04, 71.33 3.98, 80.25 1.73 C89.18 -0.52, 87.91 1.06, 88.28 2.06 M59.39 5.41 C70.8 1.45, 89.49 -0.59, 103.04 -0.77 C116.6 -0.95, 128.6 0.64, 140.72 4.33 C152.83 8.02, 166.77 14.99, 175.75 21.37 C184.73 27.74, 190.67 35.07, 194.61 42.57 C198.55 50.07, 201.08 58.5, 199.42 66.36 C197.75 74.23, 191.74 82.77, 184.6 89.74 C177.46 96.71, 167.61 103.13, 156.57 108.19 C145.52 113.26, 131.72 118.56, 118.32 120.14 C104.92 121.71, 89.45 119.6, 76.17 117.66 C62.9 115.71, 49.05 113.39, 38.66 108.49 C28.27 103.58, 20.41 95.52, 13.82 88.22 C7.23 80.92, 0.4 72.46, -0.86 64.69 C-2.13 56.92, 1.49 49.3, 6.24 41.61 C11 33.92, 18.29 24.75, 27.64 18.55 C37 12.36, 56.7 6.62, 62.36 4.43 C68.03 2.25, 61.01 4.33, 61.65 5.45" stroke="none" stroke-width="0" fill="#868e96"></path><path d="M82.76 1.34 C95.2 -1.06, 110.46 -0.03, 123.55 1.75 C136.63 3.53, 150.34 6.97, 161.27 12.02 C172.2 17.07, 182.75 24.82, 189.12 32.04 C195.48 39.27, 198.63 47.42, 199.46 55.39 C200.29 63.35, 198.83 72.21, 194.1 79.85 C189.37 87.49, 180.44 95.2, 171.09 101.25 C161.75 107.3, 150.57 113.1, 138.03 116.15 C125.5 119.2, 109.65 120.03, 95.88 119.57 C82.1 119.11, 67.29 117.07, 55.36 113.4 C43.42 109.74, 32.88 103.83, 24.27 97.58 C15.65 91.33, 7.47 83.73, 3.67 75.93 C-0.13 68.12, -0.47 58.7, 1.44 50.73 C3.35 42.76, 7.97 34.85, 15.11 28.12 C22.25 21.39, 32.53 14.89, 44.28 10.34 C56.03 5.79, 78.07 2.22, 85.61 0.8 C93.15 -0.62, 89.28 0.9, 89.49 1.82 M128.76 3.75 C141.08 5.12, 153.64 9.99, 163.93 15.13 C174.22 20.26, 184.73 27.49, 190.5 34.57 C196.28 41.65, 198.51 49.52, 198.6 57.59 C198.69 65.66, 196.29 75.29, 191.05 83 C185.81 90.7, 177.07 98.02, 167.16 103.81 C157.26 109.6, 144.11 114.88, 131.62 117.73 C119.14 120.58, 105.35 121.85, 92.26 120.91 C79.16 119.96, 65.02 116.42, 53.05 112.07 C41.09 107.71, 28.93 100.97, 20.47 94.79 C12 88.62, 5.32 82.86, 2.27 75.01 C-0.78 67.17, -0.67 55.73, 2.17 47.72 C5.01 39.72, 11.87 33.54, 19.32 27 C26.76 20.46, 35.5 13.08, 46.83 8.47 C58.17 3.86, 73.74 0.41, 87.33 -0.67 C100.92 -1.74, 121.65 1.28, 128.38 2.03 C135.12 2.78, 128.35 2.95, 127.72 3.85" stroke="#1e1e1e" stroke-width="1" fill="none"></path></g><g transform="translate(183.76979063134513 549.3735931288074) rotate(0 46.01953125 20.700000000000045)"><text x="46.01953125" y="0" font-family="Helvetica, Segoe UI Emoji" font-size="36px" fill="#1e1e1e" text-anchor="middle" style="white-space: pre;" direction="ltr" dominant-baseline="text-before-edge">Client</text></g><g stroke-linecap="round"><g transform="translate(331.3066595458905 342.18857827371266) rotate(0 133.3383027778092 80.86319624900443)"><path d="M1.11 0.09 C45.44 27.19, 221.59 134.64, 265.57 161.64" stroke="#1e1e1e" stroke-width="1.5" fill="none" stroke-dasharray="8 9"></path></g><g transform="translate(331.3066595458905 342.18857827371266) rotate(0 133.3383027778092 80.86319624900443)"><path d="M236.31 156.55 C242.53 156.92, 251.04 157.14, 267.17 162.01" stroke="#1e1e1e" stroke-width="1.5" fill="none"></path></g><g transform="translate(331.3066595458905 342.18857827371266) rotate(0 133.3383027778092 80.86319624900443)"><path d="M247.02 139.05 C250.25 144.16, 255.92 149.01, 267.17 162.01" stroke="#1e1e1e" stroke-width="1.5" fill="none"></path></g></g><mask></mask><g stroke-linecap="round"><g transform="translate(330.7205161760429 565.4651613963788) rotate(0 133.05790705312216 -6.558696516770397)"><path d="M0.52 -0.83 C44.6 -2.89, 221.55 -10.6, 265.59 -12.28" stroke="#1e1e1e" stroke-width="1.5" fill="none" stroke-dasharray="8 9"></path></g><g transform="translate(330.7205161760429 565.4651613963788) rotate(0 133.05790705312216 -6.558696516770397)"><path d="M236.46 -0.94 C248.05 -6.9, 261.2 -9.57, 265 -13.2" stroke="#1e1e1e" stroke-width="1.5" fill="none"></path></g><g transform="translate(330.7205161760429 565.4651613963788) rotate(0 133.05790705312216 -6.558696516770397)"><path d="M235.61 -21.44 C247.55 -19.37, 261.03 -14, 265 -13.2" stroke="#1e1e1e" stroke-width="1.5" fill="none"></path></g></g><mask></mask><g stroke-linecap="round"><g transform="translate(328.81799001435843 811.7819272146098) rotate(0 133.31754362096 -110.44405556030529)"><path d="M-0.04 -0.4 C44.32 -37.01, 222.04 -183.58, 266.68 -220.48" stroke="#1e1e1e" stroke-width="1.5" fill="none" stroke-dasharray="8 9"></path></g><g transform="translate(328.81799001435843 811.7819272146098) rotate(0 133.31754362096 -110.44405556030529)"><path d="M250.8 -196.06 C258.47 -203.13, 261.5 -213.3, 266.98 -221.88" stroke="#1e1e1e" stroke-width="1.5" fill="none"></path></g><g transform="translate(328.81799001435843 811.7819272146098) rotate(0 133.31754362096 -110.44405556030529)"><path d="M237.73 -211.88 C249.79 -213.51, 257.3 -218.25, 266.98 -221.88" stroke="#1e1e1e" stroke-width="1.5" fill="none"></path></g></g><mask></mask><g stroke-linecap="round" transform="translate(770 170) rotate(0 190 110)"><path d="M31.93 -0.67 L346.56 1.6 L355.87 -0.1 L366.58 4.8 L374.1 10.89 L377.09 19.24 L381.02 30.83 L379.22 186.48 L378.48 197.3 L373.57 207.12 L366.33 216.42 L360.22 217.78 L347.88 220.32 L32.2 219.61 L24.89 220.17 L13.03 214.81 L4.11 208.67 L3.67 202.59 L-0.24 189.57 L-1.42 25.21 L2.01 18.12 L6.17 6.43 L16.5 1.63 L30.32 0.08" stroke="none" stroke-width="0" fill="#ffd8a8"></path><path d="M32 0 M32 0 C102.04 0.2, 169.51 -0.86, 348 0 M32 0 C96.16 -2.47, 160.61 -1.4, 348 0 M348 0 C367.47 -0.26, 379.77 9.15, 380 32 M348 0 C368.48 -0.82, 379.02 10.86, 380 32 M380 32 C380.31 62.68, 380.3 96.82, 380 188 M380 32 C381.34 85.2, 381.32 137.5, 380 188 M380 188 C378.66 207.39, 370.64 221.86, 348 220 M380 188 C378.63 207.64, 369.92 219.08, 348 220 M348 220 C275.85 222.62, 203.5 221.87, 32 220 M348 220 C230.56 218.22, 113.44 219.38, 32 220 M32 220 C11.88 221.46, 0.91 207.42, 0 188 M32 220 C11.82 222.1, 1.35 207.48, 0 188 M0 188 C1.06 138.37, -0.81 83.15, 0 32 M0 188 C-1 154.63, -0.23 120.45, 0 32 M0 32 C-1.52 9.15, 9.55 -1.25, 32 0 M0 32 C-1.25 12.58, 8.54 -1.25, 32 0" stroke="#1e1e1e" stroke-width="1" fill="none"></path></g><g stroke-linecap="round" transform="translate(810 290) rotate(0 70 30)"><path d="M13.56 1.6 L131.94 0.34 L135.33 4.05 L138.37 9.87 L138.15 52.8 L135.16 56.72 L124.22 58.48 L7.42 60.86 L1.82 55.87 L-0.93 49.43 L-1.55 11.26 L3.63 4.07 L8.64 0.55 L15.39 0.67" stroke="none" stroke-width="0" fill="#fca326"></path><path d="M15 0 M15 0 C52.06 1.88, 87.37 -0.03, 125 0 M125 0 C136.57 -1.92, 140.71 5.01, 140 15 M140 15 C138.23 23.82, 138.04 33.45, 140 45 M140 45 C138.37 56.41, 135.89 61.49, 125 60 M125 60 C80.78 59.62, 42.24 60.62, 15 60 M15 60 C3.65 61.88, 1.68 53.13, 0 45 M0 45 C-0.71 35.67, -0.82 27.95, 0 15 M0 15 C-1.91 3.78, 3.94 1.26, 15 0" stroke="#1e1e1e" stroke-width="1.5" fill="none" stroke-dasharray="8 9"></path></g><g transform="translate(827.1923828125 308.5) rotate(0 52.8076171875 11.5)"><text x="52.8076171875" y="0" font-family="Helvetica, Segoe UI Emoji" font-size="20px" fill="#1e1e1e" text-anchor="middle" style="white-space: pre;" direction="ltr" dominant-baseline="text-before-edge">Select/Epoll</text></g><g stroke-linecap="round" transform="translate(970 290) rotate(0 70 30)"><path d="M14.08 0.3 L130.17 -0.67 L135.34 4.99 L140.78 10.31 L138.28 50.04 L133.12 59.69 L123.07 59.62 L7.27 59.98 L1.97 56.03 L0.11 48.83 L0.44 11.1 L4.14 4.42 L8.96 0.25 L14.61 1.17" stroke="none" stroke-width="0" fill="#fca326"></path><path d="M15 0 M15 0 C58.75 -1.79, 100.06 0.14, 125 0 M125 0 C135.12 -1.83, 138.43 3.5, 140 15 M140 15 C138.11 24.86, 140.63 33.38, 140 45 M140 45 C141.69 54.33, 135.19 58.05, 125 60 M125 60 C93.32 62.16, 66.02 58.42, 15 60 M15 60 C4.74 59.77, -1.52 54.26, 0 45 M0 45 C-1.78 35.85, -0.93 30.41, 0 15 M0 15 C-1.21 6.25, 6.05 0.8, 15 0" stroke="#1e1e1e" stroke-width="1.5" fill="none" stroke-dasharray="8 9"></path></g><g transform="translate(1001.09375 308.5) rotate(0 38.90625 11.5)"><text x="38.90625" y="0" font-family="Helvetica, Segoe UI Emoji" font-size="20px" fill="#1e1e1e" text-anchor="middle" style="white-space: pre;" direction="ltr" dominant-baseline="text-before-edge">Dispatch</text></g><g transform="translate(850 210) rotate(0 123.0380859375 20.700000000000045)"><text x="123.0380859375" y="0" font-family="Helvetica, Segoe UI Emoji" font-size="36px" fill="#1e1e1e" text-anchor="middle" style="white-space: pre;" direction="ltr" dominant-baseline="text-before-edge">Master Reactor</text></g><g stroke-linecap="round" transform="translate(1550 230) rotate(0 130 170)"><path d="M33.02 -1.17 L227.22 -1.52 L240.98 3.8 L250.07 7.62 L254.33 13.42 L256.22 17.78 L259.88 32.32 L260.2 307.61 L258.39 322.67 L252.53 331.31 L247.11 336.67 L243.67 338.59 L227.76 341.57 L30.08 340.71 L18.01 338.12 L10.67 333.93 L3 327.13 L0.32 322.08 L-1.63 309.41 L1.39 25.99 L3.69 17.33 L8.19 6.05 L17.51 3.78 L32.52 -1.35" stroke="none" stroke-width="0" fill="#a5d8ff"></path><path d="M32 0 M32 0 C108.94 1.6, 184.88 1.09, 228 0 M32 0 C82.82 -0.78, 135.02 0.46, 228 0 M228 0 C248.12 1.25, 261.05 11.46, 260 32 M228 0 C251.06 1.47, 260.4 11.08, 260 32 M260 32 C257.36 120.09, 260.3 205.25, 260 308 M260 32 C259.98 94.04, 261.3 156.76, 260 308 M260 308 C260.64 328.34, 248.91 341.42, 228 340 M260 308 C258.59 328.13, 248.6 338, 228 340 M228 340 C174.07 342.1, 115.3 342.19, 32 340 M228 340 C151.6 338.27, 73.61 338.84, 32 340 M32 340 C12.47 338.96, -1.99 327.62, 0 308 M32 340 C11.15 341.16, -1.54 329.55, 0 308 M0 308 C0.13 221.49, 0.33 135.87, 0 32 M0 308 C1.35 202.55, 2.62 96.07, 0 32 M0 32 C-1.67 9.9, 11.75 1.48, 32 0 M0 32 C1.25 9.82, 12.95 -0.53, 32 0" stroke="#1e1e1e" stroke-width="1" fill="none"></path></g><g stroke-linecap="round" transform="translate(650 770) rotate(0 160 80)"><path d="M30.98 1.8 L286.07 -0.38 L294.33 1.42 L305.72 4.28 L315.38 12.82 L318.2 17.61 L320.39 32.67 L320.53 127.31 L319.11 136.67 L317.17 148.09 L307.26 157.07 L300.08 158.71 L288.01 160.12 L30.17 158.43 L23 159.13 L10.82 155.58 L2.87 148.91 L1.39 136.99 L2.19 23.83 L2.19 16.05 L7.51 9.78 L18.52 0.65 L33.88 1.68" stroke="none" stroke-width="0" fill="#ffc9c9"></path><path d="M32 0 M32 0 C83.68 -0.36, 137.23 -0.45, 288 0 M32 0 C110.57 1.77, 189.51 1.77, 288 0 M288 0 C310.38 0.8, 321.5 11.94, 320 32 M288 0 C309.73 0.41, 320.36 9.44, 320 32 M320 32 C320.93 53.19, 317.59 77.28, 320 128 M320 32 C320.28 56.79, 319.62 81.43, 320 128 M320 128 C319.58 150.75, 308.11 158.95, 288 160 M320 128 C319.27 147.34, 308.93 161.78, 288 160 M288 160 C194.17 161.75, 104.9 161.88, 32 160 M288 160 C230.98 160.03, 176.29 159.27, 32 160 M32 160 C8.67 158.29, 0.42 150.34, 0 128 M32 160 C9.13 160.22, 0.24 147.93, 0 128 M0 128 C-0.52 105.43, 2.39 83.19, 0 32 M0 128 C1.61 103.81, -0.06 80.44, 0 32 M0 32 C1.09 12.15, 11.75 -0.74, 32 0 M0 32 C2.28 10.13, 10.66 -0.68, 32 0" stroke="#1e1e1e" stroke-width="1" fill="none"></path></g><g stroke-linecap="round" transform="translate(670 830) rotate(0 60 30)"><path d="M13.07 -0.38 L103.83 0.92 L112.36 1.89 L117.77 6.18 L119.97 11.1 L120.39 45.67 L118.42 53.45 L113.76 59.07 L106.67 60.59 L14.76 61.57 L3.94 58.6 L2.11 54.27 L-1.6 46.95 L-1.26 11.11 L2.07 3.83 L6.8 2.35 L15.89 1.49" stroke="none" stroke-width="0" fill="#ff8787"></path><path d="M15 0 M15 0 C47.63 -0.57, 85.95 0.43, 105 0 M15 0 C35.01 -0.89, 56.76 -1.52, 105 0 M105 0 C114.26 -0.72, 119.14 5.17, 120 15 M105 0 C112.8 -1.41, 118.78 6.45, 120 15 M120 15 C120.99 23.68, 121.46 29.72, 120 45 M120 15 C119.38 23.57, 120.7 35.01, 120 45 M120 45 C118.81 53.53, 115.51 59.2, 105 60 M120 45 C118.33 53.78, 117.23 59.6, 105 60 M105 60 C76.55 58.59, 44.22 59.17, 15 60 M105 60 C86.42 61.43, 67.09 59.74, 15 60 M15 60 C6 61.83, 1.17 53.39, 0 45 M15 60 C5.68 59.66, -2.28 55.96, 0 45 M0 45 C-1.55 33.72, 1.16 20.25, 0 15 M0 45 C-0.79 34.96, -0.59 25.8, 0 15 M0 15 C-1.09 6.66, 3.15 -1.09, 15 0 M0 15 C-1.84 5.84, 6.93 -1.38, 15 0" stroke="#1e1e1e" stroke-width="1" fill="none"></path></g><g transform="translate(696.53125 843.9000000000001) rotate(0 33.46875 16.09999999999991)"><text x="33.46875" y="0" font-family="Helvetica, Segoe UI Emoji" font-size="28px" fill="#1e1e1e" text-anchor="middle" style="white-space: pre;" direction="ltr" dominant-baseline="text-before-edge">Read</text></g><g stroke-linecap="round" transform="translate(830 830) rotate(0 60 30)"><path d="M13.22 -0.22 L104.88 0.32 L114.34 1.72 L118.28 6.53 L120.29 10.8 L119.61 46.17 L119.56 54.73 L113.9 59.46 L103.08 60.71 L15.01 60.12 L4.03 56.32 L0.61 53.77 L-1.45 48.59 L-1.4 12.9 L4.64 5.24 L10.12 0.27 L15.19 -1.95" stroke="none" stroke-width="0" fill="#ff8787"></path><path d="M15 0 M15 0 C38.47 1.64, 66.32 -2.1, 105 0 M15 0 C40.47 0.32, 66.25 0.77, 105 0 M105 0 C113.09 -1.22, 118.94 6.26, 120 15 M105 0 C113.61 1.44, 121.21 5.92, 120 15 M120 15 C120.55 26.56, 119.13 36.16, 120 45 M120 15 C119.6 20.34, 120.45 26.77, 120 45 M120 45 C118.55 53.94, 116.94 59.65, 105 60 M120 45 C120.73 53.86, 114.52 61.63, 105 60 M105 60 C81.76 59.37, 63.55 60.92, 15 60 M105 60 C71.92 60.05, 38.43 58.33, 15 60 M15 60 C5.59 59.7, -1.98 55.83, 0 45 M15 60 C7.07 58.8, -2.29 53.03, 0 45 M0 45 C0.04 35.57, -1.37 24.21, 0 15 M0 45 C-0.38 39.1, -0.76 30.99, 0 15 M0 15 C-1.6 5.73, 6.68 -1.2, 15 0 M0 15 C-1.92 4.12, 6.25 1.7, 15 0" stroke="#1e1e1e" stroke-width="1" fill="none"></path></g><g transform="translate(857.5908203125 843.9000000000001) rotate(0 32.4091796875 16.09999999999991)"><text x="32.4091796875" y="0" font-family="Helvetica, Segoe UI Emoji" font-size="28px" fill="#1e1e1e" text-anchor="middle" style="white-space: pre;" direction="ltr" dominant-baseline="text-before-edge">Write</text></g><g stroke-linecap="round" transform="translate(1030 770) rotate(0 160 80)"><path d="M32.2 -0.39 L288.39 0.67 L296.03 -0.19 L307.11 5.67 L317.17 13.09 L317.76 19.57 L318.08 32.71 L320.01 128.12 L317.67 133.93 L314 147.13 L305.82 155.58 L300.37 159.41 L288.89 161.49 L33.69 159.33 L24.69 157.55 L12.01 157.28 L5.02 146.15 L2.38 137.18 L-1.37 24.24 L1.77 16.48 L7.26 7.28 L17.14 2.17 L30.09 -1.22" stroke="none" stroke-width="0" fill="#ffc9c9"></path><path d="M32 0 M32 0 C96.22 2.1, 159.06 2.46, 288 0 M32 0 C125.26 -0.8, 217.72 -1.16, 288 0 M288 0 C310.64 1.86, 318.81 9.19, 320 32 M288 0 C309.92 -0.92, 318.33 9.45, 320 32 M320 32 C318.84 69.71, 321.25 107.03, 320 128 M320 32 C319.52 56.54, 320.3 80.27, 320 128 M320 128 C320.91 147.42, 310.34 161.83, 288 160 M320 128 C321.35 147.48, 310.02 159.66, 288 160 M288 160 C235.75 160.25, 183.81 162.2, 32 160 M288 160 C198.4 159.71, 108.02 159.59, 32 160 M32 160 C9.55 158.75, -1.09 151, 0 128 M32 160 C8.54 158.75, -1.84 150.17, 0 128 M0 128 C-0.19 92.24, 2.05 55.4, 0 32 M0 128 C-0.96 102.45, 0.02 78.04, 0 32 M0 32 C1.36 11.5, 11.17 -0.18, 32 0 M0 32 C-1.77 12.03, 12.01 1.02, 32 0" stroke="#1e1e1e" stroke-width="1" fill="none"></path></g><g stroke-linecap="round" transform="translate(1050 830) rotate(0 60 30)"><path d="M15.39 0.67 L105.53 -0.69 L113.76 3.28 L119.56 6.45 L119.52 13.06 L118.08 45.71 L117.9 54.27 L112.31 56.32 L103.5 59.63 L13.32 60.08 L4.23 59.3 L3 55.63 L1.92 47.85 L0.42 9.53 L3.26 5.53 L8.96 -0.41 L16.88 1.68" stroke="none" stroke-width="0" fill="#ff8787"></path><path d="M15 0 M15 0 C32.08 -0.64, 51.48 -0.75, 105 0 M15 0 C42.24 1.18, 69.94 1.18, 105 0 M105 0 C116.05 0.8, 121.5 6.28, 120 15 M105 0 C115.4 0.41, 120.36 3.78, 120 15 M120 15 C121.57 20.8, 118.23 29.5, 120 45 M120 15 C120.75 22.62, 120.1 30.1, 120 45 M120 45 C119.58 56.42, 113.78 58.95, 105 60 M120 45 C119.27 53, 114.6 61.78, 105 60 M105 60 C70.64 61.41, 41.94 61.58, 15 60 M105 60 C84.24 60.28, 66.37 59.34, 15 60 M15 60 C3.01 58.29, 0.42 56.01, 0 45 M15 60 C3.46 60.22, 0.24 53.6, 0 45 M0 45 C-1.02 37.2, 1.89 29.73, 0 15 M0 45 C1.08 37.03, -0.59 29.88, 0 15 M0 15 C1.09 6.48, 6.09 -0.74, 15 0 M0 15 C2.28 4.47, 4.99 -0.68, 15 0" stroke="#1e1e1e" stroke-width="1" fill="none"></path></g><g transform="translate(1076.53125 843.9000000000001) rotate(0 33.46875 16.09999999999991)"><text x="33.46875" y="0" font-family="Helvetica, Segoe UI Emoji" font-size="28px" fill="#1e1e1e" text-anchor="middle" style="white-space: pre;" direction="ltr" dominant-baseline="text-before-edge">Read</text></g><g stroke-linecap="round" transform="translate(1210 830) rotate(0 60 30)"><path d="M14.61 1.17 L106.67 0.59 L113.9 3.68 L115.97 6.57 L119.77 11.61 L118.17 43.43 L116.39 53.77 L112.46 57.97 L103.37 61.41 L15.89 61.49 L7.55 57.22 L2.3 52.19 L-0.25 50.3 L0.75 10.14 L5.63 5.43 L6.57 0.68 L14.77 -1.52" stroke="none" stroke-width="0" fill="#ff8787"></path><path d="M15 0 M15 0 C38.83 -1.53, 61.09 -0.68, 105 0 M15 0 C48.2 -0.17, 81.09 0.07, 105 0 M105 0 C115.35 0.36, 120.31 3.94, 120 15 M105 0 C113.46 -2.24, 121.5 7.14, 120 15 M120 15 C118.98 20.76, 118.72 31.36, 120 45 M120 15 C119.89 24.18, 119.48 31.42, 120 45 M120 45 C119.36 53.26, 114.65 61.55, 105 60 M120 45 C121.39 56.68, 116.05 57.8, 105 60 M105 60 C71.88 61.12, 41.68 58.54, 15 60 M105 60 C73.26 58.68, 43.73 60.03, 15 60 M15 60 C3.66 60.19, 0.21 53.78, 0 45 M15 60 C3.25 58.26, -1.28 53.56, 0 45 M0 45 C-1.34 36.03, 0.48 31.94, 0 15 M0 45 C0.79 38.54, 0.79 30.22, 0 15 M0 15 C1.98 4.54, 4.99 -0.59, 15 0 M0 15 C2.24 6.26, 6.56 0.95, 15 0" stroke="#1e1e1e" stroke-width="1" fill="none"></path></g><g transform="translate(1237.5908203125 843.9000000000001) rotate(0 32.4091796875 16.09999999999991)"><text x="32.4091796875" y="0" font-family="Helvetica, Segoe UI Emoji" font-size="28px" fill="#1e1e1e" text-anchor="middle" style="white-space: pre;" direction="ltr" dominant-baseline="text-before-edge">Write</text></g><g transform="translate(730 790) rotate(0 77.7978515625 11.5)"><text x="77.7978515625" y="0" font-family="Helvetica, Segoe UI Emoji" font-size="20px" fill="#1e1e1e" text-anchor="middle" style="white-space: pre;" direction="ltr" dominant-baseline="text-before-edge">业务逻辑 Handler</text></g><g transform="translate(1130 790) rotate(0 77.7978515625 11.5)"><text x="77.7978515625" y="0" font-family="Helvetica, Segoe UI Emoji" font-size="20px" fill="#1e1e1e" text-anchor="middle" style="white-space: pre;" direction="ltr" dominant-baseline="text-before-edge">业务逻辑 Handler</text></g><g stroke-linecap="round" transform="translate(730 1110) rotate(0 280 120)"><path d="M30.32 0.08 L526.37 1.41 L542.89 3.49 L553.69 7.33 L555.69 10.55 L559.01 26.28 L560.52 206.65 L559.88 223.68 L553.63 227.24 L547.27 233.98 L541.26 237.28 L527.14 240.17 L30.09 238.78 L16.94 239.26 L11.29 236.75 L5.55 228.3 L2 216.78 L0.35 32.36 L2.31 16.94 L6.66 6.05 L19.3 3.86 L30.81 -1.47" stroke="none" stroke-width="0" fill="#ff8787"></path><path d="M32 0 M32 0 C193.01 2.25, 354.75 1.72, 528 0 M32 0 C155.88 -1.64, 280.14 -1.78, 528 0 M528 0 C548.99 1.55, 561.21 12.13, 560 32 M528 0 C550.38 -2.2, 561.15 12.77, 560 32 M560 32 C558.29 93.11, 559.42 159.99, 560 208 M560 32 C558.46 76.14, 557.58 119.37, 560 208 M560 208 C560.21 228.11, 547.81 238.49, 528 240 M560 208 C558.72 227.9, 548.08 241.91, 528 240 M528 240 C425.3 239.06, 321.51 237.71, 32 240 M528 240 C398.35 241.34, 268.66 241.4, 32 240 M32 240 C10.66 239.41, 1.94 230.43, 0 208 M32 240 C12.23 240.95, 0.58 229.13, 0 208 M0 208 C-0.15 170.3, -0.36 130.96, 0 32 M0 208 C-0.46 164, -0.11 118.8, 0 32 M0 32 C0.44 11.69, 12.23 0.01, 32 0 M0 32 C2.3 10.65, 11.06 -1.47, 32 0" stroke="#1e1e1e" stroke-width="1" fill="none"></path></g><g stroke-linecap="round" transform="translate(770 1170) rotate(0 100 70)"><path d="M30.37 1.41 L168.89 1.49 L183.69 1.33 L192.19 6.05 L197.51 19.78 L200.52 30.65 L201.38 117.18 L196.13 121.74 L191.77 130.48 L181.26 137.28 L167.14 140.17 L30.09 138.78 L16.94 139.26 L6.79 133.25 L5.55 128.3 L2 116.78 L0.85 24.86 L2.31 16.94 L6.66 6.05 L19.3 3.86 L30.81 -1.47" stroke="none" stroke-width="0" fill="#fff"></path><path d="M32 0 M32 0 C75.21 2.93, 120.18 1.62, 168 0 M168 0 C188.34 -0.42, 201.42 9.44, 200 32 M200 32 C199.41 52.36, 200.97 71.1, 200 108 M200 108 C200.91 127.42, 190.34 141.83, 168 140 M168 140 C118.95 138.42, 71.32 142.21, 32 140 M32 140 C9.63 138.01, -1.71 129.75, 0 108 M0 108 C0.72 80.16, -1.02 53.24, 0 32 M0 32 C-1.12 9.42, 9.58 1.66, 32 0" stroke="#1e1e1e" stroke-width="1.5" fill="none" stroke-dasharray="8 9"></path></g><g stroke-linecap="round" transform="translate(790 1230) rotate(0 80 30)"><path d="M15.89 1.49 L153.25 0.27 L156.44 1.8 L159.28 13.27 L159.58 50.22 L156.02 59.57 L143.13 59.74 L8.2 57.55 L3.01 55.53 L-0.62 48.69 L-1.68 10.26 L2.69 5.01 L7.23 2.19 L16.05 0.8" stroke="none" stroke-width="0" fill="#ced4da"></path><path d="M15 0 M15 0 C64.09 0.09, 111.4 -1.56, 145 0 M15 0 C40.76 -1.95, 67.97 -1.61, 145 0 M145 0 C153.55 -1.06, 161.94 4.65, 160 15 M145 0 C155.73 -1.14, 159.52 6.63, 160 15 M160 15 C158.11 21.82, 161.39 30.54, 160 45 M160 15 C160.64 27.11, 160.72 36.58, 160 45 M160 45 C160.59 54.7, 153.02 60.83, 145 60 M160 45 C162.07 53.8, 152.71 58.03, 145 60 M145 60 C103.45 59.34, 60.3 57.61, 15 60 M145 60 C115.28 60.02, 85.73 58.64, 15 60 M15 60 C3.4 60.73, 1.68 53.8, 0 45 M15 60 C3.08 59.12, 1.25 56.7, 0 45 M0 45 C-0.35 34.36, -0.48 25.69, 0 15 M0 45 C0.05 34.26, -0.97 24.3, 0 15 M0 15 C1.17 5.89, 6.53 0.68, 15 0 M0 15 C1.64 3.88, 4.76 0.06, 15 0" stroke="#1e1e1e" stroke-width="1" fill="none"></path></g><g transform="translate(819.427734375 1243.9) rotate(0 50.572265625 16.09999999999991)"><text x="50.572265625" y="0" font-family="Helvetica, Segoe UI Emoji" font-size="28px" fill="#1e1e1e" text-anchor="middle" style="white-space: pre;" direction="ltr" dominant-baseline="text-before-edge">Process</text></g><g transform="translate(830 1190) rotate(0 44.857421875 16.09999999999991)"><text x="44.857421875" y="0" font-family="Helvetica, Segoe UI Emoji" font-size="28px" fill="#1e1e1e" text-anchor="middle" style="white-space: pre;" direction="ltr" dominant-baseline="text-before-edge">Worker</text></g><g stroke-linecap="round" transform="translate(1050 1170) rotate(0 100 70)"><path d="M31.51 1.78 L168.52 -1.35 L183.88 3.68 L190.13 7.74 L197.77 16.48 L199.26 31.28 L198.64 115.67 L196.09 120.78 L190.94 133.26 L180.79 139.25 L169.05 140.8 L33.5 141.28 L18.35 138.36 L8.31 130.94 L3.16 125.55 L1.8 117.36 L-0.69 23.03 L2.51 17.2 L6.55 6.94 L19.94 1.65 L32.64 -0.99" stroke="none" stroke-width="0" fill="#fff"></path><path d="M32 0 M32 0 C68.89 0.19, 106.14 0.48, 168 0 M168 0 C190.88 1.21, 201.46 11.58, 200 32 M200 32 C201.55 45.91, 200.97 62.73, 200 108 M200 108 C198.02 130.16, 191.14 138.96, 168 140 M168 140 C141.77 138.95, 113.72 140.49, 32 140 M32 140 C9.45 138.48, -1.51 128.22, 0 108 M0 108 C-1.43 88.86, -1.19 72.63, 0 32 M0 32 C1.68 9.47, 9 -0.76, 32 0" stroke="#1e1e1e" stroke-width="1.5" fill="none" stroke-dasharray="8 9"></path></g><g stroke-linecap="round" transform="translate(1070 1230) rotate(0 80 30)"><path d="M15.52 -1.35 L153.44 2.62 L154.38 3.49 L159.53 9.97 L158.32 50.85 L153.28 58.06 L143.09 58.78 L7.38 60.32 L2.54 57.5 L1.28 49.31 L1.73 12.76 L4.1 4.11 L8.75 -0.13 L13.66 -1.95" stroke="none" stroke-width="0" fill="#ced4da"></path><path d="M15 0 M15 0 C60.99 1.29, 109.12 -0.67, 145 0 M15 0 C47.44 -0.27, 79.02 0.94, 145 0 M145 0 C153.78 -1.05, 159.36 3.26, 160 15 M145 0 C154.6 1.78, 161.39 6.68, 160 15 M160 15 C161.54 26.54, 158.1 36.32, 160 45 M160 15 C160.6 23.03, 158.71 31.25, 160 45 M160 45 C160.42 56.01, 153.66 60.19, 145 60 M160 45 C160.24 53.6, 153.25 58.26, 145 60 M145 60 C114.91 57.45, 80.41 57.69, 15 60 M145 60 C100.42 58.84, 58.06 59.96, 15 60 M15 60 C6.09 59.26, 1.98 54.54, 0 45 M15 60 C4.99 59.32, 2.24 56.26, 0 45 M0 45 C-0.3 32.42, 1.06 24.09, 0 15 M0 45 C0.48 34.18, -0.33 24.35, 0 15 M0 15 C-1.29 5.48, 4.42 -1.44, 15 0 M0 15 C0.5 6.18, 6.8 0.01, 15 0" stroke="#1e1e1e" stroke-width="1" fill="none"></path></g><g transform="translate(1099.427734375 1243.9) rotate(0 50.572265625 16.09999999999991)"><text x="50.572265625" y="0" font-family="Helvetica, Segoe UI Emoji" font-size="28px" fill="#1e1e1e" text-anchor="middle" style="white-space: pre;" direction="ltr" dominant-baseline="text-before-edge">Process</text></g><g transform="translate(1110 1190) rotate(0 44.857421875 16.09999999999991)"><text x="44.857421875" y="0" font-family="Helvetica, Segoe UI Emoji" font-size="28px" fill="#1e1e1e" text-anchor="middle" style="white-space: pre;" direction="ltr" dominant-baseline="text-before-edge">Worker</text></g><g transform="translate(930 1070) rotate(0 98 16.09999999999991)"><text x="98" y="0" font-family="Helvetica, Segoe UI Emoji" font-size="28px" fill="#1e1e1e" text-anchor="middle" style="white-space: pre;" direction="ltr" dominant-baseline="text-before-edge">业务逻辑线程池</text></g><g stroke-linecap="round" transform="translate(1070 510) rotate(0 130 75.26315789473688)"><path d="M30.02 1.83 L229.8 0.22 L235.75 0.53 L246.15 4.63 L257.49 13.93 L257.92 18.95 L261.72 31.94 L261.15 120.38 L258.98 126.5 L253.87 139.99 L246.33 146.92 L240.16 146.9 L228.87 148.57 L31.63 150.7 L22.72 151.74 L12.93 144.41 L5.53 138.72 L-0.79 126.06 L-0.5 25.22 L1.19 16.08 L7.33 6.5 L17.1 3.49 L32.79 -0.28" stroke="none" stroke-width="0" fill="#ffd8a8"></path><path d="M32 0 M32 0 C74.28 1.15, 114.47 0.06, 228 0 M32 0 C90.35 1.86, 150.5 0.4, 228 0 M228 0 C249.74 -1.52, 258.47 12.35, 260 32 M228 0 C249.68 0, 258.41 9.86, 260 32 M260 32 C259.75 56.7, 260.81 84.85, 260 118.53 M260 32 C260.6 60.01, 259.99 88.59, 260 118.53 M260 118.53 C258.11 139.42, 248.04 149.8, 228 150.53 M260 118.53 C258.98 141.37, 251.51 150.82, 228 150.53 M228 150.53 C171.66 147.47, 112.64 148.76, 32 150.53 M228 150.53 C168.75 148.96, 111.54 147.93, 32 150.53 M32 150.53 C11.03 151.93, -1.99 138.2, 0 118.53 M32 150.53 C9.73 151.25, 2.04 141.17, 0 118.53 M0 118.53 C1.81 91.52, -0.31 63.5, 0 32 M0 118.53 C1.23 100.95, 0.64 82.12, 0 32 M0 32 C-0.38 10.7, 9.28 0.92, 32 0 M0 32 C-1.85 12.04, 10.2 -0.46, 32 0" stroke="#1e1e1e" stroke-width="1" fill="none"></path></g><g stroke-linecap="round" transform="translate(1097.3684210526317 592.105263157895) rotate(0 47.89473684210532 20.526315789473756)"><path d="M12.07 0.22 L90.27 0.67 L93.8 5.9 L97.13 36.71 L93.15 39.44 L87.24 40.99 L6.92 42.26 L0.12 35.75 L-1.63 12.22 L1.4 3.46 L8.42 -1.63" stroke="none" stroke-width="0" fill="#fca326"></path><path d="M10.26 0 M10.26 0 C36.28 -1.64, 63.68 0.56, 85.53 0 M85.53 0 C90.76 1.03, 96.49 2.13, 95.79 10.26 M95.79 10.26 C94.88 14.54, 95.02 21.15, 95.79 30.79 M95.79 30.79 C94.89 39.12, 93.16 40.78, 85.53 41.05 M85.53 41.05 C70.71 41.72, 53.82 40.64, 10.26 41.05 M10.26 41.05 C3.46 42.77, -1.21 35.98, 0 30.79 M0 30.79 C0.37 21.74, -1.56 17.41, 0 10.26 M0 10.26 C0.3 3.42, 2.03 -0.7, 10.26 0" stroke="#1e1e1e" stroke-width="1.5" fill="none" stroke-dasharray="8 9"></path></g><g transform="translate(1110.436566403038 605.0425101214578) rotate(0 34.82659149169922 7.589068825910999)"><text x="34.82659149169922" y="0" font-family="Helvetica, Segoe UI Emoji" font-size="13.198380566801617px" fill="#1e1e1e" text-anchor="middle" style="white-space: pre;" direction="ltr" dominant-baseline="text-before-edge">Select/Epoll</text></g><g stroke-linecap="round" transform="translate(1206.842105263158 592.105263157895) rotate(0 47.89473684210532 20.526315789473756)"><path d="M8.91 0.13 L92 2.07 L95.07 6.73 L96.86 35.22 L94.37 40.34 L85 41.53 L4.14 42.37 L-0.53 36.18 L-1.84 8.64 L3.44 0.61 L9.9 0.17" stroke="none" stroke-width="0" fill="#fca326"></path><path d="M10.26 0 M10.26 0 C24.52 0.87, 42.7 -1.45, 85.53 0 M85.53 0 C92.4 -1, 96.51 2.61, 95.79 10.26 M95.79 10.26 C94.83 15.94, 96.51 18.37, 95.79 30.79 M95.79 30.79 C94 38.78, 92.02 42.08, 85.53 41.05 M85.53 41.05 C59.96 42.67, 33.1 39.29, 10.26 41.05 M10.26 41.05 C4.76 41.36, -1.57 38.04, 0 30.79 M0 30.79 C0.46 26.19, -1.23 20.89, 0 10.26 M0 10.26 C-0.03 2.8, 5.12 0.02, 10.26 0" stroke="#1e1e1e" stroke-width="1.5" fill="none" stroke-dasharray="8 9"></path></g><g transform="translate(1229.0781964753805 605.0425101214578) rotate(0 25.658645629882812 7.589068825910999)"><text x="25.658645629882812" y="0" font-family="Helvetica, Segoe UI Emoji" font-size="13.198380566801617px" fill="#1e1e1e" text-anchor="middle" style="white-space: pre;" direction="ltr" dominant-baseline="text-before-edge">Dispatch</text></g><g transform="translate(1143.8840460526317 537.3684210526317) rotate(0 65.03674958881584 14.163157894736742)"><text x="65.0367495888158" y="0" font-family="Helvetica, Segoe UI Emoji" font-size="24.63157894736842px" fill="#1e1e1e" text-anchor="middle" style="white-space: pre;" direction="ltr" dominant-baseline="text-before-edge">SubReactor</text></g><g stroke-linecap="round" transform="translate(650 510) rotate(0 130 75.26315789473688)"><path d="M31.33 1.49 L228 -1.04 L234.94 1.23 L249.14 4.6 L254.47 14.33 L259.06 18.16 L261.77 30.89 L260.11 119.98 L258.71 124.99 L254.69 138.31 L247.69 146.1 L241.23 149.41 L229.16 151.73 L31.66 152.03 L24.59 150.35 L12.98 146.35 L2.96 138.38 L0.7 127.55 L-0.18 23.71 L3.87 19.22 L9.23 7.75 L17.07 3.52 L32.27 -0.19" stroke="none" stroke-width="0" fill="#ffd8a8"></path><path d="M32 0 M32 0 C107.56 -1.08, 184.94 1.73, 228 0 M32 0 C96.55 0.34, 162.58 1.22, 228 0 M228 0 C248.62 -0.11, 258.32 10.2, 260 32 M228 0 C248.2 1.16, 259.48 12.82, 260 32 M260 32 C258.23 59.37, 260.08 89.22, 260 118.53 M260 32 C259.04 56.32, 258.3 82.37, 260 118.53 M260 118.53 C261.83 139.92, 250 151.26, 228 150.53 M260 118.53 C259.84 138.52, 247.41 150.28, 228 150.53 M228 150.53 C151.64 152.27, 75.61 152.9, 32 150.53 M228 150.53 C171.72 150.99, 115.65 151.14, 32 150.53 M32 150.53 C10.22 150.89, 0.09 138.93, 0 118.53 M32 150.53 C9.51 151.69, 1.58 141.04, 0 118.53 M0 118.53 C-2.19 86.88, 0.19 54.05, 0 32 M0 118.53 C-1.13 85.8, -1.14 51.98, 0 32 M0 32 C1.55 9.42, 10.02 0.66, 32 0 M0 32 C-1.51 11.79, 8.69 -0.53, 32 0" stroke="#1e1e1e" stroke-width="1" fill="none"></path></g><g stroke-linecap="round" transform="translate(677.3684210526317 592.105263157895) rotate(0 47.89473684210532 20.526315789473756)"><path d="M10.27 -1.04 L89.45 1.37 L96.79 5.88 L94.12 37.11 L94.28 38.65 L87.29 39.95 L5.88 41.87 L-0.15 34.25 L-0.81 10.54 L2.76 2.64 L9.49 0.89" stroke="none" stroke-width="0" fill="#fca326"></path><path d="M10.26 0 M10.26 0 C38.72 0.22, 64.5 0.61, 85.53 0 M85.53 0 C92.69 -1.54, 96.15 3.62, 95.79 10.26 M95.79 10.26 C97.59 19.2, 96.95 25.45, 95.79 30.79 M95.79 30.79 C94.86 39.16, 92.64 40.86, 85.53 41.05 M85.53 41.05 C54.01 40.08, 24.32 42.88, 10.26 41.05 M10.26 41.05 C4.1 40.6, -1.37 35.76, 0 30.79 M0 30.79 C-0.64 26.57, -1.6 22.1, 0 10.26 M0 10.26 C-0.99 4.43, 2.97 1.88, 10.26 0" stroke="#1e1e1e" stroke-width="1.5" fill="none" stroke-dasharray="8 9"></path></g><g transform="translate(690.4365664030379 605.0425101214578) rotate(0 34.82659149169922 7.589068825910999)"><text x="34.82659149169922" y="0" font-family="Helvetica, Segoe UI Emoji" font-size="13.198380566801617px" fill="#1e1e1e" text-anchor="middle" style="white-space: pre;" direction="ltr" dominant-baseline="text-before-edge">Select/Epoll</text></g><g stroke-linecap="round" transform="translate(786.8421052631584 592.105263157895) rotate(0 47.89473684210532 20.526315789473756)"><path d="M11.9 0.1 L88.98 2.47 L96.2 5.94 L96.91 34.17 L93.33 39.95 L84.73 40.02 L4.97 40.69 L0.83 35.35 L-0.77 11.15 L3.73 3.77 L9.92 1.5" stroke="none" stroke-width="0" fill="#fca326"></path><path d="M10.26 0 M10.26 0 C33.5 -1.72, 56.44 0.02, 85.53 0 M85.53 0 C93.89 -0.68, 95 5.29, 95.79 10.26 M95.79 10.26 C94.98 19.19, 96.19 24.89, 95.79 30.79 M95.79 30.79 C97.68 38.14, 92.45 39.25, 85.53 41.05 M85.53 41.05 C67.4 41.28, 46.54 39.86, 10.26 41.05 M10.26 41.05 C1.43 40.3, -0.24 36.92, 0 30.79 M0 30.79 C-0.81 25.75, -0.28 20.57, 0 10.26 M0 10.26 C0.59 2.43, 1.64 -1.34, 10.26 0" stroke="#1e1e1e" stroke-width="1.5" fill="none" stroke-dasharray="8 9"></path></g><g transform="translate(809.078196475381 605.0425101214578) rotate(0 25.658645629882812 7.589068825910999)"><text x="25.658645629882812" y="0" font-family="Helvetica, Segoe UI Emoji" font-size="13.198380566801617px" fill="#1e1e1e" text-anchor="middle" style="white-space: pre;" direction="ltr" dominant-baseline="text-before-edge">Dispatch</text></g><g transform="translate(723.8840460526317 537.3684210526317) rotate(0 65.03674958881584 14.163157894736742)"><text x="65.0367495888158" y="0" font-family="Helvetica, Segoe UI Emoji" font-size="24.63157894736842px" fill="#1e1e1e" text-anchor="middle" style="white-space: pre;" direction="ltr" dominant-baseline="text-before-edge">SubReactor</text></g><g transform="translate(1570 250) rotate(0 101.1376953125 16.09999999999991)"><text x="101.1376953125" y="0" font-family="Helvetica, Segoe UI Emoji" font-size="28px" fill="#1e1e1e" text-anchor="middle" style="white-space: pre;" direction="ltr" dominant-baseline="text-before-edge">Acceptor 线程池</text></g><g stroke-linecap="round" transform="translate(1590 310) rotate(0 90 30)"><path d="M13.96 -1.45 L173.27 1.15 L174.48 2.11 L178.52 12.05 L178.23 52.06 L175.15 56.76 L166.58 58.35 L10.43 59.61 L4.98 57.13 L0.43 50.08 L0.06 10.02 L4.84 2.15 L7.52 2.27 L14.09 -1.94" stroke="none" stroke-width="0" fill="#4dabf7"></path><path d="M15 0 M15 0 C49.94 -1.54, 84.65 1.29, 165 0 M15 0 C49.74 0.49, 83.59 0.11, 165 0 M165 0 C175.73 1.91, 178.28 6.43, 180 15 M165 0 C173.46 1.78, 179.21 3.56, 180 15 M180 15 C177.96 24.77, 179.68 36.62, 180 45 M180 15 C179.78 27.11, 180.62 37.39, 180 45 M180 45 C178.19 55.22, 174.62 59.56, 165 60 M180 45 C181.84 54.27, 176.52 59.19, 165 60 M165 60 C122.66 60.05, 82.61 59.9, 15 60 M165 60 C133.92 59.22, 104.14 59.66, 15 60 M15 60 C4.59 60.62, -1.56 53.64, 0 45 M15 60 C5.46 61.31, -0.06 53.13, 0 45 M0 45 C-1.07 35.04, -1.3 22.98, 0 15 M0 45 C-0.24 32.87, 0.65 21.11, 0 15 M0 15 C1.2 6.6, 5.05 1.78, 15 0 M0 15 C0.67 3.18, 2.84 2.07, 15 0" stroke="#1e1e1e" stroke-width="1" fill="none"></path></g><g transform="translate(1624.751953125 323.9000000000001) rotate(0 55.248046875 16.09999999999991)"><text x="55.248046875" y="0" font-family="Helvetica, Segoe UI Emoji" font-size="28px" fill="#1e1e1e" text-anchor="middle" style="white-space: pre;" direction="ltr" dominant-baseline="text-before-edge">Acceptor</text></g><g stroke-linecap="round" transform="translate(1590 470) rotate(0 90 30)"><path d="M16.75 1.65 L170.04 -0.66 L176.28 5.01 L181.47 10.36 L177.25 51.78 L173.76 57.45 L166.6 59.37 L9.76 58.36 L3.33 55.33 L1.09 48 L-0.36 12.74 L3.01 1.79 L8.78 0.28 L13.51 -0.57" stroke="none" stroke-width="0" fill="#4dabf7"></path><path d="M15 0 M15 0 C57.8 -1.25, 97.99 0.71, 165 0 M15 0 C69.47 1.73, 121.72 0.76, 165 0 M165 0 C176.84 -1.14, 181.58 6.85, 180 15 M165 0 C176.34 2.01, 179.85 4.2, 180 15 M180 15 C181.49 26.51, 181.68 38.51, 180 45 M180 15 C179.22 22.11, 180.01 28.56, 180 45 M180 45 C181.39 55.04, 176.11 58.03, 165 60 M180 45 C178.47 54.86, 175.39 58.03, 165 60 M165 60 C107.26 59.34, 47.7 60.31, 15 60 M165 60 C125.29 60.46, 86.22 58.96, 15 60 M15 60 C6.27 60.51, 0.27 54.71, 0 45 M15 60 C4.66 57.86, -1.89 54.83, 0 45 M0 45 C1.67 38.22, 0.88 30.19, 0 15 M0 45 C0.66 33.55, -1.18 22.21, 0 15 M0 15 C-0.64 6.53, 4.22 -0.44, 15 0 M0 15 C2.14 5.43, 2.9 0.97, 15 0" stroke="#1e1e1e" stroke-width="1" fill="none"></path></g><g transform="translate(1624.751953125 483.9000000000001) rotate(0 55.248046875 16.09999999999991)"><text x="55.248046875" y="0" font-family="Helvetica, Segoe UI Emoji" font-size="28px" fill="#1e1e1e" text-anchor="middle" style="white-space: pre;" direction="ltr" dominant-baseline="text-before-edge">Acceptor</text></g><g stroke-linecap="round" transform="translate(1590 390) rotate(0 90 30)"><path d="M13.88 -1.81 L171.78 0.56 L175.81 5.35 L179.13 12.8 L178.36 51.14 L173.22 58.75 L164.48 59.4 L9.69 58.32 L1.79 56.59 L-0.42 47.03 L-0.34 11.11 L4.05 3.34 L9.06 -0.62 L13.64 0.4" stroke="none" stroke-width="0" fill="#4dabf7"></path><path d="M15 0 M15 0 C70.4 2.24, 121.37 0.3, 165 0 M15 0 C74.72 -0.6, 133.46 -1.25, 165 0 M165 0 C174.3 1.64, 179.33 6.2, 180 15 M165 0 C176.83 0.06, 182.05 5.67, 180 15 M180 15 C178.72 22.6, 180.3 28.87, 180 45 M180 15 C179.02 25.42, 179.94 37.34, 180 45 M180 45 C178.29 56.73, 175.3 59.9, 165 60 M180 45 C180.28 54.33, 173.46 60.44, 165 60 M165 60 C124.96 61.06, 86.17 58.06, 15 60 M165 60 C110.31 60.06, 54.97 59.38, 15 60 M15 60 C4.85 59.08, -0.43 53.86, 0 45 M15 60 C6.85 60.97, 0.94 55.51, 0 45 M0 45 C1.53 33.36, -2.15 21.94, 0 15 M0 45 C-0.45 37.89, -0.04 28.01, 0 15 M0 15 C0.84 4.8, 3.8 -0.81, 15 0 M0 15 C2.28 4.62, 3.84 -0.57, 15 0" stroke="#1e1e1e" stroke-width="1" fill="none"></path></g><g transform="translate(1624.751953125 403.9000000000001) rotate(0 55.248046875 16.09999999999991)"><text x="55.248046875" y="0" font-family="Helvetica, Segoe UI Emoji" font-size="28px" fill="#1e1e1e" text-anchor="middle" style="white-space: pre;" direction="ltr" dominant-baseline="text-before-edge">Acceptor</text></g><g stroke-linecap="round"><g transform="translate(1150 310) rotate(0 200.38974962975828 0.05519587218759625)"><path d="M1.08 -0.6 C68.01 -0.36, 334.04 0.11, 400.59 0.35 M0.19 1.7 C67.09 1.67, 333.35 -1.13, 399.95 -1.59" stroke="#1e1e1e" stroke-width="1" fill="none"></path></g><g transform="translate(1150 310) rotate(0 200.38974962975828 0.05519587218759625)"><path d="M370.85 9.9 C378.73 6.98, 385.74 4.07, 401.06 -3.56 M370.99 9.79 C378.57 6.37, 385.11 3.67, 399.28 -1.4" stroke="#1e1e1e" stroke-width="1" fill="none"></path></g><g transform="translate(1150 310) rotate(0 200.38974962975828 0.05519587218759625)"><path d="M370.67 -10.62 C378.4 -9.01, 385.45 -7.39, 401.06 -3.56 M370.81 -10.73 C378.42 -9.36, 385 -7.26, 399.28 -1.4" stroke="#1e1e1e" stroke-width="1" fill="none"></path></g></g><mask></mask><g stroke-linecap="round"><g transform="translate(830 390) rotate(0 -19.967036501718667 60.34872496364642)"><path d="M0.76 0.31 C-5.87 20.46, -33.01 100.07, -39.84 119.83 M-0.29 -0.58 C-7.06 19.86, -33.91 101.24, -40.7 121.28" stroke="#1e1e1e" stroke-width="1" fill="none"></path></g><g transform="translate(830 390) rotate(0 -19.967036501718667 60.34872496364642)"><path d="M-41 91.56 C-41.83 99.85, -43.16 107.37, -40.85 120.36 M-41.09 91.69 C-41.23 100.39, -40.54 107.19, -39.83 121.09" stroke="#1e1e1e" stroke-width="1" fill="none"></path></g><g transform="translate(830 390) rotate(0 -19.967036501718667 60.34872496364642)"><path d="M-21.53 98.06 C-28.05 104.55, -35.14 110.15, -40.85 120.36 M-21.62 98.19 C-27.15 105.23, -31.88 110.23, -39.83 121.09" stroke="#1e1e1e" stroke-width="1" fill="none"></path></g></g><mask></mask><g stroke-linecap="round"><g transform="translate(1110 390) rotate(0 30.41340610329064 60.04588083623912)"><path d="M0.27 0.91 C10.49 20.61, 51.58 98.96, 61.88 118.72 M-1.05 0.34 C9.04 20.12, 50.88 99.71, 61.37 119.76" stroke="#1e1e1e" stroke-width="1" fill="none"></path></g><g transform="translate(1110 390) rotate(0 30.41340610329064 60.04588083623912)"><path d="M40.7 100.93 C45.28 108.16, 54.07 111.39, 60.83 119.11 M40.12 99.74 C46.55 107.63, 55.72 114.22, 60.96 120.75" stroke="#1e1e1e" stroke-width="1" fill="none"></path></g><g transform="translate(1110 390) rotate(0 30.41340610329064 60.04588083623912)"><path d="M58.87 91.4 C57.27 101.93, 59.84 108.42, 60.83 119.11 M58.3 90.21 C57.84 101.65, 60.16 111.83, 60.96 120.75" stroke="#1e1e1e" stroke-width="1" fill="none"></path></g></g><mask></mask><g stroke-linecap="round"><g transform="translate(690 670) rotate(0 0.17718733737444836 49.24129398162472)"><path d="M-0.67 -0.5 C-0.97 16.26, -1.02 83.6, -1.02 100.29 M1.17 -1.81 C1.18 14.59, 1.65 81.22, 1.15 98.32" stroke="#1e1e1e" stroke-width="1" fill="none"></path></g><g transform="translate(690 670) rotate(0 0.17718733737444836 49.24129398162472)"><path d="M-9.7 68.34 C-4.81 79.19, -2.27 91.82, 2.32 99.87 M-9.21 70.55 C-6.1 77.52, -3.32 86.08, 1.95 98.29" stroke="#1e1e1e" stroke-width="1" fill="none"></path></g><g transform="translate(690 670) rotate(0 0.17718733737444836 49.24129398162472)"><path d="M10.82 68.51 C8.28 79.19, 3.4 91.75, 2.32 99.87 M11.31 70.73 C8.88 77.75, 6.11 86.26, 1.95 98.29" stroke="#1e1e1e" stroke-width="1" fill="none"></path></g></g><mask></mask><g stroke-linecap="round"><g transform="translate(1290 670) rotate(0 0.4718319209709989 50.60580720273765)"><path d="M-0.41 0.61 C-0.3 17.15, 0.09 83.14, 0.2 99.86 M1.58 -0.12 C1.59 16.57, -0.32 84.79, -0.64 101.33" stroke="#1e1e1e" stroke-width="1" fill="none"></path></g><g transform="translate(1290 670) rotate(0 0.4718319209709989 50.60580720273765)"><path d="M-9.21 73.24 C-7.8 80.87, -3.44 89.44, -0.7 100.65 M-11.17 72.36 C-6.58 80.85, -3.98 89.25, 0.1 101.59" stroke="#1e1e1e" stroke-width="1" fill="none"></path></g><g transform="translate(1290 670) rotate(0 0.4718319209709989 50.60580720273765)"><path d="M11.31 73.73 C7.34 81.16, 6.31 89.61, -0.7 100.65 M9.35 72.85 C7.67 81.23, 4.02 89.48, 0.1 101.59" stroke="#1e1e1e" stroke-width="1" fill="none"></path></g></g><mask></mask><g stroke-linecap="round"><g transform="translate(910 650) rotate(0 80.46533883720633 59.12101078838123)"><path d="M0.57 -0.4 C27.05 19.38, 132.58 98.94, 159.22 118.93 M-0.59 -1.66 C26.25 18.22, 134.78 99.53, 161.53 119.9" stroke="#1e1e1e" stroke-width="1" fill="none"></path></g><g transform="translate(910 650) rotate(0 80.46533883720633 59.12101078838123)"><path d="M132.17 109.82 C140.43 114.53, 150.74 114.88, 162.24 121.71 M132.05 110.7 C143.92 114.59, 155.3 118, 161.9 119.42" stroke="#1e1e1e" stroke-width="1" fill="none"></path></g><g transform="translate(910 650) rotate(0 80.46533883720633 59.12101078838123)"><path d="M144.53 93.43 C148.78 103.55, 155.06 109.25, 162.24 121.71 M144.41 94.32 C151.31 104.62, 157.86 114.44, 161.9 119.42" stroke="#1e1e1e" stroke-width="1" fill="none"></path></g></g><mask></mask><g stroke-linecap="round"><g transform="translate(1070 630) rotate(0 -80.66435963962226 70.05141571700574)"><path d="M0.42 -0.23 C-26.24 23.08, -133.75 116.49, -160.52 139.98 M-0.82 -1.4 C-27.63 22.1, -135.03 118.16, -161.75 141.51" stroke="#1e1e1e" stroke-width="1" fill="none"></path></g><g transform="translate(1070 630) rotate(0 -80.66435963962226 70.05141571700574)"><path d="M-147.83 114.26 C-151.05 121.46, -153.5 126.6, -161.6 139.58 M-146.8 114.23 C-151.75 125.5, -157.23 134.31, -161.18 140.7" stroke="#1e1e1e" stroke-width="1" fill="none"></path></g><g transform="translate(1070 630) rotate(0 -80.66435963962226 70.05141571700574)"><path d="M-134.23 129.63 C-140.89 133, -146.75 134.28, -161.6 139.58 M-133.19 129.6 C-143.25 135.23, -153.74 138.4, -161.18 140.7" stroke="#1e1e1e" stroke-width="1" fill="none"></path></g></g><mask></mask><g stroke-linecap="round"><g transform="translate(730 930) rotate(0 59.700390852615214 90.19535170286895)"><path d="M-0.94 1.07 C19.29 31.05, 100.1 149.22, 120.35 178.87 M0.76 0.58 C20.95 30.76, 99.69 149.96, 119.58 179.81" stroke="#1e1e1e" stroke-width="1" fill="none"></path></g><g transform="translate(730 930) rotate(0 59.700390852615214 90.19535170286895)"><path d="M97.23 162.56 C98.56 166.91, 103.82 171.64, 119.26 178.59 M95.27 161.34 C100.5 165.22, 106.4 169.56, 119.35 179.77" stroke="#1e1e1e" stroke-width="1" fill="none"></path></g><g transform="translate(730 930) rotate(0 59.700390852615214 90.19535170286895)"><path d="M114.33 151.22 C111.91 157.86, 113.52 165.01, 119.26 178.59 M112.37 150 C113.6 156.62, 115.42 163.66, 119.35 179.77" stroke="#1e1e1e" stroke-width="1" fill="none"></path></g></g><mask></mask><g stroke-linecap="round"><g transform="translate(1270 930) rotate(0 -40.20004927663126 89.46036968956719)"><path d="M-1.03 -0.28 C-14.18 29.92, -66.96 150.4, -80.05 180.39 M0.63 -1.47 C-12.59 28.42, -67.57 148.1, -81.03 178.47" stroke="#1e1e1e" stroke-width="1" fill="none"></path></g><g transform="translate(1270 930) rotate(0 -40.20004927663126 89.46036968956719)"><path d="M-79.22 148.47 C-78.77 155.34, -80.48 162.19, -79.26 176.6 M-77.89 149 C-78.77 156.48, -80.12 164.57, -80.98 179.24" stroke="#1e1e1e" stroke-width="1" fill="none"></path></g><g transform="translate(1270 930) rotate(0 -40.20004927663126 89.46036968956719)"><path d="M-60.52 156.93 C-63.84 161.91, -69.37 167.03, -79.26 176.6 M-59.19 157.45 C-64.98 162.7, -71.24 168.57, -80.98 179.24" stroke="#1e1e1e" stroke-width="1" fill="none"></path></g></g><mask></mask></svg>