<svg version="1.1" xmlns="http://www.w3.org/2000/svg" viewBox="0 0 1280 700" width="1280" height="700">
  <!-- svg-source:excalidraw -->
  
  <defs>
    <style class="style-fonts">
      @font-face {
        font-family: "Virgil";
        src: url("https://excalidraw.com/Virgil.woff2");
      }
      @font-face {
        font-family: "Cascadia";
        src: url("https://excalidraw.com/Cascadia.woff2");
      }
    </style>
    
  </defs>
  <rect x="0" y="0" width="1280" height="700" fill="#f8f9fa"></rect><g stroke-linecap="round" transform="translate(10 10) rotate(0 630 340)"><path d="M32 -1.03 L1227.55 -0.78 L1234.6 0.73 L1245.77 5.6 L1257.43 11.54 L1257.92 18.75 L1260.7 31.69 L1259.04 647.42 L1261.26 654.36 L1254.83 667.18 L1247.13 675.04 L1241.62 677.45 L1227 681.07 L31.93 678.01 L25.2 680.66 L11.93 677.47 L4.22 669.32 L0.41 661.28 L-0.79 647.45 L0.37 33.25 L2.45 16.75 L9.93 8.5 L18.93 0.8 L30.88 1.04" stroke="none" stroke-width="0" fill="#fff"></path><path d="M32 0 M32 0 C405.36 -1.12, 779 0.37, 1228 0 M32 0 C309.33 1.51, 586.51 2.19, 1228 0 M1228 0 C1248.08 0.79, 1261.66 12.24, 1260 32 M1228 0 C1249.22 0.65, 1260.99 12.63, 1260 32 M1260 32 C1260.39 261.91, 1260.44 490.58, 1260 648 M1260 32 C1260.13 194.64, 1260.67 356.72, 1260 648 M1260 648 C1259.62 667.71, 1249.79 680.82, 1228 680 M1260 648 C1258.3 670.75, 1250.8 681.04, 1228 680 M1228 680 C968.58 682.87, 709.82 682.16, 32 680 M1228 680 C849.46 681.05, 471.01 680.88, 32 680 M32 680 C11.32 681.87, -1.15 667.7, 0 648 M32 680 C8.69 681.87, -1.49 670.62, 0 648 M0 648 C0.19 444.5, -0.33 242.25, 0 32 M0 648 C1.82 453.42, 1.81 259.84, 0 32 M0 32 C-0.86 11.43, 12.44 -0.18, 32 0 M0 32 C-0.22 11.12, 10.11 1.12, 32 0" stroke="#1e1e1e" stroke-width="1" fill="none"></path></g><g stroke-linecap="round" transform="translate(510 90) rotate(0 360 260)"><path d="M32.34 -1.6 L689.17 1.1 L697.06 -0.25 L705.85 3.27 L714.03 13.36 L716.88 19.29 L719.72 31.76 L720.57 487.13 L721.3 494.32 L715.89 505.58 L707.06 516.78 L702.47 519.29 L687.95 520.7 L30.11 519.23 L24.6 518.48 L12.25 515.26 L5.77 507.88 L0.97 500.03 L-1.1 489.5 L-1.45 30.56 L2.56 19.26 L8.39 9.22 L18 0.97 L31.55 -0.78" stroke="none" stroke-width="0" fill="#f8f1ee"></path><path d="M32 0 M32 0 C199.8 3.04, 366.34 2.24, 688 0 M32 0 C253.24 0.28, 475.21 0.17, 688 0 M688 0 C708.66 -0.32, 719.63 10.2, 720 32 M688 0 C708.9 -0.63, 718.85 11.9, 720 32 M720 32 C718.4 167.04, 718.79 302.5, 720 488 M720 32 C718.1 210.21, 718.38 388.98, 720 488 M720 488 C720.45 508.09, 711.27 520.5, 688 520 M720 488 C721.07 507.96, 708.05 521.2, 688 520 M688 520 C483.34 519.48, 278.97 520.96, 32 520 M688 520 C536.27 518.67, 384.39 519.35, 32 520 M32 520 C9.42 520.79, 1.66 510.91, 0 488 M32 520 C10.56 520.65, 0.99 511.3, 0 488 M0 488 C1.04 318.77, 1.09 148.07, 0 32 M0 488 C-0.81 367.87, -0.17 247.07, 0 32 M0 32 C-0.38 9.05, 11.13 0.82, 32 0 M0 32 C-1.7 12.08, 12.13 1.04, 32 0" stroke="#1e1e1e" stroke-width="1" fill="none"></path></g><g stroke-linecap="round" transform="translate(30 250) rotate(0 130 90)"><path d="M155.21 1.76 C170.34 2.4, 186.45 7.64, 199.57 13.4 C212.7 19.16, 224.69 27.67, 233.94 36.31 C243.19 44.94, 250.99 54.57, 255.07 65.2 C259.15 75.83, 260.06 89.18, 258.41 100.09 C256.76 110.99, 252.24 121.04, 245.16 130.62 C238.09 140.2, 227.61 150.46, 215.98 157.57 C204.35 164.67, 189.9 169.37, 175.39 173.23 C160.88 177.1, 144.65 180.59, 128.92 180.78 C113.19 180.96, 95.53 178.47, 81.01 174.36 C66.5 170.24, 53.15 163.52, 41.81 156.1 C30.47 148.67, 19.84 139.57, 12.96 129.81 C6.09 120.04, 1.84 108.35, 0.56 97.51 C-0.73 86.67, 0.73 75.19, 5.25 64.78 C9.76 54.37, 18.01 43.7, 27.67 35.04 C37.33 26.37, 49.81 18.3, 63.2 12.76 C76.59 7.23, 92.11 3.7, 108.01 1.83 C123.9 -0.04, 149.49 1.01, 158.54 1.54 C167.6 2.07, 162.62 3.33, 162.35 5.02 M154.57 2.72 C169.98 3.25, 186.71 6.7, 199.95 12.28 C213.19 17.86, 224.77 27.22, 234.03 36.21 C243.29 45.21, 251.1 55.71, 255.5 66.27 C259.89 76.82, 261.86 88.75, 260.41 99.54 C258.96 110.33, 253.95 121.5, 246.82 131.01 C239.7 140.53, 229.51 149.33, 217.65 156.64 C205.79 163.96, 190.49 170.88, 175.68 174.91 C160.88 178.94, 144.5 181.1, 128.82 180.8 C113.14 180.5, 95.89 177.07, 81.61 173.1 C67.33 169.13, 54.66 164.19, 43.13 156.98 C31.61 149.78, 19.37 139.61, 12.45 129.89 C5.52 120.17, 2.6 109.47, 1.57 98.69 C0.54 87.9, 2.11 75.45, 6.27 65.17 C10.43 54.89, 17.25 45.68, 26.54 36.98 C35.83 28.28, 48.75 19.1, 62 12.96 C75.25 6.82, 90.75 1.92, 106.03 0.14 C121.3 -1.64, 145.63 1.81, 153.66 2.26 C161.69 2.71, 154.29 1.56, 154.21 2.83" stroke="none" stroke-width="0" fill="#ced4da"></path><path d="M139.81 0.2 C154.62 -0.62, 171.04 3.24, 185.05 7.71 C199.06 12.18, 213.15 19.07, 223.87 27 C234.59 34.93, 243.31 45.16, 249.38 55.3 C255.44 65.45, 259.83 77.04, 260.29 87.87 C260.74 98.7, 257.33 109.94, 252.1 120.28 C246.87 130.62, 239.27 141.57, 228.91 149.92 C218.54 158.26, 203.96 165.55, 189.92 170.36 C175.88 175.17, 160.17 177.82, 144.68 178.79 C129.2 179.76, 112.16 178.92, 97.03 176.18 C81.91 173.43, 66.56 168.41, 53.93 162.33 C41.3 156.24, 29.8 148.75, 21.26 139.66 C12.71 130.58, 5.94 118.59, 2.67 107.82 C-0.6 97.05, -1.04 85.6, 1.66 75.05 C4.36 64.5, 11.03 53.77, 18.88 44.52 C26.73 35.26, 36.66 26.31, 48.77 19.52 C60.88 12.73, 75.99 6.86, 91.54 3.78 C107.08 0.71, 132.87 1.27, 142.06 1.06 C151.24 0.85, 146.85 1.29, 146.64 2.55 M118.16 0.47 C132.94 -1.54, 151.21 1.7, 165.9 4.77 C180.59 7.84, 193.83 12.85, 206.3 18.89 C218.77 24.94, 232.32 32, 240.72 41.02 C249.12 50.05, 254.02 62.05, 256.71 73.04 C259.41 84.04, 259.51 96.32, 256.89 106.99 C254.27 117.67, 248.79 128.04, 241 137.1 C233.21 146.16, 222.6 154.94, 210.16 161.36 C197.73 167.78, 181.55 172.35, 166.39 175.62 C151.24 178.88, 134.84 181.64, 119.23 180.94 C103.62 180.25, 86.79 176.56, 72.73 171.45 C58.68 166.34, 45.76 158.37, 34.91 150.3 C24.05 142.22, 13.57 133.21, 7.6 123.02 C1.63 112.83, -1.05 99.79, -0.93 89.16 C-0.81 78.53, 2.81 68.91, 8.32 59.24 C13.84 49.57, 21.69 39.35, 32.16 31.15 C42.63 22.95, 57.12 15.27, 71.15 10.04 C85.17 4.82, 108.63 1.29, 116.31 -0.21 C124 -1.71, 116.68 -0.47, 117.25 1.05" stroke="#1e1e1e" stroke-width="1" fill="none"></path></g><g transform="translate(114.05658719574876 319.1603896932106) rotate(0 46.01953125 20.700000000000045)"><text x="46.01953125" y="0" font-family="Helvetica, Segoe UI Emoji" font-size="36px" fill="#1e1e1e" text-anchor="middle" style="white-space: pre;" direction="ltr" dominant-baseline="text-before-edge">Client</text></g><g stroke-linecap="round" transform="translate(590 150) rotate(0 100 210)"><path d="M31.42 1.47 L176.39 -0.89 L180.47 1.22 L192.51 9.13 L199.19 18.75 L198.19 30.37 L200.4 389.52 L201.08 393.71 L195.57 407.81 L192.47 412.85 L183.33 419.29 L168.84 420.87 L24.98 419.43 L11.28 416.68 L3.45 408.57 L0.58 401.03 L1.34 388.87 L-0.85 24.52 L3.4 18.87 L9.6 8.08 L18.06 3.91 L32.14 -0.5" stroke="none" stroke-width="0" fill="#fca326"></path><path d="M32 0 M32 0 C69.44 1.12, 104.38 2.33, 168 0 M32 0 C67.42 -0.12, 104.33 -0.65, 168 0 M168 0 C189.95 0.48, 201.02 9.76, 200 32 M168 0 C189.03 1.13, 198.97 10.41, 200 32 M200 32 C202.76 143.3, 202.98 253.24, 200 388 M200 32 C198.1 119.58, 198.53 206.09, 200 388 M200 388 C198.29 407.77, 189.56 418.65, 168 420 M200 388 C198.02 407.28, 191.54 417.77, 168 420 M168 420 C112.79 421.53, 60.21 418.27, 32 420 M168 420 C124.91 420.16, 81.89 420.31, 32 420 M32 420 C10.52 418.69, 0.16 410.26, 0 388 M32 420 C10.85 418.78, -1.49 411.36, 0 388 M0 388 C-2.92 270.59, -2.09 155.56, 0 32 M0 388 C0.5 265.71, 0.23 143.3, 0 32 M0 32 C-1.33 9.85, 11 -1.6, 32 0 M0 32 C1.34 11.94, 12.46 -0.86, 32 0" stroke="#1e1e1e" stroke-width="1" fill="none"></path></g><g transform="translate(618 339.29999999999995) rotate(0 72 20.700000000000045)"><text x="72" y="0" font-family="Helvetica, Segoe UI Emoji" font-size="36px" fill="#1e1e1e" text-anchor="middle" style="white-space: pre;" direction="ltr" dominant-baseline="text-before-edge">网络模块</text></g><g stroke-linecap="round" transform="translate(850 250) rotate(0 170 120)"><path d="M151.09 -0.11 C167.48 -3.08, 187.6 0.79, 204.66 3.41 C221.71 6.02, 238.22 9.6, 253.42 15.59 C268.62 21.59, 283.99 30.34, 295.86 39.39 C307.73 48.44, 317.5 58.56, 324.63 69.9 C331.76 81.24, 336.75 95.14, 338.64 107.45 C340.53 119.75, 339.47 131.81, 335.97 143.74 C332.48 155.67, 326.28 168.27, 317.69 179.04 C309.1 189.82, 297.4 200.1, 284.46 208.39 C271.51 216.68, 255.84 223.62, 240.03 228.76 C224.21 233.9, 207.08 237.69, 189.56 239.21 C172.04 240.74, 152.05 240.43, 134.9 237.91 C117.75 235.39, 101.58 230.26, 86.68 224.08 C71.78 217.9, 57.26 210.03, 45.5 200.82 C33.74 191.61, 23.59 180.13, 16.13 168.83 C8.66 157.53, 2.87 145.15, 0.71 133.03 C-1.45 120.91, -0.5 108.12, 3.18 96.11 C6.86 84.11, 14.19 71.62, 22.77 61 C31.35 50.38, 41.82 40.69, 54.69 32.39 C67.55 24.09, 82.92 16.64, 99.95 11.21 C116.98 5.77, 146.1 1.2, 156.88 -0.23 C167.66 -1.67, 164.42 0.49, 164.64 2.59 M179.67 -0.88 C196.73 -2.45, 214.51 2.88, 230.81 7.24 C247.1 11.59, 263.66 17.18, 277.44 25.25 C291.23 33.31, 304.24 44.97, 313.52 55.62 C322.79 66.26, 328.52 77.2, 333.11 89.11 C337.69 101.01, 341.75 114.7, 341.04 127.02 C340.33 139.34, 335.18 151.44, 328.86 163.02 C322.55 174.59, 313.93 186.92, 303.15 196.46 C292.37 205.99, 278.72 213.46, 264.2 220.23 C249.68 226.99, 232.93 233.56, 216.01 237.05 C199.09 240.55, 180.47 242.1, 162.67 241.2 C144.88 240.3, 125.69 236.09, 109.21 231.64 C92.73 227.2, 77.57 222.12, 63.79 214.56 C50 206.99, 36.01 196.93, 26.5 186.23 C16.99 175.54, 11.13 162.62, 6.7 150.41 C2.27 138.19, -0.87 125.01, -0.08 112.95 C0.7 100.88, 5.34 89.22, 11.41 78.02 C17.49 66.82, 25.31 55.37, 36.38 45.75 C47.45 36.12, 63.22 27.15, 77.84 20.28 C92.47 13.41, 107.27 8.01, 124.14 4.52 C141.02 1.02, 170.04 -0.27, 179.1 -0.67 C188.16 -1.06, 178.94 -0.03, 178.51 2.14" stroke="none" stroke-width="0" fill="#a5d8ff"></path><path d="M230.56 7.58 C247.31 10.19, 264.22 19.34, 277.92 27.04 C291.63 34.74, 303.53 43.45, 312.78 53.79 C322.03 64.12, 329.04 77.12, 333.43 89.06 C337.81 101, 340.03 112.93, 339.09 125.42 C338.16 137.9, 334.14 152.12, 327.82 163.96 C321.49 175.81, 312.16 187.04, 301.14 196.51 C290.12 205.98, 276.29 214.1, 261.69 220.78 C247.08 227.46, 230.22 233.57, 213.52 236.58 C196.81 239.6, 178.84 239.68, 161.46 238.87 C144.08 238.07, 125.71 236.01, 109.25 231.76 C92.8 227.51, 76.28 221.06, 62.73 213.38 C49.19 205.69, 37.34 196.05, 27.97 185.65 C18.6 175.26, 11.22 162.96, 6.49 150.98 C1.76 139.01, -1.3 126.11, -0.42 113.8 C0.46 101.48, 5.46 88.73, 11.76 77.07 C18.05 65.41, 26.27 53.41, 37.36 43.83 C48.45 34.26, 63.36 26.26, 78.3 19.63 C93.23 13, 110.31 7.44, 126.99 4.08 C143.66 0.71, 157.54 -2.41, 178.37 -0.55 C199.2 1.31, 236.74 10.9, 251.96 15.24 C267.17 19.58, 270.98 23.71, 269.65 25.5 M137.07 1.53 C152.88 -2.51, 173.79 -2.04, 191.48 -0.26 C209.17 1.53, 227.19 6.86, 243.19 12.22 C259.19 17.59, 275.07 23.76, 287.48 31.92 C299.9 40.09, 309.63 50.19, 317.7 61.22 C325.76 72.25, 332.51 85.64, 335.87 98.1 C339.22 110.56, 339.87 123.83, 337.83 135.95 C335.79 148.08, 330.88 159.94, 323.65 170.86 C316.41 181.77, 306.13 192.55, 294.4 201.45 C282.68 210.35, 268.68 218.42, 253.32 224.25 C237.95 230.08, 219.7 233.79, 202.22 236.42 C184.75 239.05, 165.8 241.17, 148.44 240.02 C131.08 238.88, 113.84 234.9, 98.05 229.57 C82.25 224.24, 66.71 216.75, 53.65 208.04 C40.58 199.33, 28.08 188.33, 19.65 177.29 C11.23 166.24, 6.19 153.85, 3.1 141.78 C0.02 129.7, -1.19 116.92, 1.14 104.83 C3.47 92.74, 9.75 80.65, 17.1 69.24 C24.45 57.84, 33.57 45.29, 45.25 36.42 C56.93 27.54, 71.92 21.89, 87.2 15.99 C102.49 10.1, 128.32 2.82, 136.98 1.06 C145.63 -0.7, 138.36 3.14, 139.12 5.44" stroke="#1e1e1e" stroke-width="1" fill="none"></path></g><g transform="translate(947.7918471982869 349.44718625761425) rotate(0 72 20.700000000000045)"><text x="72" y="0" font-family="Helvetica, Segoe UI Emoji" font-size="36px" fill="#1e1e1e" text-anchor="middle" style="white-space: pre;" direction="ltr" dominant-baseline="text-before-edge">业务逻辑</text></g><g stroke-linecap="round"><g transform="translate(290 310) rotate(0 100.02618297528477 -0.32412657341058093)"><path d="M0.23 0.82 C33.45 0.96, 165.59 0.69, 198.99 0.41 M-1.11 0.2 C32.51 0.01, 167.62 -1.47, 201.17 -1.5" stroke="#1e1e1e" stroke-width="1" fill="none"></path></g><g transform="translate(290 310) rotate(0 100.02618297528477 -0.32412657341058093)"><path d="M174.4 7.25 C181.35 7.07, 186.82 2.88, 199.54 -1.04 M173.68 9.4 C181.88 5.42, 192.86 1.11, 201.44 -1.77" stroke="#1e1e1e" stroke-width="1" fill="none"></path></g><g transform="translate(290 310) rotate(0 100.02618297528477 -0.32412657341058093)"><path d="M174.27 -13.27 C181.17 -7.92, 186.69 -6.57, 199.54 -1.04 M173.55 -11.12 C181.63 -8.11, 192.66 -5.42, 201.44 -1.77" stroke="#1e1e1e" stroke-width="1" fill="none"></path></g></g><mask></mask><g stroke-linecap="round"><g transform="translate(490 390) rotate(0 -99.46353980461129 0.3225271020320406)"><path d="M-0.32 -0.74 C-33.51 -0.91, -166.55 -0.86, -199.8 -0.71 M1.72 1.49 C-31.56 1.43, -166.94 0.44, -200.65 0.45" stroke="#1e1e1e" stroke-width="1" fill="none"></path></g><g transform="translate(490 390) rotate(0 -99.46353980461129 0.3225271020320406)"><path d="M-173.64 -9.37 C-180.52 -7, -186.03 -2.85, -199.72 1.5 M-173.23 -10.56 C-180.9 -7.13, -190.54 -2.82, -200.63 -0.17" stroke="#1e1e1e" stroke-width="1" fill="none"></path></g><g transform="translate(490 390) rotate(0 -99.46353980461129 0.3225271020320406)"><path d="M-173.72 11.15 C-180.64 8.47, -186.13 7.57, -199.72 1.5 M-173.31 9.96 C-181.14 6.56, -190.76 4.05, -200.63 -0.17" stroke="#1e1e1e" stroke-width="1" fill="none"></path></g></g><mask></mask><g transform="translate(290 250) rotate(0 77.0009765625 20.700000000000045)"><text x="77.0009765625" y="0" font-family="Helvetica, Segoe UI Emoji" font-size="36px" fill="#1e1e1e" text-anchor="middle" style="white-space: pre;" direction="ltr" dominant-baseline="text-before-edge">TCP 连接</text></g></svg>