<svg version="1.1" xmlns="http://www.w3.org/2000/svg" viewBox="0 0 1380 760" width="1380" height="760">
  <!-- svg-source:excalidraw -->
  
  <defs>
    <style class="style-fonts">
      @font-face {
        font-family: "Virgil";
        src: url("https://excalidraw.com/Virgil.woff2");
      }
      @font-face {
        font-family: "Cascadia";
        src: url("https://excalidraw.com/Cascadia.woff2");
      }
    </style>
    
  </defs>
  <rect x="0" y="0" width="1380" height="760" fill="#ffffff"></rect><g stroke-linecap="round" transform="translate(10 10) rotate(0 680 370)"><path d="M30.03 0.96 L1329.96 -0.01 L1334.57 1.71 L1346.36 2.71 L1355.16 12 L1359.61 16.57 L1361.53 30.01 L1361.93 707.51 L1361.41 715.44 L1353.6 728.93 L1347.09 734.93 L1342.9 738.74 L1328.88 739.6 L31.67 739.77 L26.13 738.04 L12.77 736.35 L5.71 726.8 L1.09 722.27 L0.52 707.91 L1.04 30.28 L2.01 17.36 L9.58 9.12 L19.63 1.61 L32.69 -1.02" stroke="none" stroke-width="0" fill="#fff"></path><path d="M32 0 M32 0 C349.19 -2.79, 666.84 -1.83, 1328 0 M32 0 C445.08 1.46, 858.14 1.78, 1328 0 M1328 0 C1350.49 -0.58, 1361.93 11.97, 1360 32 M1328 0 C1348.75 0.25, 1359.41 12.73, 1360 32 M1360 32 C1360.72 216.87, 1360.11 401.61, 1360 708 M1360 32 C1359.77 284.03, 1359.28 535.74, 1360 708 M1360 708 C1359.45 729.59, 1351.02 740.34, 1328 740 M1360 708 C1358.23 731.44, 1351.61 741.61, 1328 740 M1328 740 C1026.01 735.05, 722.61 734.64, 32 740 M1328 740 C933.67 737.97, 538.37 738.01, 32 740 M32 740 C9.58 738.67, -0.07 729.13, 0 708 M32 740 C8.95 742.26, 0.99 729.87, 0 708 M0 708 C1.95 514.77, 1.94 323.14, 0 32 M0 708 C1.04 523.9, 0.42 339, 0 32 M0 32 C-1 11.95, 11.79 0.13, 32 0 M0 32 C1.07 10.81, 10.71 0.81, 32 0" stroke="#1e1e1e" stroke-width="1" fill="none"></path></g><g stroke-linecap="round" transform="translate(550 290) rotate(0 140 50)"><path d="M25.26 0.45 L255.15 1.71 L266.35 0.37 L271.79 5.23 L277.1 8.41 L277.7 19.28 L278.9 76.1 L277.75 86.8 L276.34 91.5 L270.54 95.19 L255.58 98.22 L24.71 101.5 L14.79 99.44 L7.92 93.74 L3.97 88.85 L2.27 82.8 L-1.13 17.18 L5.06 7.82 L4.27 4.48 L15.49 1.57 L25.85 0.08" stroke="none" stroke-width="0" fill="#fca326"></path><path d="M25 0 M25 0 C92.25 -2.51, 159.53 -1.16, 255 0 M25 0 C74.06 1.85, 124.95 2.45, 255 0 M255 0 C272.61 -0.57, 281.49 6.39, 280 25 M255 0 C270.85 0.31, 280.17 6.73, 280 25 M280 25 C282.29 42.21, 278.56 57.78, 280 75 M280 25 C280.08 38.99, 280.49 51.39, 280 75 M280 75 C281.79 90.93, 271.83 99.47, 255 100 M280 75 C281.65 91.03, 273.5 101.32, 255 100 M255 100 C167.05 100.33, 76.33 99.94, 25 100 M255 100 C189.67 99.26, 125.85 100.13, 25 100 M25 100 C8.11 98.86, -0.58 91.6, 0 75 M25 100 C9.22 98.1, 1.62 92.84, 0 75 M0 75 C0.28 58.96, 1.42 45.15, 0 25 M0 75 C-0.49 63.76, -0.04 51.49, 0 25 M0 25 C-1.1 6.83, 7.25 0.94, 25 0 M0 25 C0.43 9.31, 8.23 -0.33, 25 0" stroke="#1e1e1e" stroke-width="1" fill="none"></path></g><g transform="translate(626.9736328125 319.29999999999995) rotate(0 63.0263671875 20.700000000000045)"><text x="63.0263671875" y="0" font-family="Helvetica, Segoe UI Emoji" font-size="36px" fill="#1e1e1e" text-anchor="middle" style="white-space: pre;" direction="ltr" dominant-baseline="text-before-edge">Reactor</text></g><g stroke-linecap="round" transform="translate(90 50) rotate(0 100 60)"><path d="M144.91 5.91 C157.02 8.42, 167.64 15.37, 176.17 21.56 C184.69 27.74, 192.38 35, 196.05 43.02 C199.72 51.04, 200.12 61.45, 198.19 69.69 C196.27 77.94, 191.74 85.66, 184.49 92.48 C177.23 99.29, 166.03 106.11, 154.66 110.56 C143.29 115.01, 129.49 117.92, 116.27 119.17 C103.05 120.43, 88.45 120.12, 75.36 118.1 C62.27 116.08, 48.42 112.12, 37.72 107.04 C27.01 101.95, 17.29 94.77, 11.13 87.58 C4.97 80.39, 1.65 72.12, 0.75 63.9 C-0.15 55.67, 0.95 46.02, 5.73 38.23 C10.5 30.44, 19.87 22.71, 29.39 17.16 C38.92 11.61, 50.4 7.82, 62.87 4.95 C75.34 2.07, 89.26 -0.71, 104.23 -0.11 C119.21 0.49, 143.59 6.39, 152.74 8.54 C161.88 10.69, 159.91 11.76, 159.08 12.79 M87.75 -0.95 C100.75 -2.31, 119.02 1.33, 131.95 3.83 C144.87 6.33, 155.65 8.63, 165.31 14.05 C174.96 19.48, 184.08 28.84, 189.89 36.38 C195.69 43.91, 199.92 51.53, 200.12 59.26 C200.33 67, 196.48 75.15, 191.12 82.79 C185.75 90.42, 177.8 99.5, 167.94 105.08 C158.07 110.66, 145.08 113.65, 131.92 116.25 C118.76 118.85, 102.63 121.28, 89 120.68 C75.37 120.09, 61.94 116.92, 50.15 112.66 C38.35 108.39, 26.03 101.78, 18.23 95.09 C10.43 88.4, 6.23 80.32, 3.35 72.53 C0.47 64.74, -1.81 56.06, 0.94 48.36 C3.68 40.66, 11.77 33.14, 19.84 26.33 C27.9 19.52, 37.93 11.76, 49.31 7.5 C60.69 3.24, 81.45 1.89, 88.11 0.77 C94.77 -0.36, 89.08 -0.01, 89.26 0.77" stroke="none" stroke-width="0" fill="#868e96"></path><path d="M72.19 1.61 C84.28 -1.36, 100.56 -0.03, 113.96 1.04 C127.37 2.11, 141.09 3.88, 152.6 8.04 C164.11 12.21, 175.39 19.1, 183 26.04 C190.61 32.98, 195.75 41.8, 198.27 49.69 C200.79 57.58, 201.2 65.49, 198.11 73.38 C195.02 81.27, 188.2 90.46, 179.74 97.04 C171.27 103.61, 159.28 109.18, 147.3 112.81 C135.32 116.45, 121.43 118.36, 107.86 118.85 C94.29 119.34, 78.77 118.26, 65.87 115.77 C52.97 113.27, 40.16 109.32, 30.47 103.9 C20.78 98.49, 12.8 90.89, 7.72 83.27 C2.64 75.65, -0.52 66.27, 0 58.16 C0.51 50.05, 4.97 41.85, 10.79 34.59 C16.61 27.32, 23.1 20.33, 34.93 14.58 C46.75 8.83, 72.42 2.32, 81.77 0.1 C91.12 -2.11, 90.74 -0.01, 91.03 1.28 M113.14 -0.31 C125.85 0.13, 140.7 5.92, 152.29 10.48 C163.87 15.04, 174.99 20.67, 182.64 27.04 C190.29 33.41, 195.98 40.91, 198.2 48.72 C200.42 56.54, 199.33 65.88, 195.95 73.91 C192.57 81.95, 185.88 90.5, 177.89 96.91 C169.9 103.32, 159.78 108.33, 148.03 112.38 C136.27 116.43, 121.2 120.49, 107.37 121.22 C93.54 121.95, 78 119.93, 65.04 116.75 C52.08 113.57, 39.14 107.94, 29.63 102.13 C20.12 96.33, 12.96 89.3, 7.98 81.94 C2.99 74.58, -0.88 66.25, -0.28 57.99 C0.32 49.74, 5.75 39.57, 11.59 32.44 C17.43 25.31, 24.66 20.11, 34.78 15.21 C44.89 10.3, 59.04 5.22, 72.26 3 C85.49 0.78, 107.12 2.01, 114.14 1.91 C121.16 1.82, 114.89 1.52, 114.38 2.44" stroke="#1e1e1e" stroke-width="1" fill="none"></path></g><g transform="translate(143.76979063134513 89.3735931288071) rotate(0 46.01953125 20.69999999999999)"><text x="46.01953125" y="0" font-family="Helvetica, Segoe UI Emoji" font-size="36px" fill="#1e1e1e" text-anchor="middle" style="white-space: pre;" direction="ltr" dominant-baseline="text-before-edge">Client</text></g><g stroke-linecap="round" transform="translate(90 550) rotate(0 100 60)"><path d="M146.95 6.42 C159 9.46, 171.7 17.02, 180.04 23.56 C188.37 30.11, 194.04 37.74, 196.94 45.72 C199.83 53.69, 199.76 63.28, 197.42 71.39 C195.07 79.5, 190.47 87.86, 182.86 94.37 C175.25 100.89, 163.28 106.33, 151.75 110.48 C140.22 114.64, 126.99 118.27, 113.69 119.31 C100.4 120.36, 85.11 118.93, 71.96 116.77 C58.8 114.6, 45.17 111.61, 34.78 106.33 C24.38 101.04, 15.32 92.4, 9.59 85.06 C3.86 77.71, 0.58 70.27, 0.41 62.24 C0.23 54.2, 3.48 44.58, 8.53 36.84 C13.58 29.11, 20.99 21.4, 30.72 15.83 C40.45 10.25, 54.14 6.13, 66.9 3.42 C79.67 0.7, 93.6 -1.26, 107.34 -0.46 C121.08 0.35, 141.95 6.63, 149.35 8.22 C156.75 9.82, 152.53 8.36, 151.73 9.1 M140.9 5.24 C152.92 7.55, 164.23 15.15, 173.1 21.08 C181.97 27, 189.87 33.19, 194.1 40.78 C198.34 48.37, 199.91 58.17, 198.5 66.61 C197.09 75.05, 192.33 84.6, 185.63 91.42 C178.94 98.24, 169.35 103.24, 158.31 107.55 C147.28 111.86, 132.7 115.61, 119.43 117.28 C106.16 118.94, 91.51 118.76, 78.71 117.54 C65.9 116.32, 53.29 114.38, 42.6 109.97 C31.91 105.57, 21.67 98.14, 14.59 91.1 C7.5 84.05, 1.83 76.14, 0.11 67.72 C-1.62 59.3, 0.03 48.65, 4.25 40.6 C8.48 32.54, 16.14 25.13, 25.44 19.4 C34.75 13.68, 47.62 9.69, 60.09 6.22 C72.56 2.75, 87.07 -1.42, 100.27 -1.43 C113.47 -1.43, 132.93 5.12, 139.29 6.2 C145.65 7.29, 138.72 4.49, 138.45 5.06" stroke="none" stroke-width="0" fill="#868e96"></path><path d="M78.55 1.27 C90.54 -1.41, 106.01 -1.08, 119.17 0.45 C132.33 1.98, 146.36 5.5, 157.51 10.45 C168.66 15.39, 179.14 22.98, 186.05 30.12 C192.95 37.26, 197.23 45.43, 198.94 53.3 C200.66 61.18, 200.29 69.76, 196.35 77.38 C192.41 85, 184.51 92.76, 175.28 99.03 C166.05 105.3, 153.4 111.54, 140.97 114.99 C128.54 118.45, 114.15 119.59, 100.72 119.77 C87.28 119.95, 72.89 119.36, 60.37 116.07 C47.84 112.78, 34.63 106.2, 25.56 100.03 C16.5 93.87, 10.12 86.66, 6 79.08 C1.89 71.51, -0.41 62.56, 0.88 54.56 C2.17 46.57, 7.09 38.38, 13.74 31.1 C20.39 23.82, 29.3 15.98, 40.78 10.9 C52.27 5.82, 75.02 1.96, 82.66 0.59 C90.31 -0.78, 86.5 1.57, 86.66 2.69 M125.76 1.7 C138.48 2.85, 151.03 7.11, 161.84 12.29 C172.65 17.48, 184.2 25.58, 190.63 32.83 C197.06 40.08, 199.83 47.79, 200.43 55.79 C201.03 63.79, 199.21 73.01, 194.24 80.82 C189.28 88.64, 180.42 96.87, 170.66 102.68 C160.9 108.49, 148.35 112.88, 135.68 115.68 C123.01 118.48, 108.22 119.72, 94.62 119.48 C81.02 119.24, 66.14 118, 54.09 114.25 C42.04 110.49, 31 103.17, 22.32 96.94 C13.64 90.7, 5.75 84.61, 2.01 76.82 C-1.73 69.03, -2.64 58.42, -0.1 50.2 C2.44 41.97, 9.68 34.08, 17.27 27.47 C24.85 20.86, 34.26 14.82, 45.4 10.56 C56.54 6.31, 70.65 3.16, 84.1 1.96 C97.55 0.75, 119 3.19, 126.1 3.35 C133.21 3.5, 127.31 2.37, 126.74 2.89" stroke="#1e1e1e" stroke-width="1" fill="none"></path></g><g transform="translate(143.76979063134513 589.373593128807) rotate(0 46.01953125 20.700000000000045)"><text x="46.01953125" y="0" font-family="Helvetica, Segoe UI Emoji" font-size="36px" fill="#1e1e1e" text-anchor="middle" style="white-space: pre;" direction="ltr" dominant-baseline="text-before-edge">Client</text></g><g stroke-linecap="round" transform="translate(90 290) rotate(0 100 60)"><path d="M85.35 1.14 C97.96 -0.86, 113.91 -0.54, 126.8 1.64 C139.68 3.83, 152.28 8.94, 162.68 14.24 C173.08 19.53, 183.1 26.31, 189.18 33.43 C195.25 40.54, 198.35 48.88, 199.13 56.92 C199.91 64.96, 198.8 73.98, 193.87 81.66 C188.94 89.35, 179.2 97.14, 169.55 103.03 C159.91 108.93, 148.58 114.31, 136 117.05 C123.41 119.78, 107.78 120.02, 94.03 119.45 C80.27 118.87, 65.48 117.33, 53.46 113.58 C41.45 109.84, 30.39 103.47, 21.92 96.98 C13.44 90.48, 6.02 82.29, 2.62 74.62 C-0.77 66.95, -0.66 58.94, 1.52 50.94 C3.71 42.94, 8.4 33.39, 15.72 26.63 C23.04 19.86, 31.95 14.63, 45.46 10.34 C58.98 6.04, 86.5 2.33, 96.82 0.84 C107.15 -0.65, 107.59 0.4, 107.41 1.41 M68.38 2.15 C80.45 -1.12, 97.49 -0.95, 110.76 -0.27 C124.04 0.42, 136.69 2.28, 148.03 6.26 C159.38 10.23, 170.75 16.61, 178.81 23.6 C186.88 30.58, 192.97 39.93, 196.41 48.16 C199.85 56.38, 201.75 65.26, 199.45 72.94 C197.16 80.63, 190.47 87.91, 182.63 94.25 C174.79 100.59, 164.39 106.8, 152.4 110.99 C140.41 115.19, 124.48 118.22, 110.7 119.4 C96.92 120.59, 82.34 120.44, 69.72 118.11 C57.1 115.77, 45.3 111.13, 34.97 105.4 C24.63 99.67, 13.35 91.4, 7.7 83.72 C2.04 76.05, 1.16 67.08, 1.04 59.35 C0.92 51.62, 1.94 44.76, 6.98 37.34 C12.01 29.92, 21.19 20.57, 31.25 14.83 C41.3 9.08, 61.25 4.86, 67.3 2.88 C73.36 0.9, 67.01 1.76, 67.6 2.95" stroke="none" stroke-width="0" fill="#868e96"></path><path d="M81.79 0.69 C94.29 -1.51, 109.9 0.53, 122.9 2.47 C135.9 4.42, 149.12 7.75, 159.79 12.39 C170.46 17.03, 180.2 23.29, 186.92 30.31 C193.64 37.33, 198.86 46.28, 200.09 54.5 C201.31 62.73, 198.61 72.07, 194.27 79.68 C189.92 87.28, 183.33 94.08, 174 100.14 C164.68 106.2, 150.97 112.66, 138.3 116.04 C125.63 119.42, 111.41 120.57, 97.99 120.43 C84.56 120.3, 69.93 118.67, 57.75 115.22 C45.58 111.77, 34 105.93, 24.94 99.73 C15.87 93.52, 7.46 85.82, 3.37 78.01 C-0.72 70.21, -1.6 61.11, 0.39 52.9 C2.38 44.7, 8.15 35.71, 15.3 28.78 C22.44 21.84, 31.81 16.12, 43.27 11.31 C54.73 6.5, 76.64 1.56, 84.06 -0.09 C91.48 -1.74, 87.59 0.41, 87.77 1.41 M146.05 8.03 C158 10.78, 169.68 16.96, 178.22 23.22 C186.77 29.48, 193.99 37.71, 197.3 45.6 C200.61 53.49, 200.57 62.61, 198.07 70.56 C195.57 78.5, 189.73 86.53, 182.31 93.29 C174.9 100.04, 165.15 106.95, 153.57 111.08 C142 115.21, 126.21 117.21, 112.87 118.07 C99.53 118.94, 86.48 118.14, 73.52 116.28 C60.57 114.42, 45.72 111.98, 35.16 106.92 C24.61 101.86, 15.9 93.48, 10.21 85.92 C4.51 78.35, 1.24 69.63, 0.97 61.55 C0.71 53.48, 3.44 44.74, 8.62 37.48 C13.79 30.22, 22.5 23.76, 32.02 17.99 C41.54 12.22, 53.42 6.07, 65.73 2.88 C78.04 -0.32, 92.52 -2.13, 105.87 -1.17 C119.23 -0.22, 138.99 7.25, 145.88 8.59 C152.77 9.94, 147.99 6.48, 147.23 6.9" stroke="#1e1e1e" stroke-width="1" fill="none"></path></g><g transform="translate(143.76979063134513 329.373593128807) rotate(0 46.01953125 20.700000000000045)"><text x="46.01953125" y="0" font-family="Helvetica, Segoe UI Emoji" font-size="36px" fill="#1e1e1e" text-anchor="middle" style="white-space: pre;" direction="ltr" dominant-baseline="text-before-edge">Client</text></g><g stroke-linecap="round" transform="translate(1070 70) rotate(0 110 50)"><path d="M79.61 1.7 C92.58 -0.92, 108.88 -0.4, 123.45 0.56 C138.03 1.51, 154.04 4.04, 167.07 7.45 C180.1 10.86, 192.95 15.52, 201.61 21.02 C210.27 26.51, 216.37 33.79, 219.04 40.41 C221.71 47.04, 221.15 54.2, 217.63 60.75 C214.11 67.3, 206.99 74.3, 197.91 79.71 C188.83 85.11, 176.44 89.82, 163.15 93.19 C149.87 96.55, 133.24 99.3, 118.21 99.91 C103.17 100.52, 86.91 99.26, 72.94 96.85 C58.98 94.44, 45.25 90.16, 34.42 85.43 C23.6 80.71, 13.8 74.73, 8 68.49 C2.2 62.25, -0.97 54.48, -0.38 47.98 C0.2 41.48, 4.88 35.54, 11.52 29.48 C18.16 23.42, 26.4 16.31, 39.45 11.63 C52.51 6.95, 79.8 2.97, 89.86 1.4 C99.92 -0.18, 99.71 1.49, 99.8 2.17 M110.21 -0.53 C124.46 -1.02, 143.1 1.33, 156.87 4.45 C170.64 7.57, 182.93 13.03, 192.82 18.18 C202.71 23.33, 211.8 28.98, 216.21 35.33 C220.62 41.68, 221.32 49.43, 219.27 56.28 C217.23 63.13, 211.39 70.48, 203.94 76.43 C196.49 82.38, 186.64 88.34, 174.59 91.96 C162.54 95.59, 146.21 97.15, 131.63 98.17 C117.05 99.2, 101.46 99.22, 87.1 98.11 C72.75 97.01, 57.87 95.54, 45.51 91.55 C33.15 87.56, 20.71 80.09, 12.95 74.15 C5.2 68.21, 0.27 62.78, -1.02 55.92 C-2.32 49.06, 0.37 39.86, 5.19 32.97 C10.01 26.09, 17.79 19.45, 27.89 14.6 C38 9.75, 51.83 6.18, 65.82 3.88 C79.82 1.59, 104.32 1.36, 111.87 0.84 C119.41 0.31, 111.41 -0.21, 111.08 0.72" stroke="none" stroke-width="0" fill="#ffc9c9"></path><path d="M146.88 2.9 C161.06 4.2, 175 9.41, 185.68 13.96 C196.36 18.52, 205.12 24.07, 210.97 30.25 C216.83 36.43, 220.86 44.16, 220.8 51.05 C220.73 57.95, 217.06 65.67, 210.57 71.64 C204.08 77.6, 193.38 82.49, 181.86 86.85 C170.34 91.2, 155.59 95.7, 141.47 97.75 C127.35 99.81, 111.75 100.13, 97.14 99.18 C82.53 98.23, 66.55 95.5, 53.81 92.05 C41.08 88.59, 29.42 83.87, 20.71 78.43 C12 72.99, 4.66 66.21, 1.53 59.42 C-1.6 52.63, -1.56 44.43, 1.92 37.69 C5.39 30.95, 13.24 24.19, 22.39 19 C31.55 13.81, 43.82 9.63, 56.86 6.55 C69.91 3.47, 84.45 0.93, 100.65 0.51 C116.85 0.1, 144.08 2.92, 154.07 4.05 C164.05 5.17, 161.37 6.53, 160.55 7.27 M77.75 2.26 C90.9 -0.29, 108.76 -0.38, 123.52 0.65 C138.28 1.68, 153.37 4.77, 166.32 8.44 C179.26 12.11, 192.64 17.13, 201.19 22.67 C209.74 28.21, 215.23 35.41, 217.63 41.69 C220.02 47.97, 218.75 53.67, 215.55 60.34 C212.34 67, 207.47 76.01, 198.4 81.68 C189.33 87.36, 174.51 91.42, 161.15 94.37 C147.79 97.31, 132.99 99.07, 118.23 99.35 C103.47 99.63, 86.64 97.99, 72.57 96.04 C58.5 94.09, 44.57 92.02, 33.81 87.64 C23.04 83.27, 13.46 76.5, 7.97 69.81 C2.49 63.12, 0.32 54.27, 0.91 47.5 C1.49 40.72, 5.15 34.85, 11.5 29.16 C17.85 23.46, 27.52 18.07, 39.01 13.33 C50.5 8.6, 73.79 2.71, 80.45 0.75 C87.1 -1.2, 78.62 0.45, 78.94 1.58" stroke="#1e1e1e" stroke-width="1" fill="none"></path></g><g transform="translate(1117.1830978194798 99.44466094067252) rotate(0 63.03515625 20.69999999999999)"><text x="63.03515625" y="0" font-family="Helvetica, Segoe UI Emoji" font-size="36px" fill="#1e1e1e" text-anchor="middle" style="white-space: pre;" direction="ltr" dominant-baseline="text-before-edge">Handler</text></g><g stroke-linecap="round" transform="translate(1070 570) rotate(0 110 50)"><path d="M89.58 0.06 C103.17 -1.8, 121.21 0.3, 135.83 2.06 C150.45 3.82, 165.32 6.42, 177.3 10.61 C189.28 14.79, 200.62 21.2, 207.71 27.15 C214.8 33.11, 218.82 39.78, 219.84 46.33 C220.86 52.88, 218.79 59.99, 213.82 66.48 C208.85 72.97, 200.28 80.29, 190.04 85.26 C179.8 90.24, 166.38 93.73, 152.38 96.32 C138.38 98.91, 121.13 100.9, 106.02 100.82 C90.91 100.74, 74.9 99.06, 61.73 95.84 C48.55 92.63, 36.58 87.01, 26.98 81.54 C17.39 76.06, 8.35 69.43, 4.16 62.98 C-0.03 56.52, -0.07 49.52, 1.87 42.83 C3.81 36.14, 8.27 28.6, 15.82 22.84 C23.36 17.07, 34.08 11.89, 47.13 8.23 C60.18 4.57, 85.51 2.06, 94.13 0.88 C102.76 -0.3, 98.62 0.53, 98.88 1.15 M161.14 6.87 C174.97 9.17, 188.3 12.95, 197.26 17.85 C206.22 22.74, 211.59 29.34, 214.91 36.24 C218.24 43.13, 219.47 52.23, 217.23 59.21 C214.99 66.19, 209.4 72.42, 201.47 78.12 C193.53 83.81, 181.87 89.61, 169.63 93.37 C157.4 97.13, 142.67 99.63, 128.03 100.68 C113.4 101.74, 96.53 101.66, 81.84 99.72 C67.14 97.77, 51.54 93.77, 39.86 89.01 C28.17 84.25, 18.25 77.13, 11.73 71.16 C5.21 65.19, 1.45 60, 0.75 53.21 C0.05 46.42, 2.2 37.06, 7.53 30.4 C12.87 23.74, 22.36 17.95, 32.76 13.24 C43.15 8.53, 56.19 4.42, 69.91 2.14 C83.62 -0.14, 99.95 -1.08, 115.06 -0.46 C130.18 0.15, 153.09 4.46, 160.62 5.8 C168.14 7.15, 161.03 6.69, 160.22 7.59" stroke="none" stroke-width="0" fill="#ffc9c9"></path><path d="M95.66 -0.47 C109.61 -2.06, 126.95 -0.67, 141.24 1.24 C155.54 3.14, 170.01 6.38, 181.45 10.95 C192.88 15.51, 203.36 22.41, 209.87 28.62 C216.38 34.83, 220.15 41.62, 220.52 48.21 C220.9 54.81, 218.06 61.69, 212.12 68.18 C206.17 74.66, 195.59 82.41, 184.84 87.12 C174.09 91.83, 161.47 94.31, 147.62 96.43 C133.78 98.55, 116.82 100.28, 101.77 99.83 C86.72 99.38, 70.6 96.98, 57.32 93.74 C44.05 90.49, 31.02 85.72, 22.14 80.36 C13.27 75, 7.37 68.05, 4.07 61.57 C0.78 55.1, -0.05 48.11, 2.37 41.54 C4.78 34.97, 10.14 27.83, 18.57 22.16 C26.99 16.49, 38.92 11.04, 52.94 7.52 C66.95 4, 93.64 2.21, 102.68 1.03 C111.71 -0.14, 107.34 -0.22, 107.16 0.48 M135.82 1.38 C150.19 2.3, 166.78 7.95, 178.58 11.92 C190.38 15.89, 199.73 19.55, 206.62 25.22 C213.52 30.89, 218.79 38.73, 219.93 45.96 C221.07 53.18, 218.77 61.89, 213.46 68.58 C208.16 75.26, 198.6 81.28, 188.09 86.08 C177.59 90.88, 164.33 94.89, 150.44 97.36 C136.54 99.84, 119.68 101.16, 104.72 100.92 C89.75 100.68, 73.98 99.15, 60.62 95.9 C47.27 92.66, 33.94 86.9, 24.56 81.45 C15.18 76.01, 8.33 69.59, 4.34 63.22 C0.36 56.84, -1.2 49.92, 0.66 43.2 C2.51 36.48, 7.67 28.79, 15.49 22.9 C23.31 17.02, 35.17 11.39, 47.57 7.9 C59.97 4.41, 74.79 2.81, 89.89 1.97 C104.99 1.13, 130.56 2.59, 138.18 2.85 C145.8 3.12, 136.19 3.01, 135.61 3.56" stroke="#1e1e1e" stroke-width="1" fill="none"></path></g><g transform="translate(1117.1830978194798 599.4446609406725) rotate(0 63.03515625 20.700000000000045)"><text x="63.03515625" y="0" font-family="Helvetica, Segoe UI Emoji" font-size="36px" fill="#1e1e1e" text-anchor="middle" style="white-space: pre;" direction="ltr" dominant-baseline="text-before-edge">Handler</text></g><g stroke-linecap="round" transform="translate(1070 290) rotate(0 110 50)"><path d="M106.28 0.18 C120.34 -0.93, 136.93 1.25, 150.59 3.83 C164.24 6.41, 177.68 10.73, 188.21 15.65 C198.75 20.58, 208.54 27.22, 213.8 33.38 C219.07 39.54, 220.73 46.05, 219.81 52.61 C218.89 59.17, 215.07 66.49, 208.29 72.76 C201.5 79.02, 191.04 85.93, 179.08 90.18 C167.12 94.42, 151.27 96.55, 136.52 98.22 C121.77 99.88, 105.22 101.37, 90.58 100.15 C75.93 98.94, 61.04 95.02, 48.65 90.95 C36.26 86.89, 24.23 81.4, 16.25 75.76 C8.26 70.12, 2.71 63.58, 0.74 57.13 C-1.23 50.68, 0.37 43.61, 4.44 37.07 C8.51 30.53, 15.85 23.06, 25.16 17.91 C34.47 12.75, 45.15 9.23, 60.31 6.15 C75.46 3.07, 104.71 0.04, 116.08 -0.55 C127.45 -1.15, 128.33 1.73, 128.53 2.57 M59.8 5.26 C71.84 1.82, 88.43 0.38, 103.34 0.23 C118.24 0.08, 135.14 1.91, 149.23 4.35 C163.33 6.79, 177.17 10.47, 187.9 14.89 C198.62 19.3, 208.19 24.68, 213.58 30.84 C218.96 37, 221.24 44.87, 220.21 51.84 C219.18 58.81, 213.87 66.56, 207.38 72.66 C200.89 78.76, 192.75 84.17, 181.28 88.45 C169.8 92.72, 153.23 96.65, 138.54 98.31 C123.85 99.97, 107.84 99.58, 93.14 98.39 C78.44 97.2, 62.85 94.55, 50.35 91.17 C37.84 87.79, 26.17 83.4, 18.09 78.11 C10.01 72.82, 4.14 66.07, 1.88 59.42 C-0.39 52.77, 0.69 44.79, 4.49 38.22 C8.3 31.65, 15.79 25.61, 24.73 19.99 C33.66 14.37, 52.27 6.68, 58.09 4.49 C63.92 2.3, 58.6 6.1, 59.7 6.84" stroke="none" stroke-width="0" fill="#ffc9c9"></path><path d="M117.65 0.68 C131.99 0.32, 148.03 3.32, 161.03 6.22 C174.03 9.13, 186.22 12.75, 195.65 18.13 C205.07 23.52, 213.9 31.76, 217.58 38.54 C221.25 45.32, 220.4 52.31, 217.69 58.8 C214.98 65.3, 209.55 72.05, 201.31 77.53 C193.07 83, 180.91 87.83, 168.26 91.65 C155.61 95.48, 140.17 99.33, 125.41 100.49 C110.66 101.66, 93.97 100.78, 79.74 98.65 C65.52 96.52, 51.4 92.04, 40.05 87.69 C28.7 83.34, 18.3 78.38, 11.65 72.57 C5.01 66.76, 0.66 59.84, 0.19 52.83 C-0.29 45.82, 3.36 37.14, 8.81 30.53 C14.26 23.93, 22.31 17.68, 32.89 13.18 C43.46 8.69, 57.6 5.62, 72.26 3.54 C86.92 1.47, 112.2 1.11, 120.85 0.75 C129.49 0.39, 124.15 0.49, 124.11 1.38 M89.89 0.92 C104 -1.17, 122.84 -1.02, 137.64 0.45 C152.44 1.93, 167 5.69, 178.71 9.78 C190.42 13.87, 200.93 19.07, 207.92 24.98 C214.91 30.89, 219.56 38.43, 220.65 45.23 C221.75 52.03, 219.81 59.22, 214.49 65.79 C209.18 72.37, 199.33 79.68, 188.76 84.69 C178.19 89.71, 164.74 93.52, 151.07 95.86 C137.41 98.2, 121.7 99.02, 106.78 98.71 C91.87 98.41, 75.16 96.97, 61.59 94.05 C48.02 91.13, 34.71 85.97, 25.38 81.21 C16.05 76.44, 9.43 71.88, 5.59 65.46 C1.76 59.04, 0.37 49.54, 2.37 42.7 C4.37 35.86, 9.99 29.84, 17.58 24.4 C25.18 18.97, 36.01 14.11, 47.95 10.09 C59.89 6.06, 82.05 1.55, 89.2 0.26 C96.36 -1.03, 90.59 1.63, 90.9 2.36" stroke="#1e1e1e" stroke-width="1" fill="none"></path></g><g transform="translate(1117.1830978194798 319.4446609406725) rotate(0 63.03515625 20.700000000000045)"><text x="63.03515625" y="0" font-family="Helvetica, Segoe UI Emoji" font-size="36px" fill="#1e1e1e" text-anchor="middle" style="white-space: pre;" direction="ltr" dominant-baseline="text-before-edge">Handler</text></g><g stroke-linecap="round" transform="translate(530 590) rotate(0 170 50)"><path d="M23.84 -0.7 L315.1 -0.82 L325.53 2.79 L330.63 5.22 L337.13 10.32 L339.19 19.45 L341.66 74.04 L337 87.22 L337.78 89.22 L328.46 94.92 L314.16 101.22 L26.41 99.12 L15.91 97.54 L5.21 91.95 L4.43 90.75 L0.04 80.95 L-0.72 21.03 L3.75 10.49 L5.5 4.42 L13.52 3.12 L25.47 0.85" stroke="none" stroke-width="0" fill="#a5d8ff"></path><path d="M25 0 M25 0 C111.94 -3.24, 200.02 -3.52, 315 0 M25 0 C140.87 -1.06, 255.72 -0.34, 315 0 M315 0 C330.68 -0.23, 340.23 7.83, 340 25 M315 0 C333.2 1.46, 338.54 6.25, 340 25 M340 25 C338.54 43.18, 339.14 63.87, 340 75 M340 25 C340.6 43.83, 339.79 62.08, 340 75 M340 75 C339.79 91.07, 331.49 101.59, 315 100 M340 75 C341.11 90.98, 331.63 98.25, 315 100 M315 100 C242.38 98.18, 167.18 98.76, 25 100 M315 100 C205.21 98.26, 96.66 97.67, 25 100 M25 100 C7.79 98.96, 0.52 92.54, 0 75 M25 100 C7.88 99.13, -0.71 91.34, 0 75 M0 75 C-1.07 61.87, 1.47 49.94, 0 25 M0 75 C0.8 55.92, 0.08 37.18, 0 25 M0 25 C-0.31 7.54, 8.97 1.11, 25 0 M0 25 C-0.67 7.64, 8.51 1.29, 25 0" stroke="#1e1e1e" stroke-width="1" fill="none"></path></g><g transform="translate(628.966796875 619.3) rotate(0 71.033203125 20.700000000000045)"><text x="71.033203125" y="0" font-family="Helvetica, Segoe UI Emoji" font-size="36px" fill="#1e1e1e" text-anchor="middle" style="white-space: pre;" direction="ltr" dominant-baseline="text-before-edge">Acceptor</text></g><g stroke-linecap="round"><g transform="translate(290 130) rotate(0 130.46970295198275 100.23119515292348)"><path d="M0.14 -0.3 C43.7 33.18, 217.62 167.56, 260.8 200.76" stroke="#1e1e1e" stroke-width="1.5" fill="none" stroke-dasharray="8 9"></path></g><g transform="translate(290 130) rotate(0 130.46970295198275 100.23119515292348)"><path d="M231.71 193.01 C240.65 192.66, 244.73 197.83, 262.03 198.85" stroke="#1e1e1e" stroke-width="1.5" fill="none"></path></g><g transform="translate(290 130) rotate(0 130.46970295198275 100.23119515292348)"><path d="M244.24 176.76 C250.01 180.5, 250.96 189.74, 262.03 198.85" stroke="#1e1e1e" stroke-width="1.5" fill="none"></path></g></g><mask></mask><g stroke-linecap="round"><g transform="translate(290 350) rotate(0 129.53375473506753 -0.12603575492005348)"><path d="M-1.16 0.6 C42.3 0.39, 216.59 -0.91, 260.23 -0.85" stroke="#1e1e1e" stroke-width="1.5" fill="none" stroke-dasharray="8 9"></path></g><g transform="translate(290 350) rotate(0 129.53375473506753 -0.12603575492005348)"><path d="M233.08 9.9 C237.75 8.32, 247.84 5.78, 258.27 -1.55" stroke="#1e1e1e" stroke-width="1.5" fill="none"></path></g><g transform="translate(290 350) rotate(0 129.53375473506753 -0.12603575492005348)"><path d="M233.01 -10.62 C237.76 -7, 247.88 -4.35, 258.27 -1.55" stroke="#1e1e1e" stroke-width="1.5" fill="none"></path></g></g><mask></mask><g stroke-linecap="round"><g transform="translate(290 590) rotate(0 129.1847743798046 -110.15591244585812)"><path d="M-0.79 0.26 C42.46 -36.47, 215.84 -184.02, 259.16 -220.57" stroke="#1e1e1e" stroke-width="1.5" fill="none" stroke-dasharray="8 9"></path></g><g transform="translate(290 590) rotate(0 129.1847743798046 -110.15591244585812)"><path d="M244.73 -195.91 C247.38 -202.86, 253.9 -210.1, 260.58 -222.44" stroke="#1e1e1e" stroke-width="1.5" fill="none"></path></g><g transform="translate(290 590) rotate(0 129.1847743798046 -110.15591244585812)"><path d="M231.46 -211.56 C237.65 -214.22, 247.75 -217.24, 260.58 -222.44" stroke="#1e1e1e" stroke-width="1.5" fill="none"></path></g></g><mask></mask><g stroke-linecap="round"><g transform="translate(830 310) rotate(0 119.76095448844126 -90.7759881083295)"><path d="M-1.19 0.27 C38.96 -29.85, 200.5 -149.61, 240.71 -179.8 M0.38 -0.63 C40.46 -31.22, 200.31 -151.93, 240.14 -181.83" stroke="#1e1e1e" stroke-width="1" fill="none"></path></g><g transform="translate(830 310) rotate(0 119.76095448844126 -90.7759881083295)"><path d="M224.25 -155.48 C228.58 -163.52, 231.44 -170.22, 240.67 -179.86 M224.54 -157.41 C229.47 -162.96, 232.51 -171.01, 240.96 -182.68" stroke="#1e1e1e" stroke-width="1" fill="none"></path></g><g transform="translate(830 310) rotate(0 119.76095448844126 -90.7759881083295)"><path d="M211.9 -171.87 C219.86 -175.12, 226.24 -177.17, 240.67 -179.86 M212.19 -173.8 C220.54 -174.62, 227.13 -177.96, 240.96 -182.68" stroke="#1e1e1e" stroke-width="1" fill="none"></path></g></g><mask></mask><g stroke-linecap="round"><g transform="translate(831 345.09687329743883) rotate(0 118.61704653783863 -5.492187718515993)"><path d="M0.71 0.2 C40.51 -1.71, 198.08 -9.48, 237.61 -11.18 M-0.37 -0.75 C39.38 -2.55, 197.09 -8.81, 236.7 -10.1" stroke="#1e1e1e" stroke-width="1" fill="none"></path></g><g transform="translate(831 345.09687329743883) rotate(0 118.61704653783863 -5.492187718515993)"><path d="M209.23 1.33 C213 -0.66, 220.57 -1.55, 236.45 -11.74 M209.67 2.12 C216.02 -1.78, 225.82 -6.02, 236.32 -10.48" stroke="#1e1e1e" stroke-width="1" fill="none"></path></g><g transform="translate(831 345.09687329743883) rotate(0 118.61704653783863 -5.492187718515993)"><path d="M208.48 -19.18 C212.45 -17.05, 220.16 -13.83, 236.45 -11.74 M208.92 -18.39 C215.64 -16.31, 225.65 -14.59, 236.32 -10.48" stroke="#1e1e1e" stroke-width="1" fill="none"></path></g></g><mask></mask><g stroke-linecap="round"><g transform="translate(830 370) rotate(0 129.46374693401162 109.83149445412676)"><path d="M-0.66 0.12 C42.45 36.79, 216.2 182.57, 259.59 219.34 M1.19 -0.86 C44.04 36.02, 215.5 183.92, 258.43 220.53" stroke="#1e1e1e" stroke-width="1" fill="none"></path></g><g transform="translate(830 370) rotate(0 129.46374693401162 109.83149445412676)"><path d="M230.55 209.27 C239.67 213.52, 252.47 216.31, 259.35 221.65 M231.22 209.77 C238.21 212.48, 246.84 215.78, 259.07 220.57" stroke="#1e1e1e" stroke-width="1" fill="none"></path></g><g transform="translate(830 370) rotate(0 129.46374693401162 109.83149445412676)"><path d="M243.92 193.7 C247.96 203.69, 255.77 212.29, 259.35 221.65 M244.59 194.2 C247.57 201.75, 252.07 209.85, 259.07 220.57" stroke="#1e1e1e" stroke-width="1" fill="none"></path></g></g><mask></mask><g stroke-linecap="round"><g transform="translate(690 390) rotate(0 0.2612635501193381 100.05323143510145)"><path d="M-0.66 0.5 C-0.62 33.83, 0.31 165.89, 0.56 199.24 M1.19 -0.28 C1.1 33.25, 0.01 167.23, -0.1 200.38" stroke="#1e1e1e" stroke-width="1" fill="none"></path></g><g transform="translate(690 390) rotate(0 0.2612635501193381 100.05323143510145)"><path d="M-9.35 173.06 C-8.35 182.74, -2.75 188.68, -0.09 198.73 M-9.89 172.62 C-7.25 177.48, -5.97 184.89, 0.21 199.55" stroke="#1e1e1e" stroke-width="1" fill="none"></path></g><g transform="translate(690 390) rotate(0 0.2612635501193381 100.05323143510145)"><path d="M11.17 173.19 C5.54 182.71, 4.49 188.61, -0.09 198.73 M10.64 172.74 C8.81 177.42, 5.61 184.8, 0.21 199.55" stroke="#1e1e1e" stroke-width="1" fill="none"></path></g></g><mask></mask></svg>