<svg version="1.1" xmlns="http://www.w3.org/2000/svg" viewBox="0 0 1780 1200" width="1780" height="1200">
  <!-- svg-source:excalidraw -->
  
  <defs>
    <style class="style-fonts">
      @font-face {
        font-family: "Virgil";
        src: url("https://excalidraw.com/Virgil.woff2");
      }
      @font-face {
        font-family: "Cascadia";
        src: url("https://excalidraw.com/Cascadia.woff2");
      }
    </style>
    
  </defs>
  <rect x="0" y="0" width="1780" height="1200" fill="#ffffff"></rect><g stroke-linecap="round" transform="translate(10 10) rotate(0 880 590)"><path d="M31.45 -0.05 L1728.7 -1.11 L1736.2 0 L1745.66 5.04 L1757.37 10.91 L1757.68 19.3 L1761.39 33.18 L1759.7 1147.92 L1760.67 1156.82 L1754.65 1168.65 L1748.2 1174.78 L1741.53 1179.67 L1726.97 1180.49 L32.85 1180.15 L25.01 1180.86 L12.16 1174.71 L5.88 1166.74 L1.03 1161.47 L-0.82 1146.49 L-1.42 33.5 L1.04 18.39 L8.43 7.82 L17.6 3.23 L31.28 0.96" stroke="none" stroke-width="0" fill="#fff"></path><path d="M32 0 M32 0 C461.33 -0.59, 889.41 -0.54, 1728 0 M32 0 C671.39 4.56, 1311.36 4.46, 1728 0 M1728 0 C1749.85 -1.31, 1761.16 9.55, 1760 32 M1728 0 C1748.13 -1.82, 1759.41 12.21, 1760 32 M1760 32 C1758.45 452.82, 1758.45 875.3, 1760 1148 M1760 32 C1762.75 268.08, 1762.8 503.11, 1760 1148 M1760 1148 C1759.25 1167.39, 1750.75 1180.43, 1728 1180 M1760 1148 C1758.63 1169.72, 1750.88 1178.97, 1728 1180 M1728 1180 C1355.81 1178.56, 983.06 1179.22, 32 1180 M1728 1180 C1221.57 1180.77, 715.71 1181.27, 32 1180 M32 1180 C8.93 1181.39, -0.95 1169.74, 0 1148 M32 1180 C12.59 1179, -0.28 1169.09, 0 1148 M0 1148 C0.48 882.51, 0.43 617.21, 0 32 M0 1148 C-3.1 712.81, -2.99 277.34, 0 32 M0 32 C1.28 10.86, 9.21 0.38, 32 0 M0 32 C0.65 10.3, 8.56 -1.48, 32 0" stroke="#1e1e1e" stroke-width="1" fill="none"></path></g><g stroke-linecap="round" transform="translate(570 90) rotate(0 550 330)"><path d="M33.52 -0.4 L1066.17 0.63 L1076.86 0.39 L1087.51 5.32 L1097.34 11.33 L1098.29 19.38 L1099.45 30.1 L1101.01 628.75 L1100.7 636.87 L1097.21 647.81 L1086.14 655.79 L1083.44 656.45 L1069.85 660.44 L32.81 660.48 L25.93 658.9 L12.43 656.23 L3.03 648.22 L2.46 642.45 L-1.18 627.89 L-0.41 33.91 L0.5 16.4 L8.03 6.3 L16.3 3.68 L32.04 -0.19" stroke="none" stroke-width="0" fill="#fff"></path><path d="M32 0 M32 0 C420.22 1.2, 808.87 1.81, 1068 0 M1068 0 C1089.07 -0.23, 1100.22 9.6, 1100 32 M1100 32 C1100.17 250.89, 1099.27 470.26, 1100 628 M1100 628 C1099.5 649.55, 1089.11 658.84, 1068 660 M1068 660 C659.78 662.76, 250.48 663.6, 32 660 M32 660 C9.95 659.74, 1.39 649.53, 0 628 M0 628 C-1.86 464.38, -2.06 300.01, 0 32 M0 32 C0.03 12.28, 10.29 1.37, 32 0" stroke="#1e1e1e" stroke-width="1.5" fill="none" stroke-dasharray="8 9"></path></g><g stroke-linecap="round" transform="translate(90 190) rotate(0 100 60)"><path d="M72.87 2.62 C84.86 -0.07, 100.44 0.32, 113.88 1.38 C127.31 2.45, 141.85 4.87, 153.47 9.03 C165.1 13.19, 176.28 19.39, 183.63 26.34 C190.99 33.28, 195.41 42.57, 197.61 50.72 C199.81 58.86, 200.04 67.56, 196.86 75.23 C193.68 82.9, 186.76 90.43, 178.53 96.75 C170.29 103.07, 159.43 109.37, 147.44 113.16 C135.45 116.96, 120.13 118.88, 106.6 119.51 C93.06 120.14, 79.05 119.8, 66.21 116.95 C53.38 114.1, 39.31 108.07, 29.59 102.4 C19.87 96.73, 12.8 90.53, 7.9 82.92 C2.99 75.32, -0.29 65.06, 0.15 56.79 C0.6 48.53, 4.7 40.52, 10.57 33.33 C16.44 26.14, 23.72 18.99, 35.38 13.66 C47.03 8.33, 71.7 3.35, 80.5 1.37 C89.29 -0.61, 87.82 0.67, 88.16 1.77 M144.81 5.58 C156.99 8.61, 168.89 16.7, 177.29 23.34 C185.68 29.97, 191.52 37.87, 195.18 45.39 C198.85 52.91, 201.08 60.64, 199.27 68.46 C197.46 76.28, 191.97 85.13, 184.33 92.3 C176.69 99.46, 164.95 106.74, 153.41 111.43 C141.88 116.12, 128.54 119.42, 115.12 120.43 C101.69 121.44, 85.97 119.86, 72.88 117.48 C59.79 115.11, 46.81 111.34, 36.55 106.2 C26.3 101.05, 17.37 93.91, 11.35 86.61 C5.33 79.31, 1.26 70.62, 0.43 62.42 C-0.41 54.22, 1.68 45.09, 6.33 37.41 C10.99 29.72, 18.59 21.87, 28.37 16.32 C38.15 10.78, 52.02 6.69, 64.99 4.14 C77.96 1.58, 92.74 0.38, 106.19 1 C119.65 1.63, 139.46 6.83, 145.74 7.88 C152.02 8.94, 144.65 6.43, 143.89 7.35" stroke="none" stroke-width="0" fill="#868e96"></path><path d="M136.84 4.2 C149.08 6.09, 161.63 12.56, 171.04 18.28 C180.46 24, 188.72 30.74, 193.35 38.53 C197.97 46.31, 199.74 56.66, 198.81 65 C197.87 73.34, 193.89 81.38, 187.73 88.56 C181.58 95.74, 172.3 103.07, 161.87 108.09 C151.43 113.11, 138.3 116.91, 125.12 118.67 C111.93 120.42, 96.38 120.18, 82.74 118.61 C69.11 117.05, 54.52 113.79, 43.31 109.29 C32.1 104.78, 22.38 98.27, 15.47 91.57 C8.55 84.88, 3.71 77, 1.81 69.09 C-0.09 61.18, 0.42 51.91, 4.07 44.11 C7.72 36.32, 15.04 28.59, 23.69 22.34 C32.34 16.09, 43.98 10.38, 55.98 6.62 C67.97 2.86, 81.52 -0.01, 95.66 -0.23 C109.81 -0.45, 133.26 3.96, 140.84 5.29 C148.42 6.61, 141.88 6.89, 141.12 7.72 M88.11 0.37 C100.71 -1.08, 117.72 1.67, 130.84 3.93 C143.96 6.2, 156.52 8.51, 166.84 13.97 C177.15 19.42, 187.18 28.91, 192.73 36.65 C198.28 44.39, 200.5 52.59, 200.14 60.42 C199.78 68.24, 196.03 76.22, 190.6 83.61 C185.16 90.99, 177.26 99.13, 167.53 104.74 C157.8 110.36, 145.18 114.61, 132.21 117.3 C119.23 120, 103.4 121.67, 89.7 120.89 C76.01 120.1, 61.88 116.96, 50.03 112.61 C38.19 108.25, 26.41 101.59, 18.62 94.75 C10.84 87.91, 6.06 79.47, 3.32 71.57 C0.58 63.66, -0.63 54.98, 2.18 47.34 C4.98 39.71, 12.38 32.37, 20.15 25.75 C27.91 19.14, 37.15 12.03, 48.78 7.65 C60.41 3.28, 83.19 0.6, 89.93 -0.53 C96.68 -1.65, 89.24 -0.11, 89.24 0.88" stroke="#1e1e1e" stroke-width="1" fill="none"></path></g><g transform="translate(143.76979063134513 229.37359312880722) rotate(0 46.01953125 20.700000000000045)"><text x="46.01953125" y="0" font-family="Helvetica, Segoe UI Emoji" font-size="36px" fill="#1e1e1e" text-anchor="middle" style="white-space: pre;" direction="ltr" dominant-baseline="text-before-edge">Client</text></g><g stroke-linecap="round" transform="translate(90 690) rotate(0 100 60)"><path d="M118.11 0.77 C131.21 1.08, 145.92 5.39, 156.93 10.16 C167.94 14.93, 177.16 22.36, 184.18 29.42 C191.2 36.48, 197.07 44.65, 199.03 52.5 C200.98 60.35, 199.58 68.78, 195.92 76.51 C192.25 84.25, 185.82 92.72, 177.05 98.92 C168.28 105.12, 155.53 110.11, 143.3 113.73 C131.07 117.34, 117.33 120.43, 103.67 120.62 C90 120.82, 73.86 117.98, 61.32 114.89 C48.78 111.8, 37.65 108.01, 28.41 102.08 C19.18 96.15, 10.55 87.09, 5.91 79.3 C1.27 71.5, -0.33 63.3, 0.57 55.3 C1.48 47.29, 4.91 38.39, 11.35 31.29 C17.8 24.18, 28.36 17.59, 39.25 12.68 C50.13 7.76, 62.59 3.5, 76.68 1.82 C90.77 0.14, 115.05 2.34, 123.79 2.6 C132.53 2.86, 129.69 2.61, 129.13 3.37 M67.56 3.91 C79.48 0.31, 97 -1.2, 110.8 -0.58 C124.59 0.04, 138.81 3.24, 150.3 7.64 C161.79 12.03, 171.9 18.96, 179.72 25.79 C187.54 32.61, 194.4 40.92, 197.2 48.61 C200.01 56.3, 199.35 64.22, 196.56 71.91 C193.76 79.6, 188.11 88.18, 180.44 94.74 C172.77 101.3, 162.15 107.23, 150.56 111.26 C138.97 115.29, 124.49 118.12, 110.89 118.91 C97.29 119.69, 82.05 118.56, 68.95 115.97 C55.86 113.38, 42.21 108.6, 32.32 103.37 C22.42 98.15, 14.8 91.69, 9.58 84.63 C4.37 77.57, 1.11 68.95, 1.01 61.02 C0.91 53.08, 3.74 44.67, 8.97 37.04 C14.21 29.41, 22.36 20.66, 32.41 15.23 C42.47 9.8, 63.32 6.38, 69.31 4.46 C75.3 2.54, 67.72 3.22, 68.35 3.71" stroke="none" stroke-width="0" fill="#868e96"></path><path d="M93.43 -0.71 C106.16 -1.94, 121.46 1.69, 134.13 4.77 C146.8 7.85, 159.63 12.05, 169.47 17.75 C179.32 23.45, 188 31.38, 193.19 38.95 C198.38 46.51, 201.24 55.25, 200.6 63.15 C199.95 71.04, 195.67 79.21, 189.33 86.32 C183 93.42, 173.01 100.6, 162.58 105.79 C152.16 110.99, 139.57 115.13, 126.8 117.49 C114.02 119.85, 99.34 121, 85.95 119.94 C72.56 118.87, 57.95 115.44, 46.46 111.09 C34.98 106.75, 24.53 100.67, 17.02 93.88 C9.5 87.08, 3.79 78.55, 1.38 70.34 C-1.02 62.14, -0.93 52.57, 2.59 44.66 C6.12 36.74, 14.13 29.04, 22.52 22.86 C30.91 16.68, 39.74 11.43, 52.93 7.58 C66.12 3.73, 92.36 0.73, 101.64 -0.25 C110.91 -1.22, 108.72 0.82, 108.59 1.73 M100.99 -1.35 C114.11 -2.18, 130.62 2.89, 142.97 6.58 C155.31 10.28, 166.46 15.02, 175.06 20.81 C183.65 26.59, 190.41 33.59, 194.53 41.3 C198.66 49.01, 201.02 58.81, 199.81 67.05 C198.59 75.3, 194.21 83.58, 187.24 90.75 C180.27 97.92, 169.23 105.29, 157.98 110.06 C146.73 114.83, 133.12 118.06, 119.75 119.38 C106.37 120.69, 90.75 119.98, 77.72 117.95 C64.69 115.91, 52.37 111.97, 41.58 107.18 C30.79 102.39, 19.64 95.97, 12.99 89.22 C6.33 82.46, 3.11 74.76, 1.64 66.64 C0.16 58.52, -0.06 48.5, 4.15 40.49 C8.36 32.48, 17.61 24.61, 26.9 18.58 C36.18 12.55, 47.6 7.56, 59.85 4.31 C72.1 1.06, 93.8 -0.57, 100.41 -0.94 C107.02 -1.3, 99.58 1.07, 99.51 2.12" stroke="#1e1e1e" stroke-width="1" fill="none"></path></g><g transform="translate(143.76979063134513 729.3735931288072) rotate(0 46.01953125 20.700000000000045)"><text x="46.01953125" y="0" font-family="Helvetica, Segoe UI Emoji" font-size="36px" fill="#1e1e1e" text-anchor="middle" style="white-space: pre;" direction="ltr" dominant-baseline="text-before-edge">Client</text></g><g stroke-linecap="round" transform="translate(90 430) rotate(0 100 60)"><path d="M88.95 1.22 C101.51 -0.34, 118.12 1.17, 131.15 3.5 C144.18 5.83, 156.93 9.79, 167.12 15.18 C177.32 20.58, 186.84 28.42, 192.32 35.87 C197.8 43.31, 200.05 51.62, 199.99 59.85 C199.93 68.08, 197.65 77.86, 191.98 85.24 C186.31 92.62, 176.09 98.7, 165.98 104.12 C155.87 109.55, 144.11 115.34, 131.33 117.78 C118.55 120.22, 102.84 119.77, 89.28 118.76 C75.73 117.74, 61.83 115.67, 49.99 111.69 C38.15 107.71, 26.19 101.41, 18.27 94.87 C10.35 88.33, 5.08 80.35, 2.46 72.45 C-0.16 64.54, -0.32 55.27, 2.56 47.44 C5.43 39.62, 11.58 32.14, 19.7 25.5 C27.81 18.86, 37.61 11.93, 51.24 7.62 C64.87 3.31, 91.13 0.66, 101.48 -0.35 C111.84 -1.36, 113.16 0.63, 113.36 1.54 M131.43 2.6 C143.89 4.46, 156 10.87, 165.9 16.58 C175.8 22.28, 185.35 29.66, 190.82 36.83 C196.29 44, 198.72 51.72, 198.71 59.58 C198.7 67.45, 196 76.61, 190.76 84.01 C185.52 91.41, 177.21 98.59, 167.26 103.98 C157.32 109.36, 144.11 113.9, 131.09 116.33 C118.07 118.76, 102.83 119.49, 89.15 118.55 C75.48 117.6, 60.57 114.52, 49.03 110.66 C37.49 106.79, 27.56 101.58, 19.91 95.36 C12.27 89.14, 6.06 81.09, 3.17 73.34 C0.29 65.58, 0.02 56.97, 2.6 48.82 C5.17 40.67, 10.62 30.99, 18.6 24.44 C26.57 17.88, 38.8 13.59, 50.44 9.51 C62.08 5.42, 74.83 1.23, 88.43 -0.07 C102.02 -1.37, 124.9 1.21, 132.03 1.71 C139.15 2.21, 131.97 1.61, 131.17 2.94" stroke="none" stroke-width="0" fill="#868e96"></path><path d="M59.53 5.47 C70.92 1.55, 87.29 0.82, 101.08 0.9 C114.86 0.97, 129.95 2.76, 142.24 5.91 C154.54 9.05, 166.13 13.86, 174.83 19.78 C183.53 25.71, 190.32 33.69, 194.43 41.47 C198.55 49.26, 200.75 58.23, 199.5 66.5 C198.24 74.78, 193.8 83.95, 186.93 91.1 C180.05 98.25, 169.37 104.64, 158.26 109.39 C147.16 114.14, 133.63 118, 120.3 119.6 C106.97 121.21, 91.71 121, 78.29 119.05 C64.88 117.11, 50.61 112.81, 39.84 107.93 C29.06 103.04, 20.37 96.65, 13.65 89.75 C6.92 82.85, 0.87 74.7, -0.51 66.52 C-1.9 58.34, 0.91 48.46, 5.35 40.66 C9.78 32.86, 16.27 25.99, 26.12 19.72 C35.97 13.44, 57.09 5.62, 64.46 3.01 C71.82 0.4, 69.53 2.98, 70.31 4.06 M56.43 6.58 C66.97 2.08, 82.21 -0.32, 95.81 -0.64 C109.41 -0.97, 125.16 1.43, 138.05 4.64 C150.93 7.86, 163.81 12.65, 173.13 18.67 C182.45 24.69, 189.54 33.06, 193.95 40.76 C198.36 48.46, 200.64 57.04, 199.59 64.85 C198.53 72.66, 193.79 80.71, 187.62 87.62 C181.45 94.52, 173.13 101.24, 162.54 106.29 C151.95 111.35, 137.23 115.64, 124.09 117.93 C110.94 120.21, 97.2 121.43, 83.67 119.98 C70.14 118.54, 54.26 114.1, 42.93 109.24 C31.61 104.39, 22.77 97.79, 15.72 90.85 C8.68 83.91, 2.7 75.67, 0.65 67.6 C-1.4 59.54, -0.16 49.99, 3.42 42.44 C7 34.88, 13.44 28.46, 22.11 22.28 C30.78 16.11, 49.87 7.89, 55.47 5.38 C61.07 2.87, 54.75 6.32, 55.71 7.23" stroke="#1e1e1e" stroke-width="1" fill="none"></path></g><g transform="translate(143.76979063134513 469.3735931288072) rotate(0 46.01953125 20.700000000000045)"><text x="46.01953125" y="0" font-family="Helvetica, Segoe UI Emoji" font-size="36px" fill="#1e1e1e" text-anchor="middle" style="white-space: pre;" direction="ltr" dominant-baseline="text-before-edge">Client</text></g><g stroke-linecap="round"><g transform="translate(292.88047043648066 259.0888962074023) rotate(0 131.09928816983256 71.94934721606535)"><path d="M0.62 0.54 C44.1 24.38, 218.15 119.68, 261.58 143.36" stroke="#1e1e1e" stroke-width="1.5" fill="none" stroke-dasharray="8 9"></path></g><g transform="translate(292.88047043648066 259.0888962074023) rotate(0 131.09928816983256 71.94934721606535)"><path d="M232.82 140.44 C242.66 141.29, 252.08 141.4, 263.03 143.85" stroke="#1e1e1e" stroke-width="1.5" fill="none"></path></g><g transform="translate(292.88047043648066 259.0888962074023) rotate(0 131.09928816983256 71.94934721606535)"><path d="M242.66 122.43 C249.01 129.82, 254.88 136.42, 263.03 143.85" stroke="#1e1e1e" stroke-width="1.5" fill="none"></path></g></g><mask></mask><g stroke-linecap="round"><g transform="translate(289.77755491364724 480.5380484182706) rotate(0 132.63231175242004 -12.85816146677189)"><path d="M0.96 0.03 C44.91 -4.35, 220.57 -21.72, 264.31 -25.74" stroke="#1e1e1e" stroke-width="1.5" fill="none" stroke-dasharray="8 9"></path></g><g transform="translate(289.77755491364724 480.5380484182706) rotate(0 132.63231175242004 -12.85816146677189)"><path d="M237.27 -11.86 C245.47 -18.14, 257.67 -21.64, 262.38 -24.1" stroke="#1e1e1e" stroke-width="1.5" fill="none"></path></g><g transform="translate(289.77755491364724 480.5380484182706) rotate(0 132.63231175242004 -12.85816146677189)"><path d="M235.31 -32.29 C244.29 -31.4, 257.18 -27.71, 262.38 -24.1" stroke="#1e1e1e" stroke-width="1.5" fill="none"></path></g></g><mask></mask><g stroke-linecap="round"><g transform="translate(287.92467623501307 728.571531646242) rotate(0 132.91534247137952 -121.39165346507798)"><path d="M0.58 -0.73 C44.63 -41.08, 221.03 -201.49, 265.25 -242.05" stroke="#1e1e1e" stroke-width="1.5" fill="none" stroke-dasharray="8 9"></path></g><g transform="translate(287.92467623501307 728.571531646242) rotate(0 132.91534247137952 -121.39165346507798)"><path d="M250.12 -216.01 C258.07 -225.14, 259.97 -234.09, 265.55 -242.56" stroke="#1e1e1e" stroke-width="1.5" fill="none"></path></g><g transform="translate(287.92467623501307 728.571531646242) rotate(0 132.91534247137952 -121.39165346507798)"><path d="M236.29 -231.17 C249.5 -234.6, 256.65 -237.79, 265.55 -242.56" stroke="#1e1e1e" stroke-width="1.5" fill="none"></path></g></g><mask></mask><g stroke-linecap="round" transform="translate(930 150) rotate(0 190 110)"><path d="M30.81 -0.05 L348.19 0.84 L354.73 -1.46 L369.12 4.88 L375.8 11.65 L377.52 19.05 L380.89 31.11 L379.49 189.66 L381.36 194.74 L373.63 209.06 L367.53 215.93 L362.99 216.67 L346.18 221.08 L32.59 219.38 L23.58 218.63 L10.93 216.16 L3.95 205.54 L0.97 201.99 L-0.02 188.83 L0.14 25.89 L1.35 18.01 L8.84 9.4 L18.19 1.64 L31.93 -0.9" stroke="none" stroke-width="0" fill="#ffd8a8"></path><path d="M32 0 M32 0 C111.03 -0.95, 191.49 -2.73, 348 0 M32 0 C134.71 -0.63, 238.89 -1.14, 348 0 M348 0 C369.84 0.93, 380.32 8.75, 380 32 M348 0 C368.76 2.11, 379.42 10.12, 380 32 M380 32 C380.78 87.07, 380.4 141.51, 380 188 M380 32 C379.89 64.09, 380.68 95.51, 380 188 M380 188 C378.12 209.1, 369.98 219.91, 348 220 M380 188 C382.22 209.89, 371.53 221.44, 348 220 M348 220 C246.28 222.36, 146.32 219.79, 32 220 M348 220 C283.86 222.15, 218.32 222.5, 32 220 M32 220 C10.83 221.7, 0.5 207.36, 0 188 M32 220 C8.46 218.26, 0.99 207.88, 0 188 M0 188 C1.99 146.93, 1.69 102.4, 0 32 M0 188 C0.98 145.28, 1.54 101.82, 0 32 M0 32 C-0.23 9.66, 9.47 0.55, 32 0 M0 32 C-0.21 10.29, 8.79 1.5, 32 0" stroke="#1e1e1e" stroke-width="1" fill="none"></path></g><g stroke-linecap="round" transform="translate(970 270) rotate(0 60 30)"><path d="M14.64 -0.07 L104.1 -0.91 L115.48 3.36 L115.98 6.49 L117.97 9.6 L120.53 44.35 L118.79 52.92 L115.21 59.64 L104.62 60.51 L15.93 60.32 L3.94 57.39 L3.94 53.64 L-0.24 49.45 L0.28 13.18 L4.49 4.72 L8.81 2.24 L13.03 0.71" stroke="none" stroke-width="0" fill="#fca326"></path><path d="M15 0 M15 0 C33.81 0.61, 50.25 -0.8, 105 0 M105 0 C115.64 -0.09, 121.93 5.49, 120 15 M120 15 C122.03 27.93, 118.84 40.42, 120 45 M120 45 C119.81 53.03, 113.1 58.03, 105 60 M105 60 C69.08 61.15, 34.14 61.75, 15 60 M15 60 C5.5 58.03, -1.92 53.49, 0 45 M0 45 C-1.24 35.45, 1.06 25.23, 0 15 M0 15 C0.57 3.19, 4.58 -1.77, 15 0" stroke="#1e1e1e" stroke-width="1.5" fill="none" stroke-dasharray="8 9"></path></g><g transform="translate(977.1923828125 288.5) rotate(0 52.8076171875 11.5)"><text x="52.8076171875" y="0" font-family="Helvetica, Segoe UI Emoji" font-size="20px" fill="#1e1e1e" text-anchor="middle" style="white-space: pre;" direction="ltr" dominant-baseline="text-before-edge">Select/Epoll</text></g><g stroke-linecap="round" transform="translate(1150 270) rotate(0 60 30)"><path d="M16.62 -0.43 L103.89 -0.79 L114.36 1.25 L116.27 4.57 L121.64 10.82 L119.87 43.56 L118.99 52.24 L113 59.81 L106.91 60.31 L14.42 59.93 L5.74 57.74 L2.22 55.82 L0.34 50.07 L0.27 11.73 L1.3 5.08 L6.72 0.79 L14.31 1.63" stroke="none" stroke-width="0" fill="#fca326"></path><path d="M15 0 M15 0 C43.79 1.19, 76.65 -0.26, 105 0 M105 0 C113.61 0.98, 119.04 5.35, 120 15 M120 15 C118.52 21.42, 120.54 32.6, 120 45 M120 45 C121.95 54.69, 114.1 60.54, 105 60 M105 60 C81.79 59.85, 57.36 59.62, 15 60 M15 60 C4.41 61.26, 0.13 56.56, 0 45 M0 45 C0.55 35.21, -1.61 25.83, 0 15 M0 15 C1.02 3.03, 4.77 0.08, 15 0" stroke="#1e1e1e" stroke-width="1.5" fill="none" stroke-dasharray="8 9"></path></g><g transform="translate(1171.09375 288.5) rotate(0 38.90625 11.5)"><text x="38.90625" y="0" font-family="Helvetica, Segoe UI Emoji" font-size="20px" fill="#1e1e1e" text-anchor="middle" style="white-space: pre;" direction="ltr" dominant-baseline="text-before-edge">Dispatch</text></g><g transform="translate(1010 190) rotate(0 122.02734375 20.700000000000045)"><text x="122.02734375" y="0" font-family="Helvetica, Segoe UI Emoji" font-size="36px" fill="#1e1e1e" text-anchor="middle" style="white-space: pre;" direction="ltr" dominant-baseline="text-before-edge">Reactor 单线程</text></g><g stroke-linecap="round" transform="translate(650 570) rotate(0 100 46.5)"><path d="M21.37 -1.04 L176.7 -1.73 L191.73 2.46 L194.91 9.64 L199.05 17.86 L200.73 68.1 L196.85 84.97 L191.23 88.59 L178.42 94.6 L24.42 91.27 L10.41 88.85 L4.38 83.64 L1.26 74.21 L1.78 17.15 L6.5 6.42 L14.02 1.67 L24.82 -0.76" stroke="none" stroke-width="0" fill="#a5d8ff"></path><path d="M23.25 0 M23.25 0 C54.66 1.5, 86.6 1.53, 176.75 0 M23.25 0 C75.55 0.23, 127.37 1.13, 176.75 0 M176.75 0 C192.06 1.41, 201.6 6.95, 200 23.25 M176.75 0 C194.12 2.22, 202.19 6.19, 200 23.25 M200 23.25 C199.78 37.22, 198.67 54.7, 200 69.75 M200 23.25 C198.98 33.88, 200.29 43.26, 200 69.75 M200 69.75 C201.71 84.7, 191.51 91.59, 176.75 93 M200 69.75 C200.3 86.24, 190.84 93.95, 176.75 93 M176.75 93 C135.4 92.76, 91.96 90.4, 23.25 93 M176.75 93 C119.92 95.34, 60.85 93.76, 23.25 93 M23.25 93 C7.24 94.18, -1.4 87.04, 0 69.75 M23.25 93 C7.92 91.23, 1.93 83.96, 0 69.75 M0 69.75 C0.79 55.12, 2.27 43.39, 0 23.25 M0 69.75 C0.78 52.22, -0.35 31.87, 0 23.25 M0 23.25 C1.43 7.39, 6.17 -1.82, 23.25 0 M0 23.25 C-1.84 9.66, 7.59 0.51, 23.25 0" stroke="#1e1e1e" stroke-width="1" fill="none"></path></g><g transform="translate(694.751953125 600.4000000000001) rotate(0 55.248046875 16.100000000000023)"><text x="55.248046875" y="0" font-family="Helvetica, Segoe UI Emoji" font-size="28px" fill="#1e1e1e" text-anchor="middle" style="white-space: pre;" direction="ltr" dominant-baseline="text-before-edge">Acceptor</text></g><g stroke-linecap="round" transform="translate(910 530) rotate(0 160 80)"><path d="M31.64 -1.81 L286.98 1.85 L296 1.04 L306.21 2.72 L316.15 13.61 L318.82 19.76 L318.14 33.05 L318.86 128.34 L321.04 134.96 L315.44 148.3 L307.47 154.9 L300.66 156.95 L289.06 161.92 L31.2 161.56 L25.49 159.52 L13.73 155.87 L2.96 148.19 L2.47 133.6 L1.2 23.36 L0.18 16.42 L9.48 7.46 L18.14 1.98 L31.09 -0.64" stroke="none" stroke-width="0" fill="#ffc9c9"></path><path d="M32 0 M32 0 C131.02 0.12, 227.97 2.22, 288 0 M32 0 C115.33 -0.67, 197.4 -1.36, 288 0 M288 0 C307.75 0.59, 319.09 9.62, 320 32 M288 0 C310.76 1.34, 321.33 12.79, 320 32 M320 32 C320.47 67.8, 319.66 108.76, 320 128 M320 32 C320.71 54.14, 319.96 77.46, 320 128 M320 128 C320.25 150.69, 307.5 160.14, 288 160 M320 128 C319.84 147.58, 307.56 159.73, 288 160 M288 160 C209.88 161.35, 135.03 160.37, 32 160 M288 160 C212.56 161.91, 137.16 160.64, 32 160 M32 160 C9.25 159.53, 0.92 147.69, 0 128 M32 160 C9.93 158.79, -0.84 150.54, 0 128 M0 128 C-0.59 102.86, -2.19 78.54, 0 32 M0 128 C1.29 102.81, 0.3 77.37, 0 32 M0 32 C-1.5 11.67, 12.34 1.08, 32 0 M0 32 C-1.01 11.62, 12.83 2.21, 32 0" stroke="#1e1e1e" stroke-width="1" fill="none"></path></g><g stroke-linecap="round" transform="translate(930 590) rotate(0 60 30)"><path d="M15.99 0.02 L106.23 0.37 L112.6 2.8 L119.86 3.96 L120.47 10.35 L118.18 43.42 L119.37 53.6 L114.28 57.87 L104.09 59.36 L16.65 58.4 L4.23 59.31 L0.17 54.41 L0.9 48.97 L0.48 12.62 L5.62 5.01 L9.05 0.47 L13.41 0.59" stroke="none" stroke-width="0" fill="#ff8787"></path><path d="M15 0 M15 0 C39.08 0.6, 62.67 1.27, 105 0 M15 0 C48.76 -0.42, 85.1 -0.46, 105 0 M105 0 C115.92 1.24, 120.53 3.55, 120 15 M105 0 C113.89 -0.6, 120.29 6.56, 120 15 M120 15 C118.5 19.71, 119.78 27.53, 120 45 M120 15 C120.55 25.16, 119.95 33.52, 120 45 M120 45 C120.3 56.34, 114.64 61.3, 105 60 M120 45 C119.27 52.88, 113.37 59.46, 105 60 M105 60 C72.83 58.98, 43.8 59, 15 60 M105 60 C69.54 59.5, 34.49 59.76, 15 60 M15 60 C3.57 61.69, 1.21 54.79, 0 45 M15 60 C4.12 58.93, -1.72 56.15, 0 45 M0 45 C0.67 35.37, 1.76 22.54, 0 15 M0 45 C1.19 38.2, -0.67 32.76, 0 15 M0 15 C1.61 3.14, 3.87 0.94, 15 0 M0 15 C-0.17 6.62, 3.37 0.51, 15 0" stroke="#1e1e1e" stroke-width="1" fill="none"></path></g><g transform="translate(956.53125 603.9000000000001) rotate(0 33.46875 16.100000000000023)"><text x="33.46875" y="0" font-family="Helvetica, Segoe UI Emoji" font-size="28px" fill="#1e1e1e" text-anchor="middle" style="white-space: pre;" direction="ltr" dominant-baseline="text-before-edge">Read</text></g><g stroke-linecap="round" transform="translate(1090 590) rotate(0 60 30)"><path d="M16.34 -1.33 L106.88 -0.66 L115.73 2.48 L118.9 6.47 L120.38 11.21 L118.89 46.08 L118.27 54.85 L115.87 56.14 L104.81 61.85 L16.7 59.15 L6.67 56.08 L1.03 52.49 L-1.53 47.81 L-0.27 11.42 L5.69 3.05 L9.93 0.47 L13.72 -1.18" stroke="none" stroke-width="0" fill="#ff8787"></path><path d="M15 0 M15 0 C45.37 2.65, 78.6 0.32, 105 0 M15 0 C40.47 -0.28, 65.88 -1.66, 105 0 M105 0 C113.62 1.54, 119.21 6.76, 120 15 M105 0 C115.88 1.01, 119.44 4.2, 120 15 M120 15 C119.21 27.13, 119.59 35.56, 120 45 M120 15 C119.99 24.81, 119.28 36.96, 120 45 M120 45 C121.27 55.46, 114.51 58.54, 105 60 M120 45 C120.81 56.56, 115.38 61.16, 105 60 M105 60 C78.19 58.52, 52.64 58.03, 15 60 M105 60 C80.11 60.22, 55.73 60.39, 15 60 M15 60 C4.46 59.47, 0.32 54.58, 0 45 M15 60 C6.68 59.92, -0.98 54.69, 0 45 M0 45 C-1.04 38.99, 0.12 29.99, 0 15 M0 45 C0.62 36.52, -0.91 27.57, 0 15 M0 15 C0.63 3.14, 6.61 1.62, 15 0 M0 15 C-1.5 3.01, 5.6 -0.14, 15 0" stroke="#1e1e1e" stroke-width="1" fill="none"></path></g><g transform="translate(1117.5908203125 603.9000000000001) rotate(0 32.4091796875 16.100000000000023)"><text x="32.4091796875" y="0" font-family="Helvetica, Segoe UI Emoji" font-size="28px" fill="#1e1e1e" text-anchor="middle" style="white-space: pre;" direction="ltr" dominant-baseline="text-before-edge">Write</text></g><g stroke-linecap="round" transform="translate(1290 530) rotate(0 160 80)"><path d="M31.35 1.34 L287.46 -0.53 L295.82 0.08 L308.96 4.43 L314.65 12.23 L316.45 18.09 L319.32 30.98 L320.66 128.14 L317.84 135.54 L316.81 148.31 L309.14 156.67 L300.57 159.37 L288.63 158.14 L33.61 161.62 L23.2 157.77 L13.02 155.38 L5.7 145.91 L0.91 134.51 L1.95 23.42 L1.32 18.4 L6.74 9.71 L16.28 3.98 L32.34 0.22" stroke="none" stroke-width="0" fill="#ffc9c9"></path><path d="M32 0 M32 0 C100.72 -0.02, 167.17 1.61, 288 0 M32 0 C106.69 -1.28, 180.15 -1.38, 288 0 M288 0 C311.11 -0.21, 321.47 11.74, 320 32 M288 0 C310.08 -2.25, 320.55 12.8, 320 32 M320 32 C318.57 53.65, 319.62 75.56, 320 128 M320 32 C320.07 55.8, 320.42 81.76, 320 128 M320 128 C318.51 147.78, 308.56 158.85, 288 160 M320 128 C320.75 147.95, 309.59 161.21, 288 160 M288 160 C227.59 156.72, 168.03 159.71, 32 160 M288 160 C211.42 159.33, 135.04 159.72, 32 160 M32 160 C10.87 158.94, -1.26 148.58, 0 128 M32 160 C10.92 162.17, 2.21 147.85, 0 128 M0 128 C0.13 93.38, -1.58 59.54, 0 32 M0 128 C1.21 106.17, 0.82 85.8, 0 32 M0 32 C-0.86 12.15, 12.05 0.02, 32 0 M0 32 C-1.16 11.21, 9.13 -0.97, 32 0" stroke="#1e1e1e" stroke-width="1" fill="none"></path></g><g stroke-linecap="round" transform="translate(1310 590) rotate(0 60 30)"><path d="M14.46 -0.53 L105.32 -0.42 L115.6 2.04 L117.04 5.59 L118.21 11.57 L119.32 43.98 L118.55 54.28 L112.48 57.93 L106.31 60.81 L16.64 61.17 L4.43 59.26 L2.74 52.28 L1.84 50.13 L-1.07 9.76 L4.27 3.63 L9.63 -0.66 L15.41 -0.99" stroke="none" stroke-width="0" fill="#ff8787"></path><path d="M15 0 M15 0 C48.93 -0.95, 83.76 -1.42, 105 0 M15 0 C50.56 0, 86.58 0.61, 105 0 M105 0 C114.28 0.04, 121.3 4.8, 120 15 M105 0 C115.26 1.16, 121.18 4.32, 120 15 M120 15 C119.66 23.96, 120.95 30.64, 120 45 M120 15 C119.43 20.46, 120.98 26.7, 120 45 M120 45 C119.01 55.2, 113.29 59.12, 105 60 M120 45 C120.63 54.93, 114.56 58.24, 105 60 M105 60 C75.06 58.56, 47.08 59.98, 15 60 M105 60 C82.78 60.39, 60.95 60.3, 15 60 M15 60 C3.26 60.36, 1.96 54.99, 0 45 M15 60 C4.91 59.72, 0.43 53.8, 0 45 M0 45 C-1.05 32.88, -0.74 23.5, 0 15 M0 45 C0.28 32.8, -0.67 21.23, 0 15 M0 15 C-0.33 3.07, 5.12 -1.52, 15 0 M0 15 C-1.76 3.66, 6.11 -0.74, 15 0" stroke="#1e1e1e" stroke-width="1" fill="none"></path></g><g transform="translate(1336.53125 603.9000000000001) rotate(0 33.46875 16.100000000000023)"><text x="33.46875" y="0" font-family="Helvetica, Segoe UI Emoji" font-size="28px" fill="#1e1e1e" text-anchor="middle" style="white-space: pre;" direction="ltr" dominant-baseline="text-before-edge">Read</text></g><g stroke-linecap="round" transform="translate(1470 590) rotate(0 60 30)"><path d="M16.46 -0.07 L104.15 -0.27 L112.59 2.2 L117.22 4.84 L120.43 11.62 L118.34 45.04 L119.2 54.95 L115.78 59.06 L103.57 61.37 L15.63 58.14 L7.46 59.51 L0.81 52.41 L0.75 48.39 L1.43 9.89 L4.16 2.76 L9.89 -0.15 L14.32 0.4" stroke="none" stroke-width="0" fill="#ff8787"></path><path d="M15 0 M15 0 C38.33 1.11, 57.91 0.05, 105 0 M15 0 C42.54 -0.62, 71.44 -0.74, 105 0 M105 0 C115.22 1.01, 121.03 4.4, 120 15 M105 0 C113.84 -0.96, 122.05 4.75, 120 15 M120 15 C118.2 26.68, 122.02 36.12, 120 45 M120 15 C119.78 22.29, 119.42 28.93, 120 45 M120 45 C120.55 54.94, 114.62 58.47, 105 60 M120 45 C120.35 56.43, 113.29 58.21, 105 60 M105 60 C80.26 60.52, 58.99 58.99, 15 60 M105 60 C77.92 60.02, 53.57 59.84, 15 60 M15 60 C4.92 59.76, 0.37 53.96, 0 45 M15 60 C6.43 59.9, 0.23 53.78, 0 45 M0 45 C2 39.81, -1.18 31.91, 0 15 M0 45 C-0.05 36.14, 0.17 28.45, 0 15 M0 15 C-1.53 3.83, 5.96 -0.65, 15 0 M0 15 C0.2 6.86, 4.01 1.7, 15 0" stroke="#1e1e1e" stroke-width="1" fill="none"></path></g><g transform="translate(1497.5908203125 603.9000000000001) rotate(0 32.4091796875 16.100000000000023)"><text x="32.4091796875" y="0" font-family="Helvetica, Segoe UI Emoji" font-size="28px" fill="#1e1e1e" text-anchor="middle" style="white-space: pre;" direction="ltr" dominant-baseline="text-before-edge">Write</text></g><g transform="translate(990 550) rotate(0 77.7978515625 11.5)"><text x="77.7978515625" y="0" font-family="Helvetica, Segoe UI Emoji" font-size="20px" fill="#1e1e1e" text-anchor="middle" style="white-space: pre;" direction="ltr" dominant-baseline="text-before-edge">业务逻辑 Handler</text></g><g transform="translate(1390 550) rotate(0 77.7978515625 11.5)"><text x="77.7978515625" y="0" font-family="Helvetica, Segoe UI Emoji" font-size="20px" fill="#1e1e1e" text-anchor="middle" style="white-space: pre;" direction="ltr" dominant-baseline="text-before-edge">业务逻辑 Handler</text></g><g stroke-linecap="round"><g transform="translate(950 370) rotate(0 -99.56585873246195 100.26774404887101)"><path d="M-0.41 0.87 C-33.84 34.25, -166.65 167.12, -199.84 200.25 M1.57 0.28 C-32.07 33.28, -167.1 164.84, -200.7 198.26" stroke="#1e1e1e" stroke-width="1" fill="none"></path></g><g transform="translate(950 370) rotate(0 -99.56585873246195 100.26774404887101)"><path d="M-186.34 171.45 C-192.05 181.72, -197.67 191.72, -201.19 199.65 M-188.44 170.47 C-193 181.79, -198.21 192.28, -200.52 197.31" stroke="#1e1e1e" stroke-width="1" fill="none"></path></g><g transform="translate(950 370) rotate(0 -99.56585873246195 100.26774404887101)"><path d="M-171.95 186.09 C-182.86 191.01, -193.69 195.71, -201.19 199.65 M-174.06 185.11 C-184.38 190.71, -195.21 195.48, -200.52 197.31" stroke="#1e1e1e" stroke-width="1" fill="none"></path></g></g><mask></mask><g stroke-linecap="round"><g transform="translate(1130.124999999999 371) rotate(0 10.22892503362118 79.24164060622456)"><path d="M-0.79 0.03 C2.53 26.2, 15.65 131.56, 18.95 157.96 M1 -0.99 C4.78 25.29, 17.82 133.26, 21.25 159.48" stroke="#1e1e1e" stroke-width="1" fill="none"></path></g><g transform="translate(1130.124999999999 371) rotate(0 10.22892503362118 79.24164060622456)"><path d="M7.62 131.45 C10.75 137.59, 14.54 143.96, 22.01 158.39 M7.96 133.64 C13.29 143.03, 17.98 152.65, 21.23 160.31" stroke="#1e1e1e" stroke-width="1" fill="none"></path></g><g transform="translate(1130.124999999999 371) rotate(0 10.22892503362118 79.24164060622456)"><path d="M27.98 128.9 C26.61 135.47, 25.88 142.4, 22.01 158.39 M28.32 131.09 C25.84 141.26, 22.71 151.86, 21.23 160.31" stroke="#1e1e1e" stroke-width="1" fill="none"></path></g></g><mask></mask><g stroke-linecap="round"><g transform="translate(1251.125 371) rotate(0 88.91121087558577 78.53705313203852)"><path d="M-0.92 -0.03 C28.89 26.19, 149.12 130.81, 178.75 157.1 M0.79 -1.08 C30.55 25.27, 148.57 131.5, 178.32 158.16" stroke="#1e1e1e" stroke-width="1" fill="none"></path></g><g transform="translate(1251.125 371) rotate(0 88.91121087558577 78.53705313203852)"><path d="M150.45 148.61 C156.94 148.89, 165.95 155.29, 179.79 157.62 M150.43 146.95 C162.26 151.83, 173.21 155.34, 178.59 158.14" stroke="#1e1e1e" stroke-width="1" fill="none"></path></g><g transform="translate(1251.125 371) rotate(0 88.91121087558577 78.53705313203852)"><path d="M164.16 133.35 C166.7 137.89, 171.78 148.67, 179.79 157.62 M164.14 131.68 C170.68 142.63, 176.21 152.18, 178.59 158.14" stroke="#1e1e1e" stroke-width="1" fill="none"></path></g></g><mask></mask><g stroke-linecap="round" transform="translate(1090 870) rotate(0 280 120)"><path d="M30.7 -0.25 L527.58 -1.59 L542.51 0.59 L553.24 6.31 L554.22 11.64 L560.63 25.63 L559.98 207.72 L558.15 222.7 L555.42 228.65 L548.63 235.86 L543.12 238.79 L526.9 238.98 L31.14 238.52 L16.26 238.97 L12.99 234.28 L4.45 225.76 L1.17 216.01 L-1.29 32.33 L0.15 17.19 L9.23 8.17 L18.35 2.85 L32.17 0.31" stroke="none" stroke-width="0" fill="#ff8787"></path><path d="M32 0 M32 0 C221.66 0.42, 413.01 -0.24, 528 0 M32 0 C163.31 0.4, 293.68 -0.15, 528 0 M528 0 C547.74 0.12, 558.05 12.09, 560 32 M528 0 C547.45 1.53, 558.69 11.79, 560 32 M560 32 C558.88 87.38, 558.35 138.06, 560 208 M560 32 C560.53 69.45, 560.46 106.35, 560 208 M560 208 C561.37 227.35, 548.25 238.02, 528 240 M560 208 C561.12 228.53, 548.72 240.54, 528 240 M528 240 C428.7 241.41, 328.79 241.49, 32 240 M528 240 C376.04 240.86, 224.3 240.54, 32 240 M32 240 C10.41 241.38, -0.3 228.29, 0 208 M32 240 C8.81 240.07, -0.33 227.29, 0 208 M0 208 C3.04 154.06, 1.79 104.89, 0 32 M0 208 C0.11 162.55, 0.32 117.3, 0 32 M0 32 C-1.78 10.59, 11.96 -1.6, 32 0 M0 32 C1.04 10.71, 8.93 0.86, 32 0" stroke="#1e1e1e" stroke-width="1" fill="none"></path></g><g stroke-linecap="round" transform="translate(1130 930) rotate(0 100 70)"><path d="M31.19 1.23 L168.17 0.35 L182.85 2.17 L192.31 9.67 L198.02 18.18 L198.81 33.48 L201.29 115.34 L197.28 120.11 L191.77 133.74 L182.83 136.88 L166.08 138.41 L32.12 138.05 L19.42 136.36 L9.33 130.86 L5.47 127.57 L-1.31 115.04 L0.98 26.48 L1.94 17.26 L6.2 8.51 L19.37 2.16 L32.94 0.03" stroke="none" stroke-width="0" fill="#fff"></path><path d="M32 0 M32 0 C77.01 -0.63, 125.16 0.65, 168 0 M168 0 C188.8 0.47, 198.02 11.84, 200 32 M200 32 C200.94 61.08, 200.52 94.23, 200 108 M200 108 C200.9 129.25, 189.08 140.93, 168 140 M168 140 C139.17 139.89, 109.32 141, 32 140 M32 140 C10.38 138.23, -0.03 127.68, 0 108 M0 108 C-0.27 87.7, -1.46 63.82, 0 32 M0 32 C1.64 11.49, 10.2 1.24, 32 0" stroke="#1e1e1e" stroke-width="1.5" fill="none" stroke-dasharray="8 9"></path></g><g stroke-linecap="round" transform="translate(1150 990) rotate(0 80 30)"><path d="M13.08 -1.59 L151.68 -1.02 L157.67 2.11 L161.1 10.35 L160.04 51.63 L152.33 57.43 L145.48 61.98 L8.38 58.32 L1.95 56.76 L1.6 48.68 L1.17 11.52 L4.53 5.12 L6.46 -0.15 L13.02 0.97" stroke="none" stroke-width="0" fill="#ced4da"></path><path d="M15 0 M15 0 C47.47 0.87, 85.88 0.72, 145 0 M15 0 C44.58 1.59, 74.48 0.78, 145 0 M145 0 C154.75 0.93, 158.2 4.75, 160 15 M145 0 C156.59 -0.35, 158.8 3.14, 160 15 M160 15 C159.93 22.43, 159.82 34.76, 160 45 M160 15 C159.62 22.06, 160.87 29.2, 160 45 M160 45 C159.53 56.24, 154.44 58.22, 145 60 M160 45 C159.92 56.49, 153.16 61.04, 145 60 M145 60 C104.33 60.58, 65.28 60.72, 15 60 M145 60 C93.59 59.03, 41.85 58.86, 15 60 M15 60 C4.26 61.19, 0.23 54.14, 0 45 M15 60 C7.26 61.52, -1.11 55.69, 0 45 M0 45 C0.48 34.94, 1.41 25.96, 0 15 M0 45 C-0.92 38.56, 0.49 32.41, 0 15 M0 15 C1.92 4.33, 5.25 -1.83, 15 0 M0 15 C1.91 4.76, 6.54 -1.13, 15 0" stroke="#1e1e1e" stroke-width="1" fill="none"></path></g><g transform="translate(1179.427734375 1003.9000000000001) rotate(0 50.572265625 16.100000000000023)"><text x="50.572265625" y="0" font-family="Helvetica, Segoe UI Emoji" font-size="28px" fill="#1e1e1e" text-anchor="middle" style="white-space: pre;" direction="ltr" dominant-baseline="text-before-edge">Process</text></g><g transform="translate(1190 950) rotate(0 44.857421875 16.100000000000023)"><text x="44.857421875" y="0" font-family="Helvetica, Segoe UI Emoji" font-size="28px" fill="#1e1e1e" text-anchor="middle" style="white-space: pre;" direction="ltr" dominant-baseline="text-before-edge">Worker</text></g><g stroke-linecap="round" transform="translate(1410 930) rotate(0 100 70)"><path d="M30.49 0.75 L166.58 0.09 L180.78 2.23 L193.92 6.86 L196.06 18.13 L200.59 31.63 L199.73 114.76 L199.19 122.23 L191.14 133.96 L183.32 137.03 L168.6 140.11 L31.53 140.91 L18.4 137.11 L9.34 131.3 L2.82 127.4 L1.75 113.64 L0.56 25.45 L2.72 19.92 L7.33 8.25 L16.17 3.66 L31.79 1.34" stroke="none" stroke-width="0" fill="#fff"></path><path d="M32 0 M32 0 C65.39 0.88, 101.93 0.06, 168 0 M168 0 C188 -0.7, 198.73 11.16, 200 32 M200 32 C199.13 53.14, 199.53 73.1, 200 108 M200 108 C198.04 129.71, 188.15 138.95, 168 140 M168 140 C120.81 141.37, 75.95 140.44, 32 140 M32 140 C9.78 139.81, -0.57 128.59, 0 108 M0 108 C1.86 80.2, 0.27 47, 0 32 M0 32 C0.16 12.65, 10.95 -0.09, 32 0" stroke="#1e1e1e" stroke-width="1.5" fill="none" stroke-dasharray="8 9"></path></g><g stroke-linecap="round" transform="translate(1430 990) rotate(0 80 30)"><path d="M13.58 0.09 L150.34 1.17 L158.17 2.61 L157.83 11.62 L159.65 51.19 L154.37 57.15 L146.19 60.23 L7.57 61.03 L5.07 55.28 L0.83 48.63 L-0.24 12.4 L4.15 2.86 L9.78 0.23 L13.32 -0.1" stroke="none" stroke-width="0" fill="#ced4da"></path><path d="M15 0 M15 0 C63.07 0.68, 111.16 -0.71, 145 0 M15 0 C55.52 -0.41, 95.76 -0.63, 145 0 M145 0 C156.07 -0.72, 161.61 6.72, 160 15 M145 0 C155.9 -1.53, 159.2 3.54, 160 15 M160 15 C161.01 24.49, 159.73 34.64, 160 45 M160 15 C159.11 21.09, 160.13 28.27, 160 45 M160 45 C159.61 54.43, 156.64 61.18, 145 60 M160 45 C160.81 53.97, 154.78 59.35, 145 60 M145 60 C108.98 60.56, 78.44 58.98, 15 60 M145 60 C117.91 61.25, 91.37 61.16, 15 60 M15 60 C4.51 61.23, -1.11 56.01, 0 45 M15 60 C5.82 59.52, 2.12 52.95, 0 45 M0 45 C0.08 36.26, -1.51 25.36, 0 15 M0 45 C1.02 36.59, 0.99 29.94, 0 15 M0 15 C0.74 5.2, 5.41 0.28, 15 0 M0 15 C0.17 5.62, 5.25 0.86, 15 0" stroke="#1e1e1e" stroke-width="1" fill="none"></path></g><g transform="translate(1459.427734375 1003.9000000000001) rotate(0 50.572265625 16.100000000000023)"><text x="50.572265625" y="0" font-family="Helvetica, Segoe UI Emoji" font-size="28px" fill="#1e1e1e" text-anchor="middle" style="white-space: pre;" direction="ltr" dominant-baseline="text-before-edge">Process</text></g><g transform="translate(1470 950) rotate(0 44.857421875 16.100000000000023)"><text x="44.857421875" y="0" font-family="Helvetica, Segoe UI Emoji" font-size="28px" fill="#1e1e1e" text-anchor="middle" style="white-space: pre;" direction="ltr" dominant-baseline="text-before-edge">Worker</text></g><g transform="translate(1290 830) rotate(0 98 16.100000000000023)"><text x="98" y="0" font-family="Helvetica, Segoe UI Emoji" font-size="28px" fill="#1e1e1e" text-anchor="middle" style="white-space: pre;" direction="ltr" dominant-baseline="text-before-edge">业务逻辑线程池</text></g><g stroke-linecap="round"><g transform="translate(1110 690) rotate(0 39.908459286503785 90.63836691934614)"><path d="M-1.11 0.94 C12.14 31.25, 65.35 150.97, 78.83 180.89 M0.52 0.38 C14.16 30.45, 67.86 149.58, 80.92 179.24" stroke="#1e1e1e" stroke-width="1" fill="none"></path></g><g transform="translate(1110 690) rotate(0 39.908459286503785 90.63836691934614)"><path d="M61.62 155.72 C66.54 162.84, 70.97 168.76, 81.33 179.52 M60.43 158.47 C66.88 164.25, 72.53 171.82, 80.35 178.54" stroke="#1e1e1e" stroke-width="1" fill="none"></path></g><g transform="translate(1110 690) rotate(0 39.908459286503785 90.63836691934614)"><path d="M80.36 147.36 C80.57 156.38, 80.35 164.37, 81.33 179.52 M79.17 150.1 C79.88 158.48, 79.77 168.61, 80.35 178.54" stroke="#1e1e1e" stroke-width="1" fill="none"></path></g></g><mask></mask><g stroke-linecap="round"><g transform="translate(1530 690) rotate(0 0.190221940167703 90.68889786271382)"><path d="M-0.84 0.76 C-1.17 30.84, -1.1 150.13, -0.84 179.82 M0.91 0.11 C0.88 30.44, 1.53 151.34, 1.43 181.27" stroke="#1e1e1e" stroke-width="1" fill="none"></path></g><g transform="translate(1530 690) rotate(0 0.190221940167703 90.68889786271382)"><path d="M-7.61 151.69 C-5.3 165.33, -2.77 175.82, 1.91 181.83 M-9.01 153.73 C-6.06 163.32, -0.87 171.9, 1.4 181.62" stroke="#1e1e1e" stroke-width="1" fill="none"></path></g><g transform="translate(1530 690) rotate(0 0.190221940167703 90.68889786271382)"><path d="M12.91 151.66 C7.2 165.16, 1.72 175.67, 1.91 181.83 M11.51 153.69 C7.49 163.4, 5.72 171.99, 1.4 181.62" stroke="#1e1e1e" stroke-width="1" fill="none"></path></g></g><mask></mask></svg>