<svg version="1.1" xmlns="http://www.w3.org/2000/svg" viewBox="0 0 1780 1040" width="1780" height="1040">
  <!-- svg-source:excalidraw -->
  
  <defs>
    <style class="style-fonts">
      @font-face {
        font-family: "Virgil";
        src: url("https://excalidraw.com/Virgil.woff2");
      }
      @font-face {
        font-family: "Cascadia";
        src: url("https://excalidraw.com/Cascadia.woff2");
      }
    </style>
    
  </defs>
  <rect x="0" y="0" width="1780" height="1040" fill="#f8f9fa"></rect><g stroke-linecap="round" transform="translate(10 10) rotate(0 880 510)"><path d="M33.95 1.15 L1727.99 -1.32 L1734.33 0.74 L1748.23 5.36 L1755.96 12.63 L1758.66 17.9 L1761.07 31.96 L1761.92 987.75 L1760.71 993.52 L1753.5 1006.03 L1749.29 1017.24 L1741.74 1016.5 L1726.06 1021.72 L33.3 1020.09 L26.13 1021.23 L10.71 1015.39 L2.93 1008.17 L3.32 1002.64 L-1.25 986.61 L-1.16 33.24 L1.21 16.77 L6.32 6.73 L18.78 3.54 L32.66 -1.68" stroke="none" stroke-width="0" fill="#ffffff"></path><path d="M32 0 M32 0 C437.43 6.85, 842.63 6.57, 1728 0 M32 0 C661.92 -2.51, 1292.23 -2.39, 1728 0 M1728 0 C1748.76 -0.64, 1759.41 11.39, 1760 32 M1728 0 C1749.86 1.23, 1759.21 10.5, 1760 32 M1760 32 C1759.13 409.98, 1759.16 789.24, 1760 988 M1760 32 C1761.6 352.02, 1761.42 671.72, 1760 988 M1760 988 C1761.23 1008.25, 1747.55 1019.53, 1728 1020 M1760 988 C1759.39 1009.49, 1750.72 1020.82, 1728 1020 M1728 1020 C1109.28 1014.39, 491.63 1014.6, 32 1020 M1728 1020 C1329.25 1015.33, 930.47 1015.8, 32 1020 M32 1020 C11.96 1020.56, -1.67 1009.49, 0 988 M32 1020 C9.79 1021.91, -1.69 1009.12, 0 988 M0 988 C0.74 757.21, 1.11 526.56, 0 32 M0 988 C3.15 749.61, 2.97 511.21, 0 32 M0 32 C-0.16 12.09, 11.87 0.29, 32 0 M0 32 C-0.71 12.95, 10.68 0.19, 32 0" stroke="#1e1e1e" stroke-width="1" fill="none"></path></g><g stroke-linecap="round" transform="translate(110 90) rotate(0 150 430)"><path d="M31.41 -0.11 L275.81 -0.6 L282.09 0 L290.14 6.77 L296.02 19.71 L298.71 31.98 L300.01 827.05 L301.26 833.91 L296.72 846.72 L292.35 850.07 L281.15 856.57 L266.93 861.13 L31.65 858.6 L23.75 861.44 L11.42 855.47 L2.93 848.48 L3.47 842.5 L-1.08 826.9 L-1.8 33.16 L0.53 16.5 L8.31 8.09 L18.39 0.74 L33.39 -1.42" stroke="none" stroke-width="0" fill="#f8f1ee"></path><path d="M32 0 M32 0 C90.17 -0.86, 151.41 -0.69, 268 0 M268 0 C288.46 1.1, 301.22 9.82, 300 32 M300 32 C300.69 332.32, 300.31 632.46, 300 828 M300 828 C301.93 847.57, 289.6 858.96, 268 860 M268 860 C186.78 858.24, 104.74 859.74, 32 860 M32 860 C8.9 861.63, -1.74 849.76, 0 828 M0 828 C-0.98 543.35, -1.2 259.02, 0 32 M0 32 C-0.22 10.74, 10.64 1.68, 32 0" stroke="#1e1e1e" stroke-width="1.5" fill="none" stroke-dasharray="8 9"></path></g><g stroke-linecap="round" transform="translate(170 150) rotate(0 90 60)"><path d="M91.52 0.06 C103.79 -0.74, 119.15 1.84, 130.9 5.64 C142.65 9.44, 154.14 15.74, 162.01 22.88 C169.89 30.02, 175.57 39.77, 178.15 48.49 C180.74 57.21, 180.62 67.02, 177.5 75.21 C174.38 83.41, 167.82 91, 159.42 97.66 C151.02 104.32, 138.92 111.52, 127.09 115.17 C115.26 118.82, 101.36 119.82, 88.43 119.58 C75.51 119.34, 61.15 117.58, 49.54 113.74 C37.93 109.9, 26.71 103.41, 18.77 96.53 C10.83 89.66, 4.6 80.92, 1.9 72.48 C-0.81 64.04, -0.51 54.34, 2.55 45.9 C5.6 37.45, 11.98 28.51, 20.22 21.82 C28.45 15.13, 38.62 9.22, 51.96 5.75 C65.3 2.28, 90.73 1.48, 100.26 1.01 C109.78 0.54, 109.37 1.88, 109.09 2.92 M115 1.9 C127.25 3.37, 139.58 9.99, 149.18 16.11 C158.79 22.22, 167.44 30.67, 172.63 38.56 C177.82 46.46, 180.77 55.24, 180.34 63.45 C179.91 71.67, 176.64 80.46, 170.05 87.86 C163.45 95.25, 151.76 102.66, 140.78 107.81 C129.8 112.95, 117.02 117.16, 104.17 118.75 C91.32 120.33, 75.89 119.74, 63.69 117.31 C51.49 114.89, 40.33 110.07, 30.95 104.21 C21.56 98.35, 12.43 89.88, 7.39 82.14 C2.34 74.39, 0.23 66.48, 0.69 57.77 C1.15 49.06, 3.9 37.54, 10.12 29.88 C16.35 22.21, 27.47 16.54, 38.05 11.8 C48.63 7.05, 60.86 2.73, 73.61 1.39 C86.36 0.05, 107.93 3.65, 114.57 3.75 C121.22 3.86, 114.08 1.34, 113.49 2.03" stroke="none" stroke-width="0" fill="#ced4da"></path><path d="M68.08 1.24 C80.02 -1.62, 96.7 -0.07, 109.49 1.95 C122.28 3.98, 134.6 8.28, 144.81 13.4 C155.02 18.52, 164.83 25, 170.74 32.66 C176.65 40.32, 180.17 50.58, 180.28 59.37 C180.38 68.15, 176.76 77.67, 171.37 85.36 C165.98 93.06, 157.97 100.15, 147.95 105.56 C137.93 110.97, 123.99 115.47, 111.24 117.8 C98.5 120.14, 84.34 121.32, 71.49 119.55 C58.64 117.78, 44.57 112.8, 34.16 107.19 C23.76 101.57, 14.66 93.73, 9.06 85.85 C3.46 77.96, 0.53 68.54, 0.56 59.86 C0.59 51.18, 3.8 41.39, 9.25 33.77 C14.7 26.14, 22.15 19.51, 33.23 14.13 C44.32 8.75, 67.61 3.69, 75.75 1.47 C83.88 -0.74, 81.96 0.1, 82.06 0.85 M86.25 0.84 C98.72 -0.3, 114.13 2.46, 125.7 5.87 C137.26 9.27, 147.37 15.23, 155.65 21.25 C163.92 27.26, 171.53 33.61, 175.36 41.94 C179.18 50.28, 180.38 62.3, 178.61 71.26 C176.84 80.22, 172.42 88.83, 164.73 95.73 C157.05 102.63, 143.99 108.61, 132.49 112.67 C120.98 116.74, 108.63 119.9, 95.68 120.12 C82.74 120.34, 66.79 117.12, 54.81 114 C42.83 110.89, 32.23 107.78, 23.78 101.45 C15.33 95.13, 8.09 84.42, 4.14 76.06 C0.19 67.71, -2.14 59.64, 0.06 51.31 C2.26 42.98, 9.59 33.2, 17.35 26.09 C25.11 18.99, 35.4 12.99, 46.61 8.69 C57.82 4.38, 78.16 1.56, 84.63 0.25 C91.1 -1.06, 85.07 0.03, 85.43 0.83" stroke="#1e1e1e" stroke-width="1" fill="none"></path></g><g transform="translate(213.84085844321072 189.37359312880744) rotate(0 46.01953125 20.699999999999818)"><text x="46.01953125" y="0" font-family="Helvetica, Segoe UI Emoji" font-size="36px" fill="#1e1e1e" text-anchor="middle" style="white-space: pre;" direction="ltr" dominant-baseline="text-before-edge">Client</text></g><g stroke-linecap="round" transform="translate(170 310) rotate(0 90 60)"><path d="M83.04 0.45 C95.29 -0.84, 111.97 1.63, 124.28 4.82 C136.59 8.01, 148.17 13.36, 156.89 19.58 C165.6 25.8, 173.07 33.96, 176.58 42.12 C180.09 50.27, 179.91 59.97, 177.96 68.49 C176.02 77.02, 172.02 85.95, 164.93 93.24 C157.85 100.53, 146.84 107.68, 135.44 112.22 C124.05 116.75, 109.82 119.71, 96.59 120.45 C83.36 121.19, 68.11 119.99, 56.08 116.65 C44.06 113.32, 33.11 106.89, 24.43 100.43 C15.75 93.96, 7.84 86.3, 4.01 77.88 C0.18 69.45, -0.46 58.69, 1.46 49.9 C3.39 41.11, 8.34 32.16, 15.55 25.11 C22.76 18.07, 32.83 11.84, 44.71 7.63 C56.59 3.42, 79.46 0.8, 86.84 -0.13 C94.21 -1.06, 88.85 0.89, 88.96 2.04 M56.41 4.15 C67.28 0.08, 84.34 -0.99, 97.39 -0.47 C110.44 0.05, 123.49 2.54, 134.71 7.27 C145.94 11.99, 157.15 20.43, 164.76 27.89 C172.38 35.34, 178.47 43.82, 180.42 52 C182.38 60.18, 180.56 68.74, 176.49 76.98 C172.41 85.22, 165.01 95.07, 155.98 101.45 C146.95 107.82, 134.77 112.01, 122.3 115.25 C109.84 118.5, 94.3 121.6, 81.21 120.92 C68.11 120.25, 54.69 115.9, 43.73 111.19 C32.76 106.47, 22.35 99.76, 15.42 92.61 C8.48 85.47, 3.76 76.63, 2.11 68.3 C0.47 59.96, 1.89 50.96, 5.55 42.61 C9.2 34.25, 15.23 24.72, 24.06 18.19 C32.88 11.66, 52.96 5.56, 58.49 3.42 C64.02 1.29, 56.69 4.52, 57.23 5.37" stroke="none" stroke-width="0" fill="#ced4da"></path><path d="M123.55 4.37 C135.5 6.76, 147.59 13.13, 156.24 19.65 C164.9 26.17, 171.7 35.1, 175.5 43.5 C179.3 51.9, 180.9 61.64, 179.04 70.05 C177.17 78.46, 171.77 86.92, 164.29 93.97 C156.81 101.02, 145.7 108.1, 134.16 112.37 C122.62 116.65, 108.18 119.21, 95.07 119.63 C81.96 120.06, 67.49 118.13, 55.48 114.92 C43.48 111.7, 31.51 106.56, 23.04 100.35 C14.57 94.14, 8.18 85.81, 4.66 77.67 C1.14 69.53, 0.05 60.24, 1.93 51.51 C3.82 42.78, 8.63 32.53, 15.96 25.27 C23.3 18.02, 34.71 12.18, 45.95 7.99 C57.19 3.81, 69.25 0.33, 83.42 0.16 C97.59 -0.01, 122.12 5.21, 130.98 6.98 C139.84 8.75, 137.3 10.08, 136.56 10.78 M110.83 0.33 C122.96 0.94, 136.94 6.62, 146.96 12.39 C156.98 18.17, 165.32 26.89, 170.94 34.96 C176.55 43.04, 180.76 52.33, 180.66 60.85 C180.56 69.36, 176.43 78.07, 170.34 86.05 C164.24 94.04, 154.25 103.47, 144.08 108.78 C133.91 114.09, 121.99 116.24, 109.33 117.92 C96.66 119.61, 80.76 120.79, 68.09 118.89 C55.43 116.98, 43.41 112.32, 33.32 106.5 C23.24 100.68, 13.24 91.89, 7.59 83.97 C1.94 76.04, -0.75 67.17, -0.57 58.95 C-0.39 50.73, 2.77 42.59, 8.68 34.65 C14.58 26.72, 24.67 16.9, 34.87 11.34 C45.07 5.77, 57.24 3.09, 69.88 1.26 C82.52 -0.57, 103.88 0.22, 110.7 0.36 C117.52 0.5, 111 0.78, 110.78 2.11" stroke="#1e1e1e" stroke-width="1" fill="none"></path></g><g transform="translate(213.84085844321072 349.37359312880744) rotate(0 46.01953125 20.699999999999818)"><text x="46.01953125" y="0" font-family="Helvetica, Segoe UI Emoji" font-size="36px" fill="#1e1e1e" text-anchor="middle" style="white-space: pre;" direction="ltr" dominant-baseline="text-before-edge">Client</text></g><g stroke-linecap="round" transform="translate(170 470) rotate(0 90 60)"><path d="M110.71 0.77 C122.88 1.94, 136.27 8.75, 146.27 14.58 C156.28 20.41, 165.12 27.96, 170.74 35.76 C176.37 43.56, 179.98 52.95, 180.03 61.38 C180.09 69.82, 176.75 78.57, 171.09 86.38 C165.42 94.2, 156.44 102.88, 146.03 108.29 C135.63 113.71, 121.46 117.16, 108.67 118.89 C95.87 120.61, 82.04 120.82, 69.28 118.65 C56.53 116.49, 42.4 111.61, 32.12 105.9 C21.84 100.19, 12.99 92.12, 7.61 84.39 C2.22 76.66, -0.47 68.06, -0.19 59.52 C0.1 50.98, 3.33 40.86, 9.32 33.16 C15.31 25.45, 25.31 18.7, 35.76 13.27 C46.21 7.85, 56.94 1.88, 72.01 0.58 C87.07 -0.71, 115.38 3.84, 126.15 5.52 C136.92 7.19, 137.37 9.88, 136.64 10.61 M63.47 4.25 C75.06 0.97, 90.05 0.22, 102.54 1.26 C115.03 2.29, 127.58 5.77, 138.41 10.45 C149.24 15.14, 160.79 22.22, 167.53 29.37 C174.28 36.51, 177.55 44.8, 178.86 53.32 C180.17 61.84, 179.92 72.1, 175.39 80.47 C170.86 88.85, 161.39 97.28, 151.66 103.58 C141.94 109.88, 129.35 115.42, 117.03 118.28 C104.71 121.15, 90.4 122.23, 77.76 120.78 C65.12 119.33, 52.12 114.47, 41.18 109.58 C30.24 104.69, 18.99 99, 12.1 91.43 C5.21 83.85, 0.83 72.76, -0.18 64.13 C-1.19 55.5, 1.53 47.44, 6.03 39.62 C10.53 31.8, 17.35 23.26, 26.82 17.2 C36.29 11.14, 56.93 5.59, 62.86 3.27 C68.79 0.94, 62.25 2.48, 62.4 3.25" stroke="none" stroke-width="0" fill="#ced4da"></path><path d="M58.11 4.43 C69 0.56, 83.99 -0.44, 96.89 0.05 C109.8 0.53, 124.28 3.08, 135.53 7.33 C146.77 11.58, 157.24 18.29, 164.37 25.55 C171.5 32.81, 176.42 42.02, 178.32 50.9 C180.23 59.79, 179.49 70.37, 175.8 78.86 C172.11 87.35, 164.9 95.67, 156.18 101.83 C147.45 107.99, 135.76 112.79, 123.45 115.83 C111.15 118.87, 95.45 120.84, 82.35 120.06 C69.25 119.28, 55.99 115.51, 44.84 111.16 C33.68 106.82, 22.65 101.02, 15.42 93.99 C8.2 86.96, 3.22 77.63, 1.48 68.98 C-0.26 60.33, 1.28 50.34, 4.99 42.08 C8.7 33.83, 13.64 25.89, 23.75 19.45 C33.85 13, 57.5 6.38, 65.6 3.39 C73.7 0.4, 72.07 0.82, 72.35 1.49 M73.4 0.73 C85.13 -2.02, 99.87 -1.58, 112.66 0.75 C125.45 3.09, 140.27 9.02, 150.12 14.73 C159.96 20.44, 166.69 27.08, 171.75 35.02 C176.81 42.96, 180.84 53.7, 180.48 62.38 C180.12 71.06, 176.01 79.53, 169.6 87.08 C163.19 94.62, 152.56 102.47, 142.02 107.67 C131.49 112.87, 118.73 116.53, 106.4 118.28 C94.07 120.04, 80.78 120.49, 68.04 118.19 C55.31 115.89, 40.1 110.21, 30 104.48 C19.9 98.74, 12.64 91.51, 7.44 83.77 C2.23 76.03, -1.6 66.59, -1.23 58.04 C-0.85 49.49, 3.26 40.02, 9.69 32.47 C16.12 24.93, 27 18.04, 37.35 12.77 C47.7 7.5, 65.56 2.72, 71.78 0.85 C78.01 -1.02, 74.4 0.46, 74.69 1.56" stroke="#1e1e1e" stroke-width="1" fill="none"></path></g><g transform="translate(213.84085844321072 509.37359312880744) rotate(0 46.01953125 20.699999999999818)"><text x="46.01953125" y="0" font-family="Helvetica, Segoe UI Emoji" font-size="36px" fill="#1e1e1e" text-anchor="middle" style="white-space: pre;" direction="ltr" dominant-baseline="text-before-edge">Client</text></g><g stroke-linecap="round" transform="translate(170 630) rotate(0 90 60)"><path d="M50.95 6.69 C61.23 2.41, 75.93 1.12, 89 0.96 C102.08 0.8, 117.52 2.05, 129.39 5.71 C141.26 9.37, 152.12 16.26, 160.22 22.9 C168.32 29.54, 175.11 37.33, 177.98 45.55 C180.84 53.78, 180.43 63.69, 177.41 72.25 C174.39 80.81, 167.78 90.01, 159.86 96.92 C151.95 103.83, 141.5 109.74, 129.95 113.72 C118.39 117.71, 103.5 120.63, 90.54 120.83 C77.57 121.04, 64.06 118.7, 52.18 114.96 C40.3 111.23, 27.44 105.46, 19.25 98.43 C11.06 91.4, 5.89 81.35, 3.06 72.77 C0.22 64.19, -0.37 55.37, 2.26 46.95 C4.89 38.53, 9.6 29.44, 18.84 22.25 C28.08 15.06, 49.52 6.83, 57.7 3.81 C65.88 0.78, 67.24 3.08, 67.93 4.1 M55.48 3.85 C66.06 -0.02, 80.63 0.71, 93.5 1.22 C106.38 1.73, 121.05 3.03, 132.71 6.89 C144.37 10.75, 155.6 17.26, 163.47 24.39 C171.33 31.52, 177.51 40.85, 179.91 49.65 C182.31 58.46, 181.72 68.97, 177.87 77.24 C174.01 85.5, 165.53 92.97, 156.78 99.23 C148.02 105.5, 137.46 111.34, 125.32 114.83 C113.18 118.33, 96.94 120.74, 83.95 120.2 C70.96 119.66, 58.49 115.71, 47.38 111.6 C36.28 107.48, 24.93 102.46, 17.31 95.5 C9.69 88.54, 4.09 78.71, 1.65 69.84 C-0.8 60.98, -0.76 50.64, 2.63 42.29 C6.02 33.93, 13.05 25.9, 21.98 19.73 C30.92 13.56, 50.66 7.65, 56.26 5.25 C61.86 2.85, 55.36 4.42, 55.58 5.34" stroke="none" stroke-width="0" fill="#ced4da"></path><path d="M95.67 -0.58 C108.17 -0.85, 122.83 3.38, 134.41 7.92 C145.99 12.45, 157.6 19.27, 165.16 26.61 C172.72 33.94, 177.98 43.51, 179.77 51.93 C181.57 60.34, 179.82 68.92, 175.92 77.09 C172.01 85.26, 165.26 94.49, 156.34 100.95 C147.42 107.4, 134.46 112.6, 122.39 115.84 C110.31 119.08, 96.69 120.88, 83.87 120.38 C71.06 119.89, 56.82 117.39, 45.47 112.87 C34.12 108.36, 23.11 100.47, 15.78 93.31 C8.45 86.16, 3.31 78.43, 1.5 69.93 C-0.31 61.44, 1.34 50.76, 4.93 42.33 C8.51 33.9, 14.48 25.75, 23.03 19.33 C31.58 12.91, 42.85 6.86, 56.23 3.81 C69.61 0.77, 94.48 1.32, 103.31 1.08 C112.13 0.84, 109.51 1.6, 109.19 2.37 M131.42 7.6 C142.96 10.81, 155.12 17.88, 162.81 24.55 C170.5 31.21, 175.34 39.13, 177.58 47.59 C179.83 56.06, 179.64 66.52, 176.26 75.35 C172.89 84.18, 165.72 94.18, 157.33 100.58 C148.93 106.97, 137.9 110.52, 125.89 113.73 C113.88 116.94, 98.34 120.19, 85.25 119.85 C72.16 119.5, 58.64 115.83, 47.37 111.65 C36.09 107.46, 25.17 101.38, 17.61 94.74 C10.04 88.09, 4.21 80.43, 1.97 71.78 C-0.27 63.13, 0.87 51.16, 4.17 42.84 C7.48 34.52, 13.56 28.39, 21.81 21.85 C30.06 15.31, 41.59 7.03, 53.66 3.6 C65.72 0.17, 80.95 0.56, 94.19 1.26 C107.44 1.96, 126.89 6.54, 133.13 7.78 C139.37 9.02, 132.62 8.18, 131.63 8.71" stroke="#1e1e1e" stroke-width="1" fill="none"></path></g><g transform="translate(213.84085844321072 669.3735931288074) rotate(0 46.01953125 20.699999999999818)"><text x="46.01953125" y="0" font-family="Helvetica, Segoe UI Emoji" font-size="36px" fill="#1e1e1e" text-anchor="middle" style="white-space: pre;" direction="ltr" dominant-baseline="text-before-edge">Client</text></g><g stroke-linecap="round" transform="translate(170 790) rotate(0 90 60)"><path d="M127.23 5.55 C138.96 7.98, 149.74 14.34, 157.93 20.76 C166.12 27.18, 173.01 35.53, 176.37 44.07 C179.73 52.62, 180.53 63.36, 178.1 72.01 C175.68 80.66, 169.46 88.99, 161.82 95.98 C154.19 102.98, 143.67 110.11, 132.27 113.99 C120.87 117.87, 106.44 118.99, 93.42 119.24 C80.39 119.49, 66.27 118.87, 54.1 115.48 C41.93 112.09, 28.93 105.71, 20.39 98.91 C11.84 92.1, 6.05 83.16, 2.83 74.63 C-0.39 66.1, -1.45 56, 1.07 47.7 C3.6 39.41, 9.93 31.62, 17.99 24.84 C26.05 18.06, 37.81 11.3, 49.44 7.03 C61.08 2.76, 73.22 -1.07, 87.8 -0.76 C102.39 -0.46, 127.46 6.49, 136.96 8.85 C146.47 11.21, 145.82 12.43, 144.84 13.38 M70.82 2.49 C82.71 0.1, 98.6 1.28, 111.49 3.08 C124.38 4.88, 138.22 7.87, 148.17 13.3 C158.11 18.72, 165.94 27.86, 171.16 35.62 C176.37 43.38, 179.53 51.18, 179.44 59.86 C179.36 68.55, 176.59 79.68, 170.65 87.73 C164.71 95.78, 154.09 102.94, 143.82 108.16 C133.56 113.38, 121.7 117.52, 109.07 119.07 C96.43 120.61, 80.96 119.69, 68.01 117.42 C55.06 115.15, 41.39 110.71, 31.35 105.46 C21.32 100.22, 12.92 93.79, 7.8 85.95 C2.69 78.12, 0.4 67.48, 0.64 58.44 C0.88 49.4, 3.39 39.2, 9.25 31.73 C15.1 24.25, 25.15 18.53, 35.77 13.58 C46.4 8.63, 66.86 3.8, 73.01 2.02 C79.15 0.24, 72.54 2.28, 72.66 2.91" stroke="none" stroke-width="0" fill="#ced4da"></path><path d="M129.96 5.79 C141.53 8.45, 151.83 16.11, 159.83 22.8 C167.83 29.49, 174.95 37.46, 177.95 45.94 C180.94 54.43, 180.62 65.11, 177.79 73.73 C174.96 82.36, 168.93 90.97, 160.96 97.69 C152.99 104.42, 141.89 110.29, 129.98 114.08 C118.07 117.88, 102.51 120.31, 89.5 120.47 C76.49 120.63, 63.55 119.04, 51.9 115.06 C40.25 111.07, 27.85 103.63, 19.59 96.57 C11.33 89.5, 5.29 80.93, 2.34 72.67 C-0.62 64.4, -1.09 55.29, 1.86 46.98 C4.81 38.66, 11.9 29.67, 20.03 22.77 C28.16 15.87, 39.15 9.22, 50.66 5.59 C62.17 1.96, 75.04 0.67, 89.07 0.98 C103.1 1.29, 126.58 5.68, 134.82 7.43 C143.05 9.19, 139.23 10.57, 138.48 11.52 M62.63 2.1 C74.48 -1.1, 91.5 -0.34, 104.22 0.85 C116.95 2.04, 128.4 4.45, 138.96 9.22 C149.53 13.99, 161.03 21.77, 167.61 29.47 C174.19 37.17, 177.49 46.67, 178.42 55.44 C179.36 64.21, 177.58 73.88, 173.24 82.1 C168.9 90.33, 162.02 98.97, 152.41 104.79 C142.8 110.61, 127.93 114.72, 115.56 117.04 C103.19 119.36, 91.07 119.83, 78.2 118.7 C65.34 117.56, 49.15 114.83, 38.37 110.22 C27.58 105.61, 19.72 98.59, 13.5 91.03 C7.27 83.48, 2.15 73.83, 1 64.9 C-0.14 55.97, 2.3 45.78, 6.64 37.45 C10.99 29.12, 17.42 20.93, 27.05 14.92 C36.68 8.91, 58.1 3.22, 64.43 1.39 C70.77 -0.43, 64.73 2.64, 65.07 3.97" stroke="#1e1e1e" stroke-width="1" fill="none"></path></g><g transform="translate(213.84085844321072 829.3735931288074) rotate(0 46.01953125 20.699999999999818)"><text x="46.01953125" y="0" font-family="Helvetica, Segoe UI Emoji" font-size="36px" fill="#1e1e1e" text-anchor="middle" style="white-space: pre;" direction="ltr" dominant-baseline="text-before-edge">Client</text></g><g stroke-linecap="round" transform="translate(670 70) rotate(0 510 440)"><path d="M30.4 -0.01 L987.26 -1.6 L1002.5 3.16 L1013.01 6.93 L1018.73 19.72 L1018.38 32.18 L1019.1 848.94 L1018.2 861.86 L1010.78 873.43 L1003.47 878 L988.08 879.15 L33.32 880.97 L16.47 879.39 L9.07 871.49 L0.59 862.81 L-1.83 846.64 L0.23 33.38 L2.23 19.82 L8.32 8.44 L17.02 0.77 L30.96 -1.34" stroke="none" stroke-width="0" fill="#f8f1ee"></path><path d="M32 0 M32 0 C341.18 -3.22, 652.21 -2.67, 988 0 M32 0 C319.33 1.72, 606.14 2.18, 988 0 M988 0 C1008.87 1.69, 1018.97 10.35, 1020 32 M988 0 C1008.07 -1.31, 1017.84 9.95, 1020 32 M1020 32 C1021.89 264.95, 1023.02 497.77, 1020 848 M1020 32 C1022.28 207.17, 1022.19 383.07, 1020 848 M1020 848 C1020.79 868.98, 1009.76 881.91, 988 880 M1020 848 C1019.15 869.54, 1007.5 881.99, 988 880 M988 880 C706.9 876.18, 424.64 876.49, 32 880 M988 880 C715.29 877.88, 442.66 877.27, 32 880 M32 880 C9.37 881.81, -1.42 868.08, 0 848 M32 880 C9.76 878.65, 0.29 868.43, 0 848 M0 848 C0.61 567.82, 0.05 288.92, 0 32 M0 848 C-0.55 573.17, -0.32 297.75, 0 32 M0 32 C-1.56 9.35, 9.14 0.58, 32 0 M0 32 C-0.3 12.91, 9.11 -1.48, 32 0" stroke="#1e1e1e" stroke-width="1" fill="none"></path></g><g stroke-linecap="round" transform="translate(730 150) rotate(0 70 380)"><path d="M31.53 1.69 L114.47 0.18 L126.4 3.36 L130.12 7.38 L135.21 13.97 L140.28 23.25 L140.14 729.58 L139.47 733.8 L137.04 746.12 L126.36 754.37 L113.91 760.86 L25.29 759.15 L18.43 759.91 L7.26 752.18 L2.91 749.23 L0.39 733.83 L-1.69 33.61 L0.51 18.33 L7.28 7.7 L17.06 0.73 L31.6 1.49" stroke="none" stroke-width="0" fill="#fff"></path><path d="M32 0 M32 0 C55.32 -0.93, 73.78 -0.3, 108 0 M32 0 C50.76 0.33, 69.3 1.19, 108 0 M108 0 C127.89 0.38, 140.34 11.41, 140 32 M108 0 C129.78 -0.03, 140.44 11.49, 140 32 M140 32 C137.27 294.62, 138.03 558.35, 140 728 M140 32 C138.04 308.34, 137.87 585.08, 140 728 M140 728 C141.63 750.71, 128.06 760.54, 108 760 M140 728 C139.33 751.51, 128.74 759.34, 108 760 M108 760 C90.28 760.33, 73.19 761.7, 32 760 M108 760 C88.25 761.4, 69.22 760.72, 32 760 M32 760 C9.9 758.75, -1.1 747.62, 0 728 M32 760 C10.21 758.13, -0.67 748.39, 0 728 M0 728 C-1.02 549.72, -0.39 372, 0 32 M0 728 C-1.41 514.11, -1.63 299.92, 0 32 M0 32 C0.61 11.71, 10.39 0.65, 32 0 M0 32 C1.72 9.68, 11.22 -0.39, 32 0" stroke="#1e1e1e" stroke-width="1" fill="none"></path></g><g stroke-linecap="round" transform="translate(750 190) rotate(0 50 30)"><path d="M14.01 0 L83.19 0.56 L92.14 3.1 L98.59 6.77 L101.14 12.69 L101.25 44.7 L96.91 54.99 L94.29 57.34 L85.18 58.29 L13.05 59.87 L5.29 57.94 L4.08 53.94 L-1.07 47.32 L-0.51 10.73 L5 3.14 L8.01 2.31 L16.7 0.79" stroke="none" stroke-width="0" fill="#ffd43b"></path><path d="M15 0 M15 0 C37.6 -0.15, 61.97 -0.54, 85 0 M15 0 C39.12 -1.2, 62.13 -1.09, 85 0 M85 0 C94.74 1.84, 98.14 4.76, 100 15 M85 0 C97.17 -0.4, 99.42 6.27, 100 15 M100 15 C99.86 23.27, 101.69 32.59, 100 45 M100 15 C100.11 23.15, 99.38 32.7, 100 45 M100 45 C98.05 53.22, 94.92 59.27, 85 60 M100 45 C99.72 54.04, 94.92 61.93, 85 60 M85 60 C66.37 60.44, 45.45 58.89, 15 60 M85 60 C70.37 59.79, 55.44 58.92, 15 60 M15 60 C5.01 59.14, -1.29 56.17, 0 45 M15 60 C3.3 59.7, -1.71 56.12, 0 45 M0 45 C0.09 34.63, -0.6 23.3, 0 15 M0 45 C-0.98 33.51, -0.19 21.36, 0 15 M0 15 C0.12 3.31, 6.59 -1.63, 15 0 M0 15 C-1.36 4.44, 5.37 -1.81, 15 0" stroke="#1e1e1e" stroke-width="1" fill="none"></path></g><g transform="translate(776.005859375 199.30000000000018) rotate(0 23.994140625 20.699999999999818)"><text x="23.994140625" y="0" font-family="Helvetica, Segoe UI Emoji" font-size="36px" fill="#1e1e1e" text-anchor="middle" style="white-space: pre;" direction="ltr" dominant-baseline="text-before-edge">FD</text></g><g stroke-linecap="round" transform="translate(750 350) rotate(0 50 30)"><path d="M13.7 -1.19 L84.25 -0.76 L95.39 1.5 L97.47 7.23 L101.47 12.28 L100.98 43.49 L97.89 52.3 L93.99 55.97 L84.46 60.79 L15.9 60.77 L6.57 56.04 L1.3 52.49 L-0.03 50.36 L-1.63 11.25 L5.63 3.4 L7.93 2.04 L14.82 1.5" stroke="none" stroke-width="0" fill="#ffd43b"></path><path d="M15 0 M15 0 C42.18 0.31, 66.2 -1.39, 85 0 M15 0 C34.88 0.77, 54.55 -0.56, 85 0 M85 0 C94.92 -0.73, 99.76 4.16, 100 15 M85 0 C94.92 1.93, 99.54 3.75, 100 15 M100 15 C99.81 25.18, 98.32 39.68, 100 45 M100 15 C99.63 21.5, 100 28.85, 100 45 M100 45 C98.71 56.17, 93.52 59.74, 85 60 M100 45 C98.29 56.12, 96.07 59.87, 85 60 M85 60 C61.43 59.08, 40.71 61.95, 15 60 M85 60 C70.41 59.18, 55.68 59.12, 15 60 M15 60 C6.59 58.37, -1.19 54.51, 0 45 M15 60 C5.37 58.19, -1.96 54.11, 0 45 M0 45 C0.5 35.33, -0.48 27.07, 0 15 M0 45 C0.55 36.66, 0.75 29.86, 0 15 M0 15 C0.1 3.89, 5 -1.55, 15 0 M0 15 C1.75 5.01, 4.52 1.12, 15 0" stroke="#1e1e1e" stroke-width="1" fill="none"></path></g><g transform="translate(776.005859375 359.3000000000002) rotate(0 23.994140625 20.699999999999818)"><text x="23.994140625" y="0" font-family="Helvetica, Segoe UI Emoji" font-size="36px" fill="#1e1e1e" text-anchor="middle" style="white-space: pre;" direction="ltr" dominant-baseline="text-before-edge">FD</text></g><g stroke-linecap="round" transform="translate(750 510) rotate(0 50 30)"><path d="M16.37 1.7 L85.79 0.98 L92.63 2.11 L96.05 5.71 L97.85 10.94 L100.79 45.9 L98.66 54.85 L92.29 57.08 L83.35 59.74 L16.84 58.14 L5.62 59.77 L1.76 53.63 L1.34 48.33 L1.73 12.83 L3.38 3.3 L9.9 1.09 L14.75 -1.55" stroke="none" stroke-width="0" fill="#ffd43b"></path><path d="M15 0 M15 0 C34.49 1.21, 53.58 -1.45, 85 0 M15 0 C35.31 0.05, 57.31 -0.11, 85 0 M85 0 C93.91 2, 100.97 4.75, 100 15 M85 0 C94.61 -2.08, 97.9 5.79, 100 15 M100 15 C99.27 20.85, 100.01 28.42, 100 45 M100 15 C100.05 21.32, 100.66 29.59, 100 45 M100 45 C99.89 55.56, 95.08 60.02, 85 60 M100 45 C99.3 53.94, 96.86 62.24, 85 60 M85 60 C70.5 58.39, 55.74 58.27, 15 60 M85 60 C58.17 59.74, 31.05 58.73, 15 60 M15 60 C4.23 59.89, -0.81 55.51, 0 45 M15 60 C5.44 59.04, -0.69 54.7, 0 45 M0 45 C0.86 35.86, 1.24 29.81, 0 15 M0 45 C-0.61 36.61, 0.17 26.49, 0 15 M0 15 C0.97 5.52, 3.47 1.35, 15 0 M0 15 C-1.17 3.98, 2.82 -2.06, 15 0" stroke="#1e1e1e" stroke-width="1" fill="none"></path></g><g transform="translate(776.005859375 519.3000000000002) rotate(0 23.994140625 20.699999999999818)"><text x="23.994140625" y="0" font-family="Helvetica, Segoe UI Emoji" font-size="36px" fill="#1e1e1e" text-anchor="middle" style="white-space: pre;" direction="ltr" dominant-baseline="text-before-edge">FD</text></g><g stroke-linecap="round" transform="translate(750 670) rotate(0 50 30)"><path d="M14.85 -1.92 L84.46 0.79 L95.04 2.88 L98.6 4.01 L98.96 9.84 L99.74 46.84 L96.03 53.91 L96.02 57.54 L84.49 61.11 L14.82 61.5 L7.21 57.52 L1.66 55.6 L0.38 48.27 L-1.31 11.27 L4.42 2.79 L7.67 1.81 L13.05 -1.78" stroke="none" stroke-width="0" fill="#ffd43b"></path><path d="M15 0 M15 0 C34.9 0.02, 58.15 -0.31, 85 0 M15 0 C32.07 -0.51, 48.49 -1.26, 85 0 M85 0 C95.69 -1.24, 99.94 5.45, 100 15 M85 0 C94.17 -1.48, 100.02 4.01, 100 15 M100 15 C99.92 20.57, 101.15 30.06, 100 45 M100 15 C100.09 23.53, 99.62 33.47, 100 45 M100 45 C101.95 53.2, 93.63 59.88, 85 60 M100 45 C100.22 53.2, 95.14 58.06, 85 60 M85 60 C57.93 59.9, 30.26 57.88, 15 60 M85 60 C66.96 59.9, 47.98 59.41, 15 60 M15 60 C4.74 59.03, -1.65 56.95, 0 45 M15 60 C5.71 58.17, 1.15 54.89, 0 45 M0 45 C-1.38 37.37, 0.18 26.28, 0 15 M0 45 C0.6 34.03, -0.52 23.13, 0 15 M0 15 C-1.79 3.16, 4.65 -0.06, 15 0 M0 15 C0.49 5.39, 3.62 0.13, 15 0" stroke="#1e1e1e" stroke-width="1" fill="none"></path></g><g transform="translate(776.005859375 679.3000000000002) rotate(0 23.994140625 20.699999999999818)"><text x="23.994140625" y="0" font-family="Helvetica, Segoe UI Emoji" font-size="36px" fill="#1e1e1e" text-anchor="middle" style="white-space: pre;" direction="ltr" dominant-baseline="text-before-edge">FD</text></g><g stroke-linecap="round" transform="translate(750 830) rotate(0 50 30)"><path d="M13.15 -0.81 L83.35 -0.26 L95.98 0.25 L97.66 7.74 L99.42 10.98 L101.11 44.82 L99.39 55.49 L93.77 57.44 L86.46 60.15 L14.75 58.45 L5.65 58.56 L1.15 53.37 L1.11 46.57 L-1.55 11.41 L3.02 3.51 L7.6 0.87 L16.68 -0.4" stroke="none" stroke-width="0" fill="#ffd43b"></path><path d="M15 0 M15 0 C31.94 -0.68, 47.58 -2.17, 85 0 M15 0 C38.64 -0.34, 61.18 0.03, 85 0 M85 0 C94.14 -1.29, 101.17 3.52, 100 15 M85 0 C94.7 -1.71, 101.12 6.07, 100 15 M100 15 C100.1 23.22, 99.16 34.28, 100 45 M100 15 C99.67 27.02, 98.95 38.9, 100 45 M100 45 C98.31 56.59, 93.37 58.81, 85 60 M100 45 C99.44 55.37, 93.19 58.04, 85 60 M85 60 C67.21 60.09, 47.56 59.11, 15 60 M85 60 C65.88 59.73, 44.01 59.92, 15 60 M15 60 C4.9 60.1, -1.11 55, 0 45 M15 60 C3.22 61.75, 0.01 54.52, 0 45 M0 45 C1.27 33.52, -0.96 22.18, 0 15 M0 45 C0.24 38.9, 0.45 31.79, 0 15 M0 15 C0.12 6.62, 6.51 1.62, 15 0 M0 15 C-0.04 5.86, 7.09 -0.61, 15 0" stroke="#1e1e1e" stroke-width="1" fill="none"></path></g><g transform="translate(776.005859375 839.3000000000002) rotate(0 23.994140625 20.699999999999818)"><text x="23.994140625" y="0" font-family="Helvetica, Segoe UI Emoji" font-size="36px" fill="#1e1e1e" text-anchor="middle" style="white-space: pre;" direction="ltr" dominant-baseline="text-before-edge">FD</text></g><g mask="url(#mask-8n-sX1S_i68LWMGWB4kU4)" stroke-linecap="round"><g transform="translate(350.57299801744523 210.69999999999982) rotate(0 199.43199609480797 -0.24795666784075365)"><path d="M-0.57 0.81 C66.14 0.83, 332.56 0.64, 399.44 0.55 M1.33 0.19 C67.91 -0.19, 331.7 -1.53, 398.19 -1.28" stroke="#1e1e1e" stroke-width="1" fill="none"></path></g><g transform="translate(350.57299801744523 210.69999999999982) rotate(0 199.43199609480797 -0.24795666784075365)"><path d="M371.37 8.08 C377.35 7.95, 383.32 4.5, 397.29 -0.91 M370.63 9.09 C377.63 5.78, 385.87 2.4, 398.75 -1.78" stroke="#1e1e1e" stroke-width="1" fill="none"></path></g><g transform="translate(350.57299801744523 210.69999999999982) rotate(0 199.43199609480797 -0.24795666784075365)"><path d="M371.34 -12.44 C377.41 -7.87, 383.39 -6.63, 397.29 -0.91 M370.61 -11.43 C377.64 -9.04, 385.89 -6.72, 398.75 -1.78" stroke="#1e1e1e" stroke-width="1" fill="none"></path></g></g><mask id="mask-8n-sX1S_i68LWMGWB4kU4"><rect x="0" y="0" fill="#fff" width="850.5729980174452" height="310.6999999999998"></rect><rect x="473.57202145494523" y="190" fill="#000" width="154.001953125" height="41.4" opacity="1"></rect></mask><g transform="translate(473.57202145494523 190) rotate(0 76.43297265730797 20.452043332159064)"><text x="77.0009765625" y="0" font-family="Helvetica, Segoe UI Emoji" font-size="36px" fill="#1e1e1e" text-anchor="middle" style="white-space: pre;" direction="ltr" dominant-baseline="text-before-edge">TCP 连接</text></g><g mask="url(#mask-cAjiC2pSseTktcCy6wM1q)" stroke-linecap="round"><g transform="translate(351.44297162014993 370.6999999999998) rotate(0 199.46017854632805 -0.21017085872608732)"><path d="M0.01 0.54 C66.7 0.21, 333.88 -0.79, 400.36 -0.96 M-1.44 -0.22 C65.11 0.08, 332.49 -0.06, 399.61 0.07" stroke="#1e1e1e" stroke-width="1" fill="none"></path></g><g transform="translate(351.44297162014993 370.6999999999998) rotate(0 199.46017854632805 -0.21017085872608732)"><path d="M372.31 10.92 C378.66 5.27, 388.4 2.79, 398.16 0.93 M370.69 11.09 C379.11 6.94, 386.68 5.72, 398.65 0.97" stroke="#1e1e1e" stroke-width="1" fill="none"></path></g><g transform="translate(351.44297162014993 370.6999999999998) rotate(0 199.46017854632805 -0.21017085872608732)"><path d="M372.32 -9.6 C378.85 -8.74, 388.58 -4.71, 398.16 0.93 M370.7 -9.43 C379.24 -8.01, 386.81 -3.66, 398.65 0.97" stroke="#1e1e1e" stroke-width="1" fill="none"></path></g></g><mask id="mask-cAjiC2pSseTktcCy6wM1q"><rect x="0" y="0" fill="#fff" width="851.4429716201499" height="470.6999999999998"></rect><rect x="474.44199505764993" y="350" fill="#000" width="154.001953125" height="41.4" opacity="1"></rect></mask><g transform="translate(474.44199505764993 350) rotate(0 76.46115510882805 20.48982914127373)"><text x="77.0009765625" y="0" font-family="Helvetica, Segoe UI Emoji" font-size="36px" fill="#1e1e1e" text-anchor="middle" style="white-space: pre;" direction="ltr" dominant-baseline="text-before-edge">TCP 连接</text></g><g mask="url(#mask-TAZwrlHxMSuFPSWkMSYi8)" stroke-linecap="round"><g transform="translate(350.55125666121023 530.6999999999998) rotate(0 200.0919857302215 -0.7630406324906289)"><path d="M0.6 -0.3 C67.19 -0.58, 334.2 -1.05, 400.74 -1 M-0.55 -1.51 C65.85 -1.72, 333.6 -0.46, 400.17 0.01" stroke="#1e1e1e" stroke-width="1" fill="none"></path></g><g transform="translate(350.55125666121023 530.6999999999998) rotate(0 200.0919857302215 -0.7630406324906289)"><path d="M371.42 11.34 C381.35 5.63, 394.14 2.46, 398.91 -1.65 M370.95 9.22 C378.17 8.21, 385.65 5.96, 399.2 -0.84" stroke="#1e1e1e" stroke-width="1" fill="none"></path></g><g transform="translate(350.55125666121023 530.6999999999998) rotate(0 200.0919857302215 -0.7630406324906289)"><path d="M371.53 -9.18 C381.53 -6.79, 394.27 -1.85, 398.91 -1.65 M371.06 -11.3 C378.23 -7.53, 385.68 -5, 399.2 -0.84" stroke="#1e1e1e" stroke-width="1" fill="none"></path></g></g><mask id="mask-TAZwrlHxMSuFPSWkMSYi8"><rect x="0" y="0" fill="#fff" width="850.5512566612102" height="630.6999999999998"></rect><rect x="473.55028009871023" y="510" fill="#000" width="154.001953125" height="41.4" opacity="1"></rect></mask><g transform="translate(473.55028009871023 510) rotate(0 77.0929622927215 19.93695936750919)"><text x="77.0009765625" y="0" font-family="Helvetica, Segoe UI Emoji" font-size="36px" fill="#1e1e1e" text-anchor="middle" style="white-space: pre;" direction="ltr" dominant-baseline="text-before-edge">TCP 连接</text></g><g mask="url(#mask-fG6eoGl_uJWgHF_nyuiGN)" stroke-linecap="round"><g transform="translate(350.41228355724365 690.6999999999998) rotate(0 199.97638567687943 0.392693636007607)"><path d="M0.69 -0.57 C67.58 -0.56, 333.96 0.7, 400.37 0.77 M-0.41 1.74 C66.45 1.35, 332.62 -0.84, 399.61 -0.96" stroke="#1e1e1e" stroke-width="1" fill="none"></path></g><g transform="translate(350.41228355724365 690.6999999999998) rotate(0 199.97638567687943 0.392693636007607)"><path d="M370.52 10.07 C378.75 5.58, 383.24 4.34, 399.4 -0.18 M371.12 10.24 C382.83 4.41, 393.37 0.9, 399.31 -0.2" stroke="#1e1e1e" stroke-width="1" fill="none"></path></g><g transform="translate(350.41228355724365 690.6999999999998) rotate(0 199.97638567687943 0.392693636007607)"><path d="M370.41 -10.45 C378.78 -10.53, 383.29 -7.35, 399.4 -0.18 M371.01 -10.29 C382.72 -8.07, 393.31 -3.53, 399.31 -0.2" stroke="#1e1e1e" stroke-width="1" fill="none"></path></g></g><mask id="mask-fG6eoGl_uJWgHF_nyuiGN"><rect x="0" y="0" fill="#fff" width="850.4122835572437" height="790.6999999999998"></rect><rect x="473.41130699474365" y="670" fill="#000" width="154.001953125" height="41.4" opacity="1"></rect></mask><g transform="translate(473.41130699474365 670) rotate(0 76.97736223937943 21.092693636007425)"><text x="77.0009765625" y="0" font-family="Helvetica, Segoe UI Emoji" font-size="36px" fill="#1e1e1e" text-anchor="middle" style="white-space: pre;" direction="ltr" dominant-baseline="text-before-edge">TCP 连接</text></g><g mask="url(#mask-q8CUYD2zV_YxoL7EC2WcN)" stroke-linecap="round"><g transform="translate(351.09154171906414 850.6999999999998) rotate(0 199.25308603681623 -0.18706253310665488)"><path d="M-1.09 -0.21 C65.35 -0.33, 332.6 -0.35, 399.6 -0.36 M0.54 -1.37 C66.71 -1.35, 331.76 0.62, 398.44 0.99" stroke="#1e1e1e" stroke-width="1" fill="none"></path></g><g transform="translate(351.09154171906414 850.6999999999998) rotate(0 199.25308603681623 -0.18706253310665488)"><path d="M369.83 10.4 C380.23 9.02, 391.03 5.69, 398.45 -0.89 M370.73 11.83 C377.39 8, 383.18 7.18, 398.68 0.23" stroke="#1e1e1e" stroke-width="1" fill="none"></path></g><g transform="translate(351.09154171906414 850.6999999999998) rotate(0 199.25308603681623 -0.18706253310665488)"><path d="M369.96 -10.12 C380.37 -3.75, 391.13 0.67, 398.45 -0.89 M370.86 -8.69 C377.56 -7.58, 383.32 -3.46, 398.68 0.23" stroke="#1e1e1e" stroke-width="1" fill="none"></path></g></g><mask id="mask-q8CUYD2zV_YxoL7EC2WcN"><rect x="0" y="0" fill="#fff" width="851.0915417190641" height="950.6999999999998"></rect><rect x="474.09056515656414" y="830" fill="#000" width="154.001953125" height="41.4" opacity="1"></rect></mask><g transform="translate(474.09056515656414 830) rotate(0 76.25406259931623 20.512937466893163)"><text x="77.0009765625" y="0" font-family="Helvetica, Segoe UI Emoji" font-size="36px" fill="#1e1e1e" text-anchor="middle" style="white-space: pre;" direction="ltr" dominant-baseline="text-before-edge">TCP 连接</text></g><g stroke-linecap="round" transform="translate(1070 150) rotate(0 110 380)"><path d="M32.65 0.91 L195.83 1.25 L203.94 0.49 L212.63 8.52 L215.06 10.77 L220.75 26.46 L220.85 728.25 L220.97 737.43 L215 747.1 L207.4 754.89 L197.04 760.13 L24.99 761.01 L17.36 756.82 L6.55 753.59 L6.16 746.3 L-0.78 736.58 L-0.47 32.35 L2.98 17.59 L8.36 8.43 L16.67 2.9 L33.91 -0.88" stroke="none" stroke-width="0" fill="#ffc9c9"></path><path d="M32 0 M32 0 C84.02 1.7, 132.46 3.24, 188 0 M188 0 C209.86 -0.26, 219.68 12.23, 220 32 M220 32 C221.97 283.58, 221.46 534.9, 220 728 M220 728 C221.86 749.56, 209.87 758.4, 188 760 M188 760 C140.95 760.56, 96.25 758.81, 32 760 M32 760 C10.88 759.95, 0.31 748, 0 728 M0 728 C1.19 513.36, -0.05 297.91, 0 32 M0 32 C-1.1 11.59, 10.4 -0.81, 32 0" stroke="#1e1e1e" stroke-width="1.5" fill="none" stroke-dasharray="1.5 7"></path></g><g transform="translate(1113.9677734375 488.60000000000036) rotate(0 66.0322265625 41.40000000000009)"><text x="66.0322265625" y="0" font-family="Helvetica, Segoe UI Emoji" font-size="36px" fill="#1e1e1e" text-anchor="middle" style="white-space: pre;" direction="ltr" dominant-baseline="text-before-edge">Epoll</text><text x="66.0322265625" y="41.4" font-family="Helvetica, Segoe UI Emoji" font-size="36px" fill="#1e1e1e" text-anchor="middle" style="white-space: pre;" direction="ltr" dominant-baseline="text-before-edge">Selector</text></g><g transform="translate(1130 210) rotate(0 84 16.09999999999991)"><text x="84" y="0" font-family="Helvetica, Segoe UI Emoji" font-size="28px" fill="#1e1e1e" text-anchor="middle" style="white-space: pre;" direction="ltr" dominant-baseline="text-before-edge">多路复用程序</text></g><g transform="translate(210 110) rotate(0 42 16.09999999999991)"><text x="42" y="0" font-family="Helvetica, Segoe UI Emoji" font-size="28px" fill="#1e1e1e" text-anchor="middle" style="white-space: pre;" direction="ltr" dominant-baseline="text-before-edge">客户端</text></g><g transform="translate(1070.765625 90) rotate(0 41.234375 16.09999999999991)"><text x="41.234375" y="0" font-family="Helvetica, Segoe UI Emoji" font-size="28px" fill="#1e1e1e" text-anchor="middle" style="white-space: pre;" direction="ltr" dominant-baseline="text-before-edge">Broker</text></g><g mask="url(#mask-6Bzvcz5aMhHCxMmwV0tno)" stroke-linecap="round"><g transform="translate(871 232.32720975019402) rotate(0 99.12190192272885 117.88201289016206)"><path d="M0.41 -0.29 C33.23 39.38, 164.06 197.81, 196.93 237.25 M-0.84 -1.49 C32.34 37.94, 166.17 195.83, 199.09 235.72" stroke="#1e1e1e" stroke-width="1" fill="none"></path></g><g transform="translate(871 232.32720975019402) rotate(0 99.12190192272885 117.88201289016206)"><path d="M172.63 218.92 C182.69 224.51, 189.03 229.93, 198.5 237.51 M172.77 221.38 C178.21 224.27, 185.38 227.52, 198.29 235.7" stroke="#1e1e1e" stroke-width="1" fill="none"></path></g><g transform="translate(871 232.32720975019402) rotate(0 99.12190192272885 117.88201289016206)"><path d="M188.36 205.74 C193.61 215.34, 195.22 224.73, 198.5 237.51 M188.5 208.2 C190.22 214.19, 193.76 220.48, 198.29 235.7" stroke="#1e1e1e" stroke-width="1" fill="none"></path></g></g><mask id="mask-6Bzvcz5aMhHCxMmwV0tno"><rect x="0" y="0" fill="#fff" width="1169" height="568.4605940316351"></rect><rect x="942" y="334.29390189091464" fill="#000" width="56" height="32.199999999999996" opacity="1"></rect></mask><g transform="translate(942 334.29390189091464) rotate(0 28.121901922728853 15.915320749441435)"><text x="28" y="0" font-family="Helvetica, Segoe UI Emoji" font-size="28px" fill="#1e1e1e" text-anchor="middle" style="white-space: pre;" direction="ltr" dominant-baseline="text-before-edge">监听</text></g><g mask="url(#mask-IwlTUkwYIHOQvuskrIyMZ)" stroke-linecap="round"><g transform="translate(886.1179904780952 531.7492117094525) rotate(0 91.68020891517187 -1.578910471596373)"><path d="M0.62 -0.48 C31 -0.8, 151.57 -2.25, 181.75 -2.68 M-0.51 -1.77 C30.27 -1.89, 153.12 -1.43, 183.87 -1.53" stroke="#1e1e1e" stroke-width="1" fill="none"></path></g><g transform="translate(886.1179904780952 531.7492117094525) rotate(0 91.68020891517187 -1.578910471596373)"><path d="M154.88 6.83 C161.74 4.01, 168.29 2.85, 182.82 -0.13 M156.33 9 C163.22 4.83, 171.54 2.14, 183.63 -2.29" stroke="#1e1e1e" stroke-width="1" fill="none"></path></g><g transform="translate(886.1179904780952 531.7492117094525) rotate(0 91.68020891517187 -1.578910471596373)"><path d="M154.9 -13.69 C161.62 -11.25, 168.17 -7.16, 182.82 -0.13 M156.34 -11.52 C163.05 -9.66, 171.36 -6.33, 183.63 -2.29" stroke="#1e1e1e" stroke-width="1" fill="none"></path></g></g><mask id="mask-IwlTUkwYIHOQvuskrIyMZ"><rect x="0" y="0" fill="#fff" width="1169" height="633.6976132106765"></rect><rect x="949.5589952390476" y="514.6750109588402" fill="#000" width="56" height="32.199999999999996" opacity="1"></rect></mask><g transform="translate(949.5589952390476 514.6750109588402) rotate(0 28.239204154219465 15.49529027901599)"><text x="28" y="0" font-family="Helvetica, Segoe UI Emoji" font-size="28px" fill="#1e1e1e" text-anchor="middle" style="white-space: pre;" direction="ltr" dominant-baseline="text-before-edge">监听</text></g><g mask="url(#mask-wVXm8wnDZHY7Tizc46kvh)" stroke-linecap="round"><g transform="translate(871 848.5808749251955) rotate(0 98.804869330516 -118.81700157680052)"><path d="M0.92 0.29 C34.06 -38.92, 164.76 -196.71, 197.66 -236.41 M-0.05 -0.6 C33 -40.02, 163.57 -198.56, 196.53 -237.92" stroke="#1e1e1e" stroke-width="1" fill="none"></path></g><g transform="translate(871 848.5808749251955) rotate(0 98.804869330516 -118.81700157680052)"><path d="M186.91 -210.25 C190.68 -214.97, 190.21 -220.1, 196.01 -237.56 M186.17 -208.78 C190.02 -219, 192.01 -227.13, 195.74 -237.52" stroke="#1e1e1e" stroke-width="1" fill="none"></path></g><g transform="translate(871 848.5808749251955) rotate(0 98.804869330516 -118.81700157680052)"><path d="M171.12 -223.35 C177.96 -225.53, 180.7 -228.01, 196.01 -237.56 M170.38 -221.88 C179.02 -228.34, 185.71 -232.57, 195.74 -237.52" stroke="#1e1e1e" stroke-width="1" fill="none"></path></g></g><mask id="mask-wVXm8wnDZHY7Tizc46kvh"><rect x="0" y="0" fill="#fff" width="1169" height="1186.1494343296854"></rect><rect x="942" y="713.6965952229502" fill="#000" width="56" height="32.199999999999996" opacity="1"></rect></mask><g transform="translate(941.9999999999998 713.6965952229502) rotate(0 27.804869330516 16.067278125444773)"><text x="28" y="0" font-family="Helvetica, Segoe UI Emoji" font-size="28px" fill="#1e1e1e" text-anchor="middle" style="white-space: pre;" direction="ltr" dominant-baseline="text-before-edge">监听</text></g><g stroke-linecap="round" transform="translate(1450 390) rotate(0 110 120)"><path d="M154.67 10.53 C166.28 14.1, 177.78 23.84, 186.88 33.29 C195.98 42.74, 203.89 54.86, 209.28 67.25 C214.68 79.64, 218.15 93.82, 219.27 107.63 C220.39 121.43, 219.17 136.66, 215.98 150.09 C212.79 163.53, 207.03 176.92, 200.14 188.22 C193.25 199.53, 184.67 210.15, 174.65 217.93 C164.63 225.7, 152.35 231.4, 140.02 234.86 C127.69 238.32, 113.33 239.47, 100.66 238.69 C88 237.92, 75.35 235.8, 64.01 230.23 C52.67 224.66, 41.4 215.09, 32.63 205.28 C23.85 195.48, 16.54 183.72, 11.35 171.4 C6.16 159.07, 2.68 145, 1.47 131.34 C0.25 117.68, 1.22 102.53, 4.05 89.45 C6.88 76.38, 11.46 64.15, 18.46 52.9 C25.46 41.64, 35.62 29.88, 46.05 21.92 C56.49 13.96, 68.97 8.8, 81.07 5.13 C93.17 1.46, 105.08 -1.49, 118.66 -0.1 C132.24 1.28, 154.51 10.07, 162.54 13.44 C170.56 16.81, 167.69 18.15, 166.83 20.13 M135.33 1.89 C147.28 3.14, 158.36 11.91, 168.92 19.56 C179.49 27.22, 191.21 36.84, 198.73 47.84 C206.25 58.84, 210.73 72.43, 214.06 85.58 C217.39 98.72, 219.14 113.01, 218.7 126.71 C218.25 140.42, 215.89 155.24, 211.39 167.79 C206.89 180.35, 200.58 192.18, 191.71 202.04 C182.83 211.9, 169.66 220.92, 158.15 226.97 C146.64 233.01, 134.95 236.57, 122.64 238.32 C110.34 240.07, 96.47 240.68, 84.33 237.46 C72.19 234.25, 60.23 226.46, 49.82 219.03 C39.42 211.59, 29.41 203.81, 21.9 192.85 C14.4 181.88, 8.61 166.62, 4.78 153.24 C0.96 139.85, -1.86 125.89, -1.03 112.52 C-0.21 99.15, 4.51 85.71, 9.76 73.02 C15.01 60.33, 22.04 46.64, 30.46 36.4 C38.88 26.16, 49.21 17.6, 60.29 11.57 C71.36 5.53, 84.67 1.82, 96.9 0.18 C109.13 -1.46, 127.34 0.7, 133.65 1.72 C139.95 2.74, 134.81 3.88, 134.73 6.29" stroke="none" stroke-width="0" fill="#a5d8ff"></path><path d="M143.75 4.91 C155.62 7.1, 166.82 16.57, 176.67 24.93 C186.51 33.3, 196.14 43.45, 202.81 55.08 C209.48 66.71, 213.94 81.28, 216.69 94.72 C219.44 108.16, 220.75 122.21, 219.31 135.72 C217.86 149.23, 214.03 163.59, 208.01 175.81 C201.99 188.04, 192.56 199.82, 183.19 209.07 C173.81 218.33, 163.37 226.1, 151.74 231.34 C140.12 236.58, 126.05 240.11, 113.42 240.52 C100.8 240.92, 87.67 237.94, 75.99 233.77 C64.31 229.6, 53.24 223.77, 43.35 215.47 C33.46 207.17, 23.46 195.69, 16.64 183.98 C9.81 172.27, 4.86 158.7, 2.4 145.19 C-0.07 131.68, 0.03 116.42, 1.87 102.93 C3.7 89.45, 7.69 76.14, 13.41 64.26 C19.13 52.38, 26.93 40.99, 36.17 31.68 C45.42 22.37, 57.27 13.56, 68.88 8.41 C80.5 3.26, 91.85 0.64, 105.86 0.78 C119.87 0.92, 143.87 6.7, 152.92 9.23 C161.97 11.76, 161 14.23, 160.13 15.98 M97.05 1.13 C109.11 -2.23, 123.71 0.77, 135.99 4.04 C148.27 7.31, 160.3 13.27, 170.74 20.75 C181.17 28.23, 191.02 38.19, 198.62 48.92 C206.21 59.65, 213 72.24, 216.31 85.11 C219.62 97.97, 219.55 112.63, 218.47 126.13 C217.38 139.64, 214.32 153.63, 209.8 166.13 C205.28 178.63, 199.62 191.13, 191.34 201.12 C183.07 211.12, 171.67 219.7, 160.14 226.1 C148.62 232.49, 134.59 237.66, 122.2 239.49 C109.81 241.31, 97.8 239.96, 85.8 237.04 C73.81 234.12, 60.7 229.41, 50.24 221.98 C39.79 214.55, 30.47 203.73, 23.05 192.44 C15.62 181.14, 9.71 167.31, 5.71 154.21 C1.72 141.12, -1.19 127.38, -0.92 113.85 C-0.65 100.33, 2.4 85.94, 7.34 73.08 C12.28 60.21, 19.97 46.71, 28.74 36.67 C37.5 26.64, 48.71 18.94, 59.95 12.89 C71.19 6.85, 89.84 1.87, 96.17 0.42 C102.5 -1.03, 97.82 2.23, 97.93 4.17" stroke="#1e1e1e" stroke-width="1" fill="none"></path></g><g transform="translate(1490.2182540694798 477.9471862576147) rotate(0 70 32.19999999999982)"><text x="70" y="0" font-family="Helvetica, Segoe UI Emoji" font-size="28px" fill="#1e1e1e" text-anchor="middle" style="white-space: pre;" direction="ltr" dominant-baseline="text-before-edge">业务逻辑</text><text x="70" y="32.199999999999996" font-family="Helvetica, Segoe UI Emoji" font-size="28px" fill="#1e1e1e" text-anchor="middle" style="white-space: pre;" direction="ltr" dominant-baseline="text-before-edge">处理线程池</text></g><g mask="url(#mask-ueGneUGo2-LssfnQb-VZG)" stroke-linecap="round"><g transform="translate(1290 530) rotate(0 79.60061145411805 -0.41913443170460596)"><path d="M-0.08 0.1 C26.81 -0.09, 134.25 -0.79, 160.79 -0.94 M-1.58 -0.89 C25.26 -0.98, 133.06 -0.06, 160.25 0.1" stroke="#1e1e1e" stroke-width="1" fill="none"></path></g><g transform="translate(1290 530) rotate(0 79.60061145411805 -0.41913443170460596)"><path d="M132.16 11.47 C137.57 6.19, 144.96 4.23, 161.62 -1.21 M132.74 10.4 C140.49 7.88, 147.09 4.42, 160.46 -0.75" stroke="#1e1e1e" stroke-width="1" fill="none"></path></g><g transform="translate(1290 530) rotate(0 79.60061145411805 -0.41913443170460596)"><path d="M132.31 -9.05 C137.72 -9.13, 145.08 -5.88, 161.62 -1.21 M132.89 -10.12 C140.45 -7.08, 147.01 -4.98, 160.46 -0.75" stroke="#1e1e1e" stroke-width="1" fill="none"></path></g></g><mask id="mask-ueGneUGo2-LssfnQb-VZG"><rect x="0" y="0" fill="#fff" width="1550" height="630"></rect><rect x="1342" y="513.8999999999996" fill="#000" width="56" height="32.199999999999996" opacity="1"></rect></mask><g transform="translate(1342 513.8999999999996) rotate(0 27.600611454118052 15.680865568295758)"><text x="28" y="0" font-family="Helvetica, Segoe UI Emoji" font-size="28px" fill="#1e1e1e" text-anchor="middle" style="white-space: pre;" direction="ltr" dominant-baseline="text-before-edge">分发</text></g></svg>