<svg version="1.1" xmlns="http://www.w3.org/2000/svg" viewBox="0 0 740 820" width="740" height="820">
  <!-- svg-source:excalidraw -->
  
  <defs>
    <style class="style-fonts">
      @font-face {
        font-family: "Virgil";
        src: url("https://excalidraw.com/Virgil.woff2");
      }
      @font-face {
        font-family: "Cascadia";
        src: url("https://excalidraw.com/Cascadia.woff2");
      }
    </style>
    
  </defs>
  <rect x="0" y="0" width="740" height="820" fill="#ffffff"></rect><g stroke-linecap="round" transform="translate(10 10) rotate(0 360 400)"><path d="M30.21 -2.06 L686.91 2.63 L700.62 -0.42 L712.8 9.8 L719.22 17.06 L722.78 33.05 L722.43 770.47 L716.03 778.18 L711.22 792.31 L704.31 799.4 L689.13 797.52 L33.94 797.38 L20.26 797.49 L5.8 791.23 L3.28 782.04 L1.34 764.49 L-2.59 33.43 L0.56 15.12 L10.43 10.36 L20.04 1.56 L28.7 1.95" stroke="none" stroke-width="0" fill="#fff"></path><path d="M32 0 M32 0 C212.29 4.89, 391.03 2.64, 688 0 M32 0 C292.96 2.67, 553.44 1.52, 688 0 M688 0 C706.32 1.02, 716.52 12.53, 720 32 M688 0 C707.55 -4.27, 716.52 8.71, 720 32 M720 32 C722.33 310.69, 722.04 587.21, 720 768 M720 32 C718.75 288.66, 718.86 545.55, 720 768 M720 768 C722.17 790.26, 712.77 798.98, 688 800 M720 768 C721.01 793.54, 713.31 799.88, 688 800 M688 800 C547.46 800.69, 406.72 802.33, 32 800 M688 800 C528.59 799.51, 368.28 800.33, 32 800 M32 800 C6.97 801.96, 0.91 786.81, 0 768 M32 800 C7.48 803.99, 0.99 786.94, 0 768 M0 768 C-5.5 556.52, -6.42 347.97, 0 32 M0 768 C2.85 587.63, 3.01 408.15, 0 32 M0 32 C0.93 10.62, 13.58 0.95, 32 0 M0 32 C-4.01 8.88, 10.5 -2.73, 32 0" stroke="#1e1e1e" stroke-width="1" fill="none"></path></g><g stroke-linecap="round" transform="translate(70 110) rotate(0 310 50)"><path d="M23.91 2.63 L599.48 -2.03 L614.55 8.05 L619.66 13.13 L622.39 81.91 L616.18 96.22 L603.96 94.61 L594.22 100.31 L21.45 101.01 L10.89 94 L3.5 83.32 L2.26 24.49 L-0.64 13.29 L7.53 6.29 L15.4 -1.95 L22.41 1.43" stroke="none" stroke-width="0" fill="#ced4da"></path><path d="M25 0 M25 0 C176.46 -1.96, 325.86 -4.09, 595 0 M25 0 C223.25 4.58, 423.21 4.56, 595 0 M595 0 C608.88 3.88, 622.12 6.7, 620 25 M595 0 C615.07 3.06, 624.08 4.77, 620 25 M620 25 C622.12 34.68, 616.54 44.44, 620 75 M620 25 C622.48 36.72, 622.35 49.25, 620 75 M620 75 C620.91 93.62, 611.21 99.25, 595 100 M620 75 C616.66 91.02, 608.96 100.1, 595 100 M595 100 C392.71 104.27, 192.7 105.3, 25 100 M595 100 C425.59 103.6, 255.67 103.34, 25 100 M25 100 C11.49 97.75, -3.14 91.79, 0 75 M25 100 C11.47 96.29, 1.1 92.62, 0 75 M0 75 C-3.01 61.86, 2.98 55.11, 0 25 M0 75 C-0.11 62.82, -1.17 49.26, 0 25 M0 25 C2.08 6.1, 6.45 1.74, 25 0 M0 25 C0.5 4.97, 9.76 -1.64, 25 0" stroke="#1e1e1e" stroke-width="1" fill="none"></path></g><g transform="translate(268.923828125 139.30000000000018) rotate(0 111.076171875 20.699999999999818)"><text x="111.076171875" y="0" font-family="Helvetica, Segoe UI Emoji" font-size="36px" fill="#1e1e1e" text-anchor="middle" style="white-space: pre;" direction="ltr" dominant-baseline="text-before-edge">Segment1.log</text></g><g stroke-linecap="round" transform="translate(70 390) rotate(0 310 50)"><path d="M25.8 1.8 L602.08 -0.55 L616.53 7.3 L620.86 16.53 L617.64 77.04 L612.97 94.06 L608.24 99.84 L596.13 97.52 L21.08 96.99 L12.03 95.97 L-0.64 85.17 L1.28 25.04 L2.9 10.55 L3.66 7.68 L12.63 -1.31 L27.43 2.36" stroke="none" stroke-width="0" fill="#a5d8ff"></path><path d="M25 0 M25 0 C225.84 3.32, 423.78 2.61, 595 0 M25 0 C249.44 -3.41, 475.42 -4.51, 595 0 M595 0 C614.63 2.66, 623.55 5.23, 620 25 M595 0 C608.2 1.17, 616 10.47, 620 25 M620 25 C617.37 41.14, 621.28 54.53, 620 75 M620 25 C621.24 38.09, 620.56 48.86, 620 75 M620 75 C617.1 91.1, 609.31 100.08, 595 100 M620 75 C622.49 92.74, 615.62 98.83, 595 100 M595 100 C411.44 102.56, 229.27 104.27, 25 100 M595 100 C435.81 97.2, 274.72 97.67, 25 100 M25 100 C11.06 96.77, 0.96 92.5, 0 75 M25 100 C4.08 102.26, 1.05 88.77, 0 75 M0 75 C-2.95 62.9, 2.99 51.42, 0 25 M0 75 C1.7 58.33, -0.29 44.77, 0 25 M0 25 C0.43 5.41, 9.58 -1.43, 25 0 M0 25 C1.07 8.28, 11.68 1.09, 25 0" stroke="#1e1e1e" stroke-width="1" fill="none"></path></g><g transform="translate(268.923828125 419.3000000000002) rotate(0 111.076171875 20.699999999999818)"><text x="111.076171875" y="0" font-family="Helvetica, Segoe UI Emoji" font-size="36px" fill="#1e1e1e" text-anchor="middle" style="white-space: pre;" direction="ltr" dominant-baseline="text-before-edge">Segment3.log</text></g><g stroke-linecap="round" transform="translate(70 250) rotate(0 310 50)"><path d="M27.78 1.05 L603.29 2.86 L611.78 2.43 L617.65 14.37 L621.91 82.26 L614.88 91.27 L607.87 95.82 L597.26 99.49 L16.94 98.84 L11.04 96.52 L2.9 82.42 L-2.59 26.43 L0.13 11.19 L8.68 8.61 L16.1 1.12 L21.7 1.95" stroke="none" stroke-width="0" fill="#ced4da"></path><path d="M25 0 M25 0 C181.86 4.4, 337.15 2.15, 595 0 M25 0 C251.82 2.39, 478.17 1.24, 595 0 M595 0 C608.65 1.02, 616.52 10.19, 620 25 M595 0 C609.88 -4.27, 616.52 6.38, 620 25 M620 25 C618.25 47, 617.54 63.6, 620 75 M620 25 C618.43 42.16, 618.71 59.93, 620 75 M620 75 C622.17 92.6, 615.1 98.98, 595 100 M620 75 C621.01 95.88, 615.64 99.88, 595 100 M595 100 C472.84 100.55, 350.48 102.19, 25 100 M595 100 C456.56 99.49, 317.22 100.31, 25 100 M25 100 C4.63 101.96, 0.91 89.15, 0 75 M25 100 C5.15 103.99, 0.99 89.27, 0 75 M0 75 C-0.52 58.09, -2.83 48.49, 0 25 M0 75 C0.69 61.32, 1.09 49.86, 0 25 M0 25 C0.93 8.29, 11.24 0.95, 25 0 M0 25 C-4.01 6.55, 8.16 -2.73, 25 0" stroke="#1e1e1e" stroke-width="1" fill="none"></path></g><g transform="translate(268.923828125 279.3000000000002) rotate(0 111.076171875 20.699999999999818)"><text x="111.076171875" y="0" font-family="Helvetica, Segoe UI Emoji" font-size="36px" fill="#1e1e1e" text-anchor="middle" style="white-space: pre;" direction="ltr" dominant-baseline="text-before-edge">Segment2.log</text></g><g stroke-linecap="round" transform="translate(70 670) rotate(0 310 50)"><path d="M23.03 -3.82 L600.08 0.7 L616.06 7.65 L619.57 11.58 L621.55 78.24 L616.01 93.24 L603.74 97.67 L596.28 100.04 L20.48 96.1 L7.17 97.91 L0.13 83.06 L2.43 27.36 L3.6 13.62 L2.95 8.2 L12.96 -1.79 L22.14 3.79" stroke="none" stroke-width="0" fill="#a5d8ff"></path><path d="M25 0 M25 0 C238.05 4.02, 447.35 4.36, 595 0 M25 0 C233.28 3.74, 442.06 3.91, 595 0 M595 0 C610.12 -3.72, 616.97 6.63, 620 25 M595 0 C615.21 2.54, 623.92 5.68, 620 25 M620 25 C621.2 43.49, 618.5 59.99, 620 75 M620 25 C620.49 39.76, 621.13 53.08, 620 75 M620 75 C620.88 95.33, 615.13 99.9, 595 100 M620 75 C616.03 95.46, 612.6 99.1, 595 100 M595 100 C436.44 102.35, 279.72 104.69, 25 100 M595 100 C469.28 101.34, 345.22 100.44, 25 100 M25 100 C5.57 103.47, 0.86 89.59, 0 75 M25 100 C7.69 104.43, -0.57 92.17, 0 75 M0 75 C-1.76 61.39, 2.21 51.97, 0 25 M0 75 C0.15 63.63, 1.14 52.79, 0 25 M0 25 C-3.49 6.78, 8.19 -2.38, 25 0 M0 25 C3.1 11.83, 9.9 -2.54, 25 0" stroke="#1e1e1e" stroke-width="1" fill="none"></path></g><g transform="translate(349.994140625 699.3000000000002) rotate(0 30.005859375 20.699999999999818)"><text x="30.005859375" y="0" font-family="Helvetica, Segoe UI Emoji" font-size="36px" fill="#1e1e1e" text-anchor="middle" style="white-space: pre;" direction="ltr" dominant-baseline="text-before-edge">......</text></g><g transform="translate(250 30) rotate(0 108 20.699999999999818)"><text x="108" y="0" font-family="Helvetica, Segoe UI Emoji" font-size="36px" fill="#1e1e1e" text-anchor="middle" style="white-space: pre;" direction="ltr" dominant-baseline="text-before-edge">存储文件结构</text></g><g stroke-linecap="round" transform="translate(70 530) rotate(0 310 50)"><path d="M26.13 -2.48 L602.8 -2.23 L616.01 5.74 L616.24 13.29 L620.89 80.9 L615.09 90.24 L603.34 99.87 L593.56 97.12 L21.57 101.97 L11.81 96.05 L-1.73 87.89 L-1.1 21.65 L-1.3 17.85 L9.09 9.92 L11.28 5.44 L27.12 -1.63" stroke="none" stroke-width="0" fill="#a5d8ff"></path><path d="M25 0 M25 0 C236.96 -5.25, 451.81 -5.44, 595 0 M25 0 C221.92 3.9, 420.67 4.68, 595 0 M595 0 C615.08 -2.31, 623.16 5.32, 620 25 M595 0 C612.71 2.25, 619.47 7.48, 620 25 M620 25 C619.94 38.54, 620.79 51.18, 620 75 M620 25 C621.95 38.68, 618.49 54.11, 620 75 M620 75 C620.81 90.88, 610.73 97.94, 595 100 M620 75 C623.63 89.08, 608.06 100.14, 595 100 M595 100 C385.48 99.61, 176.07 101.46, 25 100 M595 100 C460.08 103.54, 324.69 104.73, 25 100 M25 100 C7.83 100.44, -2.61 89.8, 0 75 M25 100 C10.73 97.44, -2.16 93.67, 0 75 M0 75 C-0.69 60.39, 0.69 46.83, 0 25 M0 75 C0.8 57.63, 2.22 44.15, 0 25 M0 25 C1.36 6.13, 5.88 -1.36, 25 0 M0 25 C1.47 11.89, 5.69 -3.91, 25 0" stroke="#1e1e1e" stroke-width="1" fill="none"></path></g><g transform="translate(268.923828125 559.3000000000002) rotate(0 111.076171875 20.699999999999818)"><text x="111.076171875" y="0" font-family="Helvetica, Segoe UI Emoji" font-size="36px" fill="#1e1e1e" text-anchor="middle" style="white-space: pre;" direction="ltr" dominant-baseline="text-before-edge">Segment4.log</text></g><g transform="translate(601.804588317872 128.7494583129801) rotate(0 -30.55553436279297 29.861106872558594)" stroke="none"><path fill="#e03131" d="M 3.49,2.32 Q 3.49,2.32 1.95,4.76 0.40,7.20 -3.02,10.71 -6.45,14.22 -9.55,16.93 -12.65,19.65 -14.56,21.64 -16.48,23.63 -19.38,27.01 -22.27,30.40 -24.52,32.53 -26.78,34.67 -29.90,37.42 -33.03,40.18 -35.50,42.62 -37.96,45.06 -40.73,47.40 -43.49,49.75 -45.28,51.54 -47.07,53.33 -49.17,55.07 -51.26,56.80 -53.00,58.07 -54.75,59.34 -55.77,60.86 -56.79,62.38 -57.33,63.00 -57.87,63.62 -58.58,64.03 -59.28,64.45 -60.09,64.61 -60.89,64.78 -61.70,64.68 -62.52,64.59 -63.26,64.23 -64.00,63.88 -64.59,63.31 -65.18,62.74 -65.55,62.01 -65.93,61.28 -66.05,60.47 -66.17,59.66 -66.03,58.85 -65.89,58.04 -65.50,57.32 -65.11,56.60 -64.50,56.05 -63.90,55.49 -63.15,55.15 -62.41,54.82 -61.59,54.74 -60.77,54.66 -59.98,54.84 -59.18,55.03 -58.48,55.46 -57.78,55.89 -57.26,56.52 -56.73,57.15 -56.44,57.92 -56.14,58.68 -56.11,59.50 -56.07,60.32 -56.30,61.11 -56.53,61.90 -57.00,62.57 -57.47,63.24 -58.12,63.73 -58.78,64.22 -59.56,64.48 -60.34,64.73 -61.16,64.72 -61.98,64.71 -62.76,64.44 -63.53,64.17 -64.18,63.66 -64.83,63.16 -65.28,62.48 -65.73,61.79 -65.94,61.00 -66.15,60.21 -66.10,59.39 -66.04,58.57 -65.73,57.81 -65.42,57.05 -65.42,57.05 -65.42,57.06 -63.99,55.16 -62.55,53.26 -59.61,51.50 -56.66,49.74 -54.72,48.39 -52.79,47.05 -50.73,45.34 -48.67,43.63 -46.14,41.49 -43.62,39.36 -41.15,36.90 -38.68,34.44 -35.83,31.31 -32.98,28.18 -29.04,24.76 -25.10,21.35 -23.52,19.62 -21.94,17.89 -19.79,16.03 -17.65,14.17 -14.94,11.59 -12.22,9.01 -9.51,5.70 -6.79,2.38 -5.14,0.02 -3.49,-2.32 -3.16,-2.71 -2.83,-3.09 -2.42,-3.38 -2.01,-3.68 -1.53,-3.87 -1.06,-4.05 -0.56,-4.12 -0.06,-4.19 0.43,-4.14 0.93,-4.09 1.41,-3.91 1.89,-3.74 2.31,-3.46 2.73,-3.18 3.07,-2.81 3.41,-2.43 3.65,-1.99 3.89,-1.55 4.02,-1.06 4.15,-0.57 4.16,-0.06 4.17,0.43 4.06,0.93 3.94,1.42 3.71,1.87 3.49,2.32 3.49,2.32 L 3.49,2.32 Z"></path></g><g transform="translate(543.4713058471689 134.3050117492594) rotate(0 34.72221374511719 32.63890266418457)" stroke="none"><path fill="#e03131" d="M 3.51,-2.92 Q 3.51,-2.92 5.50,-0.52 7.50,1.86 9.26,4.15 11.03,6.43 12.82,8.40 14.61,10.36 17.45,13.29 20.29,16.22 23.17,19.21 26.06,22.20 28.20,24.14 30.35,26.08 32.87,28.12 35.38,30.16 38.13,32.22 40.89,34.28 43.42,36.13 45.95,37.98 48.16,40.00 50.37,42.03 52.22,43.16 54.08,44.30 56.36,46.25 58.63,48.21 60.89,50.38 63.14,52.55 65.55,54.70 67.97,56.85 69.93,58.26 71.89,59.67 72.72,60.21 73.55,60.75 74.16,61.52 74.78,62.30 75.11,63.23 75.45,64.16 75.47,65.15 75.49,66.14 75.19,67.08 74.90,68.02 74.32,68.82 73.73,69.62 72.93,70.19 72.12,70.77 71.17,71.05 70.23,71.33 69.24,71.30 68.25,71.27 67.32,70.92 66.40,70.57 65.63,69.95 64.86,69.33 64.34,68.49 63.81,67.65 63.58,66.69 63.34,65.73 63.43,64.74 63.52,63.76 63.91,62.85 64.31,61.95 64.98,61.22 65.64,60.48 66.50,60.00 67.37,59.52 68.34,59.34 69.31,59.16 70.29,59.30 71.27,59.44 72.15,59.89 73.04,60.33 73.73,61.04 74.43,61.74 74.86,62.63 75.29,63.52 75.42,64.50 75.55,65.48 75.36,66.45 75.16,67.42 74.67,68.28 74.18,69.13 73.44,69.79 72.70,70.44 71.79,70.83 70.88,71.21 69.89,71.29 68.90,71.36 67.95,71.12 66.99,70.87 66.99,70.87 66.99,70.87 63.36,68.14 59.74,65.40 57.58,63.23 55.42,61.05 53.34,59.28 51.25,57.51 48.89,55.62 46.53,53.73 44.25,52.00 41.98,50.28 40.56,48.65 39.15,47.03 36.94,44.80 34.73,42.56 32.86,41.05 31.00,39.54 29.60,37.93 28.19,36.32 26.43,34.10 24.67,31.88 22.71,29.81 20.74,27.75 17.71,25.08 14.68,22.40 11.11,19.52 7.55,16.63 5.54,14.32 3.54,12.00 2.01,9.86 0.48,7.71 -1.51,5.32 -3.51,2.92 -3.81,2.46 -4.10,2.00 -4.28,1.48 -4.46,0.95 -4.51,0.41 -4.56,-0.13 -4.48,-0.68 -4.40,-1.22 -4.19,-1.73 -3.98,-2.24 -3.65,-2.68 -3.32,-3.13 -2.90,-3.48 -2.48,-3.83 -1.98,-4.08 -1.49,-4.32 -0.95,-4.43 -0.41,-4.55 0.13,-4.53 0.68,-4.51 1.21,-4.37 1.74,-4.22 2.22,-3.95 2.70,-3.68 3.11,-3.30 3.51,-2.92 3.51,-2.92 L 3.51,-2.92 Z"></path></g><g transform="translate(590.6935195922861 274.58281707762853) rotate(0 -33.33335876464844 29.861106872558594)" stroke="none"><path fill="#e03131" d="M 2.23,3.91 Q 2.23,3.91 -0.56,5.49 -3.36,7.08 -5.07,8.48 -6.78,9.88 -9.22,11.70 -11.65,13.53 -13.32,15.06 -14.98,16.60 -17.06,18.22 -19.13,19.84 -22.82,23.27 -26.50,26.71 -29.15,29.12 -31.79,31.53 -34.58,34.09 -37.37,36.66 -40.75,39.33 -44.13,42.00 -45.75,43.65 -47.36,45.29 -49.53,47.73 -51.70,50.17 -53.56,52.85 -55.42,55.54 -57.85,58.47 -60.28,61.40 -61.50,62.71 -62.71,64.02 -63.50,64.54 -64.29,65.06 -65.21,65.30 -66.12,65.54 -67.07,65.47 -68.01,65.40 -68.88,65.04 -69.75,64.68 -70.46,64.05 -71.18,63.43 -71.65,62.61 -72.12,61.79 -72.31,60.87 -72.50,59.94 -72.38,59.00 -72.27,58.06 -71.86,57.21 -71.45,56.36 -70.78,55.68 -70.12,55.01 -69.28,54.58 -68.44,54.15 -67.50,54.01 -66.57,53.87 -65.64,54.04 -64.71,54.21 -63.88,54.67 -63.05,55.12 -62.41,55.82 -61.77,56.52 -61.39,57.38 -61.01,58.24 -60.92,59.19 -60.83,60.13 -61.05,61.05 -61.27,61.97 -61.77,62.77 -62.27,63.57 -63.00,64.17 -63.73,64.77 -64.61,65.11 -65.50,65.44 -66.44,65.48 -67.39,65.52 -68.29,65.25 -69.20,64.98 -69.97,64.44 -70.75,63.89 -71.31,63.13 -71.87,62.37 -72.16,61.47 -72.44,60.57 -72.43,59.62 -72.41,58.68 -72.10,57.79 -71.78,56.90 -71.20,56.15 -70.61,55.41 -70.61,55.41 -70.61,55.41 -68.21,53.84 -65.80,52.27 -64.52,50.51 -63.24,48.75 -60.82,46.05 -58.39,43.34 -55.73,41.16 -53.06,38.97 -51.20,37.49 -49.35,36.01 -46.45,33.22 -43.56,30.43 -40.96,27.64 -38.37,24.86 -35.87,22.20 -33.37,19.55 -31.03,17.22 -28.68,14.89 -26.85,13.40 -25.01,11.92 -23.13,10.61 -21.25,9.29 -19.24,7.68 -17.23,6.07 -14.78,4.24 -12.34,2.41 -10.07,0.85 -7.81,-0.69 -5.02,-2.30 -2.23,-3.91 -1.73,-4.12 -1.23,-4.33 -0.69,-4.41 -0.16,-4.50 0.37,-4.45 0.92,-4.41 1.43,-4.23 1.94,-4.06 2.40,-3.76 2.86,-3.47 3.23,-3.08 3.61,-2.69 3.88,-2.21 4.15,-1.74 4.30,-1.22 4.45,-0.70 4.46,-0.15 4.48,0.38 4.37,0.91 4.26,1.44 4.03,1.93 3.79,2.42 3.45,2.84 3.10,3.26 2.67,3.58 2.23,3.91 2.23,3.91 L 2.23,3.91 Z"></path></g><g transform="translate(529.5823745727548 263.47171020506994) rotate(0 40.27778625488281 38.88887405395508)" stroke="none"><path fill="#e03131" d="M 2.82,-3.39 Q 2.82,-3.39 5.23,-1.40 7.64,0.58 10.68,4.18 13.72,7.78 16.46,10.83 19.21,13.88 21.70,16.85 24.19,19.81 26.41,22.12 28.64,24.43 30.47,26.12 32.29,27.82 34.12,29.13 35.95,30.44 38.13,32.34 40.30,34.24 42.26,35.64 44.22,37.05 46.73,38.94 49.23,40.82 51.93,43.23 54.63,45.64 57.80,48.73 60.98,51.82 62.56,53.35 64.13,54.88 67.06,57.70 69.99,60.53 71.77,62.35 73.55,64.16 75.27,65.52 76.99,66.89 79.75,69.10 82.51,71.32 84.14,73.16 85.76,74.99 86.07,75.90 86.38,76.80 86.38,77.76 86.38,78.71 86.08,79.62 85.78,80.53 85.20,81.29 84.62,82.05 83.83,82.59 83.04,83.13 82.12,83.39 81.20,83.64 80.25,83.59 79.30,83.54 78.41,83.19 77.52,82.84 76.79,82.22 76.06,81.61 75.56,80.79 75.07,79.97 74.86,79.04 74.65,78.11 74.75,77.16 74.86,76.21 75.25,75.34 75.65,74.47 76.31,73.77 76.96,73.08 77.81,72.63 78.65,72.18 79.59,72.02 80.54,71.87 81.48,72.02 82.42,72.17 83.27,72.62 84.11,73.06 84.77,73.75 85.43,74.45 85.83,75.31 86.24,76.18 86.34,77.13 86.45,78.08 86.25,79.01 86.04,79.95 85.55,80.77 85.06,81.59 84.33,82.21 83.61,82.83 82.72,83.18 81.83,83.54 80.88,83.59 79.93,83.65 79.00,83.39 78.08,83.14 77.29,82.60 76.50,82.07 75.92,81.31 75.34,80.55 75.34,80.55 75.34,80.55 74.45,79.35 73.57,78.15 71.77,76.93 69.98,75.70 67.77,73.94 65.56,72.17 63.74,70.39 61.92,68.60 59.09,65.67 56.27,62.75 54.74,61.17 53.21,59.60 50.13,56.45 47.05,53.30 44.74,50.80 42.42,48.30 40.50,46.32 38.58,44.34 36.42,42.57 34.26,40.79 32.39,38.96 30.52,37.12 28.48,35.28 26.43,33.44 24.76,31.49 23.10,29.54 20.87,27.02 18.65,24.50 16.29,21.74 13.94,18.98 10.92,16.08 7.91,13.18 4.92,10.29 1.94,7.40 -0.44,5.39 -2.82,3.39 -3.19,3.00 -3.55,2.61 -3.81,2.15 -4.08,1.69 -4.22,1.17 -4.36,0.66 -4.38,0.13 -4.39,-0.39 -4.28,-0.92 -4.17,-1.44 -3.94,-1.91 -3.70,-2.39 -3.36,-2.80 -3.02,-3.21 -2.59,-3.53 -2.16,-3.84 -1.67,-4.05 -1.18,-4.25 -0.65,-4.33 -0.13,-4.41 0.39,-4.36 0.92,-4.31 1.43,-4.14 1.93,-3.97 2.38,-3.68 2.82,-3.39 2.82,-3.39 L 2.82,-3.39 Z"></path></g></svg>