<svg version="1.1" xmlns="http://www.w3.org/2000/svg" viewBox="0 0 1440 640" width="1440" height="640">
  <!-- svg-source:excalidraw -->
  
  <defs>
    <style class="style-fonts">
      @font-face {
        font-family: "Virgil";
        src: url("https://excalidraw.com/Virgil.woff2");
      }
      @font-face {
        font-family: "Cascadia";
        src: url("https://excalidraw.com/Cascadia.woff2");
      }
    </style>
    
  </defs>
  <rect x="0" y="0" width="1440" height="640" fill="#ffffff"></rect><g stroke-linecap="round" transform="translate(10 10) rotate(0 710 310)"><path d="M28.75 -0.64 L1384.67 -0.81 L1405.76 0.45 L1415.56 9.97 L1416.92 31.69 L1421.13 587.56 L1419.04 600.4 L1404.17 615.81 L1389.87 623.98 L34.39 618.64 L16.09 621.87 L5.46 609.03 L-2.66 587.59 L1.97 28.04 L-1.83 20.72 L5.94 9.26 L18.09 0.9 L32.35 0.38" stroke="none" stroke-width="0" fill="#fff"></path><path d="M32 0 M32 0 C558.92 -9.05, 1085.06 -10.98, 1388 0 M32 0 C346.56 -2.48, 661.03 -3.01, 1388 0 M1388 0 C1407.95 -2.66, 1422.17 7.91, 1420 32 M1388 0 C1404.83 -0.39, 1416.13 7.94, 1420 32 M1420 32 C1414.3 234.35, 1415.21 435.22, 1420 588 M1420 32 C1416.94 245.53, 1416.62 460.16, 1420 588 M1420 588 C1419.64 610.98, 1411.66 621.77, 1388 620 M1420 588 C1418.53 608.68, 1405.55 616.35, 1388 620 M1388 620 C1047.11 611.22, 708.95 609.42, 32 620 M1388 620 C933.63 625.85, 480.38 625.54, 32 620 M32 620 C8.16 621.38, -2.71 605.62, 0 588 M32 620 C15.07 621.13, 2.05 613.58, 0 588 M0 588 C1.63 407.59, 0.91 227.39, 0 32 M0 588 C-0.35 406.11, 0.43 223.97, 0 32 M0 32 C1.77 7.03, 12.05 -1.8, 32 0 M0 32 C-1.3 7.1, 11.6 4.18, 32 0" stroke="#1e1e1e" stroke-width="1" fill="none"></path></g><g stroke-linecap="round" transform="translate(250 110) rotate(0 110 220)"><path d="M32.16 0.61 L196.76 0.19 L200.91 2.68 L211.29 9.36 L218.4 16.03 L219.87 32.58 L221 409.58 L220.14 414.79 L214.62 426.26 L212.24 430.88 L203.18 439.43 L188.39 438.19 L24.13 439.45 L12.31 435.07 L3.48 428.61 L2.25 420.81 L1.74 406.21 L1.01 23.67 L0.47 18.99 L6.39 9.4 L19.76 3.68 L32.76 1.69" stroke="none" stroke-width="0" fill="#fff"></path><path d="M32 0 M32 0 C82.22 -0.68, 130.99 -1.65, 188 0 M188 0 C207.95 1.27, 220.38 11.43, 220 32 M220 32 C219.27 126.67, 218.66 219.06, 220 408 M220 408 C219.85 429.36, 209.18 441.11, 188 440 M188 440 C151.59 438.99, 112.96 440.6, 32 440 M32 440 C11.36 439.59, -0.58 427.69, 0 408 M0 408 C1.56 262, 1.2 117.08, 0 32 M0 32 C1.22 9.45, 11.14 1.54, 32 0" stroke="#1e1e1e" stroke-width="1.5" fill="none" stroke-dasharray="8 9"></path></g><g transform="translate(317.9794921875 309.3000000000002) rotate(0 42.0205078125 20.699999999999818)"><text x="42.0205078125" y="0" font-family="Helvetica, Segoe UI Emoji" font-size="36px" fill="#1e1e1e" text-anchor="middle" style="white-space: pre;" direction="ltr" dominant-baseline="text-before-edge">Topic</text></g><g stroke-linecap="round" transform="translate(670 90) rotate(0 310 60)"><path d="M31.69 0.22 L597.98 1.97 L604.84 2.37 L614.48 7.02 L616.74 18.14 L620.38 30.76 L618.54 96.28 L616.37 103.33 L613.46 111.69 L601.27 117.98 L590.03 119.84 L24.08 118.28 L10.95 115.81 L8.14 111.46 L0.92 103.7 L0.69 89.59 L-0.58 28.36 L3.6 15.65 L9.29 7.76 L15.5 1.54 L29.05 1.22" stroke="none" stroke-width="0" fill="#ffc9c9"></path><path d="M30 0 M30 0 C163.31 -1.71, 298.22 -2.08, 590 0 M30 0 C203.16 -2.3, 377.02 -1.99, 590 0 M590 0 C610.1 -0.68, 619.87 10.75, 620 30 M590 0 C608.32 0.69, 619.23 10.13, 620 30 M620 30 C619.95 41.92, 617.92 55.21, 620 90 M620 30 C620.58 48.96, 619.16 68.77, 620 90 M620 90 C621.58 110.17, 608.26 121.74, 590 120 M620 90 C621.2 111.89, 610.1 120.68, 590 120 M590 120 C426.89 117.39, 263.52 117.87, 30 120 M590 120 C378.38 117.51, 166.12 118.14, 30 120 M30 120 C9.95 121.97, 1.21 111.59, 0 90 M30 120 C8.85 119.67, -1.17 111.06, 0 90 M0 90 C-1.07 68.28, -0.73 48.62, 0 30 M0 90 C0.24 74.46, 0.83 57, 0 30 M0 30 C-1.92 8.98, 10.08 -0.75, 30 0 M0 30 C0.51 11.39, 8.76 -0.23, 30 0" stroke="#1e1e1e" stroke-width="1" fill="none"></path></g><g transform="translate(854.9228515625 129.30000000000018) rotate(0 125.0771484375 20.699999999999818)"><text x="125.0771484375" y="0" font-family="Helvetica, Segoe UI Emoji" font-size="36px" fill="#1e1e1e" text-anchor="middle" style="white-space: pre;" direction="ltr" dominant-baseline="text-before-edge">Partition/Queue</text></g><g stroke-linecap="round" transform="translate(670 250) rotate(0 310 60)"><path d="M29.51 0.13 L598.6 2.3 L601.19 3.67 L610.9 7.95 L619.66 16.83 L621.97 31.21 L621.12 96.03 L617.83 102.11 L613.42 113.3 L604.21 117.23 L589.25 118.67 L22.56 118.93 L11.06 115.2 L6.25 112.64 L2.85 104.44 L-1.9 88.08 L-1.02 30.08 L1.12 17.32 L8.71 6.43 L16.67 0.79 L28.53 -1.48" stroke="none" stroke-width="0" fill="#ffc9c9"></path><path d="M30 0 M30 0 C180.92 1.97, 333.14 1.73, 590 0 M30 0 C142.6 -0.86, 254.94 -0.98, 590 0 M590 0 C608.57 1.29, 620.41 8.76, 620 30 M590 0 C610.83 -2.13, 621.26 11.81, 620 30 M620 30 C619.02 46.08, 621.28 58.7, 620 90 M620 30 C618.8 47.58, 619.69 65.01, 620 90 M620 90 C618.63 110.02, 609.75 121.95, 590 120 M620 90 C618.03 109.01, 608.1 120.3, 590 120 M590 120 C445.7 119.5, 299.82 118.25, 30 120 M590 120 C399.46 121.85, 209.22 121.65, 30 120 M30 120 C8.06 118.34, 0.12 109.28, 0 90 M30 120 C8.26 119.9, -2.06 110.06, 0 90 M0 90 C-0.64 70.05, 0.76 47.36, 0 30 M0 90 C-0.35 78.13, -0.25 65.99, 0 30 M0 30 C1.29 9.91, 11.21 1.52, 30 0 M0 30 C1.19 8.33, 9.11 0.6, 30 0" stroke="#1e1e1e" stroke-width="1" fill="none"></path></g><g transform="translate(854.9228515625 289.3000000000002) rotate(0 125.0771484375 20.699999999999818)"><text x="125.0771484375" y="0" font-family="Helvetica, Segoe UI Emoji" font-size="36px" fill="#1e1e1e" text-anchor="middle" style="white-space: pre;" direction="ltr" dominant-baseline="text-before-edge">Partition/Queue</text></g><g stroke-linecap="round" transform="translate(670 410) rotate(0 310 60)"><path d="M30.45 1.54 L596.98 2.43 L604.34 3.47 L611.5 7.21 L617.11 17.8 L620.8 31.09 L618.64 96.28 L616.8 102.72 L611.9 111.84 L602.55 116.87 L590.14 120.98 L24.28 117.63 L9.8 114.77 L7.58 111.75 L2.32 104.33 L-1.07 89.8 L-1.09 28.53 L0.4 16.28 L7.15 6.37 L15.89 3.62 L31.27 1.16" stroke="none" stroke-width="0" fill="#ffc9c9"></path><path d="M30 0 M30 0 C142.88 -0.75, 255.24 -0.97, 590 0 M30 0 C157.69 -0.32, 285.5 -0.24, 590 0 M590 0 C611.57 -1.07, 618.63 11.38, 620 30 M590 0 C609.34 1.48, 621.94 8.99, 620 30 M620 30 C617.91 47.83, 619.7 65.37, 620 90 M620 30 C620.98 43.05, 619.57 56.98, 620 90 M620 90 C620.26 109.18, 609.18 119.08, 590 120 M620 90 C622.25 111.54, 609.92 117.95, 590 120 M590 120 C399.27 121.85, 209.16 121.45, 30 120 M590 120 C476.3 119.84, 362.86 119.78, 30 120 M30 120 C10.06 120.79, 0.39 108.14, 0 90 M30 120 C9.4 120.5, 1 107.85, 0 90 M0 90 C-0.14 78.69, 0.06 66.82, 0 30 M0 90 C0.79 68.65, -0.7 45.87, 0 30 M0 30 C0.52 8, 9.5 -0.74, 30 0 M0 30 C1.29 8.33, 11.94 1.09, 30 0" stroke="#1e1e1e" stroke-width="1" fill="none"></path></g><g transform="translate(854.9228515625 449.3000000000002) rotate(0 125.0771484375 20.699999999999818)"><text x="125.0771484375" y="0" font-family="Helvetica, Segoe UI Emoji" font-size="36px" fill="#1e1e1e" text-anchor="middle" style="white-space: pre;" direction="ltr" dominant-baseline="text-before-edge">Partition/Queue</text></g><g stroke-linecap="round"><g transform="translate(90 150) rotate(0 291.1320341968909 0.95525017670343)"><path d="M-2.05 2.37 C94.5 2.6, 481.98 -0.69, 578.65 -0.74 M2.03 1.18 C99.58 2.03, 487.37 3.08, 584.32 2.48" stroke="#1e1e1e" stroke-width="1" fill="none"></path></g><g transform="translate(90 150) rotate(0 291.1320341968909 0.95525017670343)"><path d="M559.51 10.84 C563.03 7.45, 574.8 10.07, 582.04 4.72 M556.73 10.82 C562.69 9.46, 569.6 8.46, 585.35 3.64" stroke="#1e1e1e" stroke-width="1" fill="none"></path></g><g transform="translate(90 150) rotate(0 291.1320341968909 0.95525017670343)"><path d="M559.49 -9.68 C562.7 -7.38, 574.48 0.91, 582.04 4.72 M556.71 -9.71 C562.41 -6.51, 569.32 -2.97, 585.35 3.64" stroke="#1e1e1e" stroke-width="1" fill="none"></path></g></g><mask></mask><g stroke-linecap="round"><g transform="translate(92.01438476704061 451.59037176109814) rotate(0 119.89652216173704 0.22126921080052853)"><path d="M-2.01 2.03 C38.51 1.89, 201.21 -0.88, 241.81 -1.59 M2.09 0.67 C42.53 0.93, 200.8 1.33, 240.55 1.18" stroke="#1e1e1e" stroke-width="1" fill="none"></path></g><g transform="translate(92.01438476704061 451.59037176109814) rotate(0 119.89652216173704 0.22126921080052853)"><path d="M215.27 14.02 C217.24 11.5, 223.46 4.11, 237.17 2.36 M213.21 11.21 C219.08 10.95, 224.97 6.8, 241.63 0.22" stroke="#1e1e1e" stroke-width="1" fill="none"></path></g><g transform="translate(92.01438476704061 451.59037176109814) rotate(0 119.89652216173704 0.22126921080052853)"><path d="M215.26 -6.5 C217.13 -3.86, 223.35 -6.08, 237.17 2.36 M213.21 -9.31 C219.11 -5.42, 225.01 -5.42, 241.63 0.22" stroke="#1e1e1e" stroke-width="1" fill="none"></path></g></g><mask></mask><g transform="translate(90 410) rotate(0 36 20.699999999999818)"><text x="36" y="0" font-family="Helvetica, Segoe UI Emoji" font-size="36px" fill="#1e1e1e" text-anchor="middle" style="white-space: pre;" direction="ltr" dominant-baseline="text-before-edge">写入</text></g><g transform="translate(90 110) rotate(0 36 20.699999999999818)"><text x="36" y="0" font-family="Helvetica, Segoe UI Emoji" font-size="36px" fill="#1e1e1e" text-anchor="middle" style="white-space: pre;" direction="ltr" dominant-baseline="text-before-edge">写入</text></g></svg>