<svg version="1.1" xmlns="http://www.w3.org/2000/svg" viewBox="0 0 2180 1120" width="2180" height="1120">
  <!-- svg-source:excalidraw -->
  
  <defs>
    <style class="style-fonts">
      @font-face {
        font-family: "Virgil";
        src: url("https://excalidraw.com/Virgil.woff2");
      }
      @font-face {
        font-family: "Cascadia";
        src: url("https://excalidraw.com/Cascadia.woff2");
      }
    </style>
    
  </defs>
  <rect x="0" y="0" width="2180" height="1120" fill="#ffffff"></rect><g stroke-linecap="round" transform="translate(10 10) rotate(0 1080 550)"><path d="M29.26 -3.53 L2128.16 3.82 L2145.65 7.78 L2152.24 10.57 L2161.17 28.71 L2159.4 1064.12 L2152.36 1088.23 L2146.95 1093.14 L2128.32 1099.71 L34.79 1096.72 L11.71 1093.97 L3.84 1083.91 L-2.25 1070.28 L3.63 32.19 L-1.26 14.82 L9.72 8.97 L15.52 2.24 L28.24 0.11" stroke="none" stroke-width="0" fill="#fff"></path><path d="M32 0 M32 0 C556.89 7.52, 1080.43 8.81, 2128 0 M32 0 C505.09 2.11, 979.18 1.69, 2128 0 M2128 0 C2152.3 -1.46, 2163.03 10.39, 2160 32 M2128 0 C2153.15 -3.97, 2162.81 8, 2160 32 M2160 32 C2166.53 412.29, 2166.42 793.29, 2160 1068 M2160 32 C2154.35 432.01, 2153.93 830.16, 2160 1068 M2160 1068 C2163.44 1089.99, 2151.73 1103.27, 2128 1100 M2160 1068 C2157.69 1093.5, 2148.46 1104.24, 2128 1100 M2128 1100 C1581.49 1108.84, 1037.21 1106.7, 32 1100 M2128 1100 C1698.51 1099.06, 1270.12 1099.89, 32 1100 M32 1100 C11.44 1096.03, 0.6 1091.85, 0 1068 M32 1100 C9.67 1102.03, 4.16 1088.39, 0 1068 M0 1068 C-1.43 855.87, 0.73 640.52, 0 32 M0 1068 C4.33 726.31, 4.37 383.46, 0 32 M0 32 C-2.21 8.07, 10.2 -2.67, 32 0 M0 32 C-1.98 7.64, 9.99 -4.1, 32 0" stroke="#1e1e1e" stroke-width="1" fill="none"></path></g><g stroke-linecap="round" transform="translate(750 70) rotate(0 680 500)"><path d="M30.13 -3.4 L1324.57 -2.72 L1351.03 7.68 L1359 13.6 L1361.64 31.15 L1362.88 969.58 L1358.56 991.19 L1347.53 994.17 L1328.83 996.52 L32.73 998.88 L10.92 997.43 L1.15 985.26 L-2.23 964.76 L-2.07 35.46 L5.2 20.44 L4.16 9.67 L19.53 2.93 L33.32 -1.35" stroke="none" stroke-width="0" fill="#fff"></path><path d="M32 0 M32 0 C353.83 -5.11, 678.73 -3.29, 1328 0 M32 0 C444.69 -4.68, 856.68 -4.26, 1328 0 M1328 0 C1350.26 3.03, 1362.7 8.85, 1360 32 M1328 0 C1350.21 3.31, 1361.65 9.01, 1360 32 M1360 32 C1360.24 262.07, 1359.95 489.76, 1360 968 M1360 32 C1363.39 335.36, 1364.72 639.53, 1360 968 M1360 968 C1362.1 992.96, 1349.05 999.21, 1328 1000 M1360 968 C1359.34 992.06, 1351.61 1001.65, 1328 1000 M1328 1000 C1029.44 997.73, 727.52 999, 32 1000 M1328 1000 C967.84 996.13, 606.98 996.08, 32 1000 M32 1000 C7.62 1001.07, 3.59 989.61, 0 968 M32 1000 C14.62 995.66, -2.55 993.92, 0 968 M0 968 C-7.25 698.67, -5.56 431.86, 0 32 M0 968 C-4.08 645.3, -3.68 324.19, 0 32 M0 32 C-3.03 8.59, 7.73 3.5, 32 0 M0 32 C-2.12 11.49, 6.34 -0.8, 32 0" stroke="#1e1e1e" stroke-width="1" fill="none"></path></g><g stroke-linecap="round" transform="translate(70 330) rotate(0 150 230)"><path d="M31.21 3.26 L270.94 -2.68 L283.86 4.92 L292.17 16.06 L296.86 35.05 L303.58 428.57 L294.5 443.85 L284.23 457.75 L265.64 457.95 L35.76 460.97 L19.67 460.42 L3.36 451.02 L2.59 430.77 L2.78 35.11 L0.92 16.96 L6.86 7.42 L15.77 1.36 L32.96 2.55" stroke="none" stroke-width="0" fill="#fff"></path><path d="M32 0 M32 0 C116.83 0.35, 207.07 -1.86, 268 0 M32 0 C112.36 0.8, 193.83 0.64, 268 0 M268 0 C290.33 2.61, 297.69 7.25, 300 32 M268 0 C288.38 -3.82, 300.3 9.31, 300 32 M300 32 C294.83 155.84, 296.92 277.08, 300 428 M300 32 C303.41 155.84, 303.24 281.46, 300 428 M300 428 C301.09 449.6, 293.15 458.21, 268 460 M300 428 C296.73 451, 286.26 455.67, 268 460 M268 460 C216.31 465.39, 162.83 460.75, 32 460 M268 460 C193.74 458.12, 119.55 458.79, 32 460 M32 460 C7.63 456.16, 0.18 452.87, 0 428 M32 460 C13.5 459.22, -3.11 451.86, 0 428 M0 428 C1.59 290.99, 3.5 150.19, 0 32 M0 428 C-1.36 288.24, -2.87 149.89, 0 32 M0 32 C3.6 8.02, 14.48 3.77, 32 0 M0 32 C0.92 11.84, 7.41 -1.91, 32 0" stroke="#1e1e1e" stroke-width="1" fill="none"></path></g><g transform="translate(166 539.3000000000002) rotate(0 54 20.699999999999818)"><text x="54" y="0" font-family="Helvetica, Segoe UI Emoji" font-size="36px" fill="#1e1e1e" text-anchor="middle" style="white-space: pre;" direction="ltr" dominant-baseline="text-before-edge">客户端</text></g><g stroke-linecap="round" transform="translate(850 370) rotate(0 90 50)"><path d="M26.86 2.92 L151.67 3.56 L167.1 6.56 L180.06 10.33 L176.11 20.99 L176.73 77.25 L174.12 88.18 L173.99 97.46 L156.67 102.42 L23.86 103.52 L12.35 99.26 L6.3 93.34 L-0.69 79.82 L-0.75 18.56 L4.02 5.61 L15.03 4.11 L27.8 0.79" stroke="none" stroke-width="0" fill="#ffc9c9"></path><path d="M25 0 M25 0 C69.52 -1.85, 114.88 -4.58, 155 0 M25 0 C62.75 -0.55, 104.95 -0.28, 155 0 M155 0 C169.36 -3.41, 179.17 5.01, 180 25 M155 0 C171.97 -1.36, 180.54 5.31, 180 25 M180 25 C178.9 35.43, 179.66 54.32, 180 75 M180 25 C181.78 41.65, 181.24 59.41, 180 75 M180 75 C183.82 89.88, 168.82 101.45, 155 100 M180 75 C176.92 87.34, 168.01 97.22, 155 100 M155 100 C103.96 98.61, 56.05 102.79, 25 100 M155 100 C118.13 97.29, 79.37 96.09, 25 100 M25 100 C8.52 103.53, 2.47 90.99, 0 75 M25 100 C5.22 102.53, 2.36 89.36, 0 75 M0 75 C2.44 64.7, 2.33 54.76, 0 25 M0 75 C-1.76 64.26, 0.94 53.25, 0 25 M0 25 C3.81 12.1, 9.13 1.02, 25 0 M0 25 C-3.25 6.43, 7.28 2.86, 25 0" stroke="#1e1e1e" stroke-width="1" fill="none"></path></g><g transform="translate(868 399.3000000000002) rotate(0 72 20.699999999999818)"><text x="72" y="0" font-family="Helvetica, Segoe UI Emoji" font-size="36px" fill="#1e1e1e" text-anchor="middle" style="white-space: pre;" direction="ltr" dominant-baseline="text-before-edge">消费接口</text></g><g stroke-linecap="round" transform="translate(850 690) rotate(0 90 50)"><path d="M21.86 3.05 L158.58 0.57 L166.74 5.36 L173.21 12.02 L177.24 17.09 L183.76 75.97 L178.15 92.65 L169.09 100 L157.59 102.77 L27.78 103.11 L8.68 95.44 L2.38 89.65 L-1.84 80.22 L1.35 21.69 L9.05 7.04 L15.6 -1.41 L27.24 0.51" stroke="none" stroke-width="0" fill="#ffc9c9"></path><path d="M25 0 M25 0 C62.93 -1.26, 102.84 -1.92, 155 0 M25 0 C69.53 -3.4, 115.96 -3.36, 155 0 M155 0 C171.93 -1.18, 180.47 5.7, 180 25 M155 0 C170.29 -4.37, 180.83 8.16, 180 25 M180 25 C181.87 38.93, 176.53 49.48, 180 75 M180 25 C182.18 37.87, 178.85 53.25, 180 75 M180 75 C177.32 87.9, 168.49 97.58, 155 100 M180 75 C183.81 92.16, 174.54 98.54, 155 100 M155 100 C125.2 100.85, 93.53 101.12, 25 100 M155 100 C120.83 99.27, 87.72 97.16, 25 100 M25 100 C5.63 102.2, 2.06 89.66, 0 75 M25 100 C4.8 98.62, 4.29 94.12, 0 75 M0 75 C-4.34 62.37, -3.48 41.06, 0 25 M0 75 C1.01 63.19, -0.5 48.13, 0 25 M0 25 C-2.83 6.68, 7.41 2.48, 25 0 M0 25 C-1.05 9.31, 11.83 -3.89, 25 0" stroke="#1e1e1e" stroke-width="1" fill="none"></path></g><g transform="translate(855.2998046875 698.6000000000004) rotate(0 84.7001953125 41.40000000000009)"><text x="84.7001953125" y="0" font-family="Helvetica, Segoe UI Emoji" font-size="36px" fill="#1e1e1e" text-anchor="middle" style="white-space: pre;" direction="ltr" dominant-baseline="text-before-edge">offset 提交</text><text x="84.7001953125" y="41.4" font-family="Helvetica, Segoe UI Emoji" font-size="36px" fill="#1e1e1e" text-anchor="middle" style="white-space: pre;" direction="ltr" dominant-baseline="text-before-edge">接口</text></g><g mask="url(#mask-Z_ExNaluWm99NYPg6ahxN)" stroke-linecap="round"><g transform="translate(372.2891098622231 730.6999999999998) rotate(0 227.74957251530122 0.06979112662384068)"><path d="M-2.29 1.58 C74.42 1.12, 380.39 -1.29, 457.79 -1.44" stroke="#1e1e1e" stroke-width="1.5" fill="none" stroke-dasharray="8 9"></path></g><g transform="translate(372.2891098622231 730.6999999999998) rotate(0 227.74957251530122 0.06979112662384068)"><path d="M431.91 6.61 C433.48 10.98, 442.49 6.68, 460.21 -2.58" stroke="#1e1e1e" stroke-width="1.5" fill="none"></path></g><g transform="translate(372.2891098622231 730.6999999999998) rotate(0 227.74957251530122 0.06979112662384068)"><path d="M431.8 -13.91 C433.59 -5.18, 442.62 -5.12, 460.21 -2.58" stroke="#1e1e1e" stroke-width="1.5" fill="none"></path></g></g><mask id="mask-Z_ExNaluWm99NYPg6ahxN"><rect x="0" y="0" fill="#fff" width="931.7327652700242" height="830.6999999999998"></rect><rect x="517.3107422536232" y="710" fill="#000" width="169.400390625" height="41.4" opacity="1"></rect></mask><g transform="translate(517.3107422536232 710) rotate(0 82.72794012390113 20.76979112662366)"><text x="84.7001953125" y="0" font-family="Helvetica, Segoe UI Emoji" font-size="36px" fill="#1e1e1e" text-anchor="middle" style="white-space: pre;" direction="ltr" dominant-baseline="text-before-edge">offset 提交</text></g><g mask="url(#mask-NPwwDr-fafe02oNEIZYlk)" stroke-linecap="round"><g transform="translate(849 407.7052958007862) rotate(0 -237.10016806758904 6.626831071548622)"><path d="M2.63 0.68 C-76.57 3.02, -396.59 10.46, -476.83 12.57" stroke="#1e1e1e" stroke-width="1.5" fill="none" stroke-dasharray="8 9"></path></g><g transform="translate(849 407.7052958007862) rotate(0 -237.10016806758904 6.626831071548622)"><path d="M-447.93 3.29 C-453.32 3.64, -458.95 10.01, -474.06 15.36" stroke="#1e1e1e" stroke-width="1.5" fill="none"></path></g><g transform="translate(849 407.7052958007862) rotate(0 -237.10016806758904 6.626831071548622)"><path d="M-447.42 23.81 C-452.73 19.22, -458.48 20.65, -474.06 15.36" stroke="#1e1e1e" stroke-width="1.5" fill="none"></path></g></g><mask id="mask-NPwwDr-fafe02oNEIZYlk"><rect x="0" y="0" fill="#fff" width="1426.9999999999995" height="518.5845391599505"></rect><rect x="538" y="392.44491748036853" fill="#000" width="144" height="41.4" opacity="1"></rect></mask><g transform="translate(538 392.44491748036853) rotate(0 73.89983193241096 21.88720939196628)"><text x="72" y="0" font-family="Helvetica, Segoe UI Emoji" font-size="36px" fill="#1e1e1e" text-anchor="middle" style="white-space: pre;" direction="ltr" dominant-baseline="text-before-edge">消费数据</text></g><g stroke-linecap="round" transform="translate(1410 170) rotate(0 50 40)"><path d="M21.67 2.42 L83.54 3.83 L97.59 7.77 L101.53 14.36 L98.92 18.96 L98.55 64.11 L92.77 74.36 L89.71 81.3 L82.8 80.79 L16.85 76.72 L7.24 75.51 L-0.09 66.54 L-2.81 15.54 L-0.48 10.24 L3.86 4.87 L21 2.61" stroke="none" stroke-width="0" fill="#ffd43b"></path><path d="M20 0 M20 0 C31.21 0.51, 47.89 0.72, 80 0 M20 0 C34.41 1.06, 46.57 1.45, 80 0 M80 0 C95.64 1.71, 102.78 3.05, 100 20 M80 0 C95.83 -1.14, 101.26 6.97, 100 20 M100 20 C101.09 33.14, 95.88 48.46, 100 60 M100 20 C101.91 28.95, 99.16 39.47, 100 60 M100 60 C101.17 72.74, 93.43 76.95, 80 80 M100 60 C100.42 71.66, 89.84 75.58, 80 80 M80 80 C61.05 78.04, 45.65 82.8, 20 80 M80 80 C66.88 80.71, 50.45 80.66, 20 80 M20 80 C8.74 76.17, 3.44 70.36, 0 60 M20 80 C4.6 78.8, 4.14 70.29, 0 60 M0 60 C0.27 41.36, -2.41 27.45, 0 20 M0 60 C1.7 43.83, -1.34 30.97, 0 20 M0 20 C-2.15 5.41, 3.37 -1.52, 20 0 M0 20 C1.42 7.39, 9.94 2.45, 20 0" stroke="#1e1e1e" stroke-width="1" fill="none"></path></g><g stroke-linecap="round" transform="translate(1410 250) rotate(0 50 40)"><path d="M22.59 2.77 L87.47 3.42 L93.92 3.96 L97.61 10.67 L97.77 19.36 L100.65 67.23 L97.8 75.79 L90.29 75.78 L82.24 80.51 L14.91 81.54 L1.87 75.22 L-2.98 67.12 L-3.64 17.37 L3.81 10.42 L5.5 -0.6 L19.17 -3.32" stroke="none" stroke-width="0" fill="#ffd43b"></path><path d="M20 0 M20 0 C35.76 -1.33, 52.99 0.58, 80 0 M20 0 C38.92 0.67, 56.93 -1.99, 80 0 M80 0 C95.5 -0.99, 101.09 6.93, 100 20 M80 0 C97.73 -2.06, 96.73 8.34, 100 20 M100 20 C96.83 32.64, 99.68 41.15, 100 60 M100 20 C99.98 30.43, 99.45 39.94, 100 60 M100 60 C100.36 71.87, 90.3 76.16, 80 80 M100 60 C100.21 77.4, 96.17 79.22, 80 80 M80 80 C64.05 77.54, 50.92 84.35, 20 80 M80 80 C59.83 78.7, 39.31 79.12, 20 80 M20 80 C4.87 78.95, 3.6 70.68, 0 60 M20 80 C11.05 84.33, 0.92 74.51, 0 60 M0 60 C2.81 49.92, 1.18 44.7, 0 20 M0 60 C-0.46 50.76, -1.04 42.01, 0 20 M0 20 C1.23 7.29, 9.51 2.13, 20 0 M0 20 C3.99 4.9, 4.89 -1.45, 20 0" stroke="#1e1e1e" stroke-width="1" fill="none"></path></g><g stroke-linecap="round" transform="translate(1410 330) rotate(0 50 40)"><path d="M18.92 -1.04 L83.55 -0.27 L92.77 4.36 L99.71 13.8 L102.8 20.79 L101.23 61.72 L97.24 75.51 L88.35 80.6 L76.87 80.22 L12.02 82.12 L1.05 77.06 L1.31 67.29 L-2 11.9 L1.98 4.49 L8.07 1.63 L20.47 -2.63" stroke="none" stroke-width="0" fill="#a5d8ff"></path><path d="M20 0 M20 0 C36.06 -3.29, 53.03 2.09, 80 0 M20 0 C41.65 0.59, 61.68 1.22, 80 0 M80 0 C97.15 -1.79, 97.16 8.12, 100 20 M80 0 C90.26 -4.33, 96.35 3.89, 100 20 M100 20 C98.82 32.3, 100.68 51.8, 100 60 M100 20 C100.2 30.67, 98.5 40.88, 100 60 M100 60 C100.18 76.87, 95.8 79.32, 80 80 M100 60 C96.89 75.86, 95.7 77.69, 80 80 M80 80 C68.75 81.98, 55.26 83.19, 20 80 M80 80 C66.84 78.58, 57.28 77.78, 20 80 M20 80 C10.48 83.77, 0.8 74.36, 0 60 M20 80 C3.41 78.09, -1.06 76.19, 0 60 M0 60 C-3.55 45.86, -0.29 35.67, 0 20 M0 60 C1.28 49.57, 2.08 39.57, 0 20 M0 20 C3.47 5.13, 5.12 -1.26, 20 0 M0 20 C3.93 3.07, 3.4 3.07, 20 0" stroke="#1e1e1e" stroke-width="1" fill="none"></path></g><g stroke-linecap="round" transform="translate(1410 410) rotate(0 50 40)"><path d="M18.86 -0.58 L82.46 -0.33 L95.96 7.55 L101.55 12.04 L101.54 17.03 L101.93 65.2 L94.6 76.85 L85.62 78.97 L76.71 82.43 L11.36 81.75 L6 77.61 L-2 61.27 L-0.52 11.99 L3.07 6.63 L8.28 0.18 L18.81 -3.8" stroke="none" stroke-width="0" fill="#a5d8ff"></path><path d="M20 0 M20 0 C39.69 3.23, 59.87 3.7, 80 0 M20 0 C33.12 0.43, 47.05 -0.6, 80 0 M80 0 C90.49 1.45, 97.32 2.9, 100 20 M80 0 C89.68 -2.78, 103.81 7.16, 100 20 M100 20 C100.34 35.67, 99.15 49.1, 100 60 M100 20 C98.55 27.02, 100.16 39.66, 100 60 M100 60 C102.47 72.66, 90.63 82.2, 80 80 M100 60 C102.36 71.02, 89.8 78.62, 80 80 M80 80 C58.43 82.33, 28.97 83.7, 20 80 M80 80 C68.26 78.36, 54.84 81.57, 20 80 M20 80 C7.47 81.02, -2.83 71.68, 0 60 M20 80 C5.61 82.86, -1.05 74.31, 0 60 M0 60 C0.56 42.81, -0.58 26.61, 0 20 M0 60 C1.18 50.58, 1.49 38.27, 0 20 M0 20 C-1.55 5.41, 10.09 -3.12, 20 0 M0 20 C-3.27 9.73, 2.63 -3.51, 20 0" stroke="#1e1e1e" stroke-width="1" fill="none"></path></g><g stroke-linecap="round" transform="translate(1410 490) rotate(0 50 40)"><path d="M17.77 -0.64 L85.65 2.86 L97.8 5.79 L100.29 8.28 L102.24 20.51 L99.29 66.54 L91.87 75.22 L85.46 81.18 L76.05 82.06 L16.31 82.29 L2.69 71.59 L-0.52 61.36 L0.57 14.13 L3.28 5.18 L6.62 -0.99 L20.72 -0.15" stroke="none" stroke-width="0" fill="#a5d8ff"></path><path d="M20 0 M20 0 C35.1 2.09, 43.15 1.48, 80 0 M20 0 C38.42 -0.97, 51.6 0.65, 80 0 M80 0 C90.66 -3.77, 96.82 4.25, 100 20 M80 0 C97.15 0.5, 102.88 5.21, 100 20 M100 20 C99.52 29.08, 97.06 38.33, 100 60 M100 20 C99.48 32.31, 100.63 40.74, 100 60 M100 60 C97.3 75.53, 95.39 77.99, 80 80 M100 60 C96.46 71.95, 97.63 82.46, 80 80 M80 80 C56.89 84.07, 38.45 78.82, 20 80 M80 80 C65.48 81.09, 47.54 79.72, 20 80 M20 80 C3.84 78.34, -0.92 75.82, 0 60 M20 80 C5.62 80.97, 3.5 69.44, 0 60 M0 60 C-1.23 47.75, -1.49 43.33, 0 20 M0 60 C1.17 46.6, -1.34 34.11, 0 20 M0 20 C3.42 3.54, 3.82 2.67, 20 0 M0 20 C-4.04 3.16, 5.69 3.1, 20 0" stroke="#1e1e1e" stroke-width="1" fill="none"></path></g><g stroke-linecap="round" transform="translate(1410 570) rotate(0 50 40)"><path d="M20.96 2.55 L87.49 1.1 L96.54 2.03 L100.99 11.76 L99.6 21.85 L96.56 64.91 L91.71 77.43 L84.8 80.81 L81 82.61 L13 76.27 L4.17 71.68 L0.57 63.51 L0.78 12.68 L1.62 4.01 L8.53 2.66 L16.92 0.61" stroke="none" stroke-width="0" fill="#a5d8ff"></path><path d="M20 0 M20 0 C37.84 1.34, 61.92 0.26, 80 0 M20 0 C36.97 1.26, 55.45 -1.35, 80 0 M80 0 C90.16 -2.42, 103.31 7.1, 100 20 M80 0 C96.21 -1.46, 96.53 7.35, 100 20 M100 20 C96.83 33.53, 98.42 43.3, 100 60 M100 20 C101.27 27.82, 98.68 37.41, 100 60 M100 60 C102.06 71.32, 90.26 78.8, 80 80 M100 60 C104.29 75.79, 94.32 82.34, 80 80 M80 80 C55.92 79.23, 36.74 84.63, 20 80 M80 80 C66.37 81.64, 50.53 80.3, 20 80 M20 80 C5.75 82.48, -0.91 74.18, 0 60 M20 80 C10.17 76.11, -3.51 73.19, 0 60 M0 60 C-1.27 51.38, 0.88 43.14, 0 20 M0 60 C-1.47 45.24, 1.02 30.18, 0 20 M0 20 C-2.84 9.33, 3.16 -3.05, 20 0 M0 20 C-0.98 9.77, 9.72 0.21, 20 0" stroke="#1e1e1e" stroke-width="1" fill="none"></path></g><g stroke-linecap="round"><g transform="translate(1028.4325587276371 726.9238648006894) rotate(0 100.92783465925595 67.49044432351502)"><path d="M1.57 0.36 C34.77 23.14, 167.49 112.44, 200.29 134.62" stroke="#1e1e1e" stroke-width="1.5" fill="none" stroke-dasharray="8 9"></path></g><g transform="translate(1028.4325587276371 726.9238648006894) rotate(0 100.92783465925595 67.49044432351502)"><path d="M171.69 126.97 C182.78 126.37, 191.01 128.66, 202.72 130.68" stroke="#1e1e1e" stroke-width="1.5" fill="none"></path></g><g transform="translate(1028.4325587276371 726.9238648006894) rotate(0 100.92783465925595 67.49044432351502)"><path d="M183.17 109.95 C190.12 115.24, 194.46 123.3, 202.72 130.68" stroke="#1e1e1e" stroke-width="1.5" fill="none"></path></g></g><mask></mask><g stroke-linecap="round"><g transform="translate(1409 397.8602675301072) rotate(0 -190.2340592209248 3.402493460830101)"><path d="M-0.28 1.3 C-63.91 2.16, -316.85 4.55, -380.19 5.51" stroke="#1e1e1e" stroke-width="1.5" fill="none" stroke-dasharray="8 9"></path></g><g transform="translate(1409 397.8602675301072) rotate(0 -190.2340592209248 3.402493460830101)"><path d="M-350.27 -8.22 C-361.86 -4.66, -369.65 -1.55, -378.13 6.51" stroke="#1e1e1e" stroke-width="1.5" fill="none"></path></g><g transform="translate(1409 397.8602675301072) rotate(0 -190.2340592209248 3.402493460830101)"><path d="M-350.02 12.3 C-361.76 8.55, -369.63 4.36, -378.13 6.51" stroke="#1e1e1e" stroke-width="1.5" fill="none"></path></g></g><mask></mask><g transform="translate(890 130) rotate(0 53.015625 20.699999999999818)"><text x="53.015625" y="0" font-family="Helvetica, Segoe UI Emoji" font-size="36px" fill="#1e1e1e" text-anchor="middle" style="white-space: pre;" direction="ltr" dominant-baseline="text-before-edge">Broker</text></g><g stroke-linecap="round" transform="translate(1410 90) rotate(0 50 40)"><path d="M17.42 0.93 L82.71 -0.07 L95.95 2.87 L97.22 13.57 L97.27 16.25 L97.02 63.4 L93.78 74.68 L85.52 81.87 L76.4 82.19 L14.83 77.98 L8.66 75.26 L-2.83 68.12 L-3.08 12.13 L-0.54 5.99 L5.7 0.01 L23.29 -1.41" stroke="none" stroke-width="0" fill="#ffd43b"></path><path d="M20 0 M20 0 C36.22 -2.54, 61.14 -1.72, 80 0 M20 0 C34.8 -0.47, 53 -2.33, 80 0 M80 0 C95.71 -2.33, 96.75 5.19, 100 20 M80 0 C90.1 -1.36, 103.19 5.28, 100 20 M100 20 C97.26 35.74, 102.75 43.77, 100 60 M100 20 C101.99 34.19, 101.61 44.54, 100 60 M100 60 C96.07 69.39, 93.24 79.06, 80 80 M100 60 C99.49 69.84, 95.77 84.23, 80 80 M80 80 C58.69 76.65, 33.86 80.13, 20 80 M80 80 C68.24 81.47, 53.96 81.54, 20 80 M20 80 C6.57 80.43, -0.85 76.98, 0 60 M20 80 C6.03 82.6, -0.26 71.05, 0 60 M0 60 C-2.21 49.96, -0.25 40.19, 0 20 M0 60 C0.34 48.69, -1.49 41.94, 0 20 M0 20 C3.21 4.89, 6.11 -3.78, 20 0 M0 20 C-4.47 9.61, 11.21 1.05, 20 0" stroke="#1e1e1e" stroke-width="1" fill="none"></path></g><g stroke-linecap="round" transform="translate(1230 830) rotate(0 130 70)"><path d="M28.77 3.12 L224.4 2.19 L247.02 2.8 L259.16 12.76 L256.86 35.44 L256.61 104.82 L252.15 125.68 L245.39 132.7 L231.29 138.59 L32.7 137.2 L10.26 132.68 L1.29 130.55 L-1.89 114.39 L-3.02 27.91 L4.92 9.12 L18.65 -0.61 L34.37 -2.33" stroke="none" stroke-width="0" fill="#ffd43b"></path><path d="M32 0 M32 0 C73.67 5.54, 116.5 3.9, 228 0 M32 0 C108.01 4.37, 180.15 3.74, 228 0 M228 0 C251.8 -1.06, 262.98 13.4, 260 32 M228 0 C251.89 -2.56, 255.48 6.13, 260 32 M260 32 C256.61 56.74, 263.32 80.09, 260 108 M260 32 C257.41 54.09, 259.15 76.12, 260 108 M260 108 C259.1 132.73, 251.67 140.91, 228 140 M260 108 C259.6 130.52, 249.23 140.49, 228 140 M228 140 C175.64 139.23, 116.78 138.37, 32 140 M228 140 C179.85 137.1, 131.83 136.12, 32 140 M32 140 C11.08 142.91, 0.85 125.49, 0 108 M32 140 C7.44 141.66, 3.69 127.29, 0 108 M0 108 C4 90.21, 2.35 65.64, 0 32 M0 108 C-0.83 88.96, -1.17 66.29, 0 32 M0 32 C2.58 14.23, 10 2.09, 32 0 M0 32 C3.42 14.71, 6.07 -4.36, 32 0" stroke="#1e1e1e" stroke-width="1" fill="none"></path></g><g transform="translate(1249.9609375 858.6000000000004) rotate(0 110.0390625 41.40000000000009)"><text x="110.0390625" y="0" font-family="Helvetica, Segoe UI Emoji" font-size="36px" fill="#1e1e1e" text-anchor="middle" style="white-space: pre;" direction="ltr" dominant-baseline="text-before-edge">Group cursor </text><text x="110.0390625" y="41.4" font-family="Helvetica, Segoe UI Emoji" font-size="36px" fill="#1e1e1e" text-anchor="middle" style="white-space: pre;" direction="ltr" dominant-baseline="text-before-edge">offset</text></g><g stroke-linecap="round"><g transform="translate(1530 310) rotate(0 110.07310021319381 290)"><path d="M0 0 C43.33 36.67, 266.67 123.33, 260 220 C253.33 316.67, 10 520, -40 580 M0 0 C43.33 36.67, 266.67 123.33, 260 220 C253.33 316.67, 10 520, -40 580" stroke="#1e1e1e" stroke-width="1" fill="none"></path></g><g transform="translate(1530 310) rotate(0 110.07310021319381 290)"><path d="M-27.38 552.78 C-30.68 559.91, -33.98 567.03, -40 580 M-27.38 552.78 C-30.03 558.51, -32.69 564.23, -40 580" stroke="#1e1e1e" stroke-width="1" fill="none"></path></g><g transform="translate(1530 310) rotate(0 110.07310021319381 290)"><path d="M-12.84 567.26 C-19.95 570.6, -27.05 573.93, -40 580 M-12.84 567.26 C-18.55 569.94, -24.27 572.62, -40 580" stroke="#1e1e1e" stroke-width="1" fill="none"></path></g></g><mask></mask><g stroke-linecap="round" transform="translate(1750 150) rotate(0 150 100)"><path d="M159.42 2.24 C174.64 1.96, 193.14 5.89, 208.27 9.47 C223.39 13.05, 238.34 16.71, 250.16 23.73 C261.99 30.74, 271.38 41.66, 279.21 51.57 C287.04 61.48, 293.81 72.43, 297.15 83.2 C300.5 93.98, 301.77 105.85, 299.27 116.21 C296.77 126.57, 289.82 135.66, 282.16 145.36 C274.5 155.07, 265.26 166.99, 253.31 174.44 C241.35 181.89, 225.53 185.56, 210.44 190.04 C195.35 194.51, 178.84 200.04, 162.77 201.3 C146.71 202.56, 129.92 200.47, 114.07 197.6 C98.21 194.72, 81.09 189.82, 67.64 184.04 C54.19 178.26, 43.19 171.43, 33.36 162.91 C23.53 154.38, 13.94 142.99, 8.65 132.91 C3.36 122.82, 1.67 113.14, 1.64 102.39 C1.6 91.64, 3.94 79.18, 8.43 68.42 C12.92 57.67, 18.86 46.2, 28.58 37.86 C38.29 29.52, 52.75 24.09, 66.72 18.39 C80.69 12.68, 84.96 4.13, 112.41 3.63 C139.87 3.13, 204.1 7.17, 231.44 15.4 C258.79 23.64, 278.33 51.54, 276.47 53.04 M67.86 18.86 C79.3 11.91, 98.16 6.48, 114.53 3.44 C130.9 0.39, 149.96 -0.79, 166.09 0.57 C182.22 1.93, 196.73 7.59, 211.29 11.59 C225.84 15.58, 241.47 17.7, 253.42 24.56 C265.38 31.43, 276.01 42.49, 283.02 52.77 C290.03 63.05, 292.72 75.31, 295.5 86.25 C298.28 97.19, 302.08 108.5, 299.68 118.43 C297.28 128.37, 289.01 136.12, 281.1 145.88 C273.19 155.64, 264.17 169.68, 252.2 176.99 C240.23 184.3, 223.92 185.85, 209.26 189.72 C194.6 193.59, 180.21 199.11, 164.22 200.23 C148.22 201.35, 129.23 199.41, 113.31 196.44 C97.39 193.48, 82.09 188.55, 68.71 182.46 C55.33 176.36, 43.32 168.62, 33.05 159.88 C22.78 151.14, 12.53 140.18, 7.1 130.02 C1.67 119.86, 0.07 109.35, 0.46 98.92 C0.86 88.49, 3.84 77.9, 9.48 67.42 C15.12 56.95, 24.36 45.13, 34.29 36.08 C44.22 27.03, 63.16 16.45, 69.07 13.15 C74.98 9.85, 68.47 14.3, 69.77 16.28" stroke="none" stroke-width="0" fill="#ced4da"></path><path d="M39.1 35.57 C48.08 27.13, 63.4 19.43, 77.34 13.72 C91.28 8.02, 106.83 3.33, 122.73 1.34 C138.63 -0.64, 156.53 -0.11, 172.72 1.8 C188.9 3.72, 205.65 8.14, 219.86 12.83 C234.08 17.51, 246.93 22.74, 258.01 29.93 C269.09 37.13, 279.44 46.17, 286.36 55.99 C293.28 65.82, 298.01 77.67, 299.53 88.89 C301.04 100.1, 299.19 112.36, 295.43 123.27 C291.68 134.19, 285.62 145.62, 277 154.38 C268.38 163.15, 256.4 169, 243.72 175.86 C231.04 182.72, 215.7 191.32, 200.93 195.54 C186.15 199.76, 171.43 201.09, 155.05 201.19 C138.68 201.29, 118.26 199.54, 102.65 196.14 C87.04 192.74, 73.99 187.48, 61.38 180.77 C48.77 174.07, 36.5 164.7, 27.01 155.93 C17.52 147.16, 8.8 138.67, 4.46 128.17 C0.12 117.66, 0.14 103.67, 0.96 92.89 C1.78 82.11, 0.43 75.08, 9.37 63.49 C18.31 51.91, 43.46 31.24, 54.59 23.4 C65.72 15.56, 74.61 15.56, 76.16 16.46 M44.36 32.57 C53.36 24.06, 65.96 16.6, 80.4 11.52 C94.83 6.44, 114.87 3.97, 130.99 2.07 C147.11 0.17, 161.55 -1.84, 177.12 0.12 C192.69 2.08, 209.95 7.85, 224.39 13.83 C238.82 19.8, 252.94 28.03, 263.75 35.96 C274.55 43.89, 283.1 51.45, 289.22 61.4 C295.34 71.36, 299.3 85.14, 300.48 95.69 C301.67 106.25, 301.26 114.11, 296.34 124.75 C291.43 135.4, 280.86 150.04, 271.01 159.57 C261.15 169.09, 249.36 176, 237.19 181.92 C225.03 187.85, 213.27 192.18, 198.04 195.11 C182.82 198.05, 162.23 199.52, 145.84 199.54 C129.46 199.57, 114.66 199.3, 99.72 195.27 C84.77 191.24, 69.34 182.54, 56.16 175.37 C42.98 168.21, 28.96 161.36, 20.65 152.26 C12.34 143.16, 9.8 131.1, 6.29 120.78 C2.79 110.45, -1.58 100.48, -0.39 90.3 C0.8 80.13, 6.53 69.54, 13.45 59.71 C20.37 49.89, 36.33 36.14, 41.12 31.34 C45.92 26.54, 40.62 30.27, 42.21 30.92" stroke="#1e1e1e" stroke-width="1" fill="none"></path></g><g transform="translate(1800.8636703220182 229.0893218813453) rotate(0 99.0703125 20.699999999999818)"><text x="99.0703125" y="0" font-family="Helvetica, Segoe UI Emoji" font-size="36px" fill="#1e1e1e" text-anchor="middle" style="white-space: pre;" direction="ltr" dominant-baseline="text-before-edge">clean thread</text></g><g stroke-linecap="round"><g transform="translate(1790 190) rotate(0 -130.43754251387008 -39.396192268729465)"><path d="M-0.4 2.37 C-23.64 -10.87, -98.24 -80.66, -141.36 -81.16 C-184.49 -81.65, -239.68 -13.99, -259.13 -0.61 M-4.07 1.19 C-26.19 -11.52, -92.97 -78.32, -135.7 -78.16 C-178.44 -77.99, -240.34 -11.07, -260.47 2.16" stroke="#1e1e1e" stroke-width="1" fill="none"></path></g><g transform="translate(1790 190) rotate(0 -130.43754251387008 -39.396192268729465)"><path d="M-242.02 -25.72 C-250.86 -16.58, -253.57 -9.08, -261.76 3.22 M-246.92 -23.24 C-247.28 -17.84, -250.86 -13.84, -261.58 4.16" stroke="#1e1e1e" stroke-width="1" fill="none"></path></g><g transform="translate(1790 190) rotate(0 -130.43754251387008 -39.396192268729465)"><path d="M-228.87 -9.97 C-240.56 -4.51, -246.32 -0.66, -261.76 3.22 M-233.78 -7.48 C-237.08 -5.93, -243.71 -5.6, -261.58 4.16" stroke="#1e1e1e" stroke-width="1" fill="none"></path></g></g><mask></mask></svg>