<svg version="1.1" xmlns="http://www.w3.org/2000/svg" viewBox="0 0 1520 980" width="1520" height="980">
  <!-- svg-source:excalidraw -->
  
  <defs>
    <style class="style-fonts">
      @font-face {
        font-family: "Virgil";
        src: url("https://excalidraw.com/Virgil.woff2");
      }
      @font-face {
        font-family: "Cascadia";
        src: url("https://excalidraw.com/Cascadia.woff2");
      }
    </style>
    
  </defs>
  <rect x="0" y="0" width="1520" height="980" fill="#ffffff"></rect><g stroke-linecap="round" transform="translate(10 10) rotate(0 750 480)"><path d="M35.11 -1.24 L1468.13 -3.02 L1487.07 5.45 L1496.59 13.54 L1498.5 28.52 L1498.66 926.69 L1491.83 945.51 L1488.58 954.71 L1464.09 956.4 L29.12 960.27 L15.83 952.61 L2.16 942.02 L-1.81 927.98 L-3.92 33.02 L5.37 21.31 L11.38 6.29 L18.12 1.82 L29.09 -0.73" stroke="none" stroke-width="0" fill="#fff"></path><path d="M32 0 M32 0 C329.78 -3.07, 625.87 -1.25, 1468 0 M32 0 C475.01 10.95, 917.74 10.96, 1468 0 M1468 0 C1489.81 0.55, 1496.77 6.89, 1500 32 M1468 0 C1488.75 -1.04, 1496.35 10.22, 1500 32 M1500 32 C1504.78 367.94, 1507.14 703.62, 1500 928 M1500 32 C1499.36 350.2, 1499.62 667.55, 1500 928 M1500 928 C1500.64 946.24, 1486.63 960.22, 1468 960 M1500 928 C1495.96 953.45, 1488.07 958.4, 1468 960 M1468 960 C1076.48 968.66, 686.99 969.6, 32 960 M1468 960 C1106.13 970.89, 744.14 971.91, 32 960 M32 960 C13.73 957.6, -0.54 951.74, 0 928 M32 960 C14.7 964.22, -4.3 949.67, 0 928 M0 928 C0.77 747.93, 2.99 566.7, 0 32 M0 928 C-4.32 651.39, -4.79 373.48, 0 32 M0 32 C3.54 8, 9.9 1.5, 32 0 M0 32 C3.81 12.34, 7.33 -2.82, 32 0" stroke="#1e1e1e" stroke-width="1" fill="none"></path></g><g stroke-linecap="round" transform="translate(630 70) rotate(0 400 430)"><path d="M31.07 -2.15 L769.23 -1.08 L779.93 5.19 L788.41 11.49 L800.97 20.68 L797.82 28.78 L801.93 830.09 L801.97 840.28 L795.1 855.6 L781.92 859.9 L767.31 861.85 L33.31 863.99 L22 861.91 L10.34 851.33 L1.12 843.29 L3.76 829.17 L3.23 29.93 L2.89 15.16 L11.41 6.23 L21.61 3.41 L31.34 3" stroke="none" stroke-width="0" fill="#fff"></path><path d="M32 0 M32 0 C258.57 1.99, 486.84 1.08, 768 0 M32 0 C315.44 4.6, 599.77 3.28, 768 0 M768 0 C786.78 -1.48, 802.33 13.36, 800 32 M768 0 C787.87 1.47, 797.27 11.96, 800 32 M800 32 C803.68 300.55, 805.14 571.95, 800 828 M800 32 C798.54 215.79, 798.41 400.76, 800 828 M800 828 C796.57 848.65, 789.94 862.09, 768 860 M800 828 C802.16 847.34, 785.15 859.28, 768 860 M768 860 C486.59 866.96, 206.21 864.45, 32 860 M768 860 C513.52 863.61, 259.3 863.59, 32 860 M32 860 C10.35 856.3, 3.47 852.91, 0 828 M32 860 C6.87 856.9, 0.28 849.1, 0 828 M0 828 C-4.68 633.6, -7.4 437.52, 0 32 M0 828 C-5.97 561.68, -5.78 293.78, 0 32 M0 32 C2.34 12.84, 9.79 -0.63, 32 0 M0 32 C-1.51 12.38, 13.75 4.36, 32 0" stroke="#1e1e1e" stroke-width="1" fill="none"></path></g><g stroke-linecap="round" transform="translate(750 190) rotate(0 310 50)"><path d="M21.92 0.4 L598.78 -3.36 L610.35 7.14 L622.41 12.7 L623.3 83.96 L616.92 93.76 L606.7 96.62 L591.83 96.3 L20.03 101.47 L12.48 94.5 L5.08 88.37 L3.02 27.22 L0.15 10.81 L2.62 2.81 L16.49 3.78 L26.85 3.22" stroke="none" stroke-width="0" fill="#a5d8ff"></path><path d="M25 0 M25 0 C166.58 2.02, 307.03 2.65, 595 0 M25 0 C240.04 4.73, 454.56 5.14, 595 0 M595 0 C613.4 -1.36, 620.38 6.04, 620 25 M595 0 C608.46 1.73, 620.96 12.1, 620 25 M620 25 C618.55 37.05, 618.19 42.16, 620 75 M620 25 C619.28 43.87, 620.78 61.82, 620 75 M620 75 C620.36 95.11, 615.58 98.41, 595 100 M620 75 C621.41 89.07, 614.64 98.06, 595 100 M595 100 C462.34 96, 333.51 96.64, 25 100 M595 100 C464.17 95.02, 332.39 95.65, 25 100 M25 100 C6.41 103.05, 1.95 95.65, 0 75 M25 100 C3.99 95.73, -1.16 92.05, 0 75 M0 75 C-2.34 64.23, -3.67 50.45, 0 25 M0 75 C1.8 55.17, 0.97 37.37, 0 25 M0 25 C-2.59 5.66, 5.9 -3.43, 25 0 M0 25 C1.36 8.56, 4.07 4.57, 25 0" stroke="#1e1e1e" stroke-width="1" fill="none"></path></g><g transform="translate(948.923828125 219.30000000000018) rotate(0 111.076171875 20.699999999999818)"><text x="111.076171875" y="0" font-family="Helvetica, Segoe UI Emoji" font-size="36px" fill="#1e1e1e" text-anchor="middle" style="white-space: pre;" direction="ltr" dominant-baseline="text-before-edge">Segment1.log</text></g><g stroke-linecap="round" transform="translate(750 470) rotate(0 310 50)"><path d="M21.6 0.89 L604.83 -0.97 L617.44 9.35 L621.61 14.07 L620.38 79.04 L610.58 90.05 L606.82 100.3 L597.71 98.01 L22.66 102.04 L12.78 98.71 L0.15 82.69 L-3.63 21.56 L3.99 16.28 L8.1 9.47 L11.92 -1.62 L23.96 2.95" stroke="none" stroke-width="0" fill="#a5d8ff"></path><path d="M25 0 M25 0 C226.8 -4.65, 424.58 -4.04, 595 0 M25 0 C217.71 -4.36, 409.8 -4.54, 595 0 M595 0 C608.88 1.5, 620.84 11.61, 620 25 M595 0 C607.56 4.22, 620.91 5.62, 620 25 M620 25 C622.03 44.94, 620.31 55.83, 620 75 M620 25 C620.19 42.93, 621.97 56.62, 620 75 M620 75 C621.22 89.41, 614.25 98.31, 595 100 M620 75 C616.8 91.7, 607.48 96.24, 595 100 M595 100 C417.29 102.76, 240.23 102.54, 25 100 M595 100 C455.63 101.61, 317.41 101.79, 25 100 M25 100 C4.56 96.28, -1.01 92, 0 75 M25 100 C5.63 99.08, 4.57 88.75, 0 75 M0 75 C4.44 56.92, 2.91 44.63, 0 25 M0 75 C-1.6 59.89, -1.52 45.75, 0 25 M0 25 C1.18 8.53, 4.63 3.97, 25 0 M0 25 C-1.62 10.59, 6.66 1.62, 25 0" stroke="#1e1e1e" stroke-width="1" fill="none"></path></g><g transform="translate(948.923828125 499.3000000000002) rotate(0 111.076171875 20.699999999999818)"><text x="111.076171875" y="0" font-family="Helvetica, Segoe UI Emoji" font-size="36px" fill="#1e1e1e" text-anchor="middle" style="white-space: pre;" direction="ltr" dominant-baseline="text-before-edge">Segment3.log</text></g><g stroke-linecap="round" transform="translate(750 330) rotate(0 310 50)"><path d="M28.69 3.1 L604.03 0.4 L614.52 4.43 L615.27 10.36 L620.49 82.72 L616.46 91.76 L609.46 100.87 L598.02 102.22 L17.72 96.36 L6.14 93.04 L3.99 88.16 L1.85 28.22 L-0.58 10.88 L5.21 9.2 L16.14 4.65 L28.65 3.09" stroke="none" stroke-width="0" fill="#a5d8ff"></path><path d="M25 0 M25 0 C178.97 -1.13, 333.18 0.35, 595 0 M25 0 C176.01 2.92, 328.29 3.27, 595 0 M595 0 C608.09 3.67, 620.79 5.97, 620 25 M595 0 C613.41 -3.14, 615.51 11.45, 620 25 M620 25 C621.21 43.84, 620.35 62.98, 620 75 M620 25 C621.59 43.17, 622.27 62.76, 620 75 M620 75 C617.22 91.7, 608.02 96.73, 595 100 M620 75 C620.45 95.15, 613.96 96.77, 595 100 M595 100 C405.67 99.43, 218.48 100.01, 25 100 M595 100 C379.74 103.8, 165.78 104.61, 25 100 M25 100 C5.98 99.2, 3.97 89.13, 0 75 M25 100 C9.82 95.55, -0.5 95.66, 0 75 M0 75 C-1.47 63.04, 1.6 46.06, 0 25 M0 75 C1.2 63.44, -1.24 53.66, 0 25 M0 25 C-1.41 10.3, 6.88 1.41, 25 0 M0 25 C0.58 10.12, 10.49 0.67, 25 0" stroke="#1e1e1e" stroke-width="1" fill="none"></path></g><g transform="translate(948.923828125 359.3000000000002) rotate(0 111.076171875 20.699999999999818)"><text x="111.076171875" y="0" font-family="Helvetica, Segoe UI Emoji" font-size="36px" fill="#1e1e1e" text-anchor="middle" style="white-space: pre;" direction="ltr" dominant-baseline="text-before-edge">Segment2.log</text></g><g stroke-linecap="round" transform="translate(750 750) rotate(0 310 50)"><path d="M25.77 -1.82 L597.69 -3.31 L614.63 8.11 L621.15 12.08 L623.13 83.29 L616.77 95.97 L604.52 95.19 L591.37 96.56 L21.57 101.83 L11.61 99.7 L-0.58 82.76 L-1.04 27.95 L3.64 17.15 L9.9 9.34 L12.83 -2.32 L25.3 1.5" stroke="none" stroke-width="0" fill="#a5d8ff"></path><path d="M25 0 M25 0 C167.24 -1.82, 309.65 -3.09, 595 0 M25 0 C216.71 -3, 410.01 -4.2, 595 0 M595 0 C613.18 -2.73, 616.09 11.04, 620 25 M595 0 C615.17 1.14, 616.6 9.44, 620 25 M620 25 C623.47 43.96, 618.44 56.3, 620 75 M620 25 C619.26 37.19, 618.82 47.72, 620 75 M620 75 C620.39 94.69, 613.66 97.19, 595 100 M620 75 C621.41 87.1, 612.45 97.42, 595 100 M595 100 C473.3 98.58, 350.76 96.29, 25 100 M595 100 C476.49 100.22, 359.72 99.88, 25 100 M25 100 C9.62 96.13, -0.44 95.14, 0 75 M25 100 C6.65 102.23, 3.29 90.53, 0 75 M0 75 C-3.19 56.05, -3.95 43.16, 0 25 M0 75 C0.22 60.74, 0.2 45.22, 0 25 M0 25 C0.5 9.89, 10.21 0.58, 25 0 M0 25 C0.23 6.54, 4.08 4.31, 25 0" stroke="#1e1e1e" stroke-width="1" fill="none"></path></g><g transform="translate(1029.994140625 779.3000000000002) rotate(0 30.005859375 20.699999999999818)"><text x="30.005859375" y="0" font-family="Helvetica, Segoe UI Emoji" font-size="36px" fill="#1e1e1e" text-anchor="middle" style="white-space: pre;" direction="ltr" dominant-baseline="text-before-edge">......</text></g><g transform="translate(930 110) rotate(0 108 20.699999999999818)"><text x="108" y="0" font-family="Helvetica, Segoe UI Emoji" font-size="36px" fill="#1e1e1e" text-anchor="middle" style="white-space: pre;" direction="ltr" dominant-baseline="text-before-edge">存储文件结构</text></g><g stroke-linecap="round" transform="translate(750 610) rotate(0 310 50)"><path d="M27.71 -1.99 L604.38 2.83 L616.77 8.47 L617.02 10.81 L615.98 77.42 L616.18 95.97 L607.78 101.65 L592.85 96.82 L18.1 102.56 L11.84 99.57 L5.21 89.02 L-1.24 21.12 L1.86 15.56 L4.27 9.83 L15.79 0.2 L25.38 -2.29" stroke="none" stroke-width="0" fill="#a5d8ff"></path><path d="M25 0 M25 0 C157.54 -2.38, 288.93 -0.64, 595 0 M25 0 C161.54 3.65, 300.25 3.31, 595 0 M595 0 C608.71 0.96, 620.03 8.44, 620 25 M595 0 C612.09 3.96, 624.51 6.51, 620 25 M620 25 C617.74 38.75, 619.47 54.41, 620 75 M620 25 C621.09 34.51, 620.71 44.84, 620 75 M620 75 C620.69 89.42, 608.29 100.87, 595 100 M620 75 C617.78 95.18, 613.91 104.58, 595 100 M595 100 C477.96 97.91, 360.33 100.44, 25 100 M595 100 C460.04 96.28, 324.96 95.97, 25 100 M25 100 C11.19 99.02, 1.21 93.75, 0 75 M25 100 C5.35 96.93, -2.8 87.73, 0 75 M0 75 C3.92 57.12, 1.92 40.59, 0 25 M0 75 C0.81 58.53, -0.03 40.7, 0 25 M0 25 C-3.7 12.08, 9.74 -3.35, 25 0 M0 25 C0.3 8.01, 6.36 0.92, 25 0" stroke="#1e1e1e" stroke-width="1" fill="none"></path></g><g transform="translate(948.923828125 639.3000000000002) rotate(0 111.076171875 20.699999999999818)"><text x="111.076171875" y="0" font-family="Helvetica, Segoe UI Emoji" font-size="36px" fill="#1e1e1e" text-anchor="middle" style="white-space: pre;" direction="ltr" dominant-baseline="text-before-edge">Segment4.log</text></g><g stroke-linecap="round" transform="translate(190 210) rotate(0 80 60)"><path d="M28.72 3.17 L133.72 0.52 L140.14 0.44 L151.38 7.77 L159.49 17.64 L159.45 28.21 L161.64 97.74 L151.99 109.59 L141.13 122.03 L133.47 116.19 L30.23 122.42 L15.17 121.48 L3.93 115.4 L-2.21 96.03 L3.15 21.49 L3.85 3.61 L20.36 -1.07 L31.6 -3.79" stroke="none" stroke-width="0" fill="#fff"></path><path d="M30 0 M30 0 C70.87 0.1, 111.61 3, 130 0 M30 0 C64.67 0.1, 102.67 -0.51, 130 0 M130 0 C148.7 1.02, 158.24 6.17, 160 30 M130 0 C147.46 -1.32, 161.79 8.32, 160 30 M160 30 C162.07 53.07, 160.34 80.25, 160 90 M160 30 C160.07 51.05, 160.49 73.22, 160 90 M160 90 C160.74 106.92, 147.24 122.55, 130 120 M160 90 C160.4 105.68, 148.94 117.69, 130 120 M130 120 C95.92 122.11, 59.89 121.92, 30 120 M130 120 C96.32 118.25, 60.84 117.97, 30 120 M30 120 C10.58 116.36, 2.63 108.66, 0 90 M30 120 C6.94 120.65, 0.73 105.93, 0 90 M0 90 C2.98 67.36, 2.28 45.67, 0 30 M0 90 C-1.42 75.27, 1.75 56.51, 0 30 M0 30 C0.32 6.08, 9.18 -0.58, 30 0 M0 30 C-0.53 9.46, 12.76 1.22, 30 0" stroke="#1e1e1e" stroke-width="1" fill="none"></path></g><g transform="translate(246.990234375 249.30000000000018) rotate(0 23.009765625 20.699999999999818)"><text x="23.009765625" y="0" font-family="Helvetica, Segoe UI Emoji" font-size="36px" fill="#1e1e1e" text-anchor="middle" style="white-space: pre;" direction="ltr" dominant-baseline="text-before-edge">R1</text></g><g stroke-linecap="round" transform="translate(190 330) rotate(0 80 60)"><path d="M32.68 -1.48 L126.35 -3.89 L146.61 -1.07 L154.1 3.71 L161.91 17.69 L161.74 31.4 L160.5 99.71 L156.37 114.86 L139.99 116.22 L127.53 118.3 L31.72 117.07 L15.57 119.14 L5.74 108.67 L-1.74 95.89 L2.02 21.51 L11.16 8.23 L16.11 3.73 L29.59 0.12" stroke="none" stroke-width="0" fill="#fff"></path><path d="M30 0 M30 0 C71.27 -3.49, 105.38 -2.66, 130 0 M30 0 C58.98 2.82, 90.89 -0.34, 130 0 M130 0 C149.08 -2.01, 162.73 13.43, 160 30 M130 0 C150 3.17, 162.42 14.09, 160 30 M160 30 C156.76 52.06, 160.76 70.52, 160 90 M160 30 C161.49 46.87, 158.84 65.37, 160 90 M160 90 C160.64 106.46, 153.13 119.99, 130 120 M160 90 C156.75 113.42, 150.05 122.61, 130 120 M130 120 C97.03 117.85, 67.25 124.19, 30 120 M130 120 C107.29 117.75, 85.18 117.8, 30 120 M30 120 C12.4 121.06, -2.23 113.55, 0 90 M30 120 C14.4 115.77, -2.29 106.99, 0 90 M0 90 C-3.22 80.37, -3.64 68.22, 0 30 M0 90 C1.5 71.88, -0.89 52.34, 0 30 M0 30 C-1.38 7.75, 8.82 2.99, 30 0 M0 30 C-3.01 11.42, 12.38 4, 30 0" stroke="#1e1e1e" stroke-width="1" fill="none"></path></g><g transform="translate(246.990234375 369.3000000000002) rotate(0 23.009765625 20.699999999999818)"><text x="23.009765625" y="0" font-family="Helvetica, Segoe UI Emoji" font-size="36px" fill="#1e1e1e" text-anchor="middle" style="white-space: pre;" direction="ltr" dominant-baseline="text-before-edge">R2</text></g><g stroke-linecap="round" transform="translate(190 450) rotate(0 80 60)"><path d="M26.21 3.79 L130.81 1.74 L144.53 2.85 L155.18 11.37 L160.49 13.74 L158.09 27.53 L157.83 98.76 L149.57 111.2 L144.14 116.37 L126.17 117.79 L28.86 121.56 L15.41 121.78 L8.23 111.73 L2.32 96.62 L0.59 26.26 L9.88 10.81 L19.93 0.04 L28.94 -1.01" stroke="none" stroke-width="0" fill="#fff"></path><path d="M30 0 M30 0 C57.6 4.09, 91.07 -2.21, 130 0 M30 0 C59.42 -1.37, 86.78 -0.31, 130 0 M130 0 C153.56 1.92, 161.71 11.09, 160 30 M130 0 C145.69 1.36, 160.29 8.58, 160 30 M160 30 C162.8 46.2, 157.51 65.66, 160 90 M160 30 C158.93 47.54, 160.42 67.93, 160 90 M160 90 C162.27 111.05, 148.65 120.64, 130 120 M160 90 C159.6 107.16, 152.87 124.46, 130 120 M130 120 C106.88 117.45, 84.95 117.57, 30 120 M130 120 C95.78 120.79, 56.18 117.89, 30 120 M30 120 C7.38 116.18, 0.25 109.71, 0 90 M30 120 C6.39 123.03, -4.1 113.18, 0 90 M0 90 C3.24 72.29, -1.54 51.74, 0 30 M0 90 C2.17 72.76, 1.29 59.17, 0 30 M0 30 C3.47 11.4, 13.88 3.81, 30 0 M0 30 C-1.54 10.86, 11.04 -2.5, 30 0" stroke="#1e1e1e" stroke-width="1" fill="none"></path></g><g transform="translate(246.990234375 489.3000000000002) rotate(0 23.009765625 20.699999999999818)"><text x="23.009765625" y="0" font-family="Helvetica, Segoe UI Emoji" font-size="36px" fill="#1e1e1e" text-anchor="middle" style="white-space: pre;" direction="ltr" dominant-baseline="text-before-edge">R3</text></g><g stroke-linecap="round" transform="translate(190 570) rotate(0 80 60)"><path d="M33.87 2.36 L126.87 -1.91 L140.66 0.18 L154.22 4.57 L156.82 17.89 L158.24 26.17 L157.32 95.89 L154.06 111.04 L146.78 118.86 L129.23 121.86 L29.59 120.12 L20.16 120.51 L10.81 115.56 L-1.37 95.97 L-0.54 23.11 L8.24 4.42 L14.11 4.42 L30.34 -3.76" stroke="none" stroke-width="0" fill="#fff"></path><path d="M30 0 M30 0 C61.14 -1.36, 88.16 0.74, 130 0 M30 0 C69.44 -2.73, 108.38 -0.73, 130 0 M130 0 C148.76 -0.3, 160.58 6.36, 160 30 M130 0 C153.02 -1.54, 156.94 10.65, 160 30 M160 30 C158.92 46.13, 161.91 67.96, 160 90 M160 30 C160.63 51.24, 159.08 74.07, 160 90 M160 90 C163.87 106.92, 150.32 116.08, 130 120 M160 90 C159.05 109.33, 149.47 119.46, 130 120 M130 120 C97.55 122.71, 54.34 116.89, 30 120 M130 120 C106.4 118.55, 84.41 118.34, 30 120 M30 120 C12.76 120.35, 0.8 107.04, 0 90 M30 120 C14 120.94, -1.5 108.62, 0 90 M0 90 C3.67 71.45, 1.91 60.21, 0 30 M0 90 C1.48 66.12, -0.05 44.03, 0 30 M0 30 C-2.17 13.52, 11.93 2.05, 30 0 M0 30 C-4.2 7.23, 9.87 4.19, 30 0" stroke="#1e1e1e" stroke-width="1" fill="none"></path></g><g transform="translate(246.990234375 609.3000000000002) rotate(0 23.009765625 20.699999999999818)"><text x="23.009765625" y="0" font-family="Helvetica, Segoe UI Emoji" font-size="36px" fill="#1e1e1e" text-anchor="middle" style="white-space: pre;" direction="ltr" dominant-baseline="text-before-edge">R4</text></g><g stroke-linecap="round" transform="translate(190 690) rotate(0 80 60)"><path d="M29.23 1.32 L130.17 0.3 L143.18 5.23 L153.63 10.15 L155.17 14.88 L159.76 30 L157.88 94.17 L154.47 111.42 L141.78 121.16 L128.24 118.42 L29.22 116.43 L16.49 120.07 L11.36 108.99 L2.15 94.41 L-0.57 23.78 L4.11 8.54 L14.34 -0.68 L31.13 -2.31" stroke="none" stroke-width="0" fill="#fff"></path><path d="M30 0 M30 0 C67.72 -0.99, 104.34 -1.62, 130 0 M30 0 C59.87 0.8, 84.89 -2.5, 130 0 M130 0 C147.26 0.65, 161.46 11.15, 160 30 M130 0 C150.32 -3.53, 164.27 6.48, 160 30 M160 30 C161.55 43.82, 157.48 60.11, 160 90 M160 30 C160.42 44.8, 161.39 60.56, 160 90 M160 90 C161.63 110.03, 149.37 122.25, 130 120 M160 90 C156.29 109.73, 152.41 116.52, 130 120 M130 120 C107.6 122.64, 77.07 119.61, 30 120 M130 120 C96.23 119.22, 63.86 117.52, 30 120 M30 120 C11.91 120.68, 3.21 111.19, 0 90 M30 120 C7.11 121.53, -1.01 108.91, 0 90 M0 90 C3.1 73.87, -1.9 47.18, 0 30 M0 90 C1.71 69.81, 1.45 44.49, 0 30 M0 30 C1.77 6.55, 6.6 -3.81, 30 0 M0 30 C0.66 14.01, 7.81 -4.54, 30 0" stroke="#1e1e1e" stroke-width="1" fill="none"></path></g><g transform="translate(254.9970703125 729.3000000000002) rotate(0 15.0029296875 20.699999999999818)"><text x="15.0029296875" y="0" font-family="Helvetica, Segoe UI Emoji" font-size="36px" fill="#1e1e1e" text-anchor="middle" style="white-space: pre;" direction="ltr" dominant-baseline="text-before-edge">...</text></g><g stroke-linecap="round"><g transform="translate(350 270) rotate(0 200.49052366536125 -18.092149354033154)"><path d="M1.3 -1.29 C68.39 -8.24, 335.91 -33.48, 402.41 -40.37 M-1.43 4.19 C65.51 -2.44, 334.8 -29.42, 401.48 -36.94" stroke="#1e1e1e" stroke-width="1" fill="none"></path></g><g transform="translate(350 270) rotate(0 200.49052366536125 -18.092149354033154)"><path d="M372.69 -20.33 C381.87 -27.49, 386.64 -30.37, 404.62 -34.13 M374.04 -25.27 C385.48 -27.74, 394.62 -35.42, 400.51 -38.47" stroke="#1e1e1e" stroke-width="1" fill="none"></path></g><g transform="translate(350 270) rotate(0 200.49052366536125 -18.092149354033154)"><path d="M370.53 -40.74 C380.55 -41.86, 385.96 -38.68, 404.62 -34.13 M371.89 -45.68 C384.02 -40.91, 393.92 -41.34, 400.51 -38.47" stroke="#1e1e1e" stroke-width="1" fill="none"></path></g></g><mask></mask><g stroke-linecap="round"><g transform="translate(350 390) rotate(0 201.05441145103396 -11.224847125820816)"><path d="M-1.42 0.06 C65.35 -2.7, 331.52 -14.58, 398.14 -18.38 M3 -2.38 C70.9 -5.78, 336.67 -19.38, 403.53 -22.51" stroke="#1e1e1e" stroke-width="1" fill="none"></path></g><g transform="translate(350 390) rotate(0 201.05441145103396 -11.224847125820816)"><path d="M375.96 -13.53 C384.18 -15.49, 383.76 -14.61, 406.62 -22.73 M374.92 -10.14 C386.89 -15.48, 395.29 -21.32, 403.89 -22.04" stroke="#1e1e1e" stroke-width="1" fill="none"></path></g><g transform="translate(350 390) rotate(0 201.05441145103396 -11.224847125820816)"><path d="M374.95 -34.03 C383.11 -31.66, 382.91 -26.46, 406.62 -22.73 M373.91 -30.63 C386.61 -28.81, 395.37 -27.46, 403.89 -22.04" stroke="#1e1e1e" stroke-width="1" fill="none"></path></g></g><mask></mask><g stroke-linecap="round"><g transform="translate(350 510) rotate(0 199.91097161147763 9.070657627247328)"><path d="M2.25 -0.69 C68.77 2.75, 333.41 18.58, 399.79 21.67 M0.03 -3.53 C66.1 -1, 330.94 13.68, 397.45 17.56" stroke="#1e1e1e" stroke-width="1" fill="none"></path></g><g transform="translate(350 510) rotate(0 199.91097161147763 9.070657627247328)"><path d="M367.74 25.93 C380.33 23.74, 384.12 21.98, 396.16 15.94 M368.59 27.13 C377.01 21.83, 388.18 20.88, 398.66 17.57" stroke="#1e1e1e" stroke-width="1" fill="none"></path></g><g transform="translate(350 510) rotate(0 199.91097161147763 9.070657627247328)"><path d="M368.9 5.44 C381.27 9.89, 384.69 14.76, 396.16 15.94 M369.74 6.64 C377.49 8.42, 388.26 14.54, 398.66 17.57" stroke="#1e1e1e" stroke-width="1" fill="none"></path></g></g><mask></mask><g stroke-linecap="round"><g transform="translate(350 630) rotate(0 198.9595359977336 9.5963937079905)"><path d="M-2.25 -1.06 C64.59 1.99, 333.5 16.27, 400.17 19.79 M1.72 -4.11 C68.28 -0.73, 331.08 18.76, 398.03 23.3" stroke="#1e1e1e" stroke-width="1" fill="none"></path></g><g transform="translate(350 630) rotate(0 198.9595359977336 9.5963937079905)"><path d="M367.66 31.78 C376.55 26.62, 384.65 27.09, 395.61 20.74 M367.95 29.64 C379.14 26.51, 389.7 24.44, 396.3 22.56" stroke="#1e1e1e" stroke-width="1" fill="none"></path></g><g transform="translate(350 630) rotate(0 198.9595359977336 9.5963937079905)"><path d="M369.12 11.31 C377.83 11.63, 385.54 17.61, 395.61 20.74 M369.41 9.17 C379.98 12.85, 390.06 17.57, 396.3 22.56" stroke="#1e1e1e" stroke-width="1" fill="none"></path></g></g><mask></mask><g stroke-linecap="round"><g transform="translate(350 730) rotate(0 199.54277146551772 29.49596132960187)"><path d="M0.19 -1.75 C67.2 8.15, 335.58 48.19, 402.23 58.13 M-3.14 3.48 C63.68 13.8, 334.29 51.35, 401.2 60.74" stroke="#1e1e1e" stroke-width="1" fill="none"></path></g><g transform="translate(350 730) rotate(0 199.54277146551772 29.49596132960187)"><path d="M369.37 70.19 C378.23 65.15, 386.84 61.71, 402.41 62.43 M373.06 67.82 C385.11 62.11, 392.46 63.22, 402.44 61.32" stroke="#1e1e1e" stroke-width="1" fill="none"></path></g><g transform="translate(350 730) rotate(0 199.54277146551772 29.49596132960187)"><path d="M372.21 49.86 C380.02 51.06, 387.76 53.84, 402.41 62.43 M375.9 47.5 C386.77 49.65, 393.03 58.56, 402.44 61.32" stroke="#1e1e1e" stroke-width="1" fill="none"></path></g></g><mask></mask><g transform="translate(70 130) rotate(0 184.11328125 20.699999999999818)"><text x="184.11328125" y="0" font-family="Helvetica, Segoe UI Emoji" font-size="36px" fill="#1e1e1e" text-anchor="middle" style="white-space: pre;" direction="ltr" dominant-baseline="text-before-edge">Partition / Queue Index</text></g></svg>