<svg version="1.1" xmlns="http://www.w3.org/2000/svg" viewBox="0 0 1600 960" width="1600" height="960">
  <!-- svg-source:excalidraw -->
  
  <defs>
    <style class="style-fonts">
      @font-face {
        font-family: "Virgil";
        src: url("https://excalidraw.com/Virgil.woff2");
      }
      @font-face {
        font-family: "Cascadia";
        src: url("https://excalidraw.com/Cascadia.woff2");
      }
    </style>
    
  </defs>
  <rect x="0" y="0" width="1600" height="960" fill="#ffffff"></rect><g stroke-linecap="round" transform="translate(10 10) rotate(0 790 470)"><path d="M34.6 -3.64 L1544.59 -2.27 L1570.35 4.81 L1575.51 13.11 L1583.05 31.05 L1583.71 909.66 L1578.3 929.16 L1566.16 932.59 L1551.48 936.43 L31.68 936.25 L8.79 938.31 L3.36 923.71 L-1.73 911.48 L-1.86 29.22 L2.23 14.25 L4.26 7.71 L20.82 0.17 L33.76 -0.7" stroke="none" stroke-width="0" fill="#fff"></path><path d="M32 0 M32 0 C355.62 -2.5, 677.19 -0.65, 1548 0 M32 0 C493.93 -1.91, 957.34 -3.17, 1548 0 M1548 0 C1565.35 0.68, 1578.67 6.68, 1580 32 M1548 0 C1572.34 3.65, 1580.08 7.09, 1580 32 M1580 32 C1573.51 317.32, 1573.34 600.28, 1580 908 M1580 32 C1578.97 249.9, 1578.75 466.7, 1580 908 M1580 908 C1577.03 930.83, 1573.05 943.74, 1548 940 M1580 908 C1583.93 928.74, 1569.44 939.01, 1548 940 M1548 940 C1109.67 932.44, 671.66 932.01, 32 940 M1548 940 C1205.02 949.47, 860.08 949.71, 32 940 M32 940 C9.01 942.18, 0.63 931.48, 0 908 M32 940 C10.37 936.56, 0.86 931.07, 0 908 M0 908 C-5.7 674.61, -3.63 440.74, 0 32 M0 908 C-7.3 557.47, -6.8 208.33, 0 32 M0 32 C2.59 12.64, 11.25 -2.12, 32 0 M0 32 C2.76 6.88, 10.22 -2.17, 32 0" stroke="#1e1e1e" stroke-width="4" fill="none"></path></g><g stroke-linecap="round" transform="translate(810 90) rotate(0 210 380)"><path d="M32.29 1.02 L385.96 -0.67 L403.04 4.92 L416.83 9.46 L417.25 28.35 L418.2 727.31 L418.95 742.99 L409.5 758.63 L385.97 763.66 L29.96 758.35 L17.94 760.39 L7.63 743.59 L0.33 730.41 L-1.63 32.67 L4.41 14.11 L4.36 5.57 L17.25 1.09 L29.59 -2.5" stroke="none" stroke-width="0" fill="#ced4da"></path><path d="M32 0 M32 0 C154.57 -1, 278.77 -3.47, 388 0 M388 0 C408.4 -3.64, 423.38 9.41, 420 32 M420 32 C419.88 242.17, 418.13 451.02, 420 728 M420 728 C420.19 752.77, 408.62 758.41, 388 760 M388 760 C313.43 759.23, 233.15 758.62, 32 760 M32 760 C10.21 760.49, 3.46 752.17, 0 728 M0 728 C3.63 494.38, 1.8 258.48, 0 32 M0 32 C-1.47 8.27, 11 -3.85, 32 0" stroke="#868e96" stroke-width="4.5" fill="none" stroke-dasharray="8 12"></path></g><g stroke-linecap="round" transform="translate(50 350) rotate(0 190 110)"><path d="M293.81 18.35 C310.87 23.03, 325.46 33.97, 337.6 43.13 C349.74 52.28, 359.7 62.79, 366.63 73.28 C373.56 83.77, 378.3 94.95, 379.19 106.08 C380.09 117.2, 377.01 129.14, 372 140.04 C366.99 150.93, 359.67 161.98, 349.13 171.45 C338.59 180.92, 324.33 189.84, 308.77 196.86 C293.21 203.89, 273.88 210.05, 255.77 213.6 C237.67 217.15, 219.21 218, 200.12 218.17 C181.02 218.35, 160.2 217.53, 141.2 214.64 C122.19 211.75, 102.66 207.19, 86.09 200.85 C69.53 194.51, 53.89 185.13, 41.8 176.61 C29.72 168.09, 20.33 159.83, 13.56 149.71 C6.79 139.6, 2.51 127.4, 1.2 115.92 C-0.11 104.45, 0.93 92.21, 5.71 80.87 C10.5 69.54, 18.64 57.39, 29.92 47.91 C41.19 38.43, 58.12 30.72, 73.36 23.98 C88.6 17.25, 103.56 11.79, 121.37 7.51 C139.18 3.24, 160.03 -1.37, 180.21 -1.67 C200.39 -1.96, 220.24 0.96, 242.45 5.73 C264.66 10.5, 299.44 21.61, 313.47 26.96 C327.51 32.31, 328.96 36.21, 326.64 37.84 M255.54 7.13 C273.85 8.75, 290.89 16.33, 306.48 22.67 C322.06 29.01, 338.22 36.17, 349.05 45.19 C359.87 54.21, 366.52 65.24, 371.44 76.79 C376.35 88.35, 379.03 102.51, 378.52 114.54 C378 126.57, 374.51 138.45, 368.36 148.96 C362.21 159.47, 353.73 169.5, 341.61 177.61 C329.49 185.71, 311.64 191.67, 295.64 197.58 C279.63 203.49, 263.48 209.03, 245.57 213.06 C227.66 217.09, 207.67 221.22, 188.16 221.74 C168.66 222.26, 147.58 219.79, 128.56 216.18 C109.53 212.57, 89.33 207.54, 74 200.1 C58.67 192.65, 47.41 181.72, 36.57 171.5 C25.73 161.28, 15.49 149.08, 8.96 138.76 C2.42 128.45, -2.74 120.9, -2.67 109.61 C-2.59 98.31, 2.37 81.92, 9.42 71.01 C16.47 60.09, 27.62 52.26, 39.65 44.11 C51.68 35.96, 65.28 28.26, 81.58 22.1 C97.89 15.94, 118.58 10.44, 137.45 7.16 C156.33 3.88, 175.34 2.44, 194.85 2.42 C214.35 2.41, 244.72 6.43, 254.5 7.09 C264.28 7.74, 255.35 4.36, 253.54 6.34" stroke="none" stroke-width="0" fill="#b2f2bb"></path><path d="M250.26 5.14 C269.01 7.32, 288.19 15.56, 304.19 22.71 C320.19 29.85, 334.74 38.98, 346.27 48.02 C357.79 57.06, 367.41 66.45, 373.33 76.95 C379.25 87.46, 382.56 99.54, 381.8 111.03 C381.03 122.53, 375.24 134.77, 368.74 145.91 C362.24 157.05, 354.78 168.8, 342.8 177.87 C330.81 186.95, 312.87 194.26, 296.83 200.35 C280.79 206.44, 264.87 210.95, 246.53 214.42 C228.19 217.89, 206.87 221.56, 186.78 221.18 C166.69 220.81, 144.73 216.11, 125.97 212.14 C107.22 208.18, 89.62 204.12, 74.25 197.39 C58.89 190.66, 44.98 180.86, 33.77 171.78 C22.56 162.69, 12.76 153.35, 6.98 142.91 C1.2 132.46, -1.51 120.38, -0.91 109.12 C-0.31 97.86, 3.77 86.37, 10.58 75.37 C17.4 64.36, 28.29 52.63, 39.98 43.07 C51.68 33.51, 64.68 24.49, 80.75 18 C96.81 11.51, 117.56 7.19, 136.36 4.14 C155.17 1.09, 162.56 -4.84, 193.56 -0.32 C224.57 4.2, 294 19.8, 322.4 31.26 C350.79 42.71, 366.19 67.22, 363.91 68.4 M331.16 38.3 C345.44 45.83, 355.28 59.31, 363.6 69.25 C371.92 79.19, 379 87.01, 381.07 97.92 C383.15 108.83, 380.74 122.77, 376.06 134.7 C371.37 146.63, 362.91 159.57, 352.96 169.51 C343.02 179.45, 331.52 187.47, 316.38 194.35 C301.25 201.24, 280.33 206.12, 262.14 210.83 C243.94 215.53, 226.8 221.27, 207.2 222.6 C187.59 223.92, 163.92 222.18, 144.48 218.8 C125.05 215.42, 106.92 208.96, 90.59 202.33 C74.26 195.71, 59.05 187.8, 46.51 179.05 C33.98 170.31, 23.24 160.08, 15.37 149.86 C7.5 139.64, 0.96 128.43, -0.71 117.72 C-2.38 107, 1.1 96.65, 5.35 85.58 C9.59 74.52, 15.12 60.65, 24.76 51.32 C34.39 41.98, 48.26 36.33, 63.16 29.55 C78.05 22.77, 96.01 15.46, 114.11 10.62 C132.22 5.78, 151.69 1.63, 171.79 0.53 C191.88 -0.58, 215.23 1.31, 234.68 3.98 C254.12 6.65, 271.93 10.9, 288.47 16.54 C305 22.19, 327.08 33.58, 333.87 37.86 C340.66 42.14, 331.96 40.95, 329.2 42.22" stroke="#2f9e44" stroke-width="4" fill="none"></path></g><g transform="translate(186.14971157455602 438.618254069479) rotate(0 54 21.600000000000364)"><text x="54" y="0" font-family="Cascadia, Segoe UI Emoji" font-size="36px" fill="#1e1e1e" text-anchor="middle" style="white-space: pre;" direction="ltr" dominant-baseline="text-before-edge">生产者</text></g><g stroke-linecap="round" transform="translate(890 210) rotate(0 130 40)"><path d="M18.2 -0.69 L249.7 2.24 L257 8.13 L257.65 18.97 L256.71 67.1 L252.13 79.58 L243.13 76.09 L11.58 81.16 L3.37 75.67 L2.72 60.8 L-3.33 12.89 L2.06 6.9 L5.4 0.31 L21.75 -1.89" stroke="none" stroke-width="0" fill="#a5d8ff"></path><path d="M20 0 M20 0 C101.66 -3.57, 177.04 -5.64, 240 0 M20 0 C104.29 1.33, 190.05 1.11, 240 0 M240 0 C250.98 1.88, 260.19 10.1, 260 20 M240 0 C252.51 -1.82, 256.05 7.04, 260 20 M260 20 C256.79 31.4, 260.07 40.51, 260 60 M260 20 C259.48 35.1, 261.34 52.92, 260 60 M260 60 C256.97 75.58, 251.86 77.6, 240 80 M260 60 C260.38 68.9, 254.05 75.64, 240 80 M240 80 C184.92 77.4, 126.35 77.47, 20 80 M240 80 C152.48 82.61, 68.29 83.16, 20 80 M20 80 C6.89 80.9, 0.18 73.06, 0 60 M20 80 C4.12 84.17, -3.12 73.73, 0 60 M0 60 C-0.11 45.41, -1.31 29.21, 0 20 M0 60 C1.22 49.36, 0.3 38.83, 0 20 M0 20 C1.47 7.87, 8.29 0.73, 20 0 M0 20 C1.92 4.55, 8.04 3.83, 20 0" stroke="#228be6" stroke-width="4" fill="none"></path></g><g transform="translate(970.78125 233.20000000000073) rotate(0 49.21875 16.800000000000182)"><text x="49.21875" y="0" font-family="Cascadia, Segoe UI Emoji" font-size="28px" fill="#228be6" text-anchor="middle" style="white-space: pre;" direction="ltr" dominant-baseline="text-before-edge">Broker</text></g><g stroke-linecap="round" transform="translate(890 370) rotate(0 130 40)"><path d="M22 3.13 L246.72 4.91 L252.96 3.35 L259.63 17.71 L261.88 64.84 L252.52 79.6 L238.37 80.67 L13.66 74.86 L1.36 72.57 L-0.44 63.77 L-2.1 12.81 L4.56 5.93 L10.16 3.12 L22.62 3.16" stroke="none" stroke-width="0" fill="#a5d8ff"></path><path d="M20 0 M20 0 C82.11 2.38, 138.38 2.88, 240 0 M20 0 C102.09 -1.66, 186.3 -0.99, 240 0 M240 0 C252.62 -1.59, 256.57 6.99, 260 20 M240 0 C251.04 3, 262.69 2.38, 260 20 M260 20 C263.37 36.22, 261.43 44.62, 260 60 M260 20 C258.79 32.39, 259.57 41.34, 260 60 M260 60 C260.33 69.48, 253.96 76.21, 240 80 M260 60 C257.87 70.92, 253.89 80.95, 240 80 M240 80 C196.61 74.26, 149.13 74.2, 20 80 M240 80 C173.11 81.78, 106.11 81.27, 20 80 M20 80 C4.46 83.63, -2.72 73.68, 0 60 M20 80 C10.72 76.93, 2.69 72.59, 0 60 M0 60 C-1.61 50.42, -2.19 37.92, 0 20 M0 60 C0.35 49.84, 0.43 38.85, 0 20 M0 20 C1.67 4.83, 7.86 3.33, 20 0 M0 20 C-3.95 10.84, 3.48 1.9, 20 0" stroke="#228be6" stroke-width="4" fill="none"></path></g><g transform="translate(970.78125 393.2000000000007) rotate(0 49.21875 16.800000000000182)"><text x="49.21875" y="0" font-family="Cascadia, Segoe UI Emoji" font-size="28px" fill="#228be6" text-anchor="middle" style="white-space: pre;" direction="ltr" dominant-baseline="text-before-edge">Broker</text></g><g stroke-linecap="round" transform="translate(890 530) rotate(0 130 40)"><path d="M17.96 -1.65 L248.69 3.64 L258.13 1.09 L260.02 17.72 L257.12 69.42 L254.6 73.3 L236.36 77.57 L10.5 77.84 L2.59 72.5 L2.06 62.8 L2.66 15.62 L5.43 10.97 L6.57 1.88 L16.36 3.38" stroke="none" stroke-width="0" fill="#a5d8ff"></path><path d="M20 0 M20 0 C81.79 2.41, 140.44 -1.4, 240 0 M20 0 C96.05 -3.96, 171.23 -3.13, 240 0 M240 0 C251.34 2.6, 262.34 2.94, 260 20 M240 0 C254.93 -0.52, 260.57 10.65, 260 20 M260 20 C259.57 36.37, 264.29 46.64, 260 60 M260 20 C259.87 32.32, 260.02 46.6, 260 60 M260 60 C258.15 71.24, 253.82 80.83, 240 80 M260 60 C255.94 70.62, 249.37 84.24, 240 80 M240 80 C189.75 78.89, 140.45 77.43, 20 80 M240 80 C168.09 81.32, 96.92 79.89, 20 80 M20 80 C10.19 77.33, 2.34 72.69, 0 60 M20 80 C7.74 77.88, 0.29 71.05, 0 60 M0 60 C-0.73 46.58, -1.76 30.75, 0 20 M0 60 C0.51 45.88, 0.27 35.26, 0 20 M0 20 C-3.44 10.3, 3.9 1.65, 20 0 M0 20 C-2.14 7.58, 2.2 3.39, 20 0" stroke="#228be6" stroke-width="4" fill="none"></path></g><g transform="translate(970.78125 553.2000000000007) rotate(0 49.21875 16.800000000000182)"><text x="49.21875" y="0" font-family="Cascadia, Segoe UI Emoji" font-size="28px" fill="#228be6" text-anchor="middle" style="white-space: pre;" direction="ltr" dominant-baseline="text-before-edge">Broker</text></g><g stroke-linecap="round" transform="translate(890 690) rotate(0 130 40)"><path d="M23.13 -3.91 L249.08 3.66 L253.37 5.67 L262.1 11.42 L255.11 66.32 L251.44 76.27 L237.59 77.5 L13 76.86 L7.35 75.31 L2.93 67.85 L-0.93 14.38 L-0.82 11.19 L6.56 2.83 L19.33 3.11" stroke="none" stroke-width="0" fill="#a5d8ff"></path><path d="M20 0 M20 0 C98.84 2.4, 177.38 1.62, 240 0 M20 0 C76.41 0.82, 135.57 -1.92, 240 0 M240 0 C254.72 -0.45, 260.49 10.13, 260 20 M240 0 C256.59 1.75, 257.51 5.83, 260 20 M260 20 C263.05 32.06, 258.4 47.41, 260 60 M260 20 C259.2 27.1, 260.37 36.71, 260 60 M260 60 C256.47 70.97, 249.89 83.69, 240 80 M260 60 C256.74 76.39, 250 80.21, 240 80 M240 80 C164.3 80.36, 86.8 78.29, 20 80 M240 80 C155.57 79.17, 69.1 80.05, 20 80 M20 80 C7.6 78.15, 0.26 71.35, 0 60 M20 80 C10.53 77.06, 4.35 71.91, 0 60 M0 60 C1.66 47.69, 1.18 33.79, 0 20 M0 60 C-1.96 51.65, -1.62 40.5, 0 20 M0 20 C-1.86 7.46, 2.78 2.94, 20 0 M0 20 C2.53 9, 9.04 -2.66, 20 0" stroke="#228be6" stroke-width="4" fill="none"></path></g><g transform="translate(970.78125 713.2000000000007) rotate(0 49.21875 16.800000000000182)"><text x="49.21875" y="0" font-family="Cascadia, Segoe UI Emoji" font-size="28px" fill="#228be6" text-anchor="middle" style="white-space: pre;" direction="ltr" dominant-baseline="text-before-edge">Broker</text></g><g mask="url(#mask-DebarWfNv4C8dhKIlOdsC)" stroke-linecap="round"><g transform="translate(354.57764720404793 548.8097412917741) rotate(0 225.11106988875667 103.85968171203604)"><path d="M1.69 -2.72 C76.63 32.27, 373.72 174.74, 448.54 210.44" stroke="#1e1e1e" stroke-width="4.5" fill="none" stroke-dasharray="8 12"></path></g><g transform="translate(354.57764720404793 548.8097412917741) rotate(0 225.11106988875667 103.85968171203604)"><path d="M414.79 203.89 C424 207.18, 433.25 206.27, 446.03 212.19" stroke="#1e1e1e" stroke-width="4.5" fill="none"></path></g><g transform="translate(354.57764720404793 548.8097412917741) rotate(0 225.11106988875667 103.85968171203604)"><path d="M423.64 185.38 C430.62 193.57, 437.58 197.46, 446.03 212.19" stroke="#1e1e1e" stroke-width="4.5" fill="none"></path></g></g><mask id="mask-DebarWfNv4C8dhKIlOdsC"><rect x="0" y="0" fill="#fff" width="905.6618453625524" height="860.9492135430501"></rect><rect x="537.9322462833002" y="633.2794774174126" fill="#000" width="84.375" height="43.199999999999996" opacity="1"></rect></mask><g transform="translate(537.9322462833002 633.2794774174126) rotate(0 41.756470809504435 19.389945586397516)"><text x="42.1875" y="0" font-family="Cascadia, Segoe UI Emoji" font-size="36px" fill="#1e1e1e" text-anchor="middle" style="white-space: pre;" direction="ltr" dominant-baseline="text-before-edge">send</text></g><g mask="url(#mask-0p8gHtcHJGDVfkNml-9t2)" stroke-linecap="round"><g transform="translate(411.48115186418363 508.8831764404349) rotate(0 198.1522997970369 39.36273255214746)"><path d="M-0.53 -0.64 C66.04 12.87, 330.12 65.96, 396.83 79.37" stroke="#1e1e1e" stroke-width="4.5" fill="none" stroke-dasharray="8 12"></path></g><g transform="translate(411.48115186418363 508.8831764404349) rotate(0 198.1522997970369 39.36273255214746)"><path d="M366.26 81.46 C370.92 84.79, 377.74 84.45, 397.14 81.98" stroke="#1e1e1e" stroke-width="4.5" fill="none"></path></g><g transform="translate(411.48115186418363 508.8831764404349) rotate(0 198.1522997970369 39.36273255214746)"><path d="M370.3 61.34 C373.88 68.86, 379.85 72.72, 397.14 81.98" stroke="#1e1e1e" stroke-width="4.5" fill="none"></path></g></g><mask id="mask-0p8gHtcHJGDVfkNml-9t2"><rect x="0" y="0" fill="#fff" width="910" height="690"></rect><rect x="568.5530759320918" y="527.8415882202171" fill="#000" width="84.375" height="43.199999999999996" opacity="1"></rect></mask><g transform="translate(568.5530759320918 527.8415882202171) rotate(0 41.08037572912872 20.40432077236528)"><text x="42.1875" y="0" font-family="Cascadia, Segoe UI Emoji" font-size="36px" fill="#1e1e1e" text-anchor="middle" style="white-space: pre;" direction="ltr" dominant-baseline="text-before-edge">send</text></g><g mask="url(#mask-GdFlUc6GDM8KtVM4_buKY)" stroke-linecap="round"><g transform="translate(432.8882181753452 459.01418468952033) rotate(0 179.99082799418602 -39.309357558146075)"><path d="M1.22 -1.32 C61.3 -13.91, 299.14 -64.97, 358.76 -77.3" stroke="#1e1e1e" stroke-width="4.5" fill="none" stroke-dasharray="8 12"></path></g><g transform="translate(432.8882181753452 459.01418468952033) rotate(0 179.99082799418602 -39.309357558146075)"><path d="M331.41 -59.08 C339.91 -62.84, 348.86 -70.5, 357.82 -80.93" stroke="#1e1e1e" stroke-width="4.5" fill="none"></path></g><g transform="translate(432.8882181753452 459.01418468952033) rotate(0 179.99082799418602 -39.309357558146075)"><path d="M327.17 -79.16 C336.43 -78.15, 346.4 -80.99, 357.82 -80.93" stroke="#1e1e1e" stroke-width="4.5" fill="none"></path></g></g><mask id="mask-GdFlUc6GDM8KtVM4_buKY"><rect x="0" y="0" fill="#fff" width="890" height="636.528656590639"></rect><rect x="569.2566090876726" y="398.65694873896064" fill="#000" width="84.375" height="43.199999999999996" opacity="1"></rect></mask><g transform="translate(569.2566090876726 398.65694873896064) rotate(0 43.62243708185861 21.047878392413622)"><text x="42.1875" y="0" font-family="Cascadia, Segoe UI Emoji" font-size="36px" fill="#1e1e1e" text-anchor="middle" style="white-space: pre;" direction="ltr" dominant-baseline="text-before-edge">send</text></g><g mask="url(#mask-Bnu64g3JcOVo0gxec3EXZ)" stroke-linecap="round"><g transform="translate(410.3397478001266 408.3227709429266) rotate(0 199.8117067488804 -75.3534275901402)"><path d="M1.83 2.21 C67.86 -23.31, 332.08 -127.57, 397.79 -152.92" stroke="#1e1e1e" stroke-width="4.5" fill="none" stroke-dasharray="8 12"></path></g><g transform="translate(410.3397478001266 408.3227709429266) rotate(0 199.8117067488804 -75.3534275901402)"><path d="M378.43 -134.34 C382.39 -144.14, 394.78 -148.87, 397.81 -153.59" stroke="#1e1e1e" stroke-width="4.5" fill="none"></path></g><g transform="translate(410.3397478001266 408.3227709429266) rotate(0 199.8117067488804 -75.3534275901402)"><path d="M370.96 -153.46 C377.63 -156.5, 392.7 -154.37, 397.81 -153.59" stroke="#1e1e1e" stroke-width="4.5" fill="none"></path></g></g><mask id="mask-Bnu64g3JcOVo0gxec3EXZ"><rect x="0" y="0" fill="#fff" width="909" height="660.5886364537946"></rect><rect x="567.4823739000631" y="310.5898381874922" fill="#000" width="84.375" height="43.199999999999996" opacity="1"></rect></mask><g transform="translate(567.4823739000631 310.5898381874922) rotate(0 42.66908064894392 22.379505165294177)"><text x="42.1875" y="0" font-family="Cascadia, Segoe UI Emoji" font-size="36px" fill="#1e1e1e" text-anchor="middle" style="white-space: pre;" direction="ltr" dominant-baseline="text-before-edge">send</text></g><g transform="translate(930 130) rotate(0 73.828125 21.600000000000364)"><text x="0" y="0" font-family="Cascadia, Segoe UI Emoji" font-size="36px" fill="#1e1e1e" text-anchor="start" style="white-space: pre;" direction="ltr" dominant-baseline="text-before-edge">Cluster</text></g><g mask="url(#mask-7TUw6hd_6e-7uOfX3alT4)" stroke-linecap="round"><g transform="translate(1227.5147250015289 752.0905487995587) rotate(0 151.14927384758312 -260.7977645965284)"><path d="M2.49 -2.09 C52.78 -46.1, 301.9 -175.6, 301.6 -261.84 C301.31 -348.08, 50.42 -476.19, 0.69 -519.5" stroke="#1e1e1e" stroke-width="4.5" fill="none" stroke-dasharray="8 12"></path></g><g transform="translate(1227.5147250015289 752.0905487995587) rotate(0 151.14927384758312 -260.7977645965284)"><path d="M26.82 -513.54 C21.48 -516.45, 16.24 -514.91, 1.19 -522.58" stroke="#1e1e1e" stroke-width="4.5" fill="none"></path></g><g transform="translate(1227.5147250015289 752.0905487995587) rotate(0 151.14927384758312 -260.7977645965284)"><path d="M15.37 -496.51 C13.13 -504.64, 11.27 -508.12, 1.19 -522.58" stroke="#1e1e1e" stroke-width="4.5" fill="none"></path></g></g><mask id="mask-7TUw6hd_6e-7uOfX3alT4"><rect x="0" y="0" fill="#fff" width="1630" height="1374.1810975991175"></rect><rect x="1494" y="468.39999999999964" fill="#000" width="72" height="43.199999999999996" opacity="1"></rect></mask><g transform="translate(1494 468.39999999999964) rotate(0 -115.33600115088802 22.892784203030715)"><text x="36" y="0" font-family="Cascadia, Segoe UI Emoji" font-size="36px" fill="#1e1e1e" text-anchor="middle" style="white-space: pre;" direction="ltr" dominant-baseline="text-before-edge">转发</text></g><g mask="url(#mask-B_cOpZeQKhAzLNxOdaMGQ)" stroke-linecap="round"><g transform="translate(1231.4644818168135 752.3200914442532) rotate(0 39.18924844912249 -90.0757067430759)"><path d="M-1.46 2.4 C12.31 -14.86, 79.58 -73.33, 79.84 -104.16 C80.1 -134.98, 13.27 -169.28, 0.08 -182.55" stroke="#1e1e1e" stroke-width="4.5" fill="none" stroke-dasharray="8 12"></path></g><g transform="translate(1231.4644818168135 752.3200914442532) rotate(0 39.18924844912249 -90.0757067430759)"><path d="M32.3 -172.27 C20.52 -173.91, 17.04 -174.74, -2.01 -182.52" stroke="#1e1e1e" stroke-width="4.5" fill="none"></path></g><g transform="translate(1231.4644818168135 752.3200914442532) rotate(0 39.18924844912249 -90.0757067430759)"><path d="M20.16 -155.73 C10.88 -160.56, 9.84 -164.71, -2.01 -182.52" stroke="#1e1e1e" stroke-width="4.5" fill="none"></path></g></g><mask id="mask-B_cOpZeQKhAzLNxOdaMGQ"><rect x="0" y="0" fill="#fff" width="1411.4644818168135" height="1034.6401828885064"></rect><rect x="1274" y="628.3999999999996" fill="#000" width="72" height="43.199999999999996" opacity="1"></rect></mask><g transform="translate(1274 628.3999999999996) rotate(0 -3.3462697340639806 33.84438470117766)"><text x="36" y="0" font-family="Cascadia, Segoe UI Emoji" font-size="36px" fill="#1e1e1e" text-anchor="middle" style="white-space: pre;" direction="ltr" dominant-baseline="text-before-edge">转发</text></g><g mask="url(#mask-6fctXu85RTXGZ1x6R3KwC)" stroke-linecap="round"><g transform="translate(1229.6037381846459 564.1208097580802) rotate(0 39.08693419595761 -67.88336039706974)"><path d="M0.4 -1.65 C13.4 -11.78, 77.47 -37.05, 77.78 -59.13 C78.08 -81.21, 15.31 -121.52, 2.21 -134.12" stroke="#1e1e1e" stroke-width="4.5" fill="none" stroke-dasharray="8 12"></path></g><g transform="translate(1229.6037381846459 564.1208097580802) rotate(0 39.08693419595761 -67.88336039706974)"><path d="M28.32 -128.31 C22.91 -124.73, 17.88 -131.83, 5.22 -136.3" stroke="#1e1e1e" stroke-width="4.5" fill="none"></path></g><g transform="translate(1229.6037381846459 564.1208097580802) rotate(0 39.08693419595761 -67.88336039706974)"><path d="M15.56 -112.23 C13.68 -113.37, 12.36 -125.16, 5.22 -136.3" stroke="#1e1e1e" stroke-width="4.5" fill="none"></path></g></g><mask id="mask-6fctXu85RTXGZ1x6R3KwC"><rect x="0" y="0" fill="#fff" width="1409.9518795389681" height="800.9747134115514"></rect><rect x="1273.9518795389681" y="482.93381220921765" fill="#000" width="72" height="43.199999999999996" opacity="1"></rect></mask><g transform="translate(1273.9518795389681 482.93381220921765) rotate(0 -5.261207158364641 13.303637151792827)"><text x="36" y="0" font-family="Cascadia, Segoe UI Emoji" font-size="36px" fill="#1e1e1e" text-anchor="middle" style="white-space: pre;" direction="ltr" dominant-baseline="text-before-edge">转发</text></g><g mask="url(#mask-kmrL5ToyWQZOawfScZjs-)" stroke-linecap="round"><g transform="translate(1232.3773548204454 425.7166188959018) rotate(0 37.665229164653056 -88.33693592380678)"><path d="M-2.38 -2.09 C11.31 -14.67, 80.61 -47.14, 80.19 -75.89 C79.78 -104.64, 8.72 -157.98, -4.86 -174.58" stroke="#1e1e1e" stroke-width="4.5" fill="none" stroke-dasharray="8 12"></path></g><g transform="translate(1232.3773548204454 425.7166188959018) rotate(0 37.665229164653056 -88.33693592380678)"><path d="M19.61 -158.85 C16.04 -169.33, 11.56 -167.04, -4.55 -172.06" stroke="#1e1e1e" stroke-width="4.5" fill="none"></path></g><g transform="translate(1232.3773548204454 425.7166188959018) rotate(0 37.665229164653056 -88.33693592380678)"><path d="M5.44 -144.01 C5.19 -157.69, 3.99 -158.82, -4.55 -172.06" stroke="#1e1e1e" stroke-width="4.5" fill="none"></path></g></g><mask id="mask-kmrL5ToyWQZOawfScZjs-"><rect x="0" y="0" fill="#fff" width="1412.3773548204454" height="701.4332377918035"></rect><rect x="1274" y="328.39999999999964" fill="#000" width="72" height="43.199999999999996" opacity="1"></rect></mask><g transform="translate(1274 328.39999999999964) rotate(0 -3.9574160149015825 8.979682972095361)"><text x="36" y="0" font-family="Cascadia, Segoe UI Emoji" font-size="36px" fill="#1e1e1e" text-anchor="middle" style="white-space: pre;" direction="ltr" dominant-baseline="text-before-edge">转发</text></g></svg>