<svg version="1.1" xmlns="http://www.w3.org/2000/svg" viewBox="0 0 1840 900" width="1840" height="900">
  <!-- svg-source:excalidraw -->
  
  <defs>
    <style class="style-fonts">
      @font-face {
        font-family: "Virgil";
        src: url("https://excalidraw.com/Virgil.woff2");
      }
      @font-face {
        font-family: "Cascadia";
        src: url("https://excalidraw.com/Cascadia.woff2");
      }
    </style>
    
  </defs>
  <rect x="0" y="0" width="1840" height="900" fill="#ffffff"></rect><g stroke-linecap="round" transform="translate(10 10) rotate(0 910 440)"><path d="M30.68 -3.18 L1787.07 -2.3 L1811.34 7.21 L1814.13 13.33 L1820.75 30.02 L1816.85 849.62 L1812.04 868.19 L1809.49 873.91 L1785.56 880.44 L31.47 879.33 L9.85 878.34 L5.92 864.36 L-3.39 849.24 L-0.84 31.24 L1.25 14.83 L6.16 11.58 L18.36 4.57 L31.13 -1.25" stroke="none" stroke-width="0" fill="#fff"></path><path d="M32 0 M32 0 C479.87 8.32, 930.81 8.06, 1788 0 M32 0 C569.78 0.97, 1106.75 0.56, 1788 0 M1788 0 C1813.21 3.13, 1822.27 11.88, 1820 32 M1788 0 C1805.86 -1.34, 1817.25 13.18, 1820 32 M1820 32 C1827.4 236.83, 1825.46 443.89, 1820 848 M1820 32 C1825.17 258.72, 1824.98 484.74, 1820 848 M1820 848 C1822.36 871.61, 1807.67 881.12, 1788 880 M1820 848 C1822.6 868.62, 1805.51 882.14, 1788 880 M1788 880 C1333.74 894.69, 880.75 892.39, 32 880 M1788 880 C1386.62 883.48, 986.95 883.26, 32 880 M32 880 C10.89 880.84, -1.09 873.23, 0 848 M32 880 C13.73 877.65, -0.47 873.74, 0 848 M0 848 C-0.05 563.62, -2.4 280.51, 0 32 M0 848 C-2.99 587.49, -3.91 328.05, 0 32 M0 32 C-1.53 10.27, 14.33 -1.28, 32 0 M0 32 C-0.69 9.83, 10.63 3.93, 32 0" stroke="#1e1e1e" stroke-width="2" fill="none"></path></g><g stroke-linecap="round" transform="translate(670 70) rotate(0 210 380)"><path d="M34.32 -0.76 L386.01 2.65 L398.83 -1.78 L418.9 13.87 L418.16 34.37 L419.01 726.76 L416.93 739.65 L411.07 757.68 L388.94 763.83 L30.98 762.82 L21.2 758.48 L2.82 751.15 L-2.11 729 L1.89 31.48 L0.38 18.6 L9.13 4.91 L21.23 -1.7 L30.71 2.38" stroke="none" stroke-width="0" fill="#ced4da"></path><path d="M32 0 M32 0 C141.85 5.42, 247.13 3.66, 388 0 M388 0 C407.52 3.36, 421.32 14.49, 420 32 M420 32 C419.02 179.72, 417.65 326.5, 420 728 M420 728 C417.65 751.32, 410.22 757.86, 388 760 M388 760 C252.2 761.84, 111.25 760.96, 32 760 M32 760 C8.27 761.74, -3.54 746.62, 0 728 M0 728 C-2.44 536.79, -1.62 344.54, 0 32 M0 32 C-2.85 11.46, 10.5 -1.42, 32 0" stroke="#868e96" stroke-width="4.5" fill="none" stroke-dasharray="8 12"></path></g><g stroke-linecap="round" transform="translate(750 190) rotate(0 130 40)"><path d="M23.4 1.37 L246.91 3.62 L254.01 3.76 L258.62 12.97 L262.32 70.93 L253.13 81.02 L238.98 82.82 L14.45 79.23 L3.32 78.65 L-1.8 65.69 L2.2 14.79 L1.19 8.42 L8.94 -0.27 L23.23 -3.7" stroke="none" stroke-width="0" fill="#d0bfff"></path><path d="M20 0 M20 0 C77.98 -3.24, 139.68 1.72, 240 0 M20 0 C71.53 2.3, 121.8 0.18, 240 0 M240 0 C252.33 -0.17, 261.03 9.2, 260 20 M240 0 C250.59 3.11, 257.3 8.95, 260 20 M260 20 C255.65 32.56, 262.56 49.22, 260 60 M260 20 C261.28 28.15, 259.05 39.37, 260 60 M260 60 C261.69 73.74, 253.11 82.46, 240 80 M260 60 C262.08 76.01, 250.06 80.91, 240 80 M240 80 C172.14 79.24, 110.96 83.01, 20 80 M240 80 C177.41 83.38, 116.96 83.4, 20 80 M20 80 C4.26 77.92, 0.79 76.92, 0 60 M20 80 C3.59 76.15, -2.76 76.06, 0 60 M0 60 C-1.9 42.79, 4.31 27.42, 0 20 M0 60 C-1.5 52.38, 0.01 40.77, 0 20 M0 20 C0.38 7.41, 10.57 -0.79, 20 0 M0 20 C-3.45 5.5, 6.4 -0.94, 20 0" stroke="#da77f2" stroke-width="4" fill="none"></path></g><g transform="translate(822.578125 213.20000000000073) rotate(0 57.421875 16.800000000000182)"><text x="57.421875" y="0" font-family="Cascadia, Segoe UI Emoji" font-size="28px" fill="#1e1e1e" text-anchor="middle" style="white-space: pre;" direction="ltr" dominant-baseline="text-before-edge">record1</text></g><g stroke-linecap="round" transform="translate(750 330) rotate(0 130 40)"><path d="M19.01 -1.24 L247.68 -1.1 L258.57 7.18 L260.63 19.14 L257.73 71.57 L255.39 77.67 L238.32 83.65 L9.14 79.75 L6.89 74.48 L-1.31 65.29 L1.44 12.23 L6.04 4.11 L6.53 5.2 L20.19 -1.08" stroke="none" stroke-width="0" fill="#d0bfff"></path><path d="M20 0 M20 0 C64.08 -2.58, 111.61 0.82, 240 0 M20 0 C92.81 3.33, 166.94 4.5, 240 0 M240 0 C250.95 2.71, 257.65 8.65, 260 20 M240 0 C254.35 -2.46, 263.99 2.15, 260 20 M260 20 C258.52 33.74, 258.2 45.1, 260 60 M260 20 C260.3 28.66, 259.34 38.14, 260 60 M260 60 C261.81 75.66, 250.49 80.79, 240 80 M260 60 C259.81 71.7, 255.9 76.34, 240 80 M240 80 C191.59 81.29, 146.97 78.08, 20 80 M240 80 C161.49 81.14, 85.41 83.6, 20 80 M20 80 C3.99 76.66, -2.4 75.71, 0 60 M20 80 C9.67 77.83, 1.78 70.71, 0 60 M0 60 C-4.1 53.41, -3.21 39.32, 0 20 M0 60 C-0.04 46.23, 1.72 31.33, 0 20 M0 20 C-3 5.65, 6.43 -0.82, 20 0 M0 20 C0.88 10.31, 5.08 3.36, 20 0" stroke="#da77f2" stroke-width="4" fill="none"></path></g><g transform="translate(822.578125 353.2000000000007) rotate(0 57.421875 16.800000000000182)"><text x="57.421875" y="0" font-family="Cascadia, Segoe UI Emoji" font-size="28px" fill="#1e1e1e" text-anchor="middle" style="white-space: pre;" direction="ltr" dominant-baseline="text-before-edge">record2</text></g><g stroke-linecap="round" transform="translate(750 510) rotate(0 130 40)"><path d="M23.57 2.18 L249.69 5.08 L253.98 7.82 L262.89 15.79 L257.07 72.4 L250.08 78.19 L241.89 79.48 L9.63 79.35 L6.13 71.91 L3.54 60.98 L-0.97 17.7 L3 6.73 L4.28 4.94 L22.19 -2.9" stroke="none" stroke-width="0" fill="#d0bfff"></path><path d="M20 0 M20 0 C84.04 0.11, 142.7 -4.07, 240 0 M20 0 C84 -1.24, 149.06 -1.56, 240 0 M240 0 C254.22 -2.14, 263.47 2.74, 260 20 M240 0 C252.96 3.43, 263.97 4.28, 260 20 M260 20 C255.98 31.35, 258.57 49.81, 260 60 M260 20 C260.86 33.57, 258.53 45.21, 260 60 M260 60 C259.84 71.92, 255.57 76.82, 240 80 M260 60 C256.16 74.88, 254.5 78.99, 240 80 M240 80 C173.72 75.33, 105.68 74.74, 20 80 M240 80 C184.25 81.97, 129.79 84.45, 20 80 M20 80 C9.28 78.11, 1.55 71.06, 0 60 M20 80 C3.68 84.52, -3.86 69.53, 0 60 M0 60 C2.62 46.33, -3.21 30.76, 0 20 M0 60 C-2.28 46.75, -0.9 34.11, 0 20 M0 20 C0.77 9.84, 5.28 2.92, 20 0 M0 20 C-0.41 5.99, 10.7 3.4, 20 0" stroke="#da77f2" stroke-width="4" fill="none"></path></g><g transform="translate(822.578125 533.2000000000007) rotate(0 57.421875 16.800000000000182)"><text x="57.421875" y="0" font-family="Cascadia, Segoe UI Emoji" font-size="28px" fill="#1e1e1e" text-anchor="middle" style="white-space: pre;" direction="ltr" dominant-baseline="text-before-edge">record3</text></g><g stroke-linecap="round" transform="translate(750 670) rotate(0 130 40)"><path d="M18.98 2.82 L251.95 1.73 L253.32 8.65 L257.58 16.32 L260.64 68.23 L250.57 77.79 L241.13 76.91 L14.48 75.05 L3.71 77.38 L0.5 63.6 L-3.22 17.44 L5 4.92 L7.25 1 L23.36 1.32" stroke="none" stroke-width="0" fill="#d0bfff"></path><path d="M20 0 M20 0 C106.86 1.85, 196.22 -1.12, 240 0 M20 0 C101.27 -2.82, 183.29 -3.59, 240 0 M240 0 C253.01 2.98, 263.45 4.59, 260 20 M240 0 C255.71 -2.76, 262 2.59, 260 20 M260 20 C260.22 29.06, 262.27 40.38, 260 60 M260 20 C259.35 33.62, 260.55 47.07, 260 60 M260 60 C256.66 74.68, 254.35 79.12, 240 80 M260 60 C260.44 76.32, 249.51 82.4, 240 80 M240 80 C181.74 78.39, 130.18 75.38, 20 80 M240 80 C193.52 81.44, 145.45 81.28, 20 80 M20 80 C4.07 83.93, -3.35 70.02, 0 60 M20 80 C9.9 77.21, -2.16 75.79, 0 60 M0 60 C1.48 50.76, -0.05 30.71, 0 20 M0 60 C0.43 50.6, -0.65 39.49, 0 20 M0 20 C-0.35 6.08, 10.17 2.96, 20 0 M0 20 C0.91 3.94, 5.15 -2.75, 20 0" stroke="#da77f2" stroke-width="4" fill="none"></path></g><g transform="translate(822.578125 693.2000000000007) rotate(0 57.421875 16.800000000000182)"><text x="57.421875" y="0" font-family="Cascadia, Segoe UI Emoji" font-size="28px" fill="#1e1e1e" text-anchor="middle" style="white-space: pre;" direction="ltr" dominant-baseline="text-before-edge">record4</text></g><g mask="url(#mask-ccNBB4Svwa8OgNhemaQsz)" stroke-linecap="round"><g transform="translate(51.47751023583123 231.248296902515) rotate(0 299.18270846288624 0.5078424084849757)"><path d="M-1.48 0.7 C98.69 0.33, 500.03 0.27, 599.84 0.34" stroke="#1e1e1e" stroke-width="4.5" fill="none" stroke-dasharray="8 12"></path></g><g transform="translate(51.47751023583123 231.248296902515) rotate(0 299.18270846288624 0.5078424084849757)"><path d="M572.66 12.48 C578.22 6.62, 586.62 6.73, 596.76 3.57" stroke="#1e1e1e" stroke-width="4.5" fill="none"></path></g><g transform="translate(51.47751023583123 231.248296902515) rotate(0 299.18270846288624 0.5078424084849757)"><path d="M572.66 -8.04 C578.59 -8.6, 587 -3.2, 596.76 3.57" stroke="#1e1e1e" stroke-width="4.5" fill="none"></path></g></g><mask id="mask-ccNBB4Svwa8OgNhemaQsz"><rect x="0" y="0" fill="#fff" width="750" height="331.95170309748573"></rect><rect x="203.0825051179154" y="210" fill="#000" width="295.3125" height="43.199999999999996" opacity="1"></rect></mask><g transform="translate(203.0825051179154 210) rotate(0 147.57771358080208 21.75613931099997)"><text x="147.65625" y="0" font-family="Cascadia, Segoe UI Emoji" font-size="36px" fill="#1e1e1e" text-anchor="middle" style="white-space: pre;" direction="ltr" dominant-baseline="text-before-edge">produce.send()</text></g><g transform="translate(750 110) rotate(0 126.5625 21.600000000000364)"><text x="0" y="0" font-family="Cascadia, Segoe UI Emoji" font-size="36px" fill="#1e1e1e" text-anchor="start" style="white-space: pre;" direction="ltr" dominant-baseline="text-before-edge">Memory Queue</text></g><g stroke-linecap="round" transform="translate(1470 230) rotate(0 150 60)"><path d="M29.64 -0.61 L266.64 1.44 L280.15 2.11 L292.06 11.31 L302.53 21.51 L298.43 92.74 L295.84 99.42 L290.1 114.08 L267.19 116.68 L26.13 121.79 L18.07 118.19 L5.06 112.16 L-2.17 97.05 L0.6 20.54 L4.61 10.79 L20.55 2.23 L29.67 1.8" stroke="none" stroke-width="0" fill="#ffec99"></path><path d="M30 0 M30 0 C113.56 5.61, 199.23 1.62, 270 0 M30 0 C90.49 0.92, 154.29 2.06, 270 0 M270 0 C286.29 -3.45, 296.94 10.07, 300 30 M270 0 C288.79 4.45, 300.32 10.34, 300 30 M300 30 C300.24 48.93, 297.83 62.59, 300 90 M300 30 C298.39 45.53, 301.52 65.16, 300 90 M300 90 C303.38 106.72, 292.45 120.1, 270 120 M300 90 C300.97 110.35, 290.05 117.26, 270 120 M270 120 C184.07 120.79, 91.56 121.65, 30 120 M270 120 C191.12 120.69, 109.21 121.51, 30 120 M30 120 C13.9 118.22, 0.04 107.57, 0 90 M30 120 C13.25 120.88, -1.63 110.75, 0 90 M0 90 C-2.92 63.66, 2.89 46.81, 0 30 M0 90 C0.8 71.39, 2.57 53.71, 0 30 M0 30 C-0.81 7.75, 11.34 -1.18, 30 0 M0 30 C2.18 10.15, 7.05 -0.36, 30 0" stroke="#f08c00" stroke-width="4" fill="none"></path></g><g transform="translate(1546.171875 268.39999999999964) rotate(0 73.828125 21.600000000000364)"><text x="73.828125" y="0" font-family="Cascadia, Segoe UI Emoji" font-size="36px" fill="#1e1e1e" text-anchor="middle" style="white-space: pre;" direction="ltr" dominant-baseline="text-before-edge">Broker1</text></g><g stroke-linecap="round" transform="translate(1470 550) rotate(0 150 60)"><path d="M31.26 -4 L267.8 -3.59 L286.16 5.74 L292.15 10.18 L296.46 25.84 L303.14 91.78 L300.06 100.82 L284.98 115.24 L272.91 120.15 L26.55 122.65 L19.35 119.41 L10.26 111.97 L1.57 96.35 L3.66 26.21 L8.56 11.13 L18.38 2.32 L32.42 -1.16" stroke="none" stroke-width="0" fill="#ffec99"></path><path d="M30 0 M30 0 C82.4 -1.11, 142.88 -0.13, 270 0 M30 0 C104.41 -3.71, 176.62 -2.17, 270 0 M270 0 C292.97 -0.13, 296.9 12.61, 300 30 M270 0 C290.02 2.21, 301.4 9.31, 300 30 M300 30 C299.55 48.25, 296.22 72.15, 300 90 M300 30 C300.36 50.19, 298.17 68.81, 300 90 M300 90 C298.93 108.15, 293.11 118.54, 270 120 M300 90 C298.78 109.58, 294.21 120.1, 270 120 M270 120 C184.38 122.53, 98.88 127.03, 30 120 M270 120 C192.05 122.69, 113.91 120.82, 30 120 M30 120 C10.91 116.49, -0.68 109.99, 0 90 M30 120 C13.21 119.07, 2.66 112.79, 0 90 M0 90 C1.55 80.4, -4.35 64.02, 0 30 M0 90 C2.39 78.88, 0.41 63.79, 0 30 M0 30 C2.17 13.18, 8.95 -2.95, 30 0 M0 30 C0.31 13.83, 10.29 0.78, 30 0" stroke="#f08c00" stroke-width="4" fill="none"></path></g><g transform="translate(1546.171875 588.3999999999996) rotate(0 73.828125 21.600000000000364)"><text x="73.828125" y="0" font-family="Cascadia, Segoe UI Emoji" font-size="36px" fill="#1e1e1e" text-anchor="middle" style="white-space: pre;" direction="ltr" dominant-baseline="text-before-edge">Broker2</text></g><g mask="url(#mask-LIql7MX_-WNwCQHJT350W)" stroke-linecap="round"><g transform="translate(1091 251.60000058067817) rotate(0 188.06830453462908 2.5376784291711374)"><path d="M0.55 2.35 C63.51 2.55, 313.1 2.8, 375.59 2.71" stroke="#1e1e1e" stroke-width="4.5" fill="none" stroke-dasharray="8 12"></path></g><g transform="translate(1091 251.60000058067817) rotate(0 188.06830453462908 2.5376784291711374)"><path d="M350.75 9.52 C357.42 6.92, 362.41 11.31, 376.03 6.45" stroke="#1e1e1e" stroke-width="4.5" fill="none"></path></g><g transform="translate(1091 251.60000058067817) rotate(0 188.06830453462908 2.5376784291711374)"><path d="M350.75 -11 C357.64 -9.04, 362.62 -0.09, 376.03 6.45" stroke="#1e1e1e" stroke-width="4.5" fill="none"></path></g></g><mask id="mask-LIql7MX_-WNwCQHJT350W"><rect x="0" y="0" fill="#fff" width="1569" height="351.60000174203196"></rect><rect x="1206.171875" y="230.00000000000182" fill="#000" width="147.65625" height="43.199999999999996" opacity="1"></rect></mask><g transform="translate(1206.171875 230.00000000000182) rotate(0 72.89642953462908 24.13767900984749)"><text x="73.828125" y="0" font-family="Cascadia, Segoe UI Emoji" font-size="36px" fill="#1e1e1e" text-anchor="middle" style="white-space: pre;" direction="ltr" dominant-baseline="text-before-edge">request</text></g><g mask="url(#mask-1rkMUnCtMuIy6lH8H0xRW)" stroke-linecap="round"><g transform="translate(1470 331.599999262633) rotate(0 -191.09397254399937 0.8513285975895997)"><path d="M-1.59 0.13 C-65.44 0.46, -317.26 1.17, -380.6 1.57" stroke="#1e1e1e" stroke-width="4.5" fill="none" stroke-dasharray="8 12"></path></g><g transform="translate(1470 331.599999262633) rotate(0 -191.09397254399937 0.8513285975895997)"><path d="M-352.27 -9.67 C-361.22 -7.41, -370.79 -0.7, -378.68 2.56" stroke="#1e1e1e" stroke-width="4.5" fill="none"></path></g><g transform="translate(1470 331.599999262633) rotate(0 -191.09397254399937 0.8513285975895997)"><path d="M-352.18 10.85 C-361.1 5.1, -370.71 3.81, -378.68 2.56" stroke="#1e1e1e" stroke-width="4.5" fill="none"></path></g></g><mask id="mask-1rkMUnCtMuIy6lH8H0xRW"><rect x="0" y="0" fill="#fff" width="1950" height="431.599999262633"></rect><rect x="1195.625" y="309.9999992626326" fill="#000" width="168.75" height="43.199999999999996" opacity="1"></rect></mask><g transform="translate(1195.625 309.9999992626326) rotate(0 83.28102745600063 22.451328597589963)"><text x="84.375" y="0" font-family="Cascadia, Segoe UI Emoji" font-size="36px" fill="#1e1e1e" text-anchor="middle" style="white-space: pre;" direction="ltr" dominant-baseline="text-before-edge">response</text></g><g mask="url(#mask-MTdyQfKw6T0YshrOxQuDS)" stroke-linecap="round"><g transform="translate(1092.6054259616885 571.6000005651877) rotate(0 188.07614691872095 -1.453788352601805)"><path d="M-2.61 -1.72 C60.42 -1.5, 315.72 -1.48, 378.76 -1.19" stroke="#1e1e1e" stroke-width="4.5" fill="none" stroke-dasharray="8 12"></path></g><g transform="translate(1092.6054259616885 571.6000005651877) rotate(0 188.07614691872095 -1.453788352601805)"><path d="M348.09 10.96 C360.4 3.72, 371.24 3.25, 380.8 -3.13" stroke="#1e1e1e" stroke-width="4.5" fill="none"></path></g><g transform="translate(1092.6054259616885 571.6000005651877) rotate(0 188.07614691872095 -1.453788352601805)"><path d="M348.14 -9.56 C360.06 -10.19, 370.89 -4.05, 380.8 -3.13" stroke="#1e1e1e" stroke-width="4.5" fill="none"></path></g></g><mask id="mask-MTdyQfKw6T0YshrOxQuDS"><rect x="0" y="0" fill="#fff" width="1570" height="673.2000011303753"></rect><rect x="1207.4745879808443" y="549.2000002825935" fill="#000" width="147.65625" height="43.199999999999996" opacity="1"></rect></mask><g transform="translate(1207.4745879808443 549.2000002825935) rotate(0 73.20698489956521 20.946211929992387)"><text x="73.828125" y="0" font-family="Cascadia, Segoe UI Emoji" font-size="36px" fill="#1e1e1e" text-anchor="middle" style="white-space: pre;" direction="ltr" dominant-baseline="text-before-edge">request</text></g><g mask="url(#mask-K4FnFKRu3qboB3dW4OS4e)" stroke-linecap="round"><g transform="translate(1470 650) rotate(0 -189.9834664443506 2.332966050252253)"><path d="M-1.77 1.64 C-65.03 2.07, -315.2 2.68, -378.2 3.03" stroke="#1e1e1e" stroke-width="4.5" fill="none" stroke-dasharray="8 12"></path></g><g transform="translate(1470 650) rotate(0 -189.9834664443506 2.332966050252253)"><path d="M-347.71 -7.05 C-357.79 -6.01, -366.63 -3.36, -375.92 5.71" stroke="#1e1e1e" stroke-width="4.5" fill="none"></path></g><g transform="translate(1470 650) rotate(0 -189.9834664443506 2.332966050252253)"><path d="M-347.63 13.47 C-357.8 7.35, -366.66 2.85, -375.92 5.71" stroke="#1e1e1e" stroke-width="4.5" fill="none"></path></g></g><mask id="mask-K4FnFKRu3qboB3dW4OS4e"><rect x="0" y="0" fill="#fff" width="1948.3945740383115" height="751.5999992626312"></rect><rect x="1196.4277129808443" y="629.1999996313152" fill="#000" width="168.75" height="43.199999999999996" opacity="1"></rect></mask><g transform="translate(1196.4277129808443 629.1999996313152) rotate(0 83.58882057480514 23.13296641893703)"><text x="84.375" y="0" font-family="Cascadia, Segoe UI Emoji" font-size="36px" fill="#1e1e1e" text-anchor="middle" style="white-space: pre;" direction="ltr" dominant-baseline="text-before-edge">response</text></g><g transform="translate(1210 90) rotate(0 78.1875 21.600000000000364)"><text x="0" y="0" font-family="Cascadia, Segoe UI Emoji" font-size="36px" fill="#1e1e1e" text-anchor="start" style="white-space: pre;" direction="ltr" dominant-baseline="text-before-edge">TCP 连接</text></g></svg>