<svg version="1.1" xmlns="http://www.w3.org/2000/svg" viewBox="0 0 1120 540" width="1120" height="540">
  <!-- svg-source:excalidraw -->
  
  <defs>
    <style class="style-fonts">
      @font-face {
        font-family: "Virgil";
        src: url("https://excalidraw.com/Virgil.woff2");
      }
      @font-face {
        font-family: "Cascadia";
        src: url("https://excalidraw.com/Cascadia.woff2");
      }
    </style>
    
  </defs>
  <rect x="0" y="0" width="1120" height="540" fill="#ffffff"></rect><g stroke-linecap="round" transform="translate(10 10) rotate(0 550 260)"><path d="M34.34 -0.97 L1065.99 0.69 L1090.61 1.72 L1095.6 11 L1102.66 33.82 L1097.46 484.17 L1097.24 510.18 L1084.43 514.45 L1070.29 519.44 L32.52 523.87 L15.92 513.05 L3.46 505.8 L-2.55 484.28 L-3.86 31.41 L-0.13 18.72 L4.17 11.21 L21.37 3.75 L32.3 3.47" stroke="none" stroke-width="0" fill="#fff"></path><path d="M32 0 M32 0 C390.18 2.38, 747.41 3.06, 1068 0 M32 0 C385.64 7.8, 741.16 6.58, 1068 0 M1068 0 C1090.46 0.69, 1100.13 6.68, 1100 32 M1068 0 C1088.28 1.44, 1103.42 9.39, 1100 32 M1100 32 C1096.49 131.45, 1094.13 231.72, 1100 488 M1100 32 C1098.77 178.52, 1099.43 325.69, 1100 488 M1100 488 C1101.33 506.74, 1087.64 520.02, 1068 520 M1100 488 C1099.42 512.04, 1092.45 524.2, 1068 520 M1068 520 C768.34 515.66, 466.82 514.97, 32 520 M1068 520 C832.15 521.76, 596.63 522.6, 32 520 M32 520 C9.88 518.31, -0.66 507.14, 0 488 M32 520 C10.72 517.61, -3.92 504.74, 0 488 M0 488 C-2.21 306.01, -2.27 123.92, 0 32 M0 488 C3.07 378.01, 4.46 268.62, 0 32 M0 32 C-3.36 12.03, 11.29 0.87, 32 0 M0 32 C0.63 6.18, 8.04 -0.12, 32 0" stroke="#1e1e1e" stroke-width="4" fill="none"></path></g><g stroke-linecap="round" transform="translate(70 70) rotate(0 160 60)"><path d="M28.76 2.69 L290.96 0.04 L306.1 1.49 L314.74 5.28 L317.73 22.18 L320.63 88.54 L320.21 101.09 L310.48 112.67 L286.13 121.56 L28.86 118.63 L18.5 114.99 L3.8 113.21 L4.17 100.98 L2.51 26.27 L10.77 7.56 L14.3 -0.4 L27.07 3.62" stroke="none" stroke-width="0" fill="#b2f2bb"></path><path d="M30 0 M30 0 C90.95 2.04, 157.39 0.34, 290 0 M30 0 C111.74 3.32, 196.9 1.33, 290 0 M290 0 C308.76 -1.3, 316.36 9.52, 320 30 M290 0 C310.25 -2.73, 318.86 7.3, 320 30 M320 30 C321.33 47.29, 324.31 68.43, 320 90 M320 30 C320.69 49, 320.79 64.94, 320 90 M320 90 C318.05 109.29, 311.95 122.06, 290 120 M320 90 C321.91 110.1, 313.83 119.94, 290 120 M290 120 C209.67 120.2, 127.61 119.44, 30 120 M290 120 C227.91 120.95, 166.41 120.34, 30 120 M30 120 C13.49 121.16, 1.54 109.79, 0 90 M30 120 C5.71 120.16, 0.81 113.85, 0 90 M0 90 C-0.55 64.74, 1 46.03, 0 30 M0 90 C0.05 77.31, -1.67 62.25, 0 30 M0 30 C-0.53 12.93, 13.79 2.99, 30 0 M0 30 C0.13 8.38, 11.99 -2.24, 30 0" stroke="#2f9e44" stroke-width="4" fill="none"></path></g><g transform="translate(166.71875 108.39999999999964) rotate(0 63.28125 21.600000000000364)"><text x="63.28125" y="0" font-family="Cascadia, Segoe UI Emoji" font-size="36px" fill="#1e1e1e" text-anchor="middle" style="white-space: pre;" direction="ltr" dominant-baseline="text-before-edge">Client</text></g><g stroke-linecap="round" transform="translate(730 70) rotate(0 160 60)"><path d="M32.1 -0.06 L290.55 3.49 L304.29 3.41 L312.29 3.77 L319.67 23.68 L323.35 93.13 L319.77 102.54 L308.22 113.21 L291.49 121.42 L27.48 120.35 L17.55 118.43 L10.55 109.37 L1.86 96.5 L3.4 26.76 L10.49 7.62 L15.46 3.6 L28.05 -2.74" stroke="none" stroke-width="0" fill="#ffc9c9"></path><path d="M30 0 M30 0 C125.2 2.1, 220.93 0.24, 290 0 M30 0 C123.65 -2.15, 216.15 -0.46, 290 0 M290 0 C307.6 2.67, 323.96 6.95, 320 30 M290 0 C312.17 3.5, 319.49 13.84, 320 30 M320 30 C323.8 50.49, 321.54 77.38, 320 90 M320 30 C317.95 49.6, 318.99 68.83, 320 90 M320 90 C320.43 113.58, 310.85 120.31, 290 120 M320 90 C322.3 107.1, 310.54 120.66, 290 120 M290 120 C201.01 118.37, 115.86 118.43, 30 120 M290 120 C198.14 118.84, 108.93 117.7, 30 120 M30 120 C10.81 117.46, 1.6 109.68, 0 90 M30 120 C10.29 115.57, -1.82 111, 0 90 M0 90 C-1.16 76.51, -4.64 68.72, 0 30 M0 90 C-0.07 68.82, -0.91 47.18, 0 30 M0 30 C-1.85 12.93, 9.78 -1.43, 30 0 M0 30 C3.74 8.4, 14.51 -1.23, 30 0" stroke="#e03131" stroke-width="4" fill="none"></path></g><g transform="translate(826.71875 108.39999999999964) rotate(0 63.28125 21.600000000000364)"><text x="63.28125" y="0" font-family="Cascadia, Segoe UI Emoji" font-size="36px" fill="#1e1e1e" text-anchor="middle" style="white-space: pre;" direction="ltr" dominant-baseline="text-before-edge">Server</text></g><g mask="url(#mask-OmEg6uceT1fMYs5b-FKhF)" stroke-linecap="round"><g transform="translate(390 90) rotate(0 168.32911864109337 -1.1394503584233462)"><path d="M-2.63 -1.13 C54.07 -1.19, 282.31 -1.21, 339.28 -1.1" stroke="#f08c00" stroke-width="4.5" fill="none" stroke-dasharray="8 12"></path></g><g transform="translate(390 90) rotate(0 168.32911864109337 -1.1394503584233462)"><path d="M309.48 8.12 C317.14 5.79, 325.59 5.62, 341.65 -1.66" stroke="#f08c00" stroke-width="4.5" fill="none"></path></g><g transform="translate(390 90) rotate(0 168.32911864109337 -1.1394503584233462)"><path d="M309.49 -12.4 C317.05 -9.22, 325.49 -3.88, 341.65 -1.66" stroke="#f08c00" stroke-width="4.5" fill="none"></path></g></g><mask id="mask-OmEg6uceT1fMYs5b-FKhF"><rect x="0" y="0" fill="#fff" width="830" height="190"></rect><rect x="517.8125" y="68.39999999999964" fill="#000" width="84.375" height="43.199999999999996" opacity="1"></rect></mask><g transform="translate(517.8125 68.39999999999964) rotate(0 40.51661864109337 20.460549641577018)"><text x="42.1875" y="0" font-family="Cascadia, Segoe UI Emoji" font-size="36px" fill="#f08c00" text-anchor="middle" style="white-space: pre;" direction="ltr" dominant-baseline="text-before-edge">ping</text></g><g mask="url(#mask-lM7nDZmT9vv1S_iXabBun)" stroke-linecap="round"><g transform="translate(730 170) rotate(0 -170.08382308892908 -0.22468170189222292)"><path d="M1.94 -1.75 C-55.09 -1.81, -285.19 1.28, -342.11 1.3" stroke="#f08c00" stroke-width="4.5" fill="none" stroke-dasharray="8 12"></path></g><g transform="translate(730 170) rotate(0 -170.08382308892908 -0.22468170189222292)"><path d="M-316.5 -12.18 C-320.48 -4.98, -333.07 -4.37, -344.41 -0.91" stroke="#f08c00" stroke-width="4.5" fill="none"></path></g><g transform="translate(730 170) rotate(0 -170.08382308892908 -0.22468170189222292)"><path d="M-316.34 8.34 C-320.61 9.36, -333.25 3.78, -344.41 -0.91" stroke="#f08c00" stroke-width="4.5" fill="none"></path></g></g><mask id="mask-lM7nDZmT9vv1S_iXabBun"><rect x="0" y="0" fill="#fff" width="1170" height="270"></rect><rect x="517.8125" y="148.39999999999964" fill="#000" width="84.375" height="43.199999999999996" opacity="1"></rect></mask><g transform="translate(517.8125 148.39999999999964) rotate(0 42.10367691107092 21.37531829810814)"><text x="42.1875" y="0" font-family="Cascadia, Segoe UI Emoji" font-size="36px" fill="#f08c00" text-anchor="middle" style="white-space: pre;" direction="ltr" dominant-baseline="text-before-edge">pong</text></g><g stroke-linecap="round" transform="translate(70 351.60000000000036) rotate(0 160 60)"><path d="M29.12 -0.92 L286.4 3.96 L301.55 3.32 L311.29 5.72 L315.62 21.28 L322.27 90.69 L317.15 104.04 L310.45 112.5 L291.98 117.69 L33.62 118.84 L16.37 116.39 L9.09 115.26 L-1.6 94.48 L1.32 22.36 L10.97 10.74 L20.86 4.7 L32.09 0.82" stroke="none" stroke-width="0" fill="#b2f2bb"></path><path d="M30 0 M30 0 C101.14 -5.97, 179.69 -5.66, 290 0 M30 0 C94.12 -1.95, 159.48 -1.97, 290 0 M290 0 C306.65 -1.73, 318.83 8.25, 320 30 M290 0 C314.56 -2.16, 316.4 6.41, 320 30 M320 30 C317.53 47, 318.17 63.11, 320 90 M320 30 C320.26 51.85, 320.53 69.69, 320 90 M320 90 C323.71 112.06, 313.3 122.65, 290 120 M320 90 C317.82 107.57, 309.34 124.27, 290 120 M290 120 C206.93 115.91, 123.72 116.3, 30 120 M290 120 C198.26 122.76, 103.7 120.84, 30 120 M30 120 C11.58 122.4, -0.67 113.1, 0 90 M30 120 C8.71 118.51, 3.92 108.49, 0 90 M0 90 C3.58 67.1, 2.52 48.31, 0 30 M0 90 C2.12 68.62, 0.11 50.83, 0 30 M0 30 C1.63 8.43, 9.56 1.42, 30 0 M0 30 C3.84 9.88, 11.6 1.78, 30 0" stroke="#2f9e44" stroke-width="4" fill="none"></path></g><g transform="translate(166.71875 390) rotate(0 63.28125 21.600000000000364)"><text x="63.28125" y="0" font-family="Cascadia, Segoe UI Emoji" font-size="36px" fill="#1e1e1e" text-anchor="middle" style="white-space: pre;" direction="ltr" dominant-baseline="text-before-edge">Client</text></g><g stroke-linecap="round" transform="translate(730 351.60000000000036) rotate(0 160 60)"><path d="M28.43 1.44 L288.79 -1.78 L299.22 0.18 L314.77 8.19 L318.56 23.88 L322.17 86.72 L320.1 100.82 L311.9 114.62 L289.49 118.27 L31.59 122.76 L14.8 115.58 L8.35 111.9 L3.94 100.27 L4.45 25.79 L9.59 8.32 L16.24 0.21 L33.61 -3.44" stroke="none" stroke-width="0" fill="#ffc9c9"></path><path d="M30 0 M30 0 C88.36 3.73, 151.99 0.52, 290 0 M30 0 C119.28 -2.67, 210.77 -2.68, 290 0 M290 0 C313.96 -1.88, 316.87 6.87, 320 30 M290 0 C310.4 -2.52, 324.12 7.91, 320 30 M320 30 C321.42 44.57, 323.51 62.64, 320 90 M320 30 C322.38 52.64, 322.18 74.54, 320 90 M320 90 C318.1 107.89, 309.43 123.71, 290 120 M320 90 C320.81 112.56, 307.54 119.31, 290 120 M290 120 C229.03 115.64, 165.71 121.01, 30 120 M290 120 C197.41 118.41, 103.29 118.7, 30 120 M30 120 C8.88 118.7, 3.41 108.68, 0 90 M30 120 C12.71 120.71, 4.32 114.32, 0 90 M0 90 C0.17 72.18, -4.1 61.22, 0 30 M0 90 C1.08 76.92, 0.05 66.11, 0 30 M0 30 C3.34 9.9, 11.39 1.55, 30 0 M0 30 C0.61 5.4, 8.02 -4.07, 30 0" stroke="#e03131" stroke-width="4" fill="none"></path></g><g transform="translate(826.71875 390) rotate(0 63.28125 21.600000000000364)"><text x="63.28125" y="0" font-family="Cascadia, Segoe UI Emoji" font-size="36px" fill="#1e1e1e" text-anchor="middle" style="white-space: pre;" direction="ltr" dominant-baseline="text-before-edge">Server</text></g><g mask="url(#mask-0399HZF4Dj402A5gh0_c6)" stroke-linecap="round"><g transform="translate(390 371.60000000000036) rotate(0 170.4541973453015 0.6773125500485548)"><path d="M1.59 0.48 C58.6 0.79, 282.66 1.1, 339.32 0.64" stroke="#f08c00" stroke-width="4.5" fill="none" stroke-dasharray="8 12"></path></g><g transform="translate(390 371.60000000000036) rotate(0 170.4541973453015 0.6773125500485548)"><path d="M311.84 10 C317.85 10.73, 319.36 8.45, 337.01 4.26" stroke="#f08c00" stroke-width="4.5" fill="none"></path></g><g transform="translate(390 371.60000000000036) rotate(0 170.4541973453015 0.6773125500485548)"><path d="M311.79 -10.52 C317.63 -5.64, 319.15 -3.77, 337.01 4.26" stroke="#f08c00" stroke-width="4.5" fill="none"></path></g></g><mask id="mask-0399HZF4Dj402A5gh0_c6"><rect x="0" y="0" fill="#fff" width="830" height="471.60000000000036"></rect><rect x="517.8125" y="350" fill="#000" width="84.375" height="43.199999999999996" opacity="1"></rect></mask><g transform="translate(517.8125 350) rotate(0 42.64169734530151 22.27731255004892)"><text x="42.1875" y="0" font-family="Cascadia, Segoe UI Emoji" font-size="36px" fill="#f08c00" text-anchor="middle" style="white-space: pre;" direction="ltr" dominant-baseline="text-before-edge">pong</text></g><g mask="url(#mask-E5SXqsV81M09oBSigKvkd)" stroke-linecap="round"><g transform="translate(730 451.60000000000036) rotate(0 -168.5501264948398 -2.005094987785924)"><path d="M1.52 -2.3 C-54.81 -2.67, -282.12 -1.86, -338.62 -1.62" stroke="#f08c00" stroke-width="4.5" fill="none" stroke-dasharray="8 12"></path></g><g transform="translate(730 451.60000000000036) rotate(0 -168.5501264948398 -2.005094987785924)"><path d="M-313.74 -10 C-320.49 -5.2, -327.1 -6.47, -340.35 -0.02" stroke="#f08c00" stroke-width="4.5" fill="none"></path></g><g transform="translate(730 451.60000000000036) rotate(0 -168.5501264948398 -2.005094987785924)"><path d="M-313.67 10.52 C-320.52 9.67, -327.16 2.74, -340.35 -0.02" stroke="#f08c00" stroke-width="4.5" fill="none"></path></g></g><mask id="mask-E5SXqsV81M09oBSigKvkd"><rect x="0" y="0" fill="#fff" width="1170" height="551.6000000000004"></rect><rect x="517.8125" y="430" fill="#000" width="84.375" height="43.199999999999996" opacity="1"></rect></mask><g transform="translate(517.8125 430) rotate(0 43.63737350516021 19.59490501221444)"><text x="42.1875" y="0" font-family="Cascadia, Segoe UI Emoji" font-size="36px" fill="#f08c00" text-anchor="middle" style="white-space: pre;" direction="ltr" dominant-baseline="text-before-edge">ping</text></g><g transform="translate(410 270) rotate(0 137.109375 21.600000000000364)"><text x="0" y="0" font-family="Cascadia, Segoe UI Emoji" font-size="36px" fill="#f08c00" text-anchor="start" style="white-space: pre;" direction="ltr" dominant-baseline="text-before-edge">TCP KeepAlive</text></g></svg>