<svg version="1.1" xmlns="http://www.w3.org/2000/svg" viewBox="0 0 980 560" width="980" height="560">
  <!-- svg-source:excalidraw -->
  
  <defs>
    <style class="style-fonts">
      @font-face {
        font-family: "Virgil";
        src: url("https://excalidraw.com/Virgil.woff2");
      }
      @font-face {
        font-family: "Cascadia";
        src: url("https://excalidraw.com/Cascadia.woff2");
      }
    </style>
    
  </defs>
  <rect x="0" y="0" width="980" height="560" fill="#ffffff"></rect><g stroke-linecap="round" transform="translate(10 10) rotate(0 480 270)"><path d="M30.66 -1.55 L930.52 0.62 L944.89 2.23 L959.45 10.28 L957.13 28.82 L962.46 508.61 L951.97 529.76 L950.56 539.29 L929.85 541.81 L32.58 541.14 L11.99 535.91 L1.68 519.7 L-0.54 508.17 L2.8 29.68 L1.61 14.41 L6.21 8.48 L15.62 -0.39 L36 -3.3" stroke="none" stroke-width="0" fill="#a5d8ff"></path><path d="M32 0 M32 0 C365.91 0.29, 704.07 -1.66, 928 0 M32 0 C294.45 4.58, 556.09 4.6, 928 0 M928 0 C949.29 3.11, 957.03 13.41, 960 32 M928 0 C945.05 -3.65, 963.28 9.19, 960 32 M960 32 C956.78 193.95, 958.75 355.36, 960 508 M960 32 C960.27 147.73, 960.42 265.13, 960 508 M960 508 C958.29 526.86, 947.61 541.77, 928 540 M960 508 C961.89 526.86, 951.54 535.61, 928 540 M928 540 C651.57 537.55, 374.21 535.71, 32 540 M928 540 C739.11 542.3, 551.97 542.02, 32 540 M32 540 C11.86 541.33, 2.33 526.73, 0 508 M32 540 C9.52 537.17, -1.75 526.87, 0 508 M0 508 C-1.59 367.75, -4.19 223.83, 0 32 M0 508 C1.18 355.53, -0.1 203.15, 0 32 M0 32 C-1.32 8.72, 14.02 2.95, 32 0 M0 32 C-2.54 8.24, 11.12 -3.12, 32 0" stroke="#1971c2" stroke-width="4" fill="none"></path></g><g stroke-linecap="round" transform="translate(130 130) rotate(0 350 190)"><path d="M35.07 2.08 L670.61 -1.88 L689.05 5.59 L698.91 12.04 L699.49 28.88 L698.58 347.75 L692.01 369.9 L685.33 374.59 L669.42 380.43 L30.08 377.76 L8.71 379.05 L5.4 361.74 L-3.93 350.14 L-2.92 32.82 L-0.63 18.42 L9.59 8.61 L15.68 -1.59 L34.57 -1.44" stroke="none" stroke-width="0" fill="#ffc9c9"></path><path d="M32 0 M32 0 C217.73 -1.31, 404.6 -0.9, 668 0 M32 0 C248.04 2.73, 464.93 2.04, 668 0 M668 0 C693.22 1.68, 697.95 10.08, 700 32 M668 0 C693.5 -0.98, 699.44 12.41, 700 32 M700 32 C702.49 99.91, 701.26 168.61, 700 348 M700 32 C697.84 142.17, 698.84 253.16, 700 348 M700 348 C702 371.33, 686.74 379.23, 668 380 M700 348 C697.57 365.11, 689.76 381.33, 668 380 M668 380 C476.93 375.95, 281.5 375.37, 32 380 M668 380 C479.41 378.73, 291.58 379.76, 32 380 M32 380 C11.19 383.95, -1.83 365.64, 0 348 M32 380 C14.1 376.5, 3.23 372.1, 0 348 M0 348 C-1.48 242.28, -0.38 133.12, 0 32 M0 348 C0.51 261.18, -0.01 173.26, 0 32 M0 32 C-2.11 6.87, 10.41 3.31, 32 0 M0 32 C2.65 7.07, 11.82 3.88, 32 0" stroke="#e03131" stroke-width="4" fill="none"></path></g><g stroke-linecap="round" transform="translate(270 250) rotate(0 210 80)"><path d="M35.24 2.07 L391.77 2.19 L398.08 1 L409.48 7.06 L419.61 26.9 L419.37 124.1 L420.27 141.97 L407.31 151.62 L387.35 158.63 L28.98 159.13 L19.92 154.46 L5.37 145.79 L-1.12 138.24 L-2.24 24.49 L6.93 9.94 L17.78 5.79 L31.58 -2.29" stroke="none" stroke-width="0" fill="#ffec99"></path><path d="M32 0 M32 0 C120.19 -2.04, 205.87 -0.97, 388 0 M32 0 C152.73 2.21, 271.4 3.45, 388 0 M388 0 C412.46 3.12, 419.54 12.58, 420 32 M388 0 C409.39 -4.48, 422.49 14.73, 420 32 M420 32 C418.63 66.09, 421.53 101.26, 420 128 M420 32 C422.19 64, 419.92 91.55, 420 128 M420 128 C422.45 146.51, 409.58 161.57, 388 160 M420 128 C421.29 152.3, 406.71 155.82, 388 160 M388 160 C257.76 162.42, 125.15 161.9, 32 160 M388 160 C297.91 161.46, 207.2 160.17, 32 160 M32 160 C8.22 160.72, -2.11 150.22, 0 128 M32 160 C12.39 159.4, -2.85 148.88, 0 128 M0 128 C5.2 94.81, 2.73 55.19, 0 32 M0 128 C1.38 90.74, 1.01 54.83, 0 32 M0 32 C-1.57 8.62, 10.03 1.07, 32 0 M0 32 C0.12 15.18, 10.26 1.36, 32 0" stroke="#f08c00" stroke-width="4" fill="none"></path></g><g transform="translate(386.90625 308.39999999999964) rotate(0 93.09375 21.600000000000364)"><text x="93.09375" y="0" font-family="Cascadia, Segoe UI Emoji" font-size="36px" fill="#1e1e1e" text-anchor="middle" style="white-space: pre;" direction="ltr" dominant-baseline="text-before-edge">1.网络模块</text></g><g transform="translate(250.57553736047976 182.6181473839606) rotate(0 247.640625 21.600000000000364)"><text x="0" y="0" font-family="Cascadia, Segoe UI Emoji" font-size="36px" fill="#1e1e1e" text-anchor="start" style="white-space: pre;" direction="ltr" dominant-baseline="text-before-edge">2.协议构建，序列化/反序列化</text></g><g transform="translate(70 50) rotate(0 423.28125 21.600000000000364)"><text x="0" y="0" font-family="Cascadia, Segoe UI Emoji" font-size="36px" fill="#1e1e1e" text-anchor="start" style="white-space: pre;" direction="ltr" dominant-baseline="text-before-edge">3.业务相关功能：生产、消费、事务、幂等、SSL 等</text></g></svg>