<svg version="1.1" xmlns="http://www.w3.org/2000/svg" viewBox="0 0 1240 340" width="1240" height="340">
  <!-- svg-source:excalidraw -->
  
  <defs>
    <style class="style-fonts">
      @font-face {
        font-family: "Virgil";
        src: url("https://excalidraw.com/Virgil.woff2");
      }
      @font-face {
        font-family: "Cascadia";
        src: url("https://excalidraw.com/Cascadia.woff2");
      }
    </style>
    
  </defs>
  <rect x="0" y="0" width="1240" height="340" fill="#ffffff"></rect><g stroke-linecap="round" transform="translate(10 10) rotate(0 610 160)"><path d="M30 0.5 L1186.5 3.62 L1199.26 1.62 L1214.67 11.67 L1220.67 35.03 L1216.51 287.28 L1220.45 302.61 L1205.55 317.03 L1185.42 319.63 L31.95 320.86 L15.05 318.72 L7.46 305.09 L-2.58 285.89 L-3.52 29.42 L5.24 20.53 L6.55 11.42 L21.83 5.38 L31.8 0.04" stroke="none" stroke-width="0" fill="#fff"></path><path d="M32 0 M32 0 C297.57 -8.95, 563.73 -7.47, 1188 0 M32 0 C430.74 -7.6, 830.62 -8.07, 1188 0 M1188 0 C1212.76 1.79, 1219 8.54, 1220 32 M1188 0 C1207.23 2.7, 1223.81 11.85, 1220 32 M1220 32 C1217.17 118.41, 1217.03 202.13, 1220 288 M1220 32 C1221.81 130.75, 1220.37 227.73, 1220 288 M1220 288 C1219.2 311.89, 1209.82 319.85, 1188 320 M1220 288 C1221.38 306.19, 1211.83 315.47, 1188 320 M1188 320 C877.46 327.11, 568.56 327.96, 32 320 M1188 320 C826.08 313.33, 464.99 312.63, 32 320 M32 320 C11.34 319.35, -1.15 306.37, 0 288 M32 320 C13.87 316.21, -4.06 312, 0 288 M0 288 C-1.34 203.79, 0.1 127.11, 0 32 M0 288 C2.73 191.86, 5.34 97.54, 0 32 M0 32 C2.87 8.09, 12.29 -2.94, 32 0 M0 32 C-0.94 8.86, 14.66 3.98, 32 0" stroke="#1e1e1e" stroke-width="4" fill="none"></path></g><g stroke-linecap="round" transform="translate(50 70) rotate(0 160 88.5)"><path d="M30.12 0.9 L286.73 1.17 L304.81 7.21 L318.37 12.97 L317.18 34.24 L317.55 146.92 L315.11 165.2 L307.49 168.9 L291.14 173.65 L28.02 177.18 L15.4 174.54 L0.59 163.38 L-0.82 154.69 L3.79 28.03 L10.86 11.8 L15.33 4.49 L32.47 2.94" stroke="none" stroke-width="0" fill="#a5d8ff"></path><path d="M32 0 M32 0 C100.34 6.08, 166.83 5.51, 288 0 M32 0 C90.05 3.43, 147.72 1.22, 288 0 M288 0 C312.82 -3.61, 319.68 12.57, 320 32 M288 0 C310.98 0.46, 324.19 10.54, 320 32 M320 32 C319.23 66.82, 320.47 99.31, 320 145 M320 32 C321.29 69.94, 319.45 110.35, 320 145 M320 145 C316.74 170.08, 312.02 174.61, 288 177 M320 145 C317.18 165.09, 307.23 176.56, 288 177 M288 177 C223.71 179.75, 155.83 175.15, 32 177 M288 177 C195.19 175.66, 103.33 176.58, 32 177 M32 177 C9.72 175.49, 1.12 167.79, 0 145 M32 177 C6.56 179.26, 0.6 169.98, 0 145 M0 145 C2.06 109.17, 1.95 76.27, 0 32 M0 145 C-0.17 103.79, 1.54 63.77, 0 32 M0 32 C1.86 8.4, 13.06 -2.57, 32 0 M0 32 C-2.61 6.26, 13.94 4.08, 32 0" stroke="#4dabf7" stroke-width="4" fill="none"></path></g><g transform="translate(144.375 141.70000000000073) rotate(0 65.625 16.799999999999272)"><text x="65.625" y="0" font-family="Cascadia, Segoe UI Emoji" font-size="28px" fill="#1e1e1e" text-anchor="middle" style="white-space: pre;" direction="ltr" dominant-baseline="text-before-edge">consumer</text></g><g stroke-linecap="round" transform="translate(870 90) rotate(0 160 80)"><path d="M35.17 0.23 L286.57 0.4 L308.76 3.21 L316.64 12.84 L322.23 32.78 L323.86 128.55 L313.47 151.46 L305.81 157.36 L285.74 162.39 L29.43 157.73 L8.67 158.35 L8.05 145.75 L-2.23 136.23 L0.86 22.62 L6.44 4.05 L18.94 2.68 L30.42 1.47" stroke="none" stroke-width="0" fill="#ffec99"></path><path d="M32 0 M32 0 C108.92 -0.04, 180.87 0.11, 288 0 M32 0 C84.74 -2.48, 138.9 -3.98, 288 0 M288 0 C311.17 2.82, 318.11 8.92, 320 32 M288 0 C310.98 2.6, 316.32 12.92, 320 32 M320 32 C321.58 52.01, 323.81 80.09, 320 128 M320 32 C318.97 50, 316.9 71.93, 320 128 M320 128 C316.88 151.85, 312.81 163.65, 288 160 M320 128 C318.74 151, 306.86 157.09, 288 160 M288 160 C233.11 164.77, 172.82 160.92, 32 160 M288 160 C202.06 162.32, 112.16 160.35, 32 160 M32 160 C7.07 157.58, -1.15 147.68, 0 128 M32 160 C13.88 162.7, -0.14 152.02, 0 128 M0 128 C-1.93 109.1, 0.07 83.08, 0 32 M0 128 C2.08 102, 0.65 80.07, 0 32 M0 32 C-3.23 7.94, 13.88 -3.89, 32 0 M0 32 C2.86 10.07, 8.83 0.07, 32 0" stroke="#f08c00" stroke-width="2" fill="none"></path></g><g transform="translate(966.71875 148.40000000000146) rotate(0 63.28125 21.600000000000364)"><text x="63.28125" y="0" font-family="Cascadia, Segoe UI Emoji" font-size="36px" fill="#1e1e1e" text-anchor="middle" style="white-space: pre;" direction="ltr" dominant-baseline="text-before-edge">Broker</text></g><g stroke-linecap="round"><g transform="translate(371.3945764912669 118.11558058378796) rotate(0 249.72343273468277 0.6081372937951528)"><path d="M1.33 -0.58 C84.7 -0.28, 415.51 1.19, 498.12 1.8" stroke="#1e1e1e" stroke-width="4.5" fill="none" stroke-dasharray="8 12"></path></g><g transform="translate(371.3945764912669 118.11558058378796) rotate(0 249.72343273468277 0.6081372937951528)"><path d="M469.04 12.63 C476.22 8.47, 484.33 8.36, 499.67 1.04" stroke="#1e1e1e" stroke-width="4.5" fill="none"></path></g><g transform="translate(371.3945764912669 118.11558058378796) rotate(0 249.72343273468277 0.6081372937951528)"><path d="M469.16 -7.89 C476.31 -7.46, 484.4 -2.98, 499.67 1.04" stroke="#1e1e1e" stroke-width="4.5" fill="none"></path></g></g><mask></mask><g stroke-linecap="round"><g transform="translate(869 217.8413607610637) rotate(0 -247.2854247353971 -1.5451126687203214)"><path d="M0.93 -0.01 C-81.93 -0.51, -412.41 -2.89, -495.5 -3.08" stroke="#1e1e1e" stroke-width="4.5" fill="none" stroke-dasharray="8 12"></path></g><g transform="translate(869 217.8413607610637) rotate(0 -247.2854247353971 -1.5451126687203214)"><path d="M-467.27 -9.62 C-480.07 -8.81, -487.48 -8.89, -495.86 -3.8" stroke="#1e1e1e" stroke-width="4.5" fill="none"></path></g><g transform="translate(869 217.8413607610637) rotate(0 -247.2854247353971 -1.5451126687203214)"><path d="M-467.37 10.9 C-480.13 4.34, -487.5 -3.12, -495.86 -3.8" stroke="#1e1e1e" stroke-width="4.5" fill="none"></path></g></g><mask></mask><g transform="translate(470 70) rotate(0 121.625 16.799999999999272)"><text x="0" y="0" font-family="Cascadia, Segoe UI Emoji" font-size="28px" fill="#1e1e1e" text-anchor="start" style="white-space: pre;" direction="ltr" dominant-baseline="text-before-edge">消费  fetch 接口</text></g><g transform="translate(430 230) rotate(0 207.046875 16.799999999999272)"><text x="0" y="0" font-family="Cascadia, Segoe UI Emoji" font-size="28px" fill="#1e1e1e" text-anchor="start" style="white-space: pre;" direction="ltr" dominant-baseline="text-before-edge">单条 ACK/批量 ACK  ACK 接口</text></g></svg>