<svg version="1.1" xmlns="http://www.w3.org/2000/svg" viewBox="0 0 1220 520" width="1220" height="520">
  <!-- svg-source:excalidraw -->
  
  <defs>
    <style class="style-fonts">
      @font-face {
        font-family: "Virgil";
        src: url("https://excalidraw.com/Virgil.woff2");
      }
      @font-face {
        font-family: "Cascadia";
        src: url("https://excalidraw.com/Cascadia.woff2");
      }
    </style>
    
  </defs>
  <rect x="0" y="0" width="1220" height="520" fill="#ffffff"></rect><g stroke-linecap="round" transform="translate(10 10) rotate(0 600 250)"><path d="M32.7 -2.36 L1164.09 -3.3 L1178.15 4.53 L1198.77 14.58 L1203.88 35.87 L1199.19 471.24 L1201.97 485.65 L1184.76 493.38 L1169.14 497.28 L31.49 497.06 L18.71 495.51 L1.02 488.74 L0.65 470.47 L-0.36 32.24 L1.54 21.67 L8.73 5.25 L14.59 4.01 L28.32 0.84" stroke="none" stroke-width="0" fill="#fff"></path><path d="M32 0 M32 0 C362.77 -7.62, 692.96 -9.59, 1168 0 M32 0 C400.06 -2.53, 767.14 -2.74, 1168 0 M1168 0 C1189.3 0.66, 1202.29 8.47, 1200 32 M1168 0 C1186.74 2.18, 1198.49 13.53, 1200 32 M1200 32 C1198.32 188.83, 1199.46 344.2, 1200 468 M1200 32 C1200.3 131.41, 1199.9 231.79, 1200 468 M1200 468 C1202.7 486.49, 1188.55 500.06, 1168 500 M1200 468 C1202.35 488.81, 1193.31 503.6, 1168 500 M1168 500 C860.69 502.86, 554.28 503.18, 32 500 M1168 500 C775.77 493.34, 383.79 493.7, 32 500 M32 500 C11.73 501.77, -3.92 485.57, 0 468 M32 500 C12.44 498.36, -1.8 486.45, 0 468 M0 468 C-2.82 371.35, -3.51 270.72, 0 32 M0 468 C0.12 298.4, -1.16 128.11, 0 32 M0 32 C-2.21 11.95, 12.26 -1.99, 32 0 M0 32 C3.7 9.84, 7.31 2.63, 32 0" stroke="#1e1e1e" stroke-width="1" fill="none"></path></g><g stroke-linecap="round" transform="translate(70 70) rotate(0 230 40)"><path d="M21.7 -3.25 L447.9 3.35 L455.75 8.35 L459.7 9.39 L460.27 66.83 L454.74 78.12 L447.85 79.38 L437.17 76.78 L18.86 82.66 L3.99 75.8 L-0.18 70.67 L-2.91 16.67 L3.42 14.15 L2.6 8.68 L12.98 1.16 L20.78 0.98" stroke="none" stroke-width="0" fill="#ffd8a8"></path><path d="M20 0 M20 0 C168.55 1.65, 312.96 0.14, 440 0 M20 0 C134.62 -1.57, 249.26 -1.21, 440 0 M440 0 C455.13 -2.47, 461.73 6.68, 460 20 M440 0 C449.37 0.14, 456.73 9.77, 460 20 M460 20 C460.7 25.98, 460.87 39.44, 460 60 M460 20 C459.82 34.95, 458.78 48.71, 460 60 M460 60 C459.17 72.98, 455.93 83.8, 440 80 M460 60 C463.43 74.76, 452.4 81.14, 440 80 M440 80 C326.89 78.07, 217.65 79.31, 20 80 M440 80 C335.14 82, 229.82 81.29, 20 80 M20 80 C8.48 77.88, 1.35 70.49, 0 60 M20 80 C10.78 83.58, -1.67 70.7, 0 60 M0 60 C-2.62 48.14, -0.26 33.26, 0 20 M0 60 C-0.62 49.08, 0.81 38.2, 0 20 M0 20 C1.47 9.68, 7.28 3.12, 20 0 M0 20 C-0.48 8.13, 5.36 1.29, 20 0" stroke="#f08c00" stroke-width="4" fill="none"></path></g><g transform="translate(194.53125 88.39999999999964) rotate(0 105.46875 21.600000000000364)"><text x="105.46875" y="0" font-family="Cascadia, Segoe UI Emoji" font-size="36px" fill="#1e1e1e" text-anchor="middle" style="white-space: pre;" direction="ltr" dominant-baseline="text-before-edge">Consumer 1</text></g><g stroke-linecap="round" transform="translate(70 210) rotate(0 230 40)"><path d="M18.57 1.96 L441.28 0.47 L458.92 2.95 L460.61 8 L458.66 60.99 L452.88 74.93 L450.74 82.57 L438.24 82.22 L19.19 80.41 L8.97 74.69 L1.4 65.32 L-2.54 17.02 L0.21 9.55 L7.6 2.43 L8.33 3.5 L20.66 -3.28" stroke="none" stroke-width="0" fill="#ffd8a8"></path><path d="M20 0 M20 0 C188.17 0.36, 352.28 1.21, 440 0 M20 0 C135.25 -0.04, 249.07 1.58, 440 0 M440 0 C455.09 -0.85, 456.02 5.44, 460 20 M440 0 C457.47 3.66, 456.76 6.41, 460 20 M460 20 C459.57 35.39, 462.16 51.87, 460 60 M460 20 C461.39 29.69, 458.69 38.46, 460 60 M460 60 C460.73 70.96, 455.01 82.03, 440 80 M460 60 C456.42 73.87, 455.9 83.49, 440 80 M440 80 C288.26 78.27, 136.39 79.1, 20 80 M440 80 C274.47 78.11, 111.02 79.57, 20 80 M20 80 C3.19 83.36, -3.29 72.55, 0 60 M20 80 C9.94 75.69, 3.12 71.62, 0 60 M0 60 C-2.38 45.61, 3.79 29.26, 0 20 M0 60 C-1.77 50.24, -1.74 40.4, 0 20 M0 20 C0.97 5.1, 2.86 -3.95, 20 0 M0 20 C0.02 6.26, 3.11 2.81, 20 0" stroke="#f08c00" stroke-width="4" fill="none"></path></g><g transform="translate(194.53125 228.39999999999964) rotate(0 105.46875 21.600000000000364)"><text x="105.46875" y="0" font-family="Cascadia, Segoe UI Emoji" font-size="36px" fill="#1e1e1e" text-anchor="middle" style="white-space: pre;" direction="ltr" dominant-baseline="text-before-edge">Consumer 2</text></g><g stroke-linecap="round" transform="translate(70 350) rotate(0 230 40)"><path d="M16.59 -3.23 L441.63 1.07 L458.11 4.55 L455.71 10.9 L459.64 61 L453.39 71.39 L445.39 79.72 L438.43 76.2 L11.37 79.71 L7.46 74.09 L3.69 69.37 L2 16.97 L-1.3 9.8 L7.79 8.48 L7.33 3.44 L16.73 0.14" stroke="none" stroke-width="0" fill="#ffd8a8"></path><path d="M20 0 M20 0 C134.41 -0.34, 247.1 1.04, 440 0 M20 0 C122.93 -0.47, 227.23 0.13, 440 0 M440 0 C455.38 0.35, 461.24 10.49, 460 20 M440 0 C451.38 -3.13, 457.51 3.34, 460 20 M460 20 C461.14 26.53, 460.56 40.16, 460 60 M460 20 C459.9 34.63, 461.55 48.25, 460 60 M460 60 C463.14 76.61, 457.09 79.93, 440 80 M460 60 C461.79 76.5, 450.56 79.77, 440 80 M440 80 C284.46 75.86, 125.57 75.77, 20 80 M440 80 C296.94 84.64, 154.49 82.89, 20 80 M20 80 C3.8 82.84, -3.13 73.64, 0 60 M20 80 C9.26 80.4, -2.28 77.32, 0 60 M0 60 C2.61 51.32, 1.07 42.74, 0 20 M0 60 C-0.93 51.28, 1.51 41.23, 0 20 M0 20 C-1.89 5.89, 8.72 -3.12, 20 0 M0 20 C1.15 4.36, 5.09 0.28, 20 0" stroke="#f08c00" stroke-width="4" fill="none"></path></g><g transform="translate(194.53125 368.39999999999964) rotate(0 105.46875 21.600000000000364)"><text x="105.46875" y="0" font-family="Cascadia, Segoe UI Emoji" font-size="36px" fill="#1e1e1e" text-anchor="middle" style="white-space: pre;" direction="ltr" dominant-baseline="text-before-edge">Consumer 3</text></g><g stroke-linecap="round" transform="translate(830 190) rotate(0 150 60)"><path d="M26.27 -2.01 L267.42 -0.42 L285.17 1.05 L296.36 7.12 L301.65 26.83 L300.37 86.19 L295.33 106.59 L289.27 112.16 L266.64 118.72 L30.36 116.61 L19.25 117.9 L5.24 111.23 L1.47 99.16 L-2.5 24.9 L11.23 10.18 L15.64 4.65 L28.38 -0.32" stroke="none" stroke-width="0" fill="#a5d8ff"></path><path d="M30 0 M30 0 C103.12 4.87, 177.11 0.86, 270 0 M30 0 C94.7 1.04, 162.36 1.71, 270 0 M270 0 C292.85 -2.49, 301.96 6.01, 300 30 M270 0 C286.03 -1.4, 300.3 14.33, 300 30 M300 30 C299.35 47.76, 297.55 74.03, 300 90 M300 30 C302.72 46.77, 301.59 63.14, 300 90 M300 90 C303.65 112.92, 289.46 118.74, 270 120 M300 90 C296.94 111.06, 291.31 123.55, 270 120 M270 120 C197.02 122.93, 119.17 118.63, 30 120 M270 120 C219.21 121.92, 169.48 121.49, 30 120 M30 120 C7.48 120.89, -2.24 106.99, 0 90 M30 120 C8.22 122.8, 2.66 112.06, 0 90 M0 90 C-1.49 73.44, 1.08 57.45, 0 30 M0 90 C-1.64 68.42, 1 45.02, 0 30 M0 30 C2.58 11.61, 7.35 -2.44, 30 0 M0 30 C-1.34 12.88, 11.7 3.67, 30 0" stroke="#1971c2" stroke-width="4" fill="none"></path></g><g transform="translate(895.625 228.39999999999964) rotate(0 84.375 21.600000000000364)"><text x="84.375" y="0" font-family="Cascadia, Segoe UI Emoji" font-size="36px" fill="#1e1e1e" text-anchor="middle" style="white-space: pre;" direction="ltr" dominant-baseline="text-before-edge">Broker 1</text></g><g mask="url(#mask-1n4zFcu3hw8qiwKb74d1C)" stroke-linecap="round"><g transform="translate(827.2649323366586 211.1488228298731) rotate(0 -147.46937134489417 -49.62418938651717)"><path d="M2.33 1.9 C-47.25 -15.41, -247.21 -84.59, -297.26 -101.15" stroke="#1e1e1e" stroke-width="4.5" fill="none" stroke-dasharray="8 12"></path></g><g transform="translate(827.2649323366586 211.1488228298731) rotate(0 -147.46937134489417 -49.62418938651717)"><path d="M-264.56 -97.89 C-278.08 -98.28, -282 -98.93, -294.69 -99.54" stroke="#1e1e1e" stroke-width="4.5" fill="none"></path></g><g transform="translate(827.2649323366586 211.1488228298731) rotate(0 -147.46937134489417 -49.62418938651717)"><path d="M-271.16 -78.46 C-283.04 -84.91, -284.93 -91.51, -294.69 -99.54" stroke="#1e1e1e" stroke-width="4.5" fill="none"></path></g></g><mask id="mask-1n4zFcu3hw8qiwKb74d1C"><rect x="0" y="0" fill="#fff" width="1227.2649323366586" height="411.1488228298731"></rect><rect x="644.4524323366586" y="144.34882282987382" fill="#000" width="65.625" height="33.6" opacity="1"></rect></mask><g transform="translate(644.4524323366586 144.34882282987382) rotate(0 35.34312865510583 17.1758106134821)"><text x="32.8125" y="0" font-family="Cascadia, Segoe UI Emoji" font-size="28px" fill="#1e1e1e" text-anchor="middle" style="white-space: pre;" direction="ltr" dominant-baseline="text-before-edge">Push</text></g><g mask="url(#mask-Y6tCe5XACjsLokpRH7_88)" stroke-linecap="round"><g transform="translate(830 250) rotate(0 -149.89493804201538 0.6457739017905624)"><path d="M1.4 -0.46 C-48.44 -0.07, -251.08 1.22, -301.19 1.75" stroke="#1e1e1e" stroke-width="4.5" fill="none" stroke-dasharray="8 12"></path></g><g transform="translate(830 250) rotate(0 -149.89493804201538 0.6457739017905624)"><path d="M-273.74 -10.45 C-276.92 -5.12, -281.81 -5.12, -299.32 0.11" stroke="#1e1e1e" stroke-width="4.5" fill="none"></path></g><g transform="translate(830 250) rotate(0 -149.89493804201538 0.6457739017905624)"><path d="M-273.57 10.07 C-276.71 10.82, -281.63 6.22, -299.32 0.11" stroke="#1e1e1e" stroke-width="4.5" fill="none"></path></g></g><mask id="mask-Y6tCe5XACjsLokpRH7_88"><rect x="0" y="0" fill="#fff" width="1230" height="350"></rect><rect x="647.1875" y="233.20000000000073" fill="#000" width="65.625" height="33.6" opacity="1"></rect></mask><g transform="translate(647.1875 233.20000000000073) rotate(0 32.91756195798462 17.445773901789835)"><text x="32.8125" y="0" font-family="Cascadia, Segoe UI Emoji" font-size="28px" fill="#1e1e1e" text-anchor="middle" style="white-space: pre;" direction="ltr" dominant-baseline="text-before-edge">Push</text></g><g mask="url(#mask-DBbYDfuAtbqciHdMkdBcG)" stroke-linecap="round"><g transform="translate(830 290) rotate(0 -149.90009957328493 50.693497989326715)"><path d="M2.58 1.27 C-47.98 18.29, -252.02 83.85, -302.38 100.11" stroke="#1e1e1e" stroke-width="4.5" fill="none" stroke-dasharray="8 12"></path></g><g transform="translate(830 290) rotate(0 -149.90009957328493 50.693497989326715)"><path d="M-276.87 78.31 C-286.69 88.94, -296.39 94.08, -301.46 103.6" stroke="#1e1e1e" stroke-width="4.5" fill="none"></path></g><g transform="translate(830 290) rotate(0 -149.90009957328493 50.693497989326715)"><path d="M-270.58 97.84 C-282.22 102.07, -294.02 100.7, -301.46 103.6" stroke="#1e1e1e" stroke-width="4.5" fill="none"></path></g></g><mask id="mask-DBbYDfuAtbqciHdMkdBcG"><rect x="0" y="0" fill="#fff" width="1230" height="490"></rect><rect x="647.1875" y="323.2000000000007" fill="#000" width="65.625" height="33.6" opacity="1"></rect></mask><g transform="translate(647.1875 323.2000000000007) rotate(0 32.91240042671507 17.493497989325988)"><text x="32.8125" y="0" font-family="Cascadia, Segoe UI Emoji" font-size="28px" fill="#1e1e1e" text-anchor="middle" style="white-space: pre;" direction="ltr" dominant-baseline="text-before-edge">Push</text></g></svg>