<svg version="1.1" xmlns="http://www.w3.org/2000/svg" viewBox="0 0 1440 860" width="1440" height="860">
  <!-- svg-source:excalidraw -->
  
  <defs>
    <style class="style-fonts">
      @font-face {
        font-family: "Virgil";
        src: url("https://excalidraw.com/Virgil.woff2");
      }
      @font-face {
        font-family: "Cascadia";
        src: url("https://excalidraw.com/Cascadia.woff2");
      }
    </style>
    
  </defs>
  <rect x="0" y="0" width="1440" height="860" fill="#ffffff"></rect><g stroke-linecap="round" transform="translate(10 10) rotate(0 710 420)"><path d="M29.83 2.83 L1384.92 3.8 L1410.85 2.35 L1416.03 12.51 L1423.63 35.2 L1422.38 807.36 L1415.3 828.33 L1410.43 832.99 L1385.63 842.07 L35.27 839.39 L12.03 835.11 L-0.89 825.46 L-3.49 807.53 L2.77 33.46 L2.22 15.27 L7.22 10.52 L20.94 3.65 L30.05 1.16" stroke="none" stroke-width="0" fill="#fff"></path><path d="M32 0 M32 0 C491.79 -10.34, 949.19 -10.86, 1388 0 M32 0 C440.06 0.54, 849.55 1.74, 1388 0 M1388 0 C1407.96 -2.28, 1418.79 10.94, 1420 32 M1388 0 C1405.82 -2.32, 1415.65 13.88, 1420 32 M1420 32 C1419.7 270.22, 1419.28 509.41, 1420 808 M1420 32 C1416.8 194.35, 1418.07 356.18, 1420 808 M1420 808 C1417.79 832.32, 1409.45 837.19, 1388 840 M1420 808 C1422.53 829.32, 1409.72 840.01, 1388 840 M1388 840 C927.17 836.58, 466.52 835.95, 32 840 M1388 840 C1020 833.2, 652.51 833.69, 32 840 M32 840 C9.36 843.38, 2.68 829.31, 0 808 M32 840 C11.7 842.86, -0.47 833.36, 0 808 M0 808 C7.33 536.25, 7.41 264.51, 0 32 M0 808 C3.85 590.87, 4.31 372.77, 0 32 M0 32 C-0.53 10.34, 8.51 3.03, 32 0 M0 32 C2.2 7.54, 6.76 -2.06, 32 0" stroke="#1e1e1e" stroke-width="4" fill="none"></path></g><g stroke-linecap="round" transform="translate(90 50) rotate(0 160 78.5)"><path d="M223.26 7.72 C240.16 10.22, 255.25 15.41, 268.94 21.2 C282.63 27, 296.78 34.59, 305.41 42.48 C314.04 50.37, 319.12 59.51, 320.72 68.55 C322.32 77.59, 319.77 87.54, 315 96.71 C310.23 105.88, 302.12 116.34, 292.1 123.55 C282.09 130.75, 269.54 134.85, 254.92 139.95 C240.31 145.05, 221.83 151.04, 204.42 154.13 C187 157.22, 168.78 159.44, 150.45 158.49 C132.12 157.55, 111.53 152.02, 94.43 148.46 C77.34 144.91, 61.12 142.92, 47.9 137.15 C34.68 131.39, 23.13 122.31, 15.09 113.89 C7.04 105.46, 1.57 95.55, -0.35 86.6 C-2.28 77.65, -0.88 68.83, 3.54 60.16 C7.96 51.5, 16.12 42.07, 26.18 34.61 C36.23 27.14, 49.31 20.54, 63.87 15.37 C78.42 10.19, 96.05 6.39, 113.48 3.53 C130.91 0.67, 148.67 -2.73, 168.42 -1.81 C188.17 -0.89, 219.81 6.92, 232 9.06 C244.18 11.2, 242.82 10.14, 241.53 11.03 M115.54 0.5 C130.92 -2.93, 150.38 0.29, 168.59 1.17 C186.8 2.06, 207.74 2.66, 224.79 5.82 C241.83 8.98, 257.61 14.07, 270.85 20.14 C284.1 26.21, 296.09 34.27, 304.26 42.24 C312.43 50.21, 318.19 58.97, 319.87 67.96 C321.54 76.96, 319.26 87.14, 314.31 96.22 C309.36 105.31, 300.25 114.48, 290.17 122.48 C280.09 130.47, 268.68 138.89, 253.84 144.18 C239.01 149.47, 218.35 151.88, 201.17 154.22 C183.99 156.56, 168.75 158.95, 150.77 158.23 C132.79 157.5, 110.33 153.91, 93.3 149.85 C76.26 145.79, 61.66 139.98, 48.54 133.84 C35.42 127.71, 22.5 120.81, 14.59 113.03 C6.69 105.25, 3.08 96.39, 1.12 87.14 C-0.85 77.9, -1.53 66.76, 2.8 57.57 C7.13 48.38, 16.2 38.75, 27.09 32.03 C37.99 25.31, 53.15 21.64, 68.17 17.24 C83.2 12.84, 108.84 8.11, 117.24 5.63 C125.65 3.16, 117.55 1.23, 118.61 2.39" stroke="none" stroke-width="0" fill="#ffc9c9"></path><path d="M285.88 29 C298.79 35.21, 307.62 45.3, 313.13 54.18 C318.63 63.07, 319.46 73.51, 318.91 82.29 C318.35 91.07, 316.71 99, 309.8 106.87 C302.89 114.75, 290.11 122.85, 277.45 129.55 C264.79 136.25, 249.71 142.29, 233.83 147.06 C217.95 151.84, 199.86 156.93, 182.15 158.19 C164.45 159.46, 145.3 157.05, 127.6 154.66 C109.91 152.27, 91.87 148.39, 75.97 143.86 C60.06 139.32, 43.68 134.12, 32.17 127.46 C20.67 120.8, 12.38 112.69, 6.93 103.9 C1.49 95.11, -1.45 83.56, -0.47 74.73 C0.5 65.9, 5.98 58.86, 12.78 50.9 C19.58 42.95, 28.09 34.24, 40.33 26.99 C52.56 19.75, 70.15 11.79, 86.19 7.43 C102.22 3.06, 118.94 1.67, 136.53 0.8 C154.12 -0.06, 173.4 0.39, 191.71 2.23 C210.03 4.08, 227.59 4.79, 246.43 11.88 C265.26 18.96, 293.29 36.42, 304.72 44.75 C316.15 53.09, 317.2 61.51, 315.02 61.87 M110.7 5.95 C126.6 2.33, 146.01 -1.15, 164.35 -1.26 C182.68 -1.38, 203.54 1.64, 220.73 5.26 C237.92 8.89, 253.97 14.88, 267.47 20.47 C280.97 26.07, 293.5 31.31, 301.71 38.83 C309.93 46.35, 313.96 56.71, 316.77 65.61 C319.58 74.51, 322.39 83.21, 318.56 92.23 C314.73 101.26, 303.24 111.75, 293.8 119.76 C284.36 127.76, 275.44 134.5, 261.94 140.28 C248.43 146.06, 230.11 151.35, 212.77 154.41 C195.43 157.46, 176.04 159.27, 157.89 158.61 C139.74 157.95, 120.94 153.6, 103.86 150.45 C86.78 147.31, 69.63 145.23, 55.4 139.74 C41.17 134.25, 27.12 125.66, 18.5 117.51 C9.89 109.36, 5.87 99.82, 3.69 90.86 C1.52 81.89, 2.09 72.93, 5.45 63.71 C8.82 54.48, 14.35 43.14, 23.9 35.5 C33.45 27.86, 48.48 23.24, 62.76 17.87 C77.04 12.5, 101.65 5.36, 109.56 3.31 C117.48 1.25, 109.34 4, 110.25 5.56" stroke="#fa5252" stroke-width="4" fill="none"></path></g><g transform="translate(154.94104001015148 106.89211767685629) rotate(0 94.921875 21.600000000000364)"><text x="94.921875" y="0" font-family="Cascadia, Segoe UI Emoji" font-size="36px" fill="#1e1e1e" text-anchor="middle" style="white-space: pre;" direction="ltr" dominant-baseline="text-before-edge">Consumer1</text></g><g stroke-linecap="round" transform="translate(110 250) rotate(0 160 78.5)"><path d="M246.12 10.5 C262.72 13.79, 276.4 21.38, 287.29 28.55 C298.19 35.72, 306.2 44.54, 311.47 53.51 C316.74 62.48, 319.35 73.66, 318.9 82.36 C318.46 91.07, 315.48 97.64, 308.81 105.75 C302.15 113.86, 290.95 123.78, 278.9 131.04 C266.86 138.29, 252.74 145.42, 236.54 149.29 C220.35 153.16, 200.19 152.93, 181.75 154.26 C163.31 155.59, 143.81 158.65, 125.91 157.25 C108.02 155.85, 89.85 150.97, 74.38 145.86 C58.91 140.75, 44.29 133.68, 33.07 126.6 C21.85 119.51, 12.68 111.83, 7.06 103.36 C1.45 94.89, -1.11 84.75, -0.62 75.79 C-0.14 66.82, 3.37 57.76, 9.97 49.57 C16.57 41.37, 26.94 33.65, 38.99 26.63 C51.05 19.6, 66.26 11.65, 82.33 7.39 C98.39 3.13, 116.92 2.3, 135.38 1.08 C153.85 -0.14, 173.13 -2.23, 193.12 0.06 C213.1 2.34, 243.03 11.01, 255.28 14.8 C267.54 18.6, 267.89 21.64, 266.65 22.83 M41.39 24.42 C51.64 16.82, 69.21 11.13, 85.54 6.84 C101.88 2.54, 121.1 -0.1, 139.4 -1.35 C157.7 -2.6, 177.71 -2.7, 195.34 -0.66 C212.96 1.37, 230.24 5.62, 245.13 10.84 C260.02 16.05, 273.42 22.94, 284.68 30.63 C295.95 38.32, 307.28 48.37, 312.72 56.96 C318.15 65.54, 317.72 73.3, 317.29 82.13 C316.87 90.97, 316.91 101.79, 310.14 109.97 C303.38 118.16, 289.41 125.06, 276.7 131.25 C263.98 137.45, 250.05 142.92, 233.85 147.14 C217.64 151.37, 197.49 155.19, 179.46 156.62 C161.42 158.06, 143.56 158.05, 125.65 155.77 C107.74 153.49, 87.49 148.27, 71.98 142.95 C56.47 137.64, 43.02 130.29, 32.58 123.87 C22.13 117.46, 14.54 112.16, 9.3 104.47 C4.06 96.78, 0.39 87.41, 1.11 77.72 C1.84 68.03, 6.33 54.72, 13.64 46.35 C20.95 37.98, 40.23 30.72, 44.98 27.5 C49.72 24.29, 40.84 26.95, 42.12 27.08" stroke="none" stroke-width="0" fill="#ffc9c9"></path><path d="M60.5 17.5 C72.74 11.14, 94.82 5.81, 112.14 2.63 C129.45 -0.55, 146.57 -1.95, 164.38 -1.57 C182.19 -1.2, 201.83 0.93, 218.99 4.87 C236.15 8.82, 253.41 16.06, 267.33 22.09 C281.25 28.12, 293.82 33.66, 302.52 41.06 C311.22 48.45, 317.45 57.37, 319.53 66.46 C321.61 75.55, 319.11 86.44, 315.01 95.6 C310.9 104.76, 304.43 114.1, 294.92 121.42 C285.41 128.74, 272.02 133.9, 257.94 139.52 C243.85 145.14, 227.86 152.05, 210.44 155.15 C193.01 158.25, 171.63 159.04, 153.4 158.12 C135.16 157.2, 118.04 153.15, 101.03 149.62 C84.02 146.08, 65.39 142.54, 51.35 136.91 C37.31 131.28, 24.88 123.78, 16.79 115.84 C8.71 107.9, 5.16 98.34, 2.86 89.28 C0.57 80.21, -0.81 70.3, 3.03 61.43 C6.86 52.56, 12.89 44.86, 25.85 36.07 C38.82 27.27, 68.39 13.59, 80.82 8.67 C93.25 3.76, 99.56 4.9, 100.42 6.57 M253.02 13.63 C268.92 17.8, 281.57 26.79, 291.98 33.76 C302.39 40.72, 311.12 47.13, 315.48 55.42 C319.84 63.72, 319.49 74.53, 318.14 83.51 C316.79 92.49, 315.16 100.89, 307.37 109.29 C299.58 117.69, 284.12 127.15, 271.39 133.9 C258.67 140.66, 246.74 145.77, 231.02 149.81 C215.3 153.86, 195.29 157.12, 177.07 158.18 C158.86 159.24, 139.3 158.84, 121.71 156.16 C104.13 153.48, 86.71 147.03, 71.57 142.08 C56.44 137.13, 42.03 133.32, 30.9 126.46 C19.76 119.6, 9.5 109.84, 4.74 100.92 C-0.02 92, 0.34 82, 2.33 72.95 C4.31 63.91, 9.32 55.25, 16.65 46.65 C23.98 38.05, 33.47 27.74, 46.31 21.36 C59.15 14.97, 77.19 11.97, 93.68 8.34 C110.17 4.7, 127.49 0.53, 145.26 -0.46 C163.04 -1.46, 182.61 -0.15, 200.33 2.39 C218.05 4.93, 243.57 13.13, 251.6 14.8 C259.63 16.47, 249.99 11.95, 248.5 12.42" stroke="#fa5252" stroke-width="4" fill="none"></path></g><g transform="translate(174.94104001015148 306.8921176768563) rotate(0 94.921875 21.600000000000364)"><text x="94.921875" y="0" font-family="Cascadia, Segoe UI Emoji" font-size="36px" fill="#1e1e1e" text-anchor="middle" style="white-space: pre;" direction="ltr" dominant-baseline="text-before-edge">Consumer2</text></g><g stroke-linecap="round" transform="translate(110 450) rotate(0 160 78.5)"><path d="M67.18 14.03 C79.44 8.59, 99.17 6.86, 116.87 4.27 C134.58 1.67, 155.15 -2.07, 173.41 -1.54 C191.67 -1, 209.79 3.17, 226.45 7.5 C243.12 11.82, 260.55 18.47, 273.38 24.4 C286.21 30.33, 296.03 34.95, 303.43 43.09 C310.82 51.22, 316.11 63.87, 317.75 73.2 C319.39 82.53, 317.84 90.82, 313.24 99.07 C308.65 107.32, 300.47 115.41, 290.15 122.71 C279.84 130.01, 266.14 137.65, 251.35 142.84 C236.56 148.04, 219.07 151.55, 201.41 153.88 C183.75 156.22, 163.7 157.47, 145.38 156.85 C127.05 156.23, 108.09 154.26, 91.44 150.16 C74.79 146.07, 58.45 138.6, 45.49 132.28 C32.54 125.96, 21.08 120.28, 13.71 112.25 C6.34 104.23, 3.01 93.29, 1.28 84.11 C-0.45 74.93, -1.14 65.47, 3.31 57.16 C7.76 48.85, 6.68 43.62, 27.97 34.23 C49.27 24.84, 102.94 6.21, 131.08 0.83 C159.21 -4.55, 196.23 0.64, 196.77 1.94 M105.64 2.7 C121.29 -1.44, 142.74 -2.62, 160.79 -2.53 C178.85 -2.43, 197.32 -0.18, 213.97 3.29 C230.61 6.76, 246.53 11.97, 260.66 18.31 C274.79 24.66, 289.67 33.55, 298.73 41.35 C307.79 49.15, 311.51 56.41, 315.03 65.12 C318.56 73.83, 322.84 84.88, 319.88 93.61 C316.92 102.34, 306.78 110.16, 297.25 117.51 C287.73 124.85, 276.75 131.83, 262.75 137.68 C248.74 143.52, 230.31 149.25, 213.21 152.58 C196.12 155.9, 178.54 157.98, 160.19 157.63 C141.85 157.29, 120.41 154.07, 103.14 150.5 C85.88 146.93, 69.91 141.26, 56.6 136.19 C43.29 131.12, 32.16 126.99, 23.29 120.08 C14.42 113.17, 6.61 104.29, 3.38 94.73 C0.15 85.17, 0.39 71.63, 3.9 62.72 C7.41 53.8, 15.91 48.56, 24.42 41.25 C32.93 33.95, 41.65 25.4, 54.94 18.89 C68.23 12.38, 95.27 3.89, 104.16 2.19 C113.04 0.5, 106.99 7.05, 108.26 8.72" stroke="none" stroke-width="0" fill="#ffc9c9"></path><path d="M225.39 5.5 C241.76 7.98, 258.15 14.88, 271.39 21.75 C284.62 28.63, 296.6 38.62, 304.8 46.74 C312.99 54.87, 318.69 62.11, 320.55 70.51 C322.4 78.92, 320.99 88.27, 315.93 97.16 C310.88 106.05, 300.88 116.07, 290.22 123.84 C279.55 131.62, 266.65 138.89, 251.94 143.8 C237.23 148.72, 219.23 150.85, 201.94 153.34 C184.65 155.83, 166.44 159.12, 148.18 158.74 C129.92 158.36, 108.98 155.38, 92.39 151.05 C75.8 146.71, 61.71 139.2, 48.63 132.74 C35.54 126.27, 22.19 119.98, 13.88 112.25 C5.57 104.53, 0.01 95.33, -1.23 86.38 C-2.47 77.43, 1.62 67.44, 6.46 58.57 C11.3 49.71, 17.42 40.66, 27.81 33.18 C38.21 25.7, 53.74 19.05, 68.84 13.68 C83.94 8.31, 101.18 3.3, 118.4 0.95 C135.61 -1.39, 151.07 -2.55, 172.14 -0.39 C193.22 1.77, 229.5 10.32, 244.87 13.89 C260.23 17.46, 265.58 19.86, 264.32 21.03 M156.22 -1.93 C172.91 -3.76, 191.08 0.05, 208.46 2.89 C225.85 5.73, 246.42 9.35, 260.5 15.13 C274.59 20.9, 283.34 29.59, 293 37.56 C302.66 45.52, 314.01 53.96, 318.48 62.9 C322.96 71.84, 322.5 82.14, 319.85 91.19 C317.2 100.23, 311.1 109.73, 302.58 117.17 C294.06 124.6, 282.39 129.71, 268.72 135.79 C255.04 141.87, 237.99 149.88, 220.53 153.63 C203.08 157.38, 182.09 158.28, 164 158.27 C145.91 158.26, 128.75 156.48, 112 153.57 C95.25 150.66, 78.06 146.79, 63.51 140.81 C48.96 134.84, 34.26 125.3, 24.71 117.7 C15.16 110.11, 9.91 103.78, 6.21 95.25 C2.51 86.72, 0.28 75.5, 2.49 66.53 C4.69 57.55, 10.8 48.96, 19.46 41.38 C28.12 33.81, 40.97 27.48, 54.46 21.09 C67.94 14.7, 83.42 6.97, 100.36 3.03 C117.3 -0.9, 147.44 -2.04, 156.09 -2.53 C164.74 -3.03, 152.11 -1.27, 152.26 0.07" stroke="#fa5252" stroke-width="4" fill="none"></path></g><g transform="translate(174.94104001015148 506.8921176768563) rotate(0 94.921875 21.600000000000364)"><text x="94.921875" y="0" font-family="Cascadia, Segoe UI Emoji" font-size="36px" fill="#1e1e1e" text-anchor="middle" style="white-space: pre;" direction="ltr" dominant-baseline="text-before-edge">Consumer3</text></g><g stroke-linecap="round" transform="translate(110 650) rotate(0 160 78.5)"><path d="M130.76 -0.47 C147.42 -3.44, 167.54 -0.69, 185.63 1.34 C203.72 3.38, 223.54 7.74, 239.31 11.77 C255.07 15.79, 268.73 18.66, 280.21 25.5 C291.7 32.33, 301.81 43.98, 308.2 52.78 C314.58 61.58, 318.27 69.73, 318.5 78.28 C318.74 86.82, 315.57 95.67, 309.59 104.05 C303.61 112.44, 294.1 121.63, 282.62 128.57 C271.15 135.52, 256.51 141.19, 240.74 145.72 C224.98 150.26, 206.11 154.02, 188.03 155.78 C169.95 157.55, 150.34 158.13, 132.27 156.32 C114.19 154.5, 95.46 149.32, 79.57 144.91 C63.67 140.5, 48.38 136.57, 36.92 129.84 C25.47 123.11, 17.31 113.18, 10.83 104.53 C4.35 95.89, -1.57 86.56, -1.95 77.95 C-2.34 69.35, 2.09 61.18, 8.54 52.89 C14.98 44.59, 25.31 35.5, 36.7 28.18 C48.1 20.85, 57.01 13.71, 76.91 8.95 C96.8 4.19, 139.02 0.79, 156.09 -0.4 C173.15 -1.59, 179.56 0.4, 179.31 1.81 M59.35 15.69 C70.84 9.83, 89.28 6.28, 106.72 4.02 C124.17 1.75, 145.86 1.82, 164.04 2.08 C182.23 2.35, 198.49 2.46, 215.84 5.62 C233.19 8.78, 254.25 15.22, 268.15 21.05 C282.04 26.89, 290.88 33.19, 299.22 40.65 C307.56 48.1, 315.48 56.84, 318.17 65.78 C320.87 74.73, 318.97 85.27, 315.42 94.32 C311.86 103.36, 306.45 112.74, 296.84 120.04 C287.23 127.33, 272.15 133.03, 257.76 138.1 C243.38 143.18, 227.17 146.95, 210.54 150.49 C193.9 154.03, 175.97 158.72, 157.97 159.34 C139.98 159.97, 119.62 158.24, 102.57 154.23 C85.51 150.22, 68.99 141.29, 55.63 135.27 C42.28 129.25, 31.81 125.53, 22.45 118.11 C13.1 110.7, 2.93 100.39, -0.49 90.78 C-3.9 81.17, -2.33 68.9, 1.96 60.45 C6.24 52.01, 15.38 47.32, 25.24 40.12 C35.1 32.92, 55.14 20.48, 61.11 17.27 C67.08 14.06, 59.74 19.74, 61.04 20.85" stroke="none" stroke-width="0" fill="#ffc9c9"></path><path d="M44.38 26.31 C54.88 19.35, 73.61 12.1, 90.08 7.61 C106.55 3.13, 125.55 0.15, 143.21 -0.62 C160.88 -1.39, 178.66 0.47, 196.08 2.98 C213.5 5.49, 232.38 9.75, 247.73 14.43 C263.08 19.11, 277.05 23.75, 288.17 31.06 C299.29 38.38, 309.38 49.39, 314.46 58.31 C319.54 67.23, 319.8 76.25, 318.65 84.57 C317.51 92.89, 314.98 100.22, 307.58 108.24 C300.19 116.26, 287.36 125.85, 274.3 132.69 C261.24 139.53, 245.09 145.34, 229.24 149.28 C213.39 153.22, 197.06 155.56, 179.18 156.35 C161.3 157.15, 139.64 156.26, 121.95 154.04 C104.26 151.83, 88.01 148.19, 73.04 143.05 C58.08 137.92, 43.36 130.4, 32.16 123.23 C20.97 116.06, 11.5 108.09, 5.87 100.04 C0.24 91.99, -3.07 83.68, -1.62 74.93 C-0.17 66.19, 5.13 56.62, 14.57 47.57 C24 38.53, 45.67 25.82, 54.98 20.66 C64.28 15.5, 68.41 15.74, 70.39 16.6 M64 14.67 C75.94 8.76, 91.23 6.51, 108.66 4.16 C126.08 1.81, 149.59 0.03, 168.54 0.59 C187.5 1.14, 205.59 3.88, 222.39 7.47 C239.2 11.06, 255.81 16.57, 269.36 22.14 C282.92 27.72, 295.37 32.89, 303.74 40.92 C312.11 48.96, 317.69 61.07, 319.58 70.36 C321.48 79.65, 318.89 88.2, 315.12 96.64 C311.35 105.09, 306.16 113.58, 296.97 121.02 C287.79 128.46, 274.67 136.25, 260.02 141.26 C245.36 146.28, 226.36 148.38, 209.05 151.1 C191.74 153.82, 174.34 157.71, 156.15 157.56 C137.97 157.42, 117.19 153.77, 99.94 150.25 C82.7 146.72, 66.1 142.12, 52.68 136.41 C39.26 130.69, 27.99 124.31, 19.43 115.96 C10.87 107.61, 3.72 95.78, 1.31 86.3 C-1.1 76.82, 1.48 67.66, 4.96 59.09 C8.44 50.53, 12.36 42.44, 22.2 34.92 C32.03 27.39, 57.12 16.34, 64 13.95 C70.88 11.55, 62.45 18.69, 63.49 20.55" stroke="#fa5252" stroke-width="4" fill="none"></path></g><g transform="translate(174.94104001015148 706.8921176768563) rotate(0 94.921875 21.600000000000364)"><text x="94.921875" y="0" font-family="Cascadia, Segoe UI Emoji" font-size="36px" fill="#1e1e1e" text-anchor="middle" style="white-space: pre;" direction="ltr" dominant-baseline="text-before-edge">Consumer4</text></g><g stroke-linecap="round" transform="translate(890 350) rotate(0 250 70)"><path d="M28.76 -1.87 L466.32 0.56 L485.86 4.52 L490.84 10.18 L497.28 21.5 L501.56 106.45 L500.65 120.83 L485.83 137.46 L471.98 137.93 L34.33 141.9 L14.66 134.8 L4.63 123.62 L1.45 118.1 L0.19 23.57 L6.48 11.1 L16.32 3.84 L28.26 -1.31" stroke="none" stroke-width="0" fill="#ffec99"></path><path d="M32 0 M32 0 C150.04 -2.47, 264.78 -1.19, 468 0 M32 0 C161.86 -2.06, 290.32 -1.74, 468 0 M468 0 C491.55 -2.19, 496.11 11.3, 500 32 M468 0 C492.23 0.79, 502.25 13.05, 500 32 M500 32 C499.24 59.96, 503.85 83.72, 500 108 M500 32 C502.51 58.51, 501.35 82.77, 500 108 M500 108 C503.74 130.18, 490.49 138.88, 468 140 M500 108 C500.81 129.22, 491.17 141.64, 468 140 M468 140 C336.9 140.01, 208.22 142.95, 32 140 M468 140 C371.06 145.25, 274.69 144.16, 32 140 M32 140 C9.93 137.95, 3 129.69, 0 108 M32 140 C6.51 138.81, 0.67 131.06, 0 108 M0 108 C-2.18 82.69, -2 51, 0 32 M0 108 C0.64 89.53, 0.05 71.06, 0 32 M0 32 C0.25 7.49, 11.41 -3.76, 32 0 M0 32 C-4.54 7.02, 11.27 1.39, 32 0" stroke="#f08c00" stroke-width="2" fill="none"></path></g><g transform="translate(1045.078125 398.39999999999964) rotate(0 94.921875 21.600000000000364)"><text x="94.921875" y="0" font-family="Cascadia, Segoe UI Emoji" font-size="36px" fill="#1e1e1e" text-anchor="middle" style="white-space: pre;" direction="ltr" dominant-baseline="text-before-edge">Partition</text></g><g mask="url(#mask-Bei4HDQLwVIyPIhOr6Net)" stroke-linecap="round"><g transform="translate(410 130) rotate(0 240.76642522588372 119.71207863315885)"><path d="M-0.52 -1.87 C79.45 38.38, 402 201.17, 482.06 241.3" stroke="#1e1e1e" stroke-width="4.5" fill="none" stroke-dasharray="8 12"></path></g><g transform="translate(410 130) rotate(0 240.76642522588372 119.71207863315885)"><path d="M449.59 240.73 C465.37 238.99, 473.17 240.71, 485.71 237.9" stroke="#1e1e1e" stroke-width="4.5" fill="none"></path></g><g transform="translate(410 130) rotate(0 240.76642522588372 119.71207863315885)"><path d="M458.81 222.4 C471.08 227.56, 475.4 236.2, 485.71 237.9" stroke="#1e1e1e" stroke-width="4.5" fill="none"></path></g></g><mask id="mask-Bei4HDQLwVIyPIhOr6Net"><rect x="0" y="0" fill="#fff" width="990" height="470"></rect><rect x="592.578125" y="233.20000000000073" fill="#000" width="114.84375" height="33.6" opacity="1"></rect></mask><g transform="translate(592.578125 233.20000000000073) rotate(0 58.18830022588372 16.512078633158126)"><text x="57.421875" y="0" font-family="Cascadia, Segoe UI Emoji" font-size="28px" fill="#1e1e1e" text-anchor="middle" style="white-space: pre;" direction="ltr" dominant-baseline="text-before-edge">Record1</text></g><g mask="url(#mask-ImaLvQIzi-Muv0zQVEJWQ)" stroke-linecap="round"><g transform="translate(432.78024952188207 331.42467073425723) rotate(0 226.07924383021782 38.778928497060406)"><path d="M-2.78 -1.42 C72.87 11.52, 378.29 65.95, 454.94 78.98" stroke="#1e1e1e" stroke-width="4.5" fill="none" stroke-dasharray="8 12"></path></g><g transform="translate(432.78024952188207 331.42467073425723) rotate(0 226.07924383021782 38.778928497060406)"><path d="M423.37 80.98 C435.86 82.88, 442.61 79.6, 451.89 75.74" stroke="#1e1e1e" stroke-width="4.5" fill="none"></path></g><g transform="translate(432.78024952188207 331.42467073425723) rotate(0 226.07924383021782 38.778928497060406)"><path d="M426.9 60.77 C438.39 69.39, 443.95 72.9, 451.89 75.74" stroke="#1e1e1e" stroke-width="4.5" fill="none"></path></g></g><mask id="mask-ImaLvQIzi-Muv0zQVEJWQ"><rect x="0" y="0" fill="#fff" width="990" height="510"></rect><rect x="603.968249760941" y="353.91233536712934" fill="#000" width="114.84375" height="33.6" opacity="1"></rect></mask><g transform="translate(603.968249760941 353.91233536712934) rotate(0 54.891243591158855 16.291263864188295)"><text x="57.421875" y="0" font-family="Cascadia, Segoe UI Emoji" font-size="28px" fill="#1e1e1e" text-anchor="middle" style="white-space: pre;" direction="ltr" dominant-baseline="text-before-edge">Record1</text></g><g mask="url(#mask-YrZRsfEB0Oei7nsOVD8lI)" stroke-linecap="round"><g transform="translate(432.2295009352274 529.4396443270143) rotate(0 228.23484440185075 -49.02587823606973)"><path d="M-2.23 0.56 C73.93 -15.94, 381.86 -82.06, 458.7 -98.61" stroke="#1e1e1e" stroke-width="4.5" fill="none" stroke-dasharray="8 12"></path></g><g transform="translate(432.2295009352274 529.4396443270143) rotate(0 228.23484440185075 -49.02587823606973)"><path d="M434.1 -81.33 C443.63 -86.59, 452.66 -95.96, 460.6 -101.31" stroke="#1e1e1e" stroke-width="4.5" fill="none"></path></g><g transform="translate(432.2295009352274 529.4396443270143) rotate(0 228.23484440185075 -49.02587823606973)"><path d="M429.78 -101.39 C440.94 -99.32, 451.53 -101.42, 460.6 -101.31" stroke="#1e1e1e" stroke-width="4.5" fill="none"></path></g></g><mask id="mask-YrZRsfEB0Oei7nsOVD8lI"><rect x="0" y="0" fill="#fff" width="990" height="728.8792886540286"></rect><rect x="603.6928754676137" y="462.9198221635088" fill="#000" width="114.84375" height="33.6" opacity="1"></rect></mask><g transform="translate(603.6928754676137 462.9198221635088) rotate(0 56.771469869464454 17.493943927435794)"><text x="57.421875" y="0" font-family="Cascadia, Segoe UI Emoji" font-size="28px" fill="#1e1e1e" text-anchor="middle" style="white-space: pre;" direction="ltr" dominant-baseline="text-before-edge">Record1</text></g><g mask="url(#mask-Cuwk8bS4VuBIiiCAKu9OK)" stroke-linecap="round"><g transform="translate(428.38070937618613 730.0222978807979) rotate(0 231.04878860972804 -130.72501980923062)"><path d="M1.62 -0.02 C78.23 -43.63, 383.51 -217.63, 460.48 -261.43" stroke="#1e1e1e" stroke-width="4.5" fill="none" stroke-dasharray="8 12"></path></g><g transform="translate(428.38070937618613 730.0222978807979) rotate(0 231.04878860972804 -130.72501980923062)"><path d="M441.03 -240.19 C445.4 -243.7, 449.79 -254.95, 457.84 -258.56" stroke="#1e1e1e" stroke-width="4.5" fill="none"></path></g><g transform="translate(428.38070937618613 730.0222978807979) rotate(0 231.04878860972804 -130.72501980923062)"><path d="M430.87 -258.02 C438.61 -255.79, 446.34 -261.18, 457.84 -258.56" stroke="#1e1e1e" stroke-width="4.5" fill="none"></path></g></g><mask id="mask-Cuwk8bS4VuBIiiCAKu9OK"><rect x="0" y="0" fill="#fff" width="990" height="1090.0445957615957"></rect><rect x="601.7684796880931" y="583.2111489403997" fill="#000" width="114.84375" height="33.6" opacity="1"></rect></mask><g transform="translate(601.7684796880931 583.2111489403997) rotate(0 57.6610182978211 16.08612913116758)"><text x="57.421875" y="0" font-family="Cascadia, Segoe UI Emoji" font-size="28px" fill="#1e1e1e" text-anchor="middle" style="white-space: pre;" direction="ltr" dominant-baseline="text-before-edge">Record1</text></g></svg>