<svg version="1.1" xmlns="http://www.w3.org/2000/svg" viewBox="0 0 1340 520" width="1340" height="520">
  <!-- svg-source:excalidraw -->
  
  <defs>
    <style class="style-fonts">
      @font-face {
        font-family: "Virgil";
        src: url("https://excalidraw.com/Virgil.woff2");
      }
      @font-face {
        font-family: "Cascadia";
        src: url("https://excalidraw.com/Cascadia.woff2");
      }
    </style>
    
  </defs>
  <rect x="0" y="0" width="1340" height="520" fill="#ffffff"></rect><g stroke-linecap="round" transform="translate(10 10) rotate(0 660 250)"><path d="M32.15 -1.66 L1287.88 0.67 L1305.38 -1.34 L1317.77 13.14 L1316.95 35.79 L1323.38 471.34 L1321.77 481.91 L1308.91 498.16 L1291.35 502.6 L35.2 501.84 L21.85 500.81 L4.71 485.03 L2.02 464.86 L0.53 35.74 L1.27 20.45 L4.85 11.85 L19.63 4.65 L30.52 -1.37" stroke="none" stroke-width="0" fill="#fff"></path><path d="M32 0 M32 0 C525.01 0.02, 1020.28 2.22, 1288 0 M32 0 C348.71 -5.03, 664.56 -5.84, 1288 0 M1288 0 C1312.53 3.65, 1320.39 13.24, 1320 32 M1288 0 C1311.02 -0.86, 1323.21 15.2, 1320 32 M1320 32 C1318.81 188.6, 1317.39 340.41, 1320 468 M1320 32 C1322.67 168.81, 1322.76 306.25, 1320 468 M1320 468 C1321.24 492.53, 1310.85 503.01, 1288 500 M1320 468 C1324.43 484.87, 1310.22 498.22, 1288 500 M1288 500 C1018.99 494.32, 750.48 496.52, 32 500 M1288 500 C1003.84 500.83, 719.03 500.94, 32 500 M32 500 C7.2 503.74, -3.14 486.55, 0 468 M32 500 C9.68 502.78, 0.94 484.98, 0 468 M0 468 C-5.28 367.57, -3.8 263.06, 0 32 M0 468 C0.99 310.27, -0.04 151.4, 0 32 M0 32 C-1.63 12.06, 10.61 3.95, 32 0 M0 32 C-3.05 9.85, 12.62 0.57, 32 0" stroke="#1e1e1e" stroke-width="2" fill="none"></path></g><g stroke-linecap="round" transform="translate(50 70) rotate(0 230 40)"><path d="M21.68 -1.12 L441.71 1.95 L456.11 4.35 L461.49 12.04 L461.91 65.53 L457.16 76.73 L446.95 81 L441.79 83.04 L14.21 83.51 L4.6 77.85 L0.01 67.96 L2.92 23.93 L2.14 10.65 L5.58 8.52 L12.22 2.04 L18.8 3.53" stroke="none" stroke-width="0" fill="#ffd8a8"></path><path d="M20 0 M20 0 C179.84 -5.2, 342.24 -3.55, 440 0 M20 0 C144.13 3.59, 269.42 4.35, 440 0 M440 0 C456.83 -2.83, 460.42 10.11, 460 20 M440 0 C450.66 0.48, 456.76 3.34, 460 20 M460 20 C456.64 34.51, 457.22 47.01, 460 60 M460 20 C459.19 34.68, 460.23 51.19, 460 60 M460 60 C460.7 69.74, 452.31 76.94, 440 80 M460 60 C462.22 70.6, 454.99 79.35, 440 80 M440 80 C330.11 82.65, 222.68 79.61, 20 80 M440 80 C273.55 82.14, 105.42 83.05, 20 80 M20 80 C4.17 76.99, -1.52 70.87, 0 60 M20 80 C3.77 79.23, 1.21 71.66, 0 60 M0 60 C3.27 47.34, -2.68 30.56, 0 20 M0 60 C-0.61 47.42, 0.06 36.28, 0 20 M0 20 C-1.68 9.73, 10.02 0.23, 20 0 M0 20 C-3.47 10.31, 8.01 -1.77, 20 0" stroke="#f08c00" stroke-width="4" fill="none"></path></g><g transform="translate(174.53125 88.39999999999964) rotate(0 105.46875 21.600000000000364)"><text x="105.46875" y="0" font-family="Cascadia, Segoe UI Emoji" font-size="36px" fill="#1e1e1e" text-anchor="middle" style="white-space: pre;" direction="ltr" dominant-baseline="text-before-edge">Consumer 1</text></g><g stroke-linecap="round" transform="translate(50 210) rotate(0 230 40)"><path d="M21.11 -0.65 L447.43 1.1 L457.22 5.84 L460.91 12.98 L457.89 66.94 L456.79 78.04 L447.65 82.58 L436.79 80.67 L14.08 78.89 L10.73 81.12 L2.14 68.15 L0.58 23.52 L2.22 12.04 L3.8 8.53 L14.61 2.39 L23.22 -2.62" stroke="none" stroke-width="0" fill="#ffd8a8"></path><path d="M20 0 M20 0 C114.41 1.74, 207.12 -2.06, 440 0 M20 0 C139.8 -3.18, 257.85 -1.5, 440 0 M440 0 C451.01 0.42, 457.18 3.77, 460 20 M440 0 C452.94 -3.02, 463.87 3.4, 460 20 M460 20 C462.55 32.11, 460.15 49.18, 460 60 M460 20 C460.66 29.57, 459.8 41.2, 460 60 M460 60 C461.93 70.96, 454.77 79.43, 440 80 M460 60 C458.15 73.23, 455.02 78.22, 440 80 M440 80 C296.18 76.24, 149.27 77.56, 20 80 M440 80 C321.5 82.15, 203.94 82.3, 20 80 M20 80 C4.15 79.33, 1.05 71.88, 0 60 M20 80 C10.13 77.33, -0.89 76.56, 0 60 M0 60 C1.46 42.05, -0.31 28.63, 0 20 M0 60 C-0.58 49.04, 1.94 35.13, 0 20 M0 20 C-3.01 9.83, 7.84 -1.54, 20 0 M0 20 C3.94 3.01, 10.73 -2, 20 0" stroke="#f08c00" stroke-width="4" fill="none"></path></g><g transform="translate(174.53125 228.39999999999964) rotate(0 105.46875 21.600000000000364)"><text x="105.46875" y="0" font-family="Cascadia, Segoe UI Emoji" font-size="36px" fill="#1e1e1e" text-anchor="middle" style="white-space: pre;" direction="ltr" dominant-baseline="text-before-edge">Consumer 2</text></g><g stroke-linecap="round" transform="translate(50 350) rotate(0 230 40)"><path d="M22.22 0.84 L446.85 2.04 L453.2 7.25 L460.54 14.29 L458.59 68.51 L451.79 75.67 L447.51 77.96 L442.92 83.93 L16.2 79.09 L8.4 80.71 L2.22 69.54 L-1.2 23.53 L4.61 12.39 L8.22 2.38 L8.25 0.83 L20.1 -0.09" stroke="none" stroke-width="0" fill="#ffd8a8"></path><path d="M20 0 M20 0 C182.15 2.49, 346.18 5.95, 440 0 M20 0 C115.69 -3.75, 211.87 -4.63, 440 0 M440 0 C452.99 -2.62, 463.37 3.83, 460 20 M440 0 C456.61 -2.59, 464.24 10.11, 460 20 M460 20 C459.49 30.81, 462.52 39.22, 460 60 M460 20 C460.76 27.22, 460.51 36.52, 460 60 M460 60 C458.39 73.24, 454.8 78.45, 440 80 M460 60 C462.18 75.08, 448.96 84.53, 440 80 M440 80 C303.9 84.11, 170.03 82.49, 20 80 M440 80 C344.88 77.06, 251.39 76.85, 20 80 M20 80 C9.68 77.68, -0.77 76.14, 0 60 M20 80 C9.37 76.38, 0.67 74.28, 0 60 M0 60 C0.68 50.29, 4.06 41.51, 0 20 M0 60 C-2.18 46.52, -0.09 29.11, 0 20 M0 20 C3.42 3.49, 10.2 -1.74, 20 0 M0 20 C-4.21 3.68, 9.5 -3.79, 20 0" stroke="#f08c00" stroke-width="4" fill="none"></path></g><g transform="translate(174.53125 368.39999999999964) rotate(0 105.46875 21.600000000000364)"><text x="105.46875" y="0" font-family="Cascadia, Segoe UI Emoji" font-size="36px" fill="#1e1e1e" text-anchor="middle" style="white-space: pre;" direction="ltr" dominant-baseline="text-before-edge">Consumer 3</text></g><g stroke-linecap="round" transform="translate(790 90) rotate(0 240 150)"><path d="M30.2 2.25 L449.79 3.04 L466.4 8.33 L472.29 13.17 L478.76 31.21 L482.92 271.93 L476.39 286.9 L468.08 299.02 L448.97 300.79 L30.8 303.53 L15.86 296.64 L5.22 279.38 L-3 267.58 L0.1 31.91 L5.48 14.63 L4.36 7.32 L15.01 4.16 L35.5 -2.83" stroke="none" stroke-width="0" fill="#a5d8ff"></path><path d="M32 0 M32 0 C161.44 1.09, 288.86 2.43, 448 0 M32 0 C130.28 2.58, 228.02 3.99, 448 0 M448 0 C466.6 0.61, 479.48 10.03, 480 32 M448 0 C471.11 2.75, 480.8 6.53, 480 32 M480 32 C474.97 97.95, 476.49 160.12, 480 268 M480 32 C482.25 102.91, 479.86 174.2, 480 268 M480 268 C480.92 291.43, 472.74 299.22, 448 300 M480 268 C480.63 292.37, 466.46 296.54, 448 300 M448 300 C338.66 297.74, 229.26 298.8, 32 300 M448 300 C347.99 302.3, 246.87 303.38, 32 300 M32 300 C7.07 299.06, -2.66 289.82, 0 268 M32 300 C9.16 304.45, -1.93 292.85, 0 268 M0 268 C2.43 178.38, -1.52 89.67, 0 32 M0 268 C-5.04 214.87, -2.47 162.54, 0 32 M0 32 C3.07 14.35, 13.28 -3.77, 32 0 M0 32 C4.11 10.43, 7.5 -3.83, 32 0" stroke="#1971c2" stroke-width="4" fill="none"></path></g><g transform="translate(945.625 218.39999999999964) rotate(0 84.375 21.600000000000364)"><text x="84.375" y="0" font-family="Cascadia, Segoe UI Emoji" font-size="36px" fill="#1e1e1e" text-anchor="middle" style="white-space: pre;" direction="ltr" dominant-baseline="text-before-edge">Broker 1</text></g><g mask="url(#mask-CrzLnoGv9n6VPpAUjomLf)" stroke-linecap="round"><g transform="translate(787.2649323366568 193.10191123619734) rotate(0 -141.5564136840403 -41.02148651286916)"><path d="M-2.25 0.47 C-48.93 -13.73, -234.91 -69.23, -280.86 -82.51" stroke="#1e1e1e" stroke-width="4.5" fill="none" stroke-dasharray="8 12"></path></g><g transform="translate(787.2649323366568 193.10191123619734) rotate(0 -141.5564136840403 -41.02148651286916)"><path d="M-250.26 -85.62 C-259.84 -81.44, -263.28 -82.96, -281.47 -81.93" stroke="#1e1e1e" stroke-width="4.5" fill="none"></path></g><g transform="translate(787.2649323366568 193.10191123619734) rotate(0 -141.5564136840403 -41.02148651286916)"><path d="M-256.06 -65.94 C-264.43 -67.02, -266.29 -73.91, -281.47 -81.93" stroke="#1e1e1e" stroke-width="4.5" fill="none"></path></g></g><mask id="mask-CrzLnoGv9n6VPpAUjomLf"><rect x="0" y="0" fill="#fff" width="1167.2649323366568" height="375.0549996425216"></rect><rect x="614.4524323366568" y="135.32536703303595" fill="#000" width="65.625" height="33.6" opacity="1"></rect></mask><g transform="translate(614.4524323366568 135.32536703303595) rotate(0 31.256086315959692 16.755057690292233)"><text x="32.8125" y="0" font-family="Cascadia, Segoe UI Emoji" font-size="28px" fill="#1e1e1e" text-anchor="middle" style="white-space: pre;" direction="ltr" dominant-baseline="text-before-edge">Push</text></g><g mask="url(#mask-VsakCsRI9gU15O2S-jHeb)" stroke-linecap="round"><g transform="translate(789 243.2135815380134) rotate(0 -137.66769770160317 3.017511465664029)"><path d="M2.04 2.75 C-44.04 3.39, -230.77 2.72, -277.38 3.29" stroke="#1e1e1e" stroke-width="4.5" fill="none" stroke-dasharray="8 12"></path></g><g transform="translate(789 243.2135815380134) rotate(0 -137.66769770160317 3.017511465664029)"><path d="M-245.3 -6.18 C-257.44 -3.29, -260.9 -0.11, -276.59 2.09" stroke="#1e1e1e" stroke-width="4.5" fill="none"></path></g><g transform="translate(789 243.2135815380134) rotate(0 -137.66769770160317 3.017511465664029)"><path d="M-245.23 14.34 C-257.31 11.71, -260.78 9.36, -276.59 2.09" stroke="#1e1e1e" stroke-width="4.5" fill="none"></path></g></g><mask id="mask-VsakCsRI9gU15O2S-jHeb"><rect x="0" y="0" fill="#fff" width="1167" height="346.9201126429871"></rect><rect x="617.1875" y="228.26684709050096" fill="#000" width="65.625" height="33.6" opacity="1"></rect></mask><g transform="translate(617.1875 228.26684709050096) rotate(0 34.144802298396826 17.964245913176455)"><text x="32.8125" y="0" font-family="Cascadia, Segoe UI Emoji" font-size="28px" fill="#1e1e1e" text-anchor="middle" style="white-space: pre;" direction="ltr" dominant-baseline="text-before-edge">Push</text></g><g mask="url(#mask-74OzYDti31TnJyYpUgj3w)" stroke-linecap="round"><g transform="translate(789 298.5034220628986) rotate(0 -138.45558389201778 47.259317812619884)"><path d="M0.41 2.47 C-45.91 17.88, -230.78 76.8, -277.32 92.05" stroke="#1e1e1e" stroke-width="4.5" fill="none" stroke-dasharray="8 12"></path></g><g transform="translate(789 298.5034220628986) rotate(0 -138.45558389201778 47.259317812619884)"><path d="M-250.12 74.6 C-260.54 78.43, -265.43 88.92, -276.18 95.27" stroke="#1e1e1e" stroke-width="4.5" fill="none"></path></g><g transform="translate(789 298.5034220628986) rotate(0 -138.45558389201778 47.259317812619884)"><path d="M-243.82 94.13 C-256.2 91.69, -263.13 95.89, -276.18 95.27" stroke="#1e1e1e" stroke-width="4.5" fill="none"></path></g></g><mask id="mask-74OzYDti31TnJyYpUgj3w"><rect x="0" y="0" fill="#fff" width="1167" height="490.0021608515599"></rect><rect x="617.1875" y="327.45279145723" fill="#000" width="65.625" height="33.6" opacity="1"></rect></mask><g transform="translate(617.1875 327.45279145723) rotate(0 33.356916107982215 18.309948418288513)"><text x="32.8125" y="0" font-family="Cascadia, Segoe UI Emoji" font-size="28px" fill="#1e1e1e" text-anchor="middle" style="white-space: pre;" direction="ltr" dominant-baseline="text-before-edge">Push</text></g><g stroke-linecap="round" transform="translate(810 110) rotate(0 60 30)"><path d="M12.07 -2.16 L105.33 -2.87 L111.44 -1.67 L121.89 12.01 L116.52 42.55 L118.34 56.28 L113.09 55.6 L101.82 57.54 L16.41 61.97 L3.23 61.57 L1.61 49.46 L-2.87 14.36 L0.68 6.41 L17.78 -1.17" stroke="none" stroke-width="0" fill="#eaddd7"></path><path d="M15 0 M15 0 C48.84 0.87, 78.68 -3.04, 105 0 M15 0 C39.95 -0.21, 62.24 -0.03, 105 0 M105 0 C114.7 -3.73, 117.12 1.85, 120 15 M105 0 C112.93 4.12, 121.07 0.62, 120 15 M120 15 C116.63 22.99, 118.8 36.5, 120 45 M120 15 C119.17 25.04, 121.33 35.21, 120 45 M120 45 C118.86 58.53, 116.46 56.47, 105 60 M120 45 C117.83 51.82, 115.25 62.31, 105 60 M105 60 C75.82 62.34, 35.63 60.32, 15 60 M105 60 C68.69 60.21, 34.88 61.34, 15 60 M15 60 C1.24 58.5, 0.07 58.6, 0 45 M15 60 C9.37 59.29, 1.16 56.95, 0 45 M0 45 C-2.52 30.42, 3.2 23.14, 0 15 M0 45 C-1.95 35.46, 0.42 22.87, 0 15 M0 15 C3.18 7.64, 4.75 3.12, 15 0 M0 15 C2.07 7.31, 7.13 -2.17, 15 0" stroke="#1e1e1e" stroke-width="1" fill="none"></path></g><g transform="translate(837.1875 123.20000000000073) rotate(0 32.8125 16.800000000000182)"><text x="32.8125" y="0" font-family="Cascadia, Segoe UI Emoji" font-size="28px" fill="#1e1e1e" text-anchor="middle" style="white-space: pre;" direction="ltr" dominant-baseline="text-before-edge">Push</text></g></svg>