<svg version="1.1" xmlns="http://www.w3.org/2000/svg" viewBox="0 0 980 620" width="980" height="620">
  <!-- svg-source:excalidraw -->
  
  <defs>
    <style class="style-fonts">
      @font-face {
        font-family: "Virgil";
        src: url("https://excalidraw.com/Virgil.woff2");
      }
      @font-face {
        font-family: "Cascadia";
        src: url("https://excalidraw.com/Cascadia.woff2");
      }
    </style>
    
  </defs>
  <rect x="0" y="0" width="980" height="620" fill="#ffffff"></rect><g stroke-linecap="round" transform="translate(10 10) rotate(0 480 300)"><path d="M30.96 -1.79 L927.46 -2.09 L948.02 7.63 L953.85 12.01 L961.75 28.51 L957.35 570.08 L958.39 585 L947.92 595.57 L925.58 597.88 L32.87 596.56 L9.34 597.54 L-0.59 585.27 L-2.95 571 L2.1 32.52 L5.97 16.41 L8.4 9.28 L18.73 0.54 L31.12 3.14" stroke="none" stroke-width="0" fill="#fff"></path><path d="M32 0 M32 0 C385.31 -4.75, 740.46 -6.02, 928 0 M32 0 C381.44 1.24, 729.2 0.67, 928 0 M928 0 C952.18 3.01, 962.14 11.94, 960 32 M928 0 C947.22 4.55, 956.3 11.16, 960 32 M960 32 C955.46 242.5, 955.95 452.68, 960 568 M960 32 C955.71 197.21, 956.66 364.61, 960 568 M960 568 C962.47 591.45, 951.15 597.02, 928 600 M960 568 C959.59 588.01, 950.2 597.89, 928 600 M928 600 C578.5 594.69, 232.42 596.6, 32 600 M928 600 C732.64 598.95, 537.79 599.35, 32 600 M32 600 C8.42 599.45, -0.99 588.07, 0 568 M32 600 C7.36 600.21, -1.04 585.06, 0 568 M0 568 C-1.27 418.43, -0.03 264.53, 0 32 M0 568 C0.08 420.35, -0.15 274.48, 0 32 M0 32 C0.86 14.56, 14.41 0.54, 32 0 M0 32 C2.6 14.77, 11.67 0.17, 32 0" stroke="#1e1e1e" stroke-width="2" fill="none"></path></g><g stroke-linecap="round" transform="translate(70 110) rotate(0 150 47)"><path d="M22.09 1.7 L289.87 1.74 L291.05 7.19 L300.03 20.58 L294.89 77.74 L291.77 92.29 L274.85 93.26 L16.75 92.12 L2.87 84.37 L3.91 72.28 L3.36 19.28 L4.29 5.91 L12.86 0.44 L24.03 3.39" stroke="none" stroke-width="0" fill="#ffd8a8"></path><path d="M23.5 0 M23.5 0 C118.55 -5.48, 216.05 -3.86, 276.5 0 M23.5 0 C99.41 -2.79, 176.46 -1.86, 276.5 0 M276.5 0 C294.55 1.27, 299.88 11.36, 300 23.5 M276.5 0 C296.7 -0.19, 301.97 11.57, 300 23.5 M300 23.5 C298.7 34.97, 297.46 44, 300 70.5 M300 23.5 C300.08 39.67, 302.15 56.93, 300 70.5 M300 70.5 C302.77 87.12, 292.13 95.32, 276.5 94 M300 70.5 C299.79 85.24, 296.66 92.96, 276.5 94 M276.5 94 C201.58 96.3, 118.91 93.57, 23.5 94 M276.5 94 C203.52 95.02, 129.78 93.87, 23.5 94 M23.5 94 C4.34 94.63, 3.34 85.68, 0 70.5 M23.5 94 C11.76 95.77, -2.92 83.74, 0 70.5 M0 70.5 C-0.26 56.78, 0.97 42.24, 0 23.5 M0 70.5 C1.23 60.12, -2.05 45.05, 0 23.5 M0 23.5 C0.9 11.14, 7.63 3.52, 23.5 0 M0 23.5 C1.42 10.56, 5.39 -3.41, 23.5 0" stroke="#f08c00" stroke-width="4" fill="none"></path></g><g transform="translate(135.625 135.39999999999964) rotate(0 84.375 21.600000000000364)"><text x="84.375" y="0" font-family="Cascadia, Segoe UI Emoji" font-size="36px" fill="#1e1e1e" text-anchor="middle" style="white-space: pre;" direction="ltr" dominant-baseline="text-before-edge">Consumer</text></g><g stroke-linecap="round" transform="translate(610 450) rotate(0 150 50)"><path d="M25.6 0.09 L288.41 3.73 L298.32 11.61 L302.72 19.2 L298.77 82.47 L288.57 93 L277.09 101.55 L11.92 98.66 L4.75 92.66 L1.12 77.39 L-1.28 18.41 L9.66 9.64 L17.76 3.46 L24.72 -0.62" stroke="none" stroke-width="0" fill="#a5d8ff"></path><path d="M25 0 M25 0 C116.3 1.97, 203.28 2.71, 275 0 M25 0 C77.08 1.52, 129.53 1.92, 275 0 M275 0 C293.49 -3.7, 296.7 11.64, 300 25 M275 0 C289.07 -1.59, 296.76 7.46, 300 25 M300 25 C302.52 36.2, 300.2 48.98, 300 75 M300 25 C298.55 39.62, 299.89 54.62, 300 75 M300 75 C299.21 95.17, 292.13 101.28, 275 100 M300 75 C299.69 93.68, 291.91 103.55, 275 100 M275 100 C184.79 99.52, 92.02 102.48, 25 100 M275 100 C197.83 96.8, 124.22 97.3, 25 100 M25 100 C10.86 101.48, 3.37 88.06, 0 75 M25 100 C11.48 96.67, 2.32 91.36, 0 75 M0 75 C-1.25 60.26, -4.1 41.05, 0 25 M0 75 C2.25 59.51, -0.24 40.86, 0 25 M0 25 C-2.94 12.31, 8.91 -0.36, 25 0 M0 25 C-0.53 9.7, 4.62 3.92, 25 0" stroke="#1971c2" stroke-width="4" fill="none"></path></g><g transform="translate(696.71875 478.39999999999964) rotate(0 63.28125 21.600000000000364)"><text x="63.28125" y="0" font-family="Cascadia, Segoe UI Emoji" font-size="36px" fill="#1e1e1e" text-anchor="middle" style="white-space: pre;" direction="ltr" dominant-baseline="text-before-edge">Broker</text></g><g stroke-linecap="round" transform="translate(590 50) rotate(0 150 110)"><path d="M192.08 26.54 L275.64 94.22 L287.28 109.2 L294.2 113.71 L287.24 115.72 L271.78 126.65 L164.11 210.99 L147.56 214.52 L130.26 201.69 L22.01 128.25 L11.73 115.56 L14.64 108.99 L20.29 95.79 L137.7 10.16 L154.73 8.78 L155.98 8.07 L185.68 30.57" stroke="none" stroke-width="0" fill="#ffc9c9"></path><path d="M188.75 27.75 M188.75 27.75 C207.73 42.9, 222.14 58.64, 262.25 83.25 M188.75 27.75 C216.21 48.65, 245.41 70.18, 262.25 83.25 M262.25 83.25 C301.74 112.62, 301.06 109.71, 262.25 138.75 M262.25 83.25 C295.67 114.69, 298.23 110.26, 262.25 138.75 M262.25 138.75 C238.62 154.95, 212.35 171.59, 188.75 192.25 M262.25 138.75 C245 152.02, 226.22 165.13, 188.75 192.25 M188.75 192.25 C147.44 216.07, 148.32 217.28, 113.25 192.25 M188.75 192.25 C148.13 217.43, 154.61 220.81, 113.25 192.25 M113.25 192.25 C101.59 183.53, 85.27 171.13, 37.75 138.75 M113.25 192.25 C93.61 177.31, 76.52 163.3, 37.75 138.75 M37.75 138.75 C0.26 114.71, -2.9 113.26, 37.75 83.25 M37.75 138.75 C0.77 111.68, -3.68 111.09, 37.75 83.25 M37.75 83.25 C57.45 71.41, 74.43 53.67, 113.25 27.75 M37.75 83.25 C53.36 70.5, 67.84 61.01, 113.25 27.75 M113.25 27.75 C148.98 1.81, 149.16 0.79, 188.75 27.75 M113.25 27.75 C151.83 -4.07, 155.53 -0.4, 188.75 27.75" stroke="#fa5252" stroke-width="2" fill="none"></path></g><g transform="translate(670.984375 143.20000000000073) rotate(0 69.015625 16.800000000000182)"><text x="69.015625" y="0" font-family="Cascadia, Segoe UI Emoji" font-size="28px" fill="#1e1e1e" text-anchor="middle" style="white-space: pre;" direction="ltr" dominant-baseline="text-before-edge">Push 组件</text></g><g mask="url(#mask-4xl8bjfXYzCQlRx7uSrKM)" stroke-linecap="round"><g transform="translate(750.7475267626342 268.5233027599752) rotate(0 -0.3069282999722418 92.00616905465722)"><path d="M0.13 1.48 C0.19 31.44, -0.51 152.7, -0.75 182.54" stroke="#1e1e1e" stroke-width="2.5" fill="none" stroke-dasharray="8 10"></path></g><g transform="translate(750.7475267626342 268.5233027599752) rotate(0 -0.3069282999722418 92.00616905465722)"><path d="M-8.71 153.21 C-4.03 159.78, -4.33 165.43, -4.5 184.79" stroke="#1e1e1e" stroke-width="2.5" fill="none"></path></g><g transform="translate(750.7475267626342 268.5233027599752) rotate(0 -0.3069282999722418 92.00616905465722)"><path d="M11.81 153.34 C11.16 159.9, 5.54 165.52, -4.5 184.79" stroke="#1e1e1e" stroke-width="2.5" fill="none"></path></g></g><mask id="mask-4xl8bjfXYzCQlRx7uSrKM"><rect x="0" y="0" fill="#fff" width="850.7475267626342" height="548.5233027599752"></rect><rect x="717.9350267626342" y="341.7233027599759" fill="#000" width="65.625" height="33.6" opacity="1"></rect></mask><g transform="translate(717.9350267626342 341.7233027599759) rotate(0 32.50557170002776 18.806169054656493)"><text x="32.8125" y="0" font-family="Cascadia, Segoe UI Emoji" font-size="28px" fill="#1e1e1e" text-anchor="middle" style="white-space: pre;" direction="ltr" dominant-baseline="text-before-edge">Pull</text></g><g mask="url(#mask-Znv20dp_nAktfBXa2a9rJ)" stroke-linecap="round"><g transform="translate(590 150) rotate(0 -107.98258028253895 -0.6251495040896771)"><path d="M1.81 -0.04 C-34.93 0.13, -181.17 -1.23, -217.77 -1.22" stroke="#1e1e1e" stroke-width="2.5" fill="none" stroke-dasharray="8 10"></path></g><g transform="translate(590 150) rotate(0 -107.98258028253895 -0.6251495040896771)"><path d="M-189.59 -9.58 C-202.56 -5.26, -211.93 -3.21, -216.8 2.12" stroke="#1e1e1e" stroke-width="2.5" fill="none"></path></g><g transform="translate(590 150) rotate(0 -107.98258028253895 -0.6251495040896771)"><path d="M-189.69 10.94 C-202.29 7.18, -211.62 1.16, -216.8 2.12" stroke="#1e1e1e" stroke-width="2.5" fill="none"></path></g></g><mask id="mask-Znv20dp_nAktfBXa2a9rJ"><rect x="0" y="0" fill="#fff" width="909" height="250"></rect><rect x="447.6875" y="133.20000000000073" fill="#000" width="65.625" height="33.6" opacity="1"></rect></mask><g transform="translate(447.6875 133.20000000000073) rotate(0 34.32991971746105 16.174850495909595)"><text x="32.8125" y="0" font-family="Cascadia, Segoe UI Emoji" font-size="28px" fill="#1e1e1e" text-anchor="middle" style="white-space: pre;" direction="ltr" dominant-baseline="text-before-edge">Push</text></g></svg>