<svg version="1.1" xmlns="http://www.w3.org/2000/svg" viewBox="0 0 1680 660" width="1680" height="660">
  <!-- svg-source:excalidraw -->
  
  <defs>
    <style class="style-fonts">
      @font-face {
        font-family: "Virgil";
        src: url("https://excalidraw.com/Virgil.woff2");
      }
      @font-face {
        font-family: "Cascadia";
        src: url("https://excalidraw.com/Cascadia.woff2");
      }
    </style>
    
  </defs>
  <rect x="0" y="0" width="1680" height="660" fill="#ffffff"></rect><g stroke-linecap="round" transform="translate(10 10) rotate(0 830 320)"><path d="M35.66 -3.19 L1629.22 0.86 L1644.33 1.08 L1653.35 14.12 L1662.94 34.66 L1658.38 611.16 L1657.79 623.64 L1646.34 636.37 L1628.58 638.72 L28.61 642.78 L20.39 635.23 L2.95 625.03 L-0.34 609.15 L-3.51 34.38 L2.22 17.05 L8.24 7.25 L19.26 -1.87 L28.59 -1.36" stroke="none" stroke-width="0" fill="#fff"></path><path d="M32 0 M32 0 C405.26 5.62, 780.3 7.64, 1628 0 M32 0 C439.91 13.27, 848.01 12.44, 1628 0 M1628 0 C1647.11 1.82, 1663.86 14.16, 1660 32 M1628 0 C1649.91 -2.81, 1662.23 6.2, 1660 32 M1660 32 C1656.24 233.32, 1655.6 435.74, 1660 608 M1660 32 C1656.01 190.45, 1656.94 348.84, 1660 608 M1660 608 C1660.75 632.68, 1652.02 641.31, 1628 640 M1660 608 C1659.27 631.72, 1646.16 637.35, 1628 640 M1628 640 C1147.16 633.66, 663.5 635.47, 32 640 M1628 640 C1080.45 649.94, 532.94 648.86, 32 640 M32 640 C9.26 640.2, -1.96 629.82, 0 608 M32 640 C9.32 636.54, 3.27 632.11, 0 608 M0 608 C-4.75 390.6, -3.46 173.74, 0 32 M0 608 C1.14 451.15, 1.19 296.49, 0 32 M0 32 C-2.25 9.03, 12.15 -2.98, 32 0 M0 32 C3.81 11.26, 15.05 3.45, 32 0" stroke="#1e1e1e" stroke-width="2" fill="none"></path></g><g stroke-linecap="round" transform="translate(70 90) rotate(0 420 250)"><path d="M31.91 0.25 L809.57 2.2 L831.09 4.23 L837.72 11.44 L837.3 30.74 L837.49 465.57 L837.05 487.68 L831.07 495.82 L806.22 503.57 L34.03 502.02 L15.08 492.56 L5.82 480.12 L-0.74 465.42 L1.27 32.71 L0.27 20.04 L8.06 6.5 L21 -1.04 L35.28 -3.18" stroke="none" stroke-width="0" fill="#e7f5ff"></path><path d="M32 0 M32 0 C307.99 -4.42, 581.41 -5.96, 808 0 M32 0 C332.89 4.99, 634.84 5.01, 808 0 M808 0 C827.27 3.99, 839.04 6.99, 840 32 M808 0 C831.03 3.28, 842.45 13.44, 840 32 M840 32 C838.53 127.52, 840.98 223.83, 840 468 M840 32 C842.34 156.73, 842.6 281.74, 840 468 M840 468 C836.29 492.81, 827.03 497.67, 808 500 M840 468 C840.59 493.6, 826.54 496.13, 808 500 M808 500 C606.64 504.28, 407.86 504.66, 32 500 M808 500 C499.71 495.94, 190.11 496.43, 32 500 M32 500 C9.51 499.14, 3.17 491.98, 0 468 M32 500 C6.8 501.61, 3.77 488.59, 0 468 M0 468 C0.45 321.79, 1.16 175.59, 0 32 M0 468 C2.86 345.49, 4.28 221.41, 0 32 M0 32 C3.34 14.43, 10.77 -3.72, 32 0 M0 32 C-3.31 12.31, 7.09 -3.66, 32 0" stroke="#4dabf7" stroke-width="2" fill="none"></path></g><g stroke-linecap="round" transform="translate(530 190) rotate(0 140 190)"><path d="M28.22 -0.68 L245.7 0.52 L265.19 4.03 L274.79 11.85 L276.7 32.28 L283.45 347.66 L276.15 364.1 L266.75 372.28 L246.29 376.14 L29.14 382.67 L15.25 377.66 L1.43 365.42 L-3.44 350.57 L4.34 28.24 L7.08 7.38 L14.43 3.96 L33.09 -2.76" stroke="none" stroke-width="0" fill="#ffec99"></path><path d="M32 0 M32 0 C89.39 -0.38, 148.7 2.82, 248 0 M32 0 C97.27 -1.7, 159.35 -1.96, 248 0 M248 0 C270.6 0, 282.84 9.64, 280 32 M248 0 C270.14 0.22, 280.6 7.33, 280 32 M280 32 C275.69 110.87, 276.6 190.87, 280 348 M280 32 C284.65 99.7, 285 163.91, 280 348 M280 348 C279.71 369.78, 270.28 380.76, 248 380 M280 348 C277.47 368.01, 268.93 376.09, 248 380 M248 380 C184.91 374.5, 121.04 373.56, 32 380 M248 380 C193.13 377.25, 139.11 377.07, 32 380 M32 380 C11.83 379.38, -1.24 372.12, 0 348 M32 380 C10.91 379.98, -2.49 371.65, 0 348 M0 348 C-0.34 242.63, 0.04 135.68, 0 32 M0 348 C-1.19 261, -1.82 173.07, 0 32 M0 32 C3.05 8.7, 9.01 -3.23, 32 0 M0 32 C2.74 13, 12.59 3.23, 32 0" stroke="#1e1e1e" stroke-width="2" fill="none"></path></g><g stroke-linecap="round" transform="translate(110 230) rotate(0 110 150)"><path d="M125.79 3.33 C137.25 3.08, 148.23 7.56, 158.66 14.65 C169.08 21.74, 179.6 33.57, 188.31 45.87 C197.02 58.17, 205.65 73.68, 210.9 88.45 C216.14 103.21, 218.87 118.45, 219.79 134.48 C220.72 150.5, 218.9 169.03, 216.46 184.61 C214.03 200.19, 211.32 214.38, 205.2 227.94 C199.08 241.51, 188.98 255.22, 179.72 266 C170.46 276.79, 161.12 286.67, 149.63 292.64 C138.14 298.61, 123.13 302.04, 110.77 301.83 C98.41 301.61, 86.81 296.61, 75.47 291.35 C64.13 286.1, 51.91 279.8, 42.75 270.28 C33.59 260.77, 27.01 247.87, 20.53 234.25 C14.06 220.63, 7.08 204.41, 3.88 188.57 C0.69 172.73, 0.43 155.37, 1.35 139.2 C2.27 123.04, 5.12 106.55, 9.4 91.59 C13.67 76.63, 19.5 61.78, 26.99 49.45 C34.48 37.12, 44.22 25.71, 54.33 17.62 C64.45 9.53, 74.09 2.91, 87.69 0.9 C101.28 -1.11, 126.62 3.71, 135.91 5.56 C145.19 7.41, 143.79 9.94, 143.41 12.01 M38.41 38.25 C45.69 25.8, 54.74 17.98, 65.04 11.27 C75.34 4.56, 87.67 -0.79, 100.2 -2.01 C112.73 -3.23, 128.82 -0.7, 140.22 3.95 C151.61 8.59, 159.04 17.24, 168.58 25.85 C178.12 34.45, 190.03 42.83, 197.46 55.58 C204.88 68.34, 209.81 86.79, 213.12 102.38 C216.44 117.98, 217.1 133.06, 217.35 149.15 C217.6 165.24, 217.64 183.23, 214.65 198.93 C211.67 214.63, 207.38 230.98, 199.43 243.37 C191.49 255.76, 177.5 264.67, 166.97 273.29 C156.45 281.91, 147.3 290.78, 136.28 295.08 C125.26 299.37, 113.01 300.3, 100.85 299.06 C88.69 297.82, 74.44 293.93, 63.32 287.63 C52.2 281.34, 42.66 272.16, 34.13 261.27 C25.61 250.38, 17.61 237.09, 12.17 222.31 C6.72 207.52, 2.82 189.14, 1.46 172.56 C0.1 155.97, 2.13 138.53, 3.99 122.79 C5.85 107.05, 7.59 91.7, 12.62 78.13 C17.65 64.57, 30.33 47.83, 34.17 41.4 C38.01 34.98, 34.33 38.17, 35.66 39.57" stroke="none" stroke-width="0" fill="#ffec99"></path><path d="M118.17 1.72 C129.82 0.29, 142.52 5.35, 153.2 11.13 C163.88 16.92, 173.4 25.71, 182.23 36.44 C191.07 47.17, 200.37 61.45, 206.18 75.5 C211.99 89.55, 215.28 104.83, 217.1 120.75 C218.91 136.67, 218.42 154.56, 217.08 171.02 C215.74 187.47, 214 205.05, 209.05 219.47 C204.1 233.88, 196.15 246.3, 187.36 257.53 C178.57 268.76, 167.45 279.92, 156.31 286.84 C145.16 293.77, 132.7 297.61, 120.5 299.09 C108.31 300.56, 94.52 299.65, 83.14 295.69 C71.76 291.73, 62.29 283.73, 52.22 275.34 C42.15 266.95, 30.28 257.77, 22.73 245.34 C15.17 232.92, 10.6 216.42, 6.88 200.78 C3.17 185.13, 0.75 167.44, 0.46 151.45 C0.17 135.46, 1.37 119.93, 5.17 104.81 C8.96 89.7, 16.08 73.82, 23.23 60.74 C30.37 47.65, 38.75 35.32, 48.05 26.32 C57.35 17.32, 62.19 9.46, 79.05 6.75 C95.91 4.04, 132.73 5.02, 149.22 10.06 C165.7 15.09, 178.43 34.92, 177.93 36.96 M100.99 -1.12 C111.83 -5.17, 122.93 -1.99, 134.52 2.3 C146.1 6.59, 160.66 15.43, 170.49 24.63 C180.32 33.82, 186.07 45.09, 193.51 57.46 C200.94 69.84, 210.83 84.17, 215.11 98.87 C219.39 113.58, 219.17 129.17, 219.2 145.67 C219.23 162.18, 219.21 182.29, 215.28 197.88 C211.35 213.48, 203.13 226.94, 195.63 239.24 C188.12 251.54, 179.23 262.25, 170.27 271.69 C161.3 281.13, 152.83 291.58, 141.86 295.87 C130.88 300.16, 117.06 298.86, 104.44 297.42 C91.82 295.97, 77.58 292.89, 66.13 287.18 C54.68 281.48, 44.18 273.32, 35.73 263.21 C27.28 253.11, 21.47 240.6, 15.41 226.55 C9.35 212.49, 1.5 195.63, -0.62 178.88 C-2.74 162.12, 0.56 142.28, 2.7 126.01 C4.83 109.75, 7.06 94.81, 12.19 81.29 C17.32 67.78, 24.48 56.24, 33.48 44.93 C42.49 33.61, 55.57 20.73, 66.22 13.39 C76.86 6.05, 91.61 2.95, 97.35 0.89 C103.09 -1.17, 100.33 -1.07, 100.65 1.05" stroke="#f08c00" stroke-width="2" fill="none"></path></g><g transform="translate(156.93700406947937 358.3339828220178) rotate(0 63.28125 21.600000000000364)"><text x="63.28125" y="0" font-family="Cascadia, Segoe UI Emoji" font-size="36px" fill="#1e1e1e" text-anchor="middle" style="white-space: pre;" direction="ltr" dominant-baseline="text-before-edge">Client</text></g><g stroke-linecap="round" transform="translate(570 230) rotate(0 100 30)"><path d="M12.79 -2.48 L190.09 0.31 L196.4 0.76 L201.88 8.79 L200.97 50.27 L195.96 54.41 L184.65 56.11 L11.96 61.28 L2.33 56.37 L2 49.48 L-3.23 10.46 L7.43 4.47 L14.98 -1.67" stroke="none" stroke-width="0" fill="#ced4da"></path><path d="M15 0 M15 0 C50.59 -1.74, 89.71 -3.72, 185 0 M15 0 C81.27 -0.22, 150.82 0.04, 185 0 M185 0 C198.63 1.48, 202.26 1.93, 200 15 M185 0 C196.43 -0.07, 203.8 3.38, 200 15 M200 15 C199.02 27.57, 201.27 32.49, 200 45 M200 15 C199.17 25.46, 198.14 36.88, 200 45 M200 45 C200.09 51.91, 198.82 61.67, 185 60 M200 45 C196.39 52.08, 195.72 64.11, 185 60 M185 60 C114.64 61.21, 49.84 57.03, 15 60 M185 60 C147.1 59.69, 107.56 61.74, 15 60 M15 60 C3.21 58.75, -3.74 58.57, 0 45 M15 60 C2.48 58.04, 4.26 51.17, 0 45 M0 45 C-3.13 35.21, 3.67 29.69, 0 15 M0 45 C-0.7 34.49, -0.87 22.17, 0 15 M0 15 C-1.32 5.45, 8.02 0.21, 15 0 M0 15 C2.91 4.9, 7.56 3.42, 15 0" stroke="#1e1e1e" stroke-width="2" fill="none"></path></g><g transform="translate(606.71875 238.39999999999964) rotate(0 63.28125 21.600000000000364)"><text x="63.28125" y="0" font-family="Cascadia, Segoe UI Emoji" font-size="36px" fill="#1e1e1e" text-anchor="middle" style="white-space: pre;" direction="ltr" dominant-baseline="text-before-edge">record</text></g><g stroke-linecap="round" transform="translate(570 310) rotate(0 100 30)"><path d="M15.22 -0.76 L187.6 -2.09 L198.23 5.24 L200.2 8.34 L196.67 52.51 L192.35 56.64 L181.26 63.57 L6.25 57.36 L7.45 52.92 L0.55 49.02 L-1.44 8.43 L3.2 7.5 L18.17 2.48" stroke="none" stroke-width="0" fill="#ced4da"></path><path d="M15 0 M15 0 C56.21 -0.65, 93.8 0.5, 185 0 M15 0 C69.17 -0.22, 121.93 1.31, 185 0 M185 0 C197.92 2.66, 199.97 8.33, 200 15 M185 0 C192.7 1.9, 201.96 4.9, 200 15 M200 15 C201.2 26.86, 203.49 32.96, 200 45 M200 15 C199.78 22.36, 201.36 31.26, 200 45 M200 45 C203.71 56.31, 195.66 57.55, 185 60 M200 45 C201.39 53.46, 194.96 58.68, 185 60 M185 60 C133.04 62.39, 74.4 58.1, 15 60 M185 60 C128.79 58.88, 69.9 58.14, 15 60 M15 60 C8.96 56.08, -1.09 55.91, 0 45 M15 60 C1.62 61.66, -0.36 58.58, 0 45 M0 45 C-3.83 34.62, 3.3 23.54, 0 15 M0 45 C-0.34 37.87, 2.07 32.28, 0 15 M0 15 C-3.68 3.86, 8.39 0.13, 15 0 M0 15 C2.84 4.29, 7.61 0.52, 15 0" stroke="#1e1e1e" stroke-width="2" fill="none"></path></g><g transform="translate(606.71875 318.39999999999964) rotate(0 63.28125 21.600000000000364)"><text x="63.28125" y="0" font-family="Cascadia, Segoe UI Emoji" font-size="36px" fill="#1e1e1e" text-anchor="middle" style="white-space: pre;" direction="ltr" dominant-baseline="text-before-edge">record</text></g><g stroke-linecap="round" transform="translate(570 390) rotate(0 100 30)"><path d="M13.68 0.45 L194.59 1.15 L198.78 3.66 L201.99 14.46 L201.98 54.23 L194.11 61.22 L183 61.65 L10.14 58.97 L2.3 59.45 L-2.24 49.24 L4.19 14.49 L5.9 2.91 L17.24 2.14" stroke="none" stroke-width="0" fill="#ced4da"></path><path d="M15 0 M15 0 C60.32 1.97, 108.84 -1.08, 185 0 M15 0 C55.58 0.56, 96.49 -0.4, 185 0 M185 0 C193.49 1.52, 203.67 1.36, 200 15 M185 0 C194.29 1.73, 196.47 3.39, 200 15 M200 15 C198.67 29.76, 196.1 35.52, 200 45 M200 15 C199.4 26.24, 201.24 35.19, 200 45 M200 45 C198.72 51.42, 196.15 63.55, 185 60 M200 45 C201.83 51.92, 191.88 63.82, 185 60 M185 60 C142.84 59.15, 94.48 66.22, 15 60 M185 60 C134.57 59.7, 82.39 59.12, 15 60 M15 60 C6.35 57.18, 0.76 52.99, 0 45 M15 60 C3.45 57.01, 3.38 50.65, 0 45 M0 45 C-3.52 41.52, -0.18 30.94, 0 15 M0 45 C-0.12 35.27, -1.42 26.55, 0 15 M0 15 C-3.08 4.81, 2.04 2.53, 15 0 M0 15 C-3.07 4.13, 6.32 1.35, 15 0" stroke="#1e1e1e" stroke-width="2" fill="none"></path></g><g transform="translate(606.71875 398.39999999999964) rotate(0 63.28125 21.600000000000364)"><text x="63.28125" y="0" font-family="Cascadia, Segoe UI Emoji" font-size="36px" fill="#1e1e1e" text-anchor="middle" style="white-space: pre;" direction="ltr" dominant-baseline="text-before-edge">record</text></g><g stroke-linecap="round" transform="translate(570 470) rotate(0 100 30)"><path d="M17.24 2.14 L190.45 -1.09 L198.3 2.8 L203.48 12.79 L199.72 49.12 L195.35 56.55 L184.97 58.85 L9.02 55.99 L2.24 57.77 L3.9 44.88 L-0.39 12.99 L0.68 2.35 L17.4 0.13" stroke="none" stroke-width="0" fill="#ced4da"></path><path d="M15 0 M15 0 C59.7 -4.45, 113.14 -6.3, 185 0 M15 0 C73.83 -1.82, 128.65 -4.44, 185 0 M185 0 C196.15 3.55, 201.59 2.32, 200 15 M185 0 C191.88 3.82, 198.29 4.67, 200 15 M200 15 C199.24 29.89, 200.51 40.46, 200 45 M200 15 C200.86 23.18, 201.01 30.66, 200 45 M200 45 C200.76 52.99, 193.65 57.4, 185 60 M200 45 C203.38 50.65, 191.35 57.18, 185 60 M185 60 C126.87 61.84, 71.02 60.17, 15 60 M185 60 C122.41 61.63, 61.87 60.19, 15 60 M15 60 C2.04 62.53, -2.67 54.24, 0 45 M15 60 C6.32 61.35, -3.05 54.59, 0 45 M0 45 C2.9 38.66, 2.51 31.95, 0 15 M0 45 C-0.61 35.99, 0.61 28.72, 0 15 M0 15 C-3.05 4.27, 8.59 0.81, 15 0 M0 15 C-3.34 9.36, 1.28 -1.17, 15 0" stroke="#1e1e1e" stroke-width="2" fill="none"></path></g><g transform="translate(606.71875 478.39999999999964) rotate(0 63.28125 21.600000000000364)"><text x="63.28125" y="0" font-family="Cascadia, Segoe UI Emoji" font-size="36px" fill="#1e1e1e" text-anchor="middle" style="white-space: pre;" direction="ltr" dominant-baseline="text-before-edge">record</text></g><g mask="url(#mask-qAiVje4nMSf0VT-N7SxoR)" stroke-linecap="round"><g transform="translate(530 370) rotate(0 -100.18296605929754 -0.40247342048951396)"><path d="M-0.13 2.54 C-32.97 2.96, -165.35 1.12, -198.7 1.04 M-3.64 1.45 C-36.59 1.15, -167.15 -2.76, -200.24 -3.41" stroke="#1e1e1e" stroke-width="2" fill="none"></path></g><g transform="translate(530 370) rotate(0 -100.18296605929754 -0.40247342048951396)"><path d="M-168.17 -11.1 C-177.24 -11.01, -182.66 -5.37, -201.05 -1.2 M-173.61 -13.79 C-179.81 -8.42, -185.27 -6.71, -198.37 -4.5" stroke="#1e1e1e" stroke-width="2" fill="none"></path></g><g transform="translate(530 370) rotate(0 -100.18296605929754 -0.40247342048951396)"><path d="M-168.69 9.41 C-177.41 4.58, -182.7 5.3, -201.05 -1.2 M-174.12 6.72 C-180.06 6.58, -185.38 2.78, -198.37 -4.5" stroke="#1e1e1e" stroke-width="2" fill="none"></path></g></g><mask id="mask-qAiVje4nMSf0VT-N7SxoR"><rect x="0" y="0" fill="#fff" width="830" height="470"></rect><rect x="397.1875" y="353.2000000000007" fill="#000" width="65.625" height="33.6" opacity="1"></rect></mask><g transform="translate(397.1875 353.2000000000007) rotate(0 32.62953394070246 16.39752657950976)"><text x="32.8125" y="0" font-family="Cascadia, Segoe UI Emoji" font-size="28px" fill="#1e1e1e" text-anchor="middle" style="white-space: pre;" direction="ltr" dominant-baseline="text-before-edge">Push</text></g><g transform="translate(150 150) rotate(0 84.375 21.600000000000364)"><text x="0" y="0" font-family="Cascadia, Segoe UI Emoji" font-size="36px" fill="#1e1e1e" text-anchor="start" style="white-space: pre;" direction="ltr" dominant-baseline="text-before-edge">Consumer</text></g><g transform="translate(610 130) rotate(0 52.734375 21.600000000000364)"><text x="0" y="0" font-family="Cascadia, Segoe UI Emoji" font-size="36px" fill="#1e1e1e" text-anchor="start" style="white-space: pre;" direction="ltr" dominant-baseline="text-before-edge">Queue</text></g><g stroke-linecap="round" transform="translate(1190 90) rotate(0 210 240)"><path d="M30.55 -1.32 L384.62 1.33 L398.16 0.53 L415.29 7.41 L417.96 15.63 L417.22 34.14 L420.42 451.94 L416.53 460.8 L413.35 474.04 L398.75 477.28 L391.95 481.15 L30.75 482.1 L16.79 481.09 L4.8 474.41 L-0.17 464.33 L0.52 447.97 L2.37 33.95 L-1.06 17.2 L11.13 5.66 L16.43 3.1 L28.16 1.79" stroke="none" stroke-width="0" fill="#ffc9c9"></path><path d="M32 0 M32 0 C165.36 1.89, 294.58 2.66, 388 0 M32 0 C137.64 0.93, 241.46 2.33, 388 0 M388 0 C410.02 3.1, 423.68 12.94, 420 32 M388 0 C405.13 0.27, 416.2 6.87, 420 32 M420 32 C417.86 174.44, 417.55 312.92, 420 448 M420 32 C415.62 171.96, 416.29 314.4, 420 448 M420 448 C420.12 472.33, 410.36 482.73, 388 480 M420 448 C415.47 469.94, 412.99 475.75, 388 480 M388 480 C310.36 482.63, 228.66 481.1, 32 480 M388 480 C250.78 481.32, 113.67 479.88, 32 480 M32 480 C8.8 478.14, 3.7 473.08, 0 448 M32 480 C10.09 475.93, -1.51 470.59, 0 448 M0 448 C5.2 358.44, 2.77 266.24, 0 32 M0 448 C-4.62 318.47, -4.31 187.87, 0 32 M0 32 C1.83 8.59, 12.36 -0.99, 32 0 M0 32 C-0.83 8.57, 8.6 -2.37, 32 0" stroke="#fa5252" stroke-width="2" fill="none"></path></g><g transform="translate(1336.71875 308.39999999999964) rotate(0 63.28125 21.600000000000364)"><text x="63.28125" y="0" font-family="Cascadia, Segoe UI Emoji" font-size="36px" fill="#1e1e1e" text-anchor="middle" style="white-space: pre;" direction="ltr" dominant-baseline="text-before-edge">Broker</text></g><g stroke-linecap="round"><g transform="translate(908.3251226879656 269.19727078899814) rotate(0 142.74574946500343 2.0724251892406755)"><path d="M1.67 0.8 C49.19 1.18, 237.05 3.15, 283.82 3.34" stroke="#1e1e1e" stroke-width="2.5" fill="none" stroke-dasharray="8 10"></path></g><g transform="translate(908.3251226879656 269.19727078899814) rotate(0 142.74574946500343 2.0724251892406755)"><path d="M256.69 16.44 C266.31 11.33, 271.53 4.34, 285.28 0.6" stroke="#1e1e1e" stroke-width="2.5" fill="none"></path></g><g transform="translate(908.3251226879656 269.19727078899814) rotate(0 142.74574946500343 2.0724251892406755)"><path d="M256.85 -4.08 C266.58 -3.96, 271.77 -5.71, 285.28 0.6" stroke="#1e1e1e" stroke-width="2.5" fill="none"></path></g></g><mask></mask><g stroke-linecap="round"><g transform="translate(1190 390) rotate(0 -140.79360850825924 1.3236978270115287)"><path d="M-0.59 2.49 C-47.62 2.43, -234.67 0.66, -281 0.16" stroke="#1e1e1e" stroke-width="2.5" fill="none" stroke-dasharray="8 10"></path></g><g transform="translate(1190 390) rotate(0 -140.79360850825924 1.3236978270115287)"><path d="M-249.15 -11.25 C-262.14 -4.48, -272.86 -5.9, -283.97 4.12" stroke="#1e1e1e" stroke-width="2.5" fill="none"></path></g><g transform="translate(1190 390) rotate(0 -140.79360850825924 1.3236978270115287)"><path d="M-249.35 9.27 C-262.35 9.01, -273 0.56, -283.97 4.12" stroke="#1e1e1e" stroke-width="2.5" fill="none"></path></g></g><mask></mask><g transform="translate(970 310) rotate(0 88.734375 21.600000000000364)"><text x="0" y="0" font-family="Cascadia, Segoe UI Emoji" font-size="36px" fill="#1e1e1e" text-anchor="start" style="white-space: pre;" direction="ltr" dominant-baseline="text-before-edge">Pull 模型</text></g></svg>