<svg version="1.1" xmlns="http://www.w3.org/2000/svg" viewBox="0 0 2320 1260" width="2320" height="1260">
  <!-- svg-source:excalidraw -->
  
  <defs>
    <style class="style-fonts">
      @font-face {
        font-family: "Virgil";
        src: url("https://excalidraw.com/Virgil.woff2");
      }
      @font-face {
        font-family: "Cascadia";
        src: url("https://excalidraw.com/Cascadia.woff2");
      }
    </style>
    
  </defs>
  <rect x="0" y="0" width="2320" height="1260" fill="#ffffff"></rect><g stroke-linecap="round" transform="translate(10 10) rotate(0 1150 620)"><path d="M33.97 1.38 L2266.53 -0.85 L2285.62 8.1 L2293.57 11.32 L2297.52 32.77 L2296.12 1206.48 L2296.33 1226.84 L2288.13 1237.79 L2265.31 1243.13 L28.18 1239.74 L9.36 1232.84 L1.99 1219.73 L-2 1204.55 L-2.12 28.52 L5.89 14.7 L8.32 5.73 L16.28 1.1 L34.39 -3.62" stroke="none" stroke-width="0" fill="#fff"></path><path d="M32 0 M32 0 C789.59 0.43, 1550.85 -0.34, 2268 0 M32 0 C530.2 -7.08, 1029.41 -8.23, 2268 0 M2268 0 C2291.85 1.7, 2301.64 14.27, 2300 32 M2268 0 C2288.04 0.94, 2296.88 6.47, 2300 32 M2300 32 C2290.96 456.59, 2291.64 883.17, 2300 1208 M2300 32 C2295.66 391.66, 2294.89 750.43, 2300 1208 M2300 1208 C2298.84 1230.95, 2289.41 1239.31, 2268 1240 M2300 1208 C2298.29 1226.38, 2285.16 1241.94, 2268 1240 M2268 1240 C1558.61 1231.81, 847.08 1231.42, 32 1240 M2268 1240 C1499.96 1255.28, 731.6 1254.23, 32 1240 M32 1240 C9.3 1242.96, -2.08 1231.07, 0 1208 M32 1240 C6.3 1244.56, 4.19 1226.21, 0 1208 M0 1208 C0.94 930.19, 1.19 650.41, 0 32 M0 1208 C7.84 873.69, 7.47 538.94, 0 32 M0 32 C-1.16 7.36, 10.02 -2.51, 32 0 M0 32 C4.18 8.82, 8.98 -4.29, 32 0" stroke="#1e1e1e" stroke-width="4" fill="none"></path></g><g stroke-linecap="round" transform="translate(1330 90) rotate(0 430 170)"><path d="M29.79 -3.22 L824.35 1.56 L839.56 3.79 L857.08 10.03 L860.81 30.2 L862.71 311.77 L854.54 324.07 L847.58 333.52 L830.41 342.87 L34.64 339.43 L18.69 341.4 L8.49 324.01 L2.27 311.86 L-1.69 35.14 L0.68 19.84 L4.47 10.57 L20.06 2.27 L33.9 3.45" stroke="none" stroke-width="0" fill="#fff"></path><path d="M32 0 M32 0 C214.75 -5.3, 396.54 -2.86, 828 0 M32 0 C330.17 6.09, 628.03 5.26, 828 0 M828 0 C852.81 2.25, 860.44 9.33, 860 32 M828 0 C848.27 4.6, 859.7 13.79, 860 32 M860 32 C861.69 142.41, 859.98 250.37, 860 308 M860 32 C860.75 139.8, 861.79 245.53, 860 308 M860 308 C858.49 326.49, 849.82 338.5, 828 340 M860 308 C863.44 325.15, 845.93 342.78, 828 340 M828 340 C570.95 345.28, 312.11 344.34, 32 340 M828 340 C556.1 336.06, 282.57 335.98, 32 340 M32 340 C8.29 337.17, 2.51 332.91, 0 308 M32 340 C15.23 337.12, 0.53 325.94, 0 308 M0 308 C6.25 249.99, 6.41 198.86, 0 32 M0 308 C4.28 231.85, 2.22 155.6, 0 32 M0 32 C-3.52 9.55, 7.51 2.6, 32 0 M0 32 C3.82 10.65, 9.02 3.28, 32 0" stroke="#1e1e1e" stroke-width="2" fill="none"></path></g><g stroke-linecap="round" transform="translate(110 250) rotate(0 280 360)"><path d="M29.02 -1.93 L531.66 -0.78 L544.59 -0.33 L553.31 15.16 L557.13 36 L561.48 690.74 L560.09 704.02 L549.3 713.23 L524.28 721.32 L35.29 718.53 L21.92 714.11 L8.33 704.15 L-1.45 685.23 L2.68 28.24 L1.15 18.12 L8.48 6.08 L16.02 2.87 L31.23 -0.44" stroke="none" stroke-width="0" fill="#fff"></path><path d="M32 0 M32 0 C192.69 -1.21, 350.95 -2.94, 528 0 M32 0 C158.18 -1.12, 284.17 -0.94, 528 0 M528 0 C545.42 -0.32, 562.08 9.98, 560 32 M528 0 C546.9 2.51, 562.74 6.09, 560 32 M560 32 C555.83 255.57, 557.32 478.29, 560 688 M560 32 C558.07 267.49, 558.67 503.55, 560 688 M560 688 C558.05 705.67, 549.82 720.68, 528 720 M560 688 C560.57 706.91, 548.91 716.69, 528 720 M528 720 C376.17 724.66, 220.53 722.62, 32 720 M528 720 C342.22 720.97, 156.69 721.28, 32 720 M32 720 C7.81 720.73, 2.22 706.9, 0 688 M32 720 C8.93 720.44, -2.88 709.9, 0 688 M0 688 C0.33 533.45, 0.2 380.19, 0 32 M0 688 C0.44 539.25, -0.44 391.34, 0 32 M0 32 C-2.02 8.09, 14.16 2.04, 32 0 M0 32 C-0.59 12.33, 13.78 2.21, 32 0" stroke="#1e1e1e" stroke-width="2" fill="none"></path></g><g stroke-linecap="round" transform="translate(190 390) rotate(0 200 70)"><path d="M34.52 2.98 L371.53 -2.89 L381.81 0.3 L388.24 10.51 L398.2 26.81 L396.88 108.07 L401.02 119.27 L390.11 135.22 L369.22 138.82 L31.19 140.79 L16.4 137.96 L5.52 127.48 L0.77 118.58 L3.63 23.85 L5.15 11.94 L15.15 0.36 L28 -0.32" stroke="none" stroke-width="0" fill="#e7f5ff"></path><path d="M32 0 M32 0 C158.87 3.15, 292.71 3.11, 368 0 M32 0 C160.7 2.88, 286.86 4.13, 368 0 M368 0 C385.57 2.18, 397.41 11.5, 400 32 M368 0 C393.05 1.65, 402.89 9.56, 400 32 M400 32 C399.23 59.77, 402.09 87.51, 400 108 M400 32 C402.61 47.76, 399.37 66.34, 400 108 M400 108 C401.96 131.23, 388.41 143.9, 368 140 M400 108 C398.28 131.24, 391.3 143.9, 368 140 M368 140 C270.76 143.34, 177.56 143.42, 32 140 M368 140 C296.87 135.99, 223.67 137.87, 32 140 M32 140 C7.2 143.78, 0.39 132.66, 0 108 M32 140 C14.61 142.1, -3.96 129.27, 0 108 M0 108 C2.72 84.11, 2.8 51.66, 0 32 M0 108 C-1.2 89.73, -0.75 73.74, 0 32 M0 32 C3.86 7.76, 12.65 -1.48, 32 0 M0 32 C4.19 9.79, 8.28 4.13, 32 0" stroke="#228be6" stroke-width="2" fill="none"></path></g><g transform="translate(284.53125 438.39999999999964) rotate(0 105.46875 21.600000000000364)"><text x="105.46875" y="0" font-family="Cascadia, Segoe UI Emoji" font-size="36px" fill="#1e1e1e" text-anchor="middle" style="white-space: pre;" direction="ltr" dominant-baseline="text-before-edge">Consumer 1</text></g><g stroke-linecap="round" transform="translate(190 590) rotate(0 200 70)"><path d="M32.8 2.84 L369.15 -0.72 L385.62 2.97 L393.84 6.47 L397.22 24.19 L400.24 111.11 L398.13 125.06 L388.19 138.45 L368.49 136.54 L32.15 137.14 L19.07 140.94 L0.69 129.69 L1.26 117.97 L3.54 28.47 L11.1 4.69 L21.52 -0.26 L32.22 0.56" stroke="none" stroke-width="0" fill="#e7f5ff"></path><path d="M32 0 M32 0 C110.04 3.42, 182.97 5.21, 368 0 M32 0 C165.1 -1.63, 297.56 -0.94, 368 0 M368 0 C386.68 -0.48, 401.38 11.6, 400 32 M368 0 C385.27 -0.08, 397.91 6.24, 400 32 M400 32 C395.37 57.11, 400.63 75.56, 400 108 M400 32 C398.15 56.35, 397.55 78.7, 400 108 M400 108 C400.56 132.98, 389.04 137.1, 368 140 M400 108 C400.93 126.79, 389.19 138.62, 368 140 M368 140 C289.15 135.27, 208.12 134.56, 32 140 M368 140 C268 139.74, 168.9 140.44, 32 140 M32 140 C10.02 143.33, 0.48 128.63, 0 108 M32 140 C14.07 135.76, -0.04 129.5, 0 108 M0 108 C-2.5 86.49, -0.96 64.64, 0 32 M0 108 C0.49 82.2, 2.73 58.65, 0 32 M0 32 C-0.68 12.93, 14.47 -0.4, 32 0 M0 32 C-2.59 14.92, 6.36 -4.29, 32 0" stroke="#228be6" stroke-width="2" fill="none"></path></g><g transform="translate(284.53125 638.3999999999996) rotate(0 105.46875 21.600000000000364)"><text x="105.46875" y="0" font-family="Cascadia, Segoe UI Emoji" font-size="36px" fill="#1e1e1e" text-anchor="middle" style="white-space: pre;" direction="ltr" dominant-baseline="text-before-edge">Consumer 2</text></g><g stroke-linecap="round" transform="translate(190 790) rotate(0 200 70)"><path d="M29.45 2.3 L365.35 0.77 L379.44 0.3 L388.38 7.82 L399.86 24.82 L397.87 106.15 L396.43 122.23 L386.85 138.83 L368.48 139.29 L34.96 136.31 L17.96 138.15 L3.96 130.91 L-0.53 114.3 L0.77 24.83 L8.2 8.63 L15.39 2.14 L31 -3.59" stroke="none" stroke-width="0" fill="#e7f5ff"></path><path d="M32 0 M32 0 C163.54 3.33, 291.76 -0.75, 368 0 M32 0 C163.72 5.43, 295.57 3.5, 368 0 M368 0 C391.71 -1.74, 396.28 7.01, 400 32 M368 0 C385.74 1.46, 398.58 7.24, 400 32 M400 32 C403.98 48.8, 399.2 72.94, 400 108 M400 32 C402.89 50.39, 402.53 67.6, 400 108 M400 108 C397.73 125.62, 390.66 143.29, 368 140 M400 108 C398.31 133.84, 384.86 144.41, 368 140 M368 140 C297.17 134.33, 222.16 136.94, 32 140 M368 140 C263.48 137.5, 158.23 138.06, 32 140 M32 140 C6.87 142.32, 2.7 132.1, 0 108 M32 140 C10.02 138.28, -2.13 124.91, 0 108 M0 108 C2.13 82.26, -4.64 60.01, 0 32 M0 108 C1.35 82.44, -1.73 55.28, 0 32 M0 32 C-2.17 12.39, 7.34 2.77, 32 0 M0 32 C0.46 14.6, 13.4 -1.72, 32 0" stroke="#228be6" stroke-width="2" fill="none"></path></g><g transform="translate(284.53125 838.3999999999996) rotate(0 105.46875 21.600000000000364)"><text x="105.46875" y="0" font-family="Cascadia, Segoe UI Emoji" font-size="36px" fill="#1e1e1e" text-anchor="middle" style="white-space: pre;" direction="ltr" dominant-baseline="text-before-edge">Consumer 3</text></g><g transform="translate(310 290) rotate(0 73.828125 21.600000000000364)"><text x="0" y="0" font-family="Cascadia, Segoe UI Emoji" font-size="36px" fill="#1e1e1e" text-anchor="start" style="white-space: pre;" direction="ltr" dominant-baseline="text-before-edge">Group 1</text></g><g stroke-linecap="round" transform="translate(1370 150) rotate(0 120 110)"><path d="M35.65 0.32 L208.13 -1.89 L225.62 3.55 L230.1 5.65 L241.88 19.47 L242.85 30.86 L239.75 189.19 L241.38 198.13 L231.91 214.4 L220.08 214.49 L210.45 219.44 L34.7 223.58 L20.82 221.27 L10.39 213.66 L3.83 203.47 L-0.35 191.65 L-1.82 22.75 L6.36 11.06 L19.95 0.44 L35.79 -1.97" stroke="none" stroke-width="0" fill="#e7f5ff"></path><path d="M32 0 M32 0 C82.27 -1.86, 133.39 -0.03, 208 0 M32 0 C76.53 2.03, 124.82 2.4, 208 0 M208 0 C227.32 2.4, 242.77 10.26, 240 32 M208 0 C224.76 -3.13, 241.77 6.98, 240 32 M240 32 C242.1 68.33, 239.62 101.22, 240 188 M240 32 C236.91 66.66, 238.07 104.86, 240 188 M240 188 C240.42 211.92, 229.09 223.04, 208 220 M240 188 C238.01 211.8, 233.31 217.31, 208 220 M208 220 C141.94 219.21, 79.89 217.45, 32 220 M208 220 C159.29 221.88, 107.77 223.45, 32 220 M32 220 C13.99 222.75, 3.03 210.41, 0 188 M32 220 C12.43 220.81, 1.46 205.37, 0 188 M0 188 C-1.37 135.89, -1.64 75.75, 0 32 M0 188 C2.22 157.42, 1.84 125.81, 0 32 M0 32 C-3.51 12.37, 13.71 3.04, 32 0 M0 32 C0.76 7.26, 8.31 0.62, 32 0" stroke="#228be6" stroke-width="2" fill="none"></path></g><g transform="translate(1454 216.79999999999927) rotate(0 36 43.19999999999982)"><text x="36" y="0" font-family="Cascadia, Segoe UI Emoji" font-size="36px" fill="#1e1e1e" text-anchor="middle" style="white-space: pre;" direction="ltr" dominant-baseline="text-before-edge">Pop</text><text x="36" y="43.199999999999996" font-family="Cascadia, Segoe UI Emoji" font-size="36px" fill="#1e1e1e" text-anchor="middle" style="white-space: pre;" direction="ltr" dominant-baseline="text-before-edge">模块</text></g><g stroke-linecap="round" transform="translate(1630 150) rotate(0 250 50)"><path d="M21.64 2.89 L480.06 2.66 L492.2 8.71 L494.93 15.77 L502.66 83.9 L494.41 90.79 L483.89 98.98 L477.9 99.46 L15.19 103.09 L9.56 93.3 L5.16 86.93 L1.28 26.56 L-2.21 16.93 L4.94 9.03 L13.02 1.05 L21.71 -1.81" stroke="none" stroke-width="0" fill="#ffec99"></path><path d="M25 0 M25 0 C140.39 1.66, 254.57 2.94, 475 0 M25 0 C132.37 -3.48, 239.5 -3.64, 475 0 M475 0 C488.68 1.68, 499.62 11.8, 500 25 M475 0 C492.47 4.03, 501.29 10.54, 500 25 M500 25 C501.11 45.98, 497.65 59.27, 500 75 M500 25 C497.63 35.42, 500.25 49.41, 500 75 M500 75 C502.74 90.72, 490.97 99.11, 475 100 M500 75 C500.47 94.94, 495.53 97.78, 475 100 M475 100 C343.49 105.43, 214.3 105.31, 25 100 M475 100 C338.6 98.23, 202.26 97.6, 25 100 M25 100 C10.87 101.76, 1 93.14, 0 75 M25 100 C12.05 98.29, -2.05 92.97, 0 75 M0 75 C-1.97 55.14, 2.02 40.03, 0 25 M0 75 C-0.32 64.93, 1.52 53.89, 0 25 M0 25 C3.25 5.57, 11.29 -2.28, 25 0 M0 25 C2.92 10.25, 10.55 -1.71, 25 0" stroke="#f08c00" stroke-width="2" fill="none"></path></g><g transform="translate(1658.515625 178.39999999999964) rotate(0 221.484375 21.600000000000364)"><text x="221.484375" y="0" font-family="Cascadia, Segoe UI Emoji" font-size="36px" fill="#1e1e1e" text-anchor="middle" style="white-space: pre;" direction="ltr" dominant-baseline="text-before-edge">Topic 1 - Partition 0</text></g><g stroke-linecap="round" transform="translate(1630 270) rotate(0 250 50)"><path d="M28.02 3.35 L480.46 -0.17 L493.9 6.91 L497.76 15.29 L497.99 81.99 L496.12 90.66 L487.41 94.82 L475.17 101.44 L17.7 98.32 L7.32 94.89 L-2.27 86.93 L-3.28 21.01 L3.72 14.82 L3.49 9.34 L15.87 1.72 L21.06 -2.88" stroke="none" stroke-width="0" fill="#ffec99"></path><path d="M25 0 M25 0 C132.82 -2.84, 243.17 -2.23, 475 0 M25 0 C193.1 0.36, 361.55 0.85, 475 0 M475 0 C489.05 -2.37, 497.21 6.78, 500 25 M475 0 C494 2.41, 497.97 12.58, 500 25 M500 25 C500.93 40.88, 503.15 63.3, 500 75 M500 25 C499.97 36.02, 500.09 50.27, 500 75 M500 75 C497.53 92.47, 489.86 102.71, 475 100 M500 75 C504.33 87.69, 494.05 100.09, 475 100 M475 100 C363.51 102.84, 249.81 104.76, 25 100 M475 100 C296.1 102.06, 116.09 102.15, 25 100 M25 100 C10.17 96.47, 2.57 93.73, 0 75 M25 100 C8.65 102.18, 3.97 88.43, 0 75 M0 75 C-3.22 57.81, 2.89 49.26, 0 25 M0 75 C1.77 64.96, -0.29 54.53, 0 25 M0 25 C2.25 8.77, 7 -0.93, 25 0 M0 25 C4.6 8.03, 11.46 4.4, 25 0" stroke="#f08c00" stroke-width="2" fill="none"></path></g><g transform="translate(1658.515625 298.39999999999964) rotate(0 221.484375 21.600000000000364)"><text x="221.484375" y="0" font-family="Cascadia, Segoe UI Emoji" font-size="36px" fill="#1e1e1e" text-anchor="middle" style="white-space: pre;" direction="ltr" dominant-baseline="text-before-edge">Topic 1 - Partition 1</text></g><g stroke-linecap="round" transform="translate(1330 470) rotate(0 440 110)"><path d="M29.15 0.68 L845.56 -3.84 L862.17 -1.81 L870.97 10.72 L880.24 23.05 L879.8 188.56 L878.76 202.96 L868.76 212.06 L846.74 221.98 L29.18 218.97 L15.83 215.57 L2.51 208.94 L-1.69 192.55 L-1.14 30.97 L5.07 17.11 L11.42 11.95 L16.64 1.83 L32.02 -1.86" stroke="none" stroke-width="0" fill="#fff"></path><path d="M32 0 M32 0 C237.74 -1.12, 446.3 -3.53, 848 0 M32 0 C278.66 -4.9, 524.63 -4.77, 848 0 M848 0 C868.82 -1.69, 878.5 8.71, 880 32 M848 0 C873.03 1.22, 880.38 12.07, 880 32 M880 32 C878.41 72.39, 884.23 109.83, 880 188 M880 32 C875.74 92.13, 875.67 155.49, 880 188 M880 188 C880.54 209.47, 870.41 216.78, 848 220 M880 188 C879.54 209.44, 868.19 217.3, 848 220 M848 220 C561.36 221.56, 278.76 221.93, 32 220 M848 220 C607.98 216.71, 367.84 216.78, 32 220 M32 220 C9.15 216.14, 0.88 210.4, 0 188 M32 220 C9.84 223.44, -2.87 212.07, 0 188 M0 188 C0.17 132.14, 1.09 81.6, 0 32 M0 188 C-0.08 154.54, -1.1 120.78, 0 32 M0 32 C3.74 9.96, 11.25 2.56, 32 0 M0 32 C-2.98 10.37, 10.37 -0.52, 32 0" stroke="#1e1e1e" stroke-width="2" fill="none"></path></g><g stroke-linecap="round" transform="translate(1390 510) rotate(0 100 70)"><path d="M29.56 -3.84 L168.17 -3.81 L180.97 4.72 L192.74 6.55 L197.8 18.56 L200.76 32.96 L200.76 112.06 L190.74 133.98 L179.18 136.97 L165.83 137.57 L30.01 141.44 L15.81 135.05 L6.86 130.97 L3.57 114.61 L3.92 28.45 L6.64 7.83 L18.02 0.14 L30.15 0.65" stroke="none" stroke-width="0" fill="#e7f5ff"></path><path d="M32 0 M32 0 C78.76 -4.8, 124.79 -3.91, 168 0 M32 0 C85.02 -0.07, 135.56 -2.33, 168 0 M168 0 C187.84 -1.96, 203.21 11.73, 200 32 M168 0 C189.72 1.4, 197.84 11.19, 200 32 M200 32 C203.14 55.81, 202.89 78.78, 200 108 M200 32 C196.64 48.97, 198.85 62.8, 200 108 M200 108 C201.08 126.11, 188.93 140.1, 168 140 M200 108 C198.85 126.63, 191.6 143.25, 168 140 M168 140 C123.58 135.56, 74.36 139.69, 32 140 M168 140 C134.52 142.13, 100.73 139.19, 32 140 M32 140 C11.55 141.07, -0.72 132.32, 0 108 M32 140 C7.8 142.74, 1.64 133.17, 0 108 M0 108 C2.64 80.32, -4.61 56.68, 0 32 M0 108 C-0.9 76.37, 1.5 47.03, 0 32 M0 32 C0.58 13.22, 8.07 -0.26, 32 0 M0 32 C-0.3 10.15, 12.24 0.01, 32 0" stroke="#228be6" stroke-width="2" fill="none"></path></g><g transform="translate(1454 536.7999999999993) rotate(0 36 43.19999999999982)"><text x="36" y="0" font-family="Cascadia, Segoe UI Emoji" font-size="36px" fill="#1e1e1e" text-anchor="middle" style="white-space: pre;" direction="ltr" dominant-baseline="text-before-edge">Pop</text><text x="36" y="43.199999999999996" font-family="Cascadia, Segoe UI Emoji" font-size="36px" fill="#1e1e1e" text-anchor="middle" style="white-space: pre;" direction="ltr" dominant-baseline="text-before-edge">模块</text></g><g stroke-linecap="round" transform="translate(1630 530) rotate(0 250 60)"><path d="M28.97 2.72 L477.77 -0.98 L492.3 8.06 L498.88 17.83 L501.26 26.56 L498.27 99.02 L489.68 111.47 L480.96 115.7 L468.01 121.44 L20.78 116.58 L10.58 114.75 L4.95 102.24 L3.42 93.95 L-1.36 29.83 L1.9 15.02 L5.65 8.15 L18.51 -1.45 L33.88 0.4" stroke="none" stroke-width="0" fill="#ffec99"></path><path d="M30 0 M30 0 C139.88 2.81, 247.58 2.5, 470 0 M30 0 C192.8 1.37, 357.15 2.13, 470 0 M470 0 C490.33 1.22, 498.12 10.46, 500 30 M470 0 C491.29 -2.24, 501.05 14.46, 500 30 M500 30 C497.17 42.58, 499.47 58.76, 500 90 M500 30 C500.7 51.21, 499.96 75.7, 500 90 M500 90 C499 107.65, 491.97 122.83, 470 120 M500 90 C502 105.52, 486.33 122.63, 470 120 M470 120 C361.81 122.09, 256.66 121.83, 30 120 M470 120 C316 116.02, 161.38 116.5, 30 120 M30 120 C7.51 122.38, 1.43 113.34, 0 90 M30 120 C11.95 123.19, -4.01 114.25, 0 90 M0 90 C5.02 75.46, 0.04 57.89, 0 30 M0 90 C-0.83 77.24, -2.42 61.79, 0 30 M0 30 C-0.26 9.55, 11.37 0.01, 30 0 M0 30 C-1 11.99, 9.59 -3.26, 30 0" stroke="#f08c00" stroke-width="2" fill="none"></path></g><g transform="translate(1658.515625 568.3999999999996) rotate(0 221.484375 21.600000000000364)"><text x="221.484375" y="0" font-family="Cascadia, Segoe UI Emoji" font-size="36px" fill="#1e1e1e" text-anchor="middle" style="white-space: pre;" direction="ltr" dominant-baseline="text-before-edge">Topic 2 - Partition 0</text></g><g stroke-linecap="round" transform="translate(1330 730) rotate(0 440 220)"><path d="M33.27 -1.31 L846.64 -0.73 L867.5 3.56 L877.41 10.97 L883.7 28.73 L878.27 405.15 L878.28 423.89 L868.95 433.18 L848.26 440.1 L33.76 443.82 L16.28 434.83 L0.18 418.72 L1.61 406.89 L-1.72 30.87 L4.66 18.99 L10.27 10.17 L14.44 -0.82 L35 -0.13" stroke="none" stroke-width="0" fill="#fff"></path><path d="M32 0 M32 0 C300.14 -3.35, 565.01 -2.68, 848 0 M32 0 C244.69 -4.31, 456.71 -4.72, 848 0 M848 0 C873.05 0.03, 877.32 13.62, 880 32 M848 0 C867.57 -3.72, 882.81 10.4, 880 32 M880 32 C881.73 144.05, 878.96 259.97, 880 408 M880 32 C876.26 114.69, 876.08 197.6, 880 408 M880 408 C880.11 429.07, 865.93 441.35, 848 440 M880 408 C881.28 429.41, 872.92 437.57, 848 440 M848 440 C646.6 441.83, 445.38 441.66, 32 440 M848 440 C595.02 435.6, 342.45 435.38, 32 440 M32 440 C7.43 437.96, -3.46 431.92, 0 408 M32 440 C11.3 439.36, 1.37 431, 0 408 M0 408 C-2.45 308.11, -1.74 204.13, 0 32 M0 408 C5.49 282.67, 3.58 154.79, 0 32 M0 32 C-1.2 10.67, 7.17 -3.38, 32 0 M0 32 C-1.58 7.47, 12.08 -3.54, 32 0" stroke="#1e1e1e" stroke-width="2" fill="none"></path></g><g stroke-linecap="round" transform="translate(1390 790) rotate(0 120 170)"><path d="M30.64 -0.73 L208 -0.94 L223.91 0.47 L239.2 9.23 L238.27 29.15 L242.78 304.39 L239.45 319.68 L227.76 335.6 L209.76 343.82 L35.78 339.33 L16.18 334.72 L6.11 326.39 L-1.72 306.87 L3.16 25.49 L10.27 10.17 L14.44 -0.82 L35 -0.13" stroke="none" stroke-width="0" fill="#e7f5ff"></path><path d="M32 0 M32 0 C92.22 -2.28, 144.25 -0.59, 208 0 M32 0 C79.36 -2.08, 125.06 -3.12, 208 0 M208 0 C233.05 0.03, 237.32 13.62, 240 32 M208 0 C227.57 -3.72, 242.81 10.4, 240 32 M240 32 C242.07 113.5, 238.55 199.95, 240 308 M240 32 C236.28 92.62, 236.05 153.53, 240 308 M240 308 C240.11 329.07, 225.93 341.35, 208 340 M240 308 C241.28 329.41, 232.92 337.57, 208 340 M208 340 C163.82 340.98, 120.1 340.56, 32 340 M208 340 C153.46 336.85, 99.93 336.31, 32 340 M32 340 C7.43 337.96, -3.46 331.92, 0 308 M32 340 C11.3 339.36, 1.37 331, 0 308 M0 308 C-1.92 235.93, -1.01 158.63, 0 32 M0 308 C5.48 216.55, 3.03 121.86, 0 32 M0 32 C-1.2 10.67, 7.17 -3.38, 32 0 M0 32 C-1.58 7.47, 12.08 -3.54, 32 0" stroke="#228be6" stroke-width="2" fill="none"></path></g><g transform="translate(1474 916.7999999999993) rotate(0 36 43.19999999999982)"><text x="36" y="0" font-family="Cascadia, Segoe UI Emoji" font-size="36px" fill="#1e1e1e" text-anchor="middle" style="white-space: pre;" direction="ltr" dominant-baseline="text-before-edge">Pop</text><text x="36" y="43.199999999999996" font-family="Cascadia, Segoe UI Emoji" font-size="36px" fill="#1e1e1e" text-anchor="middle" style="white-space: pre;" direction="ltr" dominant-baseline="text-before-edge">模块</text></g><g stroke-linecap="round" transform="translate(1650 790) rotate(0 250 50)"><path d="M26.91 -1.53 L484.56 -2.88 L492.02 3.4 L501.22 10.45 L501.05 78.54 L494.01 93.85 L487.7 102.26 L478.78 99.33 L17.32 96.33 L11.38 95.38 L-0.16 84.81 L2.66 25.99 L3.84 16.23 L2.69 3.43 L17.06 1.43 L26.09 0.42" stroke="none" stroke-width="0" fill="#ffec99"></path><path d="M25 0 M25 0 C180 1.18, 337.09 1.98, 475 0 M25 0 C191.32 -1.02, 357.01 -0.66, 475 0 M475 0 C488.98 2.95, 498.46 5.1, 500 25 M475 0 C494.47 -0.26, 500.08 8.73, 500 25 M500 25 C498.19 42.42, 497.36 53.42, 500 75 M500 25 C498.07 41.07, 499.51 57.18, 500 75 M500 75 C496.6 93.01, 492.78 100.07, 475 100 M500 75 C503.58 89.23, 489.2 100.71, 475 100 M475 100 C326.82 99.78, 179.95 98.91, 25 100 M475 100 C368.12 97.12, 259.43 97.36, 25 100 M25 100 C4.88 102.59, 0.55 91.11, 0 75 M25 100 C9.7 101.66, -1.3 95.26, 0 75 M0 75 C2.55 59.82, 0.98 39, 0 25 M0 75 C-2.34 56.05, -1.43 38.78, 0 25 M0 25 C-3.5 4.95, 6.96 -2.78, 25 0 M0 25 C1.42 4.79, 11.42 -2.07, 25 0" stroke="#f08c00" stroke-width="2" fill="none"></path></g><g transform="translate(1678.515625 818.3999999999996) rotate(0 221.484375 21.600000000000364)"><text x="221.484375" y="0" font-family="Cascadia, Segoe UI Emoji" font-size="36px" fill="#1e1e1e" text-anchor="middle" style="white-space: pre;" direction="ltr" dominant-baseline="text-before-edge">Topic 3 - Partition 0</text></g><g stroke-linecap="round" transform="translate(1650 910) rotate(0 250 50)"><path d="M23.27 -2.85 L483.64 -3.22 L495.2 3.93 L498.7 14.17 L501.37 84.68 L497.53 93.08 L484.12 95.15 L476.61 98.89 L17.42 98.48 L12.42 97.47 L3.84 88.1 L-3.56 22.18 L4.56 13.93 L7.34 6.67 L15.97 4.17 L24.4 -2.97" stroke="none" stroke-width="0" fill="#ffec99"></path><path d="M25 0 M25 0 C173.52 -1.43, 319.71 -1.46, 475 0 M25 0 C142.92 0.68, 261.76 -0.81, 475 0 M475 0 C494.11 -0.23, 500.07 8.68, 500 25 M475 0 C492.18 2.53, 497.39 5.62, 500 25 M500 25 C500.13 40.15, 498.75 56.88, 500 75 M500 25 C498.33 40.45, 500.58 54.59, 500 75 M500 75 C503.12 89.55, 489.52 100.62, 475 100 M500 75 C501.29 90.73, 491.65 98.66, 475 100 M475 100 C343.63 97.61, 213.68 98.61, 25 100 M475 100 C373.6 98.4, 274 97.64, 25 100 M25 100 C9.52 101.45, -1.13 94.79, 0 75 M25 100 C9.28 102.11, 4.37 95.13, 0 75 M0 75 C2.13 62.23, 2.99 39.84, 0 25 M0 75 C-1.45 60.42, -0.39 47.83, 0 25 M0 25 C1.23 5.25, 11.02 -1.8, 25 0 M0 25 C2.73 8.45, 7.74 4.04, 25 0" stroke="#f08c00" stroke-width="2" fill="none"></path></g><g transform="translate(1678.515625 938.3999999999996) rotate(0 221.484375 21.600000000000364)"><text x="221.484375" y="0" font-family="Cascadia, Segoe UI Emoji" font-size="36px" fill="#1e1e1e" text-anchor="middle" style="white-space: pre;" direction="ltr" dominant-baseline="text-before-edge">Topic 3 - Partition 1</text></g><g stroke-linecap="round" transform="translate(1650 1030) rotate(0 250 50)"><path d="M21.42 -0.37 L481.42 -0.69 L490.63 8.82 L500.28 14.7 L496.81 83.07 L493.09 95.91 L486.38 102.32 L472.81 102.1 L18.19 97.16 L13.15 100.24 L0.42 83.73 L-0.41 24.01 L4.61 17.87 L9.54 6.64 L10.26 1.02 L25.75 1.03" stroke="none" stroke-width="0" fill="#ffec99"></path><path d="M25 0 M25 0 C162.29 -2.7, 301.8 -3.5, 475 0 M25 0 C203.02 -4.28, 382.03 -3.95, 475 0 M475 0 C489.23 -2.88, 500.66 12.21, 500 25 M475 0 C489.21 -3.23, 500.68 9.19, 500 25 M500 25 C502.7 41.89, 495.8 63.34, 500 75 M500 25 C500.65 41, 499.59 56.22, 500 75 M500 75 C501.61 94.9, 492.3 98.44, 475 100 M500 75 C500.41 87.61, 491.54 97.09, 475 100 M475 100 C361.56 99.95, 244 100.62, 25 100 M475 100 C316.07 102.9, 156.36 103.13, 25 100 M25 100 C6.76 99.21, -2.17 88.52, 0 75 M25 100 C5.37 97.81, 3.75 87.33, 0 75 M0 75 C0.27 59.37, 2.57 47.52, 0 25 M0 75 C1.22 62.41, 0.18 45.26, 0 25 M0 25 C-1.32 9.34, 7.89 -2.41, 25 0 M0 25 C-3.73 7.47, 6.65 1.41, 25 0" stroke="#f08c00" stroke-width="2" fill="none"></path></g><g transform="translate(1678.515625 1058.3999999999996) rotate(0 221.484375 21.600000000000364)"><text x="221.484375" y="0" font-family="Cascadia, Segoe UI Emoji" font-size="36px" fill="#1e1e1e" text-anchor="middle" style="white-space: pre;" direction="ltr" dominant-baseline="text-before-edge">Topic 3 - Partition 2</text></g><g mask="url(#mask-Cm_qJyu_dNX0kff52uHMK)" stroke-linecap="round"><g transform="translate(690 850) rotate(0 307.3990694500503 -0.32451257517277554)"><path d="M-2.69 0.05 C100.1 -0.52, 513.42 -0.76, 617.49 -0.69" stroke="#1e1e1e" stroke-width="2.5" fill="none" stroke-dasharray="8 10"></path></g><g transform="translate(690 850) rotate(0 307.3990694500503 -0.32451257517277554)"><path d="M589.38 5.98 C597.33 9.17, 608.22 3.47, 613.52 -2.82" stroke="#1e1e1e" stroke-width="2.5" fill="none"></path></g><g transform="translate(690 850) rotate(0 307.3990694500503 -0.32451257517277554)"><path d="M589.37 -14.54 C597.73 -4.64, 608.62 -3.63, 613.52 -2.82" stroke="#1e1e1e" stroke-width="2.5" fill="none"></path></g></g><mask id="mask-Cm_qJyu_dNX0kff52uHMK"><rect x="0" y="0" fill="#fff" width="1410" height="950"></rect><rect x="968.359375" y="828.3999999999996" fill="#000" width="63.28125" height="43.199999999999996" opacity="1"></rect></mask><g transform="translate(968.359375 828.3999999999996) rotate(0 29.03969445005032 21.27548742482759)"><text x="31.640625" y="0" font-family="Cascadia, Segoe UI Emoji" font-size="36px" fill="#1e1e1e" text-anchor="middle" style="white-space: pre;" direction="ltr" dominant-baseline="text-before-edge">ACK</text></g><g mask="url(#mask-RUlTagze6fQ5hfIgs77aD)" stroke-linecap="round"><g transform="translate(1330 490) rotate(0 -329.5636101983491 0.5721155069768429)"><path d="M1.06 1.52 C-108.97 1.16, -550.1 0, -660.19 -0.38" stroke="#1e1e1e" stroke-width="2.5" fill="none" stroke-dasharray="8 10"></path></g><g transform="translate(1330 490) rotate(0 -329.5636101983491 0.5721155069768429)"><path d="M-629.79 -10.82 C-640.84 -6.48, -649.83 -2.29, -657.82 -3.66" stroke="#1e1e1e" stroke-width="2.5" fill="none"></path></g><g transform="translate(1330 490) rotate(0 -329.5636101983491 0.5721155069768429)"><path d="M-629.85 9.7 C-641.15 7.88, -650.13 5.92, -657.82 -3.66" stroke="#1e1e1e" stroke-width="2.5" fill="none"></path></g></g><mask id="mask-RUlTagze6fQ5hfIgs77aD"><rect x="0" y="0" fill="#fff" width="2090" height="590"></rect><rect x="905.078125" y="468.39999999999964" fill="#000" width="189.84375" height="43.199999999999996" opacity="1"></rect></mask><g transform="translate(905.078125 468.39999999999964) rotate(0 95.35826480165088 22.172115506977207)"><text x="94.921875" y="0" font-family="Cascadia, Segoe UI Emoji" font-size="36px" fill="#1e1e1e" text-anchor="middle" style="white-space: pre;" direction="ltr" dominant-baseline="text-before-edge">Pop - Get</text></g></svg>