<svg version="1.1" xmlns="http://www.w3.org/2000/svg" viewBox="0 0 1360 860" width="1360" height="860">
  <!-- svg-source:excalidraw -->
  
  <defs>
    <style class="style-fonts">
      @font-face {
        font-family: "Virgil";
        src: url("https://excalidraw.com/Virgil.woff2");
      }
      @font-face {
        font-family: "Cascadia";
        src: url("https://excalidraw.com/Cascadia.woff2");
      }
    </style>
    
  </defs>
  <rect x="0" y="0" width="1360" height="860" fill="#ffffff"></rect><g stroke-linecap="round" transform="translate(10 10) rotate(0 670 420)"><path d="M30.85 1.77 L1310.44 1.77 L1329.62 5.19 L1333.61 10.91 L1342.73 35.11 L1337.64 805.99 L1338.58 823.55 L1330.61 834.34 L1306.91 843.16 L29.97 839.91 L15.87 832.22 L5.03 822.79 L-1.04 809.6 L-3.5 33.69 L3.57 17.35 L9.94 11.44 L14.46 2.1 L32.31 -0.5" stroke="none" stroke-width="0" fill="#fff"></path><path d="M32 0 M32 0 C487.05 -5.32, 943.06 -5.52, 1308 0 M32 0 C400.23 2.33, 766.46 1.61, 1308 0 M1308 0 C1331.43 1.93, 1343.43 10.44, 1340 32 M1308 0 C1333.27 -3.1, 1339.37 13.69, 1340 32 M1340 32 C1341.77 191.31, 1342.36 352.36, 1340 808 M1340 32 C1346.84 305.08, 1346.17 577.97, 1340 808 M1340 808 C1336.96 829.24, 1327.69 839.13, 1308 840 M1340 808 C1339.21 831.77, 1327.79 839.61, 1308 840 M1308 840 C1041.71 835.82, 776.94 836.47, 32 840 M1308 840 C923.83 839.54, 540.95 838.8, 32 840 M32 840 C13.05 842.46, -1.93 831.99, 0 808 M32 840 C13.39 839.93, 3.24 829.92, 0 808 M0 808 C-0.68 619.61, -0.31 428.59, 0 32 M0 808 C-5.22 579.6, -4.47 351.14, 0 32 M0 32 C3.32 11.1, 10.57 3.94, 32 0 M0 32 C2.37 14.5, 7.51 -3.47, 32 0" stroke="#1e1e1e" stroke-width="4" fill="none"></path></g><g stroke-linecap="round" transform="translate(850 30) rotate(0 150 110)"><path d="M186.04 23.95 L282.47 97.88 L287.34 107.04 L288.24 111.32 L284.36 116.3 L277.48 127.03 L160.24 213.6 L144.37 215.45 L130.36 202.63 L24.39 132.53 L7.75 116.12 L8.04 108.41 L23.18 94.27 L142.58 9.53 L154.44 8.48 L155.78 9.19 L191.18 23.79" stroke="none" stroke-width="0" fill="#ffec99"></path><path d="M188.75 27.75 M188.75 27.75 C217.74 50.38, 247.61 73.21, 262.25 83.25 M188.75 27.75 C218.27 49.85, 245.3 71.22, 262.25 83.25 M262.25 83.25 C303.88 110.86, 300.29 113.48, 262.25 138.75 M262.25 83.25 C297.6 110.37, 295.78 111.74, 262.25 138.75 M262.25 138.75 C249.4 154.83, 226.67 165.25, 188.75 192.25 M262.25 138.75 C245.23 152.99, 228.38 163.02, 188.75 192.25 M188.75 192.25 C150.42 217.42, 148.02 221.97, 113.25 192.25 M188.75 192.25 C154.92 218.42, 152.26 215.61, 113.25 192.25 M113.25 192.25 C92.59 171.35, 67.95 156.53, 37.75 138.75 M113.25 192.25 C87.35 175.5, 60.54 156.21, 37.75 138.75 M37.75 138.75 C-1.2 110.28, 1.35 114.61, 37.75 83.25 M37.75 138.75 C-4.32 113.78, -2.67 109.53, 37.75 83.25 M37.75 83.25 C66.49 60.46, 87.57 45.42, 113.25 27.75 M37.75 83.25 C54.58 68.76, 72.95 57.33, 113.25 27.75 M113.25 27.75 C148.91 -2.43, 153.16 -2.6, 188.75 27.75 M113.25 27.75 C149.33 2.87, 152.94 -3.1, 188.75 27.75" stroke="#f08c00" stroke-width="2" fill="none"></path></g><g transform="translate(946 118.39999999999964) rotate(0 54 21.600000000000364)"><text x="54" y="0" font-family="Cascadia, Segoe UI Emoji" font-size="36px" fill="#1e1e1e" text-anchor="middle" style="white-space: pre;" direction="ltr" dominant-baseline="text-before-edge">协调者</text></g><g stroke-linecap="round" transform="translate(90 250) rotate(0 150 210)"><path d="M29.16 -3.26 L265.7 -2.98 L279.78 3.62 L298.11 9.92 L299.9 34.4 L298.66 386.86 L301.96 404.7 L287.13 412.15 L271.06 419.53 L31.92 419.49 L16.91 417.28 L3.04 404.96 L1.84 389.7 L-0.37 26.5 L6.8 7.94 L19.99 -0.07 L33.39 -3.5" stroke="none" stroke-width="0" fill="#fff"></path><path d="M32 0 M32 0 C129.05 1.05, 222.43 2.92, 268 0 M32 0 C111.63 0.12, 192.54 -0.56, 268 0 M268 0 C290.84 0.26, 299.27 8.23, 300 32 M268 0 C293.75 2.53, 300.39 6.22, 300 32 M300 32 C297.12 125.56, 298.8 218.01, 300 388 M300 32 C296.09 140.05, 297.13 246.79, 300 388 M300 388 C300.96 405.36, 293.16 417.04, 268 420 M300 388 C301.44 410.28, 293.41 417.74, 268 420 M268 420 C197.27 417.53, 127.58 419.07, 32 420 M268 420 C177.79 423.3, 83.89 422.01, 32 420 M32 420 C11.13 421.61, -2.08 412.4, 0 388 M32 420 C13.45 423.03, 2.55 412.67, 0 388 M0 388 C1.13 296.37, 2.41 198.07, 0 32 M0 388 C-1.38 269.25, -1.67 148.22, 0 32 M0 32 C0.14 10.44, 9.59 0.06, 32 0 M0 32 C2.55 7.71, 11.75 1.91, 32 0" stroke="#1e1e1e" stroke-width="4" fill="none"></path></g><g stroke-linecap="round" transform="translate(130 310) rotate(0 110 48.5)"><path d="M21.95 -2.98 L204.14 3.14 L219.2 6.9 L219.52 20.97 L217.15 82.22 L214.49 96.29 L195.38 93.65 L16.7 95.01 L5.98 90.43 L-0.71 77.71 L-1.09 16.02 L7.9 7.76 L12.78 3.51 L23.05 -0.06" stroke="none" stroke-width="0" fill="#a5d8ff"></path><path d="M24.25 0 M24.25 0 C80.71 2.8, 143.64 -3.38, 195.75 0 M24.25 0 C90.12 -1.1, 155.17 -2.37, 195.75 0 M195.75 0 C212.01 -2.18, 223.21 4.28, 220 24.25 M195.75 0 C213.65 0.3, 219.16 5.28, 220 24.25 M220 24.25 C216.67 41.88, 218.93 61.72, 220 72.75 M220 24.25 C220.64 36.84, 218.7 49.1, 220 72.75 M220 72.75 C219.16 91.34, 214.31 97.73, 195.75 97 M220 72.75 C221.11 84.35, 216.32 93.6, 195.75 97 M195.75 97 C136.96 99.85, 84.24 96.7, 24.25 97 M195.75 97 C151.25 97.58, 102.85 97.08, 24.25 97 M24.25 97 C10.54 99.05, -3.89 87.91, 0 72.75 M24.25 97 C8.61 98.85, -2.4 92.45, 0 72.75 M0 72.75 C2.26 53.82, -1.61 34.3, 0 24.25 M0 72.75 C-2.4 58.87, -0.24 43.69, 0 24.25 M0 24.25 C0.4 11.56, 7.58 -0.13, 24.25 0 M0 24.25 C0.16 7.82, 6.84 0.07, 24.25 0" stroke="#4dabf7" stroke-width="4" fill="none"></path></g><g transform="translate(157.96875 341.7000000000007) rotate(0 82.03125 16.800000000000182)"><text x="82.03125" y="0" font-family="Cascadia, Segoe UI Emoji" font-size="28px" fill="#1e1e1e" text-anchor="middle" style="white-space: pre;" direction="ltr" dominant-baseline="text-before-edge">consumer 1</text></g><g stroke-linecap="round" transform="translate(130 430) rotate(0 110 48.5)"><path d="M26.86 -2.58 L206.26 3.91 L215.25 8.33 L223.58 21.26 L218.12 80.01 L213.59 93.12 L195.67 96.49 L12.55 94.76 L4.6 88.4 L2.21 80.13 L-0.49 20.56 L4.86 6 L15.63 -0.55 L25.64 -3.5" stroke="none" stroke-width="0" fill="#a5d8ff"></path><path d="M24.25 0 M24.25 0 C96.04 0.54, 163.47 2.77, 195.75 0 M24.25 0 C82.14 -0.19, 141.54 -1.01, 195.75 0 M195.75 0 C213.43 0.26, 219.27 5.65, 220 24.25 M195.75 0 C216.33 2.53, 220.39 3.64, 220 24.25 M220 24.25 C217.97 38.11, 220.59 50.23, 220 72.75 M220 24.25 C218.8 40.07, 220.42 53.84, 220 72.75 M220 72.75 C220.96 84.95, 215.74 94.04, 195.75 97 M220 72.75 C221.44 89.87, 216 94.74, 195.75 97 M195.75 97 C143.85 95.14, 93.18 96.98, 24.25 97 M195.75 97 C130.68 100.13, 61.2 98.6, 24.25 97 M24.25 97 C8.54 98.61, -2.08 91.99, 0 72.75 M24.25 97 C10.87 100.03, 2.55 92.25, 0 72.75 M0 72.75 C0.28 63.65, 2.28 44.14, 0 24.25 M0 72.75 C-0.12 58.16, -0.57 40.02, 0 24.25 M0 24.25 C0.14 7.86, 7.01 0.06, 24.25 0 M0 24.25 C2.55 5.13, 9.17 1.91, 24.25 0" stroke="#4dabf7" stroke-width="4" fill="none"></path></g><g transform="translate(157.96875 461.7000000000007) rotate(0 82.03125 16.800000000000182)"><text x="82.03125" y="0" font-family="Cascadia, Segoe UI Emoji" font-size="28px" fill="#1e1e1e" text-anchor="middle" style="white-space: pre;" direction="ltr" dominant-baseline="text-before-edge">consumer 2</text></g><g stroke-linecap="round" transform="translate(130 550) rotate(0 110 48.5)"><path d="M22.91 -1.14 L210.32 4.21 L216.22 6.12 L222.68 18.09 L218.4 82.85 L209.44 92.87 L194.29 94.46 L15.48 97.18 L5.2 92.94 L-0.82 78.37 L2.36 16.5 L7.45 2.56 L17.63 0.98 L22.05 3.26" stroke="none" stroke-width="0" fill="#a5d8ff"></path><path d="M24.25 0 M24.25 0 C71.42 -0.62, 114.57 -0.67, 195.75 0 M24.25 0 C67.12 3.4, 108.11 2.04, 195.75 0 M195.75 0 C215.76 2.2, 220.34 4.22, 220 24.25 M195.75 0 C210.11 -1.84, 218.91 6.19, 220 24.25 M220 24.25 C220.29 37.08, 219.7 55.46, 220 72.75 M220 24.25 C221.06 39.75, 222.49 57.74, 220 72.75 M220 72.75 C221.25 89.74, 215.47 95.03, 195.75 97 M220 72.75 C219.78 91.37, 208.07 95.52, 195.75 97 M195.75 97 C143.42 97.34, 86.62 101.9, 24.25 97 M195.75 97 C135.74 96.94, 74.22 97.67, 24.25 97 M24.25 97 C10.51 99.64, 2.21 91.82, 0 72.75 M24.25 97 C6.43 95.89, -3.99 88.97, 0 72.75 M0 72.75 C0.97 55.03, -0.17 35.06, 0 24.25 M0 72.75 C0.19 53.87, -0.42 35.25, 0 24.25 M0 24.25 C2.22 5.51, 9.03 1.66, 24.25 0 M0 24.25 C1.49 9.11, 7.53 -1.36, 24.25 0" stroke="#4dabf7" stroke-width="4" fill="none"></path></g><g transform="translate(157.96875 581.7000000000007) rotate(0 82.03125 16.800000000000182)"><text x="82.03125" y="0" font-family="Cascadia, Segoe UI Emoji" font-size="28px" fill="#1e1e1e" text-anchor="middle" style="white-space: pre;" direction="ltr" dominant-baseline="text-before-edge">consumer 3</text></g><g transform="translate(190 250) rotate(0 57.421875 16.800000000000182)"><text x="0" y="0" font-family="Cascadia, Segoe UI Emoji" font-size="28px" fill="#1e1e1e" text-anchor="start" style="white-space: pre;" direction="ltr" dominant-baseline="text-before-edge">Group 1</text></g><g stroke-linecap="round" transform="translate(790 530) rotate(0 210 110)"><path d="M29.21 -2.97 L388.73 -0.35 L405.41 7.57 L412.49 12.8 L422.04 28.88 L422.24 189.62 L416.56 208.91 L405.11 215.39 L387.79 220.25 L29.62 223.98 L12.92 217.11 L4.14 205.44 L2.53 186.32 L-3.05 24.9 L11.07 7.85 L17.16 3.63 L28.35 0.27" stroke="none" stroke-width="0" fill="#ffc9c9"></path><path d="M32 0 M32 0 C125.17 1.72, 217.42 0.48, 388 0 M32 0 C148.86 0.26, 268.91 0.75, 388 0 M388 0 C412.83 -1.54, 419.42 11.36, 420 32 M388 0 C408.72 -1.73, 421.09 6.97, 420 32 M420 32 C417.31 88.5, 417.85 146.66, 420 188 M420 32 C417.13 81.74, 416.97 127.45, 420 188 M420 188 C423.85 207.08, 405.55 221.08, 388 220 M420 188 C422.6 208.96, 409.59 221.89, 388 220 M388 220 C247.88 213.91, 104.92 215.58, 32 220 M388 220 C291.09 224.09, 193.36 224.61, 32 220 M32 220 C14.42 223.66, 2.34 208.24, 0 188 M32 220 C9.29 224.4, 4.11 207.59, 0 188 M0 188 C4.7 143.22, 0.95 94.6, 0 32 M0 188 C-2.2 129.25, -1.65 68.07, 0 32 M0 32 C-3.35 11.44, 9.79 -2.03, 32 0 M0 32 C2.37 13.26, 14.53 -1.9, 32 0" stroke="#fa5252" stroke-width="4" fill="none"></path></g><g transform="translate(936.71875 618.4000000000015) rotate(0 63.28125 21.600000000000364)"><text x="63.28125" y="0" font-family="Cascadia, Segoe UI Emoji" font-size="36px" fill="#1e1e1e" text-anchor="middle" style="white-space: pre;" direction="ltr" dominant-baseline="text-before-edge">Broker</text></g><g mask="url(#mask-GkPA-lLHbID5QyXXdcpOe)" stroke-linecap="round"><g transform="translate(1011.7811431655646 254.26060550019065) rotate(0 -1.5212791243866377 130.73458114650293)"><path d="M-1.28 -1.16 C-1.87 42.73, -2.03 218.03, -1.26 262.63" stroke="#1e1e1e" stroke-width="4.5" fill="none" stroke-dasharray="8 12"></path></g><g transform="translate(1011.7811431655646 254.26060550019065) rotate(0 -1.5212791243866377 130.73458114650293)"><path d="M-13.37 231.24 C-10.58 248.61, -1.15 256.46, -4.4 266.37" stroke="#1e1e1e" stroke-width="4.5" fill="none"></path></g><g transform="translate(1011.7811431655646 254.26060550019065) rotate(0 -1.5212791243866377 130.73458114650293)"><path d="M7.15 231.1 C2.11 248.34, 3.7 256.24, -4.4 266.37" stroke="#1e1e1e" stroke-width="4.5" fill="none"></path></g></g><mask id="mask-GkPA-lLHbID5QyXXdcpOe"><rect x="0" y="0" fill="#fff" width="1443.7811431655646" height="618.7917801839903"></rect><rect x="872.2944465242927" y="369.72619284209213" fill="#000" width="280" height="33.6" opacity="1"></rect></mask><g transform="translate(872.2944465242927 369.72619284209213) rotate(0 137.96541751688528 15.26899380460145)"><text x="140" y="0" font-family="Cascadia, Segoe UI Emoji" font-size="28px" fill="#1e1e1e" text-anchor="middle" style="white-space: pre;" direction="ltr" dominant-baseline="text-before-edge">获取消费者和分区信息</text></g><g mask="url(#mask-1Vvd4CvH7Ev9CDQqONb0A)" stroke-linecap="round"><g transform="translate(390 550) rotate(0 199.893416395038 38.702804896980524)"><path d="M-1.41 -2.3 C65.42 10.7, 334.66 65.83, 401.2 79.71" stroke="#1e1e1e" stroke-width="4.5" fill="none" stroke-dasharray="8 12"></path></g><g transform="translate(390 550) rotate(0 199.893416395038 38.702804896980524)"><path d="M368.22 85.78 C380.19 79.87, 391.13 83.72, 401.96 83.67" stroke="#1e1e1e" stroke-width="4.5" fill="none"></path></g><g transform="translate(390 550) rotate(0 199.893416395038 38.702804896980524)"><path d="M372.37 65.68 C383.3 65.92, 392.96 75.96, 401.96 83.67" stroke="#1e1e1e" stroke-width="4.5" fill="none"></path></g></g><mask id="mask-1Vvd4CvH7Ev9CDQqONb0A"><rect x="0" y="0" fill="#fff" width="890" height="730"></rect><rect x="534" y="573.2000000000007" fill="#000" width="112" height="33.6" opacity="1"></rect></mask><g transform="translate(534 573.2000000000007) rotate(0 55.893416395038 15.502804896979796)"><text x="56" y="0" font-family="Cascadia, Segoe UI Emoji" font-size="28px" fill="#1e1e1e" text-anchor="middle" style="white-space: pre;" direction="ltr" dominant-baseline="text-before-edge">建立连接</text></g><g stroke-linecap="round"><g transform="translate(390 330) rotate(0 229.57554266229272 -88.58014846816695)"><path d="M-1.71 0.36 C75.36 -29.6, 384.3 -147.09, 460.86 -177.53" stroke="#1e1e1e" stroke-width="4.5" fill="none" stroke-dasharray="8 12"></path></g><g transform="translate(390 330) rotate(0 229.57554266229272 -88.58014846816695)"><path d="M438.8 -156.54 C447.01 -165.68, 445.78 -163.88, 462.41 -180.15" stroke="#1e1e1e" stroke-width="4.5" fill="none"></path></g><g transform="translate(390 330) rotate(0 229.57554266229272 -88.58014846816695)"><path d="M431.39 -175.67 C441.72 -180.05, 442.29 -173.58, 462.41 -180.15" stroke="#1e1e1e" stroke-width="4.5" fill="none"></path></g></g><mask></mask><g stroke-linecap="round"><g transform="translate(890 190) rotate(0 -249.93854868635572 91.11636094078403)"><path d="M-1.14 0.8 C-84.52 31.35, -416.01 151.79, -498.74 181.44" stroke="#1e1e1e" stroke-width="4.5" fill="none" stroke-dasharray="8 12"></path></g><g transform="translate(890 190) rotate(0 -249.93854868635572 91.11636094078403)"><path d="M-474.58 164.01 C-482.09 172.36, -494.18 172.32, -500.99 179.1" stroke="#1e1e1e" stroke-width="4.5" fill="none"></path></g><g transform="translate(890 190) rotate(0 -249.93854868635572 91.11636094078403)"><path d="M-467.6 183.31 C-477.34 184.75, -491.9 177.86, -500.99 179.1" stroke="#1e1e1e" stroke-width="4.5" fill="none"></path></g></g><mask></mask><g transform="translate(470 190) rotate(0 84 16.800000000000182)"><text x="0" y="0" font-family="Cascadia, Segoe UI Emoji" font-size="28px" fill="#1e1e1e" text-anchor="start" style="white-space: pre;" direction="ltr" dominant-baseline="text-before-edge">下发分配关系</text></g></svg>