<svg version="1.1" xmlns="http://www.w3.org/2000/svg" viewBox="0 0 2740 960" width="2740" height="960">
  <!-- svg-source:excalidraw -->
  
  <defs>
    <style class="style-fonts">
      @font-face {
        font-family: "Virgil";
        src: url("https://excalidraw.com/Virgil.woff2");
      }
      @font-face {
        font-family: "Cascadia";
        src: url("https://excalidraw.com/Cascadia.woff2");
      }
    </style>
    
  </defs>
  <rect x="0" y="0" width="2740" height="960" fill="#ffffff"></rect><g stroke-linecap="round" transform="translate(10 10) rotate(0 1360 470)"><path d="M31.45 -3.74 L2690.36 3.14 L2701.56 4.25 L2714.09 11.11 L2720.61 29.7 L2717.23 906.57 L2721.43 921.01 L2705.9 932.13 L2686.43 942.02 L29.78 939.86 L19.56 940.02 L3.11 928.23 L2.35 905.69 L-0.31 29.19 L1.88 21.21 L7.39 4.6 L16.8 -1.85 L31.65 3.76" stroke="none" stroke-width="0" fill="#fff"></path><path d="M32 0 M32 0 C651.12 -10.6, 1269.43 -8.95, 2688 0 M32 0 C813.78 -16.17, 1595.39 -15.21, 2688 0 M2688 0 C2710.72 -3.58, 2718.26 7.05, 2720 32 M2688 0 C2707.03 0.88, 2718.4 14.91, 2720 32 M2720 32 C2727.52 328.15, 2727.07 625.78, 2720 908 M2720 32 C2713.75 376.45, 2713.84 722.01, 2720 908 M2720 908 C2719.99 930.15, 2713.14 939.09, 2688 940 M2720 908 C2724.36 933.11, 2709.63 939.86, 2688 940 M2688 940 C1717.92 951.07, 746.97 951.33, 32 940 M2688 940 C2051.54 933.26, 1414.2 934.07, 32 940 M32 940 C12.63 936.65, 2.92 928.88, 0 908 M32 940 C6.4 942.86, 2.96 925.24, 0 908 M0 908 C2.84 711.45, 4.4 511.9, 0 32 M0 908 C-2.16 721.76, -1.74 534.69, 0 32 M0 32 C2.63 10.84, 13.08 3.73, 32 0 M0 32 C2.77 14.62, 12.04 3.31, 32 0" stroke="#1e1e1e" stroke-width="4" fill="none"></path></g><g stroke-linecap="round" transform="translate(130 190) rotate(0 180 110)"><path d="M298.71 27.57 C314.15 33.1, 325.25 43.8, 334.99 53.44 C344.73 63.08, 353.34 74.25, 357.16 85.42 C360.98 96.58, 360.05 109.08, 357.91 120.44 C355.77 131.8, 351.25 143.17, 344.3 153.58 C337.35 163.99, 327.82 174.43, 316.22 182.89 C304.61 191.35, 290.71 198.72, 274.67 204.35 C258.63 209.97, 238.46 214.04, 219.98 216.64 C201.49 219.24, 181.94 220.62, 163.77 219.97 C145.59 219.32, 127.63 217.04, 110.92 212.74 C94.2 208.43, 77.54 201.48, 63.48 194.13 C49.41 186.77, 36.41 178.24, 26.54 168.58 C16.67 158.93, 8.36 147.46, 4.26 136.21 C0.15 124.96, 0.26 112.87, 1.92 101.09 C3.57 89.3, 7.26 75.98, 14.18 65.5 C21.1 55.01, 31.07 46.34, 43.46 38.19 C55.85 30.04, 72.57 22.44, 88.53 16.61 C104.48 10.78, 121.75 6.01, 139.18 3.19 C156.62 0.37, 174.52 -1.06, 193.15 -0.32 C211.79 0.42, 229.41 0.32, 251 7.62 C272.6 14.93, 307.87 34.28, 322.72 43.5 C337.57 52.72, 342.52 62.03, 340.08 62.96 M50.44 30.51 C60.68 21.84, 82.64 17.56, 98.99 13.04 C115.34 8.52, 130.76 5.4, 148.55 3.38 C166.34 1.36, 187.39 -0.59, 205.74 0.92 C224.1 2.43, 241.58 7.8, 258.68 12.44 C275.78 17.08, 295.3 21.08, 308.35 28.75 C321.39 36.42, 328.81 47.78, 336.96 58.44 C345.12 69.11, 353.98 81.25, 357.27 92.74 C360.56 104.23, 359.51 116.58, 356.7 127.41 C353.88 138.25, 347.99 147.56, 340.37 157.75 C332.75 167.94, 323.8 180.66, 310.98 188.55 C298.16 196.44, 279.87 200, 263.46 205.08 C247.04 210.16, 230.24 216.32, 212.49 219.02 C194.75 221.72, 175.51 222.81, 156.98 221.28 C138.45 219.75, 118.19 214.99, 101.31 209.82 C84.43 204.66, 69.01 198.33, 55.72 190.27 C42.43 182.21, 30.23 171.85, 21.58 161.48 C12.93 151.1, 7 139.67, 3.81 128.02 C0.62 116.36, -0.13 102.36, 2.42 91.55 C4.98 80.75, 11.34 73.31, 19.16 63.18 C26.98 53.06, 43.8 35.4, 49.33 30.78 C54.87 26.17, 49.76 33.34, 52.36 35.49" stroke="none" stroke-width="0" fill="#e9ecef"></path><path d="M297.4 24.81 C312.77 30.59, 325.39 41.28, 335.22 51.38 C345.04 61.47, 352.29 74.1, 356.35 85.4 C360.42 96.69, 361.29 107.89, 359.61 119.13 C357.93 130.38, 353.1 142.76, 346.26 152.84 C339.41 162.93, 330.92 171.05, 318.53 179.66 C306.15 188.26, 288.13 198.28, 271.93 204.47 C255.74 210.66, 239.16 213.95, 221.38 216.78 C203.59 219.62, 183.59 222.36, 165.23 221.48 C146.88 220.6, 128.04 216.01, 111.25 211.51 C94.45 207.01, 78.82 201.54, 64.46 194.48 C50.11 187.42, 35.09 178.93, 25.12 169.16 C15.15 159.38, 8.87 147.24, 4.63 135.82 C0.38 124.39, -1.63 111.61, -0.34 100.59 C0.96 89.58, 4.86 80.19, 12.4 69.72 C19.94 59.25, 32.36 46.41, 44.91 37.76 C57.46 29.12, 72.1 23.83, 87.7 17.87 C103.3 11.92, 120.61 5.11, 138.49 2.05 C156.37 -1.01, 176.42 -1.67, 194.99 -0.5 C213.55 0.68, 229.34 2.36, 249.89 9.09 C270.43 15.83, 304.39 31.63, 318.25 39.92 C332.11 48.21, 335.24 57.69, 333.05 58.85 M289.57 23.97 C304.75 28.55, 313.81 36.73, 324.45 45.71 C335.09 54.7, 347.1 66.89, 353.41 77.89 C359.71 88.88, 362.32 100.23, 362.28 111.67 C362.24 123.11, 358.99 136.27, 353.16 146.52 C347.32 156.77, 339 163.98, 327.28 173.16 C315.56 182.33, 298.46 194.77, 282.83 201.55 C267.19 208.34, 251.3 210.41, 233.48 213.88 C215.67 217.36, 193.81 222.01, 175.92 222.4 C158.03 222.8, 143 219.79, 126.15 216.26 C109.3 212.72, 89.93 207.87, 74.83 201.19 C59.74 194.5, 47 185.88, 35.59 176.14 C24.18 166.4, 12.31 153.48, 6.36 142.76 C0.41 132.04, -0.93 122.84, -0.1 111.81 C0.72 100.78, 5.15 88.01, 11.32 76.55 C17.49 65.09, 25.79 52.23, 36.91 43.06 C48.03 33.89, 63.49 28.27, 78.05 21.55 C92.62 14.83, 107.04 6.79, 124.29 2.75 C141.55 -1.28, 162.7 -3.27, 181.58 -2.66 C200.47 -2.05, 220.52 2.78, 237.62 6.41 C254.72 10.05, 276.65 16.76, 284.2 19.14 C291.75 21.53, 283.86 19.34, 282.91 20.72" stroke="#1e1e1e" stroke-width="4" fill="none"></path></g><g transform="translate(225.84577938642178 278.618254069479) rotate(0 84.375 21.600000000000364)"><text x="84.375" y="0" font-family="Cascadia, Segoe UI Emoji" font-size="36px" fill="#1e1e1e" text-anchor="middle" style="white-space: pre;" direction="ltr" dominant-baseline="text-before-edge">Producer</text></g><g stroke-linecap="round" transform="translate(130 570) rotate(0 180 110)"><path d="M252.93 9.42 C269.84 12.2, 283.86 20.94, 297.22 28.48 C310.57 36.02, 323.36 44.95, 333.08 54.65 C342.81 64.36, 350.95 75.75, 355.56 86.69 C360.17 97.63, 362.61 109.25, 360.74 120.29 C358.87 131.33, 352.09 142.51, 344.34 152.95 C336.59 163.38, 326.17 174.06, 314.25 182.88 C302.32 191.7, 288.35 200, 272.79 205.88 C257.23 211.76, 239.01 215.62, 220.89 218.17 C202.78 220.72, 182.83 222.17, 164.09 221.18 C145.36 220.19, 125.4 216.9, 108.48 212.21 C91.57 207.52, 76.46 201.01, 62.61 193.05 C48.77 185.08, 35.15 174.19, 25.4 164.42 C15.65 154.64, 7.94 145.01, 4.12 134.39 C0.29 123.76, 0.68 111.92, 2.46 100.67 C4.24 89.42, 8.12 77.53, 14.82 66.88 C21.52 56.23, 30.29 45.51, 42.67 36.78 C55.06 28.04, 72.96 20.15, 89.13 14.48 C105.3 8.82, 121.7 5.29, 139.69 2.79 C157.68 0.3, 167.87 -6.14, 197.08 -0.48 C226.29 5.19, 289.7 22.79, 314.95 36.79 C340.19 50.79, 350.81 82.21, 348.55 83.53 M33.7 47.04 C41.28 37.22, 59.42 27.51, 74.44 20.76 C89.45 14, 105.67 10.36, 123.77 6.51 C141.87 2.66, 164.74 -2.15, 183.04 -2.37 C201.33 -2.59, 216.39 1.03, 233.52 5.19 C250.65 9.34, 270.7 15.56, 285.82 22.56 C300.94 29.55, 313.53 38.38, 324.24 47.17 C334.94 55.96, 343.8 64.51, 350.08 75.31 C356.35 86.11, 361.81 100.88, 361.9 111.97 C361.99 123.07, 356.36 131.3, 350.6 141.87 C344.84 152.43, 337.73 165.42, 327.34 175.35 C316.95 185.28, 303.47 194.71, 288.28 201.44 C273.1 208.18, 254.1 212.43, 236.22 215.75 C218.35 219.08, 199.56 221.56, 181.03 221.39 C162.5 221.22, 142.65 218.6, 125.02 214.74 C107.39 210.87, 90.28 205.36, 75.26 198.2 C60.24 191.05, 45.85 180.56, 34.89 171.8 C23.92 163.03, 15.53 156.37, 9.46 145.63 C3.38 134.89, -1.29 118.88, -1.58 107.36 C-1.87 95.85, 1.53 86.45, 7.71 76.55 C13.89 66.65, 30.76 52.79, 35.52 47.96 C40.29 43.13, 33.55 46.53, 36.28 47.56" stroke="none" stroke-width="0" fill="#e9ecef"></path><path d="M48.11 36.87 C57.62 28.01, 75.08 20.44, 90.98 14.78 C106.89 9.11, 125.12 5.54, 143.55 2.87 C161.98 0.19, 183.48 -2.5, 201.59 -1.26 C219.69 -0.02, 235.66 5.38, 252.19 10.32 C268.73 15.27, 286.81 20.58, 300.78 28.41 C314.74 36.24, 326.68 47.45, 336 57.32 C345.31 67.19, 352.58 76.68, 356.67 87.63 C360.75 98.58, 362.82 111.44, 360.51 123.01 C358.2 134.59, 350.76 146.87, 342.82 157.09 C334.88 167.31, 325.3 176.36, 312.87 184.34 C300.45 192.31, 284.58 199.06, 268.29 204.95 C251.99 210.84, 232.85 217.41, 215.11 219.7 C197.37 221.99, 179.8 219.96, 161.85 218.68 C143.91 217.4, 124.57 216.73, 107.44 212.02 C90.31 207.31, 72.96 198.48, 59.09 190.42 C45.22 182.36, 33.32 173.24, 24.22 163.66 C15.12 154.09, 8.54 144.02, 4.47 132.97 C0.39 121.91, -1.92 108.53, -0.24 97.32 C1.45 86.12, 3.27 78.07, 14.58 65.72 C25.89 53.37, 54.16 31.29, 67.62 23.24 C81.08 15.19, 93.14 15.6, 95.33 17.45 M317.28 38.75 C331.72 45.89, 340.34 57.1, 347.72 67.62 C355.1 78.15, 359.89 91.1, 361.58 101.88 C363.27 112.66, 362.7 121.19, 357.86 132.29 C353.03 143.39, 342.63 158.55, 332.57 168.47 C322.52 178.38, 311.63 184.3, 297.53 191.81 C283.43 199.32, 264.39 208.57, 248 213.5 C231.61 218.44, 216.92 220.34, 199.2 221.4 C181.49 222.47, 159.95 222.35, 141.7 219.88 C123.46 217.4, 106.27 212.87, 89.74 206.54 C73.2 200.21, 55.03 190.35, 42.49 181.9 C29.94 173.45, 21.06 165.97, 14.46 155.86 C7.86 145.74, 4.25 133.18, 2.89 121.19 C1.54 109.2, 2.09 95.02, 6.33 83.92 C10.56 72.83, 19.32 64.49, 28.3 54.64 C37.29 44.79, 46.71 32.9, 60.24 24.83 C73.78 16.76, 92.12 10.16, 109.51 6.24 C126.9 2.31, 146.6 2.23, 164.57 1.27 C182.54 0.3, 199.68 -1.51, 217.33 0.45 C234.98 2.41, 253.71 7.34, 270.46 13.04 C287.21 18.74, 310.72 30.42, 317.81 34.66 C324.91 38.9, 315.32 36.89, 313.02 38.46" stroke="#1e1e1e" stroke-width="4" fill="none"></path></g><g transform="translate(225.84577938642178 658.618254069479) rotate(0 84.375 21.600000000000364)"><text x="84.375" y="0" font-family="Cascadia, Segoe UI Emoji" font-size="36px" fill="#1e1e1e" text-anchor="middle" style="white-space: pre;" direction="ltr" dominant-baseline="text-before-edge">Producer</text></g><g stroke-linecap="round" transform="translate(750 110) rotate(0 240 350)"><path d="M29.39 2.51 L449.79 0.38 L462.64 2.15 L476.66 16.22 L476.16 28.29 L481.17 667.31 L477.56 681.31 L471.16 696.32 L447.9 703.19 L33.91 697.51 L21.68 697.45 L5.14 685.67 L-1.18 665.16 L3.97 35.16 L0.69 20.98 L11.52 8.42 L16.1 3.12 L30.29 1.45" stroke="none" stroke-width="0" fill="#fff"></path><path d="M32 0 M32 0 C168.79 2.44, 307.97 0.75, 448 0 M32 0 C184.23 -2.43, 333.74 -3.42, 448 0 M448 0 C471.83 1.62, 483.05 11.97, 480 32 M448 0 C472.89 2.86, 483.57 7.51, 480 32 M480 32 C483.15 177.71, 484.94 328.07, 480 668 M480 32 C483.14 262.72, 482.08 492.2, 480 668 M480 668 C479.86 692.67, 472.2 701.61, 448 700 M480 668 C482.85 686.69, 473.83 701.45, 448 700 M448 700 C337.5 701.33, 231.42 698.85, 32 700 M448 700 C355.66 695.27, 261.7 696.12, 32 700 M32 700 C13.52 699.01, 3.01 691.41, 0 668 M32 700 C12.53 702.27, 0.88 693.69, 0 668 M0 668 C2.41 462.38, 3.7 256.09, 0 32 M0 668 C-0.78 429.38, -0.45 191.93, 0 32 M0 32 C2.7 12.96, 12.44 1.08, 32 0 M0 32 C3.77 9.56, 13.29 2.95, 32 0" stroke="#1e1e1e" stroke-width="4" fill="none"></path></g><g stroke-linecap="round" transform="translate(810 250) rotate(0 190 60)"><path d="M28.44 -3.22 L350.59 -3.55 L364.35 2.96 L369.14 4.46 L377.29 19.68 L383.2 86.17 L378.54 102.43 L371.13 114.8 L353.01 122.07 L31.62 121.97 L17.64 121.92 L8.48 109.6 L2.85 93.83 L2.28 22.98 L9.46 10.48 L17.35 -0.23 L29.07 -2.19" stroke="none" stroke-width="0" fill="#ffec99"></path><path d="M30 0 M30 0 C133.36 -1.78, 234.26 -0.73, 350 0 M30 0 C118.52 -2.81, 205.29 -3.1, 350 0 M350 0 C370.2 3.41, 381.45 10.43, 380 30 M350 0 C370.67 -4.56, 378.38 12.71, 380 30 M380 30 C380.92 43.15, 377.97 58.05, 380 90 M380 30 C380.87 41.32, 383.17 56.62, 380 90 M380 90 C378.99 112.36, 370.17 119.73, 350 120 M380 90 C378.86 111.77, 374.44 116.37, 350 120 M350 120 C279.23 118.49, 207.32 118.78, 30 120 M350 120 C262.1 121.79, 175.55 123.11, 30 120 M30 120 C13.46 123.2, 0.98 111.48, 0 90 M30 120 C11.79 122.12, 1.19 110.22, 0 90 M0 90 C-3.43 70.57, 2.59 47.19, 0 30 M0 90 C1.17 78.9, -0.27 64.87, 0 30 M0 30 C3.91 13.22, 8.88 0.06, 30 0 M0 30 C1.51 11.24, 13.05 3.3, 30 0" stroke="#f08c00" stroke-width="4" fill="none"></path></g><g transform="translate(883.984375 288.39999999999964) rotate(0 116.015625 21.600000000000364)"><text x="116.015625" y="0" font-family="Cascadia, Segoe UI Emoji" font-size="36px" fill="#1e1e1e" text-anchor="middle" style="white-space: pre;" direction="ltr" dominant-baseline="text-before-edge">Partition 1</text></g><g stroke-linecap="round" transform="translate(810 630) rotate(0 190 60)"><path d="M28.48 0.82 L351.42 3.58 L361.67 3.2 L376.41 10.72 L378.41 23.03 L381.31 91.07 L380.77 105.99 L365.32 118.03 L348.48 117.15 L27.92 119.44 L13.29 121.98 L9.73 113.37 L0.43 98.55 L4.14 25.32 L9.54 9.72 L20.29 1.12 L27.02 -0.39" stroke="none" stroke-width="0" fill="#ffec99"></path><path d="M30 0 M30 0 C108.07 -1.11, 189.48 -1.95, 350 0 M30 0 C147.55 -0.39, 266.26 -1.36, 350 0 M350 0 C373.67 -0.35, 381.32 12.17, 380 30 M350 0 C371.16 -0.16, 379.36 12.01, 380 30 M380 30 C381.1 53.5, 384.06 73.04, 380 90 M380 30 C380.87 45.43, 382.63 57.04, 380 90 M380 90 C377.46 109.87, 371.39 122.81, 350 120 M380 90 C381.59 109.3, 372.01 123.84, 350 120 M350 120 C272.67 119.27, 195.87 122.18, 30 120 M350 120 C243.54 118.26, 135.83 118.48, 30 120 M30 120 C9.37 120.19, -3.59 111.3, 0 90 M30 120 C9.88 124.14, 2.16 109.27, 0 90 M0 90 C3 66.21, 3.82 53.13, 0 30 M0 90 C-1.37 73.04, -0.24 57.72, 0 30 M0 30 C-2.49 13.95, 11.43 3.85, 30 0 M0 30 C-0.07 12.48, 6.49 4.16, 30 0" stroke="#fab005" stroke-width="4" fill="none"></path></g><g transform="translate(883.984375 668.3999999999996) rotate(0 116.015625 21.600000000000364)"><text x="116.015625" y="0" font-family="Cascadia, Segoe UI Emoji" font-size="36px" fill="#1e1e1e" text-anchor="middle" style="white-space: pre;" direction="ltr" dominant-baseline="text-before-edge">Partition 2</text></g><g transform="translate(948.0172573900818 138.3538978524557) rotate(0 52.734375 21.600000000000364)"><text x="0" y="0" font-family="Cascadia, Segoe UI Emoji" font-size="36px" fill="#1e1e1e" text-anchor="start" style="white-space: pre;" direction="ltr" dominant-baseline="text-before-edge">Topic</text></g><g stroke-linecap="round" transform="translate(1510 230) rotate(0 50 60)"><path d="M28.7 0.48 L77.66 -3.04 L88.58 1.79 L100.08 11.6 L102.55 21.81 L96.78 98.24 L94.79 106.7 L86.92 114.18 L74.39 120.24 L16.35 121.14 L12.59 115.29 L5.32 108.75 L-2.59 96.46 L3.9 19.02 L7.69 8.87 L10.96 1.81 L25.79 -1.83" stroke="none" stroke-width="0" fill="#96f2d7"></path><path d="M25 0 M25 0 C35.05 0.67, 48.13 -1.52, 75 0 M25 0 C45.23 -0.72, 63.49 0.23, 75 0 M75 0 C89 3.83, 98.98 9.07, 100 25 M75 0 C93.89 -0.45, 95.72 12.18, 100 25 M100 25 C100.88 54.65, 97.55 79.03, 100 95 M100 25 C100.48 40.33, 100.57 55.07, 100 95 M100 95 C99.41 114.28, 93.98 123.36, 75 120 M100 95 C103.26 114.15, 91.86 119.44, 75 120 M75 120 C58.05 117.72, 49.3 122.21, 25 120 M75 120 C63.31 118.39, 51.68 119.93, 25 120 M25 120 C7.36 118.12, -1.96 109.89, 0 95 M25 120 C3.98 123.25, 4.21 109.57, 0 95 M0 95 C-4.6 79.26, 0.95 65.13, 0 25 M0 95 C-0.18 69.4, 1.89 46.85, 0 25 M0 25 C-1.29 8.35, 9.29 3.94, 25 0 M0 25 C1.95 6.68, 12.79 -4.6, 25 0" stroke="#12b886" stroke-width="4" fill="none"></path></g><g stroke-linecap="round" transform="translate(1610 230) rotate(0 50 60)"><path d="M21.44 -1.46 L77.02 2.85 L93.02 2.75 L98.58 9.19 L103.01 24.41 L102.61 97.31 L101.8 108.77 L92.39 116.65 L74.51 118.84 L15.78 117.21 L6.36 114.8 L4.91 113.04 L-2.85 92.74 L-0.41 18.65 L3.43 5.37 L14.32 0.59 L23.12 -1.96" stroke="none" stroke-width="0" fill="#96f2d7"></path><path d="M25 0 M25 0 C41.44 -2.53, 48.05 2.9, 75 0 M25 0 C44.46 1.47, 62.52 -0.26, 75 0 M75 0 C89.48 -0.41, 96.46 12.05, 100 25 M75 0 C90.56 -1.49, 100.02 9.43, 100 25 M100 25 C104.47 48.9, 99.66 78.6, 100 95 M100 25 C100.12 40.28, 100.06 53.46, 100 95 M100 95 C98.47 110.27, 95.37 118.2, 75 120 M100 95 C100.55 109.28, 87.21 121.85, 75 120 M75 120 C63.95 116.86, 57.13 119.35, 25 120 M75 120 C55.67 121.79, 34.85 118.2, 25 120 M25 120 C4.46 122.45, -3.03 108.87, 0 95 M25 120 C11.88 116.16, -1.41 109.35, 0 95 M0 95 C-0.52 75.19, -1.29 58.37, 0 25 M0 95 C0.37 77.7, 0.23 64.75, 0 25 M0 25 C3.29 7.78, 11.3 0.65, 25 0 M0 25 C1.31 11.87, 7.45 -1.05, 25 0" stroke="#12b886" stroke-width="4" fill="none"></path></g><g stroke-linecap="round" transform="translate(1710 230) rotate(0 50 60)"><path d="M21.59 -1.68 L82.25 3.2 L87.39 1.25 L95.68 9.28 L97.18 24.12 L100.25 94.02 L96.56 103.98 L88.45 112.7 L77.83 123.66 L17.32 117.11 L13.37 119.17 L0.17 111.12 L2.21 98.38 L2.01 19.06 L4.07 5.84 L10.52 5.28 L24.04 -1.29" stroke="none" stroke-width="0" fill="#96f2d7"></path><path d="M25 0 M25 0 C41.71 -2.42, 58.92 -4.98, 75 0 M25 0 C36.92 0.39, 54.13 1.7, 75 0 M75 0 C94.47 -1.11, 98.47 6.94, 100 25 M75 0 C95.92 -2.07, 100.55 5.95, 100 25 M100 25 C98.14 37.95, 100.03 50.6, 100 95 M100 25 C100.43 51.48, 100.11 79.9, 100 95 M100 95 C97.96 108.13, 87.79 122.45, 75 120 M100 95 C96.51 108.45, 95.21 116.16, 75 120 M75 120 C57.96 119.27, 46.29 119.59, 25 120 M75 120 C61.97 119.74, 50.88 117.54, 25 120 M25 120 C7.1 121.95, 3.29 111.12, 0 95 M25 120 C11.75 120.75, 1.31 115.21, 0 95 M0 95 C-2.93 77.4, -2.92 57.9, 0 25 M0 95 C-0.64 77.28, -1.51 62.44, 0 25 M0 25 C-2.32 8.21, 4.69 3.96, 25 0 M0 25 C-0.65 9.92, 11.9 -3.32, 25 0" stroke="#12b886" stroke-width="4" fill="none"></path></g><g stroke-linecap="round" transform="translate(1810 230) rotate(0 50 60)"><path d="M21.21 2.83 L84.52 -1.43 L87.74 7.12 L99.17 6.42 L100.89 27.21 L103.38 96.62 L98.36 103.75 L89.83 112.94 L78.72 119.04 L17.85 119.63 L10.72 120.42 L5.21 108.8 L3.88 91 L-0.54 16.96 L2.54 2.42 L12.98 4.49 L26.55 2.8" stroke="none" stroke-width="0" fill="#96f2d7"></path><path d="M25 0 M25 0 C42.32 -1.45, 52.71 -1.73, 75 0 M25 0 C33.94 0.26, 45.03 -0.52, 75 0 M75 0 C94.83 -0.34, 103.65 9.43, 100 25 M75 0 C91.53 0.53, 104.19 5.99, 100 25 M100 25 C95.61 37.01, 101.73 51.27, 100 95 M100 25 C97.51 43.59, 98.41 62.61, 100 95 M100 95 C97.46 114.24, 88.59 117.58, 75 120 M100 95 C101.17 110.57, 87.78 118.59, 75 120 M75 120 C60.53 120.52, 41.26 122.94, 25 120 M75 120 C59.34 121.5, 45.3 121.57, 25 120 M25 120 C5.6 119.36, 2.77 109.94, 0 95 M25 120 C4.88 116.01, -0.26 109, 0 95 M0 95 C0.71 75.6, 4.37 50.55, 0 25 M0 95 C1.08 79.13, -2.16 58.69, 0 25 M0 25 C1.21 4.98, 6.39 -3.26, 25 0 M0 25 C-0.55 6.97, 8.63 2.62, 25 0" stroke="#12b886" stroke-width="4" fill="none"></path></g><g stroke-linecap="round" transform="translate(1910 230) rotate(0 50 60)"><path d="M24.92 -2.18 L80.45 -3.15 L93.95 2.56 L95.19 9.78 L100.96 28.94 L101.69 93.57 L102.32 101.94 L89.3 114.3 L71.29 116.17 L18.06 122.53 L11.32 119.28 L2.41 108.7 L-1.4 98.7 L-1.41 19.62 L4.17 2.37 L15.67 -2.02 L22.57 -1.26" stroke="none" stroke-width="0" fill="#96f2d7"></path><path d="M25 0 M25 0 C38.99 2.86, 54.76 -0.91, 75 0 M25 0 C38.81 -1.43, 57.38 -1.01, 75 0 M75 0 C88.87 3.08, 96.66 7.11, 100 25 M75 0 C89.35 -0.92, 95.89 7.72, 100 25 M100 25 C102.5 39.82, 97.51 61.81, 100 95 M100 25 C99.8 45.97, 98.54 65.14, 100 95 M100 95 C100.65 112.81, 94.75 119.23, 75 120 M100 95 C98.95 113.82, 87.93 122.36, 75 120 M75 120 C63.41 122.09, 51.37 116.32, 25 120 M75 120 C64.27 117.6, 55.65 119.14, 25 120 M25 120 C9.72 123.1, -2.89 109.68, 0 95 M25 120 C9 122.79, 2.95 115.46, 0 95 M0 95 C-2.46 78.92, -2.37 66.26, 0 25 M0 95 C0.66 77.09, -0.1 55.91, 0 25 M0 25 C-3.25 6.26, 10.44 -0.71, 25 0 M0 25 C-4.12 5.57, 7.24 -2.38, 25 0" stroke="#12b886" stroke-width="4" fill="none"></path></g><g stroke-linecap="round" transform="translate(1510 610) rotate(0 50 60)"><path d="M26.02 -0.96 L77.48 -0.84 L92.19 6.8 L95.94 12.73 L100.65 26.14 L103.08 94.23 L97.52 107.81 L86.98 118.54 L71.76 122.2 L16.41 118.97 L12.54 114.76 L0.52 106.77 L-0.23 92.68 L0.27 15.5 L10.21 5.69 L15.44 4.66 L22.11 -1.99" stroke="none" stroke-width="0" fill="#99e9f2"></path><path d="M25 0 M25 0 C44.02 -4.57, 53.89 0.57, 75 0 M25 0 C35.56 0.22, 46.74 1.96, 75 0 M75 0 C93.17 2.02, 99.98 5.84, 100 25 M75 0 C87.93 -2.39, 102.42 7.52, 100 25 M100 25 C97.09 36.93, 102.73 53.27, 100 95 M100 25 C98.95 47.14, 98.88 71.94, 100 95 M100 95 C96.53 115.28, 92.49 120.11, 75 120 M100 95 C95.75 108.78, 92.18 121.47, 75 120 M75 120 C57.84 119.89, 40.85 117.15, 25 120 M75 120 C56.16 122.86, 39.08 121.49, 25 120 M25 120 C5.02 123.48, 0.69 107.96, 0 95 M25 120 C9.87 123.39, -3.25 110.03, 0 95 M0 95 C0.9 83.76, -1.03 67.85, 0 25 M0 95 C0.37 79.36, 1.06 61.78, 0 25 M0 25 C3.36 9.74, 10.65 -0.34, 25 0 M0 25 C-3.94 7.29, 7.91 -3.95, 25 0" stroke="#15aabf" stroke-width="4" fill="none"></path></g><g stroke-linecap="round" transform="translate(1610 610) rotate(0 50 60)"><path d="M21.62 -1.23 L82.81 3.68 L89.69 6.48 L97.14 10.91 L103.08 24.23 L99.08 96.88 L95.19 107.99 L87 118.69 L72.27 119.36 L21.92 117.89 L6.77 113.02 L3.29 107.91 L-0.12 91.36 L4.35 18.58 L7.63 9.35 L11.17 -0.43 L25.58 2.42" stroke="none" stroke-width="0" fill="#99e9f2"></path><path d="M25 0 M25 0 C40.65 2.19, 58.05 -0.97, 75 0 M25 0 C36.05 1.44, 47.6 1.31, 75 0 M75 0 C91.65 -2.49, 96.75 6.26, 100 25 M75 0 C94.09 -0.82, 95.88 5.57, 100 25 M100 25 C102.85 43.14, 100.44 65.05, 100 95 M100 25 C97.32 43.02, 97.19 61.14, 100 95 M100 95 C100.82 111.77, 87.97 117.49, 75 120 M100 95 C100.51 113.13, 94.51 121.51, 75 120 M75 120 C66.8 118.31, 56.77 121.01, 25 120 M75 120 C54.65 121.42, 33.4 122.67, 25 120 M25 120 C9.02 116.29, 1.33 114.61, 0 95 M25 120 C5.09 118.36, -4.45 115.13, 0 95 M0 95 C-0.66 81.75, -2.7 63.21, 0 25 M0 95 C0.53 79.63, 2.07 61.55, 0 25 M0 25 C2.32 7.99, 4.91 -0.91, 25 0 M0 25 C-0.43 4.39, 12.9 2.34, 25 0" stroke="#15aabf" stroke-width="4" fill="none"></path></g><g stroke-linecap="round" transform="translate(1710 610) rotate(0 50 60)"><path d="M26.95 3.29 L80.31 3.36 L90.89 4.66 L99.56 9 L99.08 26.88 L96.75 97.05 L95.2 108.14 L87.5 115.85 L77.77 118.28 L16.14 116.14 L9.54 114.16 L3.39 106.6 L3.96 94.44 L1.77 22.24 L3.36 4.26 L14.64 3.98 L27.56 3.3" stroke="none" stroke-width="0" fill="#99e9f2"></path><path d="M25 0 M25 0 C31.74 -2.25, 41.92 -0.78, 75 0 M25 0 C39.27 0.44, 52.03 -1.82, 75 0 M75 0 C88.42 -2.08, 102.1 7.62, 100 25 M75 0 C87.55 -2.76, 98.91 5.95, 100 25 M100 25 C102.42 42.48, 99.06 54.13, 100 95 M100 25 C97.14 44.64, 99.29 60.72, 100 95 M100 95 C96.3 109.16, 92.11 121.28, 75 120 M100 95 C102.84 113.18, 87.27 121.07, 75 120 M75 120 C61.16 120.32, 46.86 117.4, 25 120 M75 120 C53.68 121.99, 36.03 118.39, 25 120 M25 120 C9.67 122.95, -2.82 110.24, 0 95 M25 120 C3.89 123.47, -4.22 113.91, 0 95 M0 95 C-2.03 66.13, -2.25 41.42, 0 25 M0 95 C1.58 68.31, 1.06 40.04, 0 25 M0 25 C-3.43 7.43, 7.96 -3.43, 25 0 M0 25 C4.56 10.67, 5.94 4.21, 25 0" stroke="#15aabf" stroke-width="4" fill="none"></path></g><g stroke-linecap="round" transform="translate(1810 610) rotate(0 50 60)"><path d="M24.45 2.97 L81.51 1.53 L93.31 2.75 L95.57 11.64 L96.75 27.05 L96.76 97.2 L95.71 105.3 L93.01 114.76 L72 116.53 L18.91 117.29 L9.64 112.85 L7.47 109.67 L1.38 98.1 L-2.5 17.15 L6.83 8.67 L16.62 4.86 L21.07 -2.55" stroke="none" stroke-width="0" fill="#99e9f2"></path><path d="M25 0 M25 0 C38.25 0.01, 56.84 0.74, 75 0 M25 0 C42.84 -1.75, 59.08 -1.54, 75 0 M75 0 C93.77 -0.71, 96.42 5.93, 100 25 M75 0 C90.57 -2.38, 96.78 12.44, 100 25 M100 25 C98.22 40.84, 98.6 59.61, 100 95 M100 25 C99.2 49.04, 96.94 71.72, 100 95 M100 95 C100.45 112.94, 94.14 121.32, 75 120 M100 95 C95.6 112.74, 92.64 122.33, 75 120 M75 120 C66.35 118.07, 53.47 119.44, 25 120 M75 120 C59.11 119.02, 43.2 122.34, 25 120 M25 120 C5.51 118.57, -3.87 114.68, 0 95 M25 120 C4.11 122.24, 3.44 111.7, 0 95 M0 95 C-1.53 70.58, 4.36 48.65, 0 25 M0 95 C-0.02 67.85, -2.89 40.58, 0 25 M0 25 C-0.37 4.9, 12.3 2.03, 25 0 M0 25 C-2.39 12.55, 11.25 1.11, 25 0" stroke="#15aabf" stroke-width="4" fill="none"></path></g><g stroke-linecap="round" transform="translate(1910 610) rotate(0 50 60)"><path d="M25.65 1.14 L83.94 -0.38 L89.32 5.39 L93.23 11.82 L96.76 27.2 L97.27 94.36 L101.21 104.21 L87.24 113.02 L74.77 117.68 L19.02 115.97 L13.72 115.92 L4.9 113.33 L-2.89 93.01 L0.97 21.56 L8.81 9.55 L10.14 -0.99 L26.21 -3.36" stroke="none" stroke-width="0" fill="#99e9f2"></path><path d="M25 0 M25 0 C36.38 0.37, 52.41 1.62, 75 0 M25 0 C40.91 -0.42, 61.11 0.27, 75 0 M75 0 C88.08 -2.4, 99.05 6.26, 100 25 M75 0 C88.45 4.11, 98.63 9.68, 100 25 M100 25 C97.42 45.21, 100.94 68.37, 100 95 M100 25 C98.44 51.06, 100.51 80.28, 100 95 M100 95 C102.47 112.98, 87.84 120.93, 75 120 M100 95 C100.97 113.99, 89.49 122.55, 75 120 M75 120 C62.73 118.71, 44 116.16, 25 120 M75 120 C56.31 120.55, 34.88 118.36, 25 120 M25 120 C4.47 123.01, -3.67 113.62, 0 95 M25 120 C11.77 120.03, 1.52 109.34, 0 95 M0 95 C4.44 78.89, 4.2 65.57, 0 25 M0 95 C-2.53 71.09, -1 46.38, 0 25 M0 25 C3.97 10.37, 6.25 3.67, 25 0 M0 25 C2.92 9.45, 8.87 2.2, 25 0" stroke="#15aabf" stroke-width="4" fill="none"></path></g><g transform="translate(1630 550) rotate(0 116.015625 21.600000000000364)"><text x="0" y="0" font-family="Cascadia, Segoe UI Emoji" font-size="36px" fill="#1e1e1e" text-anchor="start" style="white-space: pre;" direction="ltr" dominant-baseline="text-before-edge">Partition 2</text></g><g transform="translate(1630 170) rotate(0 116.015625 21.600000000000364)"><text x="0" y="0" font-family="Cascadia, Segoe UI Emoji" font-size="36px" fill="#1e1e1e" text-anchor="start" style="white-space: pre;" direction="ltr" dominant-baseline="text-before-edge">Partition 1</text></g><g stroke-linecap="round" transform="translate(2290 190) rotate(0 180 110)"><path d="M212.51 1.11 C230.55 1.79, 250.92 9.37, 267.6 14.88 C284.29 20.39, 300.26 26.11, 312.64 34.19 C325.02 42.27, 334.22 53.28, 341.91 63.36 C349.59 73.45, 355.99 83.4, 358.74 94.7 C361.5 105.99, 362.07 119.75, 358.42 131.14 C354.76 142.54, 345.72 153.09, 336.82 163.08 C327.92 173.06, 318.21 183.14, 305.02 191.05 C291.82 198.97, 274.62 205.95, 257.63 210.56 C240.65 215.17, 221.41 217.32, 203.09 218.71 C184.76 220.1, 165.92 220.8, 147.69 218.88 C129.46 216.97, 110.42 212.86, 93.7 207.23 C76.98 201.6, 60.15 193.41, 47.35 185.12 C34.55 176.82, 24.67 167.48, 16.91 157.43 C9.15 147.39, 3.3 136.1, 0.79 124.85 C-1.73 113.61, -1.99 101.21, 1.83 89.98 C5.65 78.74, 14.42 67.77, 23.7 57.46 C32.98 47.15, 44.38 35.85, 57.51 28.12 C70.63 20.39, 85.91 15.44, 102.48 11.07 C119.05 6.7, 128.8 1.13, 156.93 1.88 C185.05 2.64, 245.17 9.39, 271.22 15.59 C297.28 21.79, 315.28 37.73, 313.26 39.09 M300.38 26.31 C315.59 32.33, 327.95 43.16, 336.89 53.2 C345.83 63.24, 350.04 75.31, 354.03 86.54 C358.02 97.77, 362.71 109.15, 360.84 120.58 C358.97 132.01, 350.69 144.44, 342.81 155.14 C334.93 165.84, 326.14 176.81, 313.56 184.78 C300.99 192.75, 283.22 197.9, 267.37 202.98 C251.53 208.05, 236.49 212.54, 218.51 215.24 C200.53 217.93, 178.2 219.79, 159.49 219.13 C140.77 218.47, 123.44 215.93, 106.21 211.27 C88.98 206.61, 70.26 199.39, 56.09 191.18 C41.92 182.97, 29.81 171.5, 21.19 162.01 C12.58 152.52, 7.47 145.2, 4.41 134.24 C1.36 123.28, 1.21 107.65, 2.84 96.26 C4.46 84.87, 6.91 75.78, 14.17 65.88 C21.42 55.99, 33.99 45.78, 46.38 36.88 C58.77 27.98, 72.14 18.64, 88.52 12.5 C104.89 6.35, 126.24 1.7, 144.63 0.02 C163.03 -1.65, 180.38 1.25, 198.88 2.44 C217.38 3.62, 239 3.24, 255.66 7.12 C272.32 11, 291.4 22.27, 298.83 25.7 C306.26 29.14, 302.09 25.69, 300.25 27.73" stroke="none" stroke-width="0" fill="#a5d8ff"></path><path d="M93.07 16.04 C107.07 8.74, 126.03 3.29, 144.27 0.61 C162.5 -2.07, 184.14 -1.72, 202.48 -0.02 C220.81 1.68, 237.33 5.88, 254.27 10.81 C271.2 15.73, 290.24 22.19, 304.09 29.52 C317.94 36.85, 328.46 45.01, 337.35 54.79 C346.24 64.57, 353.55 77.19, 357.41 88.22 C361.27 99.26, 362.65 109.93, 360.49 121 C358.33 132.07, 352.65 144.18, 344.45 154.65 C336.25 165.12, 324.09 175.42, 311.3 183.81 C298.51 192.2, 283.72 199.08, 267.7 204.98 C251.68 210.89, 233.41 216.6, 215.17 219.25 C196.93 221.9, 176.35 222.78, 158.24 220.91 C140.13 219.03, 123.11 213.02, 106.52 208.02 C89.93 203.02, 72.35 198.49, 58.7 190.88 C45.05 183.26, 33.5 172.47, 24.61 162.34 C15.73 152.2, 9.55 140.67, 5.36 130.08 C1.17 119.49, -2.19 110.08, -0.52 98.78 C1.16 87.48, 7.67 73.13, 15.41 62.26 C23.16 51.39, 17.55 44.09, 45.95 33.56 C74.36 23.03, 147.51 1.4, 185.86 -0.93 C224.22 -3.26, 276.31 17.32, 276.08 19.58 M247.67 8.97 C264.39 10.61, 278.39 15.26, 292.01 22.14 C305.64 29.02, 318.61 40.15, 329.43 50.23 C340.25 60.3, 351.85 71.52, 356.94 82.59 C362.02 93.65, 361.74 104.9, 359.94 116.61 C358.14 128.32, 353.43 142.08, 346.14 152.85 C338.84 163.62, 327.33 173.34, 316.19 181.23 C305.04 189.11, 294.73 194.58, 279.28 200.16 C263.84 205.74, 242.21 211.47, 223.52 214.72 C204.83 217.97, 184.95 220.55, 167.16 219.68 C149.37 218.81, 133.91 213.24, 116.78 209.49 C99.65 205.74, 78.92 203.74, 64.39 197.17 C49.85 190.6, 38.86 179.83, 29.58 170.05 C20.29 160.27, 13.76 149.59, 8.69 138.49 C3.62 127.38, -1.89 115.01, -0.87 103.43 C0.15 91.84, 8.21 79.57, 14.8 68.97 C21.4 58.38, 27.72 48.69, 38.7 39.88 C49.69 31.07, 64.41 22.36, 80.71 16.09 C97.01 9.83, 118.02 4.55, 136.51 2.29 C155 0.03, 173.28 1.92, 191.64 2.53 C209.99 3.13, 238.35 4.99, 246.65 5.93 C254.94 6.87, 242.99 6.28, 241.42 8.16" stroke="#1971c2" stroke-width="4" fill="none"></path></g><g transform="translate(2385.845779386422 278.618254069479) rotate(0 84.375 21.600000000000364)"><text x="84.375" y="0" font-family="Cascadia, Segoe UI Emoji" font-size="36px" fill="#1e1e1e" text-anchor="middle" style="white-space: pre;" direction="ltr" dominant-baseline="text-before-edge">Consumer</text></g><g stroke-linecap="round" transform="translate(2290 550) rotate(0 180 110)"><path d="M30.89 47.95 C38.42 38.04, 54.53 30.4, 68.74 23.75 C82.95 17.09, 98.66 11.98, 116.18 8.04 C133.69 4.09, 154.95 1.02, 173.83 0.1 C192.72 -0.81, 211.96 -0.73, 229.48 2.54 C247.01 5.82, 263.69 13.09, 278.99 19.75 C294.29 26.42, 309.9 34.03, 321.29 42.54 C332.68 51.05, 341.07 60.18, 347.33 70.82 C353.6 81.46, 357.9 94.89, 358.88 106.37 C359.87 117.86, 358.09 128.96, 353.25 139.74 C348.41 150.53, 340.3 161.53, 329.84 171.09 C319.38 180.64, 305.18 190.3, 290.5 197.07 C275.82 203.85, 259.03 207.7, 241.77 211.75 C224.51 215.79, 205.23 220.47, 186.93 221.34 C168.63 222.21, 149.55 220.31, 131.98 216.98 C114.42 213.65, 96.75 207.99, 81.54 201.36 C66.34 194.72, 52.48 185.79, 40.76 177.18 C29.05 168.57, 17.86 160.06, 11.26 149.69 C4.66 139.31, 2.17 126.19, 1.18 114.91 C0.19 103.63, -11.88 99.36, 5.32 82 C22.53 64.64, 72.17 24.08, 104.41 10.76 C136.64 -2.55, 197.93 0.71, 198.74 2.1 M308.62 29.64 C323.12 36.1, 330.82 52.05, 339.15 62.11 C347.48 72.16, 355.27 79.45, 358.6 89.96 C361.93 100.47, 361.68 113.56, 359.14 125.15 C356.59 136.73, 351.53 149.23, 343.34 159.45 C335.16 169.67, 323.77 178.28, 310.04 186.47 C296.31 194.66, 277.58 203.52, 260.96 208.6 C244.33 213.68, 227.93 215.69, 210.29 216.96 C192.65 218.23, 173.05 217.32, 155.11 216.23 C137.18 215.14, 119.74 215.54, 102.67 210.43 C85.61 205.32, 66.69 193.77, 52.72 185.56 C38.75 177.35, 26.83 170.29, 18.85 161.17 C10.88 152.05, 7.63 141.78, 4.89 130.84 C2.15 119.9, -0.35 106.67, 2.4 95.53 C5.16 84.38, 13.11 74.56, 21.4 63.96 C29.7 53.36, 39.7 40.48, 52.17 31.93 C64.64 23.38, 79.51 17.28, 96.25 12.64 C112.99 8.01, 134.16 5.95, 152.61 4.12 C171.06 2.28, 189.05 0.1, 206.95 1.62 C224.85 3.15, 243.68 8.43, 260.02 13.26 C276.36 18.08, 298.03 27.74, 305 30.58 C311.98 33.41, 303.57 28.54, 301.86 30.28" stroke="none" stroke-width="0" fill="#a5d8ff"></path><path d="M292.01 22.26 C307.33 27.86, 319.65 41.47, 329.78 50.92 C339.92 60.37, 347.9 68.55, 352.82 78.97 C357.74 89.38, 359.94 102.05, 359.28 113.41 C358.62 124.77, 355.52 136.41, 348.84 147.14 C342.16 157.88, 330.6 168.89, 319.19 177.83 C307.78 186.78, 295.75 194.46, 280.39 200.81 C265.02 207.17, 245.04 212.68, 227 215.94 C208.96 219.2, 190.74 221.15, 172.16 220.37 C153.58 219.59, 132.69 215.59, 115.51 211.24 C98.33 206.9, 83.46 201.12, 69.09 194.32 C54.71 187.51, 39.66 179.49, 29.26 170.42 C18.86 161.36, 11.84 150.83, 6.69 139.91 C1.54 128.99, -2.16 116.62, -1.63 104.91 C-1.1 93.2, 2.99 80.03, 9.89 69.66 C16.79 59.29, 27.75 51.45, 39.78 42.69 C51.8 33.93, 66.86 23.41, 82.06 17.08 C97.27 10.76, 113.36 7.46, 130.98 4.74 C148.61 2.01, 169.34 0.57, 187.8 0.74 C206.27 0.9, 218.23 -1.83, 241.75 5.74 C265.28 13.3, 311.37 34, 328.98 46.12 C346.6 58.23, 349.86 77.43, 347.44 78.43 M50.23 30.91 C61.37 21.53, 82.65 14.67, 99.55 10.22 C116.46 5.77, 133.35 5.54, 151.65 4.2 C169.95 2.87, 190.84 0.45, 209.36 2.21 C227.88 3.96, 246.74 9.26, 262.78 14.75 C278.83 20.24, 292.33 27.9, 305.62 35.16 C318.92 42.43, 333.91 49.1, 342.56 58.35 C351.21 67.59, 355.14 79.24, 357.53 90.63 C359.93 102.02, 360.25 115.2, 356.9 126.68 C353.56 138.15, 346.06 149.37, 337.45 159.47 C328.84 169.58, 317.94 179.59, 305.24 187.3 C292.54 195.01, 277.46 200.19, 261.26 205.73 C245.05 211.26, 226.06 217.88, 207.99 220.49 C189.91 223.1, 171.41 223.63, 152.79 221.39 C134.16 219.15, 112.79 212.51, 96.22 207.02 C79.65 201.53, 66.39 196.33, 53.38 188.44 C40.37 180.56, 26.61 170.22, 18.19 159.71 C9.76 149.2, 5.48 136.19, 2.83 125.38 C0.17 114.57, -0.92 105.45, 2.26 94.84 C5.45 84.23, 13.21 71.83, 21.92 61.71 C30.63 51.59, 49.32 38.43, 54.51 34.13 C59.7 29.83, 51.02 34.49, 53.05 35.9" stroke="#1971c2" stroke-width="4" fill="none"></path></g><g transform="translate(2385.845779386422 638.618254069479) rotate(0 84.375 21.600000000000364)"><text x="84.375" y="0" font-family="Cascadia, Segoe UI Emoji" font-size="36px" fill="#1e1e1e" text-anchor="middle" style="white-space: pre;" direction="ltr" dominant-baseline="text-before-edge">Consumer</text></g><g stroke-linecap="round"><g transform="translate(490 310) rotate(0 128.1504950753224 0.9579877468950144)"><path d="M0.68 0.65 C44.1 0.78, 215.38 0.22, 258.7 -0.16 M-2.4 -1.46 C40.7 -0.79, 212.18 3.04, 255.76 3.38" stroke="#1e1e1e" stroke-width="4" fill="none"></path></g><g transform="translate(490 310) rotate(0 128.1504950753224 0.9579877468950144)"><path d="M228.34 11.33 C233.88 11.59, 238.38 8.5, 258.56 6.39 M225.89 14.63 C238.21 11.07, 249.3 7.37, 253.79 3.07" stroke="#1e1e1e" stroke-width="4" fill="none"></path></g><g transform="translate(490 310) rotate(0 128.1504950753224 0.9579877468950144)"><path d="M228.67 -9.19 C233.99 -4.13, 238.42 -2.41, 258.56 6.39 M226.21 -5.89 C238.65 -2.13, 249.63 1.49, 253.79 3.07" stroke="#1e1e1e" stroke-width="4" fill="none"></path></g></g><mask></mask><g stroke-linecap="round"><g transform="translate(492.57071179360173 673.1491125054599) rotate(0 129.01050829801716 -1.5179019593406338)"><path d="M0.57 -0.44 C43.71 -0.77, 217.11 -2.04, 260.59 -2.28 M-2.57 -3.15 C40.1 -3.17, 214.85 -0.44, 258.67 0.11" stroke="#1e1e1e" stroke-width="4" fill="none"></path></g><g transform="translate(492.57071179360173 673.1491125054599) rotate(0 129.01050829801716 -1.5179019593406338)"><path d="M229.71 10.82 C237.35 8.34, 248.14 0.2, 256.65 3 M229.94 11.55 C237.4 6.62, 248.34 4.84, 258.73 -1.09" stroke="#1e1e1e" stroke-width="4" fill="none"></path></g><g transform="translate(492.57071179360173 673.1491125054599) rotate(0 129.01050829801716 -1.5179019593406338)"><path d="M230 -9.7 C237.49 -4.76, 248.17 -5.49, 256.65 3 M230.23 -8.97 C237.8 -7.75, 248.65 -3.38, 258.73 -1.09" stroke="#1e1e1e" stroke-width="4" fill="none"></path></g></g><mask></mask><g stroke-linecap="round"><g transform="translate(1230 670) rotate(0 138.5181910708925 0.04455478154159209)"><path d="M1.07 1.73 C47.42 1, 232.04 -1.1, 278.82 -1.65 M-1.79 0.21 C44.02 1, 228.83 1, 275.95 1.09" stroke="#1e1e1e" stroke-width="4" fill="none"></path></g><g transform="translate(1230 670) rotate(0 138.5181910708925 0.04455478154159209)"><path d="M250.22 9.64 C254.38 10.32, 263.74 1.53, 278.54 2.74 M249.07 12.93 C259.32 8.36, 271.34 4.26, 276.61 3.05" stroke="#1e1e1e" stroke-width="4" fill="none"></path></g><g transform="translate(1230 670) rotate(0 138.5181910708925 0.04455478154159209)"><path d="M250.25 -10.88 C254.8 -3.52, 264.15 -5.62, 278.54 2.74 M249.1 -7.59 C259.12 -4.12, 271.13 -0.19, 276.61 3.05" stroke="#1e1e1e" stroke-width="4" fill="none"></path></g></g><mask></mask><g stroke-linecap="round"><g transform="translate(1233.81127044797 292.75481040440536) rotate(0 138.37601261001055 -1.327978390082535)"><path d="M-0.24 0.1 C46.69 -0.27, 233.83 -2.59, 280.56 -2.75 M-3.81 -2.32 C42.88 -2.41, 231.59 -1.3, 278.63 -0.62" stroke="#1e1e1e" stroke-width="4" fill="none"></path></g><g transform="translate(1233.81127044797 292.75481040440536) rotate(0 138.37601261001055 -1.327978390082535)"><path d="M250.49 10.18 C253.93 6.99, 264.11 5.06, 275.84 -0.9 M248.59 8.51 C257.94 6.84, 263.43 2.49, 279.96 -2.62" stroke="#1e1e1e" stroke-width="4" fill="none"></path></g><g transform="translate(1233.81127044797 292.75481040440536) rotate(0 138.37601261001055 -1.327978390082535)"><path d="M250.68 -10.34 C253.99 -8.11, 264.13 -4.61, 275.84 -0.9 M248.78 -12.01 C258.48 -8.2, 263.92 -7.08, 279.96 -2.62" stroke="#1e1e1e" stroke-width="4" fill="none"></path></g></g><mask></mask><g stroke-linecap="round"><g transform="translate(2012.6187550541017 294.20435930758686) rotate(0 138.2271552029997 -0.33162057906338305)"><path d="M-2.62 -1.13 C43.92 -1.1, 231.82 -0.2, 279.07 -0.06 M1.16 -4.2 C47.25 -3.68, 229.93 2.4, 276.33 3.54" stroke="#1e1e1e" stroke-width="4" fill="none"></path></g><g transform="translate(2012.6187550541017 294.20435930758686) rotate(0 138.2271552029997 -0.33162057906338305)"><path d="M246.25 11.65 C256.16 12, 264.2 6.82, 277.43 3.57 M247.18 11.53 C254.66 10.5, 262.68 10.01, 274.76 3.32" stroke="#1e1e1e" stroke-width="4" fill="none"></path></g><g transform="translate(2012.6187550541017 294.20435930758686) rotate(0 138.2271552029997 -0.33162057906338305)"><path d="M246.85 -8.86 C256.55 -2.5, 264.41 -1.65, 277.43 3.57 M247.78 -8.98 C254.72 -5.2, 262.61 -0.9, 274.76 3.32" stroke="#1e1e1e" stroke-width="4" fill="none"></path></g></g><mask></mask><g stroke-linecap="round"><g transform="translate(2012.6126804253454 670.7467195466161) rotate(0 138.75592868242438 1.0391840970005433)"><path d="M0.54 2.5 C47.32 3.05, 233.22 2.73, 280.12 2.76 M-2.61 1.38 C43.86 1.28, 230.66 -0.29, 277.95 -0.75" stroke="#1e1e1e" stroke-width="4" fill="none"></path></g><g transform="translate(2012.6126804253454 670.7467195466161) rotate(0 138.75592868242438 1.0391840970005433)"><path d="M253.42 9.94 C261.72 9.48, 269.51 7.72, 279.62 1.65 M248.04 11.33 C262.35 5.57, 269.93 3.3, 278.11 -0.88" stroke="#1e1e1e" stroke-width="4" fill="none"></path></g><g transform="translate(2012.6126804253454 670.7467195466161) rotate(0 138.75592868242438 1.0391840970005433)"><path d="M253.24 -10.58 C261.51 -5.29, 269.35 -1.29, 279.62 1.65 M247.86 -9.19 C262.34 -7.03, 269.99 -1.36, 278.11 -0.88" stroke="#1e1e1e" stroke-width="4" fill="none"></path></g></g><mask></mask></svg>