<svg version="1.1" xmlns="http://www.w3.org/2000/svg" viewBox="0 0 2244.4434299418917 1168.084432186088" width="4488.8868598837835" height="2336.168864372176">
  <!-- svg-source:excalidraw -->
  
  <defs>
    <style class="style-fonts">
      @font-face {
        font-family: "Virgil";
        src: url("https://excalidraw.com/Virgil.woff2");
      }
      @font-face {
        font-family: "Cascadia";
        src: url("https://excalidraw.com/Cascadia.woff2");
      }
    </style>
    
  </defs>
  <rect x="0" y="0" width="2244.4434299418917" height="1168.084432186088" fill="#ffffff"></rect><g stroke-linecap="round" transform="translate(10 10) rotate(0 1112.2217149709459 574.042216093044)"><path d="M7.86 8.16 C7.86 8.16, 7.86 8.16, 7.86 8.16 M7.86 8.16 C7.86 8.16, 7.86 8.16, 7.86 8.16 M6.68 21.71 C10.65 16.04, 18.99 9.57, 21.12 5.11 M6.68 21.71 C10.48 15.72, 16.18 12.85, 21.12 5.11 M4.85 36.01 C18.41 26.79, 25.58 6.98, 34.37 2.05 M4.85 36.01 C10.39 26.72, 18.69 21.34, 34.37 2.05 M4.98 48.06 C20.4 30.42, 34.08 9.57, 45 2.02 M4.98 48.06 C14.74 38.5, 23.06 28.43, 45 2.02 M4.46 60.85 C12.49 49.73, 28.5 31.12, 55.63 1.98 M4.46 60.85 C16.78 47.15, 31.69 29.02, 55.63 1.98 M4.59 72.89 C26.23 46.44, 45.42 21.48, 66.26 1.95 M4.59 72.89 C26.34 52.93, 47.12 26.33, 66.26 1.95 M4.72 84.93 C29.05 51.62, 54.44 26.37, 76.89 1.91 M4.72 84.93 C32.34 55.59, 58.58 22.09, 76.89 1.91 M4.86 96.97 C35.61 62.85, 65.9 31.65, 87.52 1.88 M4.86 96.97 C24.06 77.2, 39.32 58.16, 87.52 1.88 M4.99 109.01 C35.27 80.02, 60.7 40.64, 98.15 1.85 M4.99 109.01 C34.75 71.45, 66.27 35.16, 98.15 1.85 M4.47 121.81 C28.65 94.12, 53.54 66.05, 108.78 1.81 M4.47 121.81 C29.81 90.34, 55.35 64.35, 108.78 1.81 M4.6 133.85 C46.5 82.9, 90.41 32.8, 119.41 1.78 M4.6 133.85 C42.62 95.25, 75.81 52.04, 119.41 1.78 M4.73 145.89 C53.05 96.53, 97.06 44.2, 130.04 1.74 M4.73 145.89 C51.29 90.99, 100.71 35.78, 130.04 1.74 M4.87 157.93 C36.85 126.07, 64.73 90.75, 140.67 1.71 M4.87 157.93 C57.21 97.89, 110.9 37.91, 140.67 1.71 M5 169.97 C52.17 115.92, 95.52 65.68, 150.65 2.43 M5 169.97 C51.27 112.84, 98.96 58.02, 150.65 2.43 M4.48 182.77 C51.86 132.6, 90.26 79.32, 161.28 2.39 M4.48 182.77 C54.71 124.44, 105.09 65.06, 161.28 2.39 M4.61 194.81 C63.06 131.67, 117.34 62.27, 171.91 2.36 M4.61 194.81 C62.98 125.38, 124.26 53.07, 171.91 2.36 M4.74 206.85 C55.28 146.54, 111.96 81.08, 182.54 2.32 M4.74 206.85 C40.92 159.08, 80.64 115.91, 182.54 2.32 M4.88 218.89 C38.93 176.16, 77.1 132.12, 193.17 2.29 M4.88 218.89 C64.42 153.87, 123.96 83.33, 193.17 2.29 M5.01 230.93 C53.31 184.62, 94.58 131.99, 203.8 2.26 M5.01 230.93 C60.2 164.37, 117.16 101.41, 203.8 2.26 M4.49 243.73 C85.65 152.72, 165.04 58.13, 214.43 2.22 M4.49 243.73 C47.17 188.71, 95.48 134.61, 214.43 2.22 M4.62 255.77 C79.86 176.49, 147.33 93.2, 225.06 2.19 M4.62 255.77 C61.27 192.31, 116.21 129.82, 225.06 2.19 M4.75 267.81 C60.21 199.65, 120.5 133.27, 235.69 2.15 M4.75 267.81 C56.91 208.65, 107.54 151.18, 235.69 2.15 M4.89 279.85 C70.88 209.87, 135.66 134.04, 246.32 2.12 M4.89 279.85 C89.26 177.71, 177.84 75.86, 246.32 2.12 M5.02 291.89 C83.88 205.05, 160.13 115.83, 256.95 2.08 M5.02 291.89 C74.99 205.26, 148.04 120.59, 256.95 2.08 M4.5 304.69 C66.92 230.17, 132.86 157.32, 267.58 2.05 M4.5 304.69 C63.37 239.98, 117.87 176.26, 267.58 2.05 M4.63 316.73 C96.65 208.52, 189.38 102.5, 278.21 2.01 M4.63 316.73 C91.19 219.01, 178.75 119.27, 278.21 2.01 M4.76 328.77 C68.43 250.09, 138.78 173.57, 288.84 1.98 M4.76 328.77 C73.95 248.31, 143.32 170.18, 288.84 1.98 M4.9 340.81 C73.93 255.35, 146.29 173.2, 299.47 1.94 M4.9 340.81 C61.93 272.5, 122.81 204.46, 299.47 1.94 M5.03 352.85 C108.39 231.29, 214.91 109.56, 310.1 1.91 M5.03 352.85 C89.15 254.53, 175.82 155.12, 310.1 1.91 M4.51 365.65 C82.72 277.38, 161.56 184.15, 320.73 1.88 M4.51 365.65 C120.19 232.42, 237.84 97.34, 320.73 1.88 M4.64 377.69 C89.69 277.76, 174.36 178.37, 331.36 1.84 M4.64 377.69 C82.54 291.22, 157.57 205.68, 331.36 1.84 M4.77 389.73 C91.43 292.48, 179.55 189.91, 341.99 1.81 M4.77 389.73 C89.87 291.06, 177.09 190.13, 341.99 1.81 M4.91 401.77 C73.61 321.87, 146.2 242.15, 352.62 1.77 M4.91 401.77 C120.15 264.19, 238.27 127.46, 352.62 1.77 M5.04 413.81 C123.44 280.93, 237.95 147.52, 363.25 1.74 M5.04 413.81 C83.58 325.99, 160.3 237.59, 363.25 1.74 M4.52 426.6 C148.66 264.18, 292.73 96.93, 373.88 1.7 M4.52 426.6 C131.92 282.82, 257.39 138.19, 373.88 1.7 M4.65 438.65 C135.73 287.5, 265.91 138.62, 383.85 2.42 M4.65 438.65 C86.93 339.91, 172.47 241.8, 383.85 2.42 M4.78 450.69 C141.23 291.51, 275.35 137.09, 394.48 2.39 M4.78 450.69 C131.39 307.62, 255.03 165.37, 394.48 2.39 M4.92 462.73 C160.51 283.81, 320.96 100.35, 405.11 2.35 M4.92 462.73 C152.61 298.82, 298.62 130.11, 405.11 2.35 M5.05 474.77 C92.05 375.42, 178.78 278.55, 415.74 2.32 M5.05 474.77 C103.07 359.76, 202.94 244.95, 415.74 2.32 M4.53 487.56 C88.65 389.18, 172.22 291.86, 426.37 2.29 M4.53 487.56 C149.06 320.03, 295.26 151.73, 426.37 2.29 M4.66 499.6 C98.56 392.52, 189.41 288.83, 437 2.25 M4.66 499.6 C107.77 382.01, 210.43 262.95, 437 2.25 M4.79 511.65 C118.7 384.39, 228.19 258.41, 447.63 2.22 M4.79 511.65 C184.54 311.38, 360.1 109.58, 447.63 2.22 M4.93 523.69 C103.74 410.27, 201.76 300.08, 458.26 2.18 M4.93 523.69 C139.66 369.81, 275.03 213.83, 458.26 2.18 M5.06 535.73 C132.03 386.69, 258.91 238.88, 468.89 2.15 M5.06 535.73 C171.16 345.46, 334.79 156.67, 468.89 2.15 M4.54 548.52 C184.52 350.54, 359.88 147.18, 479.52 2.11 M4.54 548.52 C186.56 333.03, 370.62 122.95, 479.52 2.11 M4.67 560.56 C191.53 343.47, 378.13 130.13, 490.15 2.08 M4.67 560.56 C191.13 352.23, 374.3 140.58, 490.15 2.08 M4.8 572.6 C126.9 429.62, 249.49 288.3, 500.78 2.04 M4.8 572.6 C170.59 384.31, 335.01 194.44, 500.78 2.04 M4.93 584.65 C171.85 396.55, 337 206.72, 511.41 2.01 M4.93 584.65 C124.82 446.76, 246.99 306.05, 511.41 2.01 M5.07 596.69 C169.53 407.1, 333.37 219.33, 522.04 1.98 M5.07 596.69 C172.79 402.56, 345.52 204.53, 522.04 1.98 M4.54 609.48 C116.74 473.38, 235.18 339.96, 532.67 1.94 M4.54 609.48 C127.04 465.78, 253.23 320.37, 532.67 1.94 M4.68 621.52 C140.32 459.74, 278.01 300.19, 543.3 1.91 M4.68 621.52 C140.43 464.83, 276.29 310.14, 543.3 1.91 M4.81 633.56 C138.23 479.81, 269.37 328.69, 553.93 1.87 M4.81 633.56 C156.32 453.59, 310.66 277.66, 553.93 1.87 M4.94 645.6 C151.4 480.74, 297.87 311.31, 564.56 1.84 M4.94 645.6 C182.92 442.25, 359.76 238.7, 564.56 1.84 M4.42 658.4 C182.32 455.98, 357.89 252.9, 575.19 1.8 M4.42 658.4 C229.73 397.47, 453.31 141.71, 575.19 1.8 M4.55 670.44 C191.62 454.82, 383.69 232.95, 585.82 1.77 M4.55 670.44 C141.67 516.2, 275.64 362.49, 585.82 1.77 M4.69 682.48 C142.68 532.08, 276.7 376.64, 596.45 1.73 M4.69 682.48 C131.14 531.75, 259.81 382.69, 596.45 1.73 M4.82 694.52 C219.67 446.9, 433.9 196.19, 607.08 1.7 M4.82 694.52 C158.19 513.55, 312.09 335.5, 607.08 1.7 M4.95 706.56 C205.09 475.38, 406.2 243.18, 617.06 2.42 M4.95 706.56 C205.38 478.46, 401.8 252.66, 617.06 2.42 M4.43 719.36 C165.17 529.18, 332.03 338.44, 627.69 2.38 M4.43 719.36 C210.42 485.3, 413.71 251.63, 627.69 2.38 M4.56 731.4 C150.19 565.69, 291.45 404.82, 638.32 2.35 M4.56 731.4 C176.86 530.1, 353.48 326.5, 638.32 2.35 M4.7 743.44 C183.33 539.11, 356.39 338.9, 648.95 2.32 M4.7 743.44 C219.39 496.06, 437.49 243.49, 648.95 2.32 M4.83 755.48 C182.38 545.11, 360.44 341.08, 659.58 2.28 M4.83 755.48 C252.93 469.25, 506.09 177.95, 659.58 2.28 M4.96 767.52 C274.83 459.21, 541.41 156.41, 670.21 2.25 M4.96 767.52 C180.82 560.2, 357.44 356.94, 670.21 2.25 M4.44 780.32 C206.5 554.05, 407.49 323.92, 680.84 2.21 M4.44 780.32 C243.33 499.91, 486.54 222.6, 680.84 2.21 M4.57 792.36 C275.11 480.02, 543.16 171.9, 691.47 2.18 M4.57 792.36 C164.71 604.78, 325.53 418.76, 691.47 2.18 M4.71 804.4 C190.54 584.93, 378.44 368.45, 702.1 2.14 M4.71 804.4 C160.86 624.2, 315.52 445.99, 702.1 2.14 M4.84 816.44 C276.41 498.95, 547.19 186.19, 712.73 2.11 M4.84 816.44 C179.61 616.02, 358.34 410.87, 712.73 2.11 M4.97 828.48 C169.25 634.42, 333.26 446.92, 723.36 2.07 M4.97 828.48 C168.48 635.94, 332.46 445.67, 723.36 2.07 M4.45 841.28 C178.46 643.8, 350.65 446.82, 733.99 2.04 M4.45 841.28 C205.45 603.03, 412.31 363.59, 733.99 2.04 M4.58 853.32 C274 540.07, 545.86 227.62, 744.62 2.01 M4.58 853.32 C257.43 566.97, 508.27 277.43, 744.62 2.01 M4.72 865.36 C161.42 695.34, 311.75 520.12, 755.25 1.97 M4.72 865.36 C281.53 546.59, 557.89 231.52, 755.25 1.97 M4.85 877.4 C258.45 583.72, 510.01 291.6, 765.88 1.94 M4.85 877.4 C261.4 579.4, 519.69 282.27, 765.88 1.94 M4.98 889.44 C203.87 662.62, 397.75 439.7, 776.51 1.9 M4.98 889.44 C239.64 624.39, 471.88 354.81, 776.51 1.9 M4.46 902.24 C266.76 599.43, 531.13 292.89, 787.14 1.87 M4.46 902.24 C262.48 614.72, 515.43 323.96, 787.14 1.87 M4.59 914.28 C288.5 582.58, 571.49 255.94, 797.77 1.83 M4.59 914.28 C284.68 579.02, 570.39 249.52, 797.77 1.83 M4.73 926.32 C198.56 698.74, 396.76 468.78, 808.4 1.8 M4.73 926.32 C181.67 726.18, 351.35 530.7, 808.4 1.8 M4.86 938.36 C178.83 742.27, 343.2 551.72, 819.03 1.76 M4.86 938.36 C319.48 576.77, 628.91 221.22, 819.03 1.76 M4.99 950.4 C235.85 674.55, 471.68 406.68, 829.66 1.73 M4.99 950.4 C197.85 732.91, 391.2 511.44, 829.66 1.73 M4.47 963.19 C237.51 686.36, 471.79 414.08, 840.29 1.69 M4.47 963.19 C229.33 709.88, 451.36 455.32, 840.29 1.69 M4.6 975.24 C290.29 653.17, 570.77 328.46, 850.26 2.42 M4.6 975.24 C211.62 743.24, 417.28 506.85, 850.26 2.42 M4.74 987.28 C333.77 608.12, 667.99 226.01, 860.89 2.38 M4.74 987.28 C255.93 704.98, 499.93 425.46, 860.89 2.38 M4.87 999.32 C206.38 777, 405.68 547.15, 871.52 2.35 M4.87 999.32 C174.5 796.8, 353 591.7, 871.52 2.35 M5 1011.36 C302.52 677.27, 596.87 340.51, 882.15 2.31 M5 1011.36 C341.15 632.97, 676.48 248.78, 882.15 2.31 M4.48 1024.15 C243.38 746.79, 487.13 468.34, 892.78 2.28 M4.48 1024.15 C280.87 716.11, 552.9 403.58, 892.78 2.28 M4.61 1036.19 C208.41 798.41, 410.39 565.2, 903.41 2.24 M4.61 1036.19 C235.41 764.93, 466.67 498.01, 903.41 2.24 M4.75 1048.24 C306.13 704.32, 601.29 365.47, 914.04 2.21 M4.75 1048.24 C228.05 793.54, 453.46 534.68, 914.04 2.21 M4.88 1060.28 C369.59 652.57, 724.88 243.18, 924.67 2.17 M4.88 1060.28 C262.4 758.39, 526.84 454.46, 924.67 2.17 M5.01 1072.32 C276.69 763.99, 547.98 454.67, 935.3 2.14 M5.01 1072.32 C337.66 706.61, 661.38 333.78, 935.3 2.14 M4.49 1085.11 C236.87 806.33, 472.17 532.69, 945.93 2.1 M4.49 1085.11 C202.04 849.08, 402.94 617.8, 945.93 2.1 M4.62 1097.15 C235.23 831.74, 462.38 568.88, 956.56 2.07 M4.62 1097.15 C243.23 828.91, 478.53 559.29, 956.56 2.07 M4.76 1109.19 C241.91 827.75, 486.4 546.31, 967.19 2.04 M4.76 1109.19 C235.38 841.36, 466.88 575.23, 967.19 2.04 M5.54 1120.48 C310.48 776.35, 609.76 432.3, 977.82 2 M5.54 1120.48 C378.78 683.67, 760.64 244.75, 977.82 2 M5.02 1133.28 C343.78 745.44, 677.12 363.54, 988.45 1.97 M5.02 1133.28 C347.9 739.11, 688.47 348.54, 988.45 1.97 M10.4 1139.28 C378.4 702.87, 753.7 272.97, 999.08 1.93 M10.4 1139.28 C372.89 731.47, 729.33 322.27, 999.08 1.93 M15.13 1146.04 C271.84 851.7, 530.9 554.14, 1009.71 1.9 M15.13 1146.04 C385.41 716.94, 751.73 295.75, 1009.71 1.9 M23.79 1148.27 C430.11 697.44, 825.36 243.54, 1020.34 1.86 M23.79 1148.27 C355.85 757.89, 691.1 373.97, 1020.34 1.86 M33.76 1148.99 C315.39 831.35, 594.2 511.34, 1030.97 1.83 M33.76 1148.99 C348.36 786.3, 664.95 422.25, 1030.97 1.83 M43.74 1149.71 C312.54 842.03, 575.3 538.17, 1041.6 1.79 M43.74 1149.71 C271.85 890.38, 496.16 631.57, 1041.6 1.79 M54.37 1149.67 C317.16 848.74, 579.34 546.97, 1052.23 1.76 M54.37 1149.67 C323.1 843.47, 595.6 530.98, 1052.23 1.76 M65 1149.64 C407.43 765.45, 749.48 371.33, 1062.86 1.73 M65 1149.64 C417.16 741.1, 766.43 338.8, 1062.86 1.73 M75.63 1149.6 C474.58 701.05, 868.33 251.3, 1073.49 1.69 M75.63 1149.6 C344.09 831.46, 616.66 516.09, 1073.49 1.69 M86.26 1149.57 C439.83 746.74, 782.69 352.4, 1083.47 2.41 M86.26 1149.57 C436.7 754.12, 785.77 352.8, 1083.47 2.41 M96.89 1149.54 C340.94 860.29, 586.24 578.35, 1094.1 2.38 M96.89 1149.54 C321.09 882.26, 554.17 614.23, 1094.1 2.38 M107.52 1149.5 C364.54 858.53, 616.96 568.15, 1104.73 2.34 M107.52 1149.5 C400 827.74, 682.01 502.83, 1104.73 2.34 M118.15 1149.47 C430.09 789.18, 751.21 420.04, 1115.36 2.31 M118.15 1149.47 C350.09 886.21, 579.11 625.3, 1115.36 2.31 M128.78 1149.43 C517.26 698.68, 912.93 242.51, 1125.99 2.27 M128.78 1149.43 C443.96 772.52, 766.06 402.13, 1125.99 2.27 M139.41 1149.4 C451.38 788.63, 764.47 431.45, 1136.62 2.24 M139.41 1149.4 C351.57 913.71, 555.12 679.52, 1136.62 2.24 M150.04 1149.36 C526.25 718.07, 894.3 293.23, 1147.25 2.2 M150.04 1149.36 C412.07 847.86, 670.32 552.01, 1147.25 2.2 M160.67 1149.33 C396.12 881.5, 626.8 612.99, 1157.88 2.17 M160.67 1149.33 C438.56 835.92, 709.75 522.63, 1157.88 2.17 M171.3 1149.29 C499.47 787.06, 818.31 419.98, 1168.51 2.14 M171.3 1149.29 C574.96 695.48, 972.82 236.86, 1168.51 2.14 M181.93 1149.26 C485.09 809.41, 776.49 473.47, 1179.14 2.1 M181.93 1149.26 C394.37 899.42, 606.9 654.79, 1179.14 2.1 M192.56 1149.22 C438.73 867.57, 691.88 576.37, 1189.77 2.07 M192.56 1149.22 C469.23 829.94, 741.38 517.07, 1189.77 2.07 M203.19 1149.19 C414.23 899.69, 633.8 645.59, 1200.4 2.03 M203.19 1149.19 C575.24 713.61, 947.02 285.52, 1200.4 2.03 M213.82 1149.16 C546.38 764.73, 880.63 380.55, 1211.03 2 M213.82 1149.16 C535.68 781.84, 852.65 415.73, 1211.03 2 M224.45 1149.12 C569.29 761.94, 912.48 368.66, 1221.66 1.96 M224.45 1149.12 C587.23 736.51, 952.39 317.23, 1221.66 1.96 M235.08 1149.09 C629.77 700.49, 1017.94 256, 1232.29 1.93 M235.08 1149.09 C627.1 694.85, 1023.26 237.98, 1232.29 1.93 M245.71 1149.05 C547.11 801.71, 847.93 452.03, 1242.92 1.89 M245.71 1149.05 C612.5 725.19, 981.86 299.5, 1242.92 1.89 M256.34 1149.02 C644.92 698.47, 1040.85 246.09, 1253.55 1.86 M256.34 1149.02 C535.19 811.98, 820.96 482.1, 1253.55 1.86 M266.97 1148.98 C612.77 757.92, 957.11 362.72, 1264.18 1.82 M266.97 1148.98 C497.12 872.71, 735.43 598.5, 1264.18 1.82 M276.94 1149.7 C674.26 699.16, 1065.12 250.02, 1274.81 1.79 M276.94 1149.7 C663.05 712.17, 1043.46 274.4, 1274.81 1.79 M287.57 1149.67 C506.01 885.5, 728.96 628.23, 1285.44 1.76 M287.57 1149.67 C662.84 705.15, 1046.28 264.48, 1285.44 1.76 M298.2 1149.63 C670.81 720.76, 1041.44 293.19, 1296.07 1.72 M298.2 1149.63 C698.93 693.56, 1089.91 243.32, 1296.07 1.72 M308.84 1149.6 C618.07 806.08, 916.86 461.14, 1306.7 1.69 M308.84 1149.6 C604.53 823.7, 890.87 494.24, 1306.7 1.69 M319.47 1149.57 C718.56 689.87, 1113.67 238.45, 1316.67 2.41 M319.47 1149.57 C560.86 866.27, 805.96 583.23, 1316.67 2.41 M330.1 1149.53 C586.05 869.12, 837.08 582.22, 1327.3 2.37 M330.1 1149.53 C526.72 918.11, 727.13 687.75, 1327.3 2.37 M340.73 1149.5 C606.94 846.71, 874.84 538.78, 1337.94 2.34 M340.73 1149.5 C723.69 697.42, 1116.32 248.74, 1337.94 2.34 M351.36 1149.46 C689.49 746.47, 1033.45 348.68, 1348.57 2.3 M351.36 1149.46 C582.68 867.86, 820.99 593.74, 1348.57 2.3 M361.99 1149.43 C619.14 845.19, 881.2 542.08, 1359.2 2.27 M361.99 1149.43 C661 814.77, 950.39 480.66, 1359.2 2.27 M372.62 1149.39 C743.08 712.31, 1116.67 281.39, 1369.83 2.23 M372.62 1149.39 C662 817.62, 948.07 487.79, 1369.83 2.23 M383.25 1149.36 C585.82 905.52, 790.08 668.78, 1380.46 2.2 M383.25 1149.36 C702.94 775.62, 1026.23 405.28, 1380.46 2.2 M393.88 1149.32 C724.11 765.81, 1055.51 383.63, 1391.09 2.17 M393.88 1149.32 C698.85 812.42, 996.93 470.54, 1391.09 2.17 M404.51 1149.29 C783.43 711.91, 1165.22 274.06, 1401.72 2.13 M404.51 1149.29 C692.98 817.38, 979.24 488.36, 1401.72 2.13 M415.14 1149.25 C738.48 787.54, 1055.61 425.18, 1412.35 2.1 M415.14 1149.25 C809.47 699.87, 1196.53 255.41, 1412.35 2.1 M425.77 1149.22 C661.52 884.61, 894.76 617.71, 1422.98 2.06 M425.77 1149.22 C715.83 816.35, 1009.94 477.52, 1422.98 2.06 M436.4 1149.19 C682.73 874.08, 922.46 595.5, 1433.61 2.03 M436.4 1149.19 C770.73 752.4, 1113.78 358.06, 1433.61 2.03 M447.03 1149.15 C707.37 848.3, 969.86 546.46, 1444.24 1.99 M447.03 1149.15 C725.32 822.22, 1005.3 500.65, 1444.24 1.99 M457.66 1149.12 C781.41 783.51, 1100.46 417.24, 1454.87 1.96 M457.66 1149.12 C774.51 783.7, 1091.57 419.35, 1454.87 1.96 M468.29 1149.08 C799.13 766.2, 1126.55 391.05, 1465.5 1.92 M468.29 1149.08 C758.55 816.81, 1050.39 482.17, 1465.5 1.92 M478.92 1149.05 C856.72 709.81, 1234.99 272.46, 1476.13 1.89 M478.92 1149.05 C807.38 769.34, 1134.61 391.61, 1476.13 1.89 M489.55 1149.01 C840.34 759.48, 1184.69 363.47, 1486.76 1.85 M489.55 1149.01 C886.08 692.39, 1280.5 237.6, 1486.76 1.85 M500.18 1148.98 C853 750.64, 1205.08 348.01, 1497.39 1.82 M500.18 1148.98 C865.61 736.08, 1229.02 316.35, 1497.39 1.82 M510.15 1149.7 C894.81 703.57, 1282.85 260.66, 1508.02 1.79 M510.15 1149.7 C877.6 715.15, 1251.08 284.16, 1508.02 1.79 M520.78 1149.66 C898.18 723.01, 1275.24 288.23, 1518.65 1.75 M520.78 1149.66 C793.15 822.01, 1074.32 499.04, 1518.65 1.75 M531.41 1149.63 C924.58 707.79, 1312.87 260.59, 1529.28 1.72 M531.41 1149.63 C753.63 880.45, 982.11 617.23, 1529.28 1.72 M542.04 1149.6 C838.26 789.19, 1143.06 437.19, 1539.91 1.68 M542.04 1149.6 C848.8 807.01, 1146.91 463.45, 1539.91 1.68 M552.67 1149.56 C786.76 879.1, 1024.12 608.33, 1549.88 2.4 M552.67 1149.56 C834.61 825.4, 1111.94 507.87, 1549.88 2.4 M563.3 1149.53 C959.66 691.72, 1348.33 243.44, 1560.51 2.37 M563.3 1149.53 C863.33 793.91, 1169.61 441.37, 1560.51 2.37 M573.93 1149.49 C850.18 828.64, 1132.27 504.13, 1571.14 2.33 M573.93 1149.49 C820.07 864.96, 1073.07 574.06, 1571.14 2.33 M584.56 1149.46 C990.47 693.92, 1389.12 233.46, 1581.77 2.3 M584.56 1149.46 C939.3 739.53, 1298.98 326.68, 1581.77 2.3 M595.19 1149.42 C827.39 894.17, 1050.05 637.23, 1592.4 2.26 M595.19 1149.42 C802.02 902.31, 1012.47 660.57, 1592.4 2.26 M605.82 1149.39 C906.91 807.32, 1206.27 462.59, 1603.03 2.23 M605.82 1149.39 C985.28 701.1, 1367.33 260.7, 1603.03 2.23 M616.45 1149.35 C855.52 889.92, 1088.27 621.49, 1613.66 2.2 M616.45 1149.35 C826.24 900.92, 1042.96 651.34, 1613.66 2.2 M627.08 1149.32 C1012.55 711.17, 1385.57 277.38, 1624.29 2.16 M627.08 1149.32 C889.42 847.35, 1153.67 542.09, 1624.29 2.16 M637.71 1149.29 C861.42 887.49, 1087.59 627.54, 1634.92 2.13 M637.71 1149.29 C903.8 851.78, 1162.87 553.24, 1634.92 2.13 M648.34 1149.25 C960.47 785.05, 1272.55 428.79, 1645.55 2.09 M648.34 1149.25 C1003.12 736.09, 1367.29 318.22, 1645.55 2.09 M658.97 1149.22 C1039.89 709.28, 1420.91 270.66, 1656.18 2.06 M658.97 1149.22 C994.57 756.84, 1334.48 364.8, 1656.18 2.06 M669.6 1149.18 C971.15 805.6, 1274.53 455.96, 1666.81 2.02 M669.6 1149.18 C876.18 916.35, 1080.23 681.87, 1666.81 2.02 M680.23 1149.15 C923.88 868.44, 1162.87 592.79, 1677.44 1.99 M680.23 1149.15 C1057.23 714.22, 1439.06 274.48, 1677.44 1.99 M690.86 1149.11 C1052.48 739.87, 1405.03 333.65, 1688.07 1.95 M690.86 1149.11 C1063.25 717.66, 1441.18 282.5, 1688.07 1.95 M701.49 1149.08 C1100.09 701.61, 1491.15 251.47, 1698.7 1.92 M701.49 1149.08 C1025.61 781.94, 1348.22 409.77, 1698.7 1.92 M712.12 1149.04 C1080.05 720.05, 1457.31 290.75, 1709.33 1.89 M712.12 1149.04 C958.44 863.82, 1203.7 581.63, 1709.33 1.89 M722.75 1149.01 C1116.04 704.61, 1505.75 254.97, 1719.96 1.85 M722.75 1149.01 C935.2 900.7, 1151.65 651.57, 1719.96 1.85 M733.38 1148.97 C1012.16 816.97, 1299.94 488.22, 1730.59 1.82 M733.38 1148.97 C960.72 878.29, 1190.06 615.04, 1730.59 1.82 M743.36 1149.69 C989.36 863.29, 1237.46 575.41, 1741.22 1.78 M743.36 1149.69 C1085.86 759.72, 1423.04 370.71, 1741.22 1.78 M753.99 1149.66 C1066.82 789.07, 1378.74 433.28, 1751.85 1.75 M753.99 1149.66 C1079.47 767.93, 1405.89 392.17, 1751.85 1.75 M764.62 1149.63 C1099.3 772.29, 1429.52 392.58, 1762.48 1.71 M764.62 1149.63 C1033.9 844.01, 1305.7 531.12, 1762.48 1.71 M775.25 1149.59 C1063.99 822.93, 1347.2 495.34, 1772.46 2.43 M775.25 1149.59 C1162.95 692.25, 1558.86 236.83, 1772.46 2.43 M785.88 1149.56 C1042.15 856.22, 1302.93 553.84, 1783.09 2.4 M785.88 1149.56 C1009.94 882.96, 1239.33 620, 1783.09 2.4 M796.51 1149.52 C1141.32 742.02, 1491.84 338.16, 1793.72 2.36 M796.51 1149.52 C1063.66 848.34, 1330.62 542.18, 1793.72 2.36 M807.14 1149.49 C1038.84 893.73, 1267.53 628.83, 1804.35 2.33 M807.14 1149.49 C1135.68 766.66, 1467.12 385.21, 1804.35 2.33 M817.77 1149.45 C1077.02 856.85, 1335.88 559.41, 1814.98 2.29 M817.77 1149.45 C1050.07 876.82, 1281.81 608.77, 1814.98 2.29 M828.4 1149.42 C1099.74 832.52, 1371.22 519.31, 1825.61 2.26 M828.4 1149.42 C1142.12 785.31, 1463.73 414.86, 1825.61 2.26 M839.03 1149.38 C1100.34 842.83, 1364.13 538.07, 1836.24 2.23 M839.03 1149.38 C1197.93 741.72, 1554.41 332.57, 1836.24 2.23 M849.66 1149.35 C1230.12 708.62, 1618.98 262.72, 1846.87 2.19 M849.66 1149.35 C1101.46 851.88, 1359.48 556.14, 1846.87 2.19 M860.29 1149.32 C1090.01 878.23, 1323.83 605.08, 1857.5 2.16 M860.29 1149.32 C1218.14 720.23, 1585.25 298.51, 1857.5 2.16 M870.92 1149.28 C1098.49 872.72, 1338.62 596.51, 1868.13 2.12 M870.92 1149.28 C1079.42 903.05, 1293.36 657.44, 1868.13 2.12 M881.55 1149.25 C1228.03 748.6, 1573.2 351.14, 1878.76 2.09 M881.55 1149.25 C1250.15 729.71, 1611.9 314.07, 1878.76 2.09 M892.18 1149.21 C1126.82 881.44, 1358.27 613.14, 1889.39 2.05 M892.18 1149.21 C1278.47 711.91, 1659.2 272.74, 1889.39 2.05 M902.81 1149.18 C1282.06 713.65, 1659.47 280.63, 1900.02 2.02 M902.81 1149.18 C1208.14 795.13, 1512.21 445.49, 1900.02 2.02 M913.44 1149.14 C1157.72 861.07, 1406.03 576.7, 1910.65 1.98 M913.44 1149.14 C1296.31 715.71, 1670.81 284.35, 1910.65 1.98 M924.07 1149.11 C1145.12 911.26, 1357.12 667.62, 1921.28 1.95 M924.07 1149.11 C1255.35 783.99, 1577.81 411.75, 1921.28 1.95 M934.7 1149.07 C1243.98 793.82, 1556 434.97, 1931.91 1.92 M934.7 1149.07 C1252.7 789.88, 1569.87 424.65, 1931.91 1.92 M945.33 1149.04 C1292.29 732.94, 1648.78 325.75, 1942.54 1.88 M945.33 1149.04 C1165.44 888.07, 1384.83 635.08, 1942.54 1.88 M955.96 1149.01 C1279.53 791.84, 1591.95 427.98, 1953.17 1.85 M955.96 1149.01 C1314.43 739.43, 1668.19 333.1, 1953.17 1.85 M966.59 1148.97 C1183.23 907.95, 1390.99 668.11, 1963.8 1.81 M966.59 1148.97 C1324.87 741.8, 1682.67 330.15, 1963.8 1.81 M976.56 1149.69 C1269.8 801.39, 1567.58 457.4, 1974.43 1.78 M976.56 1149.69 C1332.24 744.91, 1680.94 344.47, 1974.43 1.78 M987.19 1149.66 C1377.79 702.58, 1761.9 261.38, 1985.06 1.74 M987.19 1149.66 C1351.17 716.98, 1722.43 289.75, 1985.06 1.74 M997.82 1149.62 C1363.61 715.46, 1734.68 285.95, 1995.69 1.71 M997.82 1149.62 C1372.72 712.67, 1748.26 280.94, 1995.69 1.71 M1008.45 1149.59 C1215.5 914.14, 1417.81 682.78, 2005.66 2.43 M1008.45 1149.59 C1274.68 854.78, 1532.83 557.92, 2005.66 2.43 M1019.08 1149.55 C1411.52 686.45, 1806.24 231.76, 2016.29 2.39 M1019.08 1149.55 C1255.5 879.65, 1487.7 611.66, 2016.29 2.39 M1029.71 1149.52 C1424.91 705.01, 1813.38 260.27, 2026.92 2.36 M1029.71 1149.52 C1317.18 818.58, 1601.51 489.94, 2026.92 2.36 M1040.34 1149.48 C1321.95 819.93, 1609.08 491.8, 2037.55 2.33 M1040.34 1149.48 C1374.94 768.95, 1710.35 383.69, 2037.55 2.33 M1050.97 1149.45 C1438.69 706.27, 1818.64 266.81, 2048.18 2.29 M1050.97 1149.45 C1347.67 817.28, 1635.18 486.24, 2048.18 2.29 M1061.6 1149.41 C1377.84 772.35, 1701.35 397.15, 2058.81 2.26 M1061.6 1149.41 C1272.18 916.83, 1479.79 676.06, 2058.81 2.26 M1072.23 1149.38 C1290.99 882.08, 1518.66 622.88, 2069.44 2.22 M1072.23 1149.38 C1432.17 724.21, 1799.03 302.09, 2069.44 2.22 M1082.86 1149.35 C1317.39 874.73, 1556.82 596.8, 2080.07 2.19 M1082.86 1149.35 C1290.27 918.99, 1493.86 685.09, 2080.07 2.19 M1093.49 1149.31 C1359.14 845.37, 1630.25 534.25, 2090.7 2.15 M1093.49 1149.31 C1485.28 696.52, 1874.28 248.84, 2090.7 2.15 M1104.12 1149.28 C1431.94 762.74, 1765.89 378.04, 2101.33 2.12 M1104.12 1149.28 C1481.42 712.69, 1864.33 271.89, 2101.33 2.12 M1114.75 1149.24 C1393.91 832.84, 1669.9 512.17, 2111.96 2.08 M1114.75 1149.24 C1410.91 806.25, 1702.87 468.07, 2111.96 2.08 M1125.38 1149.21 C1471.07 740.52, 1821.3 337.04, 2122.59 2.05 M1125.38 1149.21 C1363.28 884.98, 1594.83 619.56, 2122.59 2.05 M1136.01 1149.17 C1440.54 797.03, 1749.95 439.43, 2133.22 2.01 M1136.01 1149.17 C1509.62 712.95, 1889.14 277.64, 2133.22 2.01 M1146.64 1149.14 C1348.21 920.35, 1550.62 689.84, 2143.85 1.98 M1146.64 1149.14 C1482.11 756.81, 1826.49 360.7, 2143.85 1.98 M1157.27 1149.1 C1408.37 864.96, 1655.98 580.16, 2154.48 1.95 M1157.27 1149.1 C1368.53 899.26, 1586.4 648.36, 2154.48 1.95 M1167.9 1149.07 C1419.44 862.47, 1671.81 574.5, 2165.11 1.91 M1167.9 1149.07 C1507.42 756.24, 1846.36 367.63, 2165.11 1.91 M1178.53 1149.04 C1442.99 831.56, 1714.36 522.1, 2175.74 1.88 M1178.53 1149.04 C1528.16 747.01, 1875.1 347.51, 2175.74 1.88 M1189.16 1149 C1410.14 894.46, 1635.71 635.46, 2186.37 1.84 M1189.16 1149 C1537.38 754.25, 1887.16 353.16, 2186.37 1.84 M1199.14 1149.72 C1562.75 727.96, 1933.14 302.74, 2195.69 3.32 M1199.14 1149.72 C1561.81 718.71, 1932.78 292.21, 2195.69 3.32 M1209.77 1149.69 C1508.63 809.22, 1809.66 463.62, 2205.01 4.79 M1209.77 1149.69 C1536.43 777.56, 1859.7 404.64, 2205.01 4.79 M1220.4 1149.65 C1453.2 868.83, 1697.18 590.09, 2214.33 6.27 M1220.4 1149.65 C1490.11 852.39, 1750.19 552.54, 2214.33 6.27 M1231.03 1149.62 C1449.66 896.54, 1674.13 636.71, 2219.71 12.27 M1231.03 1149.62 C1570.62 767.19, 1900.59 385.22, 2219.71 12.27 M1241.66 1149.58 C1628.57 691.87, 2019.67 242.09, 2225.75 17.52 M1241.66 1149.58 C1488.98 854.78, 1741.24 562.79, 2225.75 17.52 M1252.29 1149.55 C1631.61 713.44, 2016.02 271.67, 2227.85 27.3 M1252.29 1149.55 C1502.05 853.51, 1758.46 558.57, 2227.85 27.3 M1262.92 1149.51 C1502.07 871.24, 1740.5 597.4, 2229.95 37.07 M1262.92 1149.51 C1618.02 749.09, 1969.29 346.28, 2229.95 37.07 M1273.55 1149.48 C1609.09 753.54, 1952.91 359.57, 2230.08 49.11 M1273.55 1149.48 C1565.96 810.04, 1861.76 469.94, 2230.08 49.11 M1284.18 1149.45 C1475.26 915.4, 1674.64 686.16, 2230.22 61.15 M1284.18 1149.45 C1530.01 869.54, 1767.64 595.62, 2230.22 61.15 M1294.81 1149.41 C1614.36 795.82, 1930.49 431.86, 2230.35 73.19 M1294.81 1149.41 C1577.89 833.47, 1855.47 515.57, 2230.35 73.19 M1305.44 1149.38 C1510.49 915.19, 1716.76 681.73, 2229.83 85.99 M1305.44 1149.38 C1634.76 760.32, 1972.82 372.39, 2229.83 85.99 M1316.07 1149.34 C1591.66 834.86, 1862.11 522.22, 2229.96 98.03 M1316.07 1149.34 C1648.37 775.51, 1976.6 397.62, 2229.96 98.03 M1326.7 1149.31 C1521.94 916.84, 1716.42 692.06, 2230.09 110.07 M1326.7 1149.31 C1520.86 926.89, 1711.24 707.89, 2230.09 110.07 M1337.33 1149.27 C1571.02 879.66, 1808.03 603.11, 2230.23 122.11 M1337.33 1149.27 C1563.09 885.74, 1786.85 627.72, 2230.23 122.11 M1347.96 1149.24 C1568.34 909.22, 1778.14 664.71, 2230.36 134.15 M1347.96 1149.24 C1586.08 886.46, 1817.29 619.94, 2230.36 134.15 M1358.59 1149.2 C1570.98 915.94, 1774.62 681.76, 2229.84 146.95 M1358.59 1149.2 C1562.77 907.75, 1775.02 663.79, 2229.84 146.95 M1369.22 1149.17 C1674.16 811.6, 1969.42 470.34, 2229.97 158.99 M1369.22 1149.17 C1595.78 890.59, 1823.02 631.51, 2229.97 158.99 M1379.85 1149.13 C1582.49 908.88, 1792.44 666.17, 2230.1 171.03 M1379.85 1149.13 C1570.7 932.02, 1761.13 714.34, 2230.1 171.03 M1390.48 1149.1 C1644.09 871.22, 1889.48 590.39, 2230.24 183.07 M1390.48 1149.1 C1652.16 843.13, 1921.27 533, 2230.24 183.07 M1401.11 1149.07 C1650.12 862.81, 1904.06 573.42, 2230.37 195.11 M1401.11 1149.07 C1722.96 773.57, 2052.77 393.5, 2230.37 195.11 M1411.74 1149.03 C1625.83 907.18, 1831.45 670.92, 2229.85 207.91 M1411.74 1149.03 C1590.17 955.92, 1761.29 757.56, 2229.85 207.91 M1422.37 1149 C1639.25 902.75, 1852.14 660.1, 2229.98 219.95 M1422.37 1149 C1737.74 784.17, 2049.28 425.55, 2229.98 219.95 M1432.34 1149.72 C1676.13 881.23, 1914.66 606.16, 2230.11 231.99 M1432.34 1149.72 C1657.73 889.94, 1878.49 633.78, 2230.11 231.99 M1442.97 1149.68 C1724.77 833.05, 1996.58 516.58, 2230.25 244.03 M1442.97 1149.68 C1698.63 856.12, 1958.1 556.88, 2230.25 244.03 M1453.6 1149.65 C1694.58 859.73, 1942.17 577.61, 2230.38 256.07 M1453.6 1149.65 C1709.73 845.26, 1969.72 547.91, 2230.38 256.07 M1464.23 1149.61 C1639.57 951.2, 1814.72 748.32, 2229.86 268.87 M1464.23 1149.61 C1765.86 810.57, 2060.95 469.9, 2229.86 268.87 M1474.86 1149.58 C1709.89 882.54, 1938.6 621.26, 2229.99 280.91 M1474.86 1149.58 C1736.63 844.13, 2003.17 536.79, 2229.99 280.91 M1485.49 1149.54 C1744.78 860.03, 2002.87 563.85, 2230.12 292.95 M1485.49 1149.54 C1651.76 948.43, 1821.79 752.5, 2230.12 292.95 M1496.12 1149.51 C1672.36 934.25, 1857.85 721.92, 2230.25 304.99 M1496.12 1149.51 C1772.08 819.03, 2055.99 493.13, 2230.25 304.99 M1506.75 1149.48 C1782.69 833.72, 2058.45 512.59, 2230.39 317.03 M1506.75 1149.48 C1760.24 859.29, 2010.37 569.25, 2230.39 317.03 M1517.39 1149.44 C1714.93 932.65, 1906.93 712.46, 2229.87 329.83 M1517.39 1149.44 C1693.26 953.61, 1863.41 757.54, 2229.87 329.83 M1528.02 1149.41 C1807.05 836.17, 2084.52 520.3, 2230 341.87 M1528.02 1149.41 C1772.4 864.09, 2019.72 580.74, 2230 341.87 M1538.65 1149.37 C1732.85 930.86, 1924.21 710.11, 2230.13 353.91 M1538.65 1149.37 C1810.65 833.31, 2084.51 519.53, 2230.13 353.91 M1549.28 1149.34 C1738.8 928.92, 1929.43 708.85, 2230.26 365.95 M1549.28 1149.34 C1733.44 946.34, 1913.36 738.26, 2230.26 365.95 M1559.91 1149.3 C1754.33 919.73, 1951.15 694.2, 2230.4 377.99 M1559.91 1149.3 C1760.39 917.02, 1962.09 686.34, 2230.4 377.99 M1570.54 1149.27 C1782.73 912.84, 1988.46 675.12, 2229.87 390.79 M1570.54 1149.27 C1718.43 975.87, 1871.38 797.58, 2229.87 390.79 M1581.17 1149.23 C1813.61 889.33, 2045.5 626.2, 2230.01 402.83 M1581.17 1149.23 C1751.72 956.08, 1924.68 756.55, 2230.01 402.83 M1591.8 1149.2 C1729.63 988.02, 1869.46 827.85, 2230.14 414.87 M1591.8 1149.2 C1726.9 992.57, 1863.44 835.51, 2230.14 414.87 M1602.43 1149.17 C1854.77 864.24, 2102.95 576.59, 2230.27 426.91 M1602.43 1149.17 C1837.31 877.42, 2073.15 606.05, 2230.27 426.91 M1613.06 1149.13 C1776.82 956.81, 1938.83 770.86, 2230.41 438.95 M1613.06 1149.13 C1783.44 949.21, 1959.07 747.51, 2230.41 438.95 M1623.69 1149.1 C1847.3 897.84, 2067.22 643.03, 2229.88 451.74 M1623.69 1149.1 C1847.53 887.42, 2076.21 625.21, 2229.88 451.74 M1634.32 1149.06 C1876.18 877.07, 2109.84 605.39, 2230.02 463.79 M1634.32 1149.06 C1832.71 920.33, 2035.21 687.37, 2230.02 463.79 M1644.95 1149.03 C1827.2 937.63, 2011.52 724.83, 2230.15 475.83 M1644.95 1149.03 C1868.61 895.03, 2093.57 637.73, 2230.15 475.83 M1655.58 1148.99 C1831.61 940.4, 2012.04 735.01, 2230.28 487.87 M1655.58 1148.99 C1882.46 891.28, 2106.78 633.17, 2230.28 487.87 M1665.55 1149.71 C1840.63 949.78, 2016.08 746.48, 2230.42 499.91 M1665.55 1149.71 C1877.96 904.54, 2092.19 656.2, 2230.42 499.91 M1676.18 1149.68 C1875.77 918.91, 2074.58 688.86, 2229.89 512.7 M1676.18 1149.68 C1828.4 982.74, 1975.05 813.75, 2229.89 512.7 M1686.81 1149.64 C1865.37 950.14, 2040.81 748.82, 2230.03 524.74 M1686.81 1149.64 C1863.08 952.91, 2034.78 755.59, 2230.03 524.74 M1697.44 1149.61 C1828.8 996.32, 1965.63 837.57, 2230.16 536.79 M1697.44 1149.61 C1866.27 962.3, 2031.07 771.57, 2230.16 536.79 M1708.07 1149.57 C1875.77 958.23, 2047.64 760.19, 2230.29 548.83 M1708.07 1149.57 C1818.63 1020.82, 1926.82 896.82, 2230.29 548.83 M1718.7 1149.54 C1911.09 936.96, 2099.01 716.84, 2229.77 561.62 M1718.7 1149.54 C1862.7 975.62, 2010.48 805.82, 2229.77 561.62 M1729.33 1149.51 C1834.94 1030.17, 1942.7 909.63, 2229.9 573.66 M1729.33 1149.51 C1848.54 1011.51, 1967.13 875.15, 2229.9 573.66 M1739.96 1149.47 C1856.58 1023.04, 1965.78 895.97, 2230.04 585.7 M1739.96 1149.47 C1873.11 989.64, 2011.87 831.61, 2230.04 585.7 M1750.59 1149.44 C1879.5 1003.11, 2009.29 856.65, 2230.17 597.74 M1750.59 1149.44 C1878.69 1003.98, 2003.05 861.21, 2230.17 597.74 M1761.22 1149.4 C1857.03 1038.44, 1957.28 924.3, 2230.3 609.78 M1761.22 1149.4 C1939.3 943.51, 2118.87 737.41, 2230.3 609.78 M1771.85 1149.37 C1902.59 996.92, 2039.99 841.27, 2229.78 622.58 M1771.85 1149.37 C1903.06 994.83, 2035.1 841.69, 2229.78 622.58 M1782.48 1149.33 C1907.54 1007.25, 2025.71 868.53, 2229.91 634.62 M1782.48 1149.33 C1873.33 1043, 1966.93 935.35, 2229.91 634.62 M1793.11 1149.3 C1928.51 995.36, 2064.53 841.9, 2230.05 646.66 M1793.11 1149.3 C1887.91 1041.66, 1983.09 932.42, 2230.05 646.66 M1803.74 1149.26 C1970.13 954.08, 2140.11 757.42, 2230.18 658.7 M1803.74 1149.26 C1974.05 956.81, 2141.81 763.55, 2230.18 658.7 M1814.37 1149.23 C1905.39 1044.32, 1997.6 937.52, 2230.31 670.74 M1814.37 1149.23 C1936.06 1007.59, 2056.91 867.44, 2230.31 670.74 M1825 1149.2 C1974.64 979.17, 2116.85 811.57, 2229.79 683.54 M1825 1149.2 C1939.33 1014.18, 2053.68 881.55, 2229.79 683.54 M1835.63 1149.16 C1976.91 986.18, 2118.19 822.41, 2229.92 695.58 M1835.63 1149.16 C1928.4 1046.56, 2020.39 941.68, 2229.92 695.58 M1846.26 1149.13 C1987.25 989.03, 2125.76 827.04, 2230.06 707.62 M1846.26 1149.13 C1941.53 1040.44, 2035.01 931.68, 2230.06 707.62 M1856.89 1149.09 C1992.88 996.07, 2126.83 841.48, 2230.19 719.66 M1856.89 1149.09 C1977.17 1007.99, 2099.56 866.42, 2230.19 719.66 M1867.52 1149.06 C2006.44 984.7, 2150.08 819.82, 2230.32 731.7 M1867.52 1149.06 C1998.49 996.99, 2129.11 845.54, 2230.32 731.7 M1878.15 1149.02 C1969.17 1043.18, 2061.62 939.26, 2229.8 744.5 M1878.15 1149.02 C1997.53 1014.26, 2116.68 877.39, 2229.8 744.5 M1888.78 1148.99 C1982.39 1038.45, 2075.98 932.84, 2229.93 756.54 M1888.78 1148.99 C1999.71 1015.59, 2112.7 885.68, 2229.93 756.54 M1898.76 1149.71 C1965.78 1074.49, 2032.37 999.07, 2230.07 768.58 M1898.76 1149.71 C2020.21 1009.22, 2144.54 865.66, 2230.07 768.58 M1909.39 1149.67 C1975.67 1075.12, 2040.07 1002.14, 2230.2 780.62 M1909.39 1149.67 C2030.38 1010.11, 2151.39 869.82, 2230.2 780.62 M1920.02 1149.64 C2028.24 1025.55, 2137.06 901.58, 2230.33 792.66 M1920.02 1149.64 C1991.85 1069, 2064.82 987.07, 2230.33 792.66 M1930.65 1149.61 C1996.26 1078.26, 2059.57 1002.86, 2229.81 805.46 M1930.65 1149.61 C2032.15 1034.21, 2132.46 920.54, 2229.81 805.46 M1941.28 1149.57 C2046.31 1030.26, 2150.34 909.67, 2229.94 817.5 M1941.28 1149.57 C2014.83 1063.34, 2091.83 976.72, 2229.94 817.5 M1951.91 1149.54 C2044.96 1043.41, 2135.76 939.43, 2230.08 829.54 M1951.91 1149.54 C2045.68 1041.52, 2141.66 931.32, 2230.08 829.54 M1962.54 1149.5 C2047.03 1056.86, 2134.55 957.21, 2230.21 841.58 M1962.54 1149.5 C2043.01 1056.55, 2121.62 966.05, 2230.21 841.58 M1973.17 1149.47 C2077.75 1030.61, 2176.79 915.64, 2230.34 853.62 M1973.17 1149.47 C2076.7 1035.35, 2175.99 920.88, 2230.34 853.62 M1983.8 1149.43 C2081.71 1036.8, 2175.87 926.53, 2229.82 866.42 M1983.8 1149.43 C2060.75 1062.86, 2135.98 973.42, 2229.82 866.42 M1994.43 1149.4 C2054.65 1085.61, 2115.16 1016.14, 2229.95 878.46 M1994.43 1149.4 C2076.34 1054.99, 2156.66 962.28, 2229.95 878.46 M2005.06 1149.36 C2089.73 1051.9, 2168.67 958.6, 2230.09 890.5 M2005.06 1149.36 C2090.44 1051.41, 2176.21 953.98, 2230.09 890.5 M2015.69 1149.33 C2089.22 1061.37, 2166.89 970.43, 2230.22 902.54 M2015.69 1149.33 C2082.06 1071.06, 2149.9 992.5, 2230.22 902.54 M2026.32 1149.29 C2097.59 1062.99, 2168.44 983.89, 2230.35 914.58 M2026.32 1149.29 C2091.9 1073.16, 2157.54 998.42, 2230.35 914.58 M2036.95 1149.26 C2107.32 1072.78, 2181.92 989.79, 2229.83 927.38 M2036.95 1149.26 C2102.04 1075.27, 2166.32 1002.39, 2229.83 927.38 M2047.58 1149.23 C2089.04 1101.76, 2134.99 1051.37, 2229.96 939.42 M2047.58 1149.23 C2087.92 1105.44, 2128.32 1058.89, 2229.96 939.42 M2058.21 1149.19 C2118.31 1076.5, 2183.98 1009.82, 2230.09 951.46 M2058.21 1149.19 C2097.77 1102.91, 2140.01 1058.57, 2230.09 951.46 M2068.84 1149.16 C2108.77 1107.62, 2147.1 1061.18, 2230.23 963.5 M2068.84 1149.16 C2125.21 1083.2, 2180 1021.1, 2230.23 963.5 M2079.47 1149.12 C2140.12 1080.61, 2196.16 1014.26, 2230.36 975.54 M2079.47 1149.12 C2131.56 1085.41, 2186.45 1022.4, 2230.36 975.54 M2090.1 1149.09 C2138.91 1094.37, 2189.56 1033.66, 2229.84 988.33 M2090.1 1149.09 C2120.75 1112.53, 2151.75 1076.93, 2229.84 988.33 M2100.73 1149.05 C2154.47 1089.34, 2205.42 1032.52, 2229.97 1000.38 M2100.73 1149.05 C2138.77 1102.76, 2173.88 1059.84, 2229.97 1000.38 M2111.36 1149.02 C2152.41 1098.02, 2199.47 1050.51, 2230.1 1012.42 M2111.36 1149.02 C2152.35 1104.13, 2191.75 1057.44, 2230.1 1012.42 M2121.99 1148.98 C2165.04 1100.73, 2206.82 1050.92, 2230.24 1024.46 M2121.99 1148.98 C2156.17 1111.18, 2191.59 1071.62, 2230.24 1024.46 M2131.96 1149.7 C2167.41 1105.67, 2199.69 1069.74, 2230.37 1036.5 M2131.96 1149.7 C2157.24 1121.4, 2180 1095.03, 2230.37 1036.5 M2142.59 1149.67 C2175.72 1115.56, 2206.92 1079.05, 2229.85 1049.29 M2142.59 1149.67 C2173.28 1112.05, 2201.86 1079.29, 2229.85 1049.29 M2153.22 1149.64 C2179.07 1113.93, 2212.62 1086.44, 2229.98 1061.33 M2153.22 1149.64 C2175.85 1121.33, 2194.73 1098.04, 2229.98 1061.33 M2163.85 1149.6 C2186.48 1124.58, 2212.04 1094.46, 2230.11 1073.38 M2163.85 1149.6 C2175.09 1134.16, 2191.97 1117.89, 2230.11 1073.38 M2174.48 1149.57 C2188.19 1131.35, 2207.48 1112.77, 2230.25 1085.42 M2174.48 1149.57 C2188.93 1134.42, 2205.09 1118.2, 2230.25 1085.42 M2185.11 1149.53 C2202.25 1137.2, 2213.98 1114.88, 2230.38 1097.46 M2185.11 1149.53 C2201.81 1132.28, 2214.12 1116.28, 2230.38 1097.46 M2195.09 1150.25 C2204.47 1138.42, 2209.46 1130.56, 2224.61 1116.29 M2195.09 1150.25 C2204.78 1139.07, 2214.44 1128.34, 2224.61 1116.29 M2208.34 1147.2 C2209.18 1145.65, 2216.51 1141.18, 2220.81 1132.86 M2208.34 1147.2 C2212.02 1142.87, 2216.06 1140.98, 2220.81 1132.86" stroke="#ffffff" stroke-width="1" fill="none"></path><path d="M32 0 M32 0 C487.57 -1.17, 944.95 0.21, 2192.44 0 M32 0 C669.52 10.31, 1306.05 9.62, 2192.44 0 M2192.44 0 C2217.12 -2.45, 2222.26 11.11, 2224.44 32 M2192.44 0 C2209.72 -1.71, 2220.27 7.35, 2224.44 32 M2224.44 32 C2224.01 440.07, 2225.78 849.07, 2224.44 1116.08 M2224.44 32 C2226.65 449.25, 2225.64 867.31, 2224.44 1116.08 M2224.44 1116.08 C2225.75 1138.93, 2213.03 1146.7, 2192.44 1148.08 M2224.44 1116.08 C2222.63 1138.64, 2217.47 1152.48, 2192.44 1148.08 M2192.44 1148.08 C1562.52 1141.54, 931.67 1142.63, 32 1148.08 M2192.44 1148.08 C1595.73 1141.69, 1000.23 1140.99, 32 1148.08 M32 1148.08 C11.82 1149.87, 3.36 1138.7, 0 1116.08 M32 1148.08 C13.5 1145.78, -1.67 1139.85, 0 1116.08 M0 1116.08 C-9.93 831, -7.94 545.73, 0 32 M0 1116.08 C-2.01 876.13, -1.22 636.74, 0 32 M0 32 C1.3 8.69, 8.62 -3.84, 32 0 M0 32 C-2.43 14.09, 7.56 1.72, 32 0" stroke="#1e1e1e" stroke-width="2" fill="none"></path></g><g stroke-linecap="round" transform="translate(92.90107786616545 71.0143673958953) rotate(0 1018.1256363188368 205.0975763584949)"><path d="M7.86 8.16 C7.86 8.16, 7.86 8.16, 7.86 8.16 M7.86 8.16 C7.86 8.16, 7.86 8.16, 7.86 8.16 M6.68 21.71 C12.89 16.36, 13.16 18.23, 21.12 5.11 M6.68 21.71 C12.67 17.54, 18.42 10.87, 21.12 5.11 M4.85 36.01 C11.04 22.79, 18.11 12.73, 34.37 2.05 M4.85 36.01 C13 28.18, 22.91 19.87, 34.37 2.05 M4.98 48.06 C17.18 29.79, 28.71 14.92, 45 2.02 M4.98 48.06 C16.53 34.95, 28.58 19.89, 45 2.02 M4.46 60.85 C23.12 38.6, 36.41 27.07, 55.63 1.98 M4.46 60.85 C15.44 47.69, 26.91 36.1, 55.63 1.98 M4.59 72.89 C27.45 43.55, 51 17.59, 66.26 1.95 M4.59 72.89 C19.68 53.87, 32.88 41.53, 66.26 1.95 M4.72 84.93 C24.02 64.14, 46.74 40.12, 76.89 1.91 M4.72 84.93 C30.4 52.72, 55.82 26.06, 76.89 1.91 M4.86 96.97 C27.86 74.84, 44.14 43.6, 87.52 1.88 M4.86 96.97 C31.76 64.71, 62.33 28.55, 87.52 1.88 M4.99 109.01 C28.86 73.5, 58.38 49.33, 98.15 1.85 M4.99 109.01 C34.26 75.24, 61.91 44.05, 98.15 1.85 M4.47 121.81 C30.25 92.32, 51.63 62.13, 108.78 1.81 M4.47 121.81 C38.53 86.52, 75.14 45.97, 108.78 1.81 M4.6 133.85 C28.11 104.9, 56.28 78.56, 119.41 1.78 M4.6 133.85 C25.68 103.88, 53.23 75.55, 119.41 1.78 M4.73 145.89 C47.55 97.2, 91.35 46.36, 130.04 1.74 M4.73 145.89 C36.22 112.22, 65.59 79.02, 130.04 1.74 M4.87 157.93 C30.17 126.87, 61.03 92.59, 140.67 1.71 M4.87 157.93 C34.72 126.64, 64.89 91.88, 140.67 1.71 M5 169.97 C49.49 118.16, 100.47 63.71, 150.65 2.43 M5 169.97 C59.65 107.55, 114.91 44.34, 150.65 2.43 M4.48 182.77 C53.18 118.46, 111.13 57.14, 161.28 2.39 M4.48 182.77 C60.98 114.65, 117.4 47.82, 161.28 2.39 M4.61 194.81 C60.49 123.94, 122.38 62.97, 171.91 2.36 M4.61 194.81 C48.88 142.48, 93.51 93.4, 171.91 2.36 M4.74 206.85 C78.87 121.65, 143.39 45.68, 182.54 2.32 M4.74 206.85 C70.11 136.42, 132.15 64.92, 182.54 2.32 M4.88 218.89 C55.36 160.91, 109.36 99.89, 193.17 2.29 M4.88 218.89 C44.04 171.81, 82.87 126.07, 193.17 2.29 M5.01 230.93 C52.13 171.3, 101.67 113.13, 203.8 2.26 M5.01 230.93 C85.72 143.35, 163.35 55.07, 203.8 2.26 M4.49 243.73 C83.69 148.81, 159.49 59.44, 214.43 2.22 M4.49 243.73 C86.44 152.61, 163.62 62.75, 214.43 2.22 M4.62 255.77 C63.69 181.37, 126.09 108.96, 225.06 2.19 M4.62 255.77 C64.28 188.82, 124.34 119.82, 225.06 2.19 M4.75 267.81 C64.5 202.96, 121.01 135.74, 235.69 2.15 M4.75 267.81 C72.86 189.54, 141.4 109.12, 235.69 2.15 M4.89 279.85 C57.62 217.04, 112.03 156.76, 246.32 2.12 M4.89 279.85 C88.8 183.39, 171.88 87.43, 246.32 2.12 M5.02 291.89 C74.07 209.84, 141.45 132.55, 256.95 2.08 M5.02 291.89 C107.01 175.58, 207.66 61.51, 256.95 2.08 M4.5 304.69 C68.59 234.18, 128.51 159.02, 267.58 2.05 M4.5 304.69 C94.65 197.69, 187.43 91.92, 267.58 2.05 M4.63 316.73 C101.5 205.02, 197.44 92.51, 278.21 2.01 M4.63 316.73 C70.5 243.96, 133.18 171.86, 278.21 2.01 M4.76 328.77 C88.96 238.04, 168.4 142.83, 288.84 1.98 M4.76 328.77 C111.35 209.82, 214.36 90.1, 288.84 1.98 M4.9 340.81 C122.85 207.61, 237.1 76.75, 299.47 1.94 M4.9 340.81 C77.93 261.78, 149.14 180.3, 299.47 1.94 M5.03 352.85 C112.96 229.04, 217.38 108.17, 310.1 1.91 M5.03 352.85 C88.09 257.92, 169.92 163.16, 310.1 1.91 M4.51 365.65 C69.09 289.26, 136.11 217.41, 320.73 1.88 M4.51 365.65 C79.18 280.24, 152.87 195.23, 320.73 1.88 M2.67 379.95 C129.54 230.84, 256.89 82.12, 331.36 1.84 M2.67 379.95 C89.19 282.8, 176 182.48, 331.36 1.84 M4.77 389.73 C76.82 306.12, 147.2 226.67, 341.99 1.81 M4.77 389.73 C100.68 277.18, 194.92 168.2, 341.99 1.81 M6.87 399.5 C85.62 313.83, 161.84 225.56, 352.62 1.77 M6.87 399.5 C136.75 250.09, 265.88 102.15, 352.62 1.77 M12.26 405.51 C129.47 267.66, 245.8 132.56, 362.59 2.49 M12.26 405.51 C89 315.87, 169.86 223.8, 362.59 2.49 M18.29 410.76 C92.36 321.84, 167.08 234.61, 373.22 2.46 M18.29 410.76 C135.05 274.83, 250.77 141.91, 373.22 2.46 M27.61 412.23 C143.59 278.64, 257.95 144.77, 383.85 2.42 M27.61 412.23 C164.2 255.21, 298 100.95, 383.85 2.42 M38.24 412.2 C177.41 252.39, 318.11 90.84, 394.48 2.39 M38.24 412.2 C137.42 298.83, 239.18 183.32, 394.48 2.39 M48.87 412.16 C133.04 317.21, 213.39 224.45, 405.11 2.35 M48.87 412.16 C122.26 326.4, 193.74 243.05, 405.11 2.35 M59.5 412.13 C187.64 268.98, 310.21 125.91, 415.74 2.32 M59.5 412.13 C172.14 284.7, 282.44 158.06, 415.74 2.32 M70.13 412.09 C168.05 297.07, 270.63 180.95, 426.37 2.29 M70.13 412.09 C159.08 311.47, 247.98 208.99, 426.37 2.29 M80.76 412.06 C195.76 279.51, 311.21 143.64, 437 2.25 M80.76 412.06 C187.92 287.51, 294.2 164.9, 437 2.25 M91.39 412.02 C183.94 306.64, 279.97 198.31, 447.63 2.22 M91.39 412.02 C168.85 321.2, 248.29 228.08, 447.63 2.22 M102.02 411.99 C219.86 278.88, 335.76 143.25, 458.26 2.18 M102.02 411.99 C191.43 308.68, 280.58 206.64, 458.26 2.18 M112 412.71 C227.08 277, 345.86 141.48, 468.89 2.15 M112 412.71 C219.46 288.97, 330.16 162.51, 468.89 2.15 M122.63 412.68 C197.25 323.17, 274.44 236.03, 479.52 2.11 M122.63 412.68 C262.9 254.42, 403.29 92.34, 479.52 2.11 M133.26 412.64 C264.64 264.14, 396.01 113.59, 490.15 2.08 M133.26 412.64 C216.15 314.2, 300 217.46, 490.15 2.08 M143.89 412.61 C286.52 247.21, 428.72 82.97, 500.78 2.04 M143.89 412.61 C236.1 305.73, 329.88 198.28, 500.78 2.04 M154.52 412.57 C244.26 310.84, 333.1 209.56, 511.41 2.01 M154.52 412.57 C235.47 319.85, 316.7 226.5, 511.41 2.01 M165.15 412.54 C295.36 264.35, 423.96 118.46, 522.04 1.98 M165.15 412.54 C242.88 325.07, 317.7 238.58, 522.04 1.98 M175.78 412.5 C312.11 258.24, 443.42 103.95, 532.67 1.94 M175.78 412.5 C266.56 309.25, 356.91 206.17, 532.67 1.94 M186.41 412.47 C303.74 277.36, 422.4 141.84, 543.3 1.91 M186.41 412.47 C303.93 282.63, 417.83 150.15, 543.3 1.91 M197.04 412.43 C321.07 271.72, 444.42 132.86, 553.93 1.87 M197.04 412.43 C326.92 265.1, 455.58 115.57, 553.93 1.87 M207.67 412.4 C278.9 328.61, 352.29 244.53, 564.56 1.84 M207.67 412.4 C304.68 299.07, 404.26 184.37, 564.56 1.84 M218.3 412.36 C308.44 305.74, 403.83 196.35, 574.54 2.56 M218.3 412.36 C350.97 265.27, 482.5 114.85, 574.54 2.56 M228.93 412.33 C310.64 316.6, 389.54 223.35, 585.17 2.52 M228.93 412.33 C335.28 293.82, 439.72 173.25, 585.17 2.52 M239.56 412.3 C327.11 308.61, 412.33 209.31, 595.8 2.49 M239.56 412.3 C361.96 271.01, 485.55 130.98, 595.8 2.49 M250.19 412.26 C356.87 282.85, 466.88 157.37, 606.43 2.45 M250.19 412.26 C388.12 249.99, 527.21 90.57, 606.43 2.45 M260.82 412.23 C374.12 279.12, 487.98 146.06, 617.06 2.42 M260.82 412.23 C382.43 272.55, 503.83 133.06, 617.06 2.42 M271.45 412.19 C384.28 283.69, 495.25 154.14, 627.69 2.38 M271.45 412.19 C384.54 283.77, 495.44 155.27, 627.69 2.38 M282.08 412.16 C393.4 287.2, 505.96 158.55, 638.32 2.35 M282.08 412.16 C380.7 298.58, 477.98 186.41, 638.32 2.35 M292.71 412.12 C418.7 265.54, 547.11 120.68, 648.95 2.32 M292.71 412.12 C369.85 320.5, 448.66 231.06, 648.95 2.32 M303.34 412.09 C432.51 264.42, 565.1 114.22, 659.58 2.28 M303.34 412.09 C383.19 319.83, 462.64 228.68, 659.58 2.28 M313.97 412.05 C433.69 279.05, 550.76 141.08, 670.21 2.25 M313.97 412.05 C452.99 251.54, 591.34 92.07, 670.21 2.25 M323.94 412.77 C404.32 320.47, 484.38 227.99, 680.84 2.21 M323.94 412.77 C445.78 278.89, 564.1 141.99, 680.84 2.21 M334.57 412.74 C467.81 260.97, 598.83 110.81, 691.47 2.18 M334.57 412.74 C443.86 285.43, 556.21 156.95, 691.47 2.18 M345.2 412.71 C469.59 271.61, 592.84 130.92, 702.1 2.14 M345.2 412.71 C458.61 282.85, 574.07 151.48, 702.1 2.14 M355.83 412.67 C485.72 262.92, 617.39 113.92, 712.73 2.11 M355.83 412.67 C429.29 328.16, 502.55 242.69, 712.73 2.11 M366.46 412.64 C503.6 255.46, 640.11 95.77, 723.36 2.07 M366.46 412.64 C495.95 258.21, 627.1 106.65, 723.36 2.07 M377.09 412.6 C477.59 300.64, 576.93 189.28, 733.99 2.04 M377.09 412.6 C481.37 289.69, 587.91 168.99, 733.99 2.04 M387.72 412.57 C502.72 279.88, 616.89 148.26, 744.62 2.01 M387.72 412.57 C467.04 320.04, 548.92 225.41, 744.62 2.01 M398.35 412.53 C472.2 325.61, 549.82 239.77, 755.25 1.97 M398.35 412.53 C518.89 281.09, 635.56 145.97, 755.25 1.97 M408.98 412.5 C523.16 277.42, 642.29 143.08, 765.88 1.94 M408.98 412.5 C525.03 281.43, 638.88 150.19, 765.88 1.94 M419.61 412.46 C541.5 273.6, 663.46 134.42, 776.51 1.9 M419.61 412.46 C511.8 300.66, 606.65 193.43, 776.51 1.9 M430.24 412.43 C533.33 289.69, 637.58 169.77, 786.48 2.62 M430.24 412.43 C506.27 326.17, 584.96 236.59, 786.48 2.62 M440.87 412.39 C577.84 251.15, 717.98 90.87, 797.11 2.59 M440.87 412.39 C576.31 255.99, 713.15 99.71, 797.11 2.59 M451.5 412.36 C559.21 284.18, 666.68 156.93, 807.74 2.55 M451.5 412.36 C584.25 255.19, 718.47 98.17, 807.74 2.55 M462.13 412.33 C582.54 271.04, 709.68 125.45, 818.37 2.52 M462.13 412.33 C601.62 253.07, 740.36 93.56, 818.37 2.52 M472.76 412.29 C606.76 262.15, 737.65 107.94, 829 2.48 M472.76 412.29 C550.96 322.05, 629.86 230.31, 829 2.48 M483.39 412.26 C607.02 266.21, 734.8 119.63, 839.63 2.45 M483.39 412.26 C588.33 293.23, 690.69 174.83, 839.63 2.45 M494.02 412.22 C599.57 286.03, 705.5 161.77, 850.26 2.42 M494.02 412.22 C579.78 316.29, 664.53 220.85, 850.26 2.42 M504.65 412.19 C580.84 326.46, 656.48 234.93, 860.89 2.38 M504.65 412.19 C619.47 284.22, 732.56 153.01, 860.89 2.38 M515.28 412.15 C591.06 325.45, 665.53 240.94, 871.52 2.35 M515.28 412.15 C612.25 303.96, 706.98 195.42, 871.52 2.35 M525.91 412.12 C630.43 294.85, 731.03 179.12, 882.15 2.31 M525.91 412.12 C609.78 319.04, 688.85 227.46, 882.15 2.31 M536.54 412.08 C613.24 326.31, 692.01 233.76, 892.78 2.28 M536.54 412.08 C621.56 315.86, 704.93 218.89, 892.78 2.28 M546.52 412.8 C681.78 257.93, 815.84 105.35, 903.41 2.24 M546.52 412.8 C682 257.53, 816.58 103.61, 903.41 2.24 M557.15 412.77 C688.55 262.3, 817.87 112.28, 914.04 2.21 M557.15 412.77 C640.07 319.89, 722.97 224.95, 914.04 2.21 M567.78 412.74 C661.3 303.92, 756.83 195.51, 924.67 2.17 M567.78 412.74 C655.76 311.27, 745.98 206.54, 924.67 2.17 M578.41 412.7 C686.67 292.92, 789.95 172.74, 935.3 2.14 M578.41 412.7 C650.54 325.56, 724.7 239.46, 935.3 2.14 M589.04 412.67 C725.47 250.98, 863.01 93.02, 945.93 2.1 M589.04 412.67 C717.07 267.09, 844.61 120.51, 945.93 2.1 M599.67 412.63 C719.05 272.67, 841.15 130.49, 956.56 2.07 M599.67 412.63 C707.13 292.88, 809.64 174.8, 956.56 2.07 M610.3 412.6 C732 273.11, 851.04 135.96, 967.19 2.04 M610.3 412.6 C716.53 288.42, 825.83 161.41, 967.19 2.04 M620.93 412.56 C717.86 303.35, 817.57 193.89, 977.82 2 M620.93 412.56 C715.65 306.76, 809.62 199.13, 977.82 2 M631.56 412.53 C756.54 271.99, 881.5 128.78, 988.45 1.97 M631.56 412.53 C752.81 276.37, 872.56 139.42, 988.45 1.97 M642.19 412.49 C767.66 272.42, 893.36 128.43, 999.08 1.93 M642.19 412.49 C745.94 296.62, 846.35 181.11, 999.08 1.93 M652.82 412.46 C734.63 318.12, 817.68 222.51, 1009.06 2.65 M652.82 412.46 C792.81 250.17, 934.33 86.84, 1009.06 2.65 M663.45 412.43 C746.93 315.4, 832.26 215.8, 1019.69 2.62 M663.45 412.43 C798.27 260.23, 930.34 106.58, 1019.69 2.62 M674.08 412.39 C765.49 307.28, 857.57 200.95, 1030.32 2.58 M674.08 412.39 C763.48 308.79, 855.95 201.38, 1030.32 2.58 M684.71 412.36 C800.98 277.71, 918.69 142.92, 1040.95 2.55 M684.71 412.36 C799.07 277.06, 913.9 144.6, 1040.95 2.55 M695.34 412.32 C778.15 316.88, 865.21 217.16, 1051.58 2.51 M695.34 412.32 C772.62 328.06, 847.84 242.03, 1051.58 2.51 M705.97 412.29 C780.9 325.67, 854.31 242.27, 1062.21 2.48 M705.97 412.29 C848.18 248.4, 989.84 86, 1062.21 2.48 M716.6 412.25 C813.1 306.81, 905.72 199.99, 1072.84 2.45 M716.6 412.25 C838.39 266.43, 963.89 122.26, 1072.84 2.45 M727.23 412.22 C852.51 268.2, 983.1 119.06, 1083.47 2.41 M727.23 412.22 C799.04 329.89, 872.52 245.15, 1083.47 2.41 M737.86 412.18 C861.3 269.24, 986.88 123.79, 1094.1 2.38 M737.86 412.18 C848.57 285.36, 956.81 160.04, 1094.1 2.38 M748.49 412.15 C852.89 291.34, 958.1 167.83, 1104.73 2.34 M748.49 412.15 C836.46 308.41, 927.39 204.61, 1104.73 2.34 M758.46 412.87 C836.73 321.61, 912.11 230.71, 1115.36 2.31 M758.46 412.87 C870.78 289.73, 980.4 163.97, 1115.36 2.31 M769.09 412.84 C848.74 320.05, 931.02 227.76, 1125.99 2.27 M769.09 412.84 C911.39 247.76, 1052.48 84.92, 1125.99 2.27 M779.72 412.8 C887.06 292.89, 992.17 166.66, 1136.62 2.24 M779.72 412.8 C890.35 284.33, 1002.83 154.76, 1136.62 2.24 M790.35 412.77 C919.58 261.82, 1050.45 110.64, 1147.25 2.2 M790.35 412.77 C919.89 266.93, 1047.18 119.18, 1147.25 2.2 M800.98 412.73 C909.89 282.27, 1021.14 154.06, 1157.88 2.17 M800.98 412.73 C905.29 290.32, 1012.88 166.97, 1157.88 2.17 M811.61 412.7 C900.52 309.16, 990.85 205.58, 1168.51 2.14 M811.61 412.7 C892.69 317.15, 976.77 220.14, 1168.51 2.14 M822.24 412.66 C935.64 280.77, 1051.07 146.87, 1179.14 2.1 M822.24 412.66 C945.03 269.9, 1070.33 125.52, 1179.14 2.1 M832.87 412.63 C907.67 327.14, 980.61 242.04, 1189.77 2.07 M832.87 412.63 C970.53 254.49, 1106.5 97.9, 1189.77 2.07 M843.5 412.59 C937.11 303.77, 1032.78 197.01, 1200.4 2.03 M843.5 412.59 C975.25 260.23, 1110.39 105.78, 1200.4 2.03 M854.13 412.56 C950.01 302.45, 1047.11 190.25, 1211.03 2 M854.13 412.56 C974.29 271.3, 1095.35 133.15, 1211.03 2 M864.76 412.52 C938.03 329.75, 1012.26 244.46, 1221 2.72 M864.76 412.52 C935.81 332.8, 1007.56 250.35, 1221 2.72 M875.39 412.49 C983.25 289.93, 1093.25 163.73, 1231.63 2.68 M875.39 412.49 C976.77 292.42, 1078.95 175.38, 1231.63 2.68 M886.02 412.46 C989.57 287.98, 1097.47 167.88, 1242.26 2.65 M886.02 412.46 C975.59 306.85, 1070.38 199.4, 1242.26 2.65 M896.65 412.42 C992.75 305.44, 1085.11 197.64, 1252.89 2.61 M896.65 412.42 C1036.63 249.92, 1178.36 88.19, 1252.89 2.61 M907.28 412.39 C992.6 314.73, 1076.11 217.84, 1263.52 2.58 M907.28 412.39 C1019.64 281.75, 1134.37 149.54, 1263.52 2.58 M917.91 412.35 C1029.77 286.44, 1141.7 160.25, 1274.15 2.54 M917.91 412.35 C1019.74 292.97, 1123.02 173.39, 1274.15 2.54 M928.54 412.32 C1066.03 253.89, 1205.21 98.01, 1284.78 2.51 M928.54 412.32 C1055.84 268.23, 1181.47 124.62, 1284.78 2.51 M939.17 412.28 C1048.57 283.42, 1162.74 151.57, 1295.41 2.48 M939.17 412.28 C1070.73 258.64, 1203.84 104.8, 1295.41 2.48 M949.8 412.25 C1036.5 310.86, 1127.92 205.06, 1306.04 2.44 M949.8 412.25 C1034.89 312, 1123.37 209.84, 1306.04 2.44 M960.43 412.21 C1092.91 265.75, 1221.86 117.33, 1316.67 2.41 M960.43 412.21 C1067.62 285.47, 1177.28 158.45, 1316.67 2.41 M970.41 412.93 C1048.52 326.39, 1121.37 240.93, 1327.3 2.37 M970.41 412.93 C1085.01 282.58, 1197.7 152.97, 1327.3 2.37 M981.04 412.9 C1069.69 311.54, 1159.12 211.58, 1337.94 2.34 M981.04 412.9 C1098.35 285.18, 1211.56 154.46, 1337.94 2.34 M991.67 412.87 C1130.84 249.18, 1270.78 88.72, 1348.57 2.3 M991.67 412.87 C1131.69 253.2, 1271.17 93.24, 1348.57 2.3 M1002.3 412.83 C1128.94 264.2, 1255.42 117.05, 1359.2 2.27 M1002.3 412.83 C1110.28 286.78, 1221.15 161.38, 1359.2 2.27 M1012.93 412.8 C1149.33 253.29, 1286.96 94.19, 1369.83 2.23 M1012.93 412.8 C1119.46 288.53, 1229.29 162.18, 1369.83 2.23 M1023.56 412.76 C1163.2 248.68, 1304.67 86.92, 1380.46 2.2 M1023.56 412.76 C1148.4 272.66, 1269.97 132.21, 1380.46 2.2 M1034.19 412.73 C1154.6 272.79, 1274.82 133.49, 1391.09 2.17 M1034.19 412.73 C1118.75 316.94, 1202.51 220.57, 1391.09 2.17 M1044.82 412.69 C1148.36 295.66, 1249.28 178.25, 1401.72 2.13 M1044.82 412.69 C1170.9 267.59, 1295.14 123.92, 1401.72 2.13 M1055.45 412.66 C1142.83 313.86, 1231.65 209.28, 1412.35 2.1 M1055.45 412.66 C1176.41 272.65, 1298.65 129.99, 1412.35 2.1 M1066.08 412.62 C1150.96 316.12, 1236.16 217.25, 1422.98 2.06 M1066.08 412.62 C1149.08 316.26, 1231.57 220.88, 1422.98 2.06 M1076.71 412.59 C1174.42 294.94, 1275.93 180.68, 1432.95 2.78 M1076.71 412.59 C1196.87 272.35, 1316.55 133.37, 1432.95 2.78 M1087.34 412.55 C1190.67 294.2, 1294.14 175.19, 1443.58 2.75 M1087.34 412.55 C1215.18 266.61, 1342.82 119.57, 1443.58 2.75 M1097.97 412.52 C1187.71 309.03, 1280.12 201.2, 1454.21 2.71 M1097.97 412.52 C1217.56 276.78, 1334.02 142.84, 1454.21 2.71 M1108.6 412.49 C1238.78 264.36, 1368.94 113.33, 1464.84 2.68 M1108.6 412.49 C1205.24 306.09, 1299.38 198.97, 1464.84 2.68 M1119.23 412.45 C1243.03 265.21, 1369.69 119.1, 1475.47 2.64 M1119.23 412.45 C1241.34 271.17, 1363.67 131.79, 1475.47 2.64 M1129.86 412.42 C1206.6 322.96, 1284.54 233.29, 1486.1 2.61 M1129.86 412.42 C1253.37 269.28, 1376.38 129.11, 1486.1 2.61 M1140.49 412.38 C1213.97 331.79, 1287.99 247.08, 1496.73 2.58 M1140.49 412.38 C1219.06 318.51, 1300.78 226.49, 1496.73 2.58 M1151.12 412.35 C1258.24 294.9, 1364.46 174.18, 1507.36 2.54 M1151.12 412.35 C1283.37 257.27, 1416.14 106.05, 1507.36 2.54 M1161.75 412.31 C1232.31 329.47, 1304.14 248.46, 1517.99 2.51 M1161.75 412.31 C1284.88 270.94, 1409.37 127.54, 1517.99 2.51 M1172.38 412.28 C1264.55 305.94, 1354.34 203.02, 1528.62 2.47 M1172.38 412.28 C1307.08 256.47, 1442.21 102.07, 1528.62 2.47 M1183.01 412.24 C1324.06 249.97, 1466.77 87.43, 1539.25 2.44 M1183.01 412.24 C1284.05 293.1, 1386.93 174.1, 1539.25 2.44 M1192.98 412.96 C1290.55 305.16, 1385.47 194.64, 1549.88 2.4 M1192.98 412.96 C1327.75 261.52, 1460.9 108.1, 1549.88 2.4 M1203.61 412.93 C1342.21 250.66, 1485.43 86.69, 1560.51 2.37 M1203.61 412.93 C1328.94 268.7, 1453.34 125.81, 1560.51 2.37 M1214.24 412.9 C1326.56 283.54, 1433.48 160.32, 1571.14 2.33 M1214.24 412.9 C1293.66 322.32, 1373.41 230.84, 1571.14 2.33 M1224.87 412.86 C1323.44 297.68, 1422.8 187.18, 1581.77 2.3 M1224.87 412.86 C1308.93 317.93, 1393.51 218.88, 1581.77 2.3 M1235.51 412.83 C1322.59 310.74, 1411.66 207.29, 1592.4 2.26 M1235.51 412.83 C1362.62 267.14, 1490.03 120.47, 1592.4 2.26 M1246.14 412.79 C1331.44 313.21, 1420.18 212.76, 1603.03 2.23 M1246.14 412.79 C1386.65 250.53, 1528.16 87.63, 1603.03 2.23 M1256.77 412.76 C1328.28 329.61, 1398.12 249.25, 1613.66 2.2 M1256.77 412.76 C1364.44 290.83, 1470.73 169.41, 1613.66 2.2 M1267.4 412.72 C1405.64 246.49, 1547.61 85.08, 1624.29 2.16 M1267.4 412.72 C1362.69 298.54, 1459.73 186.41, 1624.29 2.16 M1278.03 412.69 C1402.91 269.63, 1526.3 125.52, 1634.92 2.13 M1278.03 412.69 C1383 289.75, 1488.52 168.21, 1634.92 2.13 M1288.66 412.65 C1422.27 264.33, 1554.92 114.46, 1645.55 2.09 M1288.66 412.65 C1372.19 317.83, 1455.41 222.02, 1645.55 2.09 M1299.29 412.62 C1402.84 293.8, 1509.58 173.8, 1655.53 2.81 M1299.29 412.62 C1405.87 286.89, 1515.1 161.74, 1655.53 2.81 M1309.92 412.59 C1400.92 306.69, 1489.74 202.24, 1666.16 2.78 M1309.92 412.59 C1401.88 306.73, 1495.17 198.3, 1666.16 2.78 M1320.55 412.55 C1448.01 264.81, 1578.87 117.15, 1676.79 2.74 M1320.55 412.55 C1399.71 320.54, 1481.85 226.44, 1676.79 2.74 M1331.18 412.52 C1439.04 286.73, 1551.1 160.02, 1687.42 2.71 M1331.18 412.52 C1428.04 302.18, 1523.88 193.09, 1687.42 2.71 M1341.81 412.48 C1435.69 302.61, 1531.47 191.4, 1698.05 2.67 M1341.81 412.48 C1423.6 316.54, 1508.35 221.13, 1698.05 2.67 M1352.44 412.45 C1446.42 311.19, 1534.95 205.58, 1708.68 2.64 M1352.44 412.45 C1482.36 263, 1610.36 116.42, 1708.68 2.64 M1363.07 412.41 C1448.17 311.54, 1534.82 210.85, 1719.31 2.61 M1363.07 412.41 C1455.77 304.89, 1551.78 194.74, 1719.31 2.61 M1373.7 412.38 C1503.73 266.47, 1627.1 122.7, 1729.94 2.57 M1373.7 412.38 C1506.5 259.13, 1640.42 103.96, 1729.94 2.57 M1384.33 412.34 C1501.27 274.43, 1619.05 139.8, 1740.57 2.54 M1384.33 412.34 C1505.95 272.32, 1625.95 135.43, 1740.57 2.54 M1394.96 412.31 C1517.85 275.59, 1637.56 137.17, 1751.2 2.5 M1394.96 412.31 C1532.39 255.92, 1668.69 99.77, 1751.2 2.5 M1404.93 413.03 C1500.39 304.97, 1594.32 198.61, 1761.83 2.47 M1404.93 413.03 C1477.66 326.74, 1552.08 240.15, 1761.83 2.47 M1415.56 412.99 C1517.45 292.32, 1623.42 173.84, 1772.46 2.43 M1415.56 412.99 C1534.66 274.54, 1653.22 137.82, 1772.46 2.43 M1426.19 412.96 C1496.41 327.54, 1568.24 244.61, 1783.09 2.4 M1426.19 412.96 C1544.34 277.75, 1663.04 141.33, 1783.09 2.4 M1436.82 412.93 C1566.01 261.97, 1694.28 112.46, 1793.72 2.36 M1436.82 412.93 C1519.87 321.9, 1600.21 228.84, 1793.72 2.36 M1447.45 412.89 C1523.08 323.92, 1599.83 238.38, 1804.35 2.33 M1447.45 412.89 C1558.19 283.17, 1670.35 153.11, 1804.35 2.33 M1458.08 412.86 C1549.75 307.57, 1638.84 203.29, 1814.98 2.29 M1458.08 412.86 C1585.76 263.26, 1715.76 114.38, 1814.98 2.29 M1468.71 412.82 C1596.48 266.88, 1724.26 124.54, 1825.61 2.26 M1468.71 412.82 C1552.69 314.69, 1636.12 218.79, 1825.61 2.26 M1479.34 412.79 C1592.91 280.68, 1709.66 148.09, 1836.24 2.23 M1479.34 412.79 C1575.52 305.05, 1671.42 196.06, 1836.24 2.23 M1489.97 412.75 C1564.14 329.76, 1636.46 246.32, 1846.87 2.19 M1489.97 412.75 C1611.39 275.44, 1728.58 140.01, 1846.87 2.19 M1500.6 412.72 C1598.5 294.37, 1703.19 179.37, 1857.5 2.16 M1500.6 412.72 C1637.44 259.47, 1772.36 105.13, 1857.5 2.16 M1511.23 412.68 C1641.93 263.19, 1766.38 119.6, 1867.47 2.88 M1511.23 412.68 C1625.23 282.32, 1737.43 153.21, 1867.47 2.88 M1521.86 412.65 C1635.71 281.98, 1752.51 148.64, 1878.1 2.84 M1521.86 412.65 C1649.71 266.72, 1775.22 121.26, 1878.1 2.84 M1532.49 412.62 C1634.15 293.09, 1740.92 172.64, 1888.73 2.81 M1532.49 412.62 C1625.36 303.98, 1722.23 193.86, 1888.73 2.81 M1543.12 412.58 C1676.15 261.37, 1804.85 112.21, 1899.36 2.77 M1543.12 412.58 C1674.85 261.58, 1804.29 112.39, 1899.36 2.77 M1553.75 412.55 C1667.38 285.17, 1781.54 154.84, 1909.99 2.74 M1553.75 412.55 C1671.9 275.53, 1789.58 139.18, 1909.99 2.74 M1564.38 412.51 C1633.49 331.87, 1705.52 246.79, 1920.62 2.7 M1564.38 412.51 C1634.76 329.01, 1708.78 245.28, 1920.62 2.7 M1575.01 412.48 C1657.69 317.28, 1740.77 222.09, 1931.25 2.67 M1575.01 412.48 C1653.4 322.29, 1732.9 232.52, 1931.25 2.67 M1585.64 412.44 C1725.56 256.38, 1862.14 97.07, 1941.88 2.64 M1585.64 412.44 C1719.06 257.71, 1856.24 99.79, 1941.88 2.64 M1596.27 412.41 C1688.28 299.89, 1784.37 191.75, 1952.51 2.6 M1596.27 412.41 C1706.86 286.83, 1818.56 156.66, 1952.51 2.6 M1606.9 412.37 C1720.41 279.6, 1836.05 147.22, 1963.14 2.57 M1606.9 412.37 C1684.43 324.17, 1764.25 233.54, 1963.14 2.57 M1616.88 413.09 C1731.62 279.27, 1851.48 142.09, 1973.77 2.53 M1616.88 413.09 C1746.88 266.78, 1874.52 120.12, 1973.77 2.53 M1627.51 413.06 C1764.37 257.73, 1899.56 105.71, 1984.4 2.5 M1627.51 413.06 C1758.63 262.59, 1890.55 112.55, 1984.4 2.5 M1638.14 413.03 C1763.3 264.98, 1893.73 117.78, 1995.03 2.46 M1638.14 413.03 C1767.62 264.64, 1896 115.16, 1995.03 2.46 M1648.77 412.99 C1785.33 258.64, 1916.59 105.33, 2005.66 2.43 M1648.77 412.99 C1747.36 299.31, 1846.73 185.84, 2005.66 2.43 M1659.4 412.96 C1799.32 252.23, 1939.24 91.26, 2014.98 3.9 M1659.4 412.96 C1768.05 286.26, 1880.78 157.38, 2014.98 3.9 M1670.03 412.92 C1772.85 296.87, 1872.57 179.75, 2022.99 6.89 M1670.03 412.92 C1781.48 281.26, 1897.05 149.55, 2022.99 6.89 M1680.66 412.89 C1780.02 302.62, 1879.17 189, 2030.99 9.87 M1680.66 412.89 C1774.05 307.46, 1864.07 203.87, 2030.99 9.87 M1691.29 412.85 C1814.89 268.81, 1940.23 125.85, 2034.41 18.14 M1691.29 412.85 C1797.89 289.67, 1905.77 166.57, 2034.41 18.14 M1701.92 412.82 C1826.58 266.53, 1950.44 125.07, 2035.85 28.67 M1701.92 412.82 C1768.89 331.18, 1838.64 251.65, 2035.85 28.67 M1712.55 412.78 C1844.39 265.79, 1972.56 120.41, 2040.58 35.43 M1712.55 412.78 C1827.33 282, 1940.06 153.18, 2040.58 35.43 M1723.18 412.75 C1792.65 329.81, 1866.19 245.42, 2040.71 47.47 M1723.18 412.75 C1801.62 320.84, 1881.05 228.55, 2040.71 47.47 M1733.81 412.71 C1804.39 331.26, 1875.16 248.52, 2040.19 60.27 M1733.81 412.71 C1840.09 289.17, 1948.73 165.18, 2040.19 60.27 M1744.44 412.68 C1841.01 299.83, 1939.12 189.27, 2040.32 72.31 M1744.44 412.68 C1811.04 334.68, 1880.17 254.72, 2040.32 72.31 M1755.07 412.65 C1836.03 315.04, 1918.62 222.22, 2040.45 84.35 M1755.07 412.65 C1862.64 282.64, 1973.82 157.16, 2040.45 84.35 M1765.7 412.61 C1860.38 304.44, 1955.56 195.88, 2040.59 96.39 M1765.7 412.61 C1841.45 327.12, 1916.46 240.82, 2040.59 96.39 M1776.33 412.58 C1835.36 341.14, 1898.97 271.32, 2040.06 109.18 M1776.33 412.58 C1856.76 322.6, 1934.18 230.85, 2040.06 109.18 M1786.96 412.54 C1855.48 337.63, 1921.59 262.71, 2040.2 121.22 M1786.96 412.54 C1853.16 337.63, 1917.03 263.76, 2040.2 121.22 M1797.59 412.51 C1869.43 329.11, 1939.49 245.31, 2040.33 133.27 M1797.59 412.51 C1865.12 334.5, 1933.84 254.87, 2040.33 133.27 M1808.22 412.47 C1876.03 339.12, 1939.93 265.72, 2040.46 145.31 M1808.22 412.47 C1886.69 327.51, 1963.83 239.05, 2040.46 145.31 M1818.85 412.44 C1902.1 322.1, 1985.02 227.34, 2039.94 158.1 M1818.85 412.44 C1889.78 331.17, 1961.34 249.42, 2039.94 158.1 M1828.82 413.16 C1893.04 340.16, 1952.23 270.98, 2040.07 170.14 M1828.82 413.16 C1877.2 361.67, 1923.22 309.54, 2040.07 170.14 M1839.45 413.12 C1898.98 346.62, 1956.17 286.23, 2040.21 182.18 M1839.45 413.12 C1906.49 335.8, 1974.11 257.93, 2040.21 182.18 M1850.08 413.09 C1888.22 370.29, 1927.57 325.2, 2040.34 194.22 M1850.08 413.09 C1904.01 347.27, 1960.62 282.58, 2040.34 194.22 M1860.71 413.06 C1925.83 341.98, 1983.15 270.87, 2040.47 206.27 M1860.71 413.06 C1907.3 356.69, 1954.99 301.33, 2040.47 206.27 M1871.34 413.02 C1913.28 361.8, 1954.71 313.25, 2039.95 219.06 M1871.34 413.02 C1923.47 346.41, 1981.45 284.59, 2039.95 219.06 M1881.97 412.99 C1945.7 339.6, 2007.73 270.88, 2040.08 231.1 M1881.97 412.99 C1936.71 345.6, 1995.81 282.91, 2040.08 231.1 M1892.6 412.95 C1928.04 373.69, 1961.55 332.79, 2040.22 243.14 M1892.6 412.95 C1943.05 355.31, 1989.71 300.35, 2040.22 243.14 M1903.23 412.92 C1957.25 352.32, 2011.09 288.69, 2040.35 255.18 M1903.23 412.92 C1941.75 372.5, 1979.2 331.2, 2040.35 255.18 M1913.86 412.88 C1953.47 371.16, 1992.62 324.63, 2039.83 267.98 M1913.86 412.88 C1948.78 372.9, 1983.08 332.3, 2039.83 267.98 M1924.49 412.85 C1965.97 364.96, 2005.6 315, 2039.96 280.02 M1924.49 412.85 C1965.57 363.41, 2010.02 310.49, 2039.96 280.02 M1935.12 412.81 C1960.8 383.54, 1978.25 359.17, 2040.09 292.06 M1935.12 412.81 C1962.58 385, 1987.42 353.31, 2040.09 292.06 M1945.75 412.78 C1973.61 388.92, 1997.99 360.87, 2040.23 304.1 M1945.75 412.78 C1974.29 382.4, 2003.05 346.93, 2040.23 304.1 M1956.38 412.75 C1987.81 374.37, 2020.8 338.22, 2039.7 316.9 M1956.38 412.75 C1977.84 387.33, 1997.13 364.55, 2039.7 316.9 M1967.01 412.71 C1994.48 378.82, 2017.6 348.36, 2039.84 328.94 M1967.01 412.71 C1991.94 384.42, 2015.63 355.82, 2039.84 328.94 M1977.64 412.68 C1993.87 388.92, 2007.31 373.52, 2039.97 340.98 M1977.64 412.68 C2000.67 384.86, 2021.67 357.84, 2039.97 340.98 M1988.27 412.64 C1999.29 396.56, 2013.74 376.77, 2040.1 353.02 M1988.27 412.64 C2000.01 398.36, 2013.04 380.22, 2040.1 353.02 M1998.9 412.61 C2005.6 402.78, 2016.93 393.8, 2040.24 365.06 M1998.9 412.61 C2011.57 399.42, 2022.06 384.54, 2040.24 365.06 M2008.22 414.08 C2012.32 404.8, 2020.33 397.97, 2039.71 377.86 M2008.22 414.08 C2019.1 405.4, 2024.52 396.92, 2039.71 377.86" stroke="#f8f9fa" stroke-width="1" fill="none"></path><path d="M32 0 M32 0 C606.49 -5.95, 1179.69 -5.45, 2004.25 0 M32 0 C567.9 10.54, 1104.15 9.55, 2004.25 0 M2004.25 0 C2021.93 2.56, 2033.94 11.46, 2036.25 32 M2004.25 0 C2029.46 0.91, 2039.91 9.18, 2036.25 32 M2036.25 32 C2039.41 104.87, 2041.08 177.04, 2036.25 378.2 M2036.25 32 C2041.06 108.45, 2041.45 181.84, 2036.25 378.2 M2036.25 378.2 C2035.74 402.64, 2028.22 406.31, 2004.25 410.2 M2036.25 378.2 C2034.06 395.69, 2027.84 414.22, 2004.25 410.2 M2004.25 410.2 C1559.49 408.91, 1116.52 411.37, 32 410.2 M2004.25 410.2 C1244.86 419.38, 486.01 419.44, 32 410.2 M32 410.2 C7.83 407.14, 3.9 402.97, 0 378.2 M32 410.2 C8.94 414.75, 4.36 401.2, 0 378.2 M0 378.2 C-4.13 251.78, -2.99 131.57, 0 32 M0 378.2 C-3.22 292.62, -1.52 205.32, 0 32 M0 32 C-2.54 7.23, 12.58 -3.65, 32 0 M0 32 C1.78 14.35, 13.26 -2.4, 32 0" stroke="#1e1e1e" stroke-width="2" fill="none"></path></g><g stroke-linecap="round" transform="translate(226.75768559147036 187.02977281747906) rotate(0 381.5 100)"><path d="M30.83 3.06 L734.06 1.24 L747.31 3.26 L754.24 7.16 L763.92 23.44 L763.67 167.09 L757.48 181.31 L749.83 198.59 L729.12 200.31 L35.51 201.91 L17.31 196.51 L6.32 190.5 L3.78 176.7 L-0.32 26.98 L11.63 6.37 L14.8 -0.82 L28.23 -1.33" stroke="none" stroke-width="0" fill="#a5d8ff"></path><path d="M32 0 M32 0 C176.62 2.34, 321.25 1.52, 731 0 M32 0 C254.02 0.77, 476.71 1.42, 731 0 M731 0 C752.18 2.45, 760.93 14.3, 763 32 M731 0 C748.82 2.74, 763.59 7.55, 763 32 M763 32 C763.39 83.82, 760.59 126.7, 763 168 M763 32 C763.39 85.26, 764.24 138.03, 763 168 M763 168 C761 189.71, 748.91 200.86, 731 200 M763 168 C759.72 185.89, 754.43 204.44, 731 200 M731 200 C458.01 202.82, 182.16 201.65, 32 200 M731 200 C529.39 203.91, 328.55 204.09, 32 200 M32 200 C13.08 196.18, 2.46 190.63, 0 168 M32 200 C9.01 201.71, -0.4 191.51, 0 168 M0 168 C4.46 118.32, 4.29 63.92, 0 32 M0 168 C-0.43 115.94, 1.46 62.1, 0 32 M0 32 C-3.94 12.07, 12.71 0.43, 32 0 M0 32 C-0.85 7.36, 10.5 -4.17, 32 0" stroke="#1e1e1e" stroke-width="2" fill="none"></path></g><g transform="translate(406.14440434147036 266.32977281747907) rotate(0 202.11328125 20.700000000000003)"><text x="202.11328125" y="0" font-family="Helvetica, Segoe UI Emoji" font-size="36px" fill="#1e1e1e" text-anchor="middle" style="white-space: pre;" direction="ltr" dominant-baseline="text-before-edge">Request Protocol Header</text></g><g stroke-linecap="round" transform="translate(1226.3589133301532 184.5259385814045) rotate(0 381.5 100)"><path d="M35.06 1.24 L733.31 1.26 L744.24 1.16 L756.42 6.94 L763.17 23.59 L759.48 167.31 L760.33 185.09 L748.62 195.81 L734.51 201.91 L31.31 198.51 L19.82 201 L7.78 188.7 L-0.32 177.98 L4.13 22.87 L4.8 5.18 L14.23 0.67 L28.24 -3.4" stroke="none" stroke-width="0" fill="#a5d8ff"></path><path d="M32 0 M32 0 C230.45 -4.16, 426.85 -4.57, 731 0 M32 0 C224.76 3.92, 418.47 4.31, 731 0 M731 0 C750.27 3.64, 759.94 13.05, 763 32 M731 0 C752.93 -3.12, 765.5 12.8, 763 32 M763 32 C758.74 59.98, 765.88 91, 763 168 M763 32 C765.35 73.55, 762.87 113.64, 763 168 M763 168 C759.58 190.2, 749.48 197.01, 731 200 M763 168 C765.09 193.78, 756.59 195.73, 731 200 M731 200 C480.77 196.94, 230.38 198.73, 32 200 M731 200 C478.07 203.51, 224.73 202.14, 32 200 M32 200 C13.13 201.3, -1.44 190.82, 0 168 M32 200 C10.27 202.18, 3.25 185.14, 0 168 M0 168 C0.47 135.2, 2.09 109.04, 0 32 M0 168 C2.03 134.44, -1.46 103.49, 0 32 M0 32 C2.05 11.1, 9.93 -2.87, 32 0 M0 32 C-0.17 6.5, 7.51 0.7, 32 0" stroke="#1e1e1e" stroke-width="2" fill="none"></path></g><g transform="translate(1423.7544211426532 263.8259385814045) rotate(0 184.1044921875 20.700000000000003)"><text x="184.1044921875" y="0" font-family="Helvetica, Segoe UI Emoji" font-size="36px" fill="#1e1e1e" text-anchor="middle" style="white-space: pre;" direction="ltr" dominant-baseline="text-before-edge">Request Protocol Body</text></g><g stroke-linecap="round" transform="translate(109.12898966826788 660.4972963885137) rotate(0 1018.1256363188368 205.0975763584949)"><path d="M7.86 8.16 C7.86 8.16, 7.86 8.16, 7.86 8.16 M7.86 8.16 C7.86 8.16, 7.86 8.16, 7.86 8.16 M6.68 21.71 C10.63 17.14, 20.72 12.16, 21.12 5.11 M6.68 21.71 C13.33 15.23, 14.68 9.16, 21.12 5.11 M4.85 36.01 C7.75 28.87, 18.67 25.94, 34.37 2.05 M4.85 36.01 C15.8 22.75, 25.23 9.18, 34.37 2.05 M4.98 48.06 C16.88 35.01, 27.63 23.02, 45 2.02 M4.98 48.06 C20.34 32.97, 32.01 15.05, 45 2.02 M4.46 60.85 C28.99 37.95, 45.47 16.6, 55.63 1.98 M4.46 60.85 C19.63 41.01, 35.96 21.65, 55.63 1.98 M4.59 72.89 C23.62 59.8, 30.16 42.19, 66.26 1.95 M4.59 72.89 C26.95 45.08, 53.16 18.99, 66.26 1.95 M4.72 84.93 C27.07 63.29, 40.45 40.09, 76.89 1.91 M4.72 84.93 C29.14 57.74, 54.73 27.36, 76.89 1.91 M4.86 96.97 C23.68 72.75, 43.24 55.47, 87.52 1.88 M4.86 96.97 C26.55 72.88, 42.88 51.74, 87.52 1.88 M4.99 109.01 C34.6 71.57, 66.57 31.34, 98.15 1.85 M4.99 109.01 C35.07 75.63, 64.28 40.11, 98.15 1.85 M4.47 121.81 C23.2 93.97, 52.53 73.69, 108.78 1.81 M4.47 121.81 C31.57 91.68, 58.01 63.28, 108.78 1.81 M4.6 133.85 C42.4 90.69, 72.64 58.41, 119.41 1.78 M4.6 133.85 C38.63 94.68, 71.74 56.69, 119.41 1.78 M4.73 145.89 C45.55 100.3, 87.03 52.99, 130.04 1.74 M4.73 145.89 C56.28 88.52, 104.4 35.15, 130.04 1.74 M4.87 157.93 C44.28 113.29, 85.66 71.96, 140.67 1.71 M4.87 157.93 C36.43 119.25, 70.3 83.79, 140.67 1.71 M5 169.97 C52.64 111.7, 103.3 55.66, 150.65 2.43 M5 169.97 C49.18 115.02, 92.48 65.75, 150.65 2.43 M4.48 182.77 C57.44 123.02, 106.84 60.72, 161.28 2.39 M4.48 182.77 C36.51 145.11, 66.01 110.41, 161.28 2.39 M4.61 194.81 C70.2 120.76, 130.9 48.67, 171.91 2.36 M4.61 194.81 C55.01 137.78, 104.3 75.26, 171.91 2.36 M4.74 206.85 C62.98 135.86, 129.06 60.2, 182.54 2.32 M4.74 206.85 C77.11 125.64, 148.31 45.67, 182.54 2.32 M4.88 218.89 C64.92 155.4, 116.21 93.5, 193.17 2.29 M4.88 218.89 C46.8 171.99, 84.55 126.99, 193.17 2.29 M5.01 230.93 C51.39 176.42, 102.81 119.27, 203.8 2.26 M5.01 230.93 C63.5 161.35, 121.55 90.68, 203.8 2.26 M4.49 243.73 C79.14 159.8, 153.84 69.17, 214.43 2.22 M4.49 243.73 C52.19 187.54, 97.53 133.96, 214.43 2.22 M4.62 255.77 C61.91 188.88, 121.85 123.46, 225.06 2.19 M4.62 255.77 C84.13 166.95, 163.66 75.66, 225.06 2.19 M4.75 267.81 C68.94 191.74, 136.45 113.99, 235.69 2.15 M4.75 267.81 C76.78 188.92, 144.27 111.26, 235.69 2.15 M4.89 279.85 C101.54 169.47, 197.67 59.15, 246.32 2.12 M4.89 279.85 C73.77 200.02, 140.99 120.39, 246.32 2.12 M5.02 291.89 C93.78 187.28, 184.01 83.45, 256.95 2.08 M5.02 291.89 C103.77 179.87, 202.28 65.89, 256.95 2.08 M4.5 304.69 C59.95 237.74, 116.09 173.54, 267.58 2.05 M4.5 304.69 C96.26 195.63, 190.21 86.94, 267.58 2.05 M4.63 316.73 C84 230.54, 161.03 141.19, 278.21 2.01 M4.63 316.73 C107.67 201.34, 211.55 82.3, 278.21 2.01 M4.76 328.77 C74.36 249.2, 147 165.76, 288.84 1.98 M4.76 328.77 C94.57 223.17, 187.85 114.84, 288.84 1.98 M4.9 340.81 C116.63 214.56, 230.33 86.53, 299.47 1.94 M4.9 340.81 C108.28 220.98, 212.45 99.43, 299.47 1.94 M5.03 352.85 C117.97 225.63, 229.47 97.58, 310.1 1.91 M5.03 352.85 C104.05 243.28, 198.72 134.53, 310.1 1.91 M4.51 365.65 C117.88 238.37, 229.05 109.66, 320.73 1.88 M4.51 365.65 C108.66 241.89, 214.65 118.84, 320.73 1.88 M2.67 379.95 C73.02 297.88, 145.96 216.14, 331.36 1.84 M2.67 379.95 C102.6 270.32, 198.34 159.09, 331.36 1.84 M4.77 389.73 C125.85 253.51, 242.81 113.93, 341.99 1.81 M4.77 389.73 C124.66 256.04, 243.28 120.58, 341.99 1.81 M6.87 399.5 C135.16 250.72, 263.42 102.64, 352.62 1.77 M6.87 399.5 C81.62 310.87, 156.77 222.53, 352.62 1.77 M12.26 405.51 C117.33 283.16, 223.05 165.85, 362.59 2.49 M12.26 405.51 C133.56 267.91, 250.93 131.64, 362.59 2.49 M18.29 410.76 C97.86 321.12, 175.04 229.97, 373.22 2.46 M18.29 410.76 C125.83 283.89, 235 157.25, 373.22 2.46 M27.61 412.23 C150.79 272.22, 273.11 128.77, 383.85 2.42 M27.61 412.23 C118.24 302.81, 212.85 194.51, 383.85 2.42 M38.24 412.2 C123.99 311.1, 211.9 214.06, 394.48 2.39 M38.24 412.2 C162.04 275.32, 282.33 135.79, 394.48 2.39 M48.87 412.16 C138.28 315.33, 221.15 215.82, 405.11 2.35 M48.87 412.16 C122.39 327.47, 197.99 239.41, 405.11 2.35 M59.5 412.13 C176.43 278.61, 293.44 143.33, 415.74 2.32 M59.5 412.13 C191.71 257.59, 324.2 106.43, 415.74 2.32 M70.13 412.09 C195.94 267.4, 321.97 123.32, 426.37 2.29 M70.13 412.09 C167 296.97, 266.02 183.13, 426.37 2.29 M80.76 412.06 C182.68 296.42, 281.71 180.4, 437 2.25 M80.76 412.06 C158.38 322.72, 236.08 235.18, 437 2.25 M91.39 412.02 C174.76 315.88, 257.91 220.11, 447.63 2.22 M91.39 412.02 C186.55 300.81, 283.76 189.04, 447.63 2.22 M102.02 411.99 C215.39 283.32, 326.45 153.54, 458.26 2.18 M102.02 411.99 C230.51 260.27, 360.04 111.5, 458.26 2.18 M112 412.71 C207.83 298.16, 306.33 188.36, 468.89 2.15 M112 412.71 C197.13 317.18, 278.37 223.67, 468.89 2.15 M122.63 412.68 C239.8 273.63, 363.81 134.8, 479.52 2.11 M122.63 412.68 C214.94 304.85, 309.99 196.5, 479.52 2.11 M133.26 412.64 C221.72 312.4, 306.38 211.69, 490.15 2.08 M133.26 412.64 C237.47 290.15, 343.79 167.4, 490.15 2.08 M143.89 412.61 C247.13 294.21, 349.11 179.23, 500.78 2.04 M143.89 412.61 C231.52 314.94, 317.64 216.05, 500.78 2.04 M154.52 412.57 C281.77 268.37, 406.9 124.91, 511.41 2.01 M154.52 412.57 C240.86 312.68, 328.83 211.35, 511.41 2.01 M165.15 412.54 C304.94 257.7, 441.34 99.67, 522.04 1.98 M165.15 412.54 C298.02 258.99, 433.12 102.6, 522.04 1.98 M175.78 412.5 C310.29 258.53, 443.77 104.05, 532.67 1.94 M175.78 412.5 C301.62 265.96, 428.92 119.85, 532.67 1.94 M186.41 412.47 C281.86 303.74, 380.23 191.4, 543.3 1.91 M186.41 412.47 C266.56 319.43, 348.52 225.21, 543.3 1.91 M197.04 412.43 C318.1 271.11, 443.77 127.04, 553.93 1.87 M197.04 412.43 C317.36 276.77, 434.39 142.56, 553.93 1.87 M207.67 412.4 C316 286.25, 425.16 162.94, 564.56 1.84 M207.67 412.4 C323.03 278.21, 437.69 147.8, 564.56 1.84 M218.3 412.36 C305.52 309, 399.16 206.41, 574.54 2.56 M218.3 412.36 C355.93 257.71, 489.74 101.68, 574.54 2.56 M228.93 412.33 C310.02 319.3, 392.61 225.5, 585.17 2.52 M228.93 412.33 C314.83 314.88, 397.73 217.01, 585.17 2.52 M239.56 412.3 C361.58 269.23, 484.2 128.88, 595.8 2.49 M239.56 412.3 C362.26 269.38, 483.49 128.91, 595.8 2.49 M250.19 412.26 C361.74 281.18, 473.39 151.12, 606.43 2.45 M250.19 412.26 C368.7 274.87, 486.87 138.34, 606.43 2.45 M260.82 412.23 C340.88 318.14, 422.81 223.17, 617.06 2.42 M260.82 412.23 C394.26 260.41, 527.51 107.09, 617.06 2.42 M271.45 412.19 C356.52 315.4, 441.52 216.48, 627.69 2.38 M271.45 412.19 C353.95 315.72, 438.98 219.7, 627.69 2.38 M282.08 412.16 C413.24 263.65, 541.6 113.44, 638.32 2.35 M282.08 412.16 C365.28 311.55, 450.96 213.05, 638.32 2.35 M292.71 412.12 C429.07 257.27, 560.72 105.36, 648.95 2.32 M292.71 412.12 C408.62 274.67, 528.15 139.26, 648.95 2.32 M303.34 412.09 C440.06 259.88, 572.33 107.94, 659.58 2.28 M303.34 412.09 C383.34 318.71, 466.3 224.01, 659.58 2.28 M313.97 412.05 C421.13 286.73, 529.89 160.41, 670.21 2.25 M313.97 412.05 C417.38 295.47, 518.45 179.23, 670.21 2.25 M323.94 412.77 C441.85 278.64, 563.58 140.76, 680.84 2.21 M323.94 412.77 C407.98 313.95, 494.51 213.62, 680.84 2.21 M334.57 412.74 C452.89 271.67, 573.21 133.92, 691.47 2.18 M334.57 412.74 C443.77 286.83, 554.69 159.25, 691.47 2.18 M345.2 412.71 C446.27 293.3, 549.74 177.63, 702.1 2.14 M345.2 412.71 C450.85 287.94, 559.18 163.85, 702.1 2.14 M355.83 412.67 C488.53 263.1, 619.23 112.36, 712.73 2.11 M355.83 412.67 C462.96 285.23, 573.72 157.91, 712.73 2.11 M366.46 412.64 C480.49 278.22, 593.31 143.89, 723.36 2.07 M366.46 412.64 C454.97 312.85, 543.66 211.51, 723.36 2.07 M377.09 412.6 C520.17 246.85, 661.14 84.08, 733.99 2.04 M377.09 412.6 C495.51 275.07, 614.41 137.61, 733.99 2.04 M387.72 412.57 C493.78 288.57, 599.4 167.01, 744.62 2.01 M387.72 412.57 C472.77 316.55, 554.96 222.63, 744.62 2.01 M398.35 412.53 C490.35 307.87, 587.31 198.92, 755.25 1.97 M398.35 412.53 C509.51 281.33, 621.51 153.27, 755.25 1.97 M408.98 412.5 C520.17 285.58, 631.48 157.85, 765.88 1.94 M408.98 412.5 C487.96 319.67, 568.98 226.71, 765.88 1.94 M419.61 412.46 C523.17 294.36, 620.95 179.9, 776.51 1.9 M419.61 412.46 C542.75 270.86, 664 130.3, 776.51 1.9 M430.24 412.43 C518.7 310.13, 608.26 212.14, 786.48 2.62 M430.24 412.43 C542.91 277.35, 658.2 145.03, 786.48 2.62 M440.87 412.39 C575.58 251.24, 713.84 91.21, 797.11 2.59 M440.87 412.39 C576.61 255.36, 711.17 98.92, 797.11 2.59 M451.5 412.36 C527.17 321.81, 604.5 230.72, 807.74 2.55 M451.5 412.36 C530.79 315.61, 612.85 223.37, 807.74 2.55 M462.13 412.33 C540.53 319.78, 622.39 227.61, 818.37 2.52 M462.13 412.33 C585.04 268.04, 711.93 122.27, 818.37 2.52 M472.76 412.29 C585.86 283.94, 698.57 154.55, 829 2.48 M472.76 412.29 C600.34 259.95, 730.16 110.74, 829 2.48 M483.39 412.26 C571.22 314.54, 657.66 213.1, 839.63 2.45 M483.39 412.26 C575.97 304.49, 667.23 197.92, 839.63 2.45 M494.02 412.22 C593.01 302.16, 689.96 193.32, 850.26 2.42 M494.02 412.22 C629.68 258.03, 763.98 104.18, 850.26 2.42 M504.65 412.19 C574.82 330.57, 648.7 247.68, 860.89 2.38 M504.65 412.19 C599.5 308.68, 690.75 203.47, 860.89 2.38 M515.28 412.15 C657.04 252.06, 797.4 90.85, 871.52 2.35 M515.28 412.15 C592.46 326.99, 668.34 239, 871.52 2.35 M525.91 412.12 C622.29 309.05, 715.18 199.89, 882.15 2.31 M525.91 412.12 C662.6 255.78, 798.96 100.93, 882.15 2.31 M536.54 412.08 C624.82 314.28, 711.3 215.39, 892.78 2.28 M536.54 412.08 C627.21 306.31, 719.93 199.11, 892.78 2.28 M546.52 412.8 C651.27 290.7, 756.4 169.38, 903.41 2.24 M546.52 412.8 C622.65 322.7, 701.08 231.65, 903.41 2.24 M557.15 412.77 C672.39 281.71, 787.04 150.68, 914.04 2.21 M557.15 412.77 C632.55 325.89, 707.24 240.46, 914.04 2.21 M567.78 412.74 C709.72 248.33, 853.06 86.49, 924.67 2.17 M567.78 412.74 C655.23 315.75, 742.23 215.11, 924.67 2.17 M578.41 412.7 C657.23 324.62, 732.33 237.52, 935.3 2.14 M578.41 412.7 C705.48 260.7, 834.7 110.35, 935.3 2.14 M589.04 412.67 C707.56 273.44, 828.93 134.81, 945.93 2.1 M589.04 412.67 C689.37 295.11, 790.77 179.09, 945.93 2.1 M599.67 412.63 C684.47 319.63, 767.71 220.37, 956.56 2.07 M599.67 412.63 C726.43 268.77, 853 122.41, 956.56 2.07 M610.3 412.6 C726.06 276.03, 844.45 141.98, 967.19 2.04 M610.3 412.6 C694.38 316.96, 778.67 222.07, 967.19 2.04 M620.93 412.56 C760.03 253.14, 899.48 93.3, 977.82 2 M620.93 412.56 C700.43 319.77, 782.59 226.45, 977.82 2 M631.56 412.53 C722.96 306.69, 817.1 198.59, 988.45 1.97 M631.56 412.53 C759.2 264.8, 889.78 116.31, 988.45 1.97 M642.19 412.49 C720.21 325.92, 797.67 235.89, 999.08 1.93 M642.19 412.49 C765.93 269.77, 888.51 128.83, 999.08 1.93 M652.82 412.46 C742 305.27, 834.73 198.55, 1009.06 2.65 M652.82 412.46 C727.03 326.89, 800.12 243.45, 1009.06 2.65 M663.45 412.43 C775.3 283.42, 890.81 150.39, 1019.69 2.62 M663.45 412.43 C763.61 297.96, 862.89 184.25, 1019.69 2.62 M674.08 412.39 C795.13 270.24, 918.56 130.93, 1030.32 2.58 M674.08 412.39 C762.22 307.92, 852.05 204.43, 1030.32 2.58 M684.71 412.36 C778.58 304.3, 870.38 195.31, 1040.95 2.55 M684.71 412.36 C802.85 275.61, 920.99 141.65, 1040.95 2.55 M695.34 412.32 C814.27 279.79, 932.06 146.23, 1051.58 2.51 M695.34 412.32 C797.75 299.5, 895.87 185.56, 1051.58 2.51 M705.97 412.29 C797.54 306, 889.65 201.17, 1062.21 2.48 M705.97 412.29 C781.02 329.88, 855.75 244.36, 1062.21 2.48 M716.6 412.25 C845.05 260.75, 972.61 113.24, 1072.84 2.45 M716.6 412.25 C790.66 322.21, 868.54 235.33, 1072.84 2.45 M727.23 412.22 C834.53 288.97, 941.86 166.97, 1083.47 2.41 M727.23 412.22 C848.67 267.2, 973.37 124.41, 1083.47 2.41 M737.86 412.18 C876.73 255.85, 1013.57 97.79, 1094.1 2.38 M737.86 412.18 C831.77 302.91, 926 194.61, 1094.1 2.38 M748.49 412.15 C821.12 327.45, 893.17 245.38, 1104.73 2.34 M748.49 412.15 C891.96 251.24, 1031.59 89.06, 1104.73 2.34 M758.46 412.87 C846.07 313.63, 937.53 211.55, 1115.36 2.31 M758.46 412.87 C901.05 250.71, 1041.45 90.02, 1115.36 2.31 M769.09 412.84 C898.57 262.94, 1028.82 110.62, 1125.99 2.27 M769.09 412.84 C879.21 285.56, 991.11 157.28, 1125.99 2.27 M779.72 412.8 C854.94 324.24, 931.34 237.25, 1136.62 2.24 M779.72 412.8 C861.96 312.61, 946.94 214.28, 1136.62 2.24 M790.35 412.77 C876.74 311.87, 966.97 207.75, 1147.25 2.2 M790.35 412.77 C889.84 295.2, 988.9 180.01, 1147.25 2.2 M800.98 412.73 C887.42 309.8, 974.14 211.03, 1157.88 2.17 M800.98 412.73 C875.17 328.94, 947.29 246.24, 1157.88 2.17 M811.61 412.7 C903.48 306.08, 994 202.74, 1168.51 2.14 M811.61 412.7 C882.31 327.87, 954.78 244.83, 1168.51 2.14 M822.24 412.66 C932.82 280.22, 1047.28 149.97, 1179.14 2.1 M822.24 412.66 C952.96 268.41, 1079.59 122.33, 1179.14 2.1 M832.87 412.63 C917.18 313.14, 1003.53 209.68, 1189.77 2.07 M832.87 412.63 C973.9 252.79, 1112.89 93.49, 1189.77 2.07 M843.5 412.59 C951.41 281.09, 1064.53 153.42, 1200.4 2.03 M843.5 412.59 C963.23 273.33, 1083.25 135.53, 1200.4 2.03 M854.13 412.56 C943.37 309.43, 1030.29 208.29, 1211.03 2 M854.13 412.56 C957.68 297.06, 1058.84 182.03, 1211.03 2 M864.76 412.52 C982.83 279.02, 1100.2 146.29, 1221 2.72 M864.76 412.52 C951.2 310.46, 1039.63 210.38, 1221 2.72 M875.39 412.49 C1001.56 268.7, 1124.15 125.76, 1231.63 2.68 M875.39 412.49 C990.92 277.59, 1105.29 145.76, 1231.63 2.68 M886.02 412.46 C1012.05 264.14, 1139.25 122.95, 1242.26 2.65 M886.02 412.46 C1014.31 267.63, 1141.93 120.64, 1242.26 2.65 M896.65 412.42 C1030.02 254.11, 1165.61 98.97, 1252.89 2.61 M896.65 412.42 C1000.04 295.17, 1101.78 177.42, 1252.89 2.61 M907.28 412.39 C1048.09 248, 1190.46 86.31, 1263.52 2.58 M907.28 412.39 C981.13 328.55, 1055.62 243.78, 1263.52 2.58 M917.91 412.35 C1006.51 308.68, 1095.53 204.74, 1274.15 2.54 M917.91 412.35 C1039.66 268.68, 1164.24 125.82, 1274.15 2.54 M928.54 412.32 C1061.29 259.7, 1195.27 106.34, 1284.78 2.51 M928.54 412.32 C1038.26 283.57, 1148.53 158.08, 1284.78 2.51 M939.17 412.28 C1008.3 328.28, 1079.54 244.33, 1295.41 2.48 M939.17 412.28 C1019.48 318.93, 1099.42 228.58, 1295.41 2.48 M949.8 412.25 C1026.94 323.04, 1103.71 237.31, 1306.04 2.44 M949.8 412.25 C1028.04 321.3, 1109.95 227.57, 1306.04 2.44 M960.43 412.21 C1087.93 263.66, 1215.07 118.5, 1316.67 2.41 M960.43 412.21 C1041.01 324.2, 1118.96 233.05, 1316.67 2.41 M970.41 412.93 C1088.23 277.99, 1205.97 140.56, 1327.3 2.37 M970.41 412.93 C1082.08 288.02, 1191.56 162.94, 1327.3 2.37 M981.04 412.9 C1115.28 260.38, 1254.02 103, 1337.94 2.34 M981.04 412.9 C1113.37 256.76, 1247.64 101.36, 1337.94 2.34 M991.67 412.87 C1122.74 258.88, 1257.44 105.87, 1348.57 2.3 M991.67 412.87 C1116.93 267.55, 1242.37 122.19, 1348.57 2.3 M1002.3 412.83 C1075.59 325.58, 1149 242.47, 1359.2 2.27 M1002.3 412.83 C1125.21 266.85, 1250.59 122.19, 1359.2 2.27 M1012.93 412.8 C1113.62 291.81, 1217.22 174.51, 1369.83 2.23 M1012.93 412.8 C1131.99 269.65, 1253.9 128.59, 1369.83 2.23 M1023.56 412.76 C1137.16 284.3, 1252.41 152.74, 1380.46 2.2 M1023.56 412.76 C1133.95 284.73, 1244.74 156.61, 1380.46 2.2 M1034.19 412.73 C1114.14 324.93, 1192.54 236.65, 1391.09 2.17 M1034.19 412.73 C1147.2 283.69, 1260.07 153.21, 1391.09 2.17 M1044.82 412.69 C1138.71 305.69, 1232.16 196.01, 1401.72 2.13 M1044.82 412.69 C1133.82 310.04, 1222.86 209.08, 1401.72 2.13 M1055.45 412.66 C1135.55 316.69, 1219.79 220.17, 1412.35 2.1 M1055.45 412.66 C1157.94 295.45, 1259.71 178.99, 1412.35 2.1 M1066.08 412.62 C1190.78 271.66, 1312.01 128.92, 1422.98 2.06 M1066.08 412.62 C1159.76 303.61, 1251.82 197.53, 1422.98 2.06 M1076.71 412.59 C1216.62 251.58, 1356.51 88.1, 1432.95 2.78 M1076.71 412.59 C1190.94 282.6, 1304.76 152.2, 1432.95 2.78 M1087.34 412.55 C1196.73 283.53, 1309.25 152.78, 1443.58 2.75 M1087.34 412.55 C1186.16 298.02, 1284.95 185.72, 1443.58 2.75 M1097.97 412.52 C1199.03 299.03, 1298.79 182.32, 1454.21 2.71 M1097.97 412.52 C1190.79 302.15, 1287 192.1, 1454.21 2.71 M1108.6 412.49 C1215.84 292.17, 1323.04 170, 1464.84 2.68 M1108.6 412.49 C1225.29 275.05, 1342.55 139.92, 1464.84 2.68 M1119.23 412.45 C1220.39 295.22, 1320.37 180.12, 1475.47 2.64 M1119.23 412.45 C1207.47 312.53, 1293.06 214.1, 1475.47 2.64 M1129.86 412.42 C1226.27 301.63, 1320.82 191.28, 1486.1 2.61 M1129.86 412.42 C1233.6 296.71, 1335.87 180.92, 1486.1 2.61 M1140.49 412.38 C1247 290.91, 1349.26 174.11, 1496.73 2.58 M1140.49 412.38 C1251.94 285.46, 1365.04 157.29, 1496.73 2.58 M1151.12 412.35 C1280.42 262.8, 1407.92 114.84, 1507.36 2.54 M1151.12 412.35 C1264.7 284.51, 1374.92 157.65, 1507.36 2.54 M1161.75 412.31 C1301.7 248.23, 1444.87 85.52, 1517.99 2.51 M1161.75 412.31 C1247.01 317.24, 1329.91 220.57, 1517.99 2.51 M1172.38 412.28 C1301.94 260.19, 1433.39 108.73, 1528.62 2.47 M1172.38 412.28 C1310.39 249.38, 1451.92 86.99, 1528.62 2.47 M1183.01 412.24 C1261.92 320.61, 1340.27 230.95, 1539.25 2.44 M1183.01 412.24 C1294.97 285.69, 1407.01 157.1, 1539.25 2.44 M1192.98 412.96 C1274.71 317.78, 1360.54 221.24, 1549.88 2.4 M1192.98 412.96 C1281.38 304.32, 1373.85 199.15, 1549.88 2.4 M1203.61 412.93 C1333.29 263.95, 1463.14 115.41, 1560.51 2.37 M1203.61 412.93 C1321.83 279.78, 1438.18 143.3, 1560.51 2.37 M1214.24 412.9 C1350.35 260.3, 1483.91 110.2, 1571.14 2.33 M1214.24 412.9 C1291.55 326.34, 1366.58 239.69, 1571.14 2.33 M1224.87 412.86 C1353.77 264.18, 1484.56 115.16, 1581.77 2.3 M1224.87 412.86 C1308.29 315.35, 1391.2 219.97, 1581.77 2.3 M1235.51 412.83 C1353.93 272.82, 1475.62 131.54, 1592.4 2.26 M1235.51 412.83 C1346.77 284.04, 1457.08 158.06, 1592.4 2.26 M1246.14 412.79 C1362.14 273.25, 1481.61 134.55, 1603.03 2.23 M1246.14 412.79 C1331.56 318.37, 1413.18 223.17, 1603.03 2.23 M1256.77 412.76 C1387.78 264.39, 1517.21 116.96, 1613.66 2.2 M1256.77 412.76 C1326.22 327.07, 1397.16 244.26, 1613.66 2.2 M1267.4 412.72 C1388.53 273.8, 1506.5 136.27, 1624.29 2.16 M1267.4 412.72 C1376.71 288.02, 1486.63 161.57, 1624.29 2.16 M1278.03 412.69 C1358.73 319.8, 1437.7 225.85, 1634.92 2.13 M1278.03 412.69 C1372.42 303.5, 1470.32 192.65, 1634.92 2.13 M1288.66 412.65 C1432.01 250.73, 1574.37 87.63, 1645.55 2.09 M1288.66 412.65 C1400.56 283.25, 1513.16 155.39, 1645.55 2.09 M1299.29 412.62 C1427.31 262.51, 1555.15 114.48, 1655.53 2.81 M1299.29 412.62 C1412.72 285.31, 1523.46 156.61, 1655.53 2.81 M1309.92 412.59 C1410.43 295.46, 1512.28 178.65, 1666.16 2.78 M1309.92 412.59 C1401.4 304.5, 1494.98 198.23, 1666.16 2.78 M1320.55 412.55 C1452.38 260.15, 1583.65 111.41, 1676.79 2.74 M1320.55 412.55 C1403.05 313.81, 1486.98 218.38, 1676.79 2.74 M1331.18 412.52 C1458.09 270.03, 1581.95 128.63, 1687.42 2.71 M1331.18 412.52 C1416.37 314.65, 1500.45 218.38, 1687.42 2.71 M1341.81 412.48 C1448.6 289.04, 1553.47 169.13, 1698.05 2.67 M1341.81 412.48 C1473.21 264.73, 1604.78 113.51, 1698.05 2.67 M1352.44 412.45 C1449.41 302.46, 1545.04 190.67, 1708.68 2.64 M1352.44 412.45 C1455.68 294.9, 1556.7 178.61, 1708.68 2.64 M1363.07 412.41 C1491.75 261.04, 1622.74 113.19, 1719.31 2.61 M1363.07 412.41 C1487.71 270.07, 1613.6 123.46, 1719.31 2.61 M1373.7 412.38 C1487.55 276.11, 1606.31 139.02, 1729.94 2.57 M1373.7 412.38 C1488.42 280.26, 1602.2 148.45, 1729.94 2.57 M1384.33 412.34 C1467.31 318.18, 1547.76 223.91, 1740.57 2.54 M1384.33 412.34 C1475.93 307, 1569.66 199.46, 1740.57 2.54 M1394.96 412.31 C1500.69 289.1, 1608.24 166.8, 1751.2 2.5 M1394.96 412.31 C1480.4 316, 1564.9 218.4, 1751.2 2.5 M1404.93 413.03 C1528.59 273.18, 1649.23 134.32, 1761.83 2.47 M1404.93 413.03 C1500.83 300.59, 1596.3 191.23, 1761.83 2.47 M1415.56 412.99 C1554.48 253.76, 1693.07 93.89, 1772.46 2.43 M1415.56 412.99 C1554.58 254.43, 1689.76 97.8, 1772.46 2.43 M1426.19 412.96 C1552.24 265.82, 1681.34 118.17, 1783.09 2.4 M1426.19 412.96 C1556.72 259.51, 1688.63 106.36, 1783.09 2.4 M1436.82 412.93 C1540.88 296.96, 1644.42 179.01, 1793.72 2.36 M1436.82 412.93 C1535.45 303.38, 1630.14 194.17, 1793.72 2.36 M1447.45 412.89 C1568.6 271.55, 1690.46 130.36, 1804.35 2.33 M1447.45 412.89 C1550.86 296.76, 1652.18 179.13, 1804.35 2.33 M1458.08 412.86 C1566.04 284.14, 1675.19 158.82, 1814.98 2.29 M1458.08 412.86 C1558.05 297.3, 1659.49 180.76, 1814.98 2.29 M1468.71 412.82 C1609.29 255.22, 1745.52 97.23, 1825.61 2.26 M1468.71 412.82 C1589.7 272, 1711.43 132.9, 1825.61 2.26 M1479.34 412.79 C1574.9 303.59, 1671.61 194.33, 1836.24 2.23 M1479.34 412.79 C1620.07 253.53, 1758.88 93.54, 1836.24 2.23 M1489.97 412.75 C1614.28 273.25, 1738.16 128.91, 1846.87 2.19 M1489.97 412.75 C1629.34 249.92, 1767.77 91.45, 1846.87 2.19 M1500.6 412.72 C1636.9 252.39, 1777.96 90.32, 1857.5 2.16 M1500.6 412.72 C1639.98 254.26, 1779.14 91.5, 1857.5 2.16 M1511.23 412.68 C1634.69 272.36, 1757.35 129.09, 1867.47 2.88 M1511.23 412.68 C1615.25 291.47, 1720.7 171.63, 1867.47 2.88 M1521.86 412.65 C1597.88 325.73, 1674.92 236.4, 1878.1 2.84 M1521.86 412.65 C1625.64 292.06, 1729.22 174.36, 1878.1 2.84 M1532.49 412.62 C1624.18 303.95, 1716.11 200.67, 1888.73 2.81 M1532.49 412.62 C1617.13 316.33, 1702.58 216.88, 1888.73 2.81 M1543.12 412.58 C1639.83 301.13, 1737.02 186.35, 1899.36 2.77 M1543.12 412.58 C1660.37 277.31, 1779.35 141.76, 1899.36 2.77 M1553.75 412.55 C1627.26 326.39, 1700.68 238.24, 1909.99 2.74 M1553.75 412.55 C1638.69 315.88, 1721.44 221.74, 1909.99 2.74 M1564.38 412.51 C1646.1 318, 1725.45 227.98, 1920.62 2.7 M1564.38 412.51 C1687.51 271.08, 1809.31 130.66, 1920.62 2.7 M1575.01 412.48 C1681.69 291.25, 1786.18 171.41, 1931.25 2.67 M1575.01 412.48 C1706.44 260.21, 1841.72 105.19, 1931.25 2.67 M1585.64 412.44 C1692.77 281.38, 1805.33 155.02, 1941.88 2.64 M1585.64 412.44 C1660.93 325.83, 1733.11 242, 1941.88 2.64 M1596.27 412.41 C1686.55 304.71, 1781.54 198.25, 1952.51 2.6 M1596.27 412.41 C1673.59 321.51, 1751.34 232.31, 1952.51 2.6 M1606.9 412.37 C1717.27 284.41, 1828.53 159.73, 1963.14 2.57 M1606.9 412.37 C1741.75 253.4, 1878.53 97.66, 1963.14 2.57 M1616.88 413.09 C1688.89 330.49, 1762.42 245.98, 1973.77 2.53 M1616.88 413.09 C1687.43 330.34, 1760.37 246.15, 1973.77 2.53 M1627.51 413.06 C1761.35 256.47, 1897.66 102.46, 1984.4 2.5 M1627.51 413.06 C1765.81 248.89, 1906.02 88.34, 1984.4 2.5 M1638.14 413.03 C1744.67 288.03, 1853.72 160.61, 1995.03 2.46 M1638.14 413.03 C1710.23 330.54, 1783.85 244.35, 1995.03 2.46 M1648.77 412.99 C1726.03 325.87, 1802.33 241.15, 2005.66 2.43 M1648.77 412.99 C1762.7 277.77, 1880.18 142.44, 2005.66 2.43 M1659.4 412.96 C1754.79 298.61, 1852.3 189.83, 2014.98 3.9 M1659.4 412.96 C1735.05 326.82, 1810.67 239.21, 2014.98 3.9 M1670.03 412.92 C1770.71 291.88, 1872.74 176.06, 2022.99 6.89 M1670.03 412.92 C1792.67 273.04, 1916.17 132.45, 2022.99 6.89 M1680.66 412.89 C1783.17 300.95, 1881.69 185.11, 2030.99 9.87 M1680.66 412.89 C1756.09 323.84, 1832.91 235.33, 2030.99 9.87 M1691.29 412.85 C1761.91 330.57, 1833.28 251.22, 2034.41 18.14 M1691.29 412.85 C1817.53 266.59, 1944.11 119.27, 2034.41 18.14 M1701.92 412.82 C1800.99 299.64, 1895.41 189.38, 2035.85 28.67 M1701.92 412.82 C1817.57 278.78, 1936.45 141.94, 2035.85 28.67 M1712.55 412.78 C1831.19 275.99, 1950.06 136.74, 2040.58 35.43 M1712.55 412.78 C1844.23 260.05, 1974.91 110.12, 2040.58 35.43 M1723.18 412.75 C1809.5 314.76, 1894.96 216.77, 2040.71 47.47 M1723.18 412.75 C1838.97 283.13, 1951.75 153.76, 2040.71 47.47 M1733.81 412.71 C1817.07 311.92, 1903.8 212.78, 2040.19 60.27 M1733.81 412.71 C1849.32 277.52, 1965.48 143.87, 2040.19 60.27 M1744.44 412.68 C1856.45 282.35, 1968.73 153.81, 2040.32 72.31 M1744.44 412.68 C1826.18 319.32, 1905.55 226.73, 2040.32 72.31 M1755.07 412.65 C1830.96 321.43, 1904.58 235.26, 2040.45 84.35 M1755.07 412.65 C1851.52 299.44, 1950.5 185.81, 2040.45 84.35 M1765.7 412.61 C1828.4 341.45, 1892.45 268.33, 2040.59 96.39 M1765.7 412.61 C1873.11 289.19, 1978.15 169.07, 2040.59 96.39 M1776.33 412.58 C1869.5 306.22, 1965 193.86, 2040.06 109.18 M1776.33 412.58 C1854.15 325.52, 1931.6 237.01, 2040.06 109.18 M1786.96 412.54 C1886.42 300.7, 1983.5 185.24, 2040.2 121.22 M1786.96 412.54 C1856.78 332.07, 1926.12 251.34, 2040.2 121.22 M1797.59 412.51 C1890.06 305.05, 1983.19 200.12, 2040.33 133.27 M1797.59 412.51 C1864.65 338.77, 1931.31 262.12, 2040.33 133.27 M1808.22 412.47 C1871.59 336.67, 1941.87 261.15, 2040.46 145.31 M1808.22 412.47 C1886.5 320.93, 1969.24 228.12, 2040.46 145.31 M1818.85 412.44 C1877.59 340.64, 1939.19 270.29, 2039.94 158.1 M1818.85 412.44 C1892.14 332.28, 1962.12 249.35, 2039.94 158.1 M1828.82 413.16 C1895.03 342.89, 1959.89 270.8, 2040.07 170.14 M1828.82 413.16 C1901.91 333.31, 1972.74 251.24, 2040.07 170.14 M1839.45 413.12 C1915.29 320.84, 1996.43 226.11, 2040.21 182.18 M1839.45 413.12 C1908.45 335.18, 1976.48 258.29, 2040.21 182.18 M1850.08 413.09 C1904.87 349.16, 1957.55 288.91, 2040.34 194.22 M1850.08 413.09 C1921.67 332.73, 1993.67 247.54, 2040.34 194.22 M1860.71 413.06 C1899.62 368.45, 1936.6 323.92, 2040.47 206.27 M1860.71 413.06 C1929.21 336.85, 1993.53 260.77, 2040.47 206.27 M1871.34 413.02 C1908.45 367.96, 1939.53 332.46, 2039.95 219.06 M1871.34 413.02 C1924.3 348.82, 1980.5 283.31, 2039.95 219.06 M1881.97 412.99 C1939.74 344.31, 1992.75 284.27, 2040.08 231.1 M1881.97 412.99 C1940.89 348.83, 1997.1 283.69, 2040.08 231.1 M1892.6 412.95 C1946.4 354.14, 1996.44 289.17, 2040.22 243.14 M1892.6 412.95 C1932.1 367.63, 1971.99 321.76, 2040.22 243.14 M1903.23 412.92 C1937.64 376.69, 1973.04 341.36, 2040.35 255.18 M1903.23 412.92 C1956.47 351.78, 2011.3 290.34, 2040.35 255.18 M1913.86 412.88 C1957.55 361.99, 2003.37 309.04, 2039.83 267.98 M1913.86 412.88 C1961.25 356.07, 2010.8 298.24, 2039.83 267.98 M1924.49 412.85 C1949.48 380.85, 1976.99 352.8, 2039.96 280.02 M1924.49 412.85 C1955.79 383.35, 1980.48 349.64, 2039.96 280.02 M1935.12 412.81 C1957.56 386.09, 1986.8 355.13, 2040.09 292.06 M1935.12 412.81 C1966.21 378.07, 2000.77 341.61, 2040.09 292.06 M1945.75 412.78 C1982.07 369.05, 2024.14 326.65, 2040.23 304.1 M1945.75 412.78 C1967.78 388.09, 1987.19 364.02, 2040.23 304.1 M1956.38 412.75 C1978.51 389.41, 1996.7 362.12, 2039.7 316.9 M1956.38 412.75 C1979.9 380.71, 2007.1 347.33, 2039.7 316.9 M1967.01 412.71 C1986.09 391.37, 2006.45 366.31, 2039.84 328.94 M1967.01 412.71 C1995.99 381.39, 2019.02 349.26, 2039.84 328.94 M1977.64 412.68 C1992.41 392.94, 2009.28 367.57, 2039.97 340.98 M1977.64 412.68 C1992.54 396, 2004.2 381.48, 2039.97 340.98 M1988.27 412.64 C2002.49 396.82, 2014.43 383.53, 2040.1 353.02 M1988.27 412.64 C1998.23 398.49, 2011.13 386.66, 2040.1 353.02 M1998.9 412.61 C2017.28 396.77, 2032.35 376.25, 2040.24 365.06 M1998.9 412.61 C2006.9 400.88, 2016.25 391.35, 2040.24 365.06 M2008.22 414.08 C2014 408, 2027.61 391.47, 2039.71 377.86 M2008.22 414.08 C2021.23 400.02, 2031.84 384.3, 2039.71 377.86" stroke="#f8f9fa" stroke-width="1" fill="none"></path><path d="M32 0 M32 0 C582.78 12.99, 1136.28 13.3, 2004.25 0 M32 0 C457.47 -9.95, 884.55 -9.95, 2004.25 0 M2004.25 0 C2028.77 -1.29, 2032.66 14.64, 2036.25 32 M2004.25 0 C2024.71 -2.38, 2036.39 11.22, 2036.25 32 M2036.25 32 C2034.71 130.3, 2035.03 227.68, 2036.25 378.2 M2036.25 32 C2036.53 121.22, 2035.04 211.89, 2036.25 378.2 M2036.25 378.2 C2038.21 403.03, 2022.58 411.71, 2004.25 410.2 M2036.25 378.2 C2036.22 395.41, 2022.21 407.12, 2004.25 410.2 M2004.25 410.2 C1254.72 399.83, 502.28 400.35, 32 410.2 M2004.25 410.2 C1516.26 398.82, 1026.4 398.93, 32 410.2 M32 410.2 C14.46 411.65, 2.37 401.45, 0 378.2 M32 410.2 C10.64 406.79, -3.6 398.12, 0 378.2 M0 378.2 C1.71 245.59, 4.11 117.32, 0 32 M0 378.2 C3.52 270.33, 3.4 165.9, 0 32 M0 32 C2.25 8.58, 9.52 1.22, 32 0 M0 32 C2.8 6.5, 10.33 -0.19, 32 0" stroke="#1e1e1e" stroke-width="2" fill="none"></path></g><g stroke-linecap="round" transform="translate(242.9855973935728 776.5127018100976) rotate(0 381.5 100)"><path d="M31.24 -0.84 L732.42 -1.06 L745.67 1.09 L751.48 7.31 L761.83 27.59 L761.12 168.31 L764.51 183.91 L749.81 194.01 L732.82 203 L35.28 201.2 L17.18 200.48 L8.13 185.87 L-2.7 172.68 L-3.27 23.17 L4.24 4.6 L17.29 3.44 L35.35 2.94" stroke="none" stroke-width="0" fill="#ffc9c9"></path><path d="M32 0 M32 0 C264.19 -1.57, 496.03 -1.39, 731 0 M32 0 C250.74 -2.7, 469.7 -2.95, 731 0 M731 0 C752.85 -2.71, 765.18 12.52, 763 32 M731 0 C748.57 -1, 767.16 6.45, 763 32 M763 32 C765.34 68.29, 766.68 105, 763 168 M763 32 C759.93 78.82, 760.22 123.28, 763 168 M763 168 C764.82 193.2, 756.04 196.29, 731 200 M763 168 C765.67 193.42, 751.13 199.97, 731 200 M731 200 C591.76 200.37, 451.35 201.59, 32 200 M731 200 C469.3 194.92, 206.34 194.95, 32 200 M32 200 C10.32 201.89, 2.82 185.69, 0 168 M32 200 C6.85 202.28, 0.84 191.42, 0 168 M0 168 C-4.74 137.59, -1.51 111.71, 0 32 M0 168 C3.7 133.89, 2.31 97.91, 0 32 M0 32 C-0.15 7.04, 7.92 0.61, 32 0 M0 32 C-2.84 11.14, 9.26 1.35, 32 0" stroke="#1e1e1e" stroke-width="2" fill="none"></path></g><g transform="translate(408.3625505185728 855.8127018100977) rotate(0 216.123046875 20.69999999999999)"><text x="216.123046875" y="0" font-family="Helvetica, Segoe UI Emoji" font-size="36px" fill="#1e1e1e" text-anchor="middle" style="white-space: pre;" direction="ltr" dominant-baseline="text-before-edge">Response Protocol Header</text></g><g stroke-linecap="round" transform="translate(1242.5868251322556 774.0088675740229) rotate(0 381.5 100)"><path d="M33.42 -1.06 L731.67 -0.91 L741.48 1.31 L754.33 11.09 L760.62 24.81 L766.51 169.91 L760.31 180.51 L752.32 198.5 L734.28 201.2 L31.18 202.48 L21.63 196.37 L1.3 184.68 L-3.27 174.17 L-3.26 21.1 L7.29 9.44 L21.35 4.94 L33.31 0.74" stroke="none" stroke-width="0" fill="#ffc9c9"></path><path d="M32 0 M32 0 C245.84 3.06, 462.08 3.97, 731 0 M32 0 C283.97 -4.61, 537.27 -5.63, 731 0 M731 0 C754.51 1.85, 759.73 9.8, 763 32 M731 0 C756.49 -4.22, 761.05 14.66, 763 32 M763 32 C764.31 74.55, 764.63 109.17, 763 168 M763 32 C759.25 72.57, 761.58 118.07, 763 168 M763 168 C766.7 185.62, 754.65 203.55, 731 200 M763 168 C761.79 189.3, 747.76 199.46, 731 200 M731 200 C513.5 199.78, 295.53 199.85, 32 200 M731 200 C587.8 202.12, 445.1 202.2, 32 200 M32 200 C13.49 196.35, -3.32 191.31, 0 168 M32 200 C11.5 202.08, -3.77 193.28, 0 168 M0 168 C2.46 129.94, -0.26 81.85, 0 32 M0 168 C-1.76 120.98, -1.47 75.01, 0 32 M0 32 C-2.75 11.27, 8.2 0.41, 32 0 M0 32 C-1.4 12.01, 8.91 -2.65, 32 0" stroke="#1e1e1e" stroke-width="2" fill="none"></path></g><g transform="translate(1425.9725673197556 853.308867574023) rotate(0 198.1142578125 20.69999999999999)"><text x="198.1142578125" y="0" font-family="Helvetica, Segoe UI Emoji" font-size="36px" fill="#1e1e1e" text-anchor="middle" style="white-space: pre;" direction="ltr" dominant-baseline="text-before-edge">Response Protocol Body</text></g><g transform="translate(127.98486446393815 106.16731510875877) rotate(0 138.076171875 20.69999999999999)"><text x="138.076171875" y="0" font-family="Helvetica, Segoe UI Emoji" font-size="36px" fill="#1e1e1e" text-anchor="middle" style="white-space: pre;" direction="ltr" dominant-baseline="text-before-edge">Request Protocol</text></g><g transform="translate(151.49946655060285 695.1789084721036) rotate(0 143.0859375 20.69999999999999)"><text x="143.0859375" y="0" font-family="Helvetica, Segoe UI Emoji" font-size="36px" fill="#1e1e1e" text-anchor="middle" style="white-space: pre;" direction="ltr" dominant-baseline="text-before-edge">Reponse Protocol</text></g></svg>