<svg version="1.1" xmlns="http://www.w3.org/2000/svg" viewBox="0 0 1640 840" width="1640" height="840">
  <!-- svg-source:excalidraw -->
  
  <defs>
    <style class="style-fonts">
      @font-face {
        font-family: "Virgil";
        src: url("https://excalidraw.com/Virgil.woff2");
      }
      @font-face {
        font-family: "Cascadia";
        src: url("https://excalidraw.com/Cascadia.woff2");
      }
    </style>
    
  </defs>
  <rect x="0" y="0" width="1640" height="840" fill="#ffffff"></rect><g stroke-linecap="round" transform="translate(10 10) rotate(0 810 410)"><path d="M30.34 0.77 L1586.16 -1.1 L1595.32 2.27 L1606.89 2.73 L1616.7 13.38 L1619.41 17.43 L1621.55 32.18 L1620.13 787.45 L1617.65 794.51 L1614.21 807.03 L1608.01 815.51 L1603.5 817.2 L1588.35 819.07 L32.09 818.24 L26.12 818.89 L11.78 814.24 L2.96 808.95 L1.1 801.07 L1.27 788.99 L0.77 31.86 L0.64 17.05 L8.76 6.06 L17.39 1.95 L32.74 0.85" stroke="none" stroke-width="0" fill="#fff"></path><path d="M32 0 M32 0 C385.77 -5.27, 739.74 -4.42, 1588 0 M32 0 C535.01 6.28, 1037.37 6.27, 1588 0 M1588 0 C1610.12 1.99, 1621.7 10.42, 1620 32 M1588 0 C1609.95 -0.32, 1620.13 10.74, 1620 32 M1620 32 C1622.33 256.65, 1622.46 480.84, 1620 788 M1620 32 C1619.38 183.16, 1619.18 335.35, 1620 788 M1620 788 C1620.76 809.92, 1609.72 818.31, 1588 820 M1620 788 C1621.31 811.61, 1611.05 822.04, 1588 820 M1588 820 C1138.76 824.81, 691.5 825.78, 32 820 M1588 820 C1228.79 822.27, 870.1 822.54, 32 820 M32 820 C11.58 819.83, 1.18 809.43, 0 788 M32 820 C9.81 822.09, -1.95 808.29, 0 788 M0 788 C-3.06 615.67, -3.55 442.98, 0 32 M0 788 C-2.86 538.49, -2.51 289.35, 0 32 M0 32 C-1.5 10.92, 12.6 1.5, 32 0 M0 32 C-1.17 11.52, 11.37 -2.3, 32 0" stroke="#1e1e1e" stroke-width="1" fill="none"></path></g><g stroke-linecap="round" transform="translate(510 110) rotate(0 550 330)"><path d="M31.17 0.27 L1067.48 1.13 L1074.94 0.54 L1087.78 3.11 L1093.7 10.96 L1099.88 18.7 L1100.11 31.28 L1099.28 628.53 L1098.52 636.02 L1097.2 648.02 L1087.52 655.97 L1080.57 656.36 L1069.41 659.72 L33.57 661.02 L25.21 658.63 L11.08 654.25 L5.15 649.35 L1.68 641.09 L-0.79 627.29 L-0.8 32.85 L1.54 19.17 L9.67 8.13 L18.06 3.48 L31.84 0.31" stroke="none" stroke-width="0" fill="#fff"></path><path d="M32 0 M32 0 C360.7 -1.74, 690.45 -1.68, 1068 0 M1068 0 C1090.61 0.89, 1099.04 12.11, 1100 32 M1100 32 C1100.67 188.28, 1099.89 344.47, 1100 628 M1100 628 C1100.05 647.95, 1087.88 660.97, 1068 660 M1068 660 C728.68 663.66, 387.96 663.64, 32 660 M32 660 C9.2 661.43, -1.69 648.45, 0 628 M0 628 C-1.5 493.5, -1.25 359.14, 0 32 M0 32 C-1.65 11.54, 11.84 -1.66, 32 0" stroke="#1e1e1e" stroke-width="1.5" fill="none" stroke-dasharray="8 9"></path></g><g stroke-linecap="round" transform="translate(50 70) rotate(0 100 60)"><path d="M97.19 0.62 C109.81 -0.29, 124.23 2.14, 136.86 5.14 C149.49 8.13, 163.32 12.94, 172.95 18.58 C182.58 24.22, 190.32 31.45, 194.65 38.98 C198.98 46.51, 199.88 55.57, 198.92 63.76 C197.96 71.95, 195.26 80.99, 188.9 88.15 C182.55 95.3, 171.74 101.75, 160.78 106.69 C149.83 111.63, 136.13 115.73, 123.17 117.76 C110.21 119.8, 96.18 120.38, 83.03 118.91 C69.88 117.44, 55.56 113.64, 44.25 108.95 C32.94 104.27, 22.36 97.47, 15.17 90.81 C7.97 84.14, 2.92 76.81, 1.08 68.96 C-0.76 61.12, 0.54 51.85, 4.14 43.75 C7.73 35.66, 14.02 26.84, 22.64 20.39 C31.25 13.95, 42.25 8.46, 55.82 5.08 C69.39 1.69, 94.75 0.73, 104.06 0.08 C113.38 -0.57, 111.7 0.01, 111.73 1.17 M107.95 0.8 C120.62 0.84, 134.64 4.74, 146.68 8.36 C158.71 11.99, 171.77 16.09, 180.17 22.55 C188.56 29.01, 193.82 39.25, 197.04 47.11 C200.27 54.97, 202.18 61.7, 199.52 69.71 C196.86 77.73, 188.81 88.25, 181.1 95.2 C173.4 102.15, 164.6 107.37, 153.3 111.42 C142 115.47, 126.72 118.5, 113.3 119.49 C99.87 120.48, 86 119.66, 72.75 117.37 C59.49 115.08, 44.5 110.97, 33.76 105.72 C23.02 100.48, 13.88 93.16, 8.32 85.9 C2.76 78.64, 0.48 70.45, 0.4 62.17 C0.32 53.89, 2.53 44.09, 7.84 36.23 C13.15 28.36, 22.41 20.7, 32.27 15 C42.12 9.3, 54.38 4.63, 66.97 2.04 C79.56 -0.55, 100.98 -0.65, 107.8 -0.54 C114.61 -0.43, 107.87 1.55, 107.88 2.68" stroke="none" stroke-width="0" fill="#868e96"></path><path d="M106.35 1.09 C119.48 0.89, 135.39 3.5, 147.42 7.12 C159.45 10.73, 170.21 16.44, 178.53 22.77 C186.85 29.09, 193.96 36.98, 197.33 45.08 C200.69 53.17, 201.09 63.26, 198.72 71.35 C196.34 79.44, 190.69 87.15, 183.09 93.63 C175.49 100.11, 164.8 105.8, 153.11 110.21 C141.42 114.63, 126.45 118.76, 112.96 120.13 C99.47 121.5, 84.97 120.75, 72.16 118.44 C59.36 116.13, 46.55 111.75, 36.12 106.26 C25.7 100.77, 15.74 92.84, 9.63 85.51 C3.51 78.19, -0.34 70.38, -0.57 62.34 C-0.8 54.3, 3.13 44.94, 8.26 37.28 C13.38 29.63, 20.63 22.07, 30.18 16.38 C39.73 10.7, 51.42 5.85, 65.58 3.19 C79.73 0.53, 105.64 0.37, 115.09 0.42 C124.54 0.47, 122.58 2.46, 122.28 3.49 M136.39 4.41 C149.05 6.06, 162.02 10.69, 171.45 16.23 C180.87 21.78, 188.27 29.7, 192.93 37.7 C197.59 45.71, 199.97 56.12, 199.42 64.28 C198.87 72.44, 195.57 79.69, 189.63 86.68 C183.69 93.66, 174.4 100.88, 163.78 106.17 C153.16 111.46, 139.16 116.18, 125.92 118.41 C112.68 120.64, 97.97 120.83, 84.34 119.55 C70.7 118.26, 55.49 115.37, 44.1 110.69 C32.71 106.02, 23.34 98.28, 16.01 91.49 C8.67 84.69, 2.11 77.94, 0.09 69.94 C-1.93 61.93, -0.04 51.24, 3.91 43.46 C7.85 35.67, 15.26 29.47, 23.77 23.25 C32.29 17.03, 43.11 10.18, 55.01 6.13 C66.91 2.09, 81.47 -0.46, 95.17 -1.02 C108.86 -1.58, 130.59 1.93, 137.19 2.78 C143.78 3.63, 135.38 3.16, 134.73 4.06" stroke="#1e1e1e" stroke-width="1" fill="none"></path></g><g transform="translate(103.76979063134513 109.37359312880744) rotate(0 46.01953125 20.700000000000045)"><text x="46.01953125" y="0" font-family="Helvetica, Segoe UI Emoji" font-size="36px" fill="#1e1e1e" text-anchor="middle" style="white-space: pre;" direction="ltr" dominant-baseline="text-before-edge">Client</text></g><g stroke-linecap="round" transform="translate(50 450) rotate(0 100 60)"><path d="M129.82 2.73 C142.82 3.86, 156.01 8.77, 165.99 13.97 C175.97 19.17, 183.91 26.47, 189.7 33.92 C195.48 41.36, 200.39 50.52, 200.71 58.63 C201.02 66.75, 197.08 75.17, 191.57 82.61 C186.06 90.05, 177.31 97.63, 167.62 103.28 C157.94 108.93, 146.07 113.89, 133.46 116.52 C120.84 119.16, 105.54 119.89, 91.94 119.08 C78.34 118.28, 63.78 115.38, 51.86 111.7 C39.95 108.02, 28.62 103.27, 20.44 97 C12.27 90.74, 6.08 82.29, 2.82 74.09 C-0.44 65.89, -1.56 56.01, 0.87 47.79 C3.29 39.57, 9.56 31.31, 17.36 24.79 C25.16 18.27, 36.07 12.8, 47.69 8.67 C59.3 4.53, 72.31 0.59, 87.03 -0.02 C101.74 -0.64, 126.82 3.77, 135.99 4.97 C145.16 6.17, 142.76 6.4, 142.05 7.16 M120.8 0.18 C133.89 0.83, 146.85 7.51, 157.97 12.19 C169.09 16.87, 180.79 21.24, 187.5 28.27 C194.2 35.31, 196.69 46.07, 198.21 54.41 C199.72 62.75, 200.4 70.76, 196.57 78.33 C192.75 85.9, 184.24 93.79, 175.26 99.82 C166.28 105.85, 155.3 111.13, 142.69 114.53 C130.07 117.92, 113.59 120.08, 99.58 120.19 C85.57 120.3, 70.82 118.35, 58.64 115.18 C46.46 112.02, 35.42 107.36, 26.52 101.2 C17.62 95.05, 9.43 86.33, 5.24 78.26 C1.06 70.18, 0.08 60.97, 1.4 52.76 C2.72 44.56, 6.68 35.97, 13.17 29.01 C19.67 22.04, 29.49 15.35, 40.37 10.97 C51.26 6.58, 65.1 4.3, 78.48 2.68 C91.86 1.07, 113.73 1.58, 120.66 1.29 C127.59 1, 120.24 -0.16, 120.05 0.95" stroke="none" stroke-width="0" fill="#868e96"></path><path d="M145.02 6.17 C157.18 8.78, 169.33 15.22, 177.97 21.74 C186.61 28.26, 193.34 37.37, 196.85 45.31 C200.36 53.25, 201.16 61.61, 199.03 69.38 C196.91 77.16, 191.67 85.02, 184.11 91.96 C176.55 98.89, 165.09 106.34, 153.66 111.02 C142.23 115.7, 128.69 118.83, 115.52 120.05 C102.35 121.26, 87.79 120.67, 74.65 118.31 C61.5 115.96, 47.38 111.05, 36.65 105.92 C25.92 100.8, 16.21 94.73, 10.28 87.58 C4.35 80.42, 1.75 71.23, 1.06 62.99 C0.38 54.75, 1.54 45.75, 6.18 38.11 C10.82 30.48, 19.19 22.9, 28.92 17.18 C38.65 11.45, 51.76 6.47, 64.57 3.76 C77.38 1.05, 91.9 0.31, 105.8 0.91 C119.71 1.52, 140.61 6, 148.01 7.37 C155.4 8.75, 150.97 8.25, 150.19 9.16 M111.35 -0.54 C124.16 -0.12, 138.97 5.23, 150.82 9.44 C162.66 13.65, 174.35 18.32, 182.41 24.71 C190.47 31.11, 196.62 39.63, 199.19 47.8 C201.76 55.97, 200.98 65.65, 197.83 73.73 C194.69 81.8, 188.7 89.76, 180.32 96.28 C171.94 102.8, 159.44 109.12, 147.56 112.86 C135.68 116.6, 122.54 117.94, 109.06 118.71 C95.57 119.49, 79.41 120.11, 66.64 117.52 C53.87 114.93, 41.99 108.62, 32.44 103.16 C22.9 97.7, 14.75 92.15, 9.37 84.76 C3.99 77.37, 0.15 67.32, 0.15 58.81 C0.15 50.3, 3.49 41.25, 9.34 33.71 C15.19 26.17, 25.16 18.93, 35.24 13.57 C45.31 8.21, 56.91 4, 69.81 1.56 C82.71 -0.88, 105.76 -1.11, 112.64 -1.07 C119.52 -1.03, 111.43 0.47, 111.09 1.82" stroke="#1e1e1e" stroke-width="1" fill="none"></path></g><g transform="translate(103.76979063134513 489.37359312880744) rotate(0 46.01953125 20.700000000000045)"><text x="46.01953125" y="0" font-family="Helvetica, Segoe UI Emoji" font-size="36px" fill="#1e1e1e" text-anchor="middle" style="white-space: pre;" direction="ltr" dominant-baseline="text-before-edge">Client</text></g><g stroke-linecap="round" transform="translate(50 270) rotate(0 100 60)"><path d="M106.76 -0.4 C119.74 -0.65, 136.23 3.2, 148.21 7.04 C160.18 10.89, 170.55 16.28, 178.58 22.66 C186.62 29.05, 192.99 37.35, 196.4 45.35 C199.8 53.34, 201.26 62.66, 199.01 70.62 C196.77 78.59, 190.68 86.55, 182.95 93.15 C175.21 99.75, 164.17 105.7, 152.58 110.21 C141 114.73, 126.88 118.93, 113.46 120.23 C100.04 121.53, 85.24 120.58, 72.05 118.01 C58.87 115.44, 44.8 110.3, 34.34 104.81 C23.88 99.31, 15.1 92.22, 9.29 85.05 C3.48 77.87, -0.15 69.8, -0.53 61.75 C-0.92 53.69, 1.74 44.07, 7 36.7 C12.25 29.33, 21.08 23.03, 31 17.55 C40.92 12.06, 50.94 6.43, 66.53 3.81 C82.11 1.19, 112.04 1.5, 124.52 1.83 C137.01 2.15, 141.64 4.7, 141.44 5.76 M67.14 2.23 C78.58 -1.25, 92.39 0.41, 105.92 1.24 C119.44 2.08, 136.06 3.6, 148.3 7.24 C160.54 10.88, 171 16.73, 179.36 23.1 C187.71 29.46, 195.44 37.5, 198.44 45.43 C201.44 53.37, 200.17 62.62, 197.35 70.68 C194.53 78.74, 188.87 86.98, 181.53 93.81 C174.18 100.64, 164.53 107.51, 153.27 111.67 C142 115.83, 127.27 117.98, 113.94 118.75 C100.6 119.52, 86.28 118.65, 73.25 116.28 C60.22 113.92, 46.33 109.7, 35.75 104.57 C25.17 99.44, 15.74 92.38, 9.78 85.5 C3.82 78.63, 0.32 71.31, 0 63.31 C-0.32 55.31, 2.71 45.52, 7.87 37.52 C13.03 29.53, 21.04 20.85, 30.95 15.34 C40.86 9.84, 61.41 6.01, 67.33 4.48 C73.26 2.96, 66.33 5.48, 66.5 6.2" stroke="none" stroke-width="0" fill="#868e96"></path><path d="M82.36 1.82 C94.76 -0.38, 110.76 0.05, 123.93 1.71 C137.1 3.38, 150.83 6.72, 161.37 11.81 C171.92 16.9, 180.85 24.84, 187.22 32.25 C193.59 39.66, 198.34 48.22, 199.58 56.28 C200.82 64.33, 199.28 73.16, 194.66 80.57 C190.05 87.98, 181.43 94.86, 171.87 100.73 C162.32 106.61, 149.65 112.66, 137.34 115.84 C125.02 119.02, 111.5 120.17, 97.97 119.81 C84.45 119.45, 68.62 117.24, 56.19 113.67 C43.76 110.11, 32.01 104.59, 23.39 98.41 C14.77 92.24, 8.1 84.22, 4.45 76.62 C0.8 69.02, -0.27 60.82, 1.49 52.8 C3.24 44.79, 7.83 35.58, 14.97 28.51 C22.12 21.43, 32.13 15.01, 44.37 10.36 C56.61 5.71, 80.01 2.05, 88.42 0.59 C96.83 -0.86, 94.81 0.74, 94.82 1.64 M69.18 2.33 C81.17 -1.23, 97.48 -1.27, 110.92 -0.28 C124.35 0.71, 138.14 4.09, 149.79 8.26 C161.44 12.43, 173.03 18.19, 180.81 24.75 C188.6 31.31, 193.64 39.91, 196.5 47.63 C199.36 55.35, 200.7 63.06, 197.98 71.07 C195.26 79.08, 188.01 89.05, 180.17 95.69 C172.33 102.34, 162.26 106.75, 150.96 110.93 C139.66 115.11, 125.89 119.79, 112.37 120.78 C98.85 121.76, 82.95 119.69, 69.83 116.85 C56.71 114.01, 43.63 109.3, 33.65 103.74 C23.67 98.18, 15.69 90.89, 9.97 83.47 C4.25 76.06, -0.53 67.43, -0.66 59.26 C-0.8 51.09, 3.7 41.68, 9.15 34.44 C14.61 27.21, 22.19 20.99, 32.07 15.86 C41.94 10.74, 62.44 5.53, 68.41 3.7 C74.38 1.86, 67.21 4.21, 67.9 4.84" stroke="#1e1e1e" stroke-width="1" fill="none"></path></g><g transform="translate(103.76979063134513 309.37359312880744) rotate(0 46.01953125 20.700000000000045)"><text x="46.01953125" y="0" font-family="Helvetica, Segoe UI Emoji" font-size="36px" fill="#1e1e1e" text-anchor="middle" style="white-space: pre;" direction="ltr" dominant-baseline="text-before-edge">Client</text></g><g stroke-linecap="round"><g transform="translate(248.52837416881994 150.32317235703022) rotate(0 120.95001011202885 50.1512831240409)"><path d="M-0.59 0.31 C39.9 16.92, 202.14 83.38, 242.49 99.99" stroke="#1e1e1e" stroke-width="1.5" fill="none" stroke-dasharray="8 9"></path></g><g transform="translate(248.52837416881994 150.32317235703022) rotate(0 120.95001011202885 50.1512831240409)"><path d="M213.03 100.47 C220.96 99.26, 228.82 98.14, 240.85 101.4" stroke="#1e1e1e" stroke-width="1.5" fill="none"></path></g><g transform="translate(248.52837416881994 150.32317235703022) rotate(0 120.95001011202885 50.1512831240409)"><path d="M220.83 81.49 C226.74 85.25, 232.54 89.14, 240.85 101.4" stroke="#1e1e1e" stroke-width="1.5" fill="none"></path></g></g><mask></mask><g stroke-linecap="round"><g transform="translate(249.05843461524637 341.903177357849) rotate(0 120.98488636912816 -33.474497188787836)"><path d="M1.02 0.31 C41.27 -10.95, 201.11 -55.79, 240.95 -67.26" stroke="#1e1e1e" stroke-width="1.5" fill="none" stroke-dasharray="8 9"></path></g><g transform="translate(249.05843461524637 341.903177357849) rotate(0 120.98488636912816 -33.474497188787836)"><path d="M217.16 -49.68 C223.16 -55.74, 227.15 -57.31, 240.67 -65.69" stroke="#1e1e1e" stroke-width="1.5" fill="none"></path></g><g transform="translate(249.05843461524637 341.903177357849) rotate(0 120.98488636912816 -33.474497188787836)"><path d="M211.56 -69.42 C219.02 -70.57, 224.41 -67.2, 240.67 -65.69" stroke="#1e1e1e" stroke-width="1.5" fill="none"></path></g></g><mask></mask><g stroke-linecap="round"><g transform="translate(253.4900052763851 504.7853259512199) rotate(0 127.33237612543849 -105.63187425750607)"><path d="M0.01 0.28 C42.28 -35.03, 211.93 -176.38, 254.65 -211.55" stroke="#1e1e1e" stroke-width="1.5" fill="none" stroke-dasharray="8 9"></path></g><g transform="translate(253.4900052763851 504.7853259512199) rotate(0 127.33237612543849 -105.63187425750607)"><path d="M239.97 -187.08 C243.63 -194.21, 250.82 -204.01, 255.68 -210.84" stroke="#1e1e1e" stroke-width="1.5" fill="none"></path></g><g transform="translate(253.4900052763851 504.7853259512199) rotate(0 127.33237612543849 -105.63187425750607)"><path d="M226.87 -202.88 C235.61 -203.93, 247.84 -207.65, 255.68 -210.84" stroke="#1e1e1e" stroke-width="1.5" fill="none"></path></g></g><mask></mask><g stroke-linecap="round" transform="translate(690 170) rotate(0 190 110)"><path d="M32.02 0.47 L346.57 -1.64 L356.91 0.22 L369.07 5.52 L376.21 11.63 L376.58 16.75 L380.65 33.85 L379.68 187.09 L378.71 194.79 L374.7 208.35 L367.04 216.67 L363.67 218.13 L348.06 221.48 L31.84 220.31 L24.86 219.98 L13.2 213.55 L3.79 206.22 L1.43 203.28 L0.89 187.04 L1.94 23.74 L2.44 18.54 L8.37 8.42 L16.42 2.63 L32.05 -1.39" stroke="none" stroke-width="0" fill="#ffd8a8"></path><path d="M32 0 M32 0 C102.98 0.6, 176.62 -0.5, 348 0 M32 0 C120.47 1.04, 207.63 1.11, 348 0 M348 0 C370.34 -1.99, 379.25 10.93, 380 32 M348 0 C369.18 0.99, 378.1 11.67, 380 32 M380 32 C380.39 88.27, 379.89 142.66, 380 188 M380 32 C378.95 65.46, 378.42 99.31, 380 188 M380 188 C379.02 210.61, 369.03 220.76, 348 220 M380 188 C378.38 209.58, 367.35 220.32, 348 220 M348 220 C227.8 219.66, 109.4 219.65, 32 220 M348 220 C271.03 218.88, 195.43 218.97, 32 220 M32 220 C11.3 218.8, -0.19 210.14, 0 188 M32 220 C8.74 221.56, 1.05 207.73, 0 188 M0 188 C-2.84 142.24, 0.45 101.28, 0 32 M0 188 C0.42 139.19, -1.25 90.67, 0 32 M0 32 C-1.75 10.94, 11.16 1, 32 0 M0 32 C0.2 9.63, 12.08 -2.11, 32 0" stroke="#1e1e1e" stroke-width="1" fill="none"></path></g><g stroke-linecap="round" transform="translate(730 290) rotate(0 60 30)"><path d="M13.57 -1.64 L106.41 -0.28 L115.71 3.13 L118.6 4.99 L118.34 10.24 L120.65 46.85 L117.57 53.23 L113.35 57.18 L104.2 60.85 L14.54 61.17 L7.53 58.02 L2.17 55.62 L0.08 48.82 L0.6 11.96 L4.45 1.8 L7.73 -0.34 L14.43 1.28" stroke="none" stroke-width="0" fill="#fca326"></path><path d="M15 0 M15 0 C45.25 -0.21, 77.56 -0.28, 105 0 M105 0 C115.42 -1.58, 120.63 5.05, 120 15 M120 15 C120.34 20.8, 121.51 30.36, 120 45 M120 45 C120.19 54.57, 115.13 58.54, 105 60 M105 60 C70.1 60.61, 36.17 58.85, 15 60 M15 60 C5.27 59.87, 0.86 53.35, 0 45 M0 45 C1.25 36.38, 0.13 25.58, 0 15 M0 15 C-1.28 3.36, 3.85 1.45, 15 0" stroke="#1e1e1e" stroke-width="1.5" fill="none" stroke-dasharray="8 9"></path></g><g transform="translate(737.1923828125 308.5) rotate(0 52.8076171875 11.5)"><text x="52.8076171875" y="0" font-family="Helvetica, Segoe UI Emoji" font-size="20px" fill="#1e1e1e" text-anchor="middle" style="white-space: pre;" direction="ltr" dominant-baseline="text-before-edge">Select/Epoll</text></g><g stroke-linecap="round" transform="translate(910 290) rotate(0 60 30)"><path d="M16.57 1.02 L105.71 -0.87 L112.72 0.86 L118.54 7.71 L119.44 10.57 L119.21 44.29 L117.09 54.99 L113.68 59.06 L106.67 60.13 L15.06 61.48 L5.7 58.2 L2.47 54.62 L0.94 46.56 L-0.48 10.2 L1.54 7.14 L6.75 1.14 L16.44 -0.76" stroke="none" stroke-width="0" fill="#fca326"></path><path d="M15 0 M15 0 C44.4 -1.75, 73.58 -0.11, 105 0 M105 0 C113.61 -1.46, 120.97 5.56, 120 15 M120 15 C120.45 21.89, 120.39 28.17, 120 45 M120 45 C121.43 53.31, 114.11 58.52, 105 60 M105 60 C73.73 59.53, 42.79 58.01, 15 60 M15 60 C5.87 61.18, -1.66 56.42, 0 45 M0 45 C-1.32 31.83, -1.19 23.39, 0 15 M0 15 C-0.31 3.83, 3.64 -1.56, 15 0" stroke="#1e1e1e" stroke-width="1.5" fill="none" stroke-dasharray="8 9"></path></g><g transform="translate(931.09375 308.5) rotate(0 38.90625 11.5)"><text x="38.90625" y="0" font-family="Helvetica, Segoe UI Emoji" font-size="20px" fill="#1e1e1e" text-anchor="middle" style="white-space: pre;" direction="ltr" dominant-baseline="text-before-edge">Dispatch</text></g><g transform="translate(770 210) rotate(0 122.02734375 20.700000000000045)"><text x="122.02734375" y="0" font-family="Helvetica, Segoe UI Emoji" font-size="36px" fill="#1e1e1e" text-anchor="middle" style="white-space: pre;" direction="ltr" dominant-baseline="text-before-edge">Reactor 单线程</text></g><g stroke-linecap="round" transform="translate(590 590) rotate(0 100 46.5)"><path d="M23.9 1.85 L176.43 -0.91 L190.13 2.56 L195.93 9.93 L199.18 18.97 L201.67 69.88 L196.79 85.4 L190.76 90.04 L177.11 93.48 L23.95 91.05 L8.37 88.45 L2.7 85.2 L1.25 74.23 L1.81 17.04 L6.25 6.35 L13.45 1.87 L21.67 0.63" stroke="none" stroke-width="0" fill="#a5d8ff"></path><path d="M23.25 0 M23.25 0 C70.67 1.68, 115.02 2.85, 176.75 0 M23.25 0 C81.1 -0.4, 139.52 -0.51, 176.75 0 M176.75 0 C191.36 -1.48, 201.01 5.76, 200 23.25 M176.75 0 C191.39 0.31, 199.85 8.74, 200 23.25 M200 23.25 C198.54 34.78, 201.89 43.77, 200 69.75 M200 23.25 C199.13 40.69, 199.55 56.09, 200 69.75 M200 69.75 C198.64 83.69, 191.27 94.28, 176.75 93 M200 69.75 C199.65 86.12, 190.63 93.24, 176.75 93 M176.75 93 C144.3 95.03, 109.24 92.32, 23.25 93 M176.75 93 C139.41 91.6, 101.55 92.15, 23.25 93 M23.25 93 C9.66 93.32, 0.63 84.05, 0 69.75 M23.25 93 C7.53 93.93, -1.92 86.81, 0 69.75 M0 69.75 C1.62 55.34, -1.5 36.06, 0 23.25 M0 69.75 C-0.06 52.4, 0.53 34.99, 0 23.25 M0 23.25 C-1.48 8.01, 6 0.27, 23.25 0 M0 23.25 C0.57 8.9, 7.95 -1.04, 23.25 0" stroke="#1e1e1e" stroke-width="1" fill="none"></path></g><g transform="translate(634.751953125 620.4000000000001) rotate(0 55.248046875 16.09999999999991)"><text x="55.248046875" y="0" font-family="Helvetica, Segoe UI Emoji" font-size="28px" fill="#1e1e1e" text-anchor="middle" style="white-space: pre;" direction="ltr" dominant-baseline="text-before-edge">Acceptor</text></g><g stroke-linecap="round" transform="translate(1090 510) rotate(0 230 115)"><path d="M31.84 0.31 L428.36 0.48 L436.2 -1.45 L446.79 3.22 L454.93 13.78 L458.89 17.04 L461.44 31.24 L460.44 198.54 L459.87 205.92 L453.92 218.13 L447.55 224.11 L440.54 228.97 L428.56 228.88 L33.73 231.53 L24.69 229.07 L12.63 224.04 L5.93 215.81 L1.11 210.52 L1.01 196.01 L-0.25 24.77 L1.87 18.86 L6.35 8.87 L19.18 0.34 L33.42 1.69" stroke="none" stroke-width="0" fill="#ffc9c9"></path><path d="M32 0 M32 0 C155.87 0.79, 282.45 1.28, 428 0 M32 0 C127.28 2.13, 223.04 1.98, 428 0 M428 0 C447.92 0.21, 458.28 10.95, 460 32 M428 0 C451.09 0.45, 460.99 8.55, 460 32 M460 32 C457.91 66.5, 458.03 99.96, 460 198 M460 32 C461.91 81.71, 461.49 133.03, 460 198 M460 198 C458.33 220.69, 450.24 228.61, 428 230 M460 198 C459.62 220.82, 451.23 227.9, 428 230 M428 230 C340.25 232.27, 252.19 232.96, 32 230 M428 230 C311.76 230.37, 196.68 230.58, 32 230 M32 230 C10.84 229.1, 1.23 217.5, 0 198 M32 230 C10.85 227.93, -0.45 218.2, 0 198 M0 198 C-1.34 149.25, -3.36 101.51, 0 32 M0 198 C-0.57 138.1, -0.08 78.98, 0 32 M0 32 C-1.21 9.81, 8.99 -1.37, 32 0 M0 32 C0.26 8.42, 12.72 -2.05, 32 0" stroke="#1e1e1e" stroke-width="1" fill="none"></path></g><g stroke-linecap="round" transform="translate(1270 570) rotate(0 60 30)"><path d="M15.36 0.48 L105.7 -1.95 L113.43 0.83 L117.32 7.14 L120.66 10.52 L121.44 44.24 L118.33 54.68 L114.51 58.31 L103.42 60.63 L15.05 58.61 L4.4 58.86 L2.67 53.02 L1.97 50.04 L0.42 11.05 L3.88 2.29 L9.86 -0.75 L14.11 -1.48" stroke="none" stroke-width="0" fill="#ff8787"></path><path d="M15 0 M15 0 C46.8 0.21, 78.93 -1.32, 105 0 M15 0 C46.63 1.59, 76.98 1.34, 105 0 M105 0 C113.72 -1.64, 118.85 6.45, 120 15 M105 0 C114.65 -1.35, 118.43 3.21, 120 15 M120 15 C120.95 21.12, 120.4 28.33, 120 45 M120 15 C120.66 23.5, 119.31 33.27, 120 45 M120 45 C118.14 53.85, 115.03 58.97, 105 60 M120 45 C118.87 55.07, 117.2 60.37, 105 60 M105 60 C75.96 58.24, 46.66 60.82, 15 60 M105 60 C85.09 59.67, 62.75 61.31, 15 60 M15 60 C6.68 60.25, 0.65 54.98, 0 45 M15 60 C7.12 59.82, -1.7 55.3, 0 45 M0 45 C0.96 38.81, -0.94 33.49, 0 15 M0 45 C-0.22 38.26, -0.06 33.35, 0 15 M0 15 C0.73 5.08, 5.44 -1.93, 15 0 M0 15 C2.19 6.36, 4.86 2.26, 15 0" stroke="#1e1e1e" stroke-width="1" fill="none"></path></g><g transform="translate(1279.427734375 583.9000000000001) rotate(0 50.572265625 16.09999999999991)"><text x="50.572265625" y="0" font-family="Helvetica, Segoe UI Emoji" font-size="28px" fill="#1e1e1e" text-anchor="middle" style="white-space: pre;" direction="ltr" dominant-baseline="text-before-edge">Process</text></g><g stroke-linecap="round" transform="translate(1410 650) rotate(0 60 30)"><path d="M14.29 -1.28 L104.43 1.28 L115.03 1.14 L119.33 5.1 L120.2 12.02 L120.37 45.42 L116.31 54.77 L114.19 56.5 L103.54 60.97 L15.56 58.88 L7.59 59.42 L2.3 53.71 L0.37 47.05 L1.66 9.79 L2.86 2.27 L9.45 -1.05 L14.25 0.27" stroke="none" stroke-width="0" fill="#ff8787"></path><path d="M15 0 M15 0 C42.29 1.92, 66.17 2.17, 105 0 M15 0 C48.96 -1.35, 83.62 0.19, 105 0 M105 0 C114.69 -1.17, 118.64 3.44, 120 15 M105 0 C113.87 1.47, 119.65 5.87, 120 15 M120 15 C120.31 23.41, 120.42 29.64, 120 45 M120 15 C118.79 20.67, 119.74 26.98, 120 45 M120 45 C119.02 55.06, 116.91 60.32, 105 60 M120 45 C120.73 53.62, 114.78 60.93, 105 60 M105 60 C84.14 60.08, 67.36 62.06, 15 60 M105 60 C87.05 60.78, 67.75 60.64, 15 60 M15 60 C6.85 59.85, -1.48 55.26, 0 45 M15 60 C2.98 60.31, 0.57 56.15, 0 45 M0 45 C-1.7 35.89, -1.67 26.08, 0 15 M0 45 C0.37 37.52, 0.23 28.98, 0 15 M0 15 C1.9 6.18, 4.88 1.97, 15 0 M0 15 C-1.53 4.32, 4.59 0.46, 15 0" stroke="#1e1e1e" stroke-width="1" fill="none"></path></g><g transform="translate(1437.5908203125 663.9000000000001) rotate(0 32.4091796875 16.09999999999991)"><text x="32.4091796875" y="0" font-family="Helvetica, Segoe UI Emoji" font-size="28px" fill="#1e1e1e" text-anchor="middle" style="white-space: pre;" direction="ltr" dominant-baseline="text-before-edge">Write</text></g><g transform="translate(1218.880859375 525.4000000000001) rotate(0 108.9169921875 16.09999999999991)"><text x="108.9169921875" y="0" font-family="Helvetica, Segoe UI Emoji" font-size="28px" fill="#1e1e1e" text-anchor="middle" style="white-space: pre;" direction="ltr" dominant-baseline="text-before-edge">业务逻辑 Handler</text></g><g stroke-linecap="round"><g transform="translate(774.7963841498472 391) rotate(0 -50.36436220486257 98.85777026712003)"><path d="M0.22 0.25 C-16.65 33.26, -84.25 165.56, -100.95 198.38 M-1.12 -0.66 C-17.65 31.95, -82.14 163.33, -98.73 196.45" stroke="#1e1e1e" stroke-width="1" fill="none"></path></g><g transform="translate(774.7963841498472 391) rotate(0 -50.36436220486257 98.85777026712003)"><path d="M-94.99 165.06 C-95.77 176.29, -98.86 184.38, -97.76 197.01 M-95.32 166.42 C-95.9 173.2, -96.06 180.36, -99.18 195.71" stroke="#1e1e1e" stroke-width="1" fill="none"></path></g><g transform="translate(774.7963841498472 391) rotate(0 -50.36436220486257 98.85777026712003)"><path d="M-76.6 174.17 C-83.33 182.5, -92.34 187.66, -97.76 197.01 M-76.93 175.53 C-82.07 180.23, -86.72 185.17, -99.18 195.71" stroke="#1e1e1e" stroke-width="1" fill="none"></path></g></g><mask></mask><g stroke-linecap="round"><g transform="translate(1064.4710499784687 391) rotate(0 93.52029826045737 58.87487583570169)"><path d="M0.03 -0.83 C31.22 18.87, 154.97 98.89, 186.2 118.58 M-1.41 1.34 C30.24 20.66, 157.08 97.27, 188.45 116.77" stroke="#1e1e1e" stroke-width="1" fill="none"></path></g><g transform="translate(1064.4710499784687 391) rotate(0 93.52029826045737 58.87487583570169)"><path d="M157.66 109.36 C166.54 112.68, 170.94 115.17, 189.98 116.95 M159.76 109.97 C166.8 111.94, 175.93 113.35, 188.08 116.9" stroke="#1e1e1e" stroke-width="1" fill="none"></path></g><g transform="translate(1064.4710499784687 391) rotate(0 93.52029826045737 58.87487583570169)"><path d="M168.37 91.85 C174.93 99.05, 176.97 105.4, 189.98 116.95 M170.47 92.46 C174.53 99.23, 180.68 105.51, 188.08 116.9" stroke="#1e1e1e" stroke-width="1" fill="none"></path></g></g><mask></mask><g stroke-linecap="round" transform="translate(1110 650) rotate(0 60 30)"><path d="M15.89 -1.59 L105.84 -1.91 L112.42 3.42 L118.94 7.32 L121.35 12.42 L118.32 45.6 L117.05 53.57 L113.03 57.9 L103.63 60.15 L14.27 58.42 L6.76 59.58 L2.37 52.9 L-1.6 48.37 L1.19 9.69 L3.65 5.39 L9.14 -0.94 L13.86 -0.69" stroke="none" stroke-width="0" fill="#ff8787"></path><path d="M15 0 M15 0 C47.52 -0.25, 77.42 -0.63, 105 0 M15 0 C48.86 -0.81, 80.61 0.99, 105 0 M105 0 C115.81 0.17, 118.72 5.5, 120 15 M105 0 C115.01 -0.63, 119.07 5.59, 120 15 M120 15 C121.03 24.88, 119.73 39.77, 120 45 M120 15 C120.04 25.07, 119.42 35, 120 45 M120 45 C119.35 54.53, 114.41 61.06, 105 60 M120 45 C121.3 55.36, 117.26 59.63, 105 60 M105 60 C76.92 61.18, 47.05 58.48, 15 60 M105 60 C76.06 60.1, 47.07 61.01, 15 60 M15 60 C3.65 61.09, -1.12 54.39, 0 45 M15 60 C6.27 59.69, -0.38 55.53, 0 45 M0 45 C0.43 31.58, -1.42 23.15, 0 15 M0 45 C-0.58 34.74, -1.16 25.26, 0 15 M0 15 C-1.87 3.33, 4.81 -1.21, 15 0 M0 15 C1.39 5.59, 6.71 1, 15 0" stroke="#1e1e1e" stroke-width="1" fill="none"></path></g><g transform="translate(1136.53125 663.9000000000001) rotate(0 33.46875 16.09999999999991)"><text x="33.46875" y="0" font-family="Helvetica, Segoe UI Emoji" font-size="28px" fill="#1e1e1e" text-anchor="middle" style="white-space: pre;" direction="ltr" dominant-baseline="text-before-edge">Read</text></g></svg>