<svg version="1.1" xmlns="http://www.w3.org/2000/svg" viewBox="0 0 2740 1440" width="2740" height="1440">
  <!-- svg-source:excalidraw -->
  
  <defs>
    <style class="style-fonts">
      @font-face {
        font-family: "Virgil";
        src: url("https://excalidraw.com/Virgil.woff2");
      }
      @font-face {
        font-family: "Cascadia";
        src: url("https://excalidraw.com/Cascadia.woff2");
      }
    </style>
    
  </defs>
  <rect x="0" y="0" width="2740" height="1440" fill="#ffffff"></rect><g stroke-linecap="round" transform="translate(10 10) rotate(0 1360 710)"><path d="M33.71 1.03 L2686.86 -1.48 L2693.54 1.76 L2708.87 4.28 L2714.29 10.79 L2719.52 18.29 L2721.49 32.08 L2720.75 1388.38 L2718.46 1395.32 L2714.26 1406.07 L2708.79 1417.38 L2701.54 1419.63 L2689.86 1419.89 L33.35 1418.52 L23.83 1418.19 L11.25 1413.95 L4.15 1407.81 L2.57 1402.81 L-1.97 1386.04 L-0.08 33.24 L2.98 16.35 L8.2 9.58 L18.28 0.96 L33.08 -0.09" stroke="none" stroke-width="0" fill="#fff"></path><path d="M32 0 M32 0 C696.84 -2.12, 1361.27 -2.42, 2688 0 M32 0 C812.44 -10.15, 1593.89 -10.46, 2688 0 M2688 0 C2711.28 -1.95, 2720.25 10.23, 2720 32 M2688 0 C2707.95 1.1, 2721.03 8.44, 2720 32 M2720 32 C2716.43 453.24, 2716.57 874.78, 2720 1388 M2720 32 C2718.57 550.86, 2718.78 1070.46, 2720 1388 M2720 1388 C2721.46 1407.84, 2709.89 1419.4, 2688 1420 M2720 1388 C2718.7 1411.22, 2710.54 1420.6, 2688 1420 M2688 1420 C1627.82 1421.51, 566.86 1420.73, 32 1420 M2688 1420 C1729.13 1417.63, 769.95 1417.52, 32 1420 M32 1420 C8.84 1419.69, -0.43 1407.75, 0 1388 M32 1420 C8.37 1421.55, -0.62 1407.38, 0 1388 M0 1388 C0.94 849.52, 0.47 309.69, 0 32 M0 1388 C1.29 896.07, 1.47 403.44, 0 32 M0 32 C0.42 9.64, 10.48 -0.15, 32 0 M0 32 C-1.99 11.68, 11.83 -0.6, 32 0" stroke="#1e1e1e" stroke-width="1" fill="none"></path></g><g stroke-linecap="round" transform="translate(70 150) rotate(0 160 130)"><path d="M145.81 0.04 C161.05 -3.2, 179.43 0.12, 195.59 3.05 C211.74 5.99, 228.59 10.64, 242.75 17.65 C256.91 24.67, 269.83 34.94, 280.56 45.17 C291.29 55.39, 300.63 66.75, 307.13 79.03 C313.63 91.31, 317.94 105.44, 319.54 118.86 C321.15 132.27, 320.44 146.44, 316.78 159.52 C313.13 172.59, 306.2 186.04, 297.6 197.32 C289 208.59, 277.66 218.6, 265.17 227.16 C252.68 235.73, 237.92 243.33, 222.67 248.7 C207.41 254.08, 190.2 258.1, 173.64 259.41 C157.09 260.72, 139.46 259.44, 123.35 256.56 C107.24 253.68, 91.06 249.13, 77 242.12 C62.94 235.11, 49.62 224.65, 38.99 214.5 C28.36 204.34, 19.64 193.21, 13.2 181.16 C6.75 169.12, 1.8 155.61, 0.32 142.21 C-1.16 128.81, 0.7 114.07, 4.32 100.77 C7.95 87.48, 13.79 73.96, 22.08 62.45 C30.38 50.94, 41.38 40.23, 54.1 31.7 C66.83 23.16, 80.21 16.5, 98.42 11.22 C116.63 5.95, 149.76 1.3, 163.37 0.06 C176.99 -1.18, 180.2 1.62, 180.12 3.78 M207.78 6.43 C223.46 8.23, 238.53 16.87, 252.2 24.88 C265.88 32.88, 279.72 43.9, 289.83 54.45 C299.93 65, 307.71 75.76, 312.83 88.16 C317.95 100.56, 320.46 115.27, 320.54 128.84 C320.62 142.41, 318.27 156.78, 313.32 169.59 C308.37 182.4, 300.62 194.6, 290.84 205.69 C281.06 216.78, 268.26 228, 254.65 236.13 C241.04 244.26, 224.77 250.62, 209.16 254.47 C193.54 258.32, 177.39 259.37, 160.95 259.24 C144.51 259.11, 126.27 257.74, 110.54 253.68 C94.81 249.62, 79.74 242.44, 66.57 234.88 C53.39 227.32, 41.44 219, 31.49 208.3 C21.54 197.61, 12.08 183.69, 6.85 170.69 C1.61 157.7, -0.28 143.82, 0.06 130.36 C0.41 116.9, 3.65 102.57, 8.92 89.93 C14.18 77.3, 22.01 65.11, 31.63 54.53 C41.26 43.96, 53.42 34.32, 66.64 26.48 C79.85 18.65, 95.35 12.01, 110.92 7.53 C126.49 3.06, 143.57 -0.33, 160.06 -0.34 C176.55 -0.35, 201.9 6.02, 209.84 7.46 C217.77 8.91, 208.72 6.63, 207.68 8.35" stroke="none" stroke-width="0" fill="#868e96"></path><path d="M180.61 2.1 C196.45 1.96, 213.95 8.23, 228.97 13.84 C243.99 19.45, 258.65 26.77, 270.74 35.77 C282.83 44.76, 293.79 56.09, 301.53 67.81 C309.27 79.54, 314.48 92.89, 317.16 106.12 C319.85 119.34, 319.83 133.7, 317.65 147.17 C315.47 160.63, 310.96 174.94, 304.09 186.9 C297.21 198.86, 287.76 209.47, 276.38 218.91 C265.01 228.36, 250.47 237.04, 235.83 243.6 C221.19 250.15, 204.89 255.83, 188.56 258.24 C172.24 260.65, 154.39 259.74, 137.88 258.04 C121.37 256.34, 104.18 253.73, 89.52 248.04 C74.86 242.34, 61.6 233.3, 49.91 223.88 C38.22 214.45, 27.28 203.19, 19.39 191.49 C11.51 179.79, 5.52 166.66, 2.59 153.66 C-0.34 140.65, -0.36 126.95, 1.8 113.47 C3.97 99.98, 8.48 85.08, 15.6 72.74 C22.71 60.4, 33.11 48.88, 44.47 39.42 C55.84 29.96, 69.25 22.07, 83.77 15.98 C98.3 9.89, 111.95 4.82, 131.62 2.87 C151.29 0.92, 187.24 2.63, 201.78 4.3 C216.32 5.98, 219.65 10.96, 218.87 12.92 M152.67 0.31 C167.98 -2.58, 183.96 0.29, 199.69 3.59 C215.42 6.89, 233.21 12.76, 247.05 20.1 C260.89 27.45, 272.18 37.15, 282.74 47.66 C293.29 58.18, 304.29 70.46, 310.39 83.19 C316.49 95.92, 318.4 110.92, 319.33 124.05 C320.26 137.18, 320.27 149.39, 315.99 161.97 C311.71 174.54, 302.89 187.82, 293.66 199.49 C284.43 211.15, 273.12 223.22, 260.62 231.95 C248.12 240.69, 233.77 247.07, 218.63 251.91 C203.49 256.76, 186.42 260.29, 169.77 261.01 C153.11 261.74, 134.75 259.98, 118.68 256.26 C102.6 252.54, 87.24 246.16, 73.3 238.68 C59.36 231.2, 45.34 221.83, 35.04 211.37 C24.74 200.9, 17.21 188.43, 11.52 175.89 C5.83 163.35, 2.01 149.19, 0.88 136.12 C-0.25 123.05, 0.76 110.4, 4.72 97.47 C8.68 84.55, 15.35 70.08, 24.66 58.59 C33.97 47.1, 47.78 36.71, 60.57 28.54 C73.37 20.37, 86.39 14.43, 101.44 9.55 C116.49 4.68, 142.69 0.52, 150.86 -0.71 C159.03 -1.94, 150.11 -0.3, 150.48 2.15" stroke="#454a4a" stroke-width="1" fill="none"></path></g><g transform="translate(183.8433837601524 259.37611844574894) rotate(0 46.01953125 20.700000000000045)"><text x="46.01953125" y="0" font-family="Helvetica, Segoe UI Emoji" font-size="36px" fill="#1e1e1e" text-anchor="middle" style="white-space: pre;" direction="ltr" dominant-baseline="text-before-edge">Client</text></g><g stroke-linecap="round" transform="translate(670 130) rotate(0 260 600)"><path d="M32.97 0.23 L489.58 1.03 L495.31 0 L509.33 4.33 L513.73 12.28 L517.54 18.15 L521.78 32.16 L518.09 1166.96 L519.71 1174.51 L513.61 1187.05 L508.99 1195.5 L501.42 1199.46 L489.82 1198.07 L31.08 1198.52 L24.1 1200.94 L13.85 1196.35 L5.96 1189.11 L1.73 1182.83 L0.25 1167.36 L-1.07 31.16 L3.05 16.77 L8.86 6.77 L17.13 3.18 L30.68 -1.08" stroke="none" stroke-width="0" fill="#fff"></path><path d="M32 0 M32 0 C214.77 1.06, 395.93 0.71, 488 0 M32 0 C149.75 -0.93, 266.86 -1.05, 488 0 M488 0 C509.68 -0.61, 519.09 9.75, 520 32 M488 0 C508.67 0.68, 517.85 10.13, 520 32 M520 32 C519.34 420.57, 519.94 809.09, 520 1168 M520 32 C521.07 427.36, 521.07 822.45, 520 1168 M520 1168 C519.8 1188.12, 509.14 1198.9, 488 1200 M520 1168 C521.64 1188.82, 507.59 1201.15, 488 1200 M488 1200 C332.71 1202.05, 176.26 1201.47, 32 1200 M488 1200 C395.85 1201.7, 302.85 1201.47, 32 1200 M32 1200 C10.72 1198.96, 0.02 1190.57, 0 1168 M32 1200 C8.64 1201.63, -1.6 1189.69, 0 1168 M0 1168 C-0.41 927.17, -1.71 685.71, 0 32 M0 1168 C-2.61 874.55, -2.86 581.6, 0 32 M0 32 C-1.21 12, 11.06 -1.02, 32 0 M0 32 C-0.98 10.48, 10.79 -0.93, 32 0" stroke="#454a4a" stroke-width="1" fill="none"></path></g><g stroke-linecap="round" transform="translate(750 190) rotate(0 180 80)"><path d="M32.65 0.49 L326.04 0.4 L340.04 1.5 L351.8 6.79 L355.3 11.4 L360.92 24.06 L358.48 129 L358.82 141.43 L357.35 147.92 L347.62 153.91 L340.89 156.06 L327.67 161.78 L33.82 159.09 L18.05 156.11 L12.55 154.46 L4.52 148.74 L-1.26 136.92 L-0.89 24.81 L0.25 18.48 L9.03 9.72 L19.16 0.45 L32.72 -0.84" stroke="none" stroke-width="0" fill="#ffa94d"></path><path d="M32 0 M32 0 C139.28 -1.4, 248.39 -2.37, 328 0 M328 0 C350.66 0.4, 358.98 9.81, 360 32 M360 32 C360.78 61.96, 358.47 88.04, 360 128 M360 128 C360.08 149.11, 351.05 159.47, 328 160 M328 160 C211.7 162.74, 93.74 162.47, 32 160 M32 160 C10.21 161.35, 1.68 149.11, 0 128 M0 128 C1.6 102.26, 1.6 76.2, 0 32 M0 32 C-1.81 11.78, 9.46 -0.54, 32 0" stroke="#454a4a" stroke-width="1.5" fill="none" stroke-dasharray="8 9"></path></g><g transform="translate(858.966796875 207.9000000000001) rotate(0 71.033203125 62.09999999999991)"><text x="71.033203125" y="0" font-family="Helvetica, Segoe UI Emoji" font-size="36px" fill="#454a4a" text-anchor="middle" style="white-space: pre;" direction="ltr" dominant-baseline="text-before-edge">Acceptor</text><text x="71.033203125" y="41.4" font-family="Helvetica, Segoe UI Emoji" font-size="36px" fill="#454a4a" text-anchor="middle" style="white-space: pre;" direction="ltr" dominant-baseline="text-before-edge"></text><text x="71.033203125" y="82.8" font-family="Helvetica, Segoe UI Emoji" font-size="36px" fill="#454a4a" text-anchor="middle" style="white-space: pre;" direction="ltr" dominant-baseline="text-before-edge">Thread</text></g><g stroke-linecap="round" transform="translate(750 450) rotate(0 180 80)"><path d="M32.89 -0.61 L327.71 1.37 L342.52 2.83 L353.78 6 L354.18 12.45 L360.03 22.61 L358.21 127.91 L359.64 140.24 L354.69 146.61 L346.62 154.64 L343.01 159.16 L329.23 159.77 L32.33 160.9 L18.52 157.35 L13.58 153.88 L4.32 146.76 L0.99 136.36 L-1.25 25.66 L1.07 18.84 L9.2 8.87 L16.59 0.02 L30.34 -1.53" stroke="none" stroke-width="0" fill="#ffffff"></path><path d="M32 0 M32 0 C122.8 -3.26, 212.43 -2.29, 328 0 M328 0 C350.04 1.9, 360.15 12.57, 360 32 M360 32 C359.57 64.32, 357.91 96.16, 360 128 M360 128 C359.29 149.82, 350.31 159.59, 328 160 M328 160 C230.89 160.47, 133.33 162.13, 32 160 M32 160 C12.58 160.33, -0.46 148.9, 0 128 M0 128 C-1.9 91.37, -0.37 54.04, 0 32 M0 32 C-1.25 9.48, 9.08 0.92, 32 0" stroke="#f08c00" stroke-width="1.5" fill="none" stroke-dasharray="8 9"></path></g><g transform="translate(864.978515625 467.9000000000001) rotate(0 65.021484375 62.09999999999991)"><text x="65.021484375" y="0" font-family="Helvetica, Segoe UI Emoji" font-size="36px" fill="#f08c00" text-anchor="middle" style="white-space: pre;" direction="ltr" dominant-baseline="text-before-edge">Process</text><text x="65.021484375" y="41.4" font-family="Helvetica, Segoe UI Emoji" font-size="36px" fill="#f08c00" text-anchor="middle" style="white-space: pre;" direction="ltr" dominant-baseline="text-before-edge"></text><text x="65.021484375" y="82.8" font-family="Helvetica, Segoe UI Emoji" font-size="36px" fill="#f08c00" text-anchor="middle" style="white-space: pre;" direction="ltr" dominant-baseline="text-before-edge">Thread</text></g><g stroke-linecap="round" transform="translate(750 670) rotate(0 180 80)"><path d="M33.13 0.12 L329.55 -1.25 L340.81 0.41 L352.92 9.21 L356.75 13.43 L359.54 22.92 L360 127.03 L357.83 142.08 L357.32 147.8 L348.91 154.72 L340.71 156.65 L328.13 158.1 L33.88 160.24 L17.56 156.3 L12.24 157.04 L5.99 146.17 L0.45 134.79 L0.42 25.83 L1.37 18.5 L7.07 9.69 L16.08 2.47 L31.38 -1.55" stroke="none" stroke-width="0" fill="#ffffff"></path><path d="M32 0 M32 0 C141.03 1.86, 250.18 -0.69, 328 0 M328 0 C349.65 1.07, 360.18 11.69, 360 32 M360 32 C360.86 64.68, 361.29 102.17, 360 128 M360 128 C361.22 149.34, 350.99 158.57, 328 160 M328 160 C269.48 161.04, 209.51 158.89, 32 160 M32 160 C11.22 161.06, 0.39 148.84, 0 128 M0 128 C0.91 106.61, -0.65 88.37, 0 32 M0 32 C0.72 12.59, 9.76 0.88, 32 0" stroke="#f08c00" stroke-width="1.5" fill="none" stroke-dasharray="8 9"></path></g><g transform="translate(864.978515625 687.9000000000001) rotate(0 65.021484375 62.09999999999991)"><text x="65.021484375" y="0" font-family="Helvetica, Segoe UI Emoji" font-size="36px" fill="#f08c00" text-anchor="middle" style="white-space: pre;" direction="ltr" dominant-baseline="text-before-edge">Process</text><text x="65.021484375" y="41.4" font-family="Helvetica, Segoe UI Emoji" font-size="36px" fill="#f08c00" text-anchor="middle" style="white-space: pre;" direction="ltr" dominant-baseline="text-before-edge"></text><text x="65.021484375" y="82.8" font-family="Helvetica, Segoe UI Emoji" font-size="36px" fill="#f08c00" text-anchor="middle" style="white-space: pre;" direction="ltr" dominant-baseline="text-before-edge">Thread</text></g><g stroke-linecap="round" transform="translate(750 890) rotate(0 180 80)"><path d="M33.02 1.21 L328.15 -0.17 L342.79 0.07 L353.21 8.97 L356.72 12.51 L361.16 23.07 L358.05 127.38 L358.1 143.92 L356.77 149.37 L345.86 156.05 L343.06 158.39 L327.5 158.31 L33.84 161.19 L19.79 157.3 L12.73 157.26 L5.22 149.43 L-0.41 136.38 L-0.51 25.35 L3.48 18.63 L8.53 9.04 L18.68 2.34 L32.49 -0.28" stroke="none" stroke-width="0" fill="#ffffff"></path><path d="M32 0 M32 0 C94.49 2.15, 155.96 1.09, 328 0 M328 0 C348.27 -0.68, 362 11.26, 360 32 M360 32 C360.52 65.36, 361.72 103.95, 360 128 M360 128 C359.9 150.96, 349.92 158.87, 328 160 M328 160 C229.38 159.82, 130.81 158.47, 32 160 M32 160 C12.1 158.7, 0.48 147.95, 0 128 M0 128 C-0.71 95.14, -1.29 63.08, 0 32 M0 32 C0.41 11.68, 9.57 -0.32, 32 0" stroke="#f08c00" stroke-width="1.5" fill="none" stroke-dasharray="8 9"></path></g><g transform="translate(899.994140625 949.3000000000002) rotate(0 30.005859375 20.700000000000045)"><text x="30.005859375" y="0" font-family="Helvetica, Segoe UI Emoji" font-size="36px" fill="#f08c00" text-anchor="middle" style="white-space: pre;" direction="ltr" dominant-baseline="text-before-edge">......</text></g><g stroke-linecap="round" transform="translate(750 1110) rotate(0 180 80)"><path d="M32.53 1.04 L328.68 0.34 L342.49 1.72 L350.2 6.66 L354.73 12.92 L361.27 23.98 L360.33 126.94 L357.32 144 L356.09 148.86 L348.51 154.19 L342.04 156.04 L329.24 161.3 L31.9 161.63 L18.58 156.87 L13.15 156.54 L4.37 147.22 L0.45 135 L-1.37 25.94 L0.7 18.48 L6.62 8.91 L17.02 3.76 L30.82 0.28" stroke="none" stroke-width="0" fill="#ffffff"></path><path d="M32 0 M32 0 C95.46 -1.26, 157.18 -0.96, 328 0 M328 0 C351.15 -1.22, 361.26 10.3, 360 32 M360 32 C360.17 65.05, 359.79 94.4, 360 128 M360 128 C358.22 150.43, 351.05 158.11, 328 160 M328 160 C240.86 159.56, 155.69 159.68, 32 160 M32 160 C10.34 158.67, -1.97 147.67, 0 128 M0 128 C1.36 90.45, -0.36 55.19, 0 32 M0 32 C0.28 9.39, 12.34 1.68, 32 0" stroke="#f08c00" stroke-width="1.5" fill="none" stroke-dasharray="8 9"></path></g><g transform="translate(864.978515625 1127.9) rotate(0 65.021484375 62.09999999999991)"><text x="65.021484375" y="0" font-family="Helvetica, Segoe UI Emoji" font-size="36px" fill="#f08c00" text-anchor="middle" style="white-space: pre;" direction="ltr" dominant-baseline="text-before-edge">Process</text><text x="65.021484375" y="41.4" font-family="Helvetica, Segoe UI Emoji" font-size="36px" fill="#f08c00" text-anchor="middle" style="white-space: pre;" direction="ltr" dominant-baseline="text-before-edge"></text><text x="65.021484375" y="82.8" font-family="Helvetica, Segoe UI Emoji" font-size="36px" fill="#f08c00" text-anchor="middle" style="white-space: pre;" direction="ltr" dominant-baseline="text-before-edge">Thread</text></g><g stroke-linecap="round" transform="translate(1390 130) rotate(0 260 600)"><path d="M30.34 1.62 L486.58 -0.81 L496.18 -0.49 L506.45 4.82 L515.78 11.23 L519.68 19.68 L521.87 33.9 L518.84 1168.8 L520.91 1177.46 L514.27 1186.01 L507.58 1194.11 L501.99 1198.89 L486.26 1199.84 L33.27 1201.32 L26.09 1199.43 L12.07 1193.97 L3.38 1188.91 L2.08 1180.27 L0.19 1169.12 L-1.78 31.96 L0.78 18.18 L9.61 6.02 L19.16 3.97 L32.11 0.25" stroke="none" stroke-width="0" fill="#fff"></path><path d="M32 0 M32 0 C192.76 0.84, 351.33 0.66, 488 0 M32 0 C140.15 -2.34, 248.51 -2.04, 488 0 M488 0 C509.1 -0.65, 518.11 9.17, 520 32 M488 0 C508.37 0.02, 519.61 10.38, 520 32 M520 32 C516.27 336.34, 516.31 639.71, 520 1168 M520 32 C524.19 316.33, 524.01 600.52, 520 1168 M520 1168 C519.59 1189.64, 510.14 1200.35, 488 1200 M520 1168 C518.09 1187.8, 509.32 1198.42, 488 1200 M488 1200 C309.62 1200.82, 132.09 1200.73, 32 1200 M488 1200 C392.88 1201.08, 297.43 1200.23, 32 1200 M32 1200 C10.84 1199.74, -0.42 1188.08, 0 1168 M32 1200 C8.57 1200.95, 2.21 1188.07, 0 1168 M0 1168 C-0.64 817.99, -1.25 466.1, 0 32 M0 1168 C0.85 841.88, 0.93 515.97, 0 32 M0 32 C1.64 10.25, 9.74 -1.5, 32 0 M0 32 C-0.54 12.46, 10.88 -0.99, 32 0" stroke="#454a4a" stroke-width="1" fill="none"></path></g><g stroke-linecap="round" transform="translate(1470 210) rotate(0 190 70)"><path d="M229.19 1.73 C247.94 2.22, 268.14 6.29, 285.26 9.8 C302.38 13.31, 318.94 17.54, 331.9 22.78 C344.85 28.03, 355.21 34.47, 363 41.26 C370.8 48.05, 376.63 56.32, 378.67 63.53 C380.71 70.73, 379.31 77.48, 375.25 84.49 C371.19 91.5, 363.78 99.38, 354.29 105.59 C344.79 111.79, 332.78 117.12, 318.26 121.71 C303.75 126.3, 285.23 130.02, 267.2 133.13 C249.16 136.25, 229.4 139.56, 210.04 140.38 C190.67 141.2, 170.21 139.52, 151 138.07 C131.78 136.62, 111.81 135.15, 94.76 131.68 C77.72 128.21, 61.82 122.86, 48.72 117.26 C35.63 111.66, 24.19 104.59, 16.21 98.08 C8.22 91.57, 2.87 85.38, 0.82 78.2 C-1.23 71.03, -0.15 62.27, 3.93 55.05 C8 47.83, 15.46 41.17, 25.28 34.89 C35.09 28.61, 48.41 22.01, 62.8 17.37 C77.2 12.73, 93.73 9.95, 111.63 7.03 C129.53 4.12, 149.97 0.84, 170.19 -0.13 C190.41 -1.11, 221.99 0.66, 232.94 1.19 C243.89 1.73, 236.76 1.99, 235.87 3.07" stroke="none" stroke-width="0" fill="#a5d8ff"></path><path d="M230.18 0.66 C248.84 0.99, 268.18 5.38, 285.13 9.15 C302.08 12.92, 318.77 17.87, 331.89 23.27 C345.01 28.67, 356.13 34.87, 363.86 41.55 C371.6 48.22, 376.39 55.96, 378.3 63.33 C380.21 70.7, 379.41 78.69, 375.32 85.77 C371.23 92.85, 363.67 99.58, 353.76 105.81 C343.85 112.05, 330.36 118.42, 315.88 123.17 C301.39 127.93, 284.64 131.61, 266.85 134.32 C249.06 137.02, 228.66 138.76, 209.14 139.41 C189.61 140.05, 168.86 139.61, 149.72 138.19 C130.57 136.76, 111.17 134.58, 94.27 130.84 C77.37 127.1, 61.45 121.18, 48.3 115.73 C35.14 110.28, 23.35 104.44, 15.35 98.12 C7.34 91.81, 2.21 84.89, 0.25 77.84 C-1.71 70.79, -0.58 63.17, 3.58 55.84 C7.73 48.5, 15.29 40.33, 25.18 33.82 C35.07 27.3, 48.35 21.31, 62.95 16.77 C77.54 12.23, 94.65 9.27, 112.74 6.58 C130.83 3.89, 150.52 1.38, 171.48 0.64 C192.44 -0.1, 226.63 1.51, 238.51 2.14 C250.39 2.77, 243.72 3.29, 242.76 4.4" stroke="#4dabf7" stroke-width="1.5" fill="none" stroke-dasharray="8 9"></path></g><g transform="translate(1534.061820949556 259.3025253169417) rotate(0 126.087890625 20.700000000000045)"><text x="126.087890625" y="0" font-family="Helvetica, Segoe UI Emoji" font-size="36px" fill="#1e1e1e" text-anchor="middle" style="white-space: pre;" direction="ltr" dominant-baseline="text-before-edge">Request Queue</text></g><g stroke-linecap="round" transform="translate(1470 430) rotate(0 210 76)"><path d="M281.16 5.05 C300.88 6.52, 320.63 12.03, 337.35 16.3 C354.06 20.56, 369.6 24.66, 381.46 30.66 C393.32 36.66, 401.96 45.17, 408.49 52.29 C415.02 59.41, 420.17 66.07, 420.64 73.36 C421.11 80.65, 417.11 88.7, 411.32 96.03 C405.52 103.36, 396.88 111.15, 385.88 117.37 C374.89 123.59, 361.18 128.61, 345.35 133.35 C329.51 138.08, 309.9 142.63, 290.87 145.76 C271.83 148.9, 251.5 151.34, 231.14 152.17 C210.79 152.99, 189.04 152.41, 168.72 150.73 C148.4 149.04, 127.41 145.51, 109.22 142.06 C91.03 138.61, 73.9 135.12, 59.57 130 C45.24 124.88, 32.75 118.26, 23.26 111.33 C13.78 104.41, 6.13 95.84, 2.67 88.44 C-0.79 81.05, -0.11 74.31, 2.48 66.97 C5.08 59.63, 9.99 51.29, 18.27 44.42 C26.55 37.54, 38.58 31.15, 52.17 25.75 C65.75 20.34, 82.12 15.97, 99.77 12 C117.42 8.03, 137.93 3.81, 158.07 1.91 C178.21 0.01, 199.28 -0.05, 220.6 0.6 C241.93 1.26, 274.56 4.68, 286.02 5.87 C297.48 7.06, 290.44 6.74, 289.36 7.75" stroke="none" stroke-width="0" fill="#ffc9c9"></path><path d="M219.93 -0.14 C239.66 -1.28, 260.82 0.99, 280.08 3.66 C299.34 6.34, 318.85 11.38, 335.47 15.9 C352.09 20.43, 367.71 24.74, 379.8 30.8 C391.89 36.87, 401.41 45.12, 408.03 52.31 C414.65 59.5, 418.86 66.71, 419.54 73.92 C420.22 81.13, 417.57 88.31, 412.13 95.58 C406.68 102.85, 397.92 111.26, 386.88 117.55 C375.84 123.85, 361.56 128.68, 345.89 133.35 C330.22 138.03, 311.75 142.68, 292.85 145.6 C273.96 148.51, 253.15 149.87, 232.51 150.86 C211.87 151.85, 189.23 152.91, 169.02 151.51 C148.8 150.11, 129.23 146.23, 111.23 142.45 C93.23 138.67, 75.46 134.12, 61.02 128.83 C46.58 123.55, 34.28 117.42, 24.57 110.74 C14.86 104.06, 6.75 96.11, 2.77 88.76 C-1.21 81.4, -1.89 73.95, 0.69 66.58 C3.27 59.21, 9.7 51.28, 18.23 44.55 C26.76 37.83, 38.31 31.67, 51.86 26.21 C65.41 20.75, 82.05 15.69, 99.54 11.8 C117.03 7.92, 135.47 4.85, 156.77 2.91 C178.07 0.97, 214.67 0.2, 227.35 0.16 C240.03 0.13, 233.24 1.36, 232.85 2.69" stroke="#4dabf7" stroke-width="1.5" fill="none" stroke-dasharray="8 9"></path></g><g transform="translate(1539.9099197008254 485.0598846298226) rotate(0 140.09765625 20.700000000000045)"><text x="140.09765625" y="0" font-family="Helvetica, Segoe UI Emoji" font-size="36px" fill="#1e1e1e" text-anchor="middle" style="white-space: pre;" direction="ltr" dominant-baseline="text-before-edge">Response Queue</text></g><g stroke-linecap="round" transform="translate(2090 130) rotate(0 260 600)"><path d="M31.6 -1.71 L487.05 -0.21 L493.78 -0.55 L507.4 2.55 L517.38 14.47 L519.16 17.57 L519.18 31.19 L521.46 1166.07 L518.68 1177.26 L516.18 1189.09 L508.6 1193.58 L503.89 1196.42 L488.4 1199.84 L33.4 1199.13 L23.22 1199.51 L11.23 1194.1 L6.45 1186.35 L0.6 1183.97 L-1.82 1169.89 L1 30.67 L1.74 19.95 L7.08 8.39 L19.16 3.12 L33.24 -0.87" stroke="none" stroke-width="0" fill="#fff"></path><path d="M32 0 M32 0 C196.5 -0.8, 359.7 -1.43, 488 0 M32 0 C191.84 0.44, 352.83 0.47, 488 0 M488 0 C508.62 1.88, 518.19 9.43, 520 32 M488 0 C509.85 -0.73, 520.3 11.13, 520 32 M520 32 C519.23 353.14, 519.69 674.35, 520 1168 M520 32 C517.69 432.07, 518.23 832.31, 520 1168 M520 1168 C519.81 1190.88, 509.11 1200.94, 488 1200 M520 1168 C519.53 1191.42, 508.75 1200.58, 488 1200 M488 1200 C379.9 1198.35, 272.74 1198.46, 32 1200 M488 1200 C311.56 1200, 135.78 1200.49, 32 1200 M32 1200 C12.37 1198.72, 1.59 1190.06, 0 1168 M32 1200 C12.3 1201.83, 0.6 1190.74, 0 1168 M0 1168 C4.54 917.82, 3.82 667.57, 0 32 M0 1168 C2.81 796.64, 2.94 424.55, 0 32 M0 32 C1.35 10.29, 10.65 -1.22, 32 0 M0 32 C-0.08 9.66, 9.14 -2.21, 32 0" stroke="#454a4a" stroke-width="1" fill="none"></path></g><g stroke-linecap="round" transform="translate(2190 170) rotate(0 170 60)"><path d="M31.95 -0.92 L310.39 1.16 L324.24 3.11 L331.63 8.69 L336.56 12.82 L340.69 23.78 L339.59 89.49 L339.15 104.33 L335.28 106.74 L327.84 117.57 L322.85 117.41 L311.88 118.19 L28.76 120.45 L16.24 118.38 L7.9 112.15 L3.93 106.34 L0.18 96.87 L1.33 22.85 L5.26 10.86 L8.56 5.72 L16.89 2.8 L30.81 -0.19" stroke="none" stroke-width="0" fill="#ffffff"></path><path d="M30 0 M30 0 C135.29 0.38, 240.83 -0.62, 310 0 M310 0 C328.72 -1.69, 339.09 8.89, 340 30 M340 30 C341.65 42.48, 340.16 55.57, 340 90 M340 90 C338.93 109.08, 331.02 121.7, 310 120 M310 120 C244.95 122, 178.12 121.72, 30 120 M30 120 C8.41 118.3, 0.37 111.69, 0 90 M0 90 C0.57 67.74, -0.24 47.75, 0 30 M0 30 C1.52 10.41, 9.39 1.35, 30 0" stroke="#228be6" stroke-width="1.5" fill="none" stroke-dasharray="8 9"></path></g><g transform="translate(2268.9541015625 209.30000000000018) rotate(0 91.0458984375 20.700000000000045)"><text x="91.0458984375" y="0" font-family="Helvetica, Segoe UI Emoji" font-size="36px" fill="#228be6" text-anchor="middle" style="white-space: pre;" direction="ltr" dominant-baseline="text-before-edge">API Thread</text></g><g stroke-linecap="round" transform="translate(2190 990) rotate(0 170 60)"><path d="M28.89 -1.43 L309.77 -1.18 L324.84 0.63 L332.73 5.63 L334.71 10.8 L340.55 24.67 L338.72 91.59 L338.85 104.55 L337.37 108.8 L329.51 114.19 L321.43 118.49 L311.69 121 L29.9 121.81 L17.42 116.87 L7.23 112.26 L5.74 108.69 L-0.14 98.38 L0.09 22.95 L3 11.65 L6.63 6.17 L14.95 2.94 L29.61 -1.09" stroke="none" stroke-width="0" fill="#ffffff"></path><path d="M30 0 M30 0 C108.98 -3.21, 189.26 -3.46, 310 0 M310 0 C329.81 -0.63, 340.72 11.77, 340 30 M340 30 C341.33 50.73, 338.86 73.69, 340 90 M340 90 C339.11 111.47, 331.13 120.78, 310 120 M310 120 C223.49 119.43, 139.64 119.47, 30 120 M30 120 C8.25 121.23, 1.71 111.64, 0 90 M0 90 C2 77.04, 1.06 59.59, 0 30 M0 30 C1.77 9.13, 9.55 -0.72, 30 0" stroke="#228be6" stroke-width="1.5" fill="none" stroke-dasharray="8 9"></path></g><g transform="translate(2268.9541015625 1029.3000000000002) rotate(0 91.0458984375 20.700000000000045)"><text x="91.0458984375" y="0" font-family="Helvetica, Segoe UI Emoji" font-size="36px" fill="#228be6" text-anchor="middle" style="white-space: pre;" direction="ltr" dominant-baseline="text-before-edge">API Thread</text></g><g stroke-linecap="round" transform="translate(2190 830) rotate(0 170 60)"><path d="M30.23 -1.87 L308.93 -0.92 L324.14 3.57 L331.22 9.09 L336.51 13.14 L341.12 23.49 L341.23 88.41 L336.43 103.49 L337.47 109.28 L328.18 117.59 L323.67 116.87 L309.73 119.76 L31.52 120.41 L16.26 119.48 L7.12 112.48 L3 108.21 L-0.4 95.7 L-1.46 24.03 L3.83 10.63 L7.23 8.03 L18.79 0.21 L28.49 -1.66" stroke="none" stroke-width="0" fill="#ffffff"></path><path d="M30 0 M30 0 C88.81 2.03, 147.61 0.42, 310 0 M310 0 C328.11 1.43, 338.47 8.96, 340 30 M340 30 C340.86 46.29, 339.81 59.2, 340 90 M340 90 C340.29 108.03, 328.84 119.53, 310 120 M310 120 C242.77 122.58, 172.12 120.06, 30 120 M30 120 C10.12 121.51, 1.93 110.57, 0 90 M0 90 C-0.98 73.19, 1.45 56.57, 0 30 M0 30 C-1.77 10.92, 9.97 -0.81, 30 0" stroke="#228be6" stroke-width="1.5" fill="none" stroke-dasharray="8 9"></path></g><g transform="translate(2268.9541015625 869.3000000000002) rotate(0 91.0458984375 20.700000000000045)"><text x="91.0458984375" y="0" font-family="Helvetica, Segoe UI Emoji" font-size="36px" fill="#228be6" text-anchor="middle" style="white-space: pre;" direction="ltr" dominant-baseline="text-before-edge">API Thread</text></g><g stroke-linecap="round" transform="translate(2190 650) rotate(0 170 60)"><path d="M28.72 1.59 L310.72 1.42 L324.72 2.4 L333.73 5.91 L334.08 12.09 L341.22 23.97 L339.9 91.81 L338.67 101.87 L335.51 108.04 L329.8 116.19 L322.51 119.48 L309.62 119.98 L28.78 119.93 L16 116.8 L5.57 113.56 L3.83 107.19 L0.2 97.56 L2.38 21.3 L2.71 10.06 L5.66 7.31 L16.24 2.6 L31.77 1.42" stroke="none" stroke-width="0" fill="#ffffff"></path><path d="M30 0 M30 0 C108.15 -2.33, 188.02 -2.22, 310 0 M310 0 C331.47 1.13, 340.78 10.07, 340 30 M340 30 C338.93 42.05, 338.98 53.3, 340 90 M340 90 C341.23 111.71, 331.64 118.96, 310 120 M310 120 C250.58 122.05, 187.71 122.97, 30 120 M30 120 C9.13 119.55, -0.72 111.98, 0 90 M0 90 C0.5 74.95, 1.37 62.07, 0 30 M0 30 C1.85 9.09, 8.87 -0.35, 30 0" stroke="#228be6" stroke-width="1.5" fill="none" stroke-dasharray="8 9"></path></g><g transform="translate(2268.9541015625 689.3000000000002) rotate(0 91.0458984375 20.700000000000045)"><text x="91.0458984375" y="0" font-family="Helvetica, Segoe UI Emoji" font-size="36px" fill="#228be6" text-anchor="middle" style="white-space: pre;" direction="ltr" dominant-baseline="text-before-edge">API Thread</text></g><g stroke-linecap="round" transform="translate(2190 490) rotate(0 170 60)"><path d="M31.23 -1.59 L308.3 0.37 L324.81 2.88 L332.4 9.31 L336.32 10.46 L339.26 22.73 L341.52 90.41 L337.51 104.48 L335.4 108.26 L327.06 115.71 L322.25 116.8 L308.07 121.06 L29.61 118.91 L16.61 118.66 L9.41 110.83 L2.71 106.62 L-1.37 96.84 L-0.16 23.69 L5.99 13.14 L7.17 5.61 L18.31 0.34 L28.96 -0.83" stroke="none" stroke-width="0" fill="#ffffff"></path><path d="M30 0 M30 0 C102.19 -1.15, 171.79 -0.98, 310 0 M310 0 C328.03 -1.16, 339.53 8.9, 340 30 M340 30 C342.01 41.7, 338.72 55.6, 340 90 M340 90 C341.51 111.93, 330.57 119.36, 310 120 M310 120 C200.66 121.03, 91.46 118.16, 30 120 M30 120 C10.92 119.97, -0.81 110.84, 0 90 M0 90 C-1.68 70.02, -0.54 50.04, 0 30 M0 30 C1.12 8.95, 9.14 0.89, 30 0" stroke="#228be6" stroke-width="1.5" fill="none" stroke-dasharray="8 9"></path></g><g transform="translate(2268.9541015625 529.3000000000002) rotate(0 91.0458984375 20.700000000000045)"><text x="91.0458984375" y="0" font-family="Helvetica, Segoe UI Emoji" font-size="36px" fill="#228be6" text-anchor="middle" style="white-space: pre;" direction="ltr" dominant-baseline="text-before-edge">API Thread</text></g><g stroke-linecap="round" transform="translate(2190 330) rotate(0 170 60)"><path d="M29.9 1.81 L310.54 -1.26 L322.85 1.64 L334.02 7.91 L335.17 13.07 L339.15 22.95 L338.78 89.93 L337.25 101.8 L333.86 109.34 L327.89 114.69 L322.86 118.66 L311.91 118.33 L28.49 118.34 L15.04 117.93 L6.87 113.22 L5.99 109.7 L0.14 95.14 L1.9 21.44 L3.18 10.89 L6.61 8.97 L18 2.65 L30.07 -1.83" stroke="none" stroke-width="0" fill="#ffffff"></path><path d="M30 0 M30 0 C117.76 0.4, 204.89 2.19, 310 0 M310 0 C331.71 1.64, 338.96 8.35, 340 30 M340 30 C341.02 47.72, 342.22 65.84, 340 90 M340 90 C339.55 109.28, 331.98 118.75, 310 120 M310 120 C250.15 120.61, 191.96 121.39, 30 120 M30 120 C9.09 118.87, -0.35 110.02, 0 90 M0 90 C-1.19 74.98, -0.69 58.54, 0 30 M0 30 C-1.81 9.13, 9.79 1.03, 30 0" stroke="#228be6" stroke-width="1.5" fill="none" stroke-dasharray="8 9"></path></g><g transform="translate(2268.9541015625 369.3000000000002) rotate(0 91.0458984375 20.700000000000045)"><text x="91.0458984375" y="0" font-family="Helvetica, Segoe UI Emoji" font-size="36px" fill="#228be6" text-anchor="middle" style="white-space: pre;" direction="ltr" dominant-baseline="text-before-edge">API Thread</text></g><g stroke-linecap="round"><g transform="translate(390 230) rotate(0 179.86728764042255 0.455468856714333)"><path d="M-1.15 0.59 C58.51 0.74, 298.73 1.45, 358.8 1.18 M0.44 -0.14 C60.37 -0.32, 301.26 -0.31, 360.89 -0.33" stroke="#1e1e1e" stroke-width="1" fill="none"></path></g><g transform="translate(390 230) rotate(0 179.86728764042255 0.455468856714333)"><path d="M333.68 7.94 C345.08 5.27, 351.85 3.42, 359.74 -2.32 M332.21 8.96 C338.44 7.34, 343.71 4.78, 361.43 0.3" stroke="#1e1e1e" stroke-width="1" fill="none"></path></g><g transform="translate(390 230) rotate(0 179.86728764042255 0.455468856714333)"><path d="M333.68 -12.58 C345.13 -7.65, 351.9 -1.89, 359.74 -2.32 M332.21 -11.57 C338.44 -8.94, 343.7 -7.24, 361.43 0.3" stroke="#1e1e1e" stroke-width="1" fill="none"></path></g></g><mask></mask><g stroke-linecap="round"><g transform="translate(390 270) rotate(0 180.40078560523716 0.12768943447213132)"><path d="M-0.33 0.29 C59.82 0.26, 301.11 -0.55, 361.13 -0.44 M1.69 -0.61 C61.77 -0.45, 301.24 0.91, 360.78 0.86" stroke="#1e1e1e" stroke-width="1" fill="none"></path></g><g transform="translate(390 270) rotate(0 180.40078560523716 0.12768943447213132)"><path d="M333.04 12.93 C340.82 7.54, 352.09 6.32, 360.3 0.1 M332.97 10.56 C343.28 8.25, 353.39 3.89, 361.07 0.02" stroke="#1e1e1e" stroke-width="1" fill="none"></path></g><g transform="translate(390 270) rotate(0 180.40078560523716 0.12768943447213132)"><path d="M333.1 -7.59 C340.82 -6.45, 352.07 -1.14, 360.3 0.1 M333.03 -9.96 C343.47 -4.54, 353.56 -1.19, 361.07 0.02" stroke="#1e1e1e" stroke-width="1" fill="none"></path></g></g><mask></mask><g stroke-linecap="round"><g transform="translate(390 310) rotate(0 179.91340551562644 0.4285666534876782)"><path d="M-1.17 -0.72 C59.04 -0.75, 301 -0.19, 361 -0.09 M0.41 1.52 C60.58 1.67, 300.46 1.46, 360.58 1.4" stroke="#1e1e1e" stroke-width="1" fill="none"></path></g><g transform="translate(390 310) rotate(0 179.91340551562644 0.4285666534876782)"><path d="M331.2 13.36 C340 7.17, 347.75 6.43, 359.51 1.23 M333.07 12.18 C341.05 8.97, 350.61 6.11, 361.06 1.17" stroke="#1e1e1e" stroke-width="1" fill="none"></path></g><g transform="translate(390 310) rotate(0 179.91340551562644 0.4285666534876782)"><path d="M331.19 -7.17 C340 -7.7, 347.76 -2.79, 359.51 1.23 M333.05 -8.34 C340.98 -5.05, 350.55 -1.42, 361.06 1.17" stroke="#1e1e1e" stroke-width="1" fill="none"></path></g></g><mask></mask><g stroke-linecap="round" transform="translate(2190 1150) rotate(0 170 60)"><path d="M31.07 1.01 L310.62 -1.19 L324.51 1.92 L331.56 5.53 L334.23 10.23 L338.36 24.25 L341.48 89.67 L337.16 101.32 L334.76 108.3 L329.35 116.39 L323.87 117.38 L308.61 120.61 L29.84 118.31 L16.49 118.6 L6.1 113.82 L4.55 106.98 L-0.86 98.7 L-0.27 22.99 L3.16 11.63 L6.71 8.87 L18.49 3.75 L31.26 1.92" stroke="none" stroke-width="0" fill="#ffffff"></path><path d="M30 0 M30 0 C89.14 0.81, 145.33 0.86, 310 0 M310 0 C330.32 1.18, 340.31 9.06, 340 30 M340 30 C339.66 53.67, 341.09 75.24, 340 90 M340 90 C340.6 108.46, 330.23 121.98, 310 120 M310 120 C200.89 121.05, 92.63 120.13, 30 120 M30 120 C11.46 119.96, 0.67 111.49, 0 90 M0 90 C0.55 70.33, -1.56 48.93, 0 30 M0 30 C-1.32 11.44, 11.44 1.53, 30 0" stroke="#228be6" stroke-width="1.5" fill="none" stroke-dasharray="8 9"></path></g><g transform="translate(2268.9541015625 1189.3000000000002) rotate(0 91.0458984375 20.700000000000045)"><text x="91.0458984375" y="0" font-family="Helvetica, Segoe UI Emoji" font-size="36px" fill="#228be6" text-anchor="middle" style="white-space: pre;" direction="ltr" dominant-baseline="text-before-edge">API Thread</text></g><g stroke-linecap="round"><g transform="translate(930 350) rotate(0 0.42139143272015644 50.048497825190225)"><path d="M0.86 0.92 C1.14 17.24, 0.86 82.26, 0.87 98.82 M-0.14 0.35 C0.12 16.71, 0.25 82.83, 0.37 99.74" stroke="#f08c00" stroke-width="1" fill="none"></path></g><g transform="translate(930 350) rotate(0 0.42139143272015644 50.048497825190225)"><path d="M-8.48 73.04 C-9.34 79.57, -4.41 84.39, -0.95 98.97 M-9.13 71.27 C-6.91 79.03, -3.92 87.64, 0.84 99.5" stroke="#f08c00" stroke-width="1" fill="none"></path></g><g transform="translate(930 350) rotate(0 0.42139143272015644 50.048497825190225)"><path d="M12.04 72.95 C6.38 79.65, 6.5 84.48, -0.95 98.97 M11.4 71.18 C7.72 78.98, 4.82 87.63, 0.84 99.5" stroke="#f08c00" stroke-width="1" fill="none"></path></g></g><mask></mask><g stroke-linecap="round"><g transform="translate(1110 510) rotate(0 180.3886529725046 -110.13236423544595)"><path d="M-0.29 0.13 C59.97 -36.58, 300.98 -183.58, 361.06 -220.39 M1.76 -0.85 C61.99 -37.37, 301.04 -182.56, 360.67 -219.06" stroke="#f08c00" stroke-width="1" fill="none"></path></g><g transform="translate(1110 510) rotate(0 180.3886529725046 -110.13236423544595)"><path d="M342.15 -193.86 C346.21 -201.33, 350.48 -207.43, 360.48 -218.12 M342.53 -196.07 C347.27 -203, 352.38 -208.92, 360.64 -219.06" stroke="#f08c00" stroke-width="1" fill="none"></path></g><g transform="translate(1110 510) rotate(0 180.3886529725046 -110.13236423544595)"><path d="M331.47 -211.38 C338.3 -214.25, 345.36 -215.77, 360.48 -218.12 M331.85 -213.6 C339.59 -215.68, 347.65 -216.76, 360.64 -219.06" stroke="#f08c00" stroke-width="1" fill="none"></path></g></g><mask></mask><g stroke-linecap="round"><g transform="translate(1110 730) rotate(0 189.95680054612467 -209.68083802051842)"><path d="M-1.09 1.1 C62.54 -69.07, 317.44 -350.48, 381.01 -420.46 M0.53 0.64 C64.17 -69.42, 317.39 -348.98, 380.59 -419.17" stroke="#f08c00" stroke-width="1" fill="none"></path></g><g transform="translate(1110 730) rotate(0 189.95680054612467 -209.68083802051842)"><path d="M371.14 -389.7 C371.04 -397.22, 376.42 -403.47, 378.87 -420.57 M368.39 -390.9 C372.77 -401.01, 376.25 -410.67, 381.34 -419.66" stroke="#f08c00" stroke-width="1" fill="none"></path></g><g transform="translate(1110 730) rotate(0 189.95680054612467 -209.68083802051842)"><path d="M355.91 -403.45 C359.43 -407.62, 368.37 -410.66, 378.87 -420.57 M353.16 -404.66 C363.12 -409.82, 372.05 -414.56, 381.34 -419.66" stroke="#f08c00" stroke-width="1" fill="none"></path></g></g><mask></mask><g stroke-linecap="round"><g transform="translate(1110 970) rotate(0 200.1385812908411 -330.2261488895863)"><path d="M-0.85 -0.09 C65.46 -110.1, 331.99 -550.26, 398.96 -660.36 M0.9 -1.18 C67.48 -111, 334.49 -549.26, 401.13 -659.01" stroke="#f08c00" stroke-width="1" fill="none"></path></g><g transform="translate(1110 970) rotate(0 200.1385812908411 -330.2261488895863)"><path d="M395.1 -631.33 C397 -639.37, 398.76 -651.84, 400.43 -659.23 M394.83 -629.55 C397.26 -636.96, 397.6 -646.56, 400.52 -658.31" stroke="#f08c00" stroke-width="1" fill="none"></path></g><g transform="translate(1110 970) rotate(0 200.1385812908411 -330.2261488895863)"><path d="M377.56 -641.99 C386.26 -645.77, 394.84 -654.09, 400.43 -659.23 M377.3 -640.21 C384.61 -644.66, 389.83 -651.29, 400.52 -658.31" stroke="#f08c00" stroke-width="1" fill="none"></path></g></g><mask></mask><g stroke-linecap="round"><g transform="translate(1110 1190) rotate(0 210.24740637727064 -429.8467627603561)"><path d="M-0.59 0.27 C69.74 -143.12, 351.13 -716.47, 421.08 -859.96 M1.31 -0.63 C71.64 -143.85, 350.65 -715.22, 420.7 -858.41" stroke="#f08c00" stroke-width="1" fill="none"></path></g><g transform="translate(1110 1190) rotate(0 210.24740637727064 -429.8467627603561)"><path d="M417.99 -826.77 C418.23 -836.8, 417.7 -844.05, 421.57 -860.37 M417.33 -827.97 C418.22 -838.96, 418.69 -847.52, 420.96 -858.96" stroke="#f08c00" stroke-width="1" fill="none"></path></g><g transform="translate(1110 1190) rotate(0 210.24740637727064 -429.8467627603561)"><path d="M399.55 -835.78 C404.04 -843.66, 407.73 -848.85, 421.57 -860.37 M398.9 -836.98 C406.02 -844.81, 412.64 -850.37, 420.96 -858.96" stroke="#f08c00" stroke-width="1" fill="none"></path></g></g><mask></mask><g stroke-linecap="round"><g transform="translate(1480.356951765274 530.9213404459315) rotate(0 -185.04922462716922 -0.02388476250189342)"><path d="M0 -0.73 C-61.61 -1.07, -308.5 -1.71, -370.1 -1.52 M-1.46 1.51 C-62.65 1.24, -306.27 0.02, -367.78 -0.45" stroke="#ff8787" stroke-width="1" fill="none"></path></g><g transform="translate(1480.356951765274 530.9213404459315) rotate(0 -185.04922462716922 -0.02388476250189342)"><path d="M-340.74 -11.78 C-348.47 -8.29, -352.69 -3.99, -368.25 0.24 M-339.2 -11.09 C-350.39 -7.06, -360.18 -3.15, -367.86 -1.14" stroke="#ff8787" stroke-width="1" fill="none"></path></g><g transform="translate(1480.356951765274 530.9213404459315) rotate(0 -185.04922462716922 -0.02388476250189342)"><path d="M-340.86 8.74 C-348.66 6.79, -352.84 5.64, -368.25 0.24 M-339.33 9.43 C-350.37 5.98, -360.12 2.42, -367.86 -1.14" stroke="#ff8787" stroke-width="1" fill="none"></path></g></g><mask></mask><g stroke-linecap="round"><g transform="translate(1473.9602640275807 703.1288400979752) rotate(0 -181.69991580867008 33.86675158759385)"><path d="M0.18 0.63 C-60.26 12.05, -302.57 56.95, -363.09 67.82 M-1.19 -0.09 C-61.66 11.07, -303.25 55.08, -363.58 66.19" stroke="#ff8787" stroke-width="1" fill="none"></path></g><g transform="translate(1473.9602640275807 703.1288400979752) rotate(0 -181.69991580867008 33.86675158759385)"><path d="M-336.64 52.48 C-342.9 56.71, -352.94 57.47, -361.65 67.55 M-337.45 50.33 C-343.11 54.54, -348.1 58.04, -364.12 66.68" stroke="#ff8787" stroke-width="1" fill="none"></path></g><g transform="translate(1473.9602640275807 703.1288400979752) rotate(0 -181.69991580867008 33.86675158759385)"><path d="M-332.95 72.67 C-340.05 71.67, -351.04 67.2, -361.65 67.55 M-333.76 70.51 C-340.06 70.55, -345.81 69.89, -364.12 66.68" stroke="#ff8787" stroke-width="1" fill="none"></path></g></g><mask></mask><g stroke-linecap="round"><g transform="translate(1470.202665290577 1210) rotate(0 -179.78660523824647 -0.45333467865361854)"><path d="M-0.86 -0.2 C-60.8 -0.33, -300.02 -0.8, -359.75 -0.72 M0.89 -1.35 C-59.16 -1.34, -300.4 -0.08, -360.46 0.45" stroke="#ff8787" stroke-width="1" fill="none"></path></g><g transform="translate(1470.202665290577 1210) rotate(0 -179.78660523824647 -0.45333467865361854)"><path d="M-332.67 -9.25 C-341.68 -5.57, -348.1 -4.73, -358.64 1.57 M-333.04 -10.52 C-341.22 -6.52, -351.85 -2.88, -360.05 1.26" stroke="#ff8787" stroke-width="1" fill="none"></path></g><g transform="translate(1470.202665290577 1210) rotate(0 -179.78660523824647 -0.45333467865361854)"><path d="M-332.54 11.27 C-341.59 9, -348.05 3.88, -358.64 1.57 M-332.9 10 C-341.33 6.9, -352 3.44, -360.05 1.26" stroke="#ff8787" stroke-width="1" fill="none"></path></g></g><mask></mask><g stroke-linecap="round"><g transform="translate(1470.0109551255 874.6510345071533) rotate(0 -179.4531338621846 56.42882811476602)"><path d="M-0.72 -0.52 C-60.73 18.3, -299.34 93.5, -358.98 112.23 M1.1 1.83 C-59.18 20.85, -299.97 94.91, -360.01 113.37" stroke="#ff8787" stroke-width="1" fill="none"></path></g><g transform="translate(1470.0109551255 874.6510345071533) rotate(0 -179.4531338621846 56.42882811476602)"><path d="M-336.95 95.02 C-346.84 102.7, -356.84 108.66, -359.27 112.07 M-336.47 95.92 C-342.35 98.7, -347.8 104.21, -359.52 114.28" stroke="#ff8787" stroke-width="1" fill="none"></path></g><g transform="translate(1470.0109551255 874.6510345071533) rotate(0 -179.4531338621846 56.42882811476602)"><path d="M-330.91 114.64 C-343.06 114.58, -355.42 112.84, -359.27 112.07 M-330.43 115.53 C-337.72 113.87, -344.52 114.96, -359.52 114.28" stroke="#ff8787" stroke-width="1" fill="none"></path></g></g><mask></mask><g stroke-linecap="round"><g transform="translate(1460.4260921932473 1037.0094138032446) rotate(0 -174.81220033865884 -13.249184229162665)"><path d="M-1.17 0.57 C-59.43 -4.05, -291.45 -22.43, -349.56 -27.07 M0.42 -0.18 C-57.92 -4.66, -291.6 -21.24, -350.05 -25.56" stroke="#ff8787" stroke-width="1" fill="none"></path></g><g transform="translate(1460.4260921932473 1037.0094138032446) rotate(0 -174.81220033865884 -13.249184229162665)"><path d="M-320.24 -32.31 C-329.91 -30.58, -338.93 -29.21, -351.03 -24.24 M-321.49 -33.89 C-331.36 -30.07, -339.37 -28.56, -349.16 -24.71" stroke="#ff8787" stroke-width="1" fill="none"></path></g><g transform="translate(1460.4260921932473 1037.0094138032446) rotate(0 -174.81220033865884 -13.249184229162665)"><path d="M-321.72 -11.84 C-331.06 -16.24, -339.64 -21.02, -351.03 -24.24 M-322.97 -13.42 C-332.56 -16.24, -340.09 -21.36, -349.16 -24.71" stroke="#ff8787" stroke-width="1" fill="none"></path></g></g><mask></mask><g stroke-linecap="round"><g transform="translate(1911 251.02386067844918) rotate(0 89.48535711482145 0.05178854634596064)"><path d="M1.11 -0.98 C30.79 -0.67, 149.37 0.76, 178.74 0.72 M0.23 1.13 C29.76 1.19, 148.85 -0.75, 178.18 -1.02" stroke="#1971c2" stroke-width="1" fill="none"></path></g><g transform="translate(1911 251.02386067844918) rotate(0 89.48535711482145 0.05178854634596064)"><path d="M148.5 10.83 C161.43 4.42, 168.26 0.77, 176.3 0.93 M150.4 9.61 C158.88 5.79, 167.25 4.05, 178.49 -1.6" stroke="#1971c2" stroke-width="1" fill="none"></path></g><g transform="translate(1911 251.02386067844918) rotate(0 89.48535711482145 0.05178854634596064)"><path d="M148.23 -9.69 C161.07 -8.78, 167.99 -5.12, 176.3 0.93 M150.14 -10.91 C158.85 -8.33, 167.3 -3.68, 178.49 -1.6" stroke="#1971c2" stroke-width="1" fill="none"></path></g></g><mask></mask><g stroke-linecap="round"><g transform="translate(2089 291.0238606784492) rotate(0 -88.34542359655734 -0.6622882262911389)"><path d="M-0.92 -0.33 C-30.43 -0.29, -147.41 0.25, -177.04 0.37 M0.79 -1.55 C-28.79 -1.89, -147.38 -1.53, -177.48 -1.56" stroke="#1971c2" stroke-width="1" fill="none"></path></g><g transform="translate(2089 291.0238606784492) rotate(0 -88.34542359655734 -0.6622882262911389)"><path d="M-149.85 -10.25 C-157.14 -10.12, -165.56 -5.42, -176.76 -2.49 M-148.72 -11.56 C-159.86 -7.32, -170.72 -4.13, -176.72 -1.22" stroke="#1971c2" stroke-width="1" fill="none"></path></g><g transform="translate(2089 291.0238606784492) rotate(0 -88.34542359655734 -0.6622882262911389)"><path d="M-149.83 10.27 C-157.15 4.23, -165.57 2.77, -176.76 -2.49 M-148.7 8.96 C-159.98 5.5, -170.84 0.98, -176.72 -1.22" stroke="#1971c2" stroke-width="1" fill="none"></path></g></g><mask></mask><g stroke-linecap="round"><g transform="translate(1911.1073727291077 371.10682412572214) rotate(0 89.40909950919468 -0.5575916726143078)"><path d="M-0.87 -0.01 C29.06 -0.16, 149.73 -0.91, 179.69 -1.11 M0.87 -1.06 C30.61 -1.09, 148.53 -0.24, 178.58 -0.15" stroke="#1971c2" stroke-width="1" fill="none"></path></g><g transform="translate(1911.1073727291077 371.10682412572214) rotate(0 89.40909950919468 -0.5575916726143078)"><path d="M150.32 9.45 C157.19 5.21, 165.73 2.38, 180.22 -1.71 M150.82 9.87 C160.56 6.13, 170.31 3.34, 179.08 0.59" stroke="#1971c2" stroke-width="1" fill="none"></path></g><g transform="translate(1911.1073727291077 371.10682412572214) rotate(0 89.40909950919468 -0.5575916726143078)"><path d="M150.43 -11.07 C157.23 -9, 165.75 -5.53, 180.22 -1.71 M150.93 -10.66 C160.45 -7.45, 170.16 -3.29, 179.08 0.59" stroke="#1971c2" stroke-width="1" fill="none"></path></g></g><mask></mask><g stroke-linecap="round"><g transform="translate(2091.1073727291077 411.10682412572214) rotate(0 -89.68801788358951 -0.22066231163330485)"><path d="M-0.31 -1.11 C-30.35 -1.3, -151 -1.54, -181.11 -1.19 M1.73 0.93 C-27.88 0.83, -148.93 0.02, -178.98 -0.28" stroke="#1971c2" stroke-width="1" fill="none"></path></g><g transform="translate(2091.1073727291077 411.10682412572214) rotate(0 -89.68801788358951 -0.22066231163330485)"><path d="M-152.55 -12.16 C-159.11 -9.68, -161.92 -7.38, -178.21 -2.11 M-150.13 -10.96 C-156.02 -8.17, -162.41 -5.24, -178.93 0.43" stroke="#1971c2" stroke-width="1" fill="none"></path></g><g transform="translate(2091.1073727291077 411.10682412572214) rotate(0 -89.68801788358951 -0.22066231163330485)"><path d="M-152.71 8.36 C-159.24 6.18, -162 3.81, -178.21 -2.11 M-150.3 9.56 C-156.25 7.9, -162.6 6.38, -178.93 0.43" stroke="#1971c2" stroke-width="1" fill="none"></path></g></g><mask></mask><g stroke-linecap="round"><g transform="translate(1911 531.2179332377946) rotate(0 90.05548886377346 0.08305473631253335)"><path d="M1.2 -0.81 C31.26 -0.86, 149.98 0.27, 179.74 0.59 M0.37 1.38 C30.35 0.9, 149.14 -0.89, 178.94 -1.22" stroke="#1971c2" stroke-width="1" fill="none"></path></g><g transform="translate(1911 531.2179332377946) rotate(0 90.05548886377346 0.08305473631253335)"><path d="M149.55 9.89 C158.73 7.05, 166.59 5.25, 180.73 -2.5 M151.03 8.97 C160.76 6.19, 171.7 2.24, 177.98 -0.65" stroke="#1971c2" stroke-width="1" fill="none"></path></g><g transform="translate(1911 531.2179332377946) rotate(0 90.05548886377346 0.08305473631253335)"><path d="M149.27 -10.63 C158.68 -8.41, 166.6 -5.14, 180.73 -2.5 M150.76 -11.55 C160.44 -6.79, 171.47 -3.19, 177.98 -0.65" stroke="#1971c2" stroke-width="1" fill="none"></path></g></g><mask></mask><g stroke-linecap="round"><g transform="translate(2090.4576687583885 571.2179332377946) rotate(0 -89.81546543540435 0.3907437387015307)"><path d="M0.28 0.59 C-29.77 0.92, -149.32 1.07, -179.14 1.15 M-1.03 -0.14 C-31.32 -0.05, -150.26 -0.27, -179.92 -0.37" stroke="#1971c2" stroke-width="1" fill="none"></path></g><g transform="translate(2090.4576687583885 571.2179332377946) rotate(0 -89.81546543540435 0.3907437387015307)"><path d="M-150.71 -10.03 C-161.14 -5.05, -172.54 -3.62, -178.56 -1.88 M-152.22 -9.72 C-161.72 -6.22, -172.91 -2.79, -180.61 0.42" stroke="#1971c2" stroke-width="1" fill="none"></path></g><g transform="translate(2090.4576687583885 571.2179332377946) rotate(0 -89.81546543540435 0.3907437387015307)"><path d="M-150.76 10.49 C-161.03 7.26, -172.42 0.48, -178.56 -1.88 M-152.27 10.81 C-161.78 6.93, -172.96 2.99, -180.61 0.42" stroke="#1971c2" stroke-width="1" fill="none"></path></g></g><mask></mask><g stroke-linecap="round"><g transform="translate(1911 691.5715827878494) rotate(0 89.39413448367259 -0.22013003006213694)"><path d="M-0.59 -0.3 C29.41 -0.26, 149.27 1.11, 179.38 1.13 M1.31 -1.5 C31.17 -1.84, 148.61 -0.83, 178.32 -0.4" stroke="#1971c2" stroke-width="1" fill="none"></path></g><g transform="translate(1911 691.5715827878494) rotate(0 89.39413448367259 -0.22013003006213694)"><path d="M149.52 9.21 C158.94 8, 163.88 4.65, 177.86 1.33 M149.34 10.15 C156.97 7.56, 163.54 4.69, 178.28 -0.86" stroke="#1971c2" stroke-width="1" fill="none"></path></g><g transform="translate(1911 691.5715827878494) rotate(0 89.39413448367259 -0.22013003006213694)"><path d="M149.74 -11.31 C159.25 -7.37, 164.14 -5.57, 177.86 1.33 M149.56 -10.37 C157.29 -8.15, 163.8 -6.2, 178.28 -0.86" stroke="#1971c2" stroke-width="1" fill="none"></path></g></g><mask></mask><g stroke-linecap="round"><g transform="translate(2090.587389962003 731.5715827878494) rotate(0 -90.00804834718838 0.5605645494069904)"><path d="M-0.21 1.13 C-29.97 1.15, -149.21 0.07, -179.11 -0.16 M-1.78 0.68 C-31.6 0.92, -150.04 1.25, -179.8 1.29" stroke="#1971c2" stroke-width="1" fill="none"></path></g><g transform="translate(2090.587389962003 731.5715827878494) rotate(0 -90.00804834718838 0.5605645494069904)"><path d="M-149.75 -8.24 C-159.01 -6.54, -166.26 -2.18, -181.11 2.71 M-151.25 -8.88 C-158.15 -6.76, -165.25 -4.38, -180.33 0.43" stroke="#1971c2" stroke-width="1" fill="none"></path></g><g transform="translate(2090.587389962003 731.5715827878494) rotate(0 -90.00804834718838 0.5605645494069904)"><path d="M-149.71 12.28 C-158.92 8.83, -166.19 8.04, -181.11 2.71 M-151.2 11.65 C-157.98 8.84, -165.09 6.3, -180.33 0.43" stroke="#1971c2" stroke-width="1" fill="none"></path></g></g><mask></mask><g stroke-linecap="round"><g transform="translate(1911.2024319741686 871.2178496282295) rotate(0 90.12049747891751 -0.09939313359245716)"><path d="M-0.91 -1.05 C29.23 -1.3, 151.03 -1.24, 181.15 -1.09 M0.81 1.02 C30.87 0.84, 151.11 -0.14, 180.81 -0.12" stroke="#1971c2" stroke-width="1" fill="none"></path></g><g transform="translate(1911.2024319741686 871.2178496282295) rotate(0 90.12049747891751 -0.09939313359245716)"><path d="M150.92 12.18 C159.99 6.82, 170.77 2.26, 181.37 -1.73 M152.18 9.33 C162.76 5.9, 174.98 2.38, 181.74 -0.24" stroke="#1971c2" stroke-width="1" fill="none"></path></g><g transform="translate(1911.2024319741686 871.2178496282295) rotate(0 90.12049747891751 -0.09939313359245716)"><path d="M150.83 -8.34 C160 -7.01, 170.81 -4.88, 181.37 -1.73 M152.09 -11.19 C162.51 -6.79, 174.76 -2.46, 181.74 -0.24" stroke="#1971c2" stroke-width="1" fill="none"></path></g></g><mask></mask><g stroke-linecap="round"><g transform="translate(2091.2024319741686 911.2178496282295) rotate(0 -90.02562698199381 0.2320081053821923)"><path d="M1.15 -1.09 C-28.72 -0.93, -149.83 -0.36, -180.17 -0.13 M0.3 0.96 C-29.67 1.4, -151.41 1.81, -181.2 1.35" stroke="#1971c2" stroke-width="1" fill="none"></path></g><g transform="translate(2091.2024319741686 911.2178496282295) rotate(0 -90.02562698199381 0.2320081053821923)"><path d="M-154.78 -9.07 C-159.59 -7.7, -165.15 -5.59, -179.56 -0.54 M-153.71 -9.3 C-159.71 -6.45, -166.91 -3.85, -181.92 1.24" stroke="#1971c2" stroke-width="1" fill="none"></path></g><g transform="translate(2091.2024319741686 911.2178496282295) rotate(0 -90.02562698199381 0.2320081053821923)"><path d="M-154.87 11.45 C-159.48 8.22, -165.02 5.73, -179.56 -0.54 M-153.8 11.22 C-159.68 8.68, -166.85 5.89, -181.92 1.24" stroke="#1971c2" stroke-width="1" fill="none"></path></g></g><mask></mask><g stroke-linecap="round"><g transform="translate(1911 1011.2665003674665) rotate(0 90.54993970212536 0.03875675177187077)"><path d="M1.12 -0.14 C30.74 -0.15, 148.81 -0.04, 178.59 -0.13 M0.25 -1.27 C30.17 -1.08, 151.03 1.09, 180.85 1.34" stroke="#1971c2" stroke-width="1" fill="none"></path></g><g transform="translate(1911 1011.2665003674665) rotate(0 90.54993970212536 0.03875675177187077)"><path d="M152.28 9.78 C162.84 7.83, 172.45 2.26, 179.87 0.45 M152.69 11.02 C162.58 8.47, 171.63 4.4, 181.31 0.67" stroke="#1971c2" stroke-width="1" fill="none"></path></g><g transform="translate(1911 1011.2665003674665) rotate(0 90.54993970212536 0.03875675177187077)"><path d="M152.56 -10.74 C163.01 -5.06, 172.51 -3, 179.87 0.45 M152.97 -9.5 C162.67 -5.01, 171.63 -2.02, 181.31 0.67" stroke="#1971c2" stroke-width="1" fill="none"></path></g></g><mask></mask><g stroke-linecap="round"><g transform="translate(2090.4487796235644 1051.2665003674665) rotate(0 -89.50394524076046 -0.37011219972760045)"><path d="M-0.86 -0.13 C-30.9 -0.22, -149.22 -0.6, -179.12 -0.68 M0.89 -1.24 C-29.38 -1.17, -150.12 0.22, -179.9 0.5" stroke="#1971c2" stroke-width="1" fill="none"></path></g><g transform="translate(2090.4487796235644 1051.2665003674665) rotate(0 -89.50394524076046 -0.37011219972760045)"><path d="M-152.03 -9.51 C-164.01 -7.46, -174.9 -2.85, -179.03 -0.4 M-151.53 -9.27 C-162.06 -6.28, -171.09 -3.36, -179.39 1.06" stroke="#1971c2" stroke-width="1" fill="none"></path></g><g transform="translate(2090.4487796235644 1051.2665003674665) rotate(0 -89.50394524076046 -0.37011219972760045)"><path d="M-151.81 11.01 C-163.86 4.99, -174.83 1.53, -179.03 -0.4 M-151.32 11.25 C-161.96 7.02, -171.07 2.72, -179.39 1.06" stroke="#1971c2" stroke-width="1" fill="none"></path></g></g><mask></mask><g stroke-linecap="round"><g transform="translate(1911.605140721258 1211.2245782327095) rotate(0 90.37726979965328 -0.14764051427664526)"><path d="M0.77 -0.12 C30.6 -0.15, 149.11 1.02, 178.91 0.92 M-0.29 -1.22 C29.91 -1.08, 151.23 -0.96, 181.04 -0.71" stroke="#1971c2" stroke-width="1" fill="none"></path></g><g transform="translate(1911.605140721258 1211.2245782327095) rotate(0 90.37726979965328 -0.14764051427664526)"><path d="M152.62 7.61 C162.46 5.58, 167.94 2.42, 181.64 -1.45 M152.58 9.35 C162.77 6.81, 171.61 3.38, 181.31 -1.71" stroke="#1971c2" stroke-width="1" fill="none"></path></g><g transform="translate(1911.605140721258 1211.2245782327095) rotate(0 90.37726979965328 -0.14764051427664526)"><path d="M152.7 -12.91 C162.72 -8.97, 168.17 -6.17, 181.64 -1.45 M152.66 -11.17 C162.87 -6.99, 171.69 -3.69, 181.31 -1.71" stroke="#1971c2" stroke-width="1" fill="none"></path></g></g><mask></mask><g stroke-linecap="round"><g transform="translate(2091.605140721258 1251.2245782327095) rotate(0 -90.53605254923923 0.10589181594536967)"><path d="M-1.09 0.92 C-31.29 0.82, -150.52 -0.62, -180.43 -0.71 M0.53 0.36 C-29.93 0.42, -151.25 0.81, -181.61 0.45" stroke="#1971c2" stroke-width="1" fill="none"></path></g><g transform="translate(2091.605140721258 1251.2245782327095) rotate(0 -90.53605254923923 0.10589181594536967)"><path d="M-151.84 -10.44 C-164.85 -7.21, -173.34 -3.31, -181.05 0.88 M-152.65 -9.23 C-159.45 -7.06, -165.86 -6.15, -181.95 -0.18" stroke="#1971c2" stroke-width="1" fill="none"></path></g><g transform="translate(2091.605140721258 1251.2245782327095) rotate(0 -90.53605254923923 0.10589181594536967)"><path d="M-151.91 10.08 C-164.87 5.84, -173.34 2.27, -181.05 0.88 M-152.72 11.29 C-159.45 8.84, -165.85 5.12, -181.95 -0.18" stroke="#1971c2" stroke-width="1" fill="none"></path></g></g><mask></mask><g transform="translate(870 70) rotate(0 54 20.700000000000045)"><text x="54" y="0" font-family="Helvetica, Segoe UI Emoji" font-size="36px" fill="#1e1e1e" text-anchor="middle" style="white-space: pre;" direction="ltr" dominant-baseline="text-before-edge"></text></g><g transform="translate(2250 70) rotate(0 90 20.700000000000045)"><text x="90" y="0" font-family="Helvetica, Segoe UI Emoji" font-size="36px" fill="#1e1e1e" text-anchor="middle" style="white-space: pre;" direction="ltr" dominant-baseline="text-before-edge"></text></g><g transform="translate(1490 70) rotate(0 139.095703125 20.700000000000045)"><text x="139.095703125" y="0" font-family="Helvetica, Segoe UI Emoji" font-size="36px" fill="#1e1e1e" text-anchor="middle" style="white-space: pre;" direction="ltr" dominant-baseline="text-before-edge">Request Channel</text></g><g stroke-linecap="round" transform="translate(1470 610) rotate(0 210 76)"><path d="M166.3 1.14 C184.78 -1.3, 207.55 0.61, 228.26 1.26 C248.96 1.91, 271.43 2.34, 290.54 5.03 C309.65 7.71, 327.07 12.44, 342.94 17.37 C358.8 22.29, 374.41 28.27, 385.71 34.57 C397.01 40.87, 405.1 47.96, 410.76 55.17 C416.42 62.38, 419.69 70.31, 419.66 77.83 C419.62 85.35, 416.83 93.38, 410.57 100.31 C404.3 107.24, 394.2 113.48, 382.05 119.42 C369.91 125.36, 354.1 131.42, 337.69 135.97 C321.28 140.52, 302.74 144.17, 283.58 146.72 C264.42 149.27, 243.27 150.74, 222.71 151.29 C202.16 151.84, 180.42 151.77, 160.27 150.02 C140.13 148.27, 119.44 144.66, 101.84 140.8 C84.24 136.93, 68.33 132.4, 54.67 126.82 C41.01 121.23, 28.69 114.24, 19.9 107.29 C11.1 100.34, 4.76 92.42, 1.91 85.13 C-0.94 77.84, -0.54 70.79, 2.79 63.55 C6.12 56.31, 12.59 48.42, 21.88 41.71 C31.17 35, 44.19 28.56, 58.54 23.3 C72.89 18.04, 87.4 14.05, 107.99 10.15 C128.58 6.25, 167.06 1.28, 182.07 -0.11 C197.07 -1.49, 197.47 0.52, 198.01 1.84" stroke="none" stroke-width="0" fill="#ffc9c9"></path><path d="M155.51 2.74 C173.47 -0.37, 197.24 -0.93, 217.98 -0.63 C238.71 -0.33, 260.43 1.91, 279.93 4.55 C299.44 7.19, 318.63 10.99, 334.99 15.21 C351.36 19.44, 365.97 23.84, 378.12 29.88 C390.27 35.93, 400.98 44.27, 407.89 51.49 C414.79 58.71, 418.68 65.9, 419.55 73.21 C420.43 80.52, 418.35 88.01, 413.13 95.33 C407.9 102.66, 399.11 110.74, 388.2 117.18 C377.3 123.62, 363.33 129.38, 347.72 133.97 C332.1 138.57, 313.66 141.88, 294.5 144.74 C275.35 147.6, 253.44 150.05, 232.77 151.15 C212.1 152.25, 190.5 152.75, 170.47 151.34 C150.44 149.94, 130.76 146.33, 112.58 142.69 C94.41 139.06, 76.19 134.68, 61.41 129.51 C46.63 124.35, 33.47 118.22, 23.91 111.7 C14.34 105.19, 7.64 97.6, 4.03 90.41 C0.43 83.21, -0.09 75.88, 2.28 68.53 C4.64 61.19, 10.22 53.43, 18.24 46.34 C26.27 39.25, 37.28 31.86, 50.43 25.97 C63.57 20.07, 77.73 14.99, 97.13 10.97 C116.53 6.96, 152.86 3.16, 166.81 1.86 C180.76 0.56, 180 1.95, 180.84 3.17" stroke="#4dabf7" stroke-width="1.5" fill="none" stroke-dasharray="8 9"></path></g><g transform="translate(1539.9099197008254 665.0598846298226) rotate(0 140.09765625 20.700000000000045)"><text x="140.09765625" y="0" font-family="Helvetica, Segoe UI Emoji" font-size="36px" fill="#1e1e1e" text-anchor="middle" style="white-space: pre;" direction="ltr" dominant-baseline="text-before-edge">Response Queue</text></g><g stroke-linecap="round" transform="translate(1470 790) rotate(0 210 76)"><path d="M171.53 1.43 C190.24 -0.84, 213.18 0.55, 233.49 1.27 C253.81 1.99, 274.35 2.79, 293.42 5.73 C312.49 8.67, 332.1 13.91, 347.92 18.92 C363.74 23.94, 377.67 29.63, 388.36 35.8 C399.05 41.98, 406.72 48.84, 412.06 55.96 C417.41 63.08, 421.13 70.84, 420.44 78.5 C419.75 86.15, 415.03 94.83, 407.94 101.9 C400.84 108.97, 390.01 115.16, 377.88 120.93 C365.76 126.71, 351.52 131.91, 335.18 136.54 C318.85 141.18, 299.48 146.09, 279.86 148.73 C260.24 151.37, 238.37 152.15, 217.48 152.38 C196.59 152.61, 174.33 152.18, 154.52 150.11 C134.71 148.04, 116.06 143.95, 98.63 139.95 C81.21 135.95, 63.49 131.67, 49.96 126.11 C36.44 120.54, 25.74 113.63, 17.46 106.58 C9.18 99.52, 2.48 91.18, 0.29 83.76 C-1.89 76.33, 0.42 69.27, 4.36 62.01 C8.31 54.75, 14.26 47, 23.96 40.21 C33.67 33.42, 47.77 26.53, 62.58 21.29 C77.39 16.05, 91.74 12.41, 112.83 8.77 C133.92 5.13, 173.46 0.65, 189.11 -0.55 C204.76 -1.74, 206.32 0.21, 206.74 1.61" stroke="none" stroke-width="0" fill="#ffc9c9"></path><path d="M112.4 8.68 C128.12 4.42, 150.65 3.61, 170.76 2.17 C190.87 0.73, 212.73 -0.59, 233.06 0.05 C253.38 0.68, 273.84 3.01, 292.71 5.97 C311.58 8.93, 330.61 12.73, 346.27 17.8 C361.93 22.86, 375.49 30.1, 386.66 36.38 C397.84 42.66, 407.89 48.43, 413.31 55.48 C418.72 62.53, 419.94 71.04, 419.16 78.68 C418.37 86.31, 415.42 94.18, 408.61 101.29 C401.8 108.41, 390.62 115.31, 378.3 121.37 C365.99 127.42, 350.99 133.12, 334.73 137.62 C318.46 142.13, 300.03 146.07, 280.71 148.39 C261.39 150.7, 239.67 151.37, 218.81 151.51 C197.95 151.65, 175.58 151.14, 155.57 149.22 C135.56 147.29, 116.08 143.97, 98.76 139.95 C81.43 135.93, 65.06 130.64, 51.61 125.11 C38.17 119.57, 26.49 113.55, 18.09 106.75 C9.7 99.95, 3.48 91.73, 1.22 84.28 C-1.03 76.84, 0.63 69.45, 4.55 62.08 C8.47 54.71, 15.27 46.86, 24.73 40.08 C34.18 33.31, 46.15 26.73, 61.26 21.42 C76.38 16.12, 105.46 10.39, 115.41 8.25 C125.35 6.12, 119.32 7.5, 120.93 8.6" stroke="#4dabf7" stroke-width="1.5" fill="none" stroke-dasharray="8 9"></path></g><g transform="translate(1539.9099197008254 845.0598846298226) rotate(0 140.09765625 20.700000000000045)"><text x="140.09765625" y="0" font-family="Helvetica, Segoe UI Emoji" font-size="36px" fill="#1e1e1e" text-anchor="middle" style="white-space: pre;" direction="ltr" dominant-baseline="text-before-edge">Response Queue</text></g><g stroke-linecap="round" transform="translate(1470 970) rotate(0 210 76)"><path d="M131.49 6.01 C148.23 2.5, 171 1.8, 191.36 0.99 C211.72 0.18, 233.3 -0.34, 253.65 1.13 C273.99 2.6, 295.43 5.9, 313.43 9.81 C331.43 13.72, 347.68 19.05, 361.66 24.59 C375.64 30.13, 388.17 36.54, 397.31 43.04 C406.46 49.55, 412.98 56.54, 416.52 63.65 C420.06 70.76, 421.2 78.26, 418.57 85.71 C415.94 93.15, 409.5 101.55, 400.76 108.33 C392.03 115.1, 380.26 120.85, 366.15 126.34 C352.03 131.84, 333.83 137.47, 316.09 141.31 C298.36 145.15, 279.7 147.55, 259.74 149.38 C239.78 151.21, 216.87 152.65, 196.33 152.26 C175.78 151.87, 155.79 149.58, 136.47 147.01 C117.14 144.45, 96.93 141.54, 80.36 136.87 C63.78 132.19, 48.65 125.27, 37.02 118.97 C25.39 112.67, 16.82 106.04, 10.6 99.07 C4.39 92.11, 0.16 84.66, -0.27 77.18 C-0.7 69.7, 2.03 61.47, 8.03 54.18 C14.04 46.89, 24.34 39.56, 35.77 33.43 C47.2 27.3, 59.02 22.32, 76.62 17.39 C94.23 12.47, 128.8 6.17, 141.39 3.89 C153.99 1.6, 151.18 2.46, 152.21 3.69" stroke="none" stroke-width="0" fill="#ffc9c9"></path><path d="M243.61 1.15 C263.56 1.25, 284.38 4.58, 302.7 7.88 C321.02 11.18, 338.65 15.94, 353.52 20.94 C368.39 25.94, 381.57 31.44, 391.9 37.88 C402.22 44.33, 410.98 52.21, 415.45 59.62 C419.91 67.03, 420.43 74.88, 418.68 82.32 C416.93 89.77, 412.52 97.37, 404.95 104.29 C397.38 111.22, 386.43 118.2, 373.27 123.86 C360.11 129.52, 342.98 133.98, 325.98 138.26 C308.98 142.54, 290.83 147.35, 271.27 149.54 C251.71 151.72, 229.31 151.48, 208.62 151.37 C187.92 151.25, 166.75 150.86, 147.1 148.84 C127.44 146.82, 107.78 143.43, 90.69 139.23 C73.6 135.04, 57.27 129.58, 44.56 123.68 C31.84 117.77, 21.68 110.86, 14.4 103.8 C7.13 96.74, 2.43 88.86, 0.89 81.34 C-0.66 73.82, 0.38 65.84, 5.14 58.68 C9.91 51.53, 18.81 44.89, 29.48 38.43 C40.16 31.97, 54.19 25.2, 69.21 19.93 C84.22 14.66, 101.12 9.87, 119.56 6.82 C137.99 3.76, 157.34 2.39, 179.83 1.61 C202.31 0.83, 240.32 1.64, 254.45 2.14 C268.58 2.65, 265.25 3.39, 264.6 4.64" stroke="#4dabf7" stroke-width="1.5" fill="none" stroke-dasharray="8 9"></path></g><g transform="translate(1539.9099197008254 1025.0598846298226) rotate(0 140.09765625 20.700000000000045)"><text x="140.09765625" y="0" font-family="Helvetica, Segoe UI Emoji" font-size="36px" fill="#1e1e1e" text-anchor="middle" style="white-space: pre;" direction="ltr" dominant-baseline="text-before-edge">Response Queue</text></g><g stroke-linecap="round" transform="translate(1470 1150) rotate(0 210 76)"><path d="M269.11 3.26 C289.09 4.1, 309.05 8.85, 326.12 12.97 C343.19 17.08, 358.53 22.43, 371.54 27.98 C384.55 33.53, 396.25 39.4, 404.2 46.25 C412.14 53.1, 417.42 61.45, 419.23 69.08 C421.04 76.71, 419.39 84.72, 415.07 92.03 C410.74 99.34, 403.25 106.47, 393.28 112.92 C383.3 119.37, 370.17 125.62, 355.23 130.74 C340.3 135.86, 322.03 140.13, 303.68 143.64 C285.33 147.16, 265.55 150.52, 245.15 151.82 C224.74 153.12, 201.62 152.51, 181.25 151.44 C160.89 150.38, 141.54 148.46, 122.97 145.44 C104.39 142.42, 85.29 138.25, 69.83 133.33 C54.36 128.41, 40.74 122.31, 30.19 115.92 C19.63 109.54, 11.58 102.33, 6.52 95.02 C1.46 87.71, -1.28 79.6, -0.18 72.05 C0.93 64.49, 5.74 56.61, 13.16 49.67 C20.57 42.73, 31.56 36.32, 44.29 30.42 C57.03 24.51, 72.81 18.78, 89.57 14.25 C106.32 9.71, 125.17 5.74, 144.82 3.22 C164.47 0.69, 184.45 -1.02, 207.47 -0.89 C230.49 -0.77, 268.17 2.37, 282.93 3.97 C297.69 5.57, 297.21 7.26, 296.03 8.7" stroke="none" stroke-width="0" fill="#ffc9c9"></path><path d="M193.05 0.69 C212.09 -1.1, 234.4 0.94, 254.39 2.49 C274.38 4.04, 294.76 6.28, 312.96 9.97 C331.17 13.66, 349.33 19.16, 363.6 24.62 C377.87 30.09, 389.54 36.13, 398.57 42.75 C407.61 49.36, 414.58 56.97, 417.79 64.31 C420.99 71.66, 420.8 79.51, 417.82 86.82 C414.83 94.13, 408.75 101.55, 399.86 108.18 C390.98 114.81, 378.59 121.05, 364.51 126.61 C350.44 132.18, 333.21 137.74, 315.41 141.55 C297.6 145.37, 277.68 147.95, 257.7 149.49 C237.72 151.04, 216.1 151.14, 195.53 150.84 C174.95 150.53, 153.53 150.06, 134.24 147.67 C114.95 145.27, 95.99 141.11, 79.77 136.49 C63.54 131.86, 48.42 126.11, 36.88 119.91 C25.35 113.71, 16.64 106.55, 10.56 99.27 C4.48 91.99, 0.8 83.88, 0.41 76.22 C0.03 68.55, 2.52 60.42, 8.26 53.29 C14 46.16, 23.27 39.55, 34.84 33.43 C46.4 27.31, 61.46 21.28, 77.64 16.56 C93.82 11.84, 111.61 7.79, 131.93 5.11 C152.25 2.42, 187.29 1.12, 199.58 0.44 C211.87 -0.24, 205.35 -0.32, 205.67 1.05" stroke="#4dabf7" stroke-width="1.5" fill="none" stroke-dasharray="8 9"></path></g><g transform="translate(1539.9099197008254 1205.0598846298226) rotate(0 140.09765625 20.700000000000045)"><text x="140.09765625" y="0" font-family="Helvetica, Segoe UI Emoji" font-size="36px" fill="#1e1e1e" text-anchor="middle" style="white-space: pre;" direction="ltr" dominant-baseline="text-before-edge">Response Queue</text></g></svg>