<svg version="1.1" xmlns="http://www.w3.org/2000/svg" viewBox="0 0 1840 560" width="1840" height="560">
  <!-- svg-source:excalidraw -->
  
  <defs>
    <style class="style-fonts">
      @font-face {
        font-family: "Virgil";
        src: url("https://excalidraw.com/Virgil.woff2");
      }
      @font-face {
        font-family: "Cascadia";
        src: url("https://excalidraw.com/Cascadia.woff2");
      }
    </style>
    
  </defs>
  <rect x="0" y="0" width="1840" height="560" fill="#ffffff"></rect><g stroke-linecap="round" transform="translate(10 10) rotate(0 910 270)"><path d="M32.07 1.44 L1788.3 -0.2 L1801.8 0.07 L1809.39 4.85 L1816.88 13.42 L1818.63 19.23 L1819.62 32.85 L1820.05 506.34 L1817.32 520.27 L1814.18 527.6 L1808.74 536.62 L1802.03 539.45 L1788.09 538.88 L30.53 541.88 L16.58 538.52 L14.14 534.91 L5.87 528.1 L1.74 522.58 L1.1 509.17 L0.21 30.47 L2.36 19.82 L9.38 6.7 L19.73 3.68 L30.55 1.39" stroke="none" stroke-width="0" fill="#fff"></path><path d="M32 0 M32 0 C711.68 7.37, 1392.45 6.59, 1788 0 M32 0 C505.81 4.82, 979.47 4.35, 1788 0 M1788 0 C1808.65 0.25, 1819.97 12.31, 1820 32 M1788 0 C1809.34 2.28, 1817.95 10.8, 1820 32 M1820 32 C1819.55 195.54, 1820.51 358.52, 1820 508 M1820 32 C1820.39 181.62, 1820.54 331.74, 1820 508 M1820 508 C1818.55 530.29, 1807.74 540.81, 1788 540 M1820 508 C1822.1 527.34, 1810.31 542.13, 1788 540 M1788 540 C1293.65 534.86, 799.03 535.34, 32 540 M1788 540 C1282.89 535.57, 777.65 535.09, 32 540 M32 540 C11.42 539.04, -1.14 529.8, 0 508 M32 540 C8.4 542.07, 1.27 530.13, 0 508 M0 508 C1.46 323.79, 1.99 141.16, 0 32 M0 508 C2.25 335.8, 1.72 162.9, 0 32 M0 32 C-1.94 11.05, 10.63 1.64, 32 0 M0 32 C1.09 11.32, 8.62 1.57, 32 0" stroke="#1e1e1e" stroke-width="1" fill="none"></path></g><g stroke-linecap="round" transform="translate(90 170) rotate(0 220 130)"><path d="M32.36 1.82 L409.38 -1.3 L417.23 2.18 L426.05 5.89 L437.24 13.9 L436.01 17.22 L440.92 33.18 L438.98 227.4 L441.22 234.22 L435.19 249.15 L426.1 254.78 L421.32 258.25 L407.97 261.64 L32 261.98 L22.72 259.62 L13.37 255.69 L7.7 250.55 L2.01 242.71 L-1.28 228.3 L0.96 24.46 L1.59 16.29 L8.27 6.84 L16.55 2.96 L30.41 0.81" stroke="none" stroke-width="0" fill="#e3fafc"></path><path d="M32 0 M32 0 C180.33 -1.19, 326.23 -1.87, 408 0 M32 0 C154.33 -0.44, 275.67 -0.77, 408 0 M408 0 C429.46 1.23, 439.65 9.51, 440 32 M408 0 C430.2 -1.11, 438.69 11.2, 440 32 M440 32 C442.46 73.2, 440.46 109.35, 440 228 M440 32 C438.92 93.54, 437.71 152.95, 440 228 M440 228 C441.93 250.88, 428.84 259.87, 408 260 M440 228 C437.77 249.77, 429.29 261.89, 408 260 M408 260 C278.14 258.25, 145.69 257.9, 32 260 M408 260 C268.46 261.78, 128.78 262.29, 32 260 M32 260 C9.26 258.55, 0.67 248.03, 0 228 M32 260 C10.28 261.17, -1.72 248.68, 0 228 M0 228 C1.97 166.11, -0.42 105.22, 0 32 M0 228 C-0.62 154.57, -0.45 79.74, 0 32 M0 32 C-1.63 11.81, 12.3 -0.4, 32 0 M0 32 C1.78 11.13, 11.96 -1.94, 32 0" stroke="#1e1e1e" stroke-width="1" fill="none"></path></g><g transform="translate(124.955078125 237.9000000000001) rotate(0 185.044921875 62.09999999999991)"><text x="185.044921875" y="0" font-family="Helvetica, Segoe UI Emoji" font-size="36px" fill="#1e1e1e" text-anchor="middle" style="white-space: pre;" direction="ltr" dominant-baseline="text-before-edge">Linux/Unix IO 复用模型</text><text x="185.044921875" y="41.4" font-family="Helvetica, Segoe UI Emoji" font-size="36px" fill="#1e1e1e" text-anchor="middle" style="white-space: pre;" direction="ltr" dominant-baseline="text-before-edge"></text><text x="185.044921875" y="82.8" font-family="Helvetica, Segoe UI Emoji" font-size="36px" fill="#1e1e1e" text-anchor="middle" style="white-space: pre;" direction="ltr" dominant-baseline="text-before-edge">Select/Poll/Epoll</text></g><g stroke-linecap="round" transform="translate(1350 170) rotate(0 200 140)"><path d="M33.98 -1.78 L368.12 0.87 L375.69 0.2 L386.05 4.51 L396.21 11.22 L398.3 18.46 L399.96 31.59 L398.29 248.27 L398.34 254.05 L396.46 265.91 L388.31 277.33 L380.26 278.85 L369.85 279.63 L31.71 278.52 L24.99 279.62 L12.82 276.83 L4.25 266.92 L0.67 262.12 L1.23 247.65 L-0.66 25.26 L1.04 16.86 L8.46 6.03 L19.8 3.1 L32.69 1.71" stroke="none" stroke-width="0" fill="#3bc9db"></path><path d="M32 0 M32 0 C109.95 0.72, 190.31 0.6, 368 0 M32 0 C104.06 -2.35, 175.03 -2.84, 368 0 M368 0 C389.71 -0.04, 401.64 11.62, 400 32 M368 0 C389.99 -2.05, 401.57 11.19, 400 32 M400 32 C398.48 81.81, 399.45 127.11, 400 248 M400 32 C399.7 81.27, 399.76 129.82, 400 248 M400 248 C401.02 267.84, 388.77 280.17, 368 280 M400 248 C398.33 271.34, 389.96 278.31, 368 280 M368 280 C298.26 281.37, 227.68 282.84, 32 280 M368 280 C277.47 278.7, 186.04 278.67, 32 280 M32 280 C11.07 281.13, -1.69 269.47, 0 248 M32 280 C11.84 279.04, -2.13 271.24, 0 248 M0 248 C-2.26 181.94, -2.91 113.63, 0 32 M0 248 C-0.83 190.65, -0.59 132.21, 0 32 M0 32 C0.77 12.66, 12.1 -0.06, 32 0 M0 32 C2.18 12.55, 9.12 -2, 32 0" stroke="#1e1e1e" stroke-width="1" fill="none"></path></g><g transform="translate(1427.9638671875 289.3000000000002) rotate(0 122.0361328125 20.700000000000045)"><text x="122.0361328125" y="0" font-family="Helvetica, Segoe UI Emoji" font-size="36px" fill="#1e1e1e" text-anchor="middle" style="white-space: pre;" direction="ltr" dominant-baseline="text-before-edge">Netty Java NIO</text></g><g stroke-linecap="round" transform="translate(730 170) rotate(0 210 140)"><path d="M32.87 0.19 L387.7 -1.45 L395.51 1.21 L406.22 4.8 L415.96 12.46 L417.59 16.29 L420.27 30.84 L418.55 248.96 L417.91 256.31 L417.33 265.76 L408.35 277.35 L401.63 277.71 L386.52 280.49 L32.12 280.32 L25.83 279.25 L11.92 274.17 L4.62 268.73 L1.65 260.84 L0.76 247.04 L-0.64 24.96 L0.03 19.8 L9.1 8.69 L19.71 0.7 L30.38 0.22" stroke="none" stroke-width="0" fill="#99e9f2"></path><path d="M32 0 M32 0 C113.83 -1.88, 192.93 0.47, 388 0 M32 0 C165.66 0.27, 300.56 0.67, 388 0 M388 0 C410.28 0.57, 418.22 12.04, 420 32 M388 0 C409.85 -1.77, 419.87 12.29, 420 32 M420 32 C420.64 78.06, 422.11 125.45, 420 248 M420 32 C420.48 81.59, 419.98 130.05, 420 248 M420 248 C420.17 267.88, 411.08 280.55, 388 280 M420 248 C418.31 267.21, 407.09 281.81, 388 280 M388 280 C279.44 278.55, 169.09 277.88, 32 280 M388 280 C261.33 279.67, 134.03 279, 32 280 M32 280 C10.81 281.02, -0.83 267.48, 0 248 M32 280 C12.57 280.19, 2.29 268.54, 0 248 M0 248 C-1.81 187.28, -0.12 127.58, 0 32 M0 248 C-1.12 193.35, 0.55 138.65, 0 32 M0 32 C-0.06 12.56, 12.31 -1.35, 32 0 M0 32 C-2 12.2, 11.36 -0.36, 32 0" stroke="#1e1e1e" stroke-width="1" fill="none"></path></g><g transform="translate(799.9462890625 289.3000000000002) rotate(0 140.0537109375 20.700000000000045)"><text x="140.0537109375" y="0" font-family="Helvetica, Segoe UI Emoji" font-size="36px" fill="#1e1e1e" text-anchor="middle" style="white-space: pre;" direction="ltr" dominant-baseline="text-before-edge">    Java NIO Epoll</text></g><g stroke-linecap="round"><g transform="translate(531 303.4999380083282) rotate(0 99.200035232054 1.7680378679524438)"><path d="M0.7 -0.54 C33.91 0.24, 166.09 3.54, 198.8 4.07 M-0.4 1.79 C32.77 2.29, 164.99 2.11, 198.27 2.44" stroke="#454a4a" stroke-width="1" fill="none"></path></g><g transform="translate(531 303.4999380083282) rotate(0 99.200035232054 1.7680378679524438)"><path d="M169.15 13.93 C178.92 8.05, 183.87 9.13, 197.42 0.49 M169.11 11.61 C177.66 10.04, 185.16 7.38, 197.49 2.97" stroke="#454a4a" stroke-width="1" fill="none"></path></g><g transform="translate(531 303.4999380083282) rotate(0 99.200035232054 1.7680378679524438)"><path d="M169.22 -6.59 C178.88 -7.17, 183.81 -0.8, 197.42 0.49 M169.19 -8.91 C177.9 -4.78, 185.38 -1.74, 197.49 2.97" stroke="#454a4a" stroke-width="1" fill="none"></path></g></g><mask></mask><g stroke-linecap="round"><g transform="translate(1151.166666666667 309.99997789464305) rotate(0 99.19173212671944 -0.2477975633985352)"><path d="M-0.58 0.64 C32.24 0.67, 163.87 0.59, 196.74 0.64 M1.32 -0.07 C34.53 -0.43, 166.02 -1.01, 198.96 -1.14" stroke="#454a4a" stroke-width="1" fill="none"></path></g><g transform="translate(1151.166666666667 309.99997789464305) rotate(0 99.19173212671944 -0.2477975633985352)"><path d="M171.88 7.69 C179.9 4.64, 188.48 2.14, 200.17 -0.94 M169.99 9.06 C181.06 4.74, 191.33 2.69, 198.7 -1.1" stroke="#454a4a" stroke-width="1" fill="none"></path></g><g transform="translate(1151.166666666667 309.99997789464305) rotate(0 99.19173212671944 -0.2477975633985352)"><path d="M171.79 -12.83 C179.91 -10, 188.52 -6.63, 200.17 -0.94 M169.9 -11.46 C181.12 -8.48, 191.43 -3.23, 198.7 -1.1" stroke="#454a4a" stroke-width="1" fill="none"></path></g></g><mask></mask></svg>