<svg version="1.1" xmlns="http://www.w3.org/2000/svg" viewBox="0 0 1940 580" width="1940" height="580">
  <!-- svg-source:excalidraw -->
  
  <defs>
    <style class="style-fonts">
      @font-face {
        font-family: "Virgil";
        src: url("https://excalidraw.com/Virgil.woff2");
      }
      @font-face {
        font-family: "Cascadia";
        src: url("https://excalidraw.com/Cascadia.woff2");
      }
    </style>
    
  </defs>
  <rect x="0" y="0" width="1940" height="580" fill="#f8f9fa"></rect><g stroke-linecap="round" transform="translate(10 10) rotate(0 960 280)"><path d="M31.91 -0.1 L1887.59 0.27 L1902.63 0.53 L1908.92 5.78 L1917.01 12.85 L1917.37 16.08 L1920.01 30.66 L1920.74 529.41 L1916.77 542.12 L1916.49 547.83 L1907.08 554.2 L1903.74 558.25 L1889.37 561.74 L32.75 560.92 L16.25 557.91 L14.46 553.94 L5.97 548.72 L3.45 541.24 L1.44 529.05 L1.46 30.11 L3.73 18.09 L8.37 8.18 L19.07 0.4 L30.76 -1.08" stroke="none" stroke-width="0" fill="#fff"></path><path d="M32 0 M32 0 C526 -5.06, 1022.18 -5.32, 1888 0 M32 0 C403.3 -5.6, 775.53 -6.14, 1888 0 M1888 0 C1910.79 -1.99, 1919.71 9.37, 1920 32 M1888 0 C1910.4 -2.08, 1919.17 11.69, 1920 32 M1920 32 C1919.21 191.83, 1919.32 352.68, 1920 528 M1920 32 C1920.82 174.84, 1920.55 318.03, 1920 528 M1920 528 C1921.94 548.03, 1909.75 560.53, 1888 560 M1920 528 C1919.14 547.59, 1909.4 560.04, 1888 560 M1888 560 C1471.78 567.9, 1055.66 567.64, 32 560 M1888 560 C1480.77 557.69, 1072.9 557.04, 32 560 M32 560 C10.7 560.53, 1.09 549.34, 0 528 M32 560 C11.21 558.33, 1.6 548.72, 0 528 M0 528 C-1.32 338.06, -0.42 147.34, 0 32 M0 528 C-0.17 335.36, -0.32 143.01, 0 32 M0 32 C1.28 9.82, 10.38 1.08, 32 0 M0 32 C1.21 12.42, 8.72 -1.74, 32 0" stroke="#1e1e1e" stroke-width="1" fill="none"></path></g><g stroke-linecap="round" transform="translate(70 150) rotate(0 190 150)"><path d="M32.48 0.05 L347.7 0.45 L361.73 3.27 L371.63 9.2 L376.12 19.63 L379.34 31.98 L380.49 269.03 L379.52 280.16 L372.84 292.74 L362.99 297.41 L348.34 301.39 L30.75 299.78 L19.3 298.92 L7.95 293.64 L3.21 282.63 L-0.12 267.71 L-0.82 23.67 L4 17.06 L7.51 6.52 L17.93 3.09 L30.65 -1.98" stroke="none" stroke-width="0" fill="#ffc9c9"></path><path d="M32 0 M32 0 C118.2 2.36, 204.34 3, 348 0 M32 0 C149.68 -0.32, 268.87 -0.51, 348 0 M348 0 C370.82 -0.92, 378.17 11.57, 380 32 M348 0 C370.17 0.32, 381.85 10.53, 380 32 M380 32 C382.68 104.31, 382.2 179.9, 380 268 M380 32 C381.36 109.13, 380.41 185.83, 380 268 M380 268 C381.67 290.14, 367.9 298.38, 348 300 M380 268 C378.56 291.25, 371.52 301.82, 348 300 M348 300 C266.92 300.24, 182.33 301.14, 32 300 M348 300 C228.48 298.78, 108.42 298.19, 32 300 M32 300 C11.47 300.34, 0.03 290.03, 0 268 M32 300 C11.19 299.53, 1.34 288.18, 0 268 M0 268 C0.9 204.37, 1.37 141.05, 0 32 M0 268 C-1.56 196.47, -1.51 124.99, 0 32 M0 32 C0.25 10.25, 12.34 1.72, 32 0 M0 32 C-1.44 11.63, 10.88 -1.43, 32 0" stroke="#1e1e1e" stroke-width="1" fill="none"></path></g><g transform="translate(206 279.3000000000002) rotate(0 54 20.700000000000045)"><text x="54" y="0" font-family="Helvetica, Segoe UI Emoji" font-size="36px" fill="#1e1e1e" text-anchor="middle" style="white-space: pre;" direction="ltr" dominant-baseline="text-before-edge">客户端</text></g><g stroke-linecap="round" transform="translate(530 150) rotate(0 440 150)"><path d="M33.27 1.89 L847.79 -1.95 L863.65 3.96 L868.38 3.1 L875.54 10.99 L877.65 19.3 L881.4 33.62 L881.5 268.6 L876.01 281.66 L875.63 287.65 L867.03 296.56 L861.62 296.72 L846.94 300.45 L32.38 300.27 L16.57 298.59 L13.65 295.38 L4.59 285.9 L1.53 277.33 L-1.46 30.98 L3.46 19.5 L8.25 9.56 L18.23 1.49 L32.95 1.53" stroke="none" stroke-width="0" fill="#ffffff"></path><path d="M32 0 M32 0 C336.87 1.17, 640.74 0.85, 848 0 M32 0 C278.73 -0.45, 525.07 -0.82, 848 0 M848 0 C868.04 0.81, 879.61 11.47, 880 32 M848 0 C870.4 0.21, 881.27 12.15, 880 32 M880 32 C880.97 108.61, 879.42 188.92, 880 268 M880 32 C882.27 103.96, 881.96 174.93, 880 268 M880 268 C878.6 291.1, 869.26 301.02, 848 300 M880 268 C881.26 288.5, 869.68 299.07, 848 300 M848 300 C678.67 300.73, 510.29 301.94, 32 300 M848 300 C522.58 299.01, 196.52 298.32, 32 300 M32 300 C11.54 300.32, -1.91 291.09, 0 268 M32 300 C12.66 300.02, 0.65 289.58, 0 268 M0 268 C0.04 193.64, -1.81 123.8, 0 32 M0 268 C-0.25 216.02, -1.26 163.73, 0 32 M0 32 C1.57 12.34, 12.27 -1.45, 32 0 M0 32 C-1.43 8.71, 11.99 0.82, 32 0" stroke="#1e1e1e" stroke-width="1" fill="none"></path></g><g stroke-linecap="round" transform="translate(1470 150) rotate(0 190 150)"><path d="M32.25 1.56 L348.23 -0.51 L362.95 3.53 L373.47 7.5 L377.68 18.46 L381.64 30.43 L380.83 268.05 L377.55 282.3 L372.15 292.16 L360.38 296.3 L346.7 300.81 L31.61 300.8 L18.92 298.18 L9.11 293.29 L2.58 282.61 L-0.96 268.44 L-0.72 23.09 L3.96 18.06 L9.98 6.75 L18.74 3.12 L31.98 -0.09" stroke="none" stroke-width="0" fill="#a5d8ff"></path><path d="M32 0 M32 0 C105.33 0.86, 176.71 0.3, 348 0 M32 0 C114.36 -0.21, 195.35 0.54, 348 0 M348 0 C370.34 1.98, 381.26 9.87, 380 32 M348 0 C370.52 1.85, 378.69 8.55, 380 32 M380 32 C381.79 114.56, 380.33 194.69, 380 268 M380 32 C380.27 105.77, 379.35 178.21, 380 268 M380 268 C381.5 287.75, 369.98 300.31, 348 300 M380 268 C381.08 289.78, 367.63 300.03, 348 300 M348 300 C227.31 300.91, 107.46 302.6, 32 300 M348 300 C241.87 302.1, 136.55 301.34, 32 300 M32 300 C12.13 300.08, -1.81 288.87, 0 268 M32 300 C12.36 301.99, -0.12 287.78, 0 268 M0 268 C0.48 190.31, -1.38 115.25, 0 32 M0 268 C-0.88 174.07, -0.72 81.13, 0 32 M0 32 C-1.17 12, 8.85 0.68, 32 0 M0 32 C-2.05 11.75, 11.55 1.04, 32 0" stroke="#1e1e1e" stroke-width="1" fill="none"></path></g><g transform="translate(1606 279.3000000000002) rotate(0 54 20.700000000000045)"><text x="54" y="0" font-family="Helvetica, Segoe UI Emoji" font-size="36px" fill="#1e1e1e" text-anchor="middle" style="white-space: pre;" direction="ltr" dominant-baseline="text-before-edge">服务端</text></g><g mask="url(#mask-ncW0RmsAMZ0pxL98vFGzU)" stroke-linecap="round"><g transform="translate(571.1476486321538 209.99129211343825) rotate(0 399.9462644401938 0.5307925935835556)"><path d="M-1.15 1.05 C132.27 1.02, 667.46 0.16, 801.04 0.01" stroke="#1e1e1e" stroke-width="1.5" fill="none" stroke-dasharray="8 9"></path></g><g transform="translate(571.1476486321538 209.99129211343825) rotate(0 399.9462644401938 0.5307925935835556)"><path d="M774.62 12.04 C782.55 7.6, 792.43 3.66, 801.79 0.27" stroke="#1e1e1e" stroke-width="1.5" fill="none"></path></g><g transform="translate(571.1476486321538 209.99129211343825) rotate(0 399.9462644401938 0.5307925935835556)"><path d="M774.59 -8.48 C782.56 -5.87, 792.46 -2.75, 801.79 0.27" stroke="#1e1e1e" stroke-width="1.5" fill="none"></path></g></g><mask id="mask-ncW0RmsAMZ0pxL98vFGzU"><rect x="0" y="0" fill="#fff" width="1471.147648632154" height="309.99129211343825"></rect><rect x="943.1476486321541" y="193.89129211343834" fill="#000" width="56" height="32.199999999999996" opacity="1"></rect></mask><g transform="translate(943.147648632154 193.89129211343834) rotate(0 27.94626444019366 16.630792593583465)"><text x="28" y="0" font-family="Helvetica, Segoe UI Emoji" font-size="28px" fill="#1e1e1e" text-anchor="middle" style="white-space: pre;" direction="ltr" dominant-baseline="text-before-edge">信道</text></g><g mask="url(#mask-ubc2k5Rys4MZ6u2mkiMI1)" stroke-linecap="round"><g transform="translate(570.8641005389392 290.04128454998136) rotate(0 399.5493218604475 0.1389149763072055)"><path d="M0.28 -0.05 C133.43 0.13, 665.69 0.45, 798.82 0.28" stroke="#1e1e1e" stroke-width="1.5" fill="none" stroke-dasharray="8 9"></path></g><g transform="translate(570.8641005389392 290.04128454998136) rotate(0 399.5493218604475 0.1389149763072055)"><path d="M770.54 8.57 C779.47 5.9, 785.56 4.43, 800.74 0.99" stroke="#1e1e1e" stroke-width="1.5" fill="none"></path></g><g transform="translate(570.8641005389392 290.04128454998136) rotate(0 399.5493218604475 0.1389149763072055)"><path d="M770.54 -11.95 C779.33 -8.58, 785.42 -4, 800.74 0.99" stroke="#1e1e1e" stroke-width="1.5" fill="none"></path></g></g><mask id="mask-ubc2k5Rys4MZ6u2mkiMI1"><rect x="0" y="0" fill="#fff" width="1470.864100538939" height="390.04128454998136"></rect><rect x="942.8641005389389" y="273.94128454998145" fill="#000" width="56" height="32.199999999999996" opacity="1"></rect></mask><g transform="translate(942.864100538939 273.94128454998145) rotate(0 27.549321860447606 16.238914976307115)"><text x="28" y="0" font-family="Helvetica, Segoe UI Emoji" font-size="28px" fill="#1e1e1e" text-anchor="middle" style="white-space: pre;" direction="ltr" dominant-baseline="text-before-edge">信道</text></g><g mask="url(#mask-fe3kdto5nVSxQPx7_SGZp)" stroke-linecap="round"><g transform="translate(570.7394256412982 371.0680084105579) rotate(0 400.48711847029637 -0.3043203290551446)"><path d="M0.41 -1.07 C133.7 -0.81, 667.21 0.43, 800.57 0.46" stroke="#1e1e1e" stroke-width="1.5" fill="none" stroke-dasharray="8 9"></path></g><g transform="translate(570.7394256412982 371.0680084105579) rotate(0 400.48711847029637 -0.3043203290551446)"><path d="M770.58 11.62 C783.56 7.74, 791.66 2.62, 798.98 2.15" stroke="#1e1e1e" stroke-width="1.5" fill="none"></path></g><g transform="translate(570.7394256412982 371.0680084105579) rotate(0 400.48711847029637 -0.3043203290551446)"><path d="M770.61 -8.9 C783.39 -5.26, 791.48 -2.85, 798.98 2.15" stroke="#1e1e1e" stroke-width="1.5" fill="none"></path></g></g><mask id="mask-fe3kdto5nVSxQPx7_SGZp"><rect x="0" y="0" fill="#fff" width="1470.739425641298" height="471.0680084105579"></rect><rect x="942.739425641298" y="354.968008410558" fill="#000" width="56" height="32.199999999999996" opacity="1"></rect></mask><g transform="translate(942.7394256412981 354.968008410558) rotate(0 28.48711847029648 15.795679670944764)"><text x="28" y="0" font-family="Helvetica, Segoe UI Emoji" font-size="28px" fill="#1e1e1e" text-anchor="middle" style="white-space: pre;" direction="ltr" dominant-baseline="text-before-edge">信道</text></g><g transform="translate(908.0798835109676 87.4734035556844) rotate(0 59.8896484375 16.09999999999991)"><text x="59.8896484375" y="0" font-family="Helvetica, Segoe UI Emoji" font-size="28px" fill="#1e1e1e" text-anchor="middle" style="white-space: pre;" direction="ltr" dominant-baseline="text-before-edge">TCP 连接</text></g></svg>