<svg version="1.1" xmlns="http://www.w3.org/2000/svg" viewBox="0 0 2460 560" width="2460" height="560">
  <!-- svg-source:excalidraw -->
  
  <defs>
    <style class="style-fonts">
      @font-face {
        font-family: "Virgil";
        src: url("https://excalidraw.com/Virgil.woff2");
      }
      @font-face {
        font-family: "Cascadia";
        src: url("https://excalidraw.com/Cascadia.woff2");
      }
    </style>
    
  </defs>
  <rect x="0" y="0" width="2460" height="560" fill="#ffffff"></rect><g stroke-linecap="round" transform="translate(10 10) rotate(0 1220 270)"><path d="M30.3 -1.98 L2414.99 1.42 L2420.52 0.8 L2433.72 6.47 L2436.94 19.86 L2441.68 33.04 L2438.61 514.58 L2438.16 523.04 L2433.56 530.88 L2423.92 536.41 L2409.78 540.22 L26.18 538.12 L10.72 534.07 L2.63 526.16 L0.33 521.96 L-0.04 509.06 L0.49 30.93 L1.77 17.9 L8.08 8.56 L18.19 0.75 L31.44 -1.54" stroke="none" stroke-width="0" fill="#fff"></path><path d="M32 0 M32 0 C718.79 -9.21, 1404.4 -8.19, 2408 0 M32 0 C761.79 -1.69, 1490.95 -1.68, 2408 0 M2408 0 C2430.46 -0.52, 2440.14 8.97, 2440 32 M2408 0 C2427.31 1.65, 2441.21 8.93, 2440 32 M2440 32 C2439.93 162.74, 2441.33 293.05, 2440 508 M2440 32 C2442.06 147.3, 2441.89 263.79, 2440 508 M2440 508 C2441.41 531.16, 2429.96 541.89, 2408 540 M2440 508 C2441.39 527.05, 2427.77 538.67, 2408 540 M2408 540 C1885.59 539.77, 1362.37 539.98, 32 540 M2408 540 C1896.4 547.03, 1385 547.59, 32 540 M32 540 C9.15 538.59, -1.54 527.87, 0 508 M32 540 C8.71 541.22, 1.03 530.83, 0 508 M0 508 C1.03 321.36, 1.58 134.89, 0 32 M0 508 C-0.31 385.66, -0.21 262.45, 0 32 M0 32 C-0.54 8.99, 9.59 -1.68, 32 0 M0 32 C0.14 12.96, 11.74 0.45, 32 0" stroke="#1e1e1e" stroke-width="1" fill="none"></path></g><g stroke-linecap="round" transform="translate(90 150) rotate(0 220 130)"><path d="M31.49 0.92 L406.52 -1.2 L417.22 -1.03 L426.44 6.36 L437.18 13.54 L437.11 17.08 L440.16 33.04 L441.56 226.88 L441.42 233.91 L437.28 247.72 L429.18 254.12 L420.22 256.57 L406.13 258.66 L30.33 259.96 L24.46 260.56 L12.99 254.43 L7.77 251.9 L2.08 242.56 L0.19 226.75 L-0.06 22.96 L1.78 18.75 L9.86 8.76 L17.07 0.56 L33.63 0.14" stroke="none" stroke-width="0" fill="#e3fafc"></path><path d="M32 0 M32 0 C118.14 -1.77, 204.42 -1.57, 408 0 M32 0 C134.46 2.38, 238.3 1.48, 408 0 M408 0 C428.83 0.47, 439.89 9.4, 440 32 M408 0 C429.32 2.19, 438.88 9.36, 440 32 M440 32 C437.87 108.51, 441.58 186.41, 440 228 M440 32 C441.22 107.74, 439.94 184.89, 440 228 M440 228 C438.4 250.1, 429.36 260.81, 408 260 M440 228 C439.05 248.88, 428.98 258.05, 408 260 M408 260 C300.09 259.55, 194.87 258.57, 32 260 M408 260 C321.24 258.66, 235.78 258.73, 32 260 M32 260 C12.49 258.44, -0.59 247.95, 0 228 M32 260 C9.3 259.86, -2.26 248.36, 0 228 M0 228 C0.06 168.09, -2.75 109.29, 0 32 M0 228 C1.12 186.61, 1.52 143.43, 0 32 M0 32 C0.6 9.61, 10.49 -1.64, 32 0 M0 32 C-1.43 12.43, 12.01 -1.64, 32 0" stroke="#1e1e1e" stroke-width="1" fill="none"></path></g><g transform="translate(124.955078125 217.9000000000001) rotate(0 185.044921875 62.10000000000002)"><text x="185.044921875" y="0" font-family="Helvetica, Segoe UI Emoji" font-size="36px" fill="#1e1e1e" text-anchor="middle" style="white-space: pre;" direction="ltr" dominant-baseline="text-before-edge">Linux/Unix IO 复用模型</text><text x="185.044921875" y="41.4" font-family="Helvetica, Segoe UI Emoji" font-size="36px" fill="#1e1e1e" text-anchor="middle" style="white-space: pre;" direction="ltr" dominant-baseline="text-before-edge"></text><text x="185.044921875" y="82.8" font-family="Helvetica, Segoe UI Emoji" font-size="36px" fill="#1e1e1e" text-anchor="middle" style="white-space: pre;" direction="ltr" dominant-baseline="text-before-edge">Select/Poll/Epoll</text></g><g stroke-linecap="round" transform="translate(1350 150) rotate(0 200 140)"><path d="M33.72 -1.53 L366.94 1.86 L377.18 1.54 L386.61 3.58 L395.66 13.54 L399.56 16.88 L401.92 30.41 L401.78 248.22 L401.18 254.12 L393.72 266.07 L385.63 274.16 L380.33 277.96 L367.96 281.06 L32.49 278.93 L24.27 279.4 L12.58 276.06 L4.69 266.25 L1.44 260.46 L-0.22 248.75 L2.36 25.26 L1.07 16.56 L9.63 8.14 L16.59 2.35 L33.98 -0.2" stroke="none" stroke-width="0" fill="#3bc9db"></path><path d="M32 0 M32 0 C145.83 -1.17, 259.21 -2.45, 368 0 M32 0 C156.74 1.87, 281.79 1.28, 368 0 M368 0 C389.32 1.91, 399.02 9.53, 400 32 M368 0 C391.41 -0.45, 400.88 8.66, 400 32 M400 32 C403.45 97.48, 403.5 162.92, 400 248 M400 32 C398.02 75.65, 398.73 118.98, 400 248 M400 248 C399.17 268.94, 389.03 278.31, 368 280 M400 248 C399.64 271.11, 388.82 278.13, 368 280 M368 280 C264.85 277.25, 162.61 277.14, 32 280 M368 280 C249.96 280.95, 130.49 281.01, 32 280 M32 280 C9.48 279.88, -1.96 268.48, 0 248 M32 280 C10.7 281.27, -1.45 270.64, 0 248 M0 248 C0.12 191.21, 0.12 136.4, 0 32 M0 248 C-0.62 161.25, -0.96 74.69, 0 32 M0 32 C-1.24 12.2, 11.83 -1.43, 32 0 M0 32 C0.47 12.55, 10.13 2.23, 32 0" stroke="#1e1e1e" stroke-width="1" fill="none"></path></g><g transform="translate(1427.9638671875 269.3000000000002) rotate(0 122.0361328125 20.700000000000045)"><text x="122.0361328125" y="0" font-family="Helvetica, Segoe UI Emoji" font-size="36px" fill="#1e1e1e" text-anchor="middle" style="white-space: pre;" direction="ltr" dominant-baseline="text-before-edge">Netty Java NIO</text></g><g stroke-linecap="round" transform="translate(730 150) rotate(0 210 140)"><path d="M33.68 1.04 L387.11 -0.92 L395.66 1.54 L409.06 3.38 L417.42 10.91 L419.78 18.22 L421.68 30.62 L418.22 246.57 L417.63 254.16 L413.83 267.46 L407.46 276.56 L402.49 276.93 L387.77 279.9 L32.08 280.56 L24.69 278.25 L11.94 273.96 L4.28 268.25 L3.86 262.76 L-0.93 246.56 L2.13 24.64 L0.59 18.35 L9.98 7.8 L18.8 1.84 L33.12 -0.52" stroke="none" stroke-width="0" fill="#99e9f2"></path><path d="M32 0 M32 0 C142.3 2.67, 249.79 1.68, 388 0 M32 0 C147.14 2.06, 261.98 1.08, 388 0 M388 0 C411.14 -0.39, 420.77 8.93, 420 32 M388 0 C409.35 2.26, 421.62 12.77, 420 32 M420 32 C420.04 102.39, 420.77 173.75, 420 248 M420 32 C419.66 104.93, 419.89 177.47, 420 248 M420 248 C419.69 270.88, 408.89 278.37, 388 280 M420 248 C420.1 270.67, 407.59 278.38, 388 280 M388 280 C309.26 278.63, 230 279.23, 32 280 M388 280 C308.64 278.38, 229.4 278.15, 32 280 M32 280 C10.7 281.1, -1.26 270.47, 0 248 M32 280 C9.71 278.08, -0.62 267.41, 0 248 M0 248 C3.32 195.64, 1.92 142.18, 0 32 M0 248 C-0.37 195.25, 0.68 140.53, 0 32 M0 32 C0.41 12.3, 10.2 1.94, 32 0 M0 32 C1.54 11.42, 11.17 2.15, 32 0" stroke="#1e1e1e" stroke-width="1" fill="none"></path></g><g transform="translate(799.9462890625 269.3000000000002) rotate(0 140.0537109375 20.700000000000045)"><text x="140.0537109375" y="0" font-family="Helvetica, Segoe UI Emoji" font-size="36px" fill="#1e1e1e" text-anchor="middle" style="white-space: pre;" direction="ltr" dominant-baseline="text-before-edge">    Java NIO Epoll</text></g><g stroke-linecap="round"><g transform="translate(531 283.4999380083282) rotate(0 99.55962646697662 1.2798694735638492)"><path d="M0.94 -0.67 C34.11 -0.41, 166.13 1.54, 199.15 2.19 M-0.03 1.59 C33.08 1.92, 165.66 2.72, 198.81 3.23" stroke="#454a4a" stroke-width="1" fill="none"></path></g><g transform="translate(531 283.4999380083282) rotate(0 99.55962646697662 1.2798694735638492)"><path d="M169.4 15.12 C177.59 11.69, 188.11 8.52, 197.42 1.45 M169.68 13.19 C177.06 11.65, 183.79 8.3, 198.69 3.18" stroke="#454a4a" stroke-width="1" fill="none"></path></g><g transform="translate(531 283.4999380083282) rotate(0 99.55962646697662 1.2798694735638492)"><path d="M169.6 -5.4 C177.84 -2.51, 188.3 0.64, 197.42 1.45 M169.88 -7.33 C177.02 -4.18, 183.72 -2.84, 198.69 3.18" stroke="#454a4a" stroke-width="1" fill="none"></path></g></g><mask></mask><g stroke-linecap="round"><g transform="translate(1151.1666666666679 289.99997789464305) rotate(0 99.51381490508402 0.41735120733108033)"><path d="M1.15 -0.95 C34.12 -0.82, 165.81 0.11, 198.73 0.13 M0.3 1.16 C33.11 1.57, 165.32 1.92, 198.34 1.74" stroke="#454a4a" stroke-width="1" fill="none"></path></g><g transform="translate(1151.1666666666679 289.99997789464305) rotate(0 99.51381490508402 0.41735120733108033)"><path d="M168.57 13.79 C181.09 9.54, 190.14 2.2, 196.92 -0.13 M170.14 12.55 C177.05 9.1, 183.26 7.18, 198.38 2.02" stroke="#454a4a" stroke-width="1" fill="none"></path></g><g transform="translate(1151.1666666666679 289.99997789464305) rotate(0 99.51381490508402 0.41735120733108033)"><path d="M168.56 -6.73 C180.97 -3.23, 190.02 -2.81, 196.92 -0.13 M170.12 -7.97 C176.87 -6.65, 183.08 -3.78, 198.38 2.02" stroke="#454a4a" stroke-width="1" fill="none"></path></g></g><mask></mask><g stroke-linecap="round" transform="translate(1968.6783641504235 150) rotate(0 200 140)"><path d="M30.12 -1.04 L368.64 1.16 L376.41 2.16 L389.26 5.07 L396.16 12.62 L398.66 18.71 L399.38 31 L399.87 247.96 L399.11 254.44 L396.94 269.21 L385.95 274.05 L382.97 278.28 L369.48 280.38 L33.58 278.99 L25.36 280.49 L12.43 275.59 L5.76 268.38 L2.2 260.85 L1.88 246.52 L0.63 25.96 L0.45 18.37 L8.94 7.12 L19.23 0.83 L33.43 1.96" stroke="none" stroke-width="0" fill="#fab005"></path><path d="M32 0 M32 0 C150.89 -0.45, 269.05 0.25, 368 0 M32 0 C110.61 -1.27, 188.22 -1.8, 368 0 M368 0 C390.67 0.09, 400.9 11.41, 400 32 M368 0 C388.76 1.16, 398.05 12.82, 400 32 M400 32 C399.88 76.18, 397.63 121.01, 400 248 M400 32 C400.07 99.89, 401.44 165.87, 400 248 M400 248 C399.24 269.63, 388.35 279.13, 368 280 M400 248 C402.13 271.61, 388.64 279.92, 368 280 M368 280 C278.32 280.8, 188.82 279.12, 32 280 M368 280 C268.97 279.77, 169.84 280, 32 280 M32 280 C8.9 280.78, -1.11 268.73, 0 248 M32 280 C12.04 281.59, 0.83 271.06, 0 248 M0 248 C0.37 190.83, 1.81 130.13, 0 32 M0 248 C2.07 165.06, 1.73 81.65, 0 32 M0 32 C0.64 10, 10.94 -0.27, 32 0 M0 32 C0.62 11.83, 11.11 1.31, 32 0" stroke="#1e1e1e" stroke-width="1" fill="none"></path></g><g transform="translate(2089.6734813379235 227.9000000000001) rotate(0 79.0048828125 62.10000000000002)"><text x="79.0048828125" y="0" font-family="Helvetica, Segoe UI Emoji" font-size="36px" fill="#1e1e1e" text-anchor="middle" style="white-space: pre;" direction="ltr" dominant-baseline="text-before-edge">RPC 框架</text><text x="79.0048828125" y="41.4" font-family="Helvetica, Segoe UI Emoji" font-size="36px" fill="#1e1e1e" text-anchor="middle" style="white-space: pre;" direction="ltr" dominant-baseline="text-before-edge"></text><text x="79.0048828125" y="82.8" font-family="Helvetica, Segoe UI Emoji" font-size="36px" fill="#1e1e1e" text-anchor="middle" style="white-space: pre;" direction="ltr" dominant-baseline="text-before-edge">gRPC</text></g><g stroke-linecap="round"><g transform="translate(1750 290) rotate(0 110.05744351260364 -0.27899908930066886)"><path d="M-0.5 -0.44 C36.45 -0.52, 183.91 -0.17, 220.62 -0.25 M1.43 -1.72 C38.37 -1.64, 183.76 0.89, 219.99 1.16" stroke="#454a4a" stroke-width="1" fill="none"></path></g><g transform="translate(1750 290) rotate(0 110.05744351260364 -0.27899908930066886)"><path d="M190.94 12.08 C197.19 8.64, 201.98 6.37, 220.73 2.11 M190.86 10.52 C199.56 9.19, 205.83 5.19, 220.24 0.26" stroke="#454a4a" stroke-width="1" fill="none"></path></g><g transform="translate(1750 290) rotate(0 110.05744351260364 -0.27899908930066886)"><path d="M191.2 -8.44 C197.44 -7.57, 202.18 -5.53, 220.73 2.11 M191.12 -10 C199.92 -5.86, 206.12 -4.39, 220.24 0.26" stroke="#454a4a" stroke-width="1" fill="none"></path></g></g><mask></mask></svg>