<svg version="1.1" xmlns="http://www.w3.org/2000/svg" viewBox="0 0 1460 660" width="1460" height="660">
  <!-- svg-source:excalidraw -->
  
  <defs>
    <style class="style-fonts">
      @font-face {
        font-family: "Virgil";
        src: url("https://excalidraw.com/Virgil.woff2");
      }
      @font-face {
        font-family: "Cascadia";
        src: url("https://excalidraw.com/Cascadia.woff2");
      }
    </style>
    
  </defs>
  <rect x="0" y="0" width="1460" height="660" fill="#ffffff"></rect><g stroke-linecap="round" transform="translate(10 10) rotate(0 720 320)"><path d="M31.07 -0.76 L1406.73 -0.57 L1422.65 2.07 L1429.07 5.31 L1437.44 11.32 L1437 18.69 L1441.83 32.4 L1440.41 607.25 L1438.68 621.78 L1437.13 629.23 L1425.82 635.45 L1420.98 638.38 L1408.05 641.94 L31.24 640.49 L16.62 636.79 L14.16 633.89 L4.79 629.1 L1.96 621.42 L-1.26 609.47 L0.33 31.96 L3.16 17.56 L7.43 9.43 L16.18 3.05 L30.37 0.27" stroke="none" stroke-width="0" fill="#fff"></path><path d="M32 0 M32 0 C577.64 -2.12, 1121.35 -2.64, 1408 0 M32 0 C376.38 -0.26, 721.02 -0.12, 1408 0 M1408 0 C1428.91 0.36, 1441.61 9.58, 1440 32 M1408 0 C1428.26 -1.34, 1439.96 9.85, 1440 32 M1440 32 C1441.24 175.8, 1441.38 320.46, 1440 608 M1440 32 C1437.92 177.78, 1438.42 323.73, 1440 608 M1440 608 C1440.83 629.87, 1427.7 641.42, 1408 640 M1440 608 C1438.71 629.51, 1427.05 641.91, 1408 640 M1408 640 C873.31 638.54, 337.35 638.94, 32 640 M1408 640 C896.32 643.48, 383.99 643.64, 32 640 M32 640 C10.98 641.78, 0.72 627.52, 0 608 M32 640 C11.17 640.68, 1.52 627.17, 0 608 M0 608 C2.18 398.33, 1.92 190.38, 0 32 M0 608 C-1.87 387.62, -1.61 166.96, 0 32 M0 32 C1.55 12.06, 10.53 -1.01, 32 0 M0 32 C0.93 9.75, 11.83 -0.2, 32 0" stroke="#1e1e1e" stroke-width="1" fill="none"></path></g><g stroke-linecap="round" transform="translate(110 130) rotate(0 110 220)"><path d="M30.66 -1.55 L194 -0.3 L203.14 3.44 L213.79 9.34 L217.11 18.91 L221.15 33.07 L221.26 408.72 L219.55 417.26 L216.82 427.7 L213.99 431.21 L202.04 438.15 L188.48 439.7 L23.72 440.34 L13.58 437.48 L4.17 427.5 L1.38 421.28 L-0.75 406.83 L-0.52 25.78 L0.83 18 L9.55 8.13 L18.33 3.66 L32.76 0.47" stroke="none" stroke-width="0" fill="#fff"></path><path d="M32 0 M32 0 C85.67 1.67, 136.91 -0.28, 188 0 M32 0 C67.44 0.05, 101.37 -0.09, 188 0 M188 0 C207.98 1.58, 219.82 9.7, 220 32 M188 0 C208.56 -1, 218.6 9.32, 220 32 M220 32 C219.25 133.63, 219.33 234.06, 220 408 M220 32 C221.54 109, 221.67 186.55, 220 408 M220 408 C219.32 429.6, 209.06 438.22, 188 440 M220 408 C221.35 427.8, 209.02 440.25, 188 440 M188 440 C138.16 437.36, 87.71 440.67, 32 440 M188 440 C128.52 438.43, 68.67 438.68, 32 440 M32 440 C9.67 439.27, 0.16 427.84, 0 408 M32 440 C8.71 438.74, 0.42 428.48, 0 408 M0 408 C-0.32 266.38, -1.19 123.76, 0 32 M0 408 C1.24 269.2, 1.67 131.69, 0 32 M0 32 C-1.48 10.57, 12.27 -1.08, 32 0 M0 32 C1.9 9.21, 9.46 -1.27, 32 0" stroke="#1e1e1e" stroke-width="1" fill="none"></path></g><g transform="translate(184.20703125 333.89999999999964) rotate(0 35.79296875 16.09999999999991)"><text x="35.79296875" y="0" font-family="Helvetica, Segoe UI Emoji" font-size="28px" fill="#1e1e1e" text-anchor="middle" style="white-space: pre;" direction="ltr" dominant-baseline="text-before-edge">Client</text></g><g stroke-linecap="round" transform="translate(590 130) rotate(0 410 220)"><path d="M31.38 -0.72 L787.25 -1.17 L794.48 1.78 L806.33 4.5 L817.05 12.63 L818.33 19.66 L820.76 32.47 L820.7 407.42 L819.81 416.89 L817.41 427.86 L807.46 433.95 L802.97 439.01 L789.47 441.68 L31.92 441.41 L23.15 441.08 L12.32 434.53 L3.83 426.63 L0.78 420.83 L-0.62 407.75 L1.93 31.23 L2.7 17.36 L7.43 6.11 L19.22 0.34 L32.49 -1.15" stroke="none" stroke-width="0" fill="#fff"></path><path d="M32 0 M32 0 C292.92 0.92, 552.9 1.5, 788 0 M32 0 C208.44 0.03, 384.52 -0.37, 788 0 M788 0 C807.52 -1.08, 821.49 12.26, 820 32 M788 0 C810.48 -1.48, 819.37 9.37, 820 32 M820 32 C818.83 110.76, 818.37 188.3, 820 408 M820 32 C820.89 124.4, 820.81 216.62, 820 408 M820 408 C821.04 428.09, 809.75 441.35, 788 440 M820 408 C818.85 428.82, 809.68 438, 788 440 M788 440 C495.44 438.4, 202.52 438.42, 32 440 M788 440 C608.96 438.46, 430.22 438.35, 32 440 M32 440 C8.93 439.1, -0.26 427.77, 0 408 M32 440 C10.77 441.03, -2.23 429.61, 0 408 M0 408 C-0.23 302.42, 0.39 198.14, 0 32 M0 408 C0.2 296.38, 0.74 183.69, 0 32 M0 32 C-0.58 10.04, 11.16 -0.87, 32 0 M0 32 C1.86 10.73, 12.01 -0.71, 32 0" stroke="#1e1e1e" stroke-width="1" fill="none"></path></g><g stroke-linecap="round" transform="translate(830 150) rotate(0 170 80)"><path d="M212.75 19.81 L317.09 68.54 L329.05 77.91 L327.33 82.81 L326.4 85.88 L312.93 93.26 L198.51 145.29 L182.93 153.47 L171.19 155.04 L156.67 151.9 L142.18 144.84 L35.33 98.57 L16.76 89.47 L10.75 83.28 L12.35 77.44 L21.65 71.6 L157.45 7.15 L170.5 4.11 L177.94 6.91 L214.32 18.5" stroke="none" stroke-width="0" fill="#ffd43b"></path><path d="M213.75 20.25 M213.75 20.25 C235.37 32.63, 258.91 43.15, 297.25 60.75 M213.75 20.25 C236.97 32, 259.34 43.43, 297.25 60.75 M297.25 60.75 C339.41 81, 338.14 80.34, 297.25 101.25 M297.25 60.75 C342.2 82.21, 339.21 80.02, 297.25 101.25 M297.25 101.25 C277.84 112.38, 255.75 122.07, 213.75 139.75 M297.25 101.25 C270.15 112.29, 244.98 124.98, 213.75 139.75 M213.75 139.75 C170.21 158.62, 170.39 159.76, 128.25 139.75 M213.75 139.75 C168.97 161.8, 172.83 162.15, 128.25 139.75 M128.25 139.75 C109.16 131.44, 90.21 120.94, 42.75 101.25 M128.25 139.75 C109.98 129.96, 90.04 122.67, 42.75 101.25 M42.75 101.25 C-1.36 79.57, -1.49 80.37, 42.75 60.75 M42.75 101.25 C0.96 80.97, -0.97 79.41, 42.75 60.75 M42.75 60.75 C66.54 51.11, 90.33 36.29, 128.25 20.25 M42.75 60.75 C63 51.67, 83.12 41.34, 128.25 20.25 M128.25 20.25 C171.02 0.26, 172.79 0.95, 213.75 20.25 M128.25 20.25 C171.89 1.89, 169.5 -0.58, 213.75 20.25" stroke="#1e1e1e" stroke-width="1" fill="none"></path></g><g transform="translate(930 197.80000000000018) rotate(0 70 32.19999999999982)"><text x="70" y="0" font-family="Helvetica, Segoe UI Emoji" font-size="28px" fill="#1e1e1e" text-anchor="middle" style="white-space: pre;" direction="ltr" dominant-baseline="text-before-edge">元数据存储</text><text x="70" y="32.199999999999996" font-family="Helvetica, Segoe UI Emoji" font-size="28px" fill="#1e1e1e" text-anchor="middle" style="white-space: pre;" direction="ltr" dominant-baseline="text-before-edge">服务</text></g><g stroke-linecap="round" transform="translate(650 470) rotate(0 90 40)"><path d="M18.69 -0.5 L161.25 1.96 L166.84 3.06 L175.74 3.23 L178.23 15.18 L180.59 61.91 L178.4 69.88 L170.34 78.14 L160.06 78.51 L20.84 81.74 L10.67 79.16 L5.08 74.18 L0.74 65.37 L1.64 13.9 L1.63 8.47 L5.89 4.61 L21.34 -0.87" stroke="none" stroke-width="0" fill="#ff8787"></path><path d="M20 0 M20 0 C73.32 0.35, 131.08 1.12, 160 0 M20 0 C49.16 -0.15, 77.08 -0.32, 160 0 M160 0 C171.34 1.38, 180.74 5.64, 180 20 M160 0 C174.08 1.98, 179.5 8.12, 180 20 M180 20 C181.19 30.17, 181.91 41.94, 180 60 M180 20 C181.29 31.68, 180.05 45.13, 180 60 M180 60 C180.65 73.79, 173.2 78.96, 160 80 M180 60 C181.5 74.61, 171.93 79.56, 160 80 M160 80 C104.38 77.57, 49.56 81.3, 20 80 M160 80 C113.45 79.08, 65.45 79.97, 20 80 M20 80 C8.49 80.84, 0.57 74.5, 0 60 M20 80 C5.5 78, 1.56 71.56, 0 60 M0 60 C0.24 45.13, -1.44 32.37, 0 20 M0 60 C-1.18 45.58, -0.37 29.66, 0 20 M0 20 C0.44 7.65, 5.15 1.69, 20 0 M0 20 C-1.3 5.59, 7.59 -0.41, 20 0" stroke="#1e1e1e" stroke-width="1" fill="none"></path></g><g transform="translate(690.9794921875 493.89999999999964) rotate(0 49.0205078125 16.09999999999991)"><text x="49.0205078125" y="0" font-family="Helvetica, Segoe UI Emoji" font-size="28px" fill="#1e1e1e" text-anchor="middle" style="white-space: pre;" direction="ltr" dominant-baseline="text-before-edge">Broker1</text></g><g stroke-linecap="round" transform="translate(1210 470) rotate(0 90 40)"><path d="M19.01 1.21 L158.01 1.38 L169.49 0.23 L175.65 6.72 L179.25 16.57 L179.63 60.19 L179.97 69.91 L171.1 79.06 L159.43 80.22 L21.52 81.3 L13.22 77.24 L4.48 75.5 L0.96 65.15 L0.18 14.27 L4.11 8.92 L6.6 2.43 L21.79 -0.14" stroke="none" stroke-width="0" fill="#ff8787"></path><path d="M20 0 M20 0 C56.14 3.14, 95.73 3.3, 160 0 M20 0 C60.37 1.2, 102.21 1.52, 160 0 M160 0 C173.91 1.17, 178.98 4.93, 180 20 M160 0 C174.89 -1.77, 181.07 7.19, 180 20 M180 20 C178.72 35.75, 181.57 52.83, 180 60 M180 20 C179.58 30.81, 179.87 42.75, 180 60 M180 60 C178.48 75.02, 172.2 79.06, 160 80 M180 60 C180.92 72.93, 173.02 80.01, 160 80 M160 80 C123.82 82.36, 84.11 80.64, 20 80 M160 80 C109.12 79.45, 57.78 79.66, 20 80 M20 80 C5.5 78.77, 0.67 74.98, 0 60 M20 80 C6.8 81.58, -0.83 72.15, 0 60 M0 60 C1.19 46.67, -0.37 35.24, 0 20 M0 60 C-0.83 48.35, 0.26 35.47, 0 20 M0 20 C0.75 8.21, 7.59 -0.94, 20 0 M0 20 C0.09 5.3, 8.28 -1.35, 20 0" stroke="#1e1e1e" stroke-width="1" fill="none"></path></g><g transform="translate(1250.9794921875 493.89999999999964) rotate(0 49.0205078125 16.09999999999991)"><text x="49.0205078125" y="0" font-family="Helvetica, Segoe UI Emoji" font-size="28px" fill="#1e1e1e" text-anchor="middle" style="white-space: pre;" direction="ltr" dominant-baseline="text-before-edge">Broker3</text></g><g stroke-linecap="round" transform="translate(930 470) rotate(0 90 40)"><path d="M20.65 1.72 L159.57 1.26 L168.38 1.44 L176.22 6.16 L178.6 17.18 L179.43 60.22 L180.27 70.05 L174.16 75.68 L159.48 80.5 L20.65 80.46 L11.12 77.71 L6.3 76.11 L-0.9 64.31 L2.1 15.18 L2.17 6.73 L5.83 1.45 L21.75 0.73" stroke="none" stroke-width="0" fill="#ff8787"></path><path d="M20 0 M20 0 C73.83 -1.38, 131 1.01, 160 0 M20 0 C67.39 -1.69, 116.47 -1.59, 160 0 M160 0 C174.26 0.45, 181.83 7, 180 20 M160 0 C172.17 -1.55, 180.1 8.4, 180 20 M180 20 C181.08 34.88, 179.28 50.47, 180 60 M180 20 C179.13 33.49, 180.1 47.74, 180 60 M180 60 C179.73 73.35, 172.63 81.82, 160 80 M180 60 C181.46 74.36, 175.03 78, 160 80 M160 80 C118.18 79.41, 80.46 77.99, 20 80 M160 80 C108.19 79.96, 55.77 79.82, 20 80 M20 80 C5.95 78.97, -0.24 71.58, 0 60 M20 80 C5.04 80.96, -2.09 72.5, 0 60 M0 60 C0.79 50.52, 1.04 44.14, 0 20 M0 60 C0.31 48.26, -0.11 36.86, 0 20 M0 20 C1.4 5.49, 7.55 -0.4, 20 0 M0 20 C1.46 7.99, 6.68 -2.18, 20 0" stroke="#1e1e1e" stroke-width="1" fill="none"></path></g><g transform="translate(970.9794921875 493.89999999999964) rotate(0 49.0205078125 16.09999999999991)"><text x="49.0205078125" y="0" font-family="Helvetica, Segoe UI Emoji" font-size="28px" fill="#1e1e1e" text-anchor="middle" style="white-space: pre;" direction="ltr" dominant-baseline="text-before-edge">Broker2</text></g><g stroke-linecap="round"><g transform="translate(748.4899541208647 469) rotate(0 81.40990179936614 -98.94489575815851)"><path d="M0.42 0.81 C27.85 -31.99, 136.55 -164.03, 163.63 -197.07 M-0.81 0.19 C26.54 -32.92, 135.58 -165.42, 162.69 -198.7" stroke="#1e1e1e" stroke-width="1" fill="none"></path></g><g transform="translate(748.4899541208647 469) rotate(0 81.40990179936614 -98.94489575815851)"><path d="M154.11 -170.39 C156.57 -177.86, 158.14 -184.17, 162.98 -197.04 M152.85 -169.75 C156.82 -180.06, 160.19 -189.41, 163.36 -199.11" stroke="#1e1e1e" stroke-width="1" fill="none"></path></g><g transform="translate(748.4899541208647 469) rotate(0 81.40990179936614 -98.94489575815851)"><path d="M138.23 -183.39 C144.19 -188.04, 149.27 -191.47, 162.98 -197.04 M136.98 -182.76 C146.18 -188.85, 154.75 -193.93, 163.36 -199.11" stroke="#1e1e1e" stroke-width="1" fill="none"></path></g></g><mask></mask><g stroke-linecap="round"><g transform="translate(1008.2464035697349 469) rotate(0 -6.683121771970718 -77.84919061075743)"><path d="M0.04 -0.85 C-2.22 -27.09, -10.25 -131.07, -12.43 -157.01 M-1.4 1.31 C-3.91 -24.82, -11.28 -129.78, -13.4 -155.88" stroke="#1e1e1e" stroke-width="1" fill="none"></path></g><g transform="translate(1008.2464035697349 469) rotate(0 -6.683121771970718 -77.84919061075743)"><path d="M-2.48 -128.61 C-7.27 -140.35, -11.23 -148.18, -13.76 -157.29 M-1.99 -128.94 C-3.5 -135.05, -7.24 -140.07, -13.79 -156.15" stroke="#1e1e1e" stroke-width="1" fill="none"></path></g><g transform="translate(1008.2464035697349 469) rotate(0 -6.683121771970718 -77.84919061075743)"><path d="M-22.94 -127.07 C-19.72 -139.41, -15.67 -147.85, -13.76 -157.29 M-22.45 -127.4 C-19.51 -133.77, -18.78 -139.13, -13.79 -156.15" stroke="#1e1e1e" stroke-width="1" fill="none"></path></g></g><mask></mask><g stroke-linecap="round"><g transform="translate(1266.3115039742192 469) rotate(0 -87.2932738842726 -99.67448506583423)"><path d="M0.39 -0.63 C-28.72 -34, -144.83 -167.69, -174.12 -201 M-0.86 1.65 C-30.16 -31.53, -146.29 -166.5, -174.98 -200.01" stroke="#1e1e1e" stroke-width="1" fill="none"></path></g><g transform="translate(1266.3115039742192 469) rotate(0 -87.2932738842726 -99.67448506583423)"><path d="M-149.88 -185.04 C-159.5 -192.03, -167.62 -195.6, -173.11 -199.54 M-148.5 -184.33 C-155.89 -189.34, -163.06 -193.69, -174.63 -200.19" stroke="#1e1e1e" stroke-width="1" fill="none"></path></g><g transform="translate(1266.3115039742192 469) rotate(0 -87.2932738842726 -99.67448506583423)"><path d="M-165.45 -171.66 C-169.6 -183.33, -172.35 -191.52, -173.11 -199.54 M-164.06 -170.96 C-167.37 -179.36, -170.43 -187.25, -174.63 -200.19" stroke="#1e1e1e" stroke-width="1" fill="none"></path></g></g><mask></mask><g stroke-linecap="round"><g transform="translate(330 210) rotate(0 260.8544038604945 0.1279853967175768)"><path d="M0.66 0.33 C87.33 0.33, 434.64 -0.1, 521.05 -0.07" stroke="#1e1e1e" stroke-width="1.5" fill="none" stroke-dasharray="8 9"></path></g><g transform="translate(330 210) rotate(0 260.8544038604945 0.1279853967175768)"><path d="M493.4 11.95 C503.64 4.63, 515.48 2.11, 521.11 -2.02" stroke="#1e1e1e" stroke-width="1.5" fill="none"></path></g><g transform="translate(330 210) rotate(0 260.8544038604945 0.1279853967175768)"><path d="M493.39 -8.57 C503.62 -7.96, 515.47 -2.56, 521.11 -2.02" stroke="#1e1e1e" stroke-width="1.5" fill="none"></path></g></g><mask></mask><g stroke-linecap="round"><g transform="translate(330 530) rotate(0 160.57099258787923 -0.41679047830393756)"><path d="M0.26 0.1 C53.76 -0.04, 267.64 -0.74, 320.88 -0.93" stroke="#1e1e1e" stroke-width="1.5" fill="none" stroke-dasharray="8 9"></path></g><g transform="translate(330 530) rotate(0 160.57099258787923 -0.41679047830393756)"><path d="M292.89 10.9 C299.38 5.9, 307.34 2.4, 322.26 -1.68" stroke="#1e1e1e" stroke-width="1.5" fill="none"></path></g><g transform="translate(330 530) rotate(0 160.57099258787923 -0.41679047830393756)"><path d="M292.82 -9.63 C299.32 -8.64, 307.29 -6.17, 322.26 -1.68" stroke="#1e1e1e" stroke-width="1.5" fill="none"></path></g></g><mask></mask><g transform="translate(50 50) rotate(0 210 16.09999999999991)"><text x="210" y="0" font-family="Helvetica, Segoe UI Emoji" font-size="28px" fill="#1e1e1e" text-anchor="middle" style="white-space: pre;" direction="ltr" dominant-baseline="text-before-edge">基于第三方组件完成元数据的存储</text></g></svg>