<svg version="1.1" xmlns="http://www.w3.org/2000/svg" viewBox="0 0 1820 600" width="1820" height="600">
  <!-- svg-source:excalidraw -->
  
  <defs>
    <style class="style-fonts">
      @font-face {
        font-family: "Virgil";
        src: url("https://excalidraw.com/Virgil.woff2");
      }
      @font-face {
        font-family: "Cascadia";
        src: url("https://excalidraw.com/Cascadia.woff2");
      }
    </style>
    
  </defs>
  <rect x="0" y="0" width="1820" height="600" fill="#ffffff"></rect><g stroke-linecap="round" transform="translate(10 10) rotate(0 900 290)"><path d="M32.42 1.97 L1770.99 -0.61 L1785.21 3.67 L1793.49 16.45 L1800.6 35.56 L1796.59 550.12 L1797.61 565.71 L1786.84 576.46 L1769.32 577.18 L30.85 580.48 L14.87 575.92 L4.3 565.1 L3.45 550.84 L-1.1 30.22 L-1.66 21.79 L4.96 5.14 L18.85 1.55 L34.84 -1.89" stroke="none" stroke-width="0" fill="#fff"></path><path d="M32 0 M32 0 C570.23 7.39, 1105.93 9.55, 1768 0 M32 0 C635.14 -13.01, 1238.31 -12.96, 1768 0 M1768 0 C1793.21 2.34, 1796.7 10.16, 1800 32 M1768 0 C1789.22 -1.55, 1798.12 9.56, 1800 32 M1800 32 C1800.42 213.74, 1798.5 398.42, 1800 548 M1800 32 C1799.02 212.19, 1798.89 394.04, 1800 548 M1800 548 C1796.31 565.41, 1786.42 580.21, 1768 580 M1800 548 C1802.55 572.21, 1788.74 579.36, 1768 580 M1768 580 C1396.14 584.4, 1025.29 582.58, 32 580 M1768 580 C1141.84 581.54, 515.5 582.1, 32 580 M32 580 C6.67 578.35, 3.96 571.21, 0 548 M32 580 C9.17 583.79, 4.37 571.08, 0 548 M0 548 C2.73 426.44, 1.62 306.74, 0 32 M0 548 C-2.55 379.59, -3.22 212.11, 0 32 M0 32 C0.68 11.42, 7.01 1.43, 32 0 M0 32 C3.82 10.36, 8.21 -2.24, 32 0" stroke="#1e1e1e" stroke-width="1" fill="none"></path></g><g stroke-linecap="round" transform="translate(230 90) rotate(0 110 220)"><path d="M33.49 -0.3 L197.1 1.34 L200.99 3.98 L212.3 9.78 L216.3 19.06 L219.81 33.86 L219.67 408.48 L220.16 414.09 L214.93 427.74 L210.43 430.96 L201.9 436.8 L189.72 441.42 L23.95 438.61 L10.67 437.39 L2.98 426.07 L2.43 421.77 L1.42 407.05 L0.69 24.42 L0.73 18.91 L6.2 6.66 L18.9 2.95 L30.19 1.78" stroke="none" stroke-width="0" fill="#fff"></path><path d="M32 0 M32 0 C80.87 1.18, 133.76 -2.41, 188 0 M188 0 C209.08 -0.05, 219.32 9.85, 220 32 M220 32 C220.87 136.7, 220.07 239, 220 408 M220 408 C219.77 430.34, 208.79 439.62, 188 440 M188 440 C139.36 438.18, 86.6 438.58, 32 440 M32 440 C10.77 441.11, 1.25 429.07, 0 408 M0 408 C2.23 300.06, 3.02 192.88, 0 32 M0 32 C-0.54 11.88, 11.24 0.25, 32 0" stroke="#1e1e1e" stroke-width="1.5" fill="none" stroke-dasharray="8 9"></path></g><g transform="translate(297.9794921875 289.3000000000002) rotate(0 42.0205078125 20.699999999999818)"><text x="42.0205078125" y="0" font-family="Helvetica, Segoe UI Emoji" font-size="36px" fill="#1e1e1e" text-anchor="middle" style="white-space: pre;" direction="ltr" dominant-baseline="text-before-edge">Topic</text></g><g stroke-linecap="round" transform="translate(650 70) rotate(0 310 60)"><path d="M28.99 1.98 L597.33 2.25 L601.42 2.94 L612.31 9.36 L617.8 17.36 L620.66 28.59 L618.96 97.27 L616.56 102.08 L612.4 111.3 L604.85 119.54 L589.45 119.11 L21.14 121.43 L10.2 114.35 L7.93 112.27 L3.29 102.18 L0.19 89.92 L-1.27 30.91 L0.07 15.53 L8.4 8.45 L15.07 3.66 L30.45 -1.55" stroke="none" stroke-width="0" fill="#ffc9c9"></path><path d="M30 0 M30 0 C225.63 -2.83, 420.22 -2.19, 590 0 M30 0 C179.29 0.46, 328.02 0.85, 590 0 M590 0 C608.05 -0.84, 619.77 11.01, 620 30 M590 0 C609.37 -0.44, 620.43 8.25, 620 30 M620 30 C618.36 46.66, 620.43 67.34, 620 90 M620 30 C619.06 52.31, 620.14 73.22, 620 90 M620 90 C621.73 110.14, 609.46 121.21, 590 120 M620 90 C620.66 110.29, 609.64 119.41, 590 120 M590 120 C451.42 118.56, 313.87 117.5, 30 120 M590 120 C375.59 120.6, 161.69 120.89, 30 120 M30 120 C8.99 118.79, 0.31 110.5, 0 90 M30 120 C11.5 120.63, 0.39 108.26, 0 90 M0 90 C0.59 74.18, 0.93 63.67, 0 30 M0 90 C0.66 72.47, -0.63 54.25, 0 30 M0 30 C-1.18 9.81, 10.85 1.39, 30 0 M0 30 C0.6 8.87, 8.16 -2.12, 30 0" stroke="#1e1e1e" stroke-width="1" fill="none"></path></g><g transform="translate(834.9228515625 109.30000000000018) rotate(0 125.0771484375 20.699999999999818)"><text x="125.0771484375" y="0" font-family="Helvetica, Segoe UI Emoji" font-size="36px" fill="#1e1e1e" text-anchor="middle" style="white-space: pre;" direction="ltr" dominant-baseline="text-before-edge">Partition/Queue</text></g><g stroke-linecap="round" transform="translate(650 230) rotate(0 310 60)"><path d="M28.3 1.06 L596.84 2.33 L602.8 2.36 L613.16 6.09 L617.55 17.11 L618.43 28.96 L619.43 95.83 L619.85 104.54 L611.95 111.61 L601.29 120.02 L588.48 118.57 L23.39 119.3 L13.14 114.83 L7.69 112.42 L0.6 104.03 L-1.8 88.66 L0.9 30.95 L0.07 18.66 L7.95 5.95 L17.84 0.44 L31.94 1.17" stroke="none" stroke-width="0" fill="#ffc9c9"></path><path d="M30 0 M30 0 C151.52 -0.27, 273.39 0.5, 590 0 M30 0 C186.45 -1.91, 343.63 -1.54, 590 0 M590 0 C609.45 -0.38, 620.37 8.48, 620 30 M590 0 C610.05 1.24, 617.88 7.75, 620 30 M620 30 C621.28 43.37, 619.76 55.54, 620 90 M620 30 C621 51.43, 619.86 73.33, 620 90 M620 90 C620.58 110.25, 609.68 119.49, 590 120 M620 90 C618.78 111.02, 607.7 119.05, 590 120 M590 120 C367.21 120.03, 143.4 118.74, 30 120 M590 120 C456.88 119.96, 324.22 120.3, 30 120 M30 120 C11.3 120.55, 0.34 108.49, 0 90 M30 120 C8.46 119.18, 0.39 110.43, 0 90 M0 90 C-0.35 76.42, -1.19 65.66, 0 30 M0 90 C-0.02 71.52, 1 53.91, 0 30 M0 30 C0.52 9.02, 8.4 -1.85, 30 0 M0 30 C-0.86 11.53, 12.28 1.43, 30 0" stroke="#1e1e1e" stroke-width="1" fill="none"></path></g><g transform="translate(834.9228515625 269.3000000000002) rotate(0 125.0771484375 20.699999999999818)"><text x="125.0771484375" y="0" font-family="Helvetica, Segoe UI Emoji" font-size="36px" fill="#1e1e1e" text-anchor="middle" style="white-space: pre;" direction="ltr" dominant-baseline="text-before-edge">Partition/Queue</text></g><g stroke-linecap="round" transform="translate(650 390) rotate(0 310 60)"><path d="M29.67 0.48 L597.69 -0.94 L602.55 2.11 L610.93 6.46 L618.02 15.68 L621.72 31.42 L618.98 96.14 L616.29 105.02 L610.98 111.07 L603.55 117.9 L591.42 119.05 L23.16 119.45 L10.45 116.69 L5.7 111.16 L2.77 104.07 L-1.81 91.78 L0.45 28.45 L2.84 15.44 L9.44 8.67 L15.22 1.62 L29.95 -0.68" stroke="none" stroke-width="0" fill="#ffc9c9"></path><path d="M30 0 M30 0 C174.93 -1.5, 320.81 -2.02, 590 0 M30 0 C174.32 -1.2, 318.94 -1.43, 590 0 M590 0 C610.04 1.08, 618.15 8.04, 620 30 M590 0 C608.33 0.12, 621.27 11.44, 620 30 M620 30 C621.04 47.66, 619.35 66.18, 620 90 M620 30 C620.13 48.53, 619.68 66.56, 620 90 M620 90 C618.94 110.89, 608 119.18, 590 120 M620 90 C622.28 111.08, 609.25 121.9, 590 120 M590 120 C368.29 118.49, 147.66 118.12, 30 120 M590 120 C456.21 120.67, 321.96 120.26, 30 120 M30 120 C8.67 119.29, 0.34 110.38, 0 90 M30 120 C7.9 120.83, 1.91 109.85, 0 90 M0 90 C0.42 73.3, -0.83 59.22, 0 30 M0 90 C0 72.08, -1.06 54.21, 0 30 M0 30 C-0.74 11.33, 11.98 1.24, 30 0 M0 30 C-0.53 9.77, 11.01 1.36, 30 0" stroke="#1e1e1e" stroke-width="1" fill="none"></path></g><g transform="translate(834.9228515625 429.3000000000002) rotate(0 125.0771484375 20.699999999999818)"><text x="125.0771484375" y="0" font-family="Helvetica, Segoe UI Emoji" font-size="36px" fill="#1e1e1e" text-anchor="middle" style="white-space: pre;" direction="ltr" dominant-baseline="text-before-edge">Partition/Queue</text></g><g stroke-linecap="round"><g transform="translate(70 130) rotate(0 288.83190388344224 0.9855852777991458)"><path d="M-2.19 -1.46 C94.58 -1.79, 482.42 -2.25, 579.86 -1.68 M1.81 3.92 C98.28 3.89, 480.86 2.11, 577.54 1.04" stroke="#1e1e1e" stroke-width="1" fill="none"></path></g><g transform="translate(70 130) rotate(0 288.83190388344224 0.9855852777991458)"><path d="M547.34 11.3 C554.63 12.56, 567.5 5.17, 575.76 -2.62 M549.85 11.28 C562.1 6.83, 571.97 3.57, 576.27 1.95" stroke="#1e1e1e" stroke-width="1" fill="none"></path></g><g transform="translate(70 130) rotate(0 288.83190388344224 0.9855852777991458)"><path d="M547.19 -9.22 C554.57 -2.39, 567.48 -4.21, 575.76 -2.62 M549.7 -9.24 C561.7 -5.59, 571.63 -0.75, 576.27 1.95" stroke="#1e1e1e" stroke-width="1" fill="none"></path></g></g><mask></mask><g stroke-linecap="round"><g transform="translate(72.01438476704061 431.59037176109814) rotate(0 119.37456580054015 0.8196665740010758)"><path d="M-0.14 -1.68 C40.62 -1.1, 202.52 1.91, 242.41 1.99 M-3.67 3.58 C37.15 3.51, 201.38 -1.55, 241.49 -1.95" stroke="#1e1e1e" stroke-width="1" fill="none"></path></g><g transform="translate(72.01438476704061 431.59037176109814) rotate(0 119.37456580054015 0.8196665740010758)"><path d="M211.13 12.37 C222.68 5.44, 224.26 0.47, 245.28 -4.99 M214.94 7.97 C220.06 6.42, 224.98 4.93, 239.68 -3.29" stroke="#1e1e1e" stroke-width="1" fill="none"></path></g><g transform="translate(72.01438476704061 431.59037176109814) rotate(0 119.37456580054015 0.8196665740010758)"><path d="M210.69 -8.15 C222.12 -10.53, 223.8 -10.95, 245.28 -4.99 M214.5 -12.54 C219.8 -9.41, 224.83 -6.21, 239.68 -3.29" stroke="#1e1e1e" stroke-width="1" fill="none"></path></g></g><mask></mask><g transform="translate(70 390) rotate(0 36 20.699999999999818)"><text x="36" y="0" font-family="Helvetica, Segoe UI Emoji" font-size="36px" fill="#1e1e1e" text-anchor="middle" style="white-space: pre;" direction="ltr" dominant-baseline="text-before-edge">写入</text></g><g transform="translate(70 90) rotate(0 36 20.699999999999818)"><text x="36" y="0" font-family="Helvetica, Segoe UI Emoji" font-size="36px" fill="#1e1e1e" text-anchor="middle" style="white-space: pre;" direction="ltr" dominant-baseline="text-before-edge">写入</text></g><g stroke-linecap="round" transform="translate(1410 210) rotate(0 150 80)"><path d="M211.07 5.57 C226.3 7.8, 240.58 15.15, 253.17 22.14 C265.77 29.12, 278.76 39.19, 286.65 47.46 C294.54 55.74, 299.13 62.89, 300.54 71.78 C301.94 80.68, 299.33 92.1, 295.06 100.82 C290.79 109.55, 284.71 116.7, 274.89 124.14 C265.08 131.58, 250.11 139.65, 236.17 145.46 C222.22 151.27, 207.39 156.62, 191.22 158.98 C175.04 161.34, 156.64 160.92, 139.11 159.6 C121.58 158.27, 101.95 154.99, 86.03 151.01 C70.11 147.04, 55.74 141.75, 43.59 135.73 C31.44 129.7, 20.37 123.17, 13.15 114.85 C5.92 106.54, 1.89 95.3, 0.24 85.84 C-1.41 76.38, -1.41 66.65, 3.24 58.09 C7.89 49.53, 18.4 41.67, 28.17 34.48 C37.94 27.28, 48 20.34, 61.85 14.91 C75.7 9.47, 94.71 4.34, 111.26 1.88 C127.81 -0.58, 140.07 -1.84, 161.16 0.14 C182.25 2.12, 222.2 9.83, 237.79 13.75 C253.38 17.67, 256.54 22.76, 254.71 23.67 M272.62 33.57 C283.29 40.47, 286.59 50.48, 291.15 59.43 C295.72 68.39, 300.15 78.35, 300.02 87.29 C299.89 96.23, 297.63 105.57, 290.36 113.05 C283.1 120.53, 268.27 125.9, 256.43 132.17 C244.59 138.43, 233.82 146.51, 219.33 150.65 C204.84 154.78, 187.05 155.92, 169.49 156.95 C151.93 157.99, 131.11 158.83, 113.98 156.87 C96.85 154.91, 80.77 149.95, 66.69 145.18 C52.6 140.41, 39.51 135.54, 29.44 128.25 C19.37 120.97, 10.72 109.92, 6.27 101.47 C1.81 93.02, 2.02 86.84, 2.7 77.56 C3.39 68.27, 3.69 54.67, 10.39 45.77 C17.08 36.87, 30.49 30.67, 42.88 24.15 C55.27 17.63, 69.58 11.11, 84.75 6.68 C99.91 2.24, 116.83 -1.43, 133.87 -2.46 C150.91 -3.49, 170.25 -1.8, 186.99 0.5 C203.73 2.81, 220.61 6.19, 234.3 11.37 C248 16.55, 263.38 28.3, 269.16 31.6 C274.95 34.89, 271.23 30.71, 269.02 31.15" stroke="none" stroke-width="0" fill="#a5d8ff"></path><path d="M59.52 16.55 C71.19 10.4, 91.52 4.13, 108.44 1.47 C125.36 -1.19, 144.39 -0.43, 161.04 0.6 C177.7 1.63, 193.22 3.74, 208.36 7.63 C223.5 11.52, 239.05 18.1, 251.9 23.95 C264.75 29.79, 277.64 34.87, 285.46 42.7 C293.27 50.54, 297.18 61.75, 298.79 70.95 C300.41 80.15, 299.2 88.85, 295.16 97.91 C291.11 106.97, 283.95 117.68, 274.54 125.31 C265.14 132.94, 252.16 138.78, 238.74 143.69 C225.33 148.6, 210.54 152.11, 194.06 154.77 C177.59 157.42, 157.06 159.94, 139.9 159.61 C122.74 159.28, 106.7 156.34, 91.1 152.8 C75.5 149.26, 59.11 144.55, 46.29 138.37 C33.47 132.18, 21.57 124.22, 14.19 115.69 C6.81 107.15, 4.03 96.47, 2.03 87.15 C0.04 77.84, -1.63 68.19, 2.21 59.81 C6.05 51.44, 9.38 46, 25.08 36.91 C40.78 27.82, 78.38 11.37, 96.42 5.28 C114.45 -0.81, 132.39 -0.99, 133.28 0.37 M107.45 4.98 C122.11 1.39, 143.8 0.38, 160.92 0.56 C178.04 0.74, 194.93 2.22, 210.16 6.06 C225.39 9.91, 240.4 17.39, 252.31 23.63 C264.22 29.87, 273.35 35.3, 281.64 43.5 C289.94 51.7, 299.94 63.14, 302.11 72.83 C304.28 82.51, 298.78 92.8, 294.67 101.61 C290.55 110.43, 287.12 118.84, 277.43 125.69 C267.74 132.54, 250.82 137.48, 236.52 142.71 C222.22 147.95, 207.97 154.57, 191.62 157.11 C175.27 159.66, 155.4 158.53, 138.43 158 C121.46 157.47, 104.89 157.17, 89.82 153.93 C74.76 150.68, 60.37 145.35, 48.05 138.52 C35.72 131.7, 24.06 121.5, 15.87 113 C7.67 104.5, 0.7 96.11, -1.14 87.51 C-2.97 78.91, 0.9 69.92, 4.87 61.42 C8.83 52.92, 12.82 44.22, 22.67 36.52 C32.53 28.82, 49.99 21.01, 63.99 15.2 C77.99 9.4, 98.97 3.42, 106.66 1.7 C114.35 -0.02, 109.63 3.65, 110.12 4.89" stroke="#1e1e1e" stroke-width="1" fill="none"></path></g><g transform="translate(1530.9300765720177 269.2314575050759) rotate(0 29.00390625 20.699999999999818)"><text x="29.00390625" y="0" font-family="Helvetica, Segoe UI Emoji" font-size="36px" fill="#1e1e1e" text-anchor="middle" style="white-space: pre;" direction="ltr" dominant-baseline="text-before-edge">File</text></g><g stroke-linecap="round"><g transform="translate(1270 110) rotate(0 99.36413418911388 59.7214427206668)"><path d="M-2.53 -1.88 C31.31 18.13, 167.92 100.6, 201.25 121.33 M1.3 3.27 C35.04 22.32, 166.09 97.86, 199.7 117.03" stroke="#1e1e1e" stroke-width="1" fill="none"></path></g><g transform="translate(1270 110) rotate(0 99.36413418911388 59.7214427206668)"><path d="M167.45 113.7 C179.07 110.03, 187.73 115.76, 196.6 118.97 M168.49 111.65 C176.94 112.06, 182.93 113.42, 200.8 116.64" stroke="#1e1e1e" stroke-width="1" fill="none"></path></g><g transform="translate(1270 110) rotate(0 99.36413418911388 59.7214427206668)"><path d="M177.66 95.9 C187.02 96.26, 193.27 106.19, 196.6 118.97 M178.7 93.85 C185.17 98.44, 188.82 103.87, 200.8 116.64" stroke="#1e1e1e" stroke-width="1" fill="none"></path></g></g><mask></mask><g stroke-linecap="round"><g transform="translate(1271 276.3969040873717) rotate(0 69.92928874321296 14.324129999225988)"><path d="M1.25 1.33 C24.4 6.48, 113.3 25.23, 136.34 29.07 M-1.51 -0.42 C22.7 4.17, 118.11 20.96, 141.37 25.42" stroke="#1e1e1e" stroke-width="1" fill="none"></path></g><g transform="translate(1271 276.3969040873717) rotate(0 69.92928874321296 14.324129999225988)"><path d="M113.68 26.83 C121.63 30.02, 121.17 30.01, 138.51 29.29 M111.74 29.77 C121.66 28.23, 134.18 26.52, 140.72 26.98" stroke="#1e1e1e" stroke-width="1" fill="none"></path></g><g transform="translate(1271 276.3969040873717) rotate(0 69.92928874321296 14.324129999225988)"><path d="M117.37 6.64 C124.28 14.1, 123.04 18.32, 138.51 29.29 M115.43 9.58 C123.69 15.27, 134.9 20.79, 140.72 26.98" stroke="#1e1e1e" stroke-width="1" fill="none"></path></g></g><mask></mask><g stroke-linecap="round"><g transform="translate(1271 450) rotate(0 98.5481855358928 -49.835996916517615)"><path d="M-2.53 2.5 C30.53 -14.75, 165.81 -84.75, 199.63 -102.17 M1.29 1.39 C33.92 -15.7, 164.73 -82.82, 197.73 -99.72" stroke="#1e1e1e" stroke-width="1" fill="none"></path></g><g transform="translate(1271 450) rotate(0 98.5481855358928 -49.835996916517615)"><path d="M180.9 -76.83 C181.06 -83, 188.33 -88.65, 200.07 -103.02 M176.51 -78.21 C184.31 -84.3, 188.41 -88.67, 195.78 -100.56" stroke="#1e1e1e" stroke-width="1" fill="none"></path></g><g transform="translate(1271 450) rotate(0 98.5481855358928 -49.835996916517615)"><path d="M171.53 -95.09 C175.09 -94.79, 185.59 -94.14, 200.07 -103.02 M167.15 -96.47 C177.62 -97.25, 184.42 -96.37, 195.78 -100.56" stroke="#1e1e1e" stroke-width="1" fill="none"></path></g></g><mask></mask></svg>