<svg version="1.1" xmlns="http://www.w3.org/2000/svg" viewBox="0 0 1540 780" width="1540" height="780">
  <!-- svg-source:excalidraw -->
  
  <defs>
    <style class="style-fonts">
      @font-face {
        font-family: "Virgil";
        src: url("https://excalidraw.com/Virgil.woff2");
      }
      @font-face {
        font-family: "Cascadia";
        src: url("https://excalidraw.com/Cascadia.woff2");
      }
    </style>
    
  </defs>
  <rect x="0" y="0" width="1540" height="780" fill="#ffffff"></rect><g stroke-linecap="round" transform="translate(10 10) rotate(0 760 380)"><path d="M30.76 -2.47 L1487.69 2.91 L1504.94 8.24 L1519.39 14.52 L1519.45 31.15 L1516.19 726.83 L1516.43 745.4 L1505.93 752.75 L1490.45 760.68 L30.91 761.76 L9.51 754.25 L-1.65 739.41 L-1.94 729.93 L3.93 33.78 L5.5 20.6 L5.23 5.05 L17.63 5.7 L30.31 -2.07" stroke="none" stroke-width="0" fill="#fff"></path><path d="M32 0 M32 0 C367.21 2.42, 702.57 1.1, 1488 0 M32 0 C405.8 -3.99, 778.52 -4.17, 1488 0 M1488 0 C1511.8 3.84, 1520.61 12.84, 1520 32 M1488 0 C1507.41 1.59, 1517.9 14.36, 1520 32 M1520 32 C1521.41 196.32, 1519.58 358.74, 1520 728 M1520 32 C1520.27 295.18, 1520.11 559.15, 1520 728 M1520 728 C1516.8 747.93, 1509.55 757.55, 1488 760 M1520 728 C1516.48 748.97, 1512.28 756.55, 1488 760 M1488 760 C986.94 770.88, 485.79 769.62, 32 760 M1488 760 C1177.38 749.72, 867.59 750.24, 32 760 M32 760 C11.86 763.96, -1.47 748.65, 0 728 M32 760 C11.9 755.87, -0.44 750.9, 0 728 M0 728 C1.18 583.06, 1.65 436.69, 0 32 M0 728 C0.67 450.43, 0.72 173.07, 0 32 M0 32 C1.43 13.52, 8.9 2.32, 32 0 M0 32 C1.95 11.75, 10.59 -1.3, 32 0" stroke="#1e1e1e" stroke-width="1" fill="none"></path></g><g stroke-linecap="round" transform="translate(770 70) rotate(0 350 330)"><path d="M30.97 1.47 L671.8 2.26 L682.8 5.1 L692.86 5.51 L700.24 16.68 L701.51 34.58 L700.4 631.07 L698.66 645.05 L694.98 649.56 L683.8 658.92 L668.24 657.87 L28.96 662.65 L19.01 660.16 L10.74 651.11 L-1.35 645.06 L0.3 629.62 L-2.88 31.58 L5.36 15.96 L10.92 9.21 L16.23 -1.69 L33.13 -0.13" stroke="none" stroke-width="0" fill="#fff"></path><path d="M32 0 M32 0 C281.43 -0.41, 531.74 -1.8, 668 0 M32 0 C160.7 -5.48, 289.11 -4.81, 668 0 M668 0 C686.36 -3.65, 700.96 10.39, 700 32 M668 0 C685.84 -4.4, 702.47 9.24, 700 32 M700 32 C698.61 175.53, 701.19 316.87, 700 628 M700 32 C698.75 202.84, 698.56 373, 700 628 M700 628 C697.25 651.78, 690.01 658.91, 668 660 M700 628 C702.03 645.89, 687.9 655.81, 668 660 M668 660 C519.97 663.17, 370.21 663.49, 32 660 M668 660 C521.92 659.19, 373.95 658.97, 32 660 M32 660 C9.42 659.64, -0.28 652.78, 0 628 M32 660 C10.44 660.16, -2 651.61, 0 628 M0 628 C-2.63 427.2, -0.38 227.1, 0 32 M0 628 C-2.31 439.72, -1.95 251.65, 0 32 M0 32 C0.71 9.6, 11.72 2.74, 32 0 M0 32 C-4.05 11.49, 14.27 -0.07, 32 0" stroke="#1e1e1e" stroke-width="1" fill="none"></path></g><g stroke-linecap="round" transform="translate(90 170) rotate(0 150 230)"><path d="M33.33 -1.92 L265.13 3.85 L279.03 -0.66 L297.72 15.25 L299.29 33.97 L303.11 429.64 L297.73 442.32 L284.72 455.08 L268.56 463.18 L30.52 456.1 L20.53 457.77 L6.05 450.63 L0.96 429.78 L1.41 33.07 L-0.27 17.28 L5.77 6.72 L15.29 -1.16 L30.84 -2.64" stroke="none" stroke-width="0" fill="#fff"></path><path d="M32 0 M32 0 C120.61 1.4, 206.78 0.99, 268 0 M32 0 C82.63 -0.46, 136.53 0.1, 268 0 M268 0 C291.87 2.18, 303.8 13.49, 300 32 M268 0 C291.95 -0.1, 301.04 11.23, 300 32 M300 32 C300.56 191.5, 297.47 347.47, 300 428 M300 32 C296.75 150.82, 296.77 272.03, 300 428 M300 428 C296.05 449.86, 290.3 463.35, 268 460 M300 428 C300.53 448.59, 291.31 461.12, 268 460 M268 460 C216.4 460.32, 162.76 458.35, 32 460 M268 460 C209.58 460.49, 150.92 458.95, 32 460 M32 460 C10.6 461.21, -0.03 445.71, 0 428 M32 460 C8.59 459.68, -2.36 453.1, 0 428 M0 428 C-3.6 318.85, -2.98 209.74, 0 32 M0 428 C0.6 273.32, 2.6 116.88, 0 32 M0 32 C3.67 12.04, 10.89 1.28, 32 0 M0 32 C-0.64 13.05, 6.87 1.66, 32 0" stroke="#1e1e1e" stroke-width="1" fill="none"></path></g><g transform="translate(186 379.3000000000002) rotate(0 54 20.699999999999818)"><text x="54" y="0" font-family="Helvetica, Segoe UI Emoji" font-size="36px" fill="#1e1e1e" text-anchor="middle" style="white-space: pre;" direction="ltr" dominant-baseline="text-before-edge">客户端</text></g><g stroke-linecap="round" transform="translate(870 210) rotate(0 90 50)"><path d="M27.24 3.58 L151.86 1 L170.34 1.55 L173.63 6.21 L176.17 15.68 L181.44 71.05 L177.01 91.2 L173.59 96.94 L154.35 101.72 L25.97 96.86 L12.6 94.26 L4.32 93.25 L-0.42 81.53 L-1.82 18.37 L5.34 4.75 L17.39 -2.03 L24.64 -0.07" stroke="none" stroke-width="0" fill="#ffc9c9"></path><path d="M25 0 M25 0 C66.14 2.08, 108.83 5.63, 155 0 M25 0 C61.38 2.49, 97.93 2.99, 155 0 M155 0 C175.33 -1.34, 176.13 5.11, 180 25 M155 0 C173.15 4.3, 175.94 12.56, 180 25 M180 25 C179.5 43.79, 176.75 59.88, 180 75 M180 25 C181.14 38.2, 180.07 55.11, 180 75 M180 75 C181.59 94.31, 173.72 96.53, 155 100 M180 75 C177.15 93.22, 171.22 97.97, 155 100 M155 100 C126.03 97.03, 95.49 100.27, 25 100 M155 100 C115.14 99.05, 76.83 99.35, 25 100 M25 100 C6.27 101.99, -1.77 88.03, 0 75 M25 100 C12.67 102.6, -1.6 89.01, 0 75 M0 75 C-1.83 54.99, 0.53 43.99, 0 25 M0 75 C-0.14 64.1, -2.22 52.31, 0 25 M0 25 C-2.12 9.96, 10.32 -2.14, 25 0 M0 25 C-3.57 7.57, 9.72 0.95, 25 0" stroke="#1e1e1e" stroke-width="1" fill="none"></path></g><g transform="translate(888 239.30000000000018) rotate(0 72 20.699999999999818)"><text x="72" y="0" font-family="Helvetica, Segoe UI Emoji" font-size="36px" fill="#1e1e1e" text-anchor="middle" style="white-space: pre;" direction="ltr" dominant-baseline="text-before-edge">消费接口</text></g><g stroke-linecap="round" transform="translate(870 530) rotate(0 90 50)"><path d="M21.37 -1.8 L154.73 -2.06 L173.51 2.59 L180.04 6.65 L180.36 20.07 L181.83 76.93 L180.15 88.89 L166.37 93.26 L156.29 103.74 L21.47 103.67 L11.14 96.71 L4.79 89.68 L2.46 77.55 L1.84 18.62 L10.23 4.58 L14.36 -0.73 L23.15 2.84" stroke="none" stroke-width="0" fill="#ffc9c9"></path><path d="M25 0 M25 0 C65.7 -3.82, 114.7 -1.73, 155 0 M25 0 C58.86 -2.57, 89.68 -3.66, 155 0 M155 0 C171.18 -0.06, 181.66 9.61, 180 25 M155 0 C169.23 -4.09, 178.69 4.93, 180 25 M180 25 C176.86 41.19, 182.76 48.44, 180 75 M180 25 C180.11 36.13, 179.19 49.43, 180 75 M180 75 C183.84 88.62, 173.27 96.4, 155 100 M180 75 C180.61 92.34, 167.49 99.31, 155 100 M155 100 C120.76 98.19, 90.13 102.5, 25 100 M155 100 C112.9 103.24, 70.71 101.58, 25 100 M25 100 C11.84 99.23, 0.64 95.11, 0 75 M25 100 C4 99.5, -3.23 95.83, 0 75 M0 75 C3.65 60.93, -0.63 42.17, 0 25 M0 75 C-1.71 62.82, -1.83 53.57, 0 25 M0 25 C2.67 9.67, 8.18 0.88, 25 0 M0 25 C2.67 6.48, 10.98 -0.11, 25 0" stroke="#1e1e1e" stroke-width="1" fill="none"></path></g><g transform="translate(881.98828125 559.3000000000002) rotate(0 78.01171875 20.699999999999818)"><text x="78.01171875" y="0" font-family="Helvetica, Segoe UI Emoji" font-size="36px" fill="#1e1e1e" text-anchor="middle" style="white-space: pre;" direction="ltr" dominant-baseline="text-before-edge">ACK 接口</text></g><g mask="url(#mask-35ld6Rw7QfwrBVBJghQFs)" stroke-linecap="round"><g transform="translate(391 572.7329377722326) rotate(0 228.91985530834654 -2.0115638736797337)"><path d="M-0.44 -1.29 C75.97 -2.17, 381.59 -2.79, 458.28 -2.73" stroke="#1e1e1e" stroke-width="1.5" fill="none" stroke-dasharray="8 9"></path></g><g transform="translate(391 572.7329377722326) rotate(0 228.91985530834654 -2.0115638736797337)"><path d="M428.26 5.9 C434.29 4.99, 445.15 4.23, 456.86 0.05" stroke="#1e1e1e" stroke-width="1.5" fill="none"></path></g><g transform="translate(391 572.7329377722326) rotate(0 228.91985530834654 -2.0115638736797337)"><path d="M428.24 -14.62 C434.66 -9.51, 445.52 -4.23, 456.86 0.05" stroke="#1e1e1e" stroke-width="1.5" fill="none"></path></g></g><mask id="mask-35ld6Rw7QfwrBVBJghQFs"><rect x="0" y="0" fill="#fff" width="950.4436554078011" height="672.7329377722326"></rect><rect x="542.7101089539005" y="552.0329377722328" fill="#000" width="156.0234375" height="41.4" opacity="1"></rect></mask><g transform="translate(542.7101089539001 552.0329377722328) rotate(0 77.209746354446 18.688436126320084)"><text x="78.01171875" y="0" font-family="Helvetica, Segoe UI Emoji" font-size="36px" fill="#1e1e1e" text-anchor="middle" style="white-space: pre;" direction="ltr" dominant-baseline="text-before-edge">ACK 数据</text></g><g mask="url(#mask-W6x4MUGEFQhf7YHFKH3O0)" stroke-linecap="round"><g transform="translate(869 247.7052958007862) rotate(0 -238.08963246978783 3.790672533684301)"><path d="M-0.82 -0.76 C-79.95 0.72, -396.05 6.25, -475.36 8.35" stroke="#1e1e1e" stroke-width="1.5" fill="none" stroke-dasharray="8 9"></path></g><g transform="translate(869 247.7052958007862) rotate(0 -238.08963246978783 3.790672533684301)"><path d="M-448.49 1.25 C-458.91 2.25, -461.81 4.47, -478.86 4.42" stroke="#1e1e1e" stroke-width="1.5" fill="none"></path></g><g transform="translate(869 247.7052958007862) rotate(0 -238.08963246978783 3.790672533684301)"><path d="M-448.05 21.77 C-458.51 17.01, -461.54 13.47, -478.86 4.42" stroke="#1e1e1e" stroke-width="1.5" fill="none"></path></g></g><mask id="mask-W6x4MUGEFQhf7YHFKH3O0"><rect x="0" y="0" fill="#fff" width="1446.9999999999995" height="358.5845391599505"></rect><rect x="558" y="232.44491748036853" fill="#000" width="144" height="41.4" opacity="1"></rect></mask><g transform="translate(558 232.44491748036853) rotate(0 72.91036753021217 19.05105085410196)"><text x="72" y="0" font-family="Helvetica, Segoe UI Emoji" font-size="36px" fill="#1e1e1e" text-anchor="middle" style="white-space: pre;" direction="ltr" dominant-baseline="text-before-edge">消费数据</text></g><g stroke-linecap="round" transform="translate(1250 130) rotate(0 50 40)"><path d="M16.26 -1.9 L88.35 -0.31 L96.56 8.44 L100.82 14.82 L102.8 19.45 L101.73 64.75 L96.85 73.52 L87.94 77.75 L77.04 79.59 L18.85 82.82 L8.11 75.15 L3.89 68.41 L-0.4 15.61 L5.04 8.45 L4.99 1.46 L16.82 -1.72" stroke="none" stroke-width="0" fill="#ced4da"></path><path d="M20 0 M20 0 C34.93 -0.89, 47.9 -0.26, 80 0 M20 0 C33.56 0.18, 43.66 0.3, 80 0 M80 0 C92.47 -3.88, 102.32 5.61, 100 20 M80 0 C96.91 -0.8, 99.27 3.55, 100 20 M100 20 C99.52 29.6, 102.61 39.52, 100 60 M100 20 C101.71 35.1, 101.7 48.81, 100 60 M100 60 C99.2 75.92, 94.06 80.04, 80 80 M100 60 C101.16 77.67, 90.14 77.56, 80 80 M80 80 C55.85 79.14, 36.21 77, 20 80 M80 80 C58.64 78, 37.22 78.57, 20 80 M20 80 C7.58 76.92, 2.9 73.26, 0 60 M20 80 C6.37 81.68, -2.29 75.06, 0 60 M0 60 C2.87 51.83, 2.56 41.11, 0 20 M0 60 C1.85 49.07, 1.41 36.48, 0 20 M0 20 C3.56 10.11, 7.94 -1.4, 20 0 M0 20 C-4.32 9.72, 9.64 3.86, 20 0" stroke="#1e1e1e" stroke-width="1" fill="none"></path></g><g transform="translate(1291 149.30000000000018) rotate(0 9 20.699999999999818)"><text x="9" y="0" font-family="Helvetica, Segoe UI Emoji" font-size="36px" fill="#1e1e1e" text-anchor="middle" style="white-space: pre;" direction="ltr" dominant-baseline="text-before-edge">x</text></g><g stroke-linecap="round" transform="translate(1250 210) rotate(0 50 40)"><path d="M23.11 0.15 L88.27 4.03 L94.28 5.3 L100.97 11.88 L97.18 18.64 L96.51 62.96 L91.87 71.39 L87.92 80.38 L78.86 81.29 L14.8 75.91 L5.11 74.67 L2.75 64.85 L-1.7 15.72 L1.95 3.93 L10.13 1.76 L23.11 -0.69" stroke="none" stroke-width="0" fill="#ced4da"></path><path d="M20 0 M20 0 C34.57 4.32, 54.12 -0.25, 80 0 M20 0 C42 -0.19, 67.28 0.17, 80 0 M80 0 C97.27 0.61, 99.2 9.26, 100 20 M80 0 C94.16 0.05, 101.16 11, 100 20 M100 20 C102.19 25.25, 96.85 38.77, 100 60 M100 20 C100.09 30.88, 99.23 40.24, 100 60 M100 60 C98.22 70.7, 94.25 76.92, 80 80 M100 60 C103.33 73.25, 93.03 81.68, 80 80 M80 80 C64.8 78.61, 52.8 81.82, 20 80 M80 80 C57.66 78.12, 38.05 80.1, 20 80 M20 80 C9.04 77.97, 3.56 76.77, 0 60 M20 80 C8.14 78.39, -4.32 76.39, 0 60 M0 60 C3.19 49.12, 0.93 28.71, 0 20 M0 60 C0.48 44.48, 2.32 31.01, 0 20 M0 20 C2.98 4.19, 7.32 -0.83, 20 0 M0 20 C-0.43 3.93, 11.19 0.12, 20 0" stroke="#1e1e1e" stroke-width="1" fill="none"></path></g><g transform="translate(1291 229.30000000000018) rotate(0 9 20.699999999999818)"><text x="9" y="0" font-family="Helvetica, Segoe UI Emoji" font-size="36px" fill="#1e1e1e" text-anchor="middle" style="white-space: pre;" direction="ltr" dominant-baseline="text-before-edge">x</text></g><g stroke-linecap="round" transform="translate(1250 290) rotate(0 50 40)"><path d="M16.12 2.32 L83.63 3.42 L94.31 4.37 L96.04 9.6 L97.52 23.83 L99.7 63.94 L98.1 73.83 L91 77.43 L80.97 83.95 L17 83.62 L5.61 74.2 L2.9 65.41 L0.35 16.33 L6.58 5.03 L5.69 5.1 L22.61 -3.97" stroke="none" stroke-width="0" fill="#a5d8ff"></path><path d="M20 0 M20 0 C32.1 2.24, 48.74 -0.09, 80 0 M20 0 C35.46 0.99, 52 1.98, 80 0 M80 0 C93.26 -0.26, 101.46 4.68, 100 20 M80 0 C95.06 -1.78, 99.79 5.6, 100 20 M100 20 C102.48 34.09, 99.34 46.36, 100 60 M100 20 C99.11 37.03, 101.85 51.13, 100 60 M100 60 C98.6 69.57, 95.99 82.58, 80 80 M100 60 C103.86 76.75, 97.77 84.26, 80 80 M80 80 C56.09 84.19, 38.75 80.27, 20 80 M80 80 C55.92 81.22, 33.89 80.71, 20 80 M20 80 C4.29 83.93, 0.1 70.7, 0 60 M20 80 C4.35 78.45, 1.96 73.94, 0 60 M0 60 C-2.32 50.31, -3.12 35.25, 0 20 M0 60 C-1.48 47.57, -0.04 39.59, 0 20 M0 20 C1.81 3.73, 5.31 -1.24, 20 0 M0 20 C-3.55 6.01, 4.55 0.4, 20 0" stroke="#1e1e1e" stroke-width="1" fill="none"></path></g><g stroke-linecap="round" transform="translate(1250 370) rotate(0 50 40)"><path d="M18.68 0.97 L88.64 2 L98.93 5.61 L97.95 13.84 L100.72 20.04 L100.7 68.46 L92.22 72.88 L91.03 81.36 L76.03 77.27 L15.64 78.75 L3.19 76.96 L1.22 64.31 L-0.51 11.54 L1.03 5.18 L8.72 -0.26 L22.9 -0.07" stroke="none" stroke-width="0" fill="#a5d8ff"></path><path d="M20 0 M20 0 C39.11 -0.95, 55.03 -0.33, 80 0 M20 0 C43.26 -1.13, 63.95 -2.41, 80 0 M80 0 C96.58 0.64, 102.37 4.64, 100 20 M80 0 C97.43 3.95, 101.47 5.05, 100 20 M100 20 C103.89 31.21, 104.39 40.18, 100 60 M100 20 C97.82 35.22, 99.35 46.86, 100 60 M100 60 C103.23 76.08, 96.32 77.52, 80 80 M100 60 C100.75 72.38, 92.91 77.26, 80 80 M80 80 C54.1 77.87, 33.92 79.74, 20 80 M80 80 C61.57 81.15, 43.81 79.41, 20 80 M20 80 C5.23 78.98, -3.87 69.96, 0 60 M20 80 C2.38 79.43, 1.65 75.41, 0 60 M0 60 C-2.82 50.37, -1.57 42.23, 0 20 M0 60 C0.76 48.33, -1.09 32.12, 0 20 M0 20 C-2.62 10.65, 10.38 -1.03, 20 0 M0 20 C1.69 11.03, 9.27 0.92, 20 0" stroke="#1e1e1e" stroke-width="1" fill="none"></path></g><g stroke-linecap="round" transform="translate(1250 450) rotate(0 50 40)"><path d="M16.03 -2.73 L85.02 -0.62 L93.19 6.96 L99.66 10.88 L99.18 16.23 L97.91 62.06 L95.91 71.92 L91.65 78.68 L79.74 81.46 L13.33 81.19 L3.45 74.81 L-0.62 67.52 L2.59 17.84 L4.83 7.07 L6.7 -0.5 L23.24 0.64" stroke="none" stroke-width="0" fill="#a5d8ff"></path><path d="M20 0 M20 0 C45 0.21, 61.71 -4.83, 80 0 M20 0 C43.47 0.92, 65.82 -0.21, 80 0 M80 0 C91.21 3.18, 96.49 9.91, 100 20 M80 0 C92.81 -0.78, 103.71 9.83, 100 20 M100 20 C98.67 34.61, 97.13 53.89, 100 60 M100 20 C98.8 32.95, 99.74 43.99, 100 60 M100 60 C100.87 74.04, 91.19 81.88, 80 80 M100 60 C96.62 71.49, 91.68 78.83, 80 80 M80 80 C67.31 80.31, 57.43 75.94, 20 80 M80 80 C63.75 78.15, 48.24 79.81, 20 80 M20 80 C5 82.37, 0.86 76.95, 0 60 M20 80 C3.4 77.88, -3.01 77.91, 0 60 M0 60 C4 46.55, 1.01 31.67, 0 20 M0 60 C-0.16 47.9, 1.79 34.49, 0 20 M0 20 C3.07 7.33, 9.71 2.98, 20 0 M0 20 C-2.81 8.74, 7.72 0.28, 20 0" stroke="#1e1e1e" stroke-width="1" fill="none"></path></g><g stroke-linecap="round" transform="translate(1250 530) rotate(0 50 40)"><path d="M16.92 2.9 L84.62 0.05 L96.46 3.01 L100.25 9.7 L99.81 19.07 L102.52 66.97 L97.52 77.02 L88 77.63 L76.69 83.24 L15.95 82.06 L2.97 78.56 L3.75 65.97 L-1.09 11.55 L5.47 10.4 L11.17 5.78 L23.86 3.7" stroke="none" stroke-width="0" fill="#a5d8ff"></path><path d="M20 0 M20 0 C36.89 2.28, 60.35 -1.64, 80 0 M20 0 C41.61 -0.57, 65.28 -1.08, 80 0 M80 0 C90.95 3.93, 100.1 4.04, 100 20 M80 0 C91.02 -1.55, 101.96 7.27, 100 20 M100 20 C98.03 33.46, 97.23 41.55, 100 60 M100 20 C98.11 28.7, 99.55 41.84, 100 60 M100 60 C101.81 70.39, 91.98 78.76, 80 80 M100 60 C96.45 72.68, 91.22 80.4, 80 80 M80 80 C60.63 84.33, 36.71 78.87, 20 80 M80 80 C65.41 81.85, 53.75 82.25, 20 80 M20 80 C7.47 83.1, 0.86 70.84, 0 60 M20 80 C9.24 78.48, 1.73 76.3, 0 60 M0 60 C2.43 50.58, -3.06 37.01, 0 20 M0 60 C-1.57 48.4, 0.45 35.24, 0 20 M0 20 C2.74 5.77, 3.32 3.06, 20 0 M0 20 C0.34 8.54, 3.36 -0.48, 20 0" stroke="#1e1e1e" stroke-width="1" fill="none"></path></g><g stroke-linecap="round" transform="translate(1250 610) rotate(0 50 40)"><path d="M18.88 -3.31 L87.93 0.95 L97.37 2.97 L102.31 14.69 L101.28 18.6 L95.93 67.34 L97.58 78.36 L91.72 82.61 L83.7 81.6 L13.19 82.87 L1.49 78.24 L-0.14 64.01 L3.54 18.06 L5.79 5.34 L8.47 1.98 L19.63 -2.38" stroke="none" stroke-width="0" fill="#a5d8ff"></path><path d="M20 0 M20 0 C41.88 -0.56, 69.49 1.32, 80 0 M20 0 C36.29 0.73, 53.25 -1.01, 80 0 M80 0 C91.9 -1.02, 96.13 3.29, 100 20 M80 0 C89.05 -0.57, 101.65 8.74, 100 20 M100 20 C96.64 28.49, 97.89 38.47, 100 60 M100 20 C100.1 35.29, 98.25 46.04, 100 60 M100 60 C97.38 77.31, 97.05 78.97, 80 80 M100 60 C101.69 77.7, 95.94 80.92, 80 80 M80 80 C59.59 77.93, 36.21 81.83, 20 80 M80 80 C62.93 81.69, 41.59 81.1, 20 80 M20 80 C7.59 80.24, -2.13 70.29, 0 60 M20 80 C9.71 81.16, 2.49 76.48, 0 60 M0 60 C0.97 50.52, -2.21 37.37, 0 20 M0 60 C1.01 43.75, -1.44 29.83, 0 20 M0 20 C-0.13 10.41, 3.97 1.36, 20 0 M0 20 C-2.41 10.48, 4.38 -0.2, 20 0" stroke="#1e1e1e" stroke-width="1" fill="none"></path></g><g stroke-linecap="round"><g transform="translate(1050 570) rotate(0 91.91049188934267 -159.44600954018506)"><path d="M2.7 2.59 C32.5 -51.33, 151.2 -267.31, 181.12 -321.48" stroke="#1e1e1e" stroke-width="1.5" fill="none" stroke-dasharray="8 9"></path></g><g transform="translate(1050 570) rotate(0 91.91049188934267 -159.44600954018506)"><path d="M180.21 -290.24 C175.72 -300.13, 176.1 -311.45, 180.67 -322.17" stroke="#1e1e1e" stroke-width="1.5" fill="none"></path></g><g transform="translate(1050 570) rotate(0 91.91049188934267 -159.44600954018506)"><path d="M162.23 -300.14 C164.79 -306.58, 172.07 -314.1, 180.67 -322.17" stroke="#1e1e1e" stroke-width="1.5" fill="none"></path></g></g><mask></mask><g stroke-linecap="round"><g transform="translate(1250 350) rotate(0 -101.53299739323529 -40.91716887392113)"><path d="M-2.06 -1.12 C-35.31 -14.79, -167.56 -67.17, -201.01 -80.71" stroke="#1e1e1e" stroke-width="1.5" fill="none" stroke-dasharray="8 9"></path></g><g transform="translate(1250 350) rotate(0 -101.53299739323529 -40.91716887392113)"><path d="M-172.62 -81.21 C-179.44 -84.32, -189.18 -84.4, -201.5 -79.28" stroke="#1e1e1e" stroke-width="1.5" fill="none"></path></g><g transform="translate(1250 350) rotate(0 -101.53299739323529 -40.91716887392113)"><path d="M-180.24 -62.15 C-185.36 -69.85, -193.23 -74.63, -201.5 -79.28" stroke="#1e1e1e" stroke-width="1.5" fill="none"></path></g></g><mask></mask><g transform="translate(1070 90) rotate(0 53.015625 20.699999999999818)"><text x="53.015625" y="0" font-family="Helvetica, Segoe UI Emoji" font-size="36px" fill="#1e1e1e" text-anchor="middle" style="white-space: pre;" direction="ltr" dominant-baseline="text-before-edge">Broker</text></g></svg>