<svg version="1.1" xmlns="http://www.w3.org/2000/svg" viewBox="0 0 2180 1120" width="2180" height="1120">
  <!-- svg-source:excalidraw -->
  
  <defs>
    <style class="style-fonts">
      @font-face {
        font-family: "Virgil";
        src: url("https://excalidraw.com/Virgil.woff2");
      }
      @font-face {
        font-family: "Cascadia";
        src: url("https://excalidraw.com/Cascadia.woff2");
      }
    </style>
    
  </defs>
  <rect x="0" y="0" width="2180" height="1120" fill="#ffffff"></rect><g stroke-linecap="round" transform="translate(10 10) rotate(0 1080 550)"><path d="M32.94 3.92 L2127.16 3.12 L2145.63 6.69 L2157.9 16.49 L2157.96 29.01 L2163.03 1066.53 L2158.55 1085.22 L2148.96 1094.29 L2130.61 1096.11 L30.65 1101.3 L12.89 1097.91 L2.15 1081 L2.7 1069.29 L-3.94 33.27 L0.44 21.85 L5.05 5.94 L21.04 5.62 L30.33 3.25" stroke="none" stroke-width="0" fill="#fff"></path><path d="M32 0 M32 0 C584.13 1.85, 1133.59 1.88, 2128 0 M32 0 C821.39 7.55, 1609.86 7.3, 2128 0 M2128 0 C2151.96 3.52, 2158.93 11.95, 2160 32 M2128 0 C2151.02 1.49, 2156.02 12.05, 2160 32 M2160 32 C2155.75 335.4, 2155.33 642.2, 2160 1068 M2160 32 C2159.97 416.39, 2159.53 799.9, 2160 1068 M2160 1068 C2158.51 1087.29, 2152.64 1098.01, 2128 1100 M2160 1068 C2160.95 1091.52, 2151.2 1100.81, 2128 1100 M2128 1100 C1646.22 1112, 1162.01 1110.81, 32 1100 M2128 1100 C1515.95 1082.5, 903.51 1082.51, 32 1100 M32 1100 C10.55 1103.95, 1.01 1087.39, 0 1068 M32 1100 C10.21 1104.47, -1.89 1084.84, 0 1068 M0 1068 C4.47 745.4, 6.06 419.74, 0 32 M0 1068 C0.17 827.32, 0.76 587.03, 0 32 M0 32 C0.35 11.15, 10.24 -1.33, 32 0 M0 32 C-2.44 8.57, 12.94 -0.8, 32 0" stroke="#1e1e1e" stroke-width="1" fill="none"></path></g><g stroke-linecap="round" transform="translate(750 70) rotate(0 680 500)"><path d="M31.16 3.12 L1326.13 2.19 L1349.9 8.49 L1353.46 9.51 L1363.03 30.53 L1363.05 965.72 L1356.96 986.29 L1350.11 991.61 L1326.65 1001.3 L32.39 1002.41 L12.65 994.5 L4.7 983.29 L-3.94 969.27 L-1.56 35.85 L-0.95 15.94 L11.04 11.62 L16.33 5.25 L30.51 -3.41" stroke="none" stroke-width="0" fill="#fff"></path><path d="M32 0 M32 0 C411.34 -3.08, 790.97 -2.52, 1328 0 M32 0 C362.19 -0.88, 694.25 0.03, 1328 0 M1328 0 C1348.26 1.28, 1361.46 11.96, 1360 32 M1328 0 C1345.36 1.39, 1359.73 8.89, 1360 32 M1360 32 C1353.62 287.47, 1356.22 541.41, 1360 968 M1360 32 C1359.73 234.59, 1359.86 437.7, 1360 968 M1360 968 C1363.31 987.35, 1350.16 1001.9, 1328 1000 M1360 968 C1361.87 990.14, 1346.12 1004.21, 1328 1000 M1328 1000 C846.32 1000.04, 367.34 1001.78, 32 1000 M1328 1000 C1068.6 989.67, 809.52 991.2, 32 1000 M32 1000 C11.68 998.05, -0.4 993.22, 0 968 M32 1000 C8.77 995.51, 0.59 986.83, 0 968 M0 968 C1.76 669.9, -0.87 371.51, 0 32 M0 968 C0.99 766.04, 0.51 564.54, 0 32 M0 32 C-0.42 9.34, 8.55 -1.82, 32 0 M0 32 C2.27 9.87, 13.82 -3.15, 32 0" stroke="#1e1e1e" stroke-width="1" fill="none"></path></g><g stroke-linecap="round" transform="translate(70 330) rotate(0 150 230)"><path d="M30.13 2.19 L270.4 3.99 L279.96 -0.99 L298.53 11.03 L303.05 29.72 L301.46 426.79 L300.61 438.11 L286.15 456.8 L268.39 462.41 L32.15 459 L20.7 459.29 L0.56 448.77 L-1.56 431.85 L-2.95 29.94 L5.04 21.62 L6.33 11.25 L16.51 -1.41 L31.69 3.92" stroke="none" stroke-width="0" fill="#fff"></path><path d="M32 0 M32 0 C113.74 0.95, 188.83 -0.94, 268 0 M32 0 C105.44 2.46, 176.23 1.52, 268 0 M268 0 C290.8 1.29, 296.54 11.87, 300 32 M268 0 C289.06 -1.78, 298.72 7.65, 300 32 M300 32 C297.46 118.06, 293.93 204.2, 300 428 M300 32 C297.19 160.68, 298.56 289.96, 300 428 M300 428 C300.82 451.23, 290.96 460.7, 268 460 M300 428 C296.78 453.54, 292.58 461.47, 268 460 M268 460 C194.5 458.95, 118.17 457.94, 32 460 M268 460 C218.99 458.04, 170.51 455.56, 32 460 M32 460 C10.27 463.89, -1.65 445.43, 0 428 M32 460 C11.26 457.49, 0.86 449.2, 0 428 M0 428 C-5.96 269.76, -6.33 111.51, 0 32 M0 428 C-3.02 323.49, -3.24 218.31, 0 32 M0 32 C-2.12 8.85, 12.64 -0.69, 32 0 M0 32 C3.16 7.52, 13.09 1.49, 32 0" stroke="#1e1e1e" stroke-width="1" fill="none"></path></g><g transform="translate(166 539.3000000000002) rotate(0 54 20.699999999999818)"><text x="54" y="0" font-family="Helvetica, Segoe UI Emoji" font-size="36px" fill="#1e1e1e" text-anchor="middle" style="white-space: pre;" direction="ltr" dominant-baseline="text-before-edge">客户端</text></g><g stroke-linecap="round" transform="translate(850 370) rotate(0 90 50)"><path d="M22.96 -2.99 L158.03 -1.47 L173.29 1.23 L177.94 8.56 L182.22 15.25 L178.65 76.3 L176.87 92.65 L170.39 95.49 L157.7 101.29 L21.06 101.27 L8.2 100.33 L0.56 88.17 L3.43 84.48 L-1.28 22.39 L4.76 2.84 L13.76 5.48 L26.42 1.17" stroke="none" stroke-width="0" fill="#ffc9c9"></path><path d="M25 0 M25 0 C67.07 -1.24, 112.98 -5.23, 155 0 M25 0 C60.24 -1.65, 97.28 -1.64, 155 0 M155 0 C168.21 1.21, 179.77 6.79, 180 25 M155 0 C170.38 -3.02, 176.2 4.11, 180 25 M180 25 C177.39 42.45, 181.77 57.64, 180 75 M180 25 C181.28 36.12, 180.04 50.18, 180 75 M180 75 C181.63 92.37, 168.87 103.66, 155 100 M180 75 C183.25 93.14, 172.14 95.94, 155 100 M155 100 C120.33 101.72, 89.96 100.3, 25 100 M155 100 C128.38 101.59, 100.54 104.51, 25 100 M25 100 C6.69 96.09, 0.52 89.49, 0 75 M25 100 C9.19 99.87, 4.57 96.12, 0 75 M0 75 C-2.7 59.37, -0.75 46.96, 0 25 M0 75 C-0.3 60.49, -1.15 46.41, 0 25 M0 25 C1.97 7.64, 11.08 -2.74, 25 0 M0 25 C2.43 9.82, 12.81 2.05, 25 0" stroke="#1e1e1e" stroke-width="1" fill="none"></path></g><g transform="translate(868 399.3000000000002) rotate(0 72 20.699999999999818)"><text x="72" y="0" font-family="Helvetica, Segoe UI Emoji" font-size="36px" fill="#1e1e1e" text-anchor="middle" style="white-space: pre;" direction="ltr" dominant-baseline="text-before-edge">消费接口</text></g><g stroke-linecap="round" transform="translate(850 690) rotate(0 90 50)"><path d="M28.05 -2.28 L156.46 -1.21 L172.84 -0.37 L175.14 11.07 L180 21.55 L180.15 74 L179.19 91.53 L166.3 97.76 L153.44 103.85 L22.05 97.94 L12.8 100.11 L1.84 93.49 L-1.1 77.45 L0.08 23.06 L7.67 7.42 L15.56 4.62 L27.9 -1.79" stroke="none" stroke-width="0" fill="#ffc9c9"></path><path d="M25 0 M25 0 C65.11 4.8, 110.73 1.1, 155 0 M25 0 C66.44 -0.24, 111.23 -1.61, 155 0 M155 0 C170.55 -2.62, 176.69 4.66, 180 25 M155 0 C173.85 3.26, 179.97 4.51, 180 25 M180 25 C177.96 38.62, 178.23 58.52, 180 75 M180 25 C181.02 37.87, 178.81 51.86, 180 75 M180 75 C182.82 92.95, 172.08 96.47, 155 100 M180 75 C177.05 91.3, 173.7 95.4, 155 100 M155 100 C110.5 99.33, 77.25 100.47, 25 100 M155 100 C121.51 100.58, 89.92 101.44, 25 100 M25 100 C9.08 99.89, 3.98 95.54, 0 75 M25 100 C8.7 96.87, -0.12 87.78, 0 75 M0 75 C-0.57 60.64, 0.84 45.16, 0 25 M0 75 C1.52 61.31, 1.9 46.95, 0 25 M0 25 C2.11 9.63, 12.23 1.78, 25 0 M0 25 C0.81 5.33, 4.68 2.53, 25 0" stroke="#1e1e1e" stroke-width="1" fill="none"></path></g><g transform="translate(855.2998046875 698.6000000000004) rotate(0 84.7001953125 41.40000000000009)"><text x="84.7001953125" y="0" font-family="Helvetica, Segoe UI Emoji" font-size="36px" fill="#1e1e1e" text-anchor="middle" style="white-space: pre;" direction="ltr" dominant-baseline="text-before-edge">offset 提交</text><text x="84.7001953125" y="41.4" font-family="Helvetica, Segoe UI Emoji" font-size="36px" fill="#1e1e1e" text-anchor="middle" style="white-space: pre;" direction="ltr" dominant-baseline="text-before-edge">接口</text></g><g mask="url(#mask-AilZVOD5ujAqCJDp8qed8)" stroke-linecap="round"><g transform="translate(372.289109862224 730.7000000000007) rotate(0 229.38501473646602 1.349027857798319)"><path d="M-0.94 0.91 C75.37 1.65, 382.96 1.96, 459.71 1.69" stroke="#1e1e1e" stroke-width="1.5" fill="none" stroke-dasharray="8 9"></path></g><g transform="translate(372.289109862224 730.7000000000007) rotate(0 229.38501473646602 1.349027857798319)"><path d="M432.84 12.36 C444.44 8.56, 451.32 7.35, 461.01 -2.25" stroke="#1e1e1e" stroke-width="1.5" fill="none"></path></g><g transform="translate(372.289109862224 730.7000000000007) rotate(0 229.38501473646602 1.349027857798319)"><path d="M432.82 -8.16 C444.03 -4.47, 450.92 1.82, 461.01 -2.25" stroke="#1e1e1e" stroke-width="1.5" fill="none"></path></g></g><mask id="mask-AilZVOD5ujAqCJDp8qed8"><rect x="0" y="0" fill="#fff" width="931.7327652700251" height="830.7000000000007"></rect><rect x="523.999218816125" y="710" fill="#000" width="156.0234375" height="41.4" opacity="1"></rect></mask><g transform="translate(523.999218816125 710.0000000000009) rotate(0 77.67490578256502 22.049027857798137)"><text x="78.01171875" y="0" font-family="Helvetica, Segoe UI Emoji" font-size="36px" fill="#1e1e1e" text-anchor="middle" style="white-space: pre;" direction="ltr" dominant-baseline="text-before-edge">ACK 机制</text></g><g mask="url(#mask-kDJ6b9vdQbs9W4_vx8qPJ)" stroke-linecap="round"><g transform="translate(849 407.7052958007862) rotate(0 -238.00078923143428 5.54263110654847)"><path d="M0.11 -0.7 C-79.29 0.98, -395.97 9.71, -476.11 11.78" stroke="#1e1e1e" stroke-width="1.5" fill="none" stroke-dasharray="8 9"></path></g><g transform="translate(849 407.7052958007862) rotate(0 -238.00078923143428 5.54263110654847)"><path d="M-449.2 3.47 C-455.42 0.27, -464.08 6.05, -472.26 8.83" stroke="#1e1e1e" stroke-width="1.5" fill="none"></path></g><g transform="translate(849 407.7052958007862) rotate(0 -238.00078923143428 5.54263110654847)"><path d="M-448.65 23.99 C-455.29 14.43, -464.12 13.86, -472.26 8.83" stroke="#1e1e1e" stroke-width="1.5" fill="none"></path></g></g><mask id="mask-kDJ6b9vdQbs9W4_vx8qPJ"><rect x="0" y="0" fill="#fff" width="1426.9999999999995" height="518.5845391599505"></rect><rect x="538" y="392.44491748036853" fill="#000" width="144" height="41.4" opacity="1"></rect></mask><g transform="translate(538 392.44491748036853) rotate(0 72.99921076856572 20.803009426966128)"><text x="72" y="0" font-family="Helvetica, Segoe UI Emoji" font-size="36px" fill="#1e1e1e" text-anchor="middle" style="white-space: pre;" direction="ltr" dominant-baseline="text-before-edge">消费数据</text></g><g stroke-linecap="round" transform="translate(1410 170) rotate(0 50 40)"><path d="M22.7 1.29 L80.75 1.59 L93.44 8.85 L95.8 9.19 L103.04 23.62 L98.02 67.94 L93.51 71.59 L88.44 82.67 L81.42 81.17 L16.81 82.75 L7.9 73.21 L0.96 64.95 L-3.04 14.32 L5.44 11.34 L6.74 4.1 L21.46 1.29" stroke="none" stroke-width="0" fill="#ced4da"></path><path d="M20 0 M20 0 C31.27 -1.04, 43.01 -3.24, 80 0 M20 0 C32.48 -2.51, 45.03 -0.32, 80 0 M80 0 C91.23 -2.31, 98.51 4.63, 100 20 M80 0 C97.14 -2.29, 100.95 8.85, 100 20 M100 20 C103.8 36.45, 101.42 47.67, 100 60 M100 20 C100.37 26.47, 99.77 35.09, 100 60 M100 60 C99.15 69.68, 93.22 83.95, 80 80 M100 60 C101.17 71.09, 92.88 84.47, 80 80 M80 80 C62.29 80.9, 48.82 84.13, 20 80 M80 80 C56.14 77.5, 32.26 78.47, 20 80 M20 80 C9.42 79.07, 0.35 73.81, 0 60 M20 80 C6.18 78.47, -2.44 71.24, 0 60 M0 60 C-2.6 48.13, 1.43 35.94, 0 20 M0 60 C-1.73 47.32, 1.38 32.84, 0 20 M0 20 C3.61 10.11, 5.66 1.15, 20 0 M0 20 C-3.59 3.05, 5.47 0.59, 20 0" stroke="#1e1e1e" stroke-width="1" fill="none"></path></g><g transform="translate(1427.9814453125 189.30000000000018) rotate(0 32.0185546875 20.699999999999818)"><text x="32.0185546875" y="0" font-family="Helvetica, Segoe UI Emoji" font-size="36px" fill="#1e1e1e" text-anchor="middle" style="white-space: pre;" direction="ltr" dominant-baseline="text-before-edge">g  X</text></g><g stroke-linecap="round" transform="translate(1410 250) rotate(0 50 40)"><path d="M16.06 1.27 L83.12 4.16 L92.05 2.94 L101.79 14.87 L98.33 23.25 L98.19 61.28 L94.69 78.92 L90.17 79.92 L81.5 83.06 L18.21 77.9 L5.65 75.26 L-3.04 63.69 L2.94 18.84 L1.74 9.1 L9.28 4.1 L16.54 1.21" stroke="none" stroke-width="0" fill="#ced4da"></path><path d="M20 0 M20 0 C35.02 -2.97, 51.63 2.23, 80 0 M20 0 C42.29 1.53, 63.45 -0.16, 80 0 M80 0 C91.85 -2.04, 103.31 4.68, 100 20 M80 0 C94.28 2.18, 101.87 7.48, 100 20 M100 20 C102.01 29.62, 97.21 35.84, 100 60 M100 20 C100.64 29.83, 99.93 41.54, 100 60 M100 60 C99.88 77.28, 94.35 78.05, 80 80 M100 60 C99.54 77.81, 91.44 75.51, 80 80 M80 80 C61.11 84.2, 46.32 80.54, 20 80 M80 80 C65.96 78.27, 53.53 78.52, 20 80 M20 80 C7.01 80.48, -0.42 72.01, 0 60 M20 80 C4.23 77.91, 2.27 72.53, 0 60 M0 60 C1.84 49.15, 2.33 31.21, 0 20 M0 60 C2.16 51.01, 2.44 42.94, 0 20 M0 20 C-1 7.82, 3.55 -3.14, 20 0 M0 20 C-1.2 7.26, 6.48 -4.33, 20 0" stroke="#1e1e1e" stroke-width="1" fill="none"></path></g><g transform="translate(1427.9814453125 269.3000000000002) rotate(0 32.0185546875 20.699999999999818)"><text x="32.0185546875" y="0" font-family="Helvetica, Segoe UI Emoji" font-size="36px" fill="#1e1e1e" text-anchor="middle" style="white-space: pre;" direction="ltr" dominant-baseline="text-before-edge">g  X</text></g><g stroke-linecap="round" transform="translate(1410 330) rotate(0 50 40)"><path d="M18.44 3.85 L81.73 -1.75 L98.04 8.62 L97.08 14.5 L98.51 16.59 L99.38 68.6 L96.42 76.17 L90.25 81.81 L82.9 78.21 L15.96 79.95 L1.65 74.01 L2.94 68.21 L-0.76 16.6 L4.28 9.1 L4.36 4.02 L19.77 -1.55" stroke="none" stroke-width="0" fill="#a5d8ff"></path><path d="M20 0 M20 0 C32.66 2.89, 55.49 0.97, 80 0 M20 0 C31.97 -1.47, 45.29 -1.34, 80 0 M80 0 C96.64 -1.99, 100.82 8.57, 100 20 M80 0 C95.2 0.81, 96.78 10.88, 100 20 M100 20 C96.73 32.26, 99.94 51.42, 100 60 M100 20 C99.69 26.17, 100.05 37.98, 100 60 M100 60 C101.01 71.39, 92.94 83.89, 80 80 M100 60 C98.11 68.84, 93.93 77.49, 80 80 M80 80 C64.76 81.51, 39.05 81.09, 20 80 M80 80 C68.44 79.11, 54.3 79.81, 20 80 M20 80 C6.24 78.67, -2.12 71.51, 0 60 M20 80 C8.94 79.2, 3.16 70.19, 0 60 M0 60 C1.52 46.6, -2.87 28.6, 0 20 M0 60 C1.19 47.52, -1.11 32.18, 0 20 M0 20 C-3.12 3.52, 5.62 0.52, 20 0 M0 20 C-0.19 2.34, 4.26 1.62, 20 0" stroke="#1e1e1e" stroke-width="1" fill="none"></path></g><g stroke-linecap="round" transform="translate(1410 410) rotate(0 50 40)"><path d="M17.05 -2.06 L87.72 3.93 L93.33 8.25 L97.26 7.84 L99.69 23.92 L101.11 65.86 L96.5 78.06 L91.65 76.96 L80.65 80.26 L11.96 78.69 L7.62 78.52 L-0.76 65.97 L1.78 16.6 L-0.64 9.02 L7.58 1.27 L18.89 -2.62" stroke="none" stroke-width="0" fill="#a5d8ff"></path><path d="M20 0 M20 0 C35.88 -0.59, 42.76 -0.49, 80 0 M20 0 C38.84 -0.33, 60.83 -0.3, 80 0 M80 0 C94.16 1.9, 101.63 7.37, 100 20 M80 0 C90.12 4.21, 103.25 8.14, 100 20 M100 20 C98.98 34.18, 95.3 45.39, 100 60 M100 20 C99.77 30.27, 100.34 35.62, 100 60 M100 60 C99.6 77.22, 91.69 76.09, 80 80 M100 60 C100.59 70.83, 94.19 79.87, 80 80 M80 80 C53.32 79.99, 28.69 79.86, 20 80 M80 80 C64.32 79.96, 48.08 79.06, 20 80 M20 80 C4.55 78.18, 1.97 72.64, 0 60 M20 80 C9.82 76.85, 2.43 74.82, 0 60 M0 60 C-2.96 40.93, 1.84 31.27, 0 20 M0 60 C-1.22 47.78, -2.28 32.83, 0 20 M0 20 C-1.04 7.18, 6.5 -3.76, 20 0 M0 20 C-2.41 8.28, 9.22 2.08, 20 0" stroke="#1e1e1e" stroke-width="1" fill="none"></path></g><g stroke-linecap="round" transform="translate(1410 490) rotate(0 50 40)"><path d="M23.04 3.62 L83.02 3.57 L93.51 1.59 L98.44 15.17 L101.42 21.17 L101.18 67.75 L97.9 73.21 L89.4 79.01 L76.65 79.01 L17.94 83.21 L3.93 76.28 L1.78 65.98 L-3.14 16.52 L2.58 6.27 L6.7 0.19 L16.69 -3.67" stroke="none" stroke-width="0" fill="#a5d8ff"></path><path d="M20 0 M20 0 C37.52 0.09, 62.74 -2.09, 80 0 M20 0 C36.2 -0.38, 49.49 1.56, 80 0 M80 0 C94.96 0.7, 97.2 10.33, 100 20 M80 0 C96.58 1.47, 100.47 2.61, 100 20 M100 20 C95.94 30.01, 96.23 38.03, 100 60 M100 20 C100.48 27.37, 99.78 38.64, 100 60 M100 60 C98.35 69.43, 93.85 77.82, 80 80 M100 60 C100.86 73.2, 97.91 84.46, 80 80 M80 80 C58.15 79.73, 41.62 82.72, 20 80 M80 80 C63.18 79.48, 45.72 79.23, 20 80 M20 80 C8.64 79.31, 2.75 70.6, 0 60 M20 80 C9.09 81.49, 4.48 75.38, 0 60 M0 60 C2.72 50.35, 1.32 38.2, 0 20 M0 60 C-1.36 42.99, -0.32 29.38, 0 20 M0 20 C-0.17 2.9, 4.57 1.41, 20 0 M0 20 C2.56 8.75, 10.55 3.18, 20 0" stroke="#1e1e1e" stroke-width="1" fill="none"></path></g><g stroke-linecap="round" transform="translate(1410 570) rotate(0 50 40)"><path d="M18.33 3.25 L83.19 -3.1 L94.69 8.92 L100.17 12.42 L101.5 23.06 L102.59 62.9 L95.65 75.26 L85.4 77.76 L82.62 83.52 L14.24 80.97 L6.46 76.29 L-3.14 65.89 L0.08 13.77 L1.7 5.19 L4.51 -0.86 L21.9 2.83" stroke="none" stroke-width="0" fill="#a5d8ff"></path><path d="M20 0 M20 0 C39.02 -2.13, 53.62 -1.51, 80 0 M20 0 C35.35 1.55, 50.7 0.95, 80 0 M80 0 C90.54 3.66, 102.82 7.95, 100 20 M80 0 C93.81 -4.06, 97.05 6.3, 100 20 M100 20 C95.5 32.92, 95.55 47.42, 100 60 M100 20 C100 37.89, 99.38 49.94, 100 60 M100 60 C100.52 71.15, 94.08 79.89, 80 80 M100 60 C104.57 77.79, 93.7 76.87, 80 80 M80 80 C60.73 82.68, 43.38 80.27, 20 80 M80 80 C60.22 78.69, 43.54 79.25, 20 80 M20 80 C9.41 77.26, 2.11 74.63, 0 60 M20 80 C11.14 82.05, 0.81 70.33, 0 60 M0 60 C0.36 54.79, 3 41.35, 0 20 M0 60 C0.1 47.11, 0.54 31.82, 0 20 M0 20 C-2.09 8.07, 8.89 1.81, 20 0 M0 20 C3.89 9.85, 2.49 -4.33, 20 0" stroke="#1e1e1e" stroke-width="1" fill="none"></path></g><g stroke-linecap="round"><g transform="translate(1028.4325587276362 726.9238648006904) rotate(0 100.67286069933289 68.44242489049338)"><path d="M-0.21 2.74 C33.55 25.5, 167.92 112.02, 201.56 134.14" stroke="#1e1e1e" stroke-width="1.5" fill="none" stroke-dasharray="8 9"></path></g><g transform="translate(1028.4325587276362 726.9238648006904) rotate(0 100.67286069933289 68.44242489049338)"><path d="M176.25 128.8 C181.06 130.69, 190.63 133.88, 199.77 134.79" stroke="#1e1e1e" stroke-width="1.5" fill="none"></path></g><g transform="translate(1028.4325587276362 726.9238648006904) rotate(0 100.67286069933289 68.44242489049338)"><path d="M187.44 111.59 C189.02 117.99, 195.65 125.7, 199.77 134.79" stroke="#1e1e1e" stroke-width="1.5" fill="none"></path></g></g><mask></mask><g stroke-linecap="round"><g transform="translate(1409 397.8602675301081) rotate(0 -187.98011060394356 4.156183775122827)"><path d="M0.99 0.82 C-61.8 1.61, -314.13 6.95, -376.95 7.49" stroke="#1e1e1e" stroke-width="1.5" fill="none" stroke-dasharray="8 9"></path></g><g transform="translate(1409 397.8602675301081) rotate(0 -187.98011060394356 4.156183775122827)"><path d="M-347.76 -1.71 C-353.85 3.02, -366.89 3.89, -376.69 4.15" stroke="#1e1e1e" stroke-width="1.5" fill="none"></path></g><g transform="translate(1409 397.8602675301081) rotate(0 -187.98011060394356 4.156183775122827)"><path d="M-347.44 18.81 C-354.02 17.54, -367.16 12.42, -376.69 4.15" stroke="#1e1e1e" stroke-width="1.5" fill="none"></path></g></g><mask></mask><g transform="translate(890 130) rotate(0 53.015625 20.699999999999818)"><text x="53.015625" y="0" font-family="Helvetica, Segoe UI Emoji" font-size="36px" fill="#1e1e1e" text-anchor="middle" style="white-space: pre;" direction="ltr" dominant-baseline="text-before-edge">Broker</text></g><g stroke-linecap="round" transform="translate(1410 90) rotate(0 50 40)"><path d="M21.5 3.06 L87.59 -1.48 L95.65 5.26 L95.4 10.26 L102.62 23.52 L98.61 65.97 L96.46 76.29 L85.29 79.96 L79.77 78.45 L14.2 77.06 L1.69 71.33 L2.21 67.52 L0.29 11.99 L2.9 8.87 L5.71 0.51 L18.51 -2.04" stroke="none" stroke-width="0" fill="#ced4da"></path><path d="M20 0 M20 0 C44.87 1.38, 66.64 -3.04, 80 0 M20 0 C43.7 -2.15, 65.7 -0.54, 80 0 M80 0 C95.1 -4, 100.57 2.97, 100 20 M80 0 C92.36 -4.2, 99.86 11.21, 100 20 M100 20 C103.5 31.37, 95.7 46.55, 100 60 M100 20 C102.14 31.76, 100.31 38.28, 100 60 M100 60 C99.9 69.96, 93.1 78.57, 80 80 M100 60 C103.16 72.27, 93.73 80.55, 80 80 M80 80 C60.81 81.34, 44.58 82.11, 20 80 M80 80 C68.05 81.28, 52.56 79.08, 20 80 M20 80 C3.49 82.2, 3.05 74.13, 0 60 M20 80 C10.82 83.96, -1.15 74.66, 0 60 M0 60 C1.15 50.95, -3.13 40.14, 0 20 M0 60 C1.25 47.98, -2.26 31.31, 0 20 M0 20 C-0.52 10.64, 3.82 -3.37, 20 0 M0 20 C-1.29 7.66, 4.4 2.89, 20 0" stroke="#1e1e1e" stroke-width="1" fill="none"></path></g><g transform="translate(1422.98046875 109.30000000000018) rotate(0 37.01953125 20.699999999999818)"><text x="37.01953125" y="0" font-family="Helvetica, Segoe UI Emoji" font-size="36px" fill="#1e1e1e" text-anchor="middle" style="white-space: pre;" direction="ltr" dominant-baseline="text-before-edge">g   X</text></g><g stroke-linecap="round" transform="translate(1230 830) rotate(0 130 70)"><path d="M34.9 -1.79 L228.65 0.26 L244.15 3.51 L258.12 16.02 L258.93 33.28 L261.46 109.29 L252.04 128.71 L247.27 133.95 L226.89 137.38 L28.69 136.33 L14.4 138.33 L4.48 124.18 L0.58 116.56 L-1.6 22.19 L6.51 5.96 L21.31 0.01 L32.82 1.9" stroke="none" stroke-width="0" fill="#ffd43b"></path><path d="M32 0 M32 0 C102.43 5.56, 166.82 3.15, 228 0 M32 0 C74.4 -1.69, 115.32 -1.54, 228 0 M228 0 C248.49 -3.65, 259.88 14.61, 260 32 M228 0 C250.5 -2.24, 259.54 15.14, 260 32 M260 32 C256.34 52.42, 258.4 75.32, 260 108 M260 32 C260.07 60.47, 260 91.61, 260 108 M260 108 C262.75 128.41, 249.68 140.48, 228 140 M260 108 C259.51 127.81, 246.89 137.91, 228 140 M228 140 C156.79 144.8, 92.34 146.58, 32 140 M228 140 C158.9 138.54, 94.49 137.84, 32 140 M32 140 C14.28 143.44, -1 130.48, 0 108 M32 140 C7.08 136.39, -1.2 129.93, 0 108 M0 108 C2.84 87.74, 3.24 66.41, 0 32 M0 108 C1.12 81.94, -0.04 50.21, 0 32 M0 32 C-1.12 11.53, 8.69 2.51, 32 0 M0 32 C-1.4 8, 9.5 -0.14, 32 0" stroke="#1e1e1e" stroke-width="1" fill="none"></path></g><g transform="translate(1249.9609375 858.6000000000004) rotate(0 110.0390625 41.40000000000009)"><text x="110.0390625" y="0" font-family="Helvetica, Segoe UI Emoji" font-size="36px" fill="#1e1e1e" text-anchor="middle" style="white-space: pre;" direction="ltr" dominant-baseline="text-before-edge">Group cursor </text><text x="110.0390625" y="41.4" font-family="Helvetica, Segoe UI Emoji" font-size="36px" fill="#1e1e1e" text-anchor="middle" style="white-space: pre;" direction="ltr" dominant-baseline="text-before-edge">offset</text></g><g stroke-linecap="round"><g transform="translate(1530 310) rotate(0 110.07310021319381 290)"><path d="M0 0 C43.33 36.67, 266.67 123.33, 260 220 C253.33 316.67, 10 520, -40 580 M0 0 C43.33 36.67, 266.67 123.33, 260 220 C253.33 316.67, 10 520, -40 580" stroke="#1e1e1e" stroke-width="1" fill="none"></path></g><g transform="translate(1530 310) rotate(0 110.07310021319381 290)"><path d="M-27.38 552.78 C-30.11 558.67, -32.84 564.56, -40 580 M-27.38 552.78 C-30.68 559.9, -33.98 567.01, -40 580" stroke="#1e1e1e" stroke-width="1" fill="none"></path></g><g transform="translate(1530 310) rotate(0 110.07310021319381 290)"><path d="M-12.84 567.26 C-18.71 570.02, -24.59 572.77, -40 580 M-12.84 567.26 C-19.94 570.59, -27.04 573.92, -40 580" stroke="#1e1e1e" stroke-width="1" fill="none"></path></g></g><mask></mask><g stroke-linecap="round" transform="translate(1750 150) rotate(0 150 100)"><path d="M260.32 33.37 C272.43 40.08, 284.16 50.16, 290.44 60.1 C296.72 70.04, 297.22 82.14, 298 93.01 C298.79 103.88, 298.92 114.9, 295.14 125.34 C291.36 135.77, 284.7 146.58, 275.3 155.61 C265.91 164.65, 252 172.85, 238.79 179.52 C225.57 186.2, 211.03 192.03, 196.03 195.66 C181.04 199.29, 165.27 201.58, 148.81 201.29 C132.35 200.99, 112.59 197.66, 97.27 193.91 C81.94 190.15, 69.51 185.38, 56.88 178.78 C44.26 172.18, 30.26 163.56, 21.51 154.3 C12.76 145.04, 7.74 133.97, 4.38 123.22 C1.02 112.47, 0.05 100.52, 1.35 89.81 C2.64 79.09, 5.71 69.05, 12.15 58.93 C18.59 48.82, 28.48 37, 40 29.11 C51.52 21.21, 66.37 16.52, 81.27 11.57 C96.16 6.61, 113.45 0.87, 129.37 -0.62 C145.29 -2.11, 161.15 0.23, 176.8 2.63 C192.45 5.03, 203.92 2.24, 223.26 13.78 C242.61 25.32, 281.04 55.69, 292.86 71.88 C304.69 88.06, 296.44 110.62, 294.23 110.9 M210.01 9.17 C225.64 12.1, 239.93 21.4, 252.22 28.81 C264.5 36.21, 276.46 44.34, 283.72 53.6 C290.99 62.86, 293.6 73.81, 295.82 84.37 C298.04 94.94, 298.76 106.88, 297.03 117 C295.3 127.12, 292.64 135.97, 285.45 145.11 C278.26 154.24, 266.49 164.59, 253.9 171.81 C241.31 179.03, 225.14 184.04, 209.91 188.42 C194.69 192.8, 178.86 197.09, 162.55 198.09 C146.23 199.08, 128.06 196.61, 112.03 194.38 C96 192.14, 79.88 189.99, 66.37 184.69 C52.85 179.4, 40.82 171.55, 30.94 162.6 C21.07 153.66, 12.28 141.74, 7.11 131.02 C1.93 120.31, 0.26 108.28, -0.08 98.32 C-0.43 88.36, 0.22 81.15, 5.02 71.29 C9.82 61.42, 18.02 48.61, 28.7 39.13 C39.39 29.66, 55.12 20.1, 69.14 14.43 C83.16 8.76, 97.99 7.26, 112.82 5.12 C127.64 2.98, 141.58 0.96, 158.11 1.59 C174.64 2.22, 204.18 7.14, 211.99 8.87 C219.8 10.61, 206.72 10.53, 204.97 12.01" stroke="none" stroke-width="0" fill="#ced4da"></path><path d="M204.24 6.49 C219.25 8.89, 233.3 16.04, 245.44 22.72 C257.58 29.41, 268.83 37.1, 277.05 46.61 C285.28 56.12, 290.89 68.95, 294.77 79.8 C298.66 90.65, 302.26 101.13, 300.38 111.72 C298.5 122.32, 290.7 133.81, 283.51 143.39 C276.33 152.97, 268.59 161.64, 257.27 169.21 C245.95 176.78, 230.38 183.55, 215.58 188.81 C200.79 194.08, 184.55 199.21, 168.48 200.81 C152.41 202.41, 134.74 200.71, 119.16 198.41 C103.58 196.12, 88.77 192.83, 74.99 187.04 C61.22 181.26, 46.94 171.83, 36.51 163.72 C26.09 155.6, 18.39 148.15, 12.44 138.36 C6.49 128.57, 2.18 116.24, 0.81 104.98 C-0.56 93.72, -0.2 81.08, 4.2 70.8 C8.6 60.52, 17.9 51.88, 27.21 43.3 C36.52 34.71, 47.19 25.83, 60.06 19.27 C72.93 12.71, 88.87 7.13, 104.43 3.92 C119.99 0.71, 130.41 -2.8, 153.42 0 C176.42 2.81, 223.55 13.89, 242.45 20.75 C261.35 27.61, 268.31 40.05, 266.8 41.16 M26.27 43.93 C33.38 35.29, 49.78 29.89, 62.69 23.05 C75.6 16.21, 88.81 7.15, 103.73 2.89 C118.66 -1.37, 136.08 -2.85, 152.24 -2.52 C168.41 -2.19, 185.09 0.88, 200.72 4.86 C216.35 8.84, 233.29 14.33, 246.02 21.35 C258.74 28.37, 268.82 37.87, 277.09 46.97 C285.36 56.07, 292.21 65.72, 295.64 75.96 C299.08 86.2, 298.98 97.58, 297.69 108.43 C296.4 119.28, 294.04 131.33, 287.9 141.06 C281.76 150.79, 272 158.71, 260.83 166.81 C249.67 174.9, 235.18 184.07, 220.92 189.64 C206.67 195.21, 191.54 199.08, 175.32 200.21 C159.09 201.34, 140.41 198.31, 123.55 196.41 C106.7 194.52, 88.06 193.72, 74.19 188.85 C60.33 183.98, 50.33 175.1, 40.37 167.18 C30.41 159.26, 21.22 151.26, 14.42 141.33 C7.63 131.4, 1.52 119.2, -0.41 107.58 C-2.34 95.96, -1.39 82.13, 2.84 71.6 C7.06 61.07, 20.72 49.28, 24.93 44.4 C29.13 39.52, 26.13 41.27, 28.07 42.31" stroke="#1e1e1e" stroke-width="1" fill="none"></path></g><g transform="translate(1800.8636703220182 229.0893218813453) rotate(0 99.0703125 20.699999999999818)"><text x="99.0703125" y="0" font-family="Helvetica, Segoe UI Emoji" font-size="36px" fill="#1e1e1e" text-anchor="middle" style="white-space: pre;" direction="ltr" dominant-baseline="text-before-edge">clean thread</text></g><g stroke-linecap="round"><g transform="translate(1790 190) rotate(0 -130.77467559695242 -40.120272709135406)"><path d="M-2.42 0.84 C-25.95 -12.82, -97.1 -80.64, -140.16 -81.08 C-183.22 -81.53, -240.42 -14.92, -260.78 -1.84 M1.46 -1.17 C-22.55 -14.53, -98.41 -78.28, -142.49 -78.04 C-186.57 -77.8, -242.93 -12.51, -263.01 0.28" stroke="#1e1e1e" stroke-width="1" fill="none"></path></g><g transform="translate(1790 190) rotate(0 -130.77467559695242 -40.120272709135406)"><path d="M-246.93 -26.01 C-254.52 -18.38, -260.61 -11.8, -266.68 2.17 M-248.1 -25.25 C-254.71 -17.52, -259.92 -7.72, -261.36 -0.72" stroke="#1e1e1e" stroke-width="1" fill="none"></path></g><g transform="translate(1790 190) rotate(0 -130.77467559695242 -40.120272709135406)"><path d="M-233.67 -10.36 C-245.82 -8.22, -256.37 -6.92, -266.68 2.17 M-234.83 -9.59 C-246.36 -7.89, -256.49 -3.9, -261.36 -0.72" stroke="#1e1e1e" stroke-width="1" fill="none"></path></g></g><mask></mask></svg>