<svg version="1.1" xmlns="http://www.w3.org/2000/svg" viewBox="0 0 1800 680" width="1800" height="680">
  <!-- svg-source:excalidraw -->
  
  <defs>
    <style class="style-fonts">
      @font-face {
        font-family: "Virgil";
        src: url("https://excalidraw.com/Virgil.woff2");
      }
      @font-face {
        font-family: "Cascadia";
        src: url("https://excalidraw.com/Cascadia.woff2");
      }
    </style>
    
  </defs>
  <rect x="0" y="0" width="1800" height="680" fill="#ffffff"></rect><g stroke-linecap="round" transform="translate(10 10) rotate(0 890 330)"><path d="M32.09 0.69 L1749.49 -1.63 L1763.08 0.24 L1768.75 3.03 L1774.68 13.41 L1779.87 18.4 L1779.25 33.38 L1779.21 627.44 L1778.65 643.38 L1776.09 646.63 L1766.69 657.17 L1760.82 659 L1749.14 660.04 L30.15 658.61 L19.26 659.31 L12.84 655.03 L5.27 646.83 L0.57 641.4 L1.36 626.98 L-0.48 31.84 L1.18 16.18 L9.33 6.56 L16.86 3.86 L31.62 -0.76" stroke="none" stroke-width="0" fill="#fff"></path><path d="M32 0 M32 0 C503.5 -4.72, 974.34 -5.22, 1748 0 M32 0 C507.24 -2.94, 982.13 -2.98, 1748 0 M1748 0 C1770.41 -0.97, 1779.82 11.57, 1780 32 M1748 0 C1768.5 0.39, 1777.74 11.96, 1780 32 M1780 32 C1781.18 164.68, 1781.28 297.35, 1780 628 M1780 32 C1781.06 171.85, 1780.51 312.31, 1780 628 M1780 628 C1778.6 650.23, 1770.07 659.34, 1748 660 M1780 628 C1780.08 650.8, 1769.94 661.81, 1748 660 M1748 660 C1280.2 656.02, 812.27 655.37, 32 660 M1748 660 C1150.31 661.55, 553.46 661.09, 32 660 M32 660 C10.25 661.19, 1.7 648.96, 0 628 M32 660 C9.35 659.53, 1.02 648.74, 0 628 M0 628 C-0.11 487.86, 0.28 348.67, 0 32 M0 628 C0.51 411.37, 0.64 195.11, 0 32 M0 32 C-1.97 10.54, 11.25 1, 32 0 M0 32 C1.82 11.4, 9.85 -1.01, 32 0" stroke="#1e1e1e" stroke-width="1" fill="none"></path></g><g stroke-linecap="round" transform="translate(110 150) rotate(0 110 220)"><path d="M33.06 -0.91 L194.73 1.22 L203.08 3.21 L212 8.4 L218.47 16.24 L219.1 30.74 L219.76 407.94 L218.07 417.29 L214.48 427.62 L212.89 430.6 L201.62 436.62 L187.04 439.28 L23.11 438.8 L10.96 436.47 L2.9 427.56 L1.05 423.82 L0.86 406.83 L1.69 23.53 L3.36 17.58 L7.73 6.83 L16.73 0.28 L33.97 -1.52" stroke="none" stroke-width="0" fill="#fff"></path><path d="M32 0 M32 0 C88.91 -0.6, 147.01 -0.15, 188 0 M32 0 C90.94 -0.17, 148.2 0.39, 188 0 M188 0 C208.01 -1.26, 220.39 9.8, 220 32 M188 0 C211.13 -1.65, 220.7 9.73, 220 32 M220 32 C220.43 178.78, 222.74 328.36, 220 408 M220 32 C221.78 142.03, 222.34 252.12, 220 408 M220 408 C218.54 431.09, 209.63 438.34, 188 440 M220 408 C217.92 429.84, 207.07 440.23, 188 440 M188 440 C148.71 439.39, 107.64 440.84, 32 440 M188 440 C136.56 439.76, 84.18 440.06, 32 440 M32 440 C10.32 441.13, -0.47 428.09, 0 408 M32 440 C8.68 438.6, -0.42 431.43, 0 408 M0 408 C0.67 319.82, 1.2 233.09, 0 32 M0 408 C2.18 332.41, 1.6 256.84, 0 32 M0 32 C0.11 12.36, 12.28 -0.06, 32 0 M0 32 C1.08 11.49, 11.06 1.75, 32 0" stroke="#1e1e1e" stroke-width="1" fill="none"></path></g><g transform="translate(184.20703125 353.89999999999964) rotate(0 35.79296875 16.09999999999991)"><text x="35.79296875" y="0" font-family="Helvetica, Segoe UI Emoji" font-size="28px" fill="#1e1e1e" text-anchor="middle" style="white-space: pre;" direction="ltr" dominant-baseline="text-before-edge">Client</text></g><g stroke-linecap="round" transform="translate(570 130) rotate(0 560 220)"><path d="M33.08 1.21 L1088 0.4 L1102.47 0.24 L1106.6 3.24 L1115.26 12.44 L1116.57 19.79 L1118.98 32.12 L1120.89 406.6 L1117.62 420.62 L1114.54 426.78 L1106.11 434.8 L1100.46 438.97 L1086.4 440.06 L31.05 441.82 L18.86 436.83 L13.69 434.53 L5.86 427.08 L1.73 420.83 L-1.27 406.28 L1.97 30.48 L3.26 18.97 L9.7 8.25 L18.73 3.7 L33.17 1.49" stroke="none" stroke-width="0" fill="#fff"></path><path d="M32 0 M32 0 C262.12 -2.79, 492.49 -2.86, 1088 0 M32 0 C282.77 1.55, 533.04 1.67, 1088 0 M1088 0 C1111.2 1.43, 1118.62 8.68, 1120 32 M1088 0 C1107.26 2.09, 1121.15 10.52, 1120 32 M1120 32 C1120.81 176.1, 1120.33 317.33, 1120 408 M1120 32 C1119.79 178.01, 1119.74 323.81, 1120 408 M1120 408 C1119.22 428.75, 1109.13 441.43, 1088 440 M1120 408 C1119.47 430.59, 1110.48 440.79, 1088 440 M1088 440 C741.99 443.61, 396.35 443.03, 32 440 M1088 440 C711.4 437.13, 335.42 437.73, 32 440 M32 440 C9.31 439.44, 0.67 429.39, 0 408 M32 440 C8.95 441.06, -0.71 427.06, 0 408 M0 408 C2.42 330.03, 2.67 254.47, 0 32 M0 408 C-1.56 263.61, -1.74 119.25, 0 32 M0 32 C1.06 8.8, 11.02 0.49, 32 0 M0 32 C-1.64 9.16, 10.91 -1.31, 32 0" stroke="#1e1e1e" stroke-width="1" fill="none"></path></g><g stroke-linecap="round" transform="translate(630 210) rotate(0 130 150)"><path d="M31.1 -1.26 L227.76 -0.06 L240.57 3.79 L250.98 8.12 L256.39 11.1 L257.62 16.62 L259.04 31.28 L258.61 267.3 L256.46 282.97 L250.4 292.06 L246.55 297.32 L242.86 296.83 L229.19 299.03 L33.36 299.58 L17.73 296.83 L11.23 293.78 L6.47 285.98 L3.26 282.97 L1.7 268.25 L1.23 26.2 L3.17 19.49 L6.35 8.55 L19.1 2.52 L30.85 1.65" stroke="none" stroke-width="0" fill="#ff8787"></path><path d="M32 0 M32 0 C76.99 1.18, 122.28 0.23, 228 0 M32 0 C82.11 -2.4, 132.7 -0.49, 228 0 M228 0 C250.34 -0.13, 261.61 11.91, 260 32 M228 0 C249.11 -1.13, 261.89 8.62, 260 32 M260 32 C260.35 84.05, 262.11 137.49, 260 268 M260 32 C259.14 105.76, 259.04 178.79, 260 268 M260 268 C261 290.02, 249.88 299.89, 228 300 M260 268 C261.73 288.97, 250.6 300.33, 228 300 M228 300 C171.33 297.82, 115.94 299.18, 32 300 M228 300 C151.63 299.48, 73.85 299.91, 32 300 M32 300 C10.05 298.03, -1.91 287.4, 0 268 M32 300 C10.64 300.41, -2.22 290.22, 0 268 M0 268 C-1.73 196.69, -1.08 124.09, 0 32 M0 268 C-0.91 179.44, -1.66 89.91, 0 32 M0 32 C0.21 9.53, 11.67 1.15, 32 0 M0 32 C1.08 10.28, 9.95 0.39, 32 0" stroke="#1e1e1e" stroke-width="1" fill="none"></path></g><g transform="translate(696.9736328125 339.3000000000002) rotate(0 63.0263671875 20.699999999999818)"><text x="63.0263671875" y="0" font-family="Helvetica, Segoe UI Emoji" font-size="36px" fill="#1e1e1e" text-anchor="middle" style="white-space: pre;" direction="ltr" dominant-baseline="text-before-edge">Broker1</text></g><g transform="translate(110 70) rotate(0 98 16.09999999999991)"><text x="98" y="0" font-family="Helvetica, Segoe UI Emoji" font-size="28px" fill="#1e1e1e" text-anchor="middle" style="white-space: pre;" direction="ltr" dominant-baseline="text-before-edge">在集群内部实现</text></g><g stroke-linecap="round" transform="translate(710 250) rotate(0 80 30)"><path d="M16.8 -0.92 L152.17 2.79 L154.88 5.45 L158.19 10.22 L158.54 52.95 L154.3 57.38 L146.65 59.35 L10.32 59.88 L3.25 56.57 L-0.03 48.44 L-1.36 9.93 L3.59 4.21 L9.23 0.32 L15.4 -1.45" stroke="none" stroke-width="0" fill="#fca326"></path><path d="M15 0 M15 0 C55.44 -2.24, 95.91 -1.33, 145 0 M145 0 C153.23 -1.59, 161.48 5.99, 160 15 M160 15 C159.95 25.96, 161.74 32.67, 160 45 M160 45 C160.29 56.49, 156.19 60.92, 145 60 M145 60 C111.23 57.09, 81.42 57.71, 15 60 M15 60 C6.56 60.62, 0.91 56.37, 0 45 M0 45 C0.37 36.42, 0.35 26.76, 0 15 M0 15 C0.97 3.54, 5.31 -0.86, 15 0" stroke="#1e1e1e" stroke-width="1.5" fill="none" stroke-dasharray="8 9"></path></g><g transform="translate(731.6279296875 263.89999999999964) rotate(0 58.3720703125 16.09999999999991)"><text x="58.3720703125" y="0" font-family="Helvetica, Segoe UI Emoji" font-size="28px" fill="#1e1e1e" text-anchor="middle" style="white-space: pre;" direction="ltr" dominant-baseline="text-before-edge">metadata</text></g><g stroke-linecap="round" transform="translate(1370 210) rotate(0 130 150)"><path d="M33.19 0.92 L227.02 1.78 L240.11 0.83 L250.32 9.63 L254.44 14.06 L258.62 18.91 L261.37 31.96 L258.39 269.97 L258.12 282.35 L252.11 291.62 L248.47 294.04 L242.31 297.14 L226.69 301.8 L33.54 298.29 L17.11 296.85 L12.89 296.77 L5.57 289.41 L3.47 282.78 L-1.53 268.64 L-0.06 24.48 L0.2 18.18 L8.96 6.49 L16.22 1.15 L30.75 -1.59" stroke="none" stroke-width="0" fill="#ff8787"></path><path d="M32 0 M32 0 C103.87 -3.47, 180.29 -1.37, 228 0 M32 0 C83.42 0.52, 132.59 1.68, 228 0 M228 0 C251.28 0.42, 258.89 10.19, 260 32 M228 0 C248.01 1.36, 259.11 10.78, 260 32 M260 32 C259.34 91.3, 259.37 147.34, 260 268 M260 32 C257.92 103.48, 258.38 174.62, 260 268 M260 268 C261.44 290.87, 249.6 300.77, 228 300 M260 268 C262.2 289.9, 248.04 298.19, 228 300 M228 300 C183.57 299.1, 138.78 299.6, 32 300 M228 300 C177.01 302.06, 124.97 301.33, 32 300 M32 300 C11.63 300.28, 1.72 288.3, 0 268 M32 300 C12.07 297.71, -0.62 290.12, 0 268 M0 268 C-0.48 214.02, -0.31 158.88, 0 32 M0 268 C-2 204.69, -1.69 143.21, 0 32 M0 32 C-0.65 12.33, 12.04 -0.82, 32 0 M0 32 C1.13 11.84, 10.82 0.7, 32 0" stroke="#1e1e1e" stroke-width="1" fill="none"></path></g><g transform="translate(1436.9736328125 339.3000000000002) rotate(0 63.0263671875 20.699999999999818)"><text x="63.0263671875" y="0" font-family="Helvetica, Segoe UI Emoji" font-size="36px" fill="#1e1e1e" text-anchor="middle" style="white-space: pre;" direction="ltr" dominant-baseline="text-before-edge">Broker1</text></g><g stroke-linecap="round" transform="translate(1450 250) rotate(0 80 30)"><path d="M13.11 -1.17 L149.88 2.57 L155.19 5.31 L160.39 12.4 L160.43 51.52 L152.53 59.86 L145.12 60.35 L8.55 58.69 L4.72 54.79 L0.55 47.66 L-1.07 13.28 L5.29 2.04 L7.55 -0.21 L15.39 1.27" stroke="none" stroke-width="0" fill="#fca326"></path><path d="M15 0 M15 0 C61.76 -2.49, 107.6 -1.52, 145 0 M145 0 C154.98 -1.8, 160.18 5.96, 160 15 M160 15 C158.49 20.15, 161.24 28.1, 160 45 M160 45 C161.56 53.29, 153.06 61.15, 145 60 M145 60 C103.72 60.64, 63.53 57.47, 15 60 M15 60 C5.88 61.95, 0.42 53.89, 0 45 M0 45 C-0.6 36.81, -0.88 28.18, 0 15 M0 15 C-1.66 4.5, 6.15 -0.47, 15 0" stroke="#1e1e1e" stroke-width="1.5" fill="none" stroke-dasharray="8 9"></path></g><g transform="translate(1471.6279296875 263.89999999999964) rotate(0 58.3720703125 16.09999999999991)"><text x="58.3720703125" y="0" font-family="Helvetica, Segoe UI Emoji" font-size="28px" fill="#1e1e1e" text-anchor="middle" style="white-space: pre;" direction="ltr" dominant-baseline="text-before-edge">metadata</text></g><g stroke-linecap="round" transform="translate(990 210) rotate(0 130 150)"><path d="M31.96 -1.61 L229.97 0.12 L242.35 2.11 L251.62 8.97 L254.04 12.81 L257.14 16.69 L261.8 33.54 L258.29 267.11 L256.85 282.39 L253.27 293.07 L249.41 296.97 L242.78 296.47 L228.64 299.44 L31.98 298.2 L18.18 298.96 L10.99 293.72 L3.65 286.25 L0.41 283.51 L-0.38 269.56 L-1.21 22.56 L3.15 18.16 L7.18 6.93 L16.74 3.34 L30.56 -1.83" stroke="none" stroke-width="0" fill="#ff8787"></path><path d="M32 0 M32 0 C98.3 -0.89, 165.67 0.77, 228 0 M32 0 C83.14 0.21, 134.26 1.61, 228 0 M228 0 C248.87 -1.58, 260.07 9.11, 260 32 M228 0 C247.42 -1.49, 259.6 10.45, 260 32 M260 32 C261.65 85.6, 263.03 138.32, 260 268 M260 32 C258.76 89.79, 258.1 146.3, 260 268 M260 268 C258.03 288.24, 248.57 300.15, 228 300 M260 268 C261.7 290.01, 250.74 298.97, 228 300 M228 300 C173.3 299.24, 116.37 298.28, 32 300 M228 300 C174.69 298.05, 120.92 298.83, 32 300 M32 300 C10.83 299.4, -0.68 291.22, 0 268 M32 300 C8.51 299.66, -1.46 289.83, 0 268 M0 268 C1.8 175.02, 1.47 84.28, 0 32 M0 268 C-0.1 195.69, -0.19 123.22, 0 32 M0 32 C0.09 9.48, 12.33 -0.47, 32 0 M0 32 C-1.17 12.61, 11.18 -2.27, 32 0" stroke="#1e1e1e" stroke-width="1" fill="none"></path></g><g transform="translate(1056.9736328125 339.3000000000002) rotate(0 63.0263671875 20.699999999999818)"><text x="63.0263671875" y="0" font-family="Helvetica, Segoe UI Emoji" font-size="36px" fill="#1e1e1e" text-anchor="middle" style="white-space: pre;" direction="ltr" dominant-baseline="text-before-edge">Broker1</text></g><g stroke-linecap="round" transform="translate(1070 250) rotate(0 80 30)"><path d="M15.35 0.11 L151.19 1.91 L154.79 4.06 L158.91 10.18 L160.86 53.11 L152.43 57 L143.85 60.39 L9.71 60.14 L5.66 57.72 L1.02 46.98 L0.87 10.92 L3.73 1.95 L8.62 1.9 L13.49 -1.78" stroke="none" stroke-width="0" fill="#fca326"></path><path d="M15 0 M15 0 C49.98 0.66, 83.51 -0.67, 145 0 M145 0 C153.06 1.15, 160.16 4.18, 160 15 M160 15 C158.38 20.56, 160.69 31.73, 160 45 M160 45 C160.42 53.89, 154.53 58.85, 145 60 M145 60 C97.24 59.83, 49.94 59.56, 15 60 M15 60 C6.15 59.53, -1.58 55.07, 0 45 M0 45 C-0.1 38.14, -1.26 33.1, 0 15 M0 15 C1.54 5.27, 5.77 1.91, 15 0" stroke="#1e1e1e" stroke-width="1.5" fill="none" stroke-dasharray="8 9"></path></g><g transform="translate(1091.6279296875 263.89999999999964) rotate(0 58.3720703125 16.09999999999991)"><text x="58.3720703125" y="0" font-family="Helvetica, Segoe UI Emoji" font-size="28px" fill="#1e1e1e" text-anchor="middle" style="white-space: pre;" direction="ltr" dominant-baseline="text-before-edge">metadata</text></g><g stroke-linecap="round"><g transform="translate(330 370) rotate(0 120.33510627262297 1.2099831370082939)"><path d="M1.06 1.11 C40.91 1.36, 199.64 1.37, 239.61 1.12" stroke="#1e1e1e" stroke-width="1.5" fill="none" stroke-dasharray="8 9"></path></g><g transform="translate(330 370) rotate(0 120.33510627262297 1.2099831370082939)"><path d="M213.31 10.81 C223.01 9.14, 230.09 4.32, 239.67 0.92" stroke="#1e1e1e" stroke-width="1.5" fill="none"></path></g><g transform="translate(330 370) rotate(0 120.33510627262297 1.2099831370082939)"><path d="M213.25 -9.71 C222.91 -4.34, 230.01 -2.12, 239.67 0.92" stroke="#1e1e1e" stroke-width="1.5" fill="none"></path></g></g><mask></mask></svg>