<svg version="1.1" xmlns="http://www.w3.org/2000/svg" viewBox="0 0 1820 600" width="1820" height="600">
  <!-- svg-source:excalidraw -->
  
  <defs>
    <style class="style-fonts">
      @font-face {
        font-family: "Virgil";
        src: url("https://excalidraw.com/Virgil.woff2");
      }
      @font-face {
        font-family: "Cascadia";
        src: url("https://excalidraw.com/Cascadia.woff2");
      }
    </style>
    
  </defs>
  <rect x="0" y="0" width="1820" height="600" fill="#ffffff"></rect><g stroke-linecap="round" transform="translate(10 10) rotate(0 900 290)"><path d="M29.21 3.7 L1768.11 3.64 L1779.34 -1.91 L1796.9 16.08 L1799.7 28.2 L1796.75 551.36 L1794.2 559.77 L1790.54 574.74 L1765.68 578.59 L34.08 577.54 L15.92 574.54 L5.14 570.16 L1.64 549.51 L2.38 29.05 L-1.5 17.5 L11.95 9.22 L15.1 -1.44 L30.9 -2.25" stroke="none" stroke-width="0" fill="#fff"></path><path d="M32 0 M32 0 C594.37 8.1, 1157.47 7.83, 1768 0 M32 0 C401.3 -11.75, 772.22 -12.49, 1768 0 M1768 0 C1785.95 -0.78, 1802.55 10.45, 1800 32 M1768 0 C1792.49 0.45, 1796.02 12.61, 1800 32 M1800 32 C1796.1 230.74, 1797.07 427.92, 1800 548 M1800 32 C1801.08 153.23, 1801.68 275.26, 1800 548 M1800 548 C1797.63 567.77, 1792.1 580.55, 1768 580 M1800 548 C1796.19 567.15, 1785.02 576.57, 1768 580 M1768 580 C1346.03 591.05, 923.45 589.13, 32 580 M1768 580 C1080.86 578.96, 395.1 578.08, 32 580 M32 580 C7.75 576.69, 1.61 567.21, 0 548 M32 580 C10.43 580.55, -1 565.43, 0 548 M0 548 C3.29 419.21, 3.71 292.46, 0 32 M0 548 C0.34 431.74, 0.53 314.24, 0 32 M0 32 C3.48 12.61, 9.89 -3.57, 32 0 M0 32 C0.23 13.57, 7.99 -0.69, 32 0" stroke="#1e1e1e" stroke-width="1" fill="none"></path></g><g stroke-linecap="round" transform="translate(250 90) rotate(0 110 220)"><path d="M31.33 0.33 L195.6 0.88 L200.81 2.05 L211.34 8.12 L218.79 17.35 L218.53 30.47 L219.29 406.04 L217.68 413.99 L217.3 429.46 L213.25 432.29 L201.26 438.96 L187.18 439 L24.61 438.45 L14.39 434.28 L4.72 427.36 L1.73 420.83 L0.97 409.64 L2.06 23.88 L1.18 16.29 L8.69 7.67 L19.15 3.83 L32.91 0.01" stroke="none" stroke-width="0" fill="#fff"></path><path d="M32 0 M32 0 C83.54 2.1, 135.51 1.26, 188 0 M188 0 C208.44 0.61, 218.51 11.56, 220 32 M220 32 C219.12 174.7, 219.1 319.03, 220 408 M220 408 C219.39 429.89, 210.93 441.03, 188 440 M188 440 C143.1 442.05, 98.3 441.78, 32 440 M32 440 C9.99 438.09, -0.95 429.41, 0 408 M0 408 C-0.05 313.51, 0.33 215.99, 0 32 M0 32 C0.09 12.14, 12.17 -0.89, 32 0" stroke="#1e1e1e" stroke-width="1.5" fill="none" stroke-dasharray="8 9"></path></g><g transform="translate(317.9794921875 289.3000000000002) rotate(0 42.0205078125 20.699999999999818)"><text x="42.0205078125" y="0" font-family="Helvetica, Segoe UI Emoji" font-size="36px" fill="#1e1e1e" text-anchor="middle" style="white-space: pre;" direction="ltr" dominant-baseline="text-before-edge">Topic</text></g><g stroke-linecap="round" transform="translate(670 70) rotate(0 310 60)"><path d="M28.81 0.05 L596.37 0.59 L603.91 1.23 L611.03 5.97 L617.41 14.92 L618.18 28.49 L621.33 98.99 L619.38 103.42 L611.76 113.46 L602.31 117.13 L590.11 118.95 L24.85 118.31 L11.94 115.64 L7.23 111.33 L2.85 104.76 L1.56 89.38 L-0.82 28.29 L2.57 16.55 L8.65 9.33 L17.78 1.88 L30.65 0.32" stroke="none" stroke-width="0" fill="#ffc9c9"></path><path d="M30 0 M30 0 C154.7 -0.98, 279.17 -0.76, 590 0 M30 0 C156.14 -1.7, 282.02 -1.87, 590 0 M590 0 C608.58 1.9, 619.39 10.56, 620 30 M590 0 C611.83 1.18, 619.73 11.08, 620 30 M620 30 C620.28 53.27, 619.35 73.51, 620 90 M620 30 C619.81 45.59, 619.57 61.14, 620 90 M620 90 C619.73 108.36, 610.09 121.47, 590 120 M620 90 C621.73 108.98, 608.82 118.71, 590 120 M590 120 C468.69 119.04, 348.77 119.61, 30 120 M590 120 C470.77 121.15, 352.25 121.25, 30 120 M30 120 C9.25 119.59, -1.68 109.34, 0 90 M30 120 C12.09 117.79, 2.03 112.05, 0 90 M0 90 C2.04 72, 1.85 51.34, 0 30 M0 90 C0.16 73.73, -1.35 58.75, 0 30 M0 30 C1.85 11.3, 10.77 1.04, 30 0 M0 30 C-0.69 8.58, 11.57 1.49, 30 0" stroke="#1e1e1e" stroke-width="1" fill="none"></path></g><g transform="translate(854.9228515625 109.30000000000018) rotate(0 125.0771484375 20.699999999999818)"><text x="125.0771484375" y="0" font-family="Helvetica, Segoe UI Emoji" font-size="36px" fill="#1e1e1e" text-anchor="middle" style="white-space: pre;" direction="ltr" dominant-baseline="text-before-edge">Partition/Queue</text></g><g stroke-linecap="round" transform="translate(670 230) rotate(0 310 60)"><path d="M30.79 -0.65 L595.56 -1.07 L602.41 -0.08 L610.68 5.99 L619.92 18.83 L621.25 30.29 L618.79 97.99 L617.31 102.13 L612.61 111.45 L605.01 116.91 L590.22 119.86 L22.7 118.37 L12.69 117.42 L9.06 111.88 L1.06 101.41 L0.69 89.67 L1.15 31.83 L2.78 16.88 L8.15 7.82 L15.33 1.58 L30.9 -0.16" stroke="none" stroke-width="0" fill="#ffc9c9"></path><path d="M30 0 M30 0 C198.96 -0.33, 369.75 -0.7, 590 0 M30 0 C210.81 0.82, 392.07 0.55, 590 0 M590 0 C611.6 1.03, 619.77 10.94, 620 30 M590 0 C611.81 0.09, 620.95 10.3, 620 30 M620 30 C618.85 49.74, 618.88 68.91, 620 90 M620 30 C619.59 49.83, 619.78 72.03, 620 90 M620 90 C621.5 109.11, 608.98 118.88, 590 120 M620 90 C618.05 109.78, 609.01 118.06, 590 120 M590 120 C420.91 121.2, 253.55 120.9, 30 120 M590 120 C389.31 121.74, 188.58 121.69, 30 120 M30 120 C11.82 118.08, 1.76 111.78, 0 90 M30 120 C10.75 119.09, 0.59 112.07, 0 90 M0 90 C-1.21 67.53, 1.44 43.41, 0 30 M0 90 C1.48 75.26, 0.94 59.74, 0 30 M0 30 C-0.6 8.76, 11.36 1.29, 30 0 M0 30 C-1.84 9.46, 11.7 -1.88, 30 0" stroke="#1e1e1e" stroke-width="1" fill="none"></path></g><g transform="translate(854.9228515625 269.3000000000002) rotate(0 125.0771484375 20.699999999999818)"><text x="125.0771484375" y="0" font-family="Helvetica, Segoe UI Emoji" font-size="36px" fill="#1e1e1e" text-anchor="middle" style="white-space: pre;" direction="ltr" dominant-baseline="text-before-edge">Partition/Queue</text></g><g stroke-linecap="round" transform="translate(670 390) rotate(0 310 60)"><path d="M29.29 -1.96 L595.21 -1.04 L604.92 3.83 L613.75 7.79 L617.39 17.83 L619.18 29 L619.64 95.98 L620.01 101.91 L612.72 112.36 L602.85 116.96 L590.97 121.64 L24.53 118.91 L10.9 114.07 L8.19 112.17 L3.03 104.96 L0.91 90.01 L0.65 30.32 L0.33 16.58 L8.4 7.34 L16.93 0.98 L30.61 -1.49" stroke="none" stroke-width="0" fill="#ffc9c9"></path><path d="M30 0 M30 0 C223.26 -0.5, 415.99 -0.52, 590 0 M30 0 C251.66 -0.42, 472.63 -0.44, 590 0 M590 0 C611.57 0.08, 620.82 10.26, 620 30 M590 0 C610.64 -0.77, 617.8 8.91, 620 30 M620 30 C620.61 47.32, 621.4 66.16, 620 90 M620 30 C620.78 42.63, 619.52 55.59, 620 90 M620 90 C618.31 109.81, 609.14 118.31, 590 120 M620 90 C620.02 110.15, 611.66 117.98, 590 120 M590 120 C451.46 117.99, 312.63 117.7, 30 120 M590 120 C433.91 118.88, 277.45 119.62, 30 120 M30 120 C10.65 119.21, 0.51 111.8, 0 90 M30 120 C12.25 121.86, 1.45 109.17, 0 90 M0 90 C-1.45 65.92, 0.26 47.4, 0 30 M0 90 C-0.53 67.48, 0.45 46.85, 0 30 M0 30 C-1.6 9.53, 11.48 -1.64, 30 0 M0 30 C2.14 10.73, 7.85 1.21, 30 0" stroke="#1e1e1e" stroke-width="1" fill="none"></path></g><g transform="translate(854.9228515625 429.3000000000002) rotate(0 125.0771484375 20.699999999999818)"><text x="125.0771484375" y="0" font-family="Helvetica, Segoe UI Emoji" font-size="36px" fill="#1e1e1e" text-anchor="middle" style="white-space: pre;" direction="ltr" dominant-baseline="text-before-edge">Partition/Queue</text></g><g stroke-linecap="round"><g transform="translate(90 130) rotate(0 289.1115840053932 -0.8170600657999785)"><path d="M1.75 0.41 C97.83 0.17, 482.78 1.64, 578.96 1.34 M-0.74 -1.84 C94.64 -1.72, 479.97 -3.4, 576.16 -2.94" stroke="#1e1e1e" stroke-width="1" fill="none"></path></g><g transform="translate(90 130) rotate(0 289.1115840053932 -0.8170600657999785)"><path d="M548.56 5.85 C560.68 1.35, 567.75 -0.81, 574.06 0.83 M547.71 6.17 C555.67 6.56, 563 1.84, 575.35 -4.65" stroke="#1e1e1e" stroke-width="1" fill="none"></path></g><g transform="translate(90 130) rotate(0 289.1115840053932 -0.8170600657999785)"><path d="M548.55 -14.67 C561.08 -11.18, 568.15 -5.34, 574.06 0.83 M547.7 -14.35 C555.71 -9.06, 563.04 -8.87, 575.35 -4.65" stroke="#1e1e1e" stroke-width="1" fill="none"></path></g></g><mask></mask><g stroke-linecap="round"><g transform="translate(92.01438476704061 431.59037176109814) rotate(0 118.91111376024787 0.035665406547195744)"><path d="M-1.04 1.34 C38.48 1.04, 198.66 -0.93, 238.86 -1.4 M3.6 -0.39 C42.48 -0.38, 196.86 1.26, 236 1.47" stroke="#1e1e1e" stroke-width="1" fill="none"></path></g><g transform="translate(92.01438476704061 431.59037176109814) rotate(0 118.91111376024787 0.035665406547195744)"><path d="M209.65 9.87 C215.95 8.29, 226.1 8.21, 233.57 1.92 M208.7 13.14 C217.59 8.27, 223.49 4.25, 236.69 1.14" stroke="#1e1e1e" stroke-width="1" fill="none"></path></g><g transform="translate(92.01438476704061 431.59037176109814) rotate(0 118.91111376024787 0.035665406547195744)"><path d="M209.81 -10.65 C216.12 -4.8, 226.21 2.57, 233.57 1.92 M208.87 -7.38 C217.66 -6.24, 223.51 -4.26, 236.69 1.14" stroke="#1e1e1e" stroke-width="1" fill="none"></path></g></g><mask></mask><g transform="translate(90 390) rotate(0 36 20.699999999999818)"><text x="36" y="0" font-family="Helvetica, Segoe UI Emoji" font-size="36px" fill="#1e1e1e" text-anchor="middle" style="white-space: pre;" direction="ltr" dominant-baseline="text-before-edge">写入</text></g><g transform="translate(90 90) rotate(0 36 20.699999999999818)"><text x="36" y="0" font-family="Helvetica, Segoe UI Emoji" font-size="36px" fill="#1e1e1e" text-anchor="middle" style="white-space: pre;" direction="ltr" dominant-baseline="text-before-edge">写入</text></g><g stroke-linecap="round" transform="translate(1430 70) rotate(0 110 50)"><path d="M181.37 11.77 C193.24 15.08, 200.85 21.19, 207.23 27.15 C213.61 33.12, 219.14 40.45, 219.66 47.56 C220.18 54.67, 215.79 63.21, 210.33 69.82 C204.88 76.43, 197.66 82.51, 186.93 87.2 C176.2 91.9, 159.93 95.88, 145.94 98 C131.95 100.12, 117.87 100.52, 103 99.93 C88.14 99.34, 70.17 97.64, 56.77 94.44 C43.38 91.25, 31.35 85.89, 22.64 80.74 C13.93 75.58, 8.14 69.88, 4.49 63.51 C0.83 57.14, -1.99 49.11, 0.69 42.51 C3.38 35.91, 12.13 30.06, 20.61 23.91 C29.08 17.77, 38.91 9.5, 51.54 5.64 C64.17 1.77, 81.37 1.18, 96.38 0.7 C111.38 0.21, 122.51 -2.68, 141.58 2.73 C160.65 8.15, 198.13 24.19, 210.79 33.19 C223.44 42.19, 218.74 56.46, 217.54 56.74 M182.25 9.2 C193.38 12.68, 199.55 20.08, 205.63 26.77 C211.72 33.46, 218.12 42.11, 218.74 49.33 C219.37 56.55, 214.4 64.12, 209.37 70.1 C204.34 76.07, 199.24 80.89, 188.57 85.16 C177.89 89.43, 159.13 93.05, 145.31 95.71 C131.5 98.38, 120.47 101.27, 105.67 101.16 C90.88 101.05, 70.46 98.28, 56.55 95.03 C42.64 91.79, 30.65 87.57, 22.22 81.68 C13.79 75.79, 9.52 65.96, 5.95 59.7 C2.39 53.44, -0.85 50.83, 0.84 44.12 C2.53 37.41, 7.41 25.2, 16.09 19.45 C24.77 13.71, 39.61 12.71, 52.91 9.66 C66.21 6.61, 81.72 2.6, 95.89 1.16 C110.05 -0.29, 124.16 -1.18, 137.89 1 C151.61 3.18, 171.85 11.9, 178.24 14.23 C184.63 16.57, 176.71 14.46, 176.24 15.01" stroke="none" stroke-width="0" fill="#a5d8ff"></path><path d="M167 8.61 C180.21 10.79, 191.77 15.24, 199.94 20.22 C208.1 25.2, 213.27 31.68, 215.97 38.5 C218.67 45.33, 218.99 54.14, 216.14 61.15 C213.3 68.16, 207.4 75.36, 198.91 80.56 C190.43 85.77, 178.22 89.48, 165.25 92.4 C152.28 95.32, 136.4 97.29, 121.09 98.09 C105.78 98.89, 87.6 99.29, 73.39 97.19 C59.19 95.09, 46.65 89.88, 35.88 85.49 C25.1 81.11, 14.63 76.64, 8.75 70.89 C2.86 65.15, 0.6 58.06, 0.56 51.01 C0.53 43.97, 2.41 34.96, 8.52 28.63 C14.64 22.3, 25.98 17.24, 37.25 13.01 C48.53 8.78, 61.82 5.13, 76.17 3.23 C90.52 1.34, 103.71 -0.38, 123.36 1.63 C143.01 3.63, 180.15 10.58, 194.07 15.28 C208 19.97, 208.24 28.66, 206.91 29.78 M105.23 -2.64 C119.9 -3.62, 138.24 -0.48, 151.98 2.71 C165.72 5.91, 177.38 11.26, 187.66 16.54 C197.94 21.83, 208.03 28.84, 213.66 34.44 C219.29 40.03, 222.35 43.26, 221.44 50.12 C220.52 56.98, 215.6 69.57, 208.16 75.6 C200.73 81.64, 188.39 83.03, 176.82 86.35 C165.25 89.66, 152.44 93.4, 138.75 95.5 C125.07 97.6, 109.75 100, 94.71 98.94 C79.67 97.89, 61.37 92.68, 48.52 89.18 C35.68 85.68, 25.94 83.54, 17.65 77.94 C9.36 72.34, 1.26 62.37, -1.2 55.58 C-3.66 48.78, -1.89 43.84, 2.89 37.18 C7.66 30.52, 17.49 20.56, 27.46 15.62 C37.42 10.67, 49.44 10.07, 62.67 7.5 C75.89 4.94, 99.88 1.18, 106.82 0.23 C113.76 -0.72, 104.75 1.45, 104.3 1.8" stroke="#1e1e1e" stroke-width="1" fill="none"></path></g><g transform="translate(1501.2036056319798 99.4446609406732) rotate(0 39.0146484375 20.699999999999818)"><text x="39.0146484375" y="0" font-family="Helvetica, Segoe UI Emoji" font-size="36px" fill="#1e1e1e" text-anchor="middle" style="white-space: pre;" direction="ltr" dominant-baseline="text-before-edge">File1</text></g><g stroke-linecap="round" transform="translate(1430 410) rotate(0 110 50)"><path d="M198.6 19.02 C208.48 23.17, 215.35 30.18, 218.29 36.73 C221.22 43.29, 219.27 51.28, 216.21 58.35 C213.16 65.43, 208.37 73.29, 199.95 79.18 C191.53 85.07, 178.07 90.36, 165.68 93.69 C153.29 97.02, 140.41 98.58, 125.62 99.16 C110.83 99.74, 91.14 98.89, 76.94 97.18 C62.75 95.47, 51.76 93.08, 40.47 88.9 C29.17 84.72, 16.09 78.26, 9.19 72.08 C2.28 65.9, -1.09 58.97, -0.95 51.82 C-0.82 44.66, 4.23 35.2, 10.01 29.14 C15.79 23.08, 23.44 20.14, 33.7 15.45 C43.96 10.76, 57.26 3.34, 71.58 1 C85.91 -1.34, 104.33 0.51, 119.66 1.42 C135 2.33, 147.11 -1.03, 163.59 6.45 C180.08 13.93, 212.23 34.61, 218.57 46.3 C224.92 57.99, 203.58 76.15, 201.67 76.61 M186.12 13.27 C197.13 17.78, 203.04 26.01, 209.02 32.08 C215.01 38.15, 221.67 43.74, 222.02 49.7 C222.36 55.65, 217.74 61.37, 211.11 67.8 C204.47 74.22, 193.32 83.61, 182.22 88.24 C171.13 92.87, 158.87 93.2, 144.54 95.58 C130.2 97.95, 111.17 102.42, 96.23 102.49 C81.3 102.56, 67.82 100.34, 54.93 95.99 C42.04 91.64, 27.49 81.89, 18.91 76.39 C10.32 70.89, 6.2 69.62, 3.41 63 C0.63 56.39, -0.33 43.33, 2.22 36.67 C4.76 30.02, 10.32 28.35, 18.67 23.07 C27.02 17.78, 38.59 8.88, 52.3 4.98 C66.02 1.09, 85.94 0.29, 100.96 -0.31 C115.98 -0.9, 128.36 -0.47, 142.42 1.42 C156.48 3.31, 178.92 9.45, 185.3 11.05 C191.68 12.66, 182.11 9.78, 180.7 11.04" stroke="none" stroke-width="0" fill="#a5d8ff"></path><path d="M199.9 21.13 C208.97 25.74, 215.44 32.65, 218.48 39.38 C221.51 46.1, 221.77 54.4, 218.1 61.47 C214.44 68.54, 205.77 76.12, 196.49 81.78 C187.21 87.45, 175.32 92.75, 162.42 95.46 C149.52 98.16, 133.99 97.45, 119.09 98 C104.18 98.56, 87.42 101.08, 73 98.79 C58.58 96.5, 43.28 89.58, 32.57 84.27 C21.87 78.97, 13.89 72.98, 8.76 66.95 C3.62 60.93, 1.52 54.89, 1.78 48.15 C2.04 41.4, 4.08 32.44, 10.32 26.49 C16.56 20.54, 27.98 16.74, 39.22 12.44 C50.45 8.14, 63.54 2.63, 77.72 0.68 C91.9 -1.27, 108.96 -0.1, 124.29 0.74 C139.61 1.58, 155.23 0.8, 169.69 5.73 C184.14 10.66, 203.48 25.16, 211.03 30.33 C218.58 35.5, 216.94 36.56, 214.98 36.75 M66.72 6.47 C79.09 3.24, 92.97 1.18, 107.76 0.83 C122.55 0.49, 141.91 2.01, 155.46 4.38 C169.02 6.75, 179.31 10.22, 189.09 15.05 C198.86 19.88, 209.47 26.43, 214.11 33.38 C218.76 40.32, 218.27 49.5, 216.95 56.72 C215.63 63.95, 213.62 70.88, 206.19 76.74 C198.76 82.6, 184.38 88.19, 172.38 91.89 C160.38 95.59, 148.74 97.71, 134.18 98.95 C119.62 100.2, 99.98 100.8, 85.04 99.38 C70.11 97.97, 55.95 94.15, 44.57 90.46 C33.18 86.77, 24.28 82.79, 16.72 77.24 C9.15 71.69, 0.62 63.78, -0.83 57.15 C-2.29 50.52, 3.22 44.73, 7.99 37.49 C12.76 30.25, 17.88 19.17, 27.8 13.7 C37.72 8.24, 60.85 5.9, 67.51 4.69 C74.17 3.49, 67.73 5.27, 67.77 6.48" stroke="#1e1e1e" stroke-width="1" fill="none"></path></g><g transform="translate(1501.2036056319798 439.4446609406732) rotate(0 39.0146484375 20.699999999999818)"><text x="39.0146484375" y="0" font-family="Helvetica, Segoe UI Emoji" font-size="36px" fill="#1e1e1e" text-anchor="middle" style="white-space: pre;" direction="ltr" dominant-baseline="text-before-edge">File3</text></g><g stroke-linecap="round" transform="translate(1430 230) rotate(0 110 50)"><path d="M19.32 20.41 C26.07 14.94, 39.82 12.54, 52.2 8.9 C64.57 5.27, 79.14 -0.53, 93.58 -1.41 C108.02 -2.28, 124.28 1.77, 138.85 3.65 C153.42 5.54, 169.3 6.05, 181 9.91 C192.7 13.76, 202.49 20.18, 209.05 26.79 C215.61 33.41, 220.12 42.76, 220.35 49.62 C220.59 56.48, 215.76 62.19, 210.47 67.95 C205.18 73.7, 199.28 79.15, 188.6 84.17 C177.93 89.18, 160.46 95.21, 146.41 98.03 C132.36 100.86, 118.81 101.94, 104.31 101.12 C89.81 100.3, 72.93 96.65, 59.41 93.09 C45.89 89.52, 32.21 85.12, 23.19 79.72 C14.16 74.32, 8.56 66.8, 5.26 60.7 C1.95 54.59, -0.44 50.57, 3.37 43.11 C7.18 35.64, 22.14 20.79, 28.13 15.92 C34.12 11.05, 38.31 12.86, 39.29 13.91 M175.9 9.63 C188.26 13.05, 201.64 21.77, 208.62 27.64 C215.6 33.52, 216.6 38.21, 217.8 44.87 C218.99 51.54, 220.23 61.25, 215.79 67.61 C211.35 73.98, 202.57 78.07, 191.16 83.07 C179.75 88.06, 161.22 94.8, 147.34 97.58 C133.45 100.35, 122.73 100.61, 107.84 99.73 C92.96 98.85, 71.4 95.76, 58.03 92.3 C44.65 88.83, 36.9 83.38, 27.61 78.94 C18.33 74.49, 6.81 71.97, 2.31 65.62 C-2.18 59.27, -1.67 47.67, 0.64 40.85 C2.96 34.02, 8.39 30.37, 16.2 24.68 C24 18.99, 35.3 10.65, 47.48 6.73 C59.66 2.81, 73.94 1.81, 89.29 1.16 C104.64 0.51, 124.52 0.91, 139.58 2.83 C154.64 4.75, 173.75 11.63, 179.65 12.67 C185.54 13.7, 176.32 8.19, 174.93 9.04" stroke="none" stroke-width="0" fill="#a5d8ff"></path><path d="M177.31 10.55 C189.95 14.06, 200.85 20.94, 207.58 26.84 C214.32 32.74, 216.35 39.58, 217.71 45.94 C219.08 52.31, 220.61 58.56, 215.76 65.02 C210.92 71.48, 199.44 79.26, 188.65 84.72 C177.87 90.17, 164.54 95.31, 151.07 97.75 C137.6 100.18, 122.71 99.7, 107.83 99.32 C92.95 98.95, 75.16 98.52, 61.8 95.5 C48.43 92.47, 37.35 86.43, 27.63 81.17 C17.92 75.91, 7.94 69.86, 3.51 63.93 C-0.91 58, -0.64 51.98, 1.09 45.59 C2.83 39.2, 6.04 31.47, 13.92 25.59 C21.8 19.71, 35.83 14.51, 48.36 10.31 C60.89 6.12, 74.64 2.09, 89.12 0.44 C103.6 -1.2, 120 -1.57, 135.23 0.44 C150.46 2.44, 171.76 9.74, 180.5 12.47 C189.23 15.21, 188.75 16.17, 187.63 16.86 M144.34 2.3 C158.1 3.67, 172.5 6.11, 183.92 10.93 C195.33 15.74, 206.53 24.98, 212.85 31.21 C219.17 37.44, 222.11 41.5, 221.84 48.32 C221.57 55.14, 217.84 65.95, 211.25 72.12 C204.66 78.29, 193.73 81.22, 182.3 85.34 C170.87 89.45, 156.97 94.1, 142.68 96.79 C128.4 99.48, 111.13 102.36, 96.61 101.46 C82.08 100.57, 68.02 94.75, 55.54 91.41 C43.06 88.07, 30.18 86.75, 21.73 81.41 C13.28 76.06, 8.49 66, 4.85 59.32 C1.2 52.64, -3.07 47.56, -0.14 41.31 C2.79 35.06, 12.76 27.94, 22.42 21.82 C32.07 15.7, 44.31 8.12, 57.79 4.59 C71.28 1.06, 88.23 0.48, 103.33 0.63 C118.44 0.77, 141.02 4.61, 148.43 5.46 C155.84 6.31, 148.47 5.53, 147.78 5.73" stroke="#1e1e1e" stroke-width="1" fill="none"></path></g><g transform="translate(1501.2036056319798 259.4446609406732) rotate(0 39.0146484375 20.699999999999818)"><text x="39.0146484375" y="0" font-family="Helvetica, Segoe UI Emoji" font-size="36px" fill="#1e1e1e" text-anchor="middle" style="white-space: pre;" direction="ltr" dominant-baseline="text-before-edge">File2</text></g><g stroke-linecap="round"><g transform="translate(1290 110) rotate(0 71.01663043987014 -1.5936800987587958)"><path d="M-2.22 0.7 C20.46 0.61, 114.51 1.16, 138.61 0.63 M1.77 -1.39 C25.17 -2.49, 120.91 -4.15, 144.25 -4.04" stroke="#1e1e1e" stroke-width="1" fill="none"></path></g><g transform="translate(1290 110) rotate(0 71.01663043987014 -1.5936800987587958)"><path d="M117.15 4.47 C127.92 6.18, 134.43 -2.26, 147.61 -7.19 M117.37 6.88 C120.6 3.37, 126.28 3.59, 142.54 -2.23" stroke="#1e1e1e" stroke-width="1" fill="none"></path></g><g transform="translate(1290 110) rotate(0 71.01663043987014 -1.5936800987587958)"><path d="M116.97 -16.05 C127.99 -6.33, 134.56 -6.76, 147.61 -7.19 M117.19 -13.64 C120.7 -12.93, 126.41 -8.48, 142.54 -2.23" stroke="#1e1e1e" stroke-width="1" fill="none"></path></g></g><mask></mask><g stroke-linecap="round"><g transform="translate(1290 270) rotate(0 68.3275386524574 9.5473309558256)"><path d="M0.59 -1.69 C23.49 1.05, 115.54 14.94, 139.2 18.16 M-2.54 3.56 C19.76 6.46, 112.41 18.15, 136.52 20.79" stroke="#1e1e1e" stroke-width="1" fill="none"></path></g><g transform="translate(1290 270) rotate(0 68.3275386524574 9.5473309558256)"><path d="M104.9 26.5 C115.22 28.66, 125.03 26.17, 139.46 23.7 M106.29 29.21 C115.21 25.75, 120.98 22.71, 135.69 21.47" stroke="#1e1e1e" stroke-width="1" fill="none"></path></g><g transform="translate(1290 270) rotate(0 68.3275386524574 9.5473309558256)"><path d="M107.32 6.12 C117.01 15.7, 125.95 20.62, 139.46 23.7 M108.71 8.83 C117.41 10.03, 122.62 11.62, 135.69 21.47" stroke="#1e1e1e" stroke-width="1" fill="none"></path></g></g><mask></mask><g stroke-linecap="round"><g transform="translate(1290 450) rotate(0 72.08510069996123 0.07998157775591608)"><path d="M2.22 0.35 C24.98 1.05, 115.29 2.3, 138.56 2.18 M-0.02 -1.92 C23.49 -1.8, 120.67 -2.39, 144.19 -1.64" stroke="#1e1e1e" stroke-width="1" fill="none"></path></g><g transform="translate(1290 450) rotate(0 72.08510069996123 0.07998157775591608)"><path d="M116.4 6.28 C129.7 6.86, 136.62 1.36, 140.7 -3.31 M114.5 10.19 C125.36 7.2, 133.43 0.08, 144.88 0.15" stroke="#1e1e1e" stroke-width="1" fill="none"></path></g><g transform="translate(1290 450) rotate(0 72.08510069996123 0.07998157775591608)"><path d="M116.6 -14.24 C129.53 -6.01, 136.38 -3.85, 140.7 -3.31 M114.7 -10.33 C125.59 -6.46, 133.59 -6.72, 144.88 0.15" stroke="#1e1e1e" stroke-width="1" fill="none"></path></g></g><mask></mask></svg>