<svg version="1.1" xmlns="http://www.w3.org/2000/svg" viewBox="0 0 1240 700" width="1240" height="700">
  <!-- svg-source:excalidraw -->
  
  <defs>
    <style class="style-fonts">
      @font-face {
        font-family: "Virgil";
        src: url("https://excalidraw.com/Virgil.woff2");
      }
      @font-face {
        font-family: "Cascadia";
        src: url("https://excalidraw.com/Cascadia.woff2");
      }
    </style>
    
  </defs>
  <rect x="0" y="0" width="1240" height="700" fill="#ffffff"></rect><g stroke-linecap="round" transform="translate(10 10) rotate(0 610 340)"><path d="M32.5 1.04 L1186.92 3.26 L1210.84 5.96 L1213.77 15 L1220.08 29.68 L1217.4 644.38 L1214.94 667.17 L1207.93 677.45 L1191.94 676.58 L35.29 681.47 L10.4 676.25 L-0.3 664.37 L-0.53 651.72 L-0.78 33.27 L2.6 14.19 L11.22 11.97 L21.07 -1.93 L28.86 -2.51" stroke="none" stroke-width="0" fill="#fff"></path><path d="M32 0 M32 0 C334.73 -8.81, 636.5 -8.52, 1188 0 M32 0 C461.06 2.79, 890.88 2.92, 1188 0 M1188 0 C1206.17 1.13, 1220.17 7.04, 1220 32 M1188 0 C1213.68 -0.92, 1216.86 14.34, 1220 32 M1220 32 C1223.69 209.4, 1225.23 385.83, 1220 648 M1220 32 C1215.21 188.76, 1214.93 345.35, 1220 648 M1220 648 C1222.06 665.59, 1209.61 683.47, 1188 680 M1220 648 C1222.63 668.07, 1209.27 676.9, 1188 680 M1188 680 C885.53 674, 584.29 673.8, 32 680 M1188 680 C795.39 681.06, 401.99 682.15, 32 680 M32 680 C6.93 676.88, -3.8 667.2, 0 648 M32 680 C9.55 684.5, -4.34 673.49, 0 648 M0 648 C-4.51 514.06, -4.27 378.31, 0 32 M0 648 C-4.53 497.68, -5.55 346.46, 0 32 M0 32 C2.5 13.23, 8.68 0.02, 32 0 M0 32 C-2.03 13.56, 14.83 1.22, 32 0" stroke="#1e1e1e" stroke-width="4" fill="none"></path></g><g stroke-linecap="round" transform="translate(50 270) rotate(0 170 90)"><path d="M295.14 29.66 C309.09 35.52, 319.83 46.12, 327.24 54.86 C334.65 63.61, 338.48 72.97, 339.61 82.11 C340.73 91.25, 338.51 99.95, 334 109.7 C329.5 119.46, 322.58 131.96, 312.57 140.63 C302.56 149.31, 288.18 155.71, 273.95 161.75 C259.71 167.79, 244.25 173.52, 227.18 176.88 C210.1 180.24, 190.37 182.44, 171.49 181.92 C152.61 181.4, 131.68 177.22, 113.88 173.78 C96.08 170.35, 79.15 167.27, 64.67 161.3 C50.2 155.33, 37.05 146.08, 27.04 137.96 C17.04 129.84, 9.26 121.93, 4.64 112.57 C0.01 103.21, -2.43 91.78, -0.7 81.8 C1.02 71.82, 7.55 61.14, 15 52.69 C22.45 44.25, 31.97 37.86, 43.97 31.13 C55.98 24.39, 71.01 17.27, 87.04 12.27 C103.07 7.27, 122.15 3.32, 140.17 1.14 C158.19 -1.05, 176.78 -2.14, 195.17 -0.85 C213.55 0.43, 229.42 0.78, 250.5 8.85 C271.58 16.92, 308.18 37.33, 321.63 47.58 C335.07 57.84, 334.12 69.97, 331.17 70.36" stroke="none" stroke-width="0" fill="#fff"></path><path d="M286.44 23.42 C300.7 29.02, 311.34 40.09, 320.22 48.79 C329.09 57.5, 336.93 65.83, 339.69 75.63 C342.46 85.42, 340.44 97.83, 336.82 107.55 C333.2 117.26, 327.32 125.45, 318 133.92 C308.68 142.39, 295.06 151.8, 280.88 158.35 C266.71 164.9, 249.78 169.58, 232.95 173.21 C216.13 176.84, 198.09 179.6, 179.93 180.1 C161.78 180.61, 141.99 179.14, 124.02 176.23 C106.04 173.32, 87.11 168.28, 72.07 162.64 C57.03 157.01, 44.14 150.08, 33.77 142.42 C23.39 134.76, 15.73 125.99, 9.82 116.68 C3.91 107.36, -1.92 96.49, -1.69 86.55 C-1.46 76.6, 4.74 65.64, 11.2 57.03 C17.66 48.41, 25.27 42.3, 37.07 34.84 C48.88 27.39, 66.07 17.91, 82.03 12.28 C98 6.66, 115.48 3.07, 132.87 1.09 C150.25 -0.89, 168.38 -0.55, 186.34 0.41 C204.31 1.37, 218.03 -1.45, 240.64 6.86 C263.25 15.17, 306.17 38.4, 322.01 50.28 C337.85 62.16, 338.11 77.99, 335.7 78.13" stroke="#1e1e1e" stroke-width="4.5" fill="none" stroke-dasharray="8 12"></path></g><g transform="translate(156.5105971982871 338.2603896932105) rotate(0 63.28125 21.600000000000364)"><text x="63.28125" y="0" font-family="Cascadia, Segoe UI Emoji" font-size="36px" fill="#1e1e1e" text-anchor="middle" style="white-space: pre;" direction="ltr" dominant-baseline="text-before-edge">Record</text></g><g stroke-linecap="round" transform="translate(850 50) rotate(0 160 60)"><path d="M30.83 3.84 L286.13 -3.05 L299.61 1.73 L310.04 4.02 L317.86 22.82 L317.6 87.33 L320.35 99.78 L307.82 119.11 L287.79 122.31 L28.41 119.63 L13.36 114.15 L8.57 109.04 L4.06 97.23 L-1.33 24.54 L5.68 3.94 L17.16 1.27 L31.14 1.51" stroke="none" stroke-width="0" fill="#a5d8ff"></path><path d="M30 0 M30 0 C118.03 1.1, 205.56 -1.68, 290 0 M30 0 C114.38 -1.88, 202.16 -3.24, 290 0 M290 0 C312.09 -2.74, 318.95 13.56, 320 30 M290 0 C309.76 2, 320.56 8.9, 320 30 M320 30 C320.96 50.1, 322.71 69.77, 320 90 M320 30 C319.74 43.28, 320.68 57.57, 320 90 M320 90 C318.76 107.14, 310.1 116.39, 290 120 M320 90 C322.16 110.61, 306.06 121.87, 290 120 M290 120 C205.7 118.94, 115.81 121.1, 30 120 M290 120 C194.48 117.42, 98.45 118.8, 30 120 M30 120 C6.84 116.68, 2.32 112.31, 0 90 M30 120 C8.13 122.24, -0.57 111.27, 0 90 M0 90 C-0.21 78.42, -0.39 61.4, 0 30 M0 90 C1.42 72.65, -0.06 57.55, 0 30 M0 30 C1.17 10.51, 6.82 -2.52, 30 0 M0 30 C2.34 10.64, 13.07 -3.08, 30 0" stroke="#1e1e1e" stroke-width="4" fill="none"></path></g><g transform="translate(904.53125 88.39999999999964) rotate(0 105.46875 21.59999999999991)"><text x="105.46875" y="0" font-family="Cascadia, Segoe UI Emoji" font-size="36px" fill="#1e1e1e" text-anchor="middle" style="white-space: pre;" direction="ltr" dominant-baseline="text-before-edge">Partition0</text></g><g stroke-linecap="round" transform="translate(850 210) rotate(0 160 60)"><path d="M27.46 2.86 L292.25 -0.48 L305.81 -1.46 L311.68 8.42 L317.53 22.72 L320.86 87.85 L316.66 104.68 L308.78 114.95 L286.58 121.36 L32.52 117.54 L14.53 114.37 L10 109.97 L0.89 98.13 L-0.31 26.21 L8.27 4.13 L15.52 0.85 L33.75 -2.64" stroke="none" stroke-width="0" fill="#a5d8ff"></path><path d="M30 0 M30 0 C120.26 -2.62, 214.2 -0.72, 290 0 M30 0 C116.8 3.54, 206.98 4.38, 290 0 M290 0 C310.78 -1.95, 316.3 11.86, 320 30 M290 0 C308.15 2.27, 324.31 11.39, 320 30 M320 30 C322.14 41.66, 316.22 63.05, 320 90 M320 30 C319.16 53.8, 320.33 74.32, 320 90 M320 90 C321.3 112.78, 306.64 116.46, 290 120 M320 90 C324.45 107.55, 312.48 118.79, 290 120 M290 120 C204.97 124.73, 119.38 125.09, 30 120 M290 120 C208.59 116.57, 127.92 117.98, 30 120 M30 120 C8.88 122.71, -3.61 112.22, 0 90 M30 120 C6.69 115.52, 3.78 108.6, 0 90 M0 90 C-1.59 74.5, 1.16 61.99, 0 30 M0 90 C-0.94 78.69, 2.82 65.11, 0 30 M0 30 C-0.39 6.76, 7.83 0.98, 30 0 M0 30 C3.94 6.01, 8.09 1.98, 30 0" stroke="#1e1e1e" stroke-width="4" fill="none"></path></g><g transform="translate(904.53125 248.39999999999964) rotate(0 105.46875 21.600000000000364)"><text x="105.46875" y="0" font-family="Cascadia, Segoe UI Emoji" font-size="36px" fill="#1e1e1e" text-anchor="middle" style="white-space: pre;" direction="ltr" dominant-baseline="text-before-edge">Partition1</text></g><g stroke-linecap="round" transform="translate(850 370) rotate(0 160 60)"><path d="M26.64 -3.54 L293.87 -2.13 L305.28 0.82 L313.86 9.14 L323.18 25.2 L321.17 93.76 L319.74 103.51 L310.17 113.52 L287.73 117.31 L27.31 120.85 L15.76 120.83 L3.89 114.72 L-2.41 93.13 L3.75 21.75 L5.19 10.32 L14.21 1.13 L29.03 2" stroke="none" stroke-width="0" fill="#a5d8ff"></path><path d="M30 0 M30 0 C116.97 0.31, 201.35 6.32, 290 0 M30 0 C103.29 3.77, 179.69 1.99, 290 0 M290 0 C308.34 1.72, 322.92 11.1, 320 30 M290 0 C307.25 2.11, 320.63 7.79, 320 30 M320 30 C319.89 47.62, 319.07 53.57, 320 90 M320 30 C319.79 52.51, 322.06 76.06, 320 90 M320 90 C321.28 113.72, 309.42 119.09, 290 120 M320 90 C317.86 108.09, 311.75 116.85, 290 120 M290 120 C218.61 118.36, 145.87 117.73, 30 120 M290 120 C192.42 120.82, 94.68 118.62, 30 120 M30 120 C10.71 121.76, 3.82 108.79, 0 90 M30 120 C12.84 123.39, 3.8 106.56, 0 90 M0 90 C-0.64 75.22, 1.75 69.06, 0 30 M0 90 C0.38 68.45, 1.01 47.27, 0 30 M0 30 C3.75 6, 12.89 -0.23, 30 0 M0 30 C4.49 12.01, 6.1 1.22, 30 0" stroke="#1e1e1e" stroke-width="4" fill="none"></path></g><g transform="translate(904.53125 408.39999999999964) rotate(0 105.46875 21.600000000000364)"><text x="105.46875" y="0" font-family="Cascadia, Segoe UI Emoji" font-size="36px" fill="#1e1e1e" text-anchor="middle" style="white-space: pre;" direction="ltr" dominant-baseline="text-before-edge">Partition2</text></g><g stroke-linecap="round" transform="translate(850 530) rotate(0 160 60)"><path d="M26 2.76 L291.47 3.66 L301.83 2.62 L315.73 11.08 L320.81 26.69 L319.42 89.09 L316.26 101.47 L309.81 113.05 L288.86 119.11 L28.24 119.01 L17.11 114.45 L6.94 115.52 L-1.32 97.12 L0.65 24.8 L7.46 3.83 L17.59 3.63 L33.82 -1.21" stroke="none" stroke-width="0" fill="#a5d8ff"></path><path d="M30 0 M30 0 C121.64 -6.59, 220.74 -4.12, 290 0 M30 0 C111.66 -2.06, 192.01 -3.38, 290 0 M290 0 C312.68 -1.03, 323.95 8.67, 320 30 M290 0 C314.31 -4.6, 323.33 9.74, 320 30 M320 30 C321.59 57.65, 321.13 80.54, 320 90 M320 30 C321.24 47.74, 319.67 65.38, 320 90 M320 90 C317.75 113.45, 306.28 121.41, 290 120 M320 90 C324.46 114.52, 307.05 121.48, 290 120 M290 120 C201.06 115.66, 117.72 120.48, 30 120 M290 120 C201.3 120.26, 112.89 122.66, 30 120 M30 120 C13.96 117.24, 0.69 110.43, 0 90 M30 120 C11.01 118.19, 2.42 110.44, 0 90 M0 90 C-3.46 66.12, -0.44 45.49, 0 30 M0 90 C0.31 77.46, -2.2 63.96, 0 30 M0 30 C2.76 13.1, 9.4 -1.23, 30 0 M0 30 C0.72 12.23, 11.53 2.33, 30 0" stroke="#1e1e1e" stroke-width="4" fill="none"></path></g><g transform="translate(904.53125 568.3999999999996) rotate(0 105.46875 21.600000000000364)"><text x="105.46875" y="0" font-family="Cascadia, Segoe UI Emoji" font-size="36px" fill="#1e1e1e" text-anchor="middle" style="white-space: pre;" direction="ltr" dominant-baseline="text-before-edge">Partition3</text></g><g mask="url(#mask-fCHVbXQlsh0VteOKUnbwM)" stroke-linecap="round"><g transform="translate(409.90766686681036 350) rotate(0 200.8488777036066 -0.06615877110471047)"><path d="M-1.02 0.62 C65.84 0.52, 336.13 1.78, 402.72 1.92 M3.62 -1.51 C70.21 -1.19, 336.53 -1.75, 401.91 -2.05" stroke="#1e1e1e" stroke-width="4" fill="none"></path></g><g transform="translate(409.90766686681036 350) rotate(0 200.8488777036066 -0.06615877110471047)"><path d="M374.63 12.05 C386.3 2.57, 395.6 -0.08, 397.95 -5.03 M375.47 8.21 C380.67 4.03, 390.66 1.72, 400.17 -1.11" stroke="#1e1e1e" stroke-width="4" fill="none"></path></g><g transform="translate(409.90766686681036 350) rotate(0 200.8488777036066 -0.06615877110471047)"><path d="M374.57 -8.47 C386.63 -10.66, 395.95 -6.03, 397.95 -5.03 M375.41 -12.31 C380.24 -11, 390.25 -7.82, 400.17 -1.11" stroke="#1e1e1e" stroke-width="4" fill="none"></path></g></g><mask id="mask-fCHVbXQlsh0VteOKUnbwM"><rect x="0" y="0" fill="#fff" width="910" height="450"></rect><rect x="501.9538334334052" y="328.39999999999964" fill="#000" width="216" height="43.199999999999996" opacity="1"></rect></mask><g transform="translate(501.9538334334052 328.39999999999964) rotate(0 108.80271113701178 21.533841228895653)"><text x="108" y="0" font-family="Cascadia, Segoe UI Emoji" font-size="36px" fill="#1e1e1e" text-anchor="middle" style="white-space: pre;" direction="ltr" dominant-baseline="text-before-edge">分区分配策略</text></g></svg>