<svg version="1.1" xmlns="http://www.w3.org/2000/svg" viewBox="0 0 2300 700" width="2300" height="700">
  <!-- svg-source:excalidraw -->
  
  <defs>
    <style class="style-fonts">
      @font-face {
        font-family: "Virgil";
        src: url("https://excalidraw.com/Virgil.woff2");
      }
      @font-face {
        font-family: "Cascadia";
        src: url("https://excalidraw.com/Cascadia.woff2");
      }
    </style>
    
  </defs>
  <rect x="0" y="0" width="2300" height="700" fill="#ffffff"></rect><g stroke-linecap="round" transform="translate(10 10) rotate(0 1140 340)"><path d="M28.03 -2.86 L2250.37 -0.79 L2263.39 5.56 L2273.5 13.96 L2280.35 35.25 L2276.19 651.98 L2275.26 663.01 L2267.19 675.17 L2244.31 678.85 L33.09 676.63 L15.47 677.94 L7.28 665.64 L0.56 644.66 L-3.03 30.65 L3.17 16.58 L9.67 11.84 L20.74 -1.58 L32.73 2.52" stroke="none" stroke-width="0" fill="#fff"></path><path d="M32 0 M32 0 C504.02 -17.72, 974.19 -15.82, 2248 0 M32 0 C902.02 -12.76, 1773.14 -12.79, 2248 0 M2248 0 C2265.81 0.7, 2283.66 14.65, 2280 32 M2248 0 C2269.53 3.55, 2280.44 12.55, 2280 32 M2280 32 C2285.14 206.39, 2283.44 378.49, 2280 648 M2280 32 C2279.44 254.31, 2279.25 477.51, 2280 648 M2280 648 C2282.38 670.16, 2268.49 676.22, 2248 680 M2280 648 C2278.7 668.08, 2268.48 678.37, 2248 680 M2248 680 C1649.12 666.59, 1051.64 666.92, 32 680 M2248 680 C1679.71 680.88, 1112.59 681.48, 32 680 M32 680 C14.28 680.96, 1.69 667.04, 0 648 M32 680 C10.96 683.54, -2.52 666.41, 0 648 M0 648 C-0.18 435.84, 0.75 227.2, 0 32 M0 648 C1.94 407.84, 1.07 167.05, 0 32 M0 32 C1.37 14.64, 14.25 -1.89, 32 0 M0 32 C-1.22 9.44, 10.71 2.46, 32 0" stroke="#1e1e1e" stroke-width="4" fill="none"></path></g><g stroke-linecap="round" transform="translate(90 70) rotate(0 670 270)"><path d="M31.21 -1.49 L1305.17 -1.29 L1322.21 1.83 L1336.23 12.49 L1342.73 29.96 L1342.21 510.87 L1341.54 521.8 L1327.3 534.87 L1305.21 543.43 L35.47 538.65 L14.14 540.14 L3.53 526.59 L2.55 504.39 L0.09 32.25 L-1.57 15.84 L4.07 6.88 L21.64 3.32 L28.22 0.91" stroke="none" stroke-width="0" fill="#ebfbee"></path><path d="M32 0 M32 0 C536.54 -4.67, 1038.98 -3.62, 1308 0 M32 0 C314.37 8.99, 596.6 9.68, 1308 0 M1308 0 C1325.93 3.31, 1338.36 14.5, 1340 32 M1308 0 C1331.12 1.08, 1341.62 12.62, 1340 32 M1340 32 C1337.88 201.39, 1339.44 368.07, 1340 508 M1340 32 C1342.55 166.74, 1341.92 300.07, 1340 508 M1340 508 C1338.83 529.53, 1330.04 543.01, 1308 540 M1340 508 C1344.3 530.71, 1327.8 542.04, 1308 540 M1308 540 C883.3 542.95, 457.88 541.98, 32 540 M1308 540 C976.67 542.64, 644 542.49, 32 540 M32 540 C8.07 536.9, 1.29 528.2, 0 508 M32 540 C9.99 537.09, -0.76 529.68, 0 508 M0 508 C1.73 391.18, 1.68 270.28, 0 32 M0 508 C0.64 397.36, 0.76 287.8, 0 32 M0 32 C-2.61 9.02, 10.15 -2.03, 32 0 M0 32 C-3.09 11.66, 11.5 4.37, 32 0" stroke="#1e1e1e" stroke-width="4" fill="none"></path></g><g stroke-linecap="round" transform="translate(450 150) rotate(0 110 40)"><path d="M18.1 -2.64 L205.86 2.45 L212.41 4.37 L219.61 17.85 L222.04 69.1 L209.67 79.02 L201.4 79.73 L11.79 81.66 L5.58 75.73 L-2.66 68.11 L-2.84 13.73 L-1.11 6.62 L9.25 2.46 L19.99 2.35" stroke="none" stroke-width="0" fill="#4dabf7"></path><path d="M20 0 M20 0 C60.46 -3.89, 101.9 -2.65, 200 0 M20 0 C73.1 -1.26, 129.76 -2.82, 200 0 M200 0 C213.38 2.88, 216.72 4.64, 220 20 M200 0 C213.9 -2.7, 221.4 9.05, 220 20 M220 20 C216.14 27.57, 218.3 36.31, 220 60 M220 20 C219.27 35.38, 222.2 51.02, 220 60 M220 60 C218.99 75.74, 213.2 77.25, 200 80 M220 60 C218.71 70.9, 214.88 80.67, 200 80 M200 80 C154.37 81.91, 106.48 81.71, 20 80 M200 80 C152.12 79.4, 107.12 81.17, 20 80 M20 80 C5.41 82.79, 0.08 71.28, 0 60 M20 80 C10.8 75.76, -1.52 72.93, 0 60 M0 60 C-3.83 52.17, 2.17 36.89, 0 20 M0 60 C-2.04 44.54, 1.78 27.67, 0 20 M0 20 C-0.63 3.16, 9.27 -1.56, 20 0 M0 20 C4.5 7.04, 3.64 -1.38, 20 0" stroke="#1971c2" stroke-width="4" fill="none"></path></g><g transform="translate(490 173.20000000000073) rotate(0 70 16.800000000000182)"><text x="70" y="0" font-family="Cascadia, Segoe UI Emoji" font-size="28px" fill="#1e1e1e" text-anchor="middle" style="white-space: pre;" direction="ltr" dominant-baseline="text-before-edge">客户端寻址</text></g><g stroke-linecap="round" transform="translate(450 250) rotate(0 110 40)"><path d="M20.24 3.58 L208.26 4.53 L218.99 3.86 L217.69 13.11 L222.62 72.65 L214.44 76.12 L200.56 80.22 L12.58 81.03 L3.55 77.49 L2.43 63.31 L2.46 13.89 L4.16 9.74 L11.26 4.37 L17.52 -2.67" stroke="none" stroke-width="0" fill="#4dabf7"></path><path d="M20 0 M20 0 C85.9 0.02, 147.76 -2.84, 200 0 M20 0 C78.65 3.19, 137.94 3.95, 200 0 M200 0 C214.8 2.69, 218.41 10.59, 220 20 M200 0 C212.86 -0.57, 222.1 3.17, 220 20 M220 20 C221.21 29.21, 218.16 46.67, 220 60 M220 20 C218.37 30.65, 220.65 43.02, 220 60 M220 60 C221.16 69.49, 214.61 82.23, 200 80 M220 60 C218.92 73.82, 209.26 78.37, 200 80 M200 80 C159.22 82.01, 117.52 78.69, 20 80 M200 80 C140.43 81.89, 78.87 82.88, 20 80 M20 80 C7.15 79.61, -2.25 70.2, 0 60 M20 80 C8.18 83.01, 4.17 70.66, 0 60 M0 60 C4.11 46.13, -2.02 40.47, 0 20 M0 60 C1.3 44.97, 0.62 32.98, 0 20 M0 20 C-3.63 7.97, 6.32 -0.88, 20 0 M0 20 C-4.36 5.87, 4.76 -4.33, 20 0" stroke="#1971c2" stroke-width="4" fill="none"></path></g><g transform="translate(518 273.2000000000007) rotate(0 42 16.800000000000182)"><text x="42" y="0" font-family="Cascadia, Segoe UI Emoji" font-size="28px" fill="#1e1e1e" text-anchor="middle" style="white-space: pre;" direction="ltr" dominant-baseline="text-before-edge">序列化</text></g><g stroke-linecap="round" transform="translate(450 350) rotate(0 110 40)"><path d="M17.4 -3.09 L208.93 2.77 L216.84 7.12 L218.22 16.93 L216.63 70.49 L215.58 77.84 L202.81 82.63 L11.74 78.36 L2.75 71.86 L1.63 67.31 L3.94 12.99 L2.04 4.85 L4.98 6.33 L17.35 -2.61" stroke="none" stroke-width="0" fill="#4dabf7"></path><path d="M20 0 M20 0 C88.56 4.28, 152.27 2.91, 200 0 M20 0 C82.52 -1.61, 143.48 -1.52, 200 0 M200 0 C211.67 -3.77, 220.6 6.99, 220 20 M200 0 C208.9 4.29, 216.71 4.25, 220 20 M220 20 C219.44 38.1, 220.33 50.38, 220 60 M220 20 C218.01 34.64, 220.59 49.08, 220 60 M220 60 C218.54 75.95, 215.43 82.43, 200 80 M220 60 C219.41 73.3, 209.28 78.3, 200 80 M200 80 C153.07 83.29, 108.25 83.8, 20 80 M200 80 C137.91 83.3, 77.84 81, 20 80 M20 80 C5.89 83.46, 3.76 74.22, 0 60 M20 80 C10.53 84.11, -1.38 72.45, 0 60 M0 60 C2.22 49.84, 2.24 35.77, 0 20 M0 60 C-0.84 50.8, 0.48 43.25, 0 20 M0 20 C-1.44 10.21, 9.81 -0.98, 20 0 M0 20 C-0.15 5.81, 4.22 1.19, 20 0" stroke="#1971c2" stroke-width="4" fill="none"></path></g><g transform="translate(476 373.2000000000007) rotate(0 84 16.800000000000182)"><text x="84" y="0" font-family="Cascadia, Segoe UI Emoji" font-size="28px" fill="#1e1e1e" text-anchor="middle" style="white-space: pre;" direction="ltr" dominant-baseline="text-before-edge">请求内容构建</text></g><g stroke-linecap="round" transform="translate(450 450) rotate(0 110 40)"><path d="M16.01 -2.34 L206.24 -0.98 L214.15 2 L223.56 13.14 L221.16 67.94 L213.93 75.27 L201.48 83.2 L9.46 75.32 L6.89 78.17 L0.52 61.24 L-0.72 15.77 L5.28 10.27 L5.67 2.39 L19.54 -0.08" stroke="none" stroke-width="0" fill="#4dabf7"></path><path d="M20 0 M20 0 C80.55 0.7, 139.03 5.38, 200 0 M20 0 C83.7 -1.17, 146 -0.68, 200 0 M200 0 C209.72 -0.78, 218.38 3.06, 220 20 M200 0 C212.42 0.36, 221.9 6.83, 220 20 M220 20 C218.6 32.82, 222.99 41.95, 220 60 M220 20 C221.92 31.72, 220.13 38.1, 220 60 M220 60 C221.9 72.55, 213.2 79.52, 200 80 M220 60 C222.95 74.54, 216.25 83.08, 200 80 M200 80 C142.83 83.33, 91.81 76.36, 20 80 M200 80 C143.4 80.3, 84.47 78.61, 20 80 M20 80 C3.95 76.23, 0.84 70.75, 0 60 M20 80 C7.97 80.06, 2.07 70.24, 0 60 M0 60 C2.28 41.97, -2.22 31.38, 0 20 M0 60 C-0.2 44.08, -0.57 28.83, 0 20 M0 20 C1.85 6.5, 5.83 -2.94, 20 0 M0 20 C2.77 2.71, 10.95 -1.78, 20 0" stroke="#1971c2" stroke-width="4" fill="none"></path></g><g transform="translate(504 473.2000000000007) rotate(0 56 16.800000000000182)"><text x="56" y="0" font-family="Cascadia, Segoe UI Emoji" font-size="28px" fill="#1e1e1e" text-anchor="middle" style="white-space: pre;" direction="ltr" dominant-baseline="text-before-edge">容错处理</text></g><g stroke-linecap="round" transform="translate(730 150) rotate(0 110 40)"><path d="M17.48 3.33 L209.85 -2.39 L215.97 3.66 L218.12 18.86 L222.16 71.2 L212.22 74.47 L196.23 80.84 L8.67 79.89 L5.05 76.8 L-2.38 67.15 L-3.01 14.41 L4.43 4.25 L4.93 3.12 L23.42 -1.96" stroke="none" stroke-width="0" fill="#4dabf7"></path><path d="M20 0 M20 0 C61.05 0.24, 107.8 0.73, 200 0 M20 0 C68.52 -0.31, 119.7 -2.5, 200 0 M200 0 C216.36 1.99, 216.44 7.93, 220 20 M200 0 C209.04 0.01, 216.74 5.13, 220 20 M220 20 C219.72 35.58, 222.53 46.19, 220 60 M220 20 C219.1 34.41, 220.25 49.51, 220 60 M220 60 C223.32 76.76, 212.42 81.12, 200 80 M220 60 C223.54 71.51, 214.51 82.58, 200 80 M200 80 C149.72 80.56, 99.31 79.43, 20 80 M200 80 C149.51 83.37, 93.76 81.74, 20 80 M20 80 C8.82 83.85, 2.29 76.66, 0 60 M20 80 C8.2 76.41, -3.8 77.12, 0 60 M0 60 C1.64 45.11, 3.81 37.03, 0 20 M0 60 C-2.35 51.3, -0.48 44.41, 0 20 M0 20 C-3.99 6.15, 9 1.41, 20 0 M0 20 C2.27 8.17, 2.81 -0.86, 20 0" stroke="#1971c2" stroke-width="4" fill="none"></path></g><g transform="translate(815.390625 173.20000000000073) rotate(0 24.609375 16.800000000000182)"><text x="24.609375" y="0" font-family="Cascadia, Segoe UI Emoji" font-size="28px" fill="#1e1e1e" text-anchor="middle" style="white-space: pre;" direction="ltr" dominant-baseline="text-before-edge">SSL</text></g><g stroke-linecap="round" transform="translate(730 250) rotate(0 110 40)"><path d="M19.6 3.64 L212.08 4.68 L215.75 1.33 L217.16 17.47 L222.6 71.04 L215.52 78.52 L196.87 76.7 L14.54 78.99 L4.63 74.92 L1.87 62.04 L4.05 16.82 L-1.03 10.12 L8.41 -0.95 L18.92 -0.04" stroke="none" stroke-width="0" fill="#4dabf7"></path><path d="M20 0 M20 0 C82.98 1.87, 143.26 1.77, 200 0 M20 0 C59.75 -1.73, 98.68 -0.95, 200 0 M200 0 C216.95 1.88, 223.21 4.63, 220 20 M200 0 C208.83 3.65, 217.82 10.83, 220 20 M220 20 C219.1 26.91, 219.16 39.82, 220 60 M220 20 C218.95 36.17, 219.46 51.24, 220 60 M220 60 C218.93 72, 215.43 82.63, 200 80 M220 60 C216.15 76.42, 210.85 83.48, 200 80 M200 80 C155.5 80.21, 114.41 80.64, 20 80 M200 80 C145.38 77.71, 89.7 78.07, 20 80 M20 80 C9.57 77.38, 2.85 70.3, 0 60 M20 80 C6.95 81.69, 3.54 70.78, 0 60 M0 60 C0.98 51, 4.64 46.08, 0 20 M0 60 C-0.13 44.6, -0.08 32.08, 0 20 M0 20 C-2.78 3.08, 8.95 -1.85, 20 0 M0 20 C-2.35 9.39, 4.74 3.76, 20 0" stroke="#1971c2" stroke-width="4" fill="none"></path></g><g transform="translate(770 273.2000000000007) rotate(0 70 16.800000000000182)"><text x="70" y="0" font-family="Cascadia, Segoe UI Emoji" font-size="28px" fill="#1e1e1e" text-anchor="middle" style="white-space: pre;" direction="ltr" dominant-baseline="text-before-edge">超时和重试</text></g><g stroke-linecap="round" transform="translate(730 350) rotate(0 110 40)"><path d="M16.97 0.25 L210.22 4.33 L212.78 1.19 L215.92 16.98 L218.98 67.94 L216.07 79.65 L201.62 83.52 L13.08 79.9 L1.45 76.25 L-1.03 61.9 L-3.28 17.6 L0.96 5.77 L10.18 1.14 L23.27 -1.51" stroke="none" stroke-width="0" fill="#ffec99"></path><path d="M20 0 M20 0 C77.42 1.14, 134.69 1.64, 200 0 M20 0 C67.83 4.5, 112.38 4, 200 0 M200 0 C212.24 2.17, 223.73 2.86, 220 20 M200 0 C213.58 -2.57, 222.86 8.5, 220 20 M220 20 C223.47 35.08, 223.11 46.18, 220 60 M220 20 C220.48 31.01, 220.61 38.63, 220 60 M220 60 C216.65 72.64, 216.89 82.79, 200 80 M220 60 C217.41 77.23, 210.98 76.3, 200 80 M200 80 C125.57 81.5, 57.93 78.65, 20 80 M200 80 C160.12 79.83, 118.26 78.65, 20 80 M20 80 C4.61 83.67, 3.56 74.47, 0 60 M20 80 C8.36 78.95, 4.11 72.89, 0 60 M0 60 C-2.76 51.33, 1.19 39.86, 0 20 M0 60 C1.74 46.01, -1.67 31.32, 0 20 M0 20 C3.48 3.21, 4.4 0.27, 20 0 M0 20 C-2.87 3.03, 7.27 -4.53, 20 0" stroke="#f08c00" stroke-width="4" fill="none"></path></g><g transform="translate(784 373.2000000000007) rotate(0 56 16.800000000000182)"><text x="56" y="0" font-family="Cascadia, Segoe UI Emoji" font-size="28px" fill="#1e1e1e" text-anchor="middle" style="white-space: pre;" direction="ltr" dominant-baseline="text-before-edge">分区选择</text></g><g stroke-linecap="round" transform="translate(730 450) rotate(0 110 40)"><path d="M16.47 3.32 L205.36 -0.08 L214.95 4.91 L220.19 12.39 L214.83 71.84 L214.14 79.27 L196.47 77.82 L9.92 80.8 L2.93 77.87 L-0.12 65.83 L2.78 18.13 L-0.45 7.16 L5.08 2.87 L21.44 -3.52" stroke="none" stroke-width="0" fill="#ffec99"></path><path d="M20 0 M20 0 C64.27 0.16, 113.3 -1.6, 200 0 M20 0 C82.63 -0.5, 143.96 1.84, 200 0 M200 0 C214.19 3.62, 223.7 2.94, 220 20 M200 0 C208.77 2.04, 221.63 7.85, 220 20 M220 20 C218.93 27.79, 222.26 41.66, 220 60 M220 20 C217.85 28.56, 220.25 39.72, 220 60 M220 60 C219.07 71.35, 213.15 82.19, 200 80 M220 60 C220.58 70.82, 217.38 76.07, 200 80 M200 80 C129.17 76.15, 66.15 81.02, 20 80 M200 80 C163.05 81.06, 123.06 82.64, 20 80 M20 80 C7.19 81.75, -1.59 71.3, 0 60 M20 80 C2.99 81.55, -2.86 77.58, 0 60 M0 60 C-1.02 50.87, 0.7 41.29, 0 20 M0 60 C1.98 49.03, 1.58 37.82, 0 20 M0 20 C-0.24 5.78, 6.23 3.44, 20 0 M0 20 C-2.97 9.94, 10.33 3.02, 20 0" stroke="#f08c00" stroke-width="4" fill="none"></path></g><g transform="translate(784 473.2000000000007) rotate(0 56 16.800000000000182)"><text x="56" y="0" font-family="Cascadia, Segoe UI Emoji" font-size="28px" fill="#1e1e1e" text-anchor="middle" style="white-space: pre;" direction="ltr" dominant-baseline="text-before-edge">批量发送</text></g><g stroke-linecap="round" transform="translate(990 150) rotate(0 110 40)"><path d="M20.52 1.75 L207.16 -0.78 L211.8 6.35 L217.2 19.01 L214.8 72.53 L211.45 76.92 L198.92 81.45 L8.64 77.67 L2.24 73.62 L3.16 64.58 L2.37 14.64 L2.57 6.93 L7.38 6.25 L17.42 2.85" stroke="none" stroke-width="0" fill="#ffec99"></path><path d="M20 0 M20 0 C87.51 -0.6, 157.04 -3.92, 200 0 M20 0 C81.83 -0.49, 144.09 0.3, 200 0 M200 0 C212.7 3.7, 222.35 7.73, 220 20 M200 0 C211.05 3.98, 216.68 2.29, 220 20 M220 20 C217.19 31.79, 219.18 43.15, 220 60 M220 20 C220.7 31.36, 221.71 44.24, 220 60 M220 60 C219.88 72.6, 214.08 83.37, 200 80 M220 60 C223.44 71.13, 209.63 80.96, 200 80 M200 80 C140.35 78.73, 76.39 78.99, 20 80 M200 80 C161.59 79.43, 121.1 77.86, 20 80 M20 80 C7.93 81.19, 2.17 70.05, 0 60 M20 80 C4.5 80.74, -0.76 73.22, 0 60 M0 60 C-0.15 40.95, 3.53 26.05, 0 20 M0 60 C1.35 52.66, 0.52 41.89, 0 20 M0 20 C0.21 5.97, 3.13 -3.15, 20 0 M0 20 C1.47 6.57, 8.48 2.64, 20 0" stroke="#f08c00" stroke-width="4" fill="none"></path></g><g transform="translate(1072 173.20000000000073) rotate(0 28 16.800000000000182)"><text x="28" y="0" font-family="Cascadia, Segoe UI Emoji" font-size="28px" fill="#1e1e1e" text-anchor="middle" style="white-space: pre;" direction="ltr" dominant-baseline="text-before-edge">压缩</text></g><g stroke-linecap="round" transform="translate(990 250) rotate(0 110 40)"><path d="M22.75 3.02 L212.38 2.61 L215.38 5.21 L218.99 11.78 L215.6 70.02 L212.1 78.76 L202.3 77.76 L8.26 76.06 L5.69 71.38 L2.27 62.16 L2.11 14.34 L4.74 4.89 L5 1.62 L23.9 0.29" stroke="none" stroke-width="0" fill="#ffec99"></path><path d="M20 0 M20 0 C57.64 -0.6, 92.35 -1.93, 200 0 M20 0 C75.6 -0.02, 128.6 1.62, 200 0 M200 0 C214.41 -1.42, 220.68 6.58, 220 20 M200 0 C217.18 -4.35, 218.28 6.5, 220 20 M220 20 C217.71 31.14, 216.86 45.77, 220 60 M220 20 C218.7 29.02, 217.42 37.88, 220 60 M220 60 C216.75 74.93, 210.63 81.06, 200 80 M220 60 C220.04 70.33, 214.38 79.85, 200 80 M200 80 C156.28 81.06, 110.29 85.76, 20 80 M200 80 C160.4 84.15, 123.68 83.87, 20 80 M20 80 C2.91 81.84, -1.88 74.65, 0 60 M20 80 C10.85 81.18, -3.87 73.14, 0 60 M0 60 C-3.17 47.22, 2.96 35.46, 0 20 M0 60 C0.95 46.08, 0.59 35.93, 0 20 M0 20 C2.8 3.24, 10.31 -3.38, 20 0 M0 20 C3.52 2.77, 4.49 -2.76, 20 0" stroke="#f08c00" stroke-width="4" fill="none"></path></g><g transform="translate(1072 273.2000000000007) rotate(0 28 16.800000000000182)"><text x="28" y="0" font-family="Cascadia, Segoe UI Emoji" font-size="28px" fill="#1e1e1e" text-anchor="middle" style="white-space: pre;" direction="ltr" dominant-baseline="text-before-edge">事务</text></g><g stroke-linecap="round" transform="translate(990 350) rotate(0 110 40)"><path d="M16.66 -0.17 L204.91 -0.39 L217.3 2.74 L219.66 16.04 L215.43 70.93 L208.29 78.66 L199.74 82.8 L7.82 82.39 L1.62 78.06 L-3.08 62.8 L-2.08 15.53 L5.42 7.35 L10.02 0.17 L16.16 2.43" stroke="none" stroke-width="0" fill="#ffec99"></path><path d="M20 0 M20 0 C89.01 -3.69, 156.87 -5.6, 200 0 M20 0 C80.05 2.12, 140.33 2.59, 200 0 M200 0 C214.66 3.71, 220.9 8.21, 220 20 M200 0 C208.84 0.71, 223.58 2.98, 220 20 M220 20 C219.94 32.52, 220.52 46.33, 220 60 M220 20 C220.16 30.03, 219.92 41.3, 220 60 M220 60 C217.28 75.02, 213.68 80.45, 200 80 M220 60 C220.05 69.18, 210.62 77.56, 200 80 M200 80 C163.45 85.09, 122.36 79.04, 20 80 M200 80 C131.59 81.68, 64.95 83.55, 20 80 M20 80 C8.4 81.91, -0.61 74.23, 0 60 M20 80 C3.83 76.94, 3.61 75.04, 0 60 M0 60 C3.49 43.34, -3.49 30.3, 0 20 M0 60 C-0.78 47.39, -0.94 37.23, 0 20 M0 20 C-3.14 8.57, 4.66 3.71, 20 0 M0 20 C-3.23 5.18, 6.38 0.45, 20 0" stroke="#f08c00" stroke-width="4" fill="none"></path></g><g transform="translate(1072 373.2000000000007) rotate(0 28 16.800000000000182)"><text x="28" y="0" font-family="Cascadia, Segoe UI Emoji" font-size="28px" fill="#1e1e1e" text-anchor="middle" style="white-space: pre;" direction="ltr" dominant-baseline="text-before-edge">幂等</text></g><g stroke-linecap="round" transform="translate(990 450) rotate(0 110 40)"><path d="M21.41 2.2 L212.73 4.36 L218.41 2.06 L222.49 13.78 L221.6 65.19 L210.41 73.59 L201.98 81.73 L13.16 78.14 L5.9 72.53 L-2.35 67.82 L1.8 18.94 L2.64 8.31 L11.27 1.78 L16.47 1.55" stroke="none" stroke-width="0" fill="#4dabf7"></path><path d="M20 0 M20 0 C73 1.04, 128.17 5.38, 200 0 M20 0 C61.74 0.4, 99.13 1.69, 200 0 M200 0 C213.72 -2.69, 218.61 4.08, 220 20 M200 0 C217.91 1.4, 220.22 7.88, 220 20 M220 20 C219.59 28.12, 217.96 36.71, 220 60 M220 20 C217.84 28.92, 218.02 39.36, 220 60 M220 60 C218.38 74.21, 209.93 76.67, 200 80 M220 60 C218.29 70.31, 209.69 77.44, 200 80 M200 80 C137.44 77.9, 74.28 78.79, 20 80 M200 80 C144.3 76.02, 87.77 77.84, 20 80 M20 80 C3.11 77.29, 0.17 71.1, 0 60 M20 80 C8.95 82.69, 1.1 74.34, 0 60 M0 60 C3.72 46.05, 1.07 34.94, 0 20 M0 60 C-1.01 45.13, 0.28 33.9, 0 20 M0 20 C-1.14 4.19, 8.05 3.83, 20 0 M0 20 C1.54 4.7, 3.84 2.81, 20 0" stroke="#1971c2" stroke-width="4" fill="none"></path></g><g transform="translate(1050.78125 473.2000000000007) rotate(0 49.21875 16.800000000000182)"><text x="49.21875" y="0" font-family="Cascadia, Segoe UI Emoji" font-size="28px" fill="#1e1e1e" text-anchor="middle" style="white-space: pre;" direction="ltr" dominant-baseline="text-before-edge">......</text></g><g stroke-linecap="round" transform="translate(1270 210) rotate(0 50 130)"><path d="M26.34 -1.71 L83.48 4 L99.18 10.04 L99.31 22.99 L97.73 243.8 L92.22 252.38 L81.5 260.55 L14.33 256.95 L0.6 246.36 L-0.28 241.29 L0.49 20.65 L3.97 4.77 L10.21 -1.12 L26.3 -3.92" stroke="none" stroke-width="0" fill="#eaddd7"></path><path d="M25 0 M25 0 C38.47 -1.74, 45.7 2.57, 75 0 M25 0 C42.47 -0.04, 58.59 -1.99, 75 0 M75 0 C89.77 0.83, 96.57 11.68, 100 25 M75 0 C92.78 -1.18, 99.82 9.16, 100 25 M100 25 C104.17 68.72, 104.55 110.01, 100 235 M100 25 C100.64 92.59, 100.67 158.62, 100 235 M100 235 C97.23 250.76, 93.41 259.98, 75 260 M100 235 C101.17 255.58, 91.22 262.09, 75 260 M75 260 C58.61 258.85, 41.86 258.1, 25 260 M75 260 C60.49 261.18, 43.88 258.72, 25 260 M25 260 C9.81 256.72, -2.35 250.04, 0 235 M25 260 C4.03 256.52, -0.91 248.27, 0 235 M0 235 C3.97 152.42, -0.13 76.22, 0 25 M0 235 C0.82 186.1, -0.72 138.03, 0 25 M0 25 C-0.83 9.48, 7.72 -0.87, 25 0 M0 25 C4.2 8.71, 4.48 2.24, 25 0" stroke="#a18072" stroke-width="4" fill="none"></path></g><g transform="translate(1292 306.39999999999964) rotate(0 28 33.600000000000364)"><text x="28" y="0" font-family="Cascadia, Segoe UI Emoji" font-size="28px" fill="#1e1e1e" text-anchor="middle" style="white-space: pre;" direction="ltr" dominant-baseline="text-before-edge">网络</text><text x="28" y="33.6" font-family="Cascadia, Segoe UI Emoji" font-size="28px" fill="#1e1e1e" text-anchor="middle" style="white-space: pre;" direction="ltr" dominant-baseline="text-before-edge">模块</text></g><g transform="translate(110 330) rotate(0 150.1875 21.600000000000364)"><text x="0" y="0" font-family="Cascadia, Segoe UI Emoji" font-size="36px" fill="#1e1e1e" text-anchor="start" style="white-space: pre;" direction="ltr" dominant-baseline="text-before-edge">生产者客户端 SDK</text></g><g stroke-linecap="round"><g transform="translate(1431 236.31122450990733) rotate(0 168.12965217642488 -4.506095459768403)"><path d="M0.68 -2.01 C56.36 -3.35, 279.26 -6.43, 335.58 -7" stroke="#1e1e1e" stroke-width="4.5" fill="none" stroke-dasharray="1.5 10"></path></g><g transform="translate(1431 236.31122450990733) rotate(0 168.12965217642488 -4.506095459768403)"><path d="M304.65 0.15 C316.33 0.59, 328.42 -2.83, 332.52 -6.6" stroke="#1e1e1e" stroke-width="4.5" fill="none" stroke-dasharray="1.5 8"></path></g><g transform="translate(1431 236.31122450990733) rotate(0 168.12965217642488 -4.506095459768403)"><path d="M304.39 -20.37 C316.31 -12.69, 328.49 -8.87, 332.52 -6.6" stroke="#1e1e1e" stroke-width="4.5" fill="none" stroke-dasharray="1.5 8"></path></g></g><mask></mask><g stroke-linecap="round"><g transform="translate(1769 389.9955964796245) rotate(0 -168.898430718854 -0.6757073057433445)"><path d="M-1.15 -1 C-57.37 -0.99, -280.52 -0.18, -336.64 -0.39" stroke="#1e1e1e" stroke-width="4.5" fill="none" stroke-dasharray="1.5 10"></path></g><g transform="translate(1769 389.9955964796245) rotate(0 -168.898430718854 -0.6757073057433445)"><path d="M-309.88 -8.72 C-316.03 -7.43, -327.84 -5.09, -335.11 -1.1" stroke="#1e1e1e" stroke-width="4.5" fill="none" stroke-dasharray="1.5 8"></path></g><g transform="translate(1769 389.9955964796245) rotate(0 -168.898430718854 -0.6757073057433445)"><path d="M-309.87 11.8 C-315.96 6.46, -327.78 2.16, -335.11 -1.1" stroke="#1e1e1e" stroke-width="4.5" fill="none" stroke-dasharray="1.5 8"></path></g></g><mask></mask><g stroke-linecap="round" transform="translate(1770 170) rotate(0 220 130)"><path d="M31.82 0.03 L405.77 -1.71 L428.19 4.02 L433.88 15.47 L438.47 32.71 L440.06 226.09 L438.8 245.55 L426.54 253.02 L410.47 263.8 L34.72 258.93 L8.99 251.56 L3.69 245.82 L3.05 230.71 L-1.77 21.97 L5 9.46 L17.8 3.01 L34.42 3.82" stroke="none" stroke-width="0" fill="#ffc9c9"></path><path d="M32 0 M32 0 C109.73 -1.92, 181.97 -1.95, 408 0 M32 0 C168.09 1.8, 306.49 0.18, 408 0 M408 0 C426.8 -0.72, 437.62 7.39, 440 32 M408 0 C427.79 -0.06, 443.08 6.54, 440 32 M440 32 C435.95 73.84, 437.31 117.73, 440 228 M440 32 C443.01 92.14, 441.74 154.87, 440 228 M440 228 C439.98 247.87, 426.55 260.51, 408 260 M440 228 C439.77 247.68, 425.05 256.86, 408 260 M408 260 C275.92 255.97, 149.06 255.79, 32 260 M408 260 C298.84 259.99, 190.48 260.45, 32 260 M32 260 C8.14 256.36, -3.47 247.79, 0 228 M32 260 C14.57 257.87, 1.9 252.2, 0 228 M0 228 C-0.3 174.92, -4.57 118.38, 0 32 M0 228 C3.48 182.67, 1.38 133.32, 0 32 M0 32 C2.16 14.25, 10.62 -3.71, 32 0 M0 32 C0.97 13.47, 6.2 -3.5, 32 0" stroke="#e03131" stroke-width="4" fill="none"></path></g><g transform="translate(1936 278.39999999999964) rotate(0 54 21.600000000000364)"><text x="54" y="0" font-family="Cascadia, Segoe UI Emoji" font-size="36px" fill="#1e1e1e" text-anchor="middle" style="white-space: pre;" direction="ltr" dominant-baseline="text-before-edge">服务端</text></g><g transform="translate(1530 270) rotate(0 72 43.19999999999982)"><text x="0" y="0" font-family="Cascadia, Segoe UI Emoji" font-size="36px" fill="#1e1e1e" text-anchor="start" style="white-space: pre;" direction="ltr" dominant-baseline="text-before-edge">连接管理</text><text x="0" y="43.199999999999996" font-family="Cascadia, Segoe UI Emoji" font-size="36px" fill="#1e1e1e" text-anchor="start" style="white-space: pre;" direction="ltr" dominant-baseline="text-before-edge">心跳管理</text></g></svg>