<svg version="1.1" xmlns="http://www.w3.org/2000/svg" viewBox="0 0 1400 500" width="1400" height="500">
  <!-- svg-source:excalidraw -->
  
  <defs>
    <style class="style-fonts">
      @font-face {
        font-family: "Virgil";
        src: url("https://excalidraw.com/Virgil.woff2");
      }
      @font-face {
        font-family: "Cascadia";
        src: url("https://excalidraw.com/Cascadia.woff2");
      }
    </style>
    
  </defs>
  <rect x="0" y="0" width="1400" height="500" fill="#ffffff"></rect><g stroke-linecap="round" transform="translate(10 10) rotate(0 380 240)"><path d="M30.73 -2.77 L729.7 1.56 L746.86 4.05 L759.26 15.56 L757.04 28.57 L761 445.55 L754.31 468.32 L744.07 474.46 L728.94 478.63 L32.81 481.02 L13.36 477.64 L5.24 459.28 L1.18 445.32 L0.59 33.11 L-0.28 21.91 L8.75 9.68 L17.47 1.52 L34.83 -0.02" stroke="none" stroke-width="0" fill="#fff"></path><path d="M32 0 M32 0 C250.3 -1.29, 471.6 -2.71, 728 0 M32 0 C185.4 -5.44, 336.73 -4.09, 728 0 M728 0 C748.9 3.65, 756.46 13.54, 760 32 M728 0 C750.6 3.26, 756.47 14.38, 760 32 M760 32 C756.59 136.17, 757.47 240.99, 760 448 M760 32 C759.3 120.11, 758.47 208.71, 760 448 M760 448 C760.16 468.1, 752.84 481.16, 728 480 M760 448 C756.19 464.94, 751.84 477.71, 728 480 M728 480 C535.25 480.5, 344.35 480.23, 32 480 M728 480 C534.35 477.78, 342.44 479.31, 32 480 M32 480 C8.99 479.45, 0.91 466.98, 0 448 M32 480 C6.37 478.47, 2.92 465.42, 0 448 M0 448 C-0.25 362.82, -1.73 272.21, 0 32 M0 448 C0.07 358.24, 0.57 266.71, 0 32 M0 32 C0.8 14.36, 13.87 3.58, 32 0 M0 32 C-3.44 12.94, 6.89 -2.09, 32 0" stroke="#1e1e1e" stroke-width="4" fill="none"></path></g><g stroke-linecap="round" transform="translate(410 70) rotate(0 130 180)"><path d="M32.12 -1.18 L230.08 3.12 L241.46 -0.16 L253.99 9.36 L262.08 34.06 L263.49 331.65 L257.9 342.63 L249.58 356.58 L228 362.56 L28.44 360.53 L14.65 358.65 L6.45 350.71 L-0.66 327.49 L3.66 20.64 L4.71 11.53 L15.83 -1.84 L32.59 -3" stroke="none" stroke-width="0" fill="#a5d8ff"></path><path d="M32 0 M32 0 C99.05 -1.55, 160.04 -2.76, 228 0 M228 0 C245.55 1.82, 262.19 12.26, 260 32 M260 32 C260.74 134.48, 257.4 233.85, 260 328 M260 328 C263.39 350.25, 253.1 363.88, 228 360 M228 360 C158.58 359.7, 98.94 358.26, 32 360 M32 360 C7.75 363.2, 2.7 348.56, 0 328 M0 328 C2.12 256.71, 2.4 190.68, 0 32 M0 32 C3.32 14.39, 13.54 3.49, 32 0" stroke="#1971c2" stroke-width="4.5" fill="none" stroke-dasharray="8 12"></path></g><g transform="translate(487.265625 206.79999999999927) rotate(0 52.734375 43.19999999999982)"><text x="52.734375" y="0" font-family="Cascadia, Segoe UI Emoji" font-size="36px" fill="#1e1e1e" text-anchor="middle" style="white-space: pre;" direction="ltr" dominant-baseline="text-before-edge">admin</text><text x="52.734375" y="43.199999999999996" font-family="Cascadia, Segoe UI Emoji" font-size="36px" fill="#1e1e1e" text-anchor="middle" style="white-space: pre;" direction="ltr" dominant-baseline="text-before-edge">SDK</text></g><g stroke-linecap="round" transform="translate(1050 170) rotate(0 170 90)"><path d="M35.83 -3.03 L305.34 -2.25 L325.91 4.04 L334.25 11.75 L339.43 32.72 L339.28 148.38 L338.73 168.35 L330.19 172.08 L307.95 183.46 L28.52 176.47 L14.05 178.76 L0.64 169.35 L-1.71 153.67 L1.22 28.23 L8.26 9.26 L15.24 4.29 L30.35 -3.18" stroke="none" stroke-width="0" fill="#ffc9c9"></path><path d="M32 0 M32 0 C90.94 -5.7, 146.41 -6.56, 308 0 M32 0 C105 -1.47, 175.32 -1.6, 308 0 M308 0 C327.54 -3.15, 338.48 13.53, 340 32 M308 0 C327.89 -1.75, 338.76 15.13, 340 32 M340 32 C334.48 70.63, 337.93 109.33, 340 148 M340 32 C341.08 57.92, 338.85 84.46, 340 148 M340 148 C338.68 168.26, 326.19 178.38, 308 180 M340 148 C337.88 165.62, 330.62 176.64, 308 180 M308 180 C206.06 176.84, 102.75 178.84, 32 180 M308 180 C241.84 182.43, 175.93 182.31, 32 180 M32 180 C12.62 181.25, -2.75 170.35, 0 148 M32 180 C8.93 183.6, -4.33 167.09, 0 148 M0 148 C-0.63 106.07, 0.43 59.86, 0 32 M0 148 C-0.35 114.87, -0.62 80.01, 0 32 M0 32 C2.05 8.92, 8.73 -1.28, 32 0 M0 32 C-2.66 8.32, 7.05 -1.76, 32 0" stroke="#e03131" stroke-width="4" fill="none"></path></g><g transform="translate(1166 238.39999999999964) rotate(0 54 21.600000000000364)"><text x="54" y="0" font-family="Cascadia, Segoe UI Emoji" font-size="36px" fill="#1e1e1e" text-anchor="middle" style="white-space: pre;" direction="ltr" dominant-baseline="text-before-edge">服务端</text></g><g stroke-linecap="round"><g transform="translate(770 190) rotate(0 141.661481819674 0.9846518594013105)"><path d="M2.63 1.42 C49.7 1.49, 234.03 0.42, 280.69 0.56" stroke="#1e1e1e" stroke-width="4.5" fill="none" stroke-dasharray="8 12"></path></g><g transform="translate(770 190) rotate(0 141.661481819674 0.9846518594013105)"><path d="M254.55 11.86 C260.03 11.57, 269.15 9, 277.7 2.53" stroke="#1e1e1e" stroke-width="4.5" fill="none"></path></g><g transform="translate(770 190) rotate(0 141.661481819674 0.9846518594013105)"><path d="M254.51 -8.66 C260.02 -4.05, 269.15 -1.73, 277.7 2.53" stroke="#1e1e1e" stroke-width="4.5" fill="none"></path></g></g><mask></mask><g stroke-linecap="round"><g transform="translate(1050 310) rotate(0 -139.22090272121113 -1.7952555913479955)"><path d="M2.07 -2.09 C-44.49 -2.09, -233.06 -1.8, -280.51 -1.5" stroke="#1e1e1e" stroke-width="4.5" fill="none" stroke-dasharray="8 12"></path></g><g transform="translate(1050 310) rotate(0 -139.22090272121113 -1.7952555913479955)"><path d="M-255.35 -12.59 C-261.89 -12.55, -267.45 -5.77, -278 -4.22" stroke="#1e1e1e" stroke-width="4.5" fill="none"></path></g><g transform="translate(1050 310) rotate(0 -139.22090272121113 -1.7952555913479955)"><path d="M-255.28 7.93 C-261.62 2.66, -267.19 4.13, -278 -4.22" stroke="#1e1e1e" stroke-width="4.5" fill="none"></path></g></g><mask></mask><g transform="translate(70 230) rotate(0 94.921875 21.600000000000364)"><text x="0" y="0" font-family="Cascadia, Segoe UI Emoji" font-size="36px" fill="#1e1e1e" text-anchor="start" style="white-space: pre;" direction="ltr" dominant-baseline="text-before-edge">CMD Shell</text></g></svg>