<svg version="1.1" xmlns="http://www.w3.org/2000/svg" viewBox="0 0 1700 660" width="1700" height="660">
  <!-- svg-source:excalidraw -->
  
  <defs>
    <style class="style-fonts">
      @font-face {
        font-family: "Virgil";
        src: url("https://excalidraw.com/Virgil.woff2");
      }
      @font-face {
        font-family: "Cascadia";
        src: url("https://excalidraw.com/Cascadia.woff2");
      }
    </style>
    
  </defs>
  <rect x="0" y="0" width="1700" height="660" fill="#ffffff"></rect><g stroke-linecap="round" transform="translate(10 10) rotate(0 840 320)"><path d="M35.96 -3.38 L1645.32 2.75 L1658.81 1.31 L1675.37 10.63 L1681.3 32.42 L1678.8 609.13 L1680.69 619.31 L1668.95 635.99 L1651.41 637.09 L34.34 640.76 L21.09 634.74 L7.69 629.79 L2.53 611.02 L0.91 29.27 L1.73 14.51 L7.58 5.68 L19.87 1.6 L30.48 -0.68" stroke="none" stroke-width="0" fill="#fff"></path><path d="M32 0 M32 0 C409.87 12.54, 785.19 13.48, 1648 0 M32 0 C377.87 -4.7, 722.69 -4.6, 1648 0 M1648 0 C1666.88 -0.38, 1677.36 8.45, 1680 32 M1648 0 C1672.03 2.13, 1678.34 8.67, 1680 32 M1680 32 C1680.15 175.06, 1679.03 320.9, 1680 608 M1680 32 C1683.25 196.91, 1683.41 361.85, 1680 608 M1680 608 C1676.98 626.63, 1669.92 641.32, 1648 640 M1680 608 C1679.22 632.08, 1667.09 641.91, 1648 640 M1648 640 C1105.25 651.16, 561.38 651.26, 32 640 M1648 640 C1149.8 645.11, 653.09 644.16, 32 640 M32 640 C11.61 637.75, -1.91 627.02, 0 608 M32 640 C13.45 638.69, 2.57 627.7, 0 608 M0 608 C-0.44 384.52, -0.91 158.76, 0 32 M0 608 C1.42 419.32, 2.32 231.78, 0 32 M0 32 C3.49 12.46, 8.12 -0.81, 32 0 M0 32 C-0.43 8.66, 8.82 2.02, 32 0" stroke="#1e1e1e" stroke-width="4" fill="none"></path></g><g stroke-linecap="round" transform="translate(1210 210) rotate(0 220 130)"><path d="M34.37 1.77 L405.18 1.93 L425.38 4.53 L436.59 12.26 L440.38 34.15 L442.71 231.18 L436.28 250.89 L424.88 253.03 L409.81 260.18 L30.23 263.35 L10.53 257.64 L2.23 242.34 L3.81 224.08 L0.63 27.92 L9.3 6.01 L18.53 4.67 L32.51 1.09" stroke="none" stroke-width="0" fill="#ffc9c9"></path><path d="M32 0 M32 0 C126.5 -2.36, 217.71 -4.25, 408 0 M32 0 C121.13 2.97, 208.79 1.7, 408 0 M408 0 C432.99 2.33, 443.12 12.5, 440 32 M408 0 C427.81 -1.64, 442.49 6.68, 440 32 M440 32 C435.38 90.32, 432.27 144.96, 440 228 M440 32 C439.09 98.36, 441.2 164.46, 440 228 M440 228 C443.35 249.09, 431.27 257.64, 408 260 M440 228 C437.57 252.24, 426.48 263.84, 408 260 M408 260 C319.14 257.68, 234.64 253.68, 32 260 M408 260 C302.33 264.02, 193.98 265.11, 32 260 M32 260 C14.43 262.32, -2.78 252.44, 0 228 M32 260 C14.85 262.45, -3.22 246.9, 0 228 M0 228 C-1.38 160.22, 0.37 88.39, 0 32 M0 228 C-0.25 176.16, -0.21 122.48, 0 32 M0 32 C1.25 10.84, 13.28 3.02, 32 0 M0 32 C-2.32 14.93, 13.87 -1.25, 32 0" stroke="#e03131" stroke-width="4" fill="none"></path></g><g transform="translate(1376 318.39999999999964) rotate(0 54 21.600000000000364)"><text x="54" y="0" font-family="Cascadia, Segoe UI Emoji" font-size="36px" fill="#1e1e1e" text-anchor="middle" style="white-space: pre;" direction="ltr" dominant-baseline="text-before-edge">服务端</text></g><g stroke-linecap="round" transform="translate(90 70) rotate(0 380 270)"><path d="M30.23 3.35 L726.03 2.14 L747.73 4.84 L759.31 8.58 L760.13 35.42 L761.3 506.01 L756.03 530.17 L748.01 536.59 L725.81 539.38 L35.23 543.72 L14.69 537.5 L1.08 519.43 L1.68 506.19 L1.48 35 L0.1 16.79 L11.66 10.33 L21.12 3.83 L30.68 -1.43" stroke="none" stroke-width="0" fill="#ebfbee"></path><path d="M32 0 M32 0 C276.94 0.25, 524.77 1.84, 728 0 M32 0 C174.24 -2.02, 315.77 -2.65, 728 0 M728 0 C750.88 -3.48, 763.35 10.42, 760 32 M728 0 C751.56 -2.71, 757.57 13.58, 760 32 M760 32 C764.9 143.52, 762.2 260.13, 760 508 M760 32 C757.1 190.74, 757.75 347.97, 760 508 M760 508 C758.93 533.07, 753.09 542.32, 728 540 M760 508 C756.81 532.91, 753.52 542.45, 728 540 M728 540 C568.26 542.47, 407.58 544.22, 32 540 M728 540 C496.61 538.78, 265.12 538.45, 32 540 M32 540 C7.11 538.8, 1.25 529.51, 0 508 M32 540 C13.67 543.48, -2.32 533.6, 0 508 M0 508 C0.81 331.45, 0.68 155.16, 0 32 M0 508 C-4.02 396.83, -4 283.81, 0 32 M0 32 C3.85 10.5, 12.77 -1.16, 32 0 M0 32 C-4.54 12.06, 7.93 0.28, 32 0" stroke="#1e1e1e" stroke-width="4" fill="none"></path></g><g transform="translate(150 330) rotate(0 54 21.600000000000364)"><text x="0" y="0" font-family="Cascadia, Segoe UI Emoji" font-size="36px" fill="#1e1e1e" text-anchor="start" style="white-space: pre;" direction="ltr" dominant-baseline="text-before-edge">客户端</text></g><g stroke-linecap="round" transform="translate(530 130) rotate(0 120 70)"><path d="M202.58 21.49 C214.41 26.58, 223.65 33.13, 229.8 40.92 C235.96 48.71, 239.4 59.32, 239.51 68.24 C239.62 77.16, 236.04 86, 230.44 94.43 C224.84 102.85, 216.34 112.13, 205.91 118.79 C195.47 125.46, 182.1 130.97, 167.83 134.42 C153.55 137.87, 135.78 139.48, 120.26 139.5 C104.75 139.51, 88.55 137.56, 74.73 134.49 C60.92 131.42, 48.16 127.02, 37.36 121.09 C26.56 115.16, 15.96 107.1, 9.95 98.91 C3.94 90.72, 1.5 80.96, 1.3 71.95 C1.11 62.94, 3.29 53.32, 8.78 44.86 C14.28 36.4, 23.31 27.4, 34.27 21.18 C45.23 14.95, 60.58 11.06, 74.57 7.48 C88.55 3.91, 103.21 0.36, 118.17 -0.29 C133.13 -0.94, 147.24 -1.97, 164.35 3.57 C181.46 9.11, 210.15 25.62, 220.84 32.94 C231.53 40.26, 230.07 47.06, 228.49 47.46" stroke="none" stroke-width="0" fill="#ffec99"></path><path d="M215.62 28.21 C225.61 34.44, 231.86 46.09, 235.68 55.24 C239.5 64.39, 241.02 74.77, 238.57 83.1 C236.11 91.44, 228.93 98.22, 220.96 105.23 C213 112.24, 203.01 119.8, 190.77 125.16 C178.53 130.51, 162.58 135.24, 147.54 137.35 C132.5 139.46, 115.7 139.28, 100.54 137.83 C85.38 136.37, 69.71 132.93, 56.58 128.63 C43.45 124.32, 30.99 119.04, 21.76 112 C12.54 104.95, 4.66 95.02, 1.24 86.38 C-2.17 77.73, -1.45 69.33, 1.27 60.14 C3.98 50.95, 9.42 39.14, 17.54 31.23 C25.66 23.32, 37.59 17.84, 50 12.67 C62.41 7.5, 77.35 1.98, 92 0.2 C106.64 -1.58, 122.41 0.26, 137.87 1.99 C153.33 3.71, 170.75 5.25, 184.74 10.53 C198.73 15.82, 214.96 28.67, 221.8 33.68 C228.63 38.69, 227.12 40.09, 225.74 40.58" stroke="#f08c00" stroke-width="4.5" fill="none" stroke-dasharray="8 12"></path></g><g transform="translate(608.1471862576145 183.20252531694314) rotate(0 42 16.800000000000182)"><text x="42" y="0" font-family="Cascadia, Segoe UI Emoji" font-size="28px" fill="#1e1e1e" text-anchor="middle" style="white-space: pre;" direction="ltr" dominant-baseline="text-before-edge">可重试</text></g><g stroke-linecap="round" transform="translate(530 390) rotate(0 120 70)"><path d="M166.53 4.82 C180.82 7.64, 196.27 15.3, 207.15 21.97 C218.02 28.63, 226.09 36.62, 231.79 44.82 C237.48 53.02, 241.29 62.21, 241.33 71.18 C241.36 80.16, 238.25 90.51, 231.97 98.67 C225.69 106.84, 215.32 114.4, 203.65 120.16 C191.98 125.91, 176.27 129.99, 161.95 133.19 C147.62 136.39, 132.65 139.31, 117.7 139.34 C102.75 139.37, 86.43 136.9, 72.24 133.36 C58.05 129.82, 43.2 124.12, 32.55 118.08 C21.9 112.04, 13.87 105.25, 8.36 97.12 C2.84 88.99, -0.7 78.67, -0.55 69.32 C-0.4 59.97, 3.02 49.2, 9.27 41.03 C15.51 32.85, 25.86 26.28, 36.91 20.28 C47.95 14.28, 61.49 8.17, 75.53 5.02 C89.57 1.86, 103.04 0.66, 121.17 1.35 C139.31 2.04, 171.84 5.99, 184.35 9.15 C196.85 12.32, 197.25 18.91, 196.2 20.34" stroke="none" stroke-width="0" fill="#a5d8ff"></path><path d="M54.67 9.12 C65.94 3.7, 85.43 1.24, 100.96 0.35 C116.49 -0.55, 133.34 1.54, 147.84 3.75 C162.34 5.96, 175.41 8.66, 187.97 13.61 C200.52 18.56, 214.46 25.97, 223.18 33.44 C231.9 40.92, 238.04 50, 240.27 58.44 C242.5 66.88, 240.08 75.67, 236.55 84.11 C233.01 92.54, 227.6 101.77, 219.06 109.06 C210.52 116.35, 198.21 123.07, 185.32 127.83 C172.43 132.59, 157.36 135.77, 141.73 137.63 C126.11 139.5, 107.06 140.91, 91.57 139 C76.09 137.09, 61.1 131.46, 48.81 126.18 C36.52 120.9, 25.42 114.61, 17.81 107.3 C10.21 99.99, 5.85 91.08, 3.19 82.32 C0.54 73.55, -1.18 63.58, 1.86 54.71 C4.91 45.85, 9.63 37.23, 21.47 29.12 C33.31 21.01, 61.74 10.51, 72.91 6.04 C84.07 1.58, 87.96 1.46, 88.44 2.34" stroke="#1971c2" stroke-width="4.5" fill="none" stroke-dasharray="8 12"></path></g><g transform="translate(594.1471862576145 443.20252531694314) rotate(0 56 16.800000000000182)"><text x="56" y="0" font-family="Cascadia, Segoe UI Emoji" font-size="28px" fill="#1e1e1e" text-anchor="middle" style="white-space: pre;" direction="ltr" dominant-baseline="text-before-edge">不可重试</text></g><g stroke-linecap="round"><g transform="translate(850 170) rotate(0 178.35271975807836 41.33544220514614)"><path d="M-1.65 0.61 C58.14 13.93, 298.23 68.75, 358.36 82.06" stroke="#f08c00" stroke-width="4.5" fill="none" stroke-dasharray="8 12"></path></g><g transform="translate(850 170) rotate(0 178.35271975807836 41.33544220514614)"><path d="M329.47 83.53 C339.97 83.86, 346.21 83.3, 357.16 83.18" stroke="#f08c00" stroke-width="4.5" fill="none"></path></g><g transform="translate(850 170) rotate(0 178.35271975807836 41.33544220514614)"><path d="M333.98 63.51 C343.5 69.49, 348.45 74.64, 357.16 83.18" stroke="#f08c00" stroke-width="4.5" fill="none"></path></g></g><mask></mask><g stroke-linecap="round"><g transform="translate(1209 297.034919320422) rotate(0 -179.03412059955303 -36.84400212640685)"><path d="M-1 0.25 C-60.84 -11.7, -297.3 -61.72, -357.07 -73.94" stroke="#f08c00" stroke-width="4.5" fill="none" stroke-dasharray="8 12"></path></g><g transform="translate(1209 297.034919320422) rotate(0 -179.03412059955303 -36.84400212640685)"><path d="M-327.02 -76.91 C-340.67 -79.14, -350.51 -75.88, -353.65 -73.25" stroke="#f08c00" stroke-width="4.5" fill="none"></path></g><g transform="translate(1209 297.034919320422) rotate(0 -179.03412059955303 -36.84400212640685)"><path d="M-331.2 -56.82 C-342.98 -66.5, -351.26 -70.7, -353.65 -73.25" stroke="#f08c00" stroke-width="4.5" fill="none"></path></g></g><mask></mask><g stroke-linecap="round" transform="translate(950 170) rotate(0 70 70)"><path d="M89.04 4.31 C98.7 6.18, 108.64 11.9, 116.2 18.35 C123.76 24.8, 130.51 34.06, 134.39 43.01 C138.27 51.95, 140.07 61.95, 139.5 72 C138.92 82.06, 135.4 94.57, 130.91 103.36 C126.42 112.15, 120.48 119.16, 112.56 124.75 C104.64 130.34, 93.25 134.58, 83.38 136.91 C73.51 139.24, 63.05 141.22, 53.34 138.71 C43.63 136.21, 33.07 128.48, 25.14 121.86 C17.21 115.25, 9.91 108.43, 5.77 99.01 C1.63 89.6, -0.06 75.55, 0.29 65.38 C0.64 55.2, 3.18 46.76, 7.88 37.94 C12.57 29.11, 20.46 18.36, 28.45 12.43 C36.44 6.5, 42.04 2.01, 55.8 2.36 C69.57 2.71, 99.41 9.8, 111.04 14.54 C122.67 19.28, 126.05 30.25, 125.59 30.82" stroke="#f08c00" stroke-width="4.5" fill="none" stroke-dasharray="8 12"></path></g><g stroke-linecap="round"><g transform="translate(850 430) rotate(0 179.68303021974862 -31.248262514546695)"><path d="M0.12 -1.41 C59.87 -11.63, 299.7 -51.65, 359.24 -61.09" stroke="#1971c2" stroke-width="4.5" fill="none" stroke-dasharray="8 12"></path></g><g transform="translate(850 430) rotate(0 179.68303021974862 -31.248262514546695)"><path d="M331.06 -47.5 C340.06 -54.96, 353.04 -52.1, 359.59 -61.2" stroke="#1971c2" stroke-width="4.5" fill="none"></path></g><g transform="translate(850 430) rotate(0 179.68303021974862 -31.248262514546695)"><path d="M327.75 -67.75 C337.87 -68.58, 351.93 -59.1, 359.59 -61.2" stroke="#1971c2" stroke-width="4.5" fill="none"></path></g></g><mask></mask><g stroke-linecap="round"><g transform="translate(1190 430) rotate(0 -169.95053946767007 28.81438860986418)"><path d="M0.1 -1.78 C-56.23 8.18, -284.12 48.71, -340 59.41" stroke="#1971c2" stroke-width="4.5" fill="none" stroke-dasharray="8 12"></path></g><g transform="translate(1190 430) rotate(0 -169.95053946767007 28.81438860986418)"><path d="M-316.67 41.17 C-323.45 51.57, -325.07 53.43, -336.41 62.24" stroke="#1971c2" stroke-width="4.5" fill="none"></path></g><g transform="translate(1190 430) rotate(0 -169.95053946767007 28.81438860986418)"><path d="M-312.96 61.35 C-320.54 67.16, -323 64.41, -336.41 62.24" stroke="#1971c2" stroke-width="4.5" fill="none"></path></g></g><mask></mask><g transform="translate(992.2099950487991 99.2482707959789) rotate(25.86697113064561 72 21.600000000000364)"><text x="0" y="0" font-family="Cascadia, Segoe UI Emoji" font-size="36px" fill="#f08c00" text-anchor="start" style="white-space: pre;" direction="ltr" dominant-baseline="text-before-edge">多次重试</text></g><g transform="translate(952.4326569342261 474.6027354293292) rotate(343.5494158157266 90 21.600000000000364)"><text x="0" y="0" font-family="Cascadia, Segoe UI Emoji" font-size="36px" fill="#1971c2" text-anchor="start" style="white-space: pre;" direction="ltr" dominant-baseline="text-before-edge">向上抛异常</text></g></svg>