<svg version="1.1" xmlns="http://www.w3.org/2000/svg" viewBox="0 0 1300 960" width="1300" height="960">
  <!-- svg-source:excalidraw -->
  
  <defs>
    <style class="style-fonts">
      @font-face {
        font-family: "Virgil";
        src: url("https://excalidraw.com/Virgil.woff2");
      }
      @font-face {
        font-family: "Cascadia";
        src: url("https://excalidraw.com/Cascadia.woff2");
      }
    </style>
    
  </defs>
  <rect x="0" y="0" width="1300" height="960" fill="#ffffff"></rect><g stroke-linecap="round" transform="translate(10 10) rotate(0 640 470)"><path d="M35.66 1.43 L1248.09 3.11 L1269.85 7.87 L1277.14 8.77 L1279.26 34.06 L1283.01 904.8 L1279.05 925.52 L1270.26 937.81 L1246.16 938.97 L35.25 943.62 L12.38 935.32 L0.65 918.71 L-0.73 910.65 L2.95 34.79 L-1.26 14.75 L5.95 8.21 L16.49 4.57 L33.26 0.54" stroke="none" stroke-width="0" fill="#fff"></path><path d="M32 0 M32 0 C290.13 2.79, 550.71 5.04, 1248 0 M32 0 C339.66 1.95, 646.33 1.88, 1248 0 M1248 0 C1268.65 -0.3, 1279.51 13.75, 1280 32 M1248 0 C1271.42 -2.84, 1283.17 10.17, 1280 32 M1280 32 C1274.09 259.23, 1274.23 484.42, 1280 908 M1280 32 C1284.54 365.86, 1285.01 699.42, 1280 908 M1280 908 C1276.6 932.85, 1265.52 943.96, 1248 940 M1280 908 C1281.6 925.59, 1273.61 938.66, 1248 940 M1248 940 C814.5 939.55, 378.99 941.12, 32 940 M1248 940 C812.64 947.43, 376.98 947.02, 32 940 M32 940 C13.67 940.73, 1.82 931.24, 0 908 M32 940 C7.88 936.19, -2.12 932.9, 0 908 M0 908 C-4.09 663.77, -4.33 416.79, 0 32 M0 908 C-0.66 688.35, -0.55 468.07, 0 32 M0 32 C2.25 8.52, 8.57 1.62, 32 0 M0 32 C0.89 14.22, 6.63 2.29, 32 0" stroke="#1e1e1e" stroke-width="4" fill="none"></path></g><g stroke-linecap="round" transform="translate(750 50) rotate(0 240 430)"><path d="M28.96 -1.27 L450.92 -0.48 L461.27 2.55 L475.78 10.91 L479.42 35.17 L482.98 826.76 L481.69 845.37 L465.88 853.28 L449.56 861.77 L31.05 862.49 L19.66 856.8 L3.24 849.21 L3.85 826.7 L0.38 34.1 L5.15 15.51 L4.09 8.11 L19.78 5.1 L35.17 2.01" stroke="none" stroke-width="0" fill="#ced4da"></path><path d="M32 0 M32 0 C129.16 5.32, 220.58 3.62, 448 0 M448 0 C472.93 -0.4, 480.33 10.3, 480 32 M480 32 C474.78 207.96, 474.95 387.2, 480 828 M480 828 C482.28 849.41, 470.47 863.6, 448 860 M448 860 C283.55 858, 121.95 854.51, 32 860 M32 860 C8.03 862.61, 3.49 847.93, 0 828 M0 828 C-4.11 533.11, -5.89 237.88, 0 32 M0 32 C-1.28 7.42, 10.16 2.58, 32 0" stroke="#868e96" stroke-width="4.5" fill="none" stroke-dasharray="8 12"></path></g><g stroke-linecap="round" transform="translate(30 410) rotate(0 190 110)"><path d="M145.13 3.14 C162.81 -1.37, 186.3 -1.03, 206.3 -0.21 C226.3 0.61, 247.35 3.23, 265.13 8.04 C282.91 12.85, 298.16 21.09, 312.98 28.65 C327.81 36.2, 343.55 43.81, 354.1 53.36 C364.65 62.9, 372.06 74.62, 376.28 85.92 C380.51 97.21, 381.16 109.78, 379.46 121.12 C377.75 132.46, 373.75 143.69, 366.06 153.95 C358.36 164.2, 346.43 173.99, 333.26 182.68 C320.1 191.36, 303.59 200.1, 287.06 206.05 C270.54 211.99, 252.71 216.28, 234.11 218.34 C215.52 220.4, 195.46 219.36, 175.51 218.39 C155.57 217.43, 132.73 217.03, 114.44 212.55 C96.16 208.06, 80.24 199.42, 65.8 191.48 C51.37 183.55, 38.17 174.47, 27.85 164.95 C17.52 155.44, 8.17 145.31, 3.87 134.42 C-0.44 123.52, 0.45 110.83, 2.03 99.6 C3.61 88.36, 5.72 77.53, 13.36 67 C20.99 56.46, 34.6 44.67, 47.85 36.38 C61.1 28.09, 65.01 23.04, 92.84 17.25 C120.67 11.46, 183.43 1.7, 214.85 1.64 C246.27 1.59, 281.38 15, 281.36 16.92 M73.04 21.94 C85.18 14, 102.11 9.12, 119.73 5.97 C137.36 2.82, 158.69 3.27, 178.78 3.01 C198.88 2.76, 221.17 2.13, 240.29 4.45 C259.41 6.77, 276.79 11.22, 293.49 16.92 C310.19 22.61, 328.56 29.98, 340.5 38.61 C352.43 47.24, 358.12 58.17, 365.09 68.72 C372.06 79.27, 381.33 90.38, 382.32 101.91 C383.31 113.43, 376.88 126.53, 371.02 137.89 C365.16 149.25, 357.67 160.53, 347.16 170.06 C336.66 179.58, 323.02 187.82, 307.99 195.03 C292.97 202.24, 274.71 209.02, 257.02 213.31 C239.33 217.59, 220.87 220.46, 201.87 220.74 C182.86 221.03, 161.75 217.64, 143 215.02 C124.24 212.39, 106.35 210.66, 89.35 204.97 C72.36 199.28, 54.09 190.44, 41.03 180.87 C27.97 171.3, 17.52 157.95, 10.97 147.54 C4.42 137.14, 2.99 129.26, 1.75 118.44 C0.52 107.61, -1.36 93.57, 3.54 82.61 C8.44 71.66, 20.34 62.16, 31.15 52.72 C41.95 43.27, 61.18 30.24, 68.37 25.92 C75.56 21.61, 72.07 26.01, 74.29 26.82" stroke="none" stroke-width="0" fill="#b2f2bb"></path><path d="M244.45 4.8 C263.13 6.37, 281.78 14.21, 297.63 20.21 C313.49 26.21, 328.02 32.34, 339.59 40.81 C351.15 49.29, 360.47 59.85, 367.04 71.08 C373.6 82.31, 378.29 96.84, 378.96 108.17 C379.63 119.51, 376.21 128.48, 371.04 139.06 C365.88 149.65, 358.89 162.18, 347.97 171.66 C337.05 181.14, 321.1 188.71, 305.54 195.96 C289.98 203.2, 273.06 211.35, 254.62 215.13 C236.19 218.9, 214.25 218.29, 194.94 218.6 C175.64 218.92, 157.17 220.27, 138.78 217.02 C120.39 213.78, 100.95 205.54, 84.59 199.12 C68.23 192.7, 52.95 187.3, 40.62 178.49 C28.3 169.68, 17.13 157.06, 10.62 146.26 C4.1 135.46, 2.39 124.62, 1.54 113.68 C0.69 102.74, 0.45 91.23, 5.52 80.65 C10.58 70.06, 20.57 59.47, 31.92 50.19 C43.27 40.9, 57.7 32.36, 73.61 24.95 C89.52 17.54, 108.9 9.88, 127.38 5.71 C145.86 1.55, 155.67 -2.48, 184.51 -0.03 C213.34 2.42, 274.24 12.63, 300.41 20.43 C326.58 28.24, 343.59 45.48, 341.52 46.78 M98.51 14 C113.88 7.11, 135.57 4.25, 154.89 2.36 C174.21 0.46, 195.18 1.18, 214.44 2.64 C233.7 4.09, 253.25 6.83, 270.47 11.08 C287.68 15.32, 303.77 20.16, 317.74 28.1 C331.72 36.03, 344.91 49.06, 354.31 58.69 C363.71 68.32, 369.73 74.78, 374.14 85.88 C378.54 96.97, 382.83 113.46, 380.73 125.24 C378.62 137.01, 369.78 146.69, 361.51 156.52 C353.23 166.36, 344.45 176.12, 331.08 184.24 C317.71 192.37, 298.12 200.08, 281.3 205.28 C264.48 210.48, 249.45 213.17, 230.16 215.44 C210.87 217.72, 185.25 219.72, 165.56 218.94 C145.88 218.17, 129.24 215.27, 112.03 210.8 C94.82 206.34, 76.64 199.88, 62.32 192.15 C48 184.41, 35.87 174.36, 26.12 164.39 C16.36 154.42, 8.27 143.36, 3.78 132.33 C-0.71 121.3, -3.15 109.49, -0.81 98.2 C1.52 86.91, 9.35 75.22, 17.78 64.6 C26.2 53.98, 36.3 42.89, 49.73 34.47 C63.16 26.05, 90.35 17.35, 98.35 14.08 C106.36 10.81, 96.64 13.53, 97.74 14.86" stroke="#2f9e44" stroke-width="4" fill="none"></path></g><g transform="translate(166.1497115745559 498.618254069479) rotate(0 54 21.600000000000364)"><text x="54" y="0" font-family="Cascadia, Segoe UI Emoji" font-size="36px" fill="#1e1e1e" text-anchor="middle" style="white-space: pre;" direction="ltr" dominant-baseline="text-before-edge">生产者</text></g><g stroke-linecap="round" transform="translate(790 150) rotate(0 200 120)"><path d="M252.17 30.17 L371.58 108.7 L382.15 112.12 L384.9 124.43 L378.96 126.59 L365.41 138.35 L215.94 227.22 L195.62 230.75 L175.18 226.24 L34.95 144.2 L16.23 133.77 L16.81 122.16 L17.16 113.05 L24.84 106.97 L189.83 6.81 L202.5 8.17 L214.17 6.16 L253.17 32.13" stroke="none" stroke-width="0" fill="#ffc9c9"></path><path d="M251.25 30.25 M251.25 30.25 C281.33 47.25, 316.83 71.46, 349.75 90.75 M349.75 90.75 C397.38 124.88, 400.27 120.43, 349.75 151.25 M349.75 151.25 C329.85 168.27, 305.06 177.52, 251.25 209.75 M251.25 209.75 C199.81 242.61, 202.67 238.98, 150.75 209.75 M150.75 209.75 C116.5 184.95, 79.45 163.88, 50.25 151.25 M50.25 151.25 C0.76 124.31, -2.22 119.04, 50.25 90.75 M50.25 90.75 C86.29 69.39, 121.06 49.65, 150.75 30.25 M150.75 30.25 C200.42 2.35, 204.4 -3.43, 251.25 30.25" stroke="#e95d8e" stroke-width="4.5" fill="none" stroke-dasharray="8 12"></path></g><g transform="translate(895.078125 226.79999999999927) rotate(0 94.921875 43.19999999999982)"><text x="94.921875" y="0" font-family="Cascadia, Segoe UI Emoji" font-size="36px" fill="#1e1e1e" text-anchor="middle" style="white-space: pre;" direction="ltr" dominant-baseline="text-before-edge">MetaStore</text><text x="94.921875" y="43.199999999999996" font-family="Cascadia, Segoe UI Emoji" font-size="36px" fill="#1e1e1e" text-anchor="middle" style="white-space: pre;" direction="ltr" dominant-baseline="text-before-edge">Server</text></g><g stroke-linecap="round" transform="translate(870 430) rotate(0 130 40)"><path d="M16.28 1.95 L250.44 3.97 L256.21 1.8 L259.77 15.92 L262.56 65.39 L254.67 80.3 L239.2 83.55 L13.65 79.16 L3.3 75.75 L-0.51 62.51 L0.16 12 L4.77 11.7 L10.22 -0.19 L21.69 2.32" stroke="none" stroke-width="0" fill="#a5d8ff"></path><path d="M20 0 M20 0 C84.31 4.08, 158.21 1.6, 240 0 M20 0 C102.65 -3.39, 187.18 -2.08, 240 0 M240 0 C254.06 -2.42, 258.29 6.47, 260 20 M240 0 C249.9 -3.28, 257.58 9.93, 260 20 M260 20 C263.29 33.55, 259.56 47.06, 260 60 M260 20 C259.71 30.59, 262.15 41.61, 260 60 M260 60 C257.86 75.08, 251.14 83.32, 240 80 M260 60 C262.39 69.53, 255.09 78.45, 240 80 M240 80 C177.65 80.77, 113.44 83.65, 20 80 M240 80 C178.04 80.69, 117 80.5, 20 80 M20 80 C3.31 79.27, -2.79 74.51, 0 60 M20 80 C2.85 77.6, 1.38 71.57, 0 60 M0 60 C-3.58 52.66, 2.01 42.2, 0 20 M0 60 C0.96 44.9, 1.44 29.61, 0 20 M0 20 C-1.55 8.27, 6.15 -2.88, 20 0 M0 20 C-3.89 10.94, 7.36 -0.9, 20 0" stroke="#228be6" stroke-width="4" fill="none"></path></g><g transform="translate(950.78125 453.2000000000007) rotate(0 49.21875 16.800000000000182)"><text x="49.21875" y="0" font-family="Cascadia, Segoe UI Emoji" font-size="28px" fill="#228be6" text-anchor="middle" style="white-space: pre;" direction="ltr" dominant-baseline="text-before-edge">Broker</text></g><g stroke-linecap="round" transform="translate(870 550) rotate(0 130 40)"><path d="M16.87 1.23 L248.53 3.58 L257.87 1.7 L261.78 12.3 L261.53 67.56 L252.19 75.51 L242.94 77.9 L10.51 78.49 L8.49 78.5 L-2.29 64.58 L2.7 15.64 L6.61 6.37 L7.2 3.1 L23.63 0.76" stroke="none" stroke-width="0" fill="#a5d8ff"></path><path d="M20 0 M20 0 C83.64 1.59, 154.03 1.1, 240 0 M20 0 C73.43 2.25, 127.79 0.83, 240 0 M240 0 C255.48 -1.67, 262.92 5.41, 260 20 M240 0 C248.93 3.08, 256.84 4.31, 260 20 M260 20 C256.35 32.45, 259.52 47.4, 260 60 M260 20 C258.65 32.15, 261.03 45.51, 260 60 M260 60 C258.78 71.08, 250.17 81.12, 240 80 M260 60 C262.46 70.31, 253.66 84.07, 240 80 M240 80 C185.61 75.35, 125.66 73.86, 20 80 M240 80 C168.83 77.57, 93.98 76.15, 20 80 M20 80 C4.19 80.66, 3.45 70.36, 0 60 M20 80 C10.08 84.46, -3.1 68.82, 0 60 M0 60 C-1.88 48.68, 3.73 44.6, 0 20 M0 60 C-2.12 44.5, -0.04 32.05, 0 20 M0 20 C-1.31 8.04, 8.76 1.69, 20 0 M0 20 C-4.43 3.46, 5.59 -3.19, 20 0" stroke="#228be6" stroke-width="4" fill="none"></path></g><g transform="translate(950.78125 573.2000000000007) rotate(0 49.21875 16.800000000000182)"><text x="49.21875" y="0" font-family="Cascadia, Segoe UI Emoji" font-size="28px" fill="#228be6" text-anchor="middle" style="white-space: pre;" direction="ltr" dominant-baseline="text-before-edge">Broker</text></g><g stroke-linecap="round" transform="translate(870 670) rotate(0 130 40)"><path d="M17.95 2.74 L246.22 0.08 L251.85 2.71 L259.71 13.23 L259.61 65.5 L253.01 75.79 L238.57 83.36 L10.82 77.53 L2.75 71.83 L1.43 66.83 L-2.31 15.6 L6.35 6.03 L7.4 -0.55 L22.07 -1.66" stroke="none" stroke-width="0" fill="#a5d8ff"></path><path d="M20 0 M20 0 C73.26 -4.27, 129.56 0.99, 240 0 M20 0 C70.28 3.86, 118.7 3.65, 240 0 M240 0 C257.21 -2.7, 256.07 3.8, 260 20 M240 0 C250.19 -1.11, 257.21 4.15, 260 20 M260 20 C263.18 32.38, 257.38 47.34, 260 60 M260 20 C260.7 34, 260.86 43.99, 260 60 M260 60 C257.22 72.4, 250.56 78.66, 240 80 M260 60 C257.37 69.58, 252.15 81.69, 240 80 M240 80 C154.04 78.2, 72.7 77.16, 20 80 M240 80 C185.09 81.34, 129.05 80.23, 20 80 M20 80 C10.45 80.64, 3.7 73.96, 0 60 M20 80 C5.26 77.09, 0.18 71.14, 0 60 M0 60 C1.79 41.62, -2.22 29.49, 0 20 M0 60 C0.75 49.49, -1.82 42.91, 0 20 M0 20 C1.26 6.18, 9.72 -2.32, 20 0 M0 20 C0.95 2.25, 3.39 -2.3, 20 0" stroke="#228be6" stroke-width="4" fill="none"></path></g><g transform="translate(950.78125 693.2000000000007) rotate(0 49.21875 16.800000000000182)"><text x="49.21875" y="0" font-family="Cascadia, Segoe UI Emoji" font-size="28px" fill="#228be6" text-anchor="middle" style="white-space: pre;" direction="ltr" dominant-baseline="text-before-edge">Broker</text></g><g stroke-linecap="round" transform="translate(870 790) rotate(0 130 40)"><path d="M17.26 -0.96 L246.32 -0.94 L258.18 7.87 L261.68 17.92 L255.95 65.56 L249.16 78.15 L240.06 78.69 L12.63 80.84 L6.69 71.15 L-2.47 63.75 L-2.46 13.97 L0.52 4.55 L6.78 4.29 L23.26 -0.22" stroke="none" stroke-width="0" fill="#a5d8ff"></path><path d="M20 0 M20 0 C88.9 -0.83, 155.02 1.63, 240 0 M20 0 C85.55 -3.01, 150.89 -3.2, 240 0 M240 0 C257.03 0.62, 258.78 4.14, 260 20 M240 0 C253.51 -2.19, 263.19 2.39, 260 20 M260 20 C257.24 30.07, 257.06 43.52, 260 60 M260 20 C258.89 34.12, 261.04 46.75, 260 60 M260 60 C263.05 71.01, 254.16 76.16, 240 80 M260 60 C256.72 71.03, 249.05 76.8, 240 80 M240 80 C183.64 79.31, 128.95 82.64, 20 80 M240 80 C162.44 82.44, 83.94 82.21, 20 80 M20 80 C8.31 79.38, -1.38 70.35, 0 60 M20 80 C6.65 83.64, -0.05 75.05, 0 60 M0 60 C-1.57 51.33, -4.1 42.18, 0 20 M0 60 C1.08 43.63, -0.23 29.19, 0 20 M0 20 C0.43 3.01, 7.81 -0.32, 20 0 M0 20 C0.68 3.69, 6.13 -4.4, 20 0" stroke="#228be6" stroke-width="4" fill="none"></path></g><g transform="translate(950.78125 813.2000000000007) rotate(0 49.21875 16.800000000000182)"><text x="49.21875" y="0" font-family="Cascadia, Segoe UI Emoji" font-size="28px" fill="#228be6" text-anchor="middle" style="white-space: pre;" direction="ltr" dominant-baseline="text-before-edge">Broker</text></g><g mask="url(#mask-dstgOoNJrNzSzLTU5nHsX)" stroke-linecap="round"><g transform="translate(332.7037714361031 609.6159113345693) rotate(0 205.8342541320772 100.04429626489946)"><path d="M0.99 -0.63 C69.36 32.92, 342.37 167.1, 410.68 200.72" stroke="#1e1e1e" stroke-width="4.5" fill="none" stroke-dasharray="8 12"></path></g><g transform="translate(332.7037714361031 609.6159113345693) rotate(0 205.8342541320772 100.04429626489946)"><path d="M379.96 194.23 C392.56 195.28, 402.47 201.61, 407.75 199.83" stroke="#1e1e1e" stroke-width="4.5" fill="none"></path></g><g transform="translate(332.7037714361031 609.6159113345693) rotate(0 205.8342541320772 100.04429626489946)"><path d="M389.01 175.82 C398.68 182.74, 405.73 194.89, 407.75 199.83" stroke="#1e1e1e" stroke-width="4.5" fill="none"></path></g></g><mask id="mask-dstgOoNJrNzSzLTU5nHsX"><rect x="0" y="0" fill="#fff" width="845.6618453625522" height="908.7285884882713"></rect><rect x="496.99530839932777" y="687.5722499114199" fill="#000" width="84.375" height="43.199999999999996" opacity="1"></rect></mask><g transform="translate(496.99530839932766 687.5722499114199) rotate(0 41.542717168852676 22.087957688048846)"><text x="42.1875" y="0" font-family="Cascadia, Segoe UI Emoji" font-size="36px" fill="#1e1e1e" text-anchor="middle" style="white-space: pre;" direction="ltr" dominant-baseline="text-before-edge">send</text></g><g mask="url(#mask-c4PszFeLXwAfawdbw74rU)" stroke-linecap="round"><g transform="translate(393.0357675578597 566.9965494551689) rotate(0 178.95804838816804 68.06030902167913)"><path d="M0.81 2.31 C60.63 24.93, 297.8 111.79, 357.1 133.81" stroke="#1e1e1e" stroke-width="4.5" fill="none" stroke-dasharray="8 12"></path></g><g transform="translate(393.0357675578597 566.9965494551689) rotate(0 178.95804838816804 68.06030902167913)"><path d="M330.41 135.31 C336.65 134.45, 344.56 132.04, 358.41 137.3" stroke="#1e1e1e" stroke-width="4.5" fill="none"></path></g><g transform="translate(393.0357675578597 566.9965494551689) rotate(0 178.95804838816804 68.06030902167913)"><path d="M337.5 116.06 C341.81 119.78, 348.05 121.9, 358.41 137.3" stroke="#1e1e1e" stroke-width="4.5" fill="none"></path></g></g><mask id="mask-c4PszFeLXwAfawdbw74rU"><rect x="0" y="0" fill="#fff" width="849" height="799.0738915305428"></rect><rect x="528.83038377893" y="611.4352204928564" fill="#000" width="84.375" height="43.199999999999996" opacity="1"></rect></mask><g transform="translate(528.8303837789299 611.4352204928564) rotate(0 43.163432167097824 23.621637983991604)"><text x="42.1875" y="0" font-family="Cascadia, Segoe UI Emoji" font-size="36px" fill="#1e1e1e" text-anchor="middle" style="white-space: pre;" direction="ltr" dominant-baseline="text-before-edge">send</text></g><g mask="url(#mask-E7pD1NonF9Y4E5eXLP_Ms)" stroke-linecap="round"><g transform="translate(412.4272137837868 511.799571954567) rotate(0 166.17376539509695 29.747879330760043)"><path d="M-2.76 0.18 C53.11 9.68, 278.43 49.44, 335.11 59.31" stroke="#1e1e1e" stroke-width="4.5" fill="none" stroke-dasharray="8 12"></path></g><g transform="translate(412.4272137837868 511.799571954567) rotate(0 166.17376539509695 29.747879330760043)"><path d="M305.84 61.03 C315.79 63.25, 324.69 60.02, 331.26 58.58" stroke="#1e1e1e" stroke-width="4.5" fill="none"></path></g><g transform="translate(412.4272137837868 511.799571954567) rotate(0 166.17376539509695 29.747879330760043)"><path d="M309.38 40.82 C318.63 48.94, 326.48 51.67, 331.26 58.58" stroke="#1e1e1e" stroke-width="4.5" fill="none"></path></g></g><mask id="mask-E7pD1NonF9Y4E5eXLP_Ms"><rect x="0" y="0" fill="#fff" width="850" height="670"></rect><rect x="539.0261068918935" y="519.2997859772822" fill="#000" width="84.375" height="43.199999999999996" opacity="1"></rect></mask><g transform="translate(539.0261068918934 519.2997859772822) rotate(0 39.57487228699023 22.247665308044816)"><text x="42.1875" y="0" font-family="Cascadia, Segoe UI Emoji" font-size="36px" fill="#1e1e1e" text-anchor="middle" style="white-space: pre;" direction="ltr" dominant-baseline="text-before-edge">send</text></g><g mask="url(#mask-PbTtXI2mH8t6u6dKm0CqU)" stroke-linecap="round"><g transform="translate(403.6773480570953 478.7653284342141) rotate(0 172.28921933178407 -12.092045949042586)"><path d="M1.97 2.34 C58.97 -2.21, 285.47 -22.45, 342.61 -26.52" stroke="#1e1e1e" stroke-width="4.5" fill="none" stroke-dasharray="8 12"></path></g><g transform="translate(403.6773480570953 478.7653284342141) rotate(0 172.28921933178407 -12.092045949042586)"><path d="M318.68 -17.89 C320.85 -19.17, 336.01 -26.21, 339.86 -28.19" stroke="#1e1e1e" stroke-width="4.5" fill="none"></path></g><g transform="translate(403.6773480570953 478.7653284342141) rotate(0 172.28921933178407 -12.092045949042586)"><path d="M317.01 -38.34 C319.84 -33.04, 335.54 -33.48, 339.86 -28.19" stroke="#1e1e1e" stroke-width="4.5" fill="none"></path></g></g><mask id="mask-PbTtXI2mH8t6u6dKm0CqU"><rect x="0" y="0" fill="#fff" width="849" height="603.0302134708927"></rect><rect x="534.1511740285478" y="445.03288591587443" fill="#000" width="84.375" height="43.199999999999996" opacity="1"></rect></mask><g transform="translate(534.1511740285479 445.03288591587443) rotate(0 41.8153933603316 21.64039656929708)"><text x="42.1875" y="0" font-family="Cascadia, Segoe UI Emoji" font-size="36px" fill="#1e1e1e" text-anchor="middle" style="white-space: pre;" direction="ltr" dominant-baseline="text-before-edge">send</text></g><g mask="url(#mask-WiuckmTBCs2SQ0Wi4sBmI)" stroke-linecap="round"><g transform="translate(807.4386701900512 270.7130707602955) rotate(0 -216.93315666299316 89.86255725901538)"><path d="M1.01 -0.71 C-71.41 29.28, -361.45 150.39, -434.88 180.44" stroke="#1e1e1e" stroke-width="4.5" fill="none" stroke-dasharray="8 12"></path></g><g transform="translate(807.4386701900512 270.7130707602955) rotate(0 -216.93315666299316 89.86255725901538)"><path d="M-413.77 163.83 C-417.37 163.11, -424.96 172.68, -434.13 179.62" stroke="#1e1e1e" stroke-width="4.5" fill="none"></path></g><g transform="translate(807.4386701900512 270.7130707602955) rotate(0 -216.93315666299316 89.86255725901538)"><path d="M-405.92 182.8 C-411.84 176.7, -421.68 180.84, -434.13 179.62" stroke="#1e1e1e" stroke-width="4.5" fill="none"></path></g></g><mask id="mask-WiuckmTBCs2SQ0Wi4sBmI"><rect x="0" y="0" fill="#fff" width="1344.8773403801024" height="550"></rect><rect x="518.7193350950256" y="343.5565353801485" fill="#000" width="140" height="33.6" opacity="1"></rect></mask><g transform="translate(518.7193350950256 343.5565353801485) rotate(0 71.78617843203244 17.01909263916241)"><text x="70" y="0" font-family="Cascadia, Segoe UI Emoji" font-size="28px" fill="#1e1e1e" text-anchor="middle" style="white-space: pre;" direction="ltr" dominant-baseline="text-before-edge">获取元数据</text></g><g transform="translate(910 70) rotate(0 73.828125 21.600000000000364)"><text x="0" y="0" font-family="Cascadia, Segoe UI Emoji" font-size="36px" fill="#1e1e1e" text-anchor="start" style="white-space: pre;" direction="ltr" dominant-baseline="text-before-edge">Cluster</text></g></svg>