<svg version="1.1" xmlns="http://www.w3.org/2000/svg" viewBox="0 0 2140 1280" width="2140" height="1280">
  <!-- svg-source:excalidraw -->
  
  <defs>
    <style class="style-fonts">
      @font-face {
        font-family: "Virgil";
        src: url("https://excalidraw.com/Virgil.woff2");
      }
      @font-face {
        font-family: "Cascadia";
        src: url("https://excalidraw.com/Cascadia.woff2");
      }
    </style>
    
  </defs>
  <rect x="0" y="0" width="2140" height="1280" fill="#ffffff"></rect><g stroke-linecap="round" transform="translate(10 10) rotate(0 1060 630)"><path d="M33.04 2.55 L2085.23 0.99 L2110.24 5.67 L2115.43 11.18 L2123.95 29.94 L2117.49 1229.45 L2117.05 1246.55 L2109.64 1252.67 L2085.08 1260.07 L34.7 1259.11 L9.17 1257.46 L-1.36 1239.9 L3.1 1231.03 L-1.96 33.55 L1.76 16.98 L5.6 11.44 L16.68 0.88 L34.66 -1.66" stroke="none" stroke-width="0" fill="#fff"></path><path d="M32 0 M32 0 C674.02 12.56, 1318.03 10.66, 2088 0 M32 0 C703.36 -7.38, 1376.34 -6.92, 2088 0 M2088 0 C2107.82 3.31, 2123.62 10.15, 2120 32 M2088 0 C2112.72 -3.72, 2119.46 13.69, 2120 32 M2120 32 C2111.87 333.13, 2111.73 631.53, 2120 1228 M2120 32 C2119.59 475.88, 2118.77 920.3, 2120 1228 M2120 1228 C2119.56 1247.72, 2109.55 1260.9, 2088 1260 M2120 1228 C2123.99 1251.4, 2110.01 1257.99, 2088 1260 M2088 1260 C1336.09 1255.66, 584.92 1258.2, 32 1260 M2088 1260 C1588.38 1250.72, 1088.95 1250.33, 32 1260 M32 1260 C9.04 1258.61, 0.25 1252.82, 0 1228 M32 1260 C9.37 1263.36, -1.8 1252.82, 0 1228 M0 1228 C-3.28 833.85, -4.48 441.11, 0 32 M0 1228 C4.04 975.55, 4.36 721.67, 0 32 M0 32 C-3.56 14.52, 12.17 -2.26, 32 0 M0 32 C-0.66 11.83, 10.77 -0.02, 32 0" stroke="#1e1e1e" stroke-width="4" fill="none"></path></g><g stroke-linecap="round" transform="translate(1370 110) rotate(0 320 170)"><path d="M31.87 -2.12 L611.3 3.44 L628.26 2.8 L632.23 11.74 L639.55 35.52 L642.62 311.74 L633.2 330 L623.6 338.71 L610.02 340.82 L33.69 336.55 L13.21 332.19 L-0.74 325.28 L3.35 304.94 L2.08 31.54 L2.89 19.03 L4.79 6.11 L15.64 3.05 L35.38 0.39" stroke="none" stroke-width="0" fill="#fff"></path><path d="M32 0 M32 0 C250.83 3.54, 472.68 4.43, 608 0 M32 0 C157.95 -3.18, 284.88 -3.34, 608 0 M608 0 C626.33 -3.68, 641.14 13.42, 640 32 M608 0 C630.85 -0.08, 641.08 9.63, 640 32 M640 32 C641.93 131.93, 641.23 234.66, 640 308 M640 32 C644.48 106.25, 642.64 183.95, 640 308 M640 308 C643.98 331.93, 625.99 340.91, 608 340 M640 308 C638.41 327.15, 633.88 343.26, 608 340 M608 340 C441.99 343.33, 273.75 342.98, 32 340 M608 340 C379.44 336.15, 151.82 336.07, 32 340 M32 340 C10.13 337, -0.65 331.82, 0 308 M32 340 C10.28 338.22, -4.1 329.03, 0 308 M0 308 C-0.98 247.81, 3.58 191.69, 0 32 M0 308 C2.23 231.83, 0.5 154.44, 0 32 M0 32 C-2.45 13.27, 9.61 2.02, 32 0 M0 32 C-2.8 9.82, 13.69 0.09, 32 0" stroke="#1e1e1e" stroke-width="2" fill="none"></path></g><g stroke-linecap="round" transform="translate(150 290) rotate(0 280 360)"><path d="M35.3 3.44 L528.76 -1.7 L538.73 1.24 L555.05 16.02 L562.62 35.74 L557.7 690.5 L554.1 705.21 L549.52 716.32 L529.69 716.55 L32.71 716.69 L15.26 721.28 L7.85 704.44 L2.08 687.54 L0.89 33.03 L-1.21 16.11 L5.64 9.05 L21.38 2.39 L35.3 -2.29" stroke="none" stroke-width="0" fill="#fff"></path><path d="M32 0 M32 0 C146.85 0.33, 260.1 0.28, 528 0 M32 0 C217.34 -0.78, 400.71 -1.52, 528 0 M528 0 C550.47 2.75, 561.32 10.6, 560 32 M528 0 C550.42 -1.04, 562.84 11.53, 560 32 M560 32 C562.13 176.55, 561.48 319.34, 560 688 M560 32 C563.37 192.17, 564.54 351.54, 560 688 M560 688 C556.65 710.24, 547.95 718.11, 528 720 M560 688 C564.55 712.6, 548.85 719.2, 528 720 M528 720 C347.39 721.18, 169.66 722.18, 32 720 M528 720 C426.52 723.07, 324.39 722.01, 32 720 M32 720 C10.01 722.48, -0.34 707.78, 0 688 M32 720 C6.57 719.7, -4.27 708.14, 0 688 M0 688 C4.82 528.48, 3.2 370.67, 0 32 M0 688 C-5.02 550.09, -5.36 412.49, 0 32 M0 32 C-1.06 12.69, 8.23 -0.74, 32 0 M0 32 C3.03 10.76, 14.93 -1.98, 32 0" stroke="#1e1e1e" stroke-width="2" fill="none"></path></g><g stroke-linecap="round" transform="translate(230 430) rotate(0 200 70)"><path d="M32.76 -1.7 L364.73 -0.76 L381.55 5.52 L394.62 11.74 L397.2 27 L396.1 111.21 L400.02 122.82 L389.19 132.05 L368.71 136.69 L29.26 143.28 L21.35 134.94 L6.58 127.04 L1.39 116.53 L-2.71 22.61 L5.64 9.05 L21.38 2.39 L35.3 -2.29" stroke="none" stroke-width="0" fill="#e7f5ff"></path><path d="M32 0 M32 0 C109.93 1.06, 185.23 0.97, 368 0 M32 0 C158.22 -0.88, 281.17 -2.11, 368 0 M368 0 C390.47 2.75, 401.32 10.6, 400 32 M368 0 C390.42 -1.04, 402.84 11.53, 400 32 M400 32 C401.11 52.36, 399.47 68.31, 400 108 M400 32 C400.14 52.13, 403.08 70.26, 400 108 M400 108 C396.65 130.24, 387.95 138.11, 368 140 M400 108 C404.55 132.6, 388.85 139.2, 368 140 M368 140 C245.01 141.37, 126.78 143.03, 32 140 M368 140 C299.52 143.68, 229.97 141.93, 32 140 M32 140 C10.01 142.48, -0.34 127.78, 0 108 M32 140 C6.57 139.7, -4.27 128.14, 0 108 M0 108 C4.22 87.12, 0.17 70.52, 0 32 M0 108 C-1.79 92.27, -2.64 77.32, 0 32 M0 32 C-1.06 12.69, 8.23 -0.74, 32 0 M0 32 C3.03 10.76, 14.93 -1.98, 32 0" stroke="#228be6" stroke-width="2" fill="none"></path></g><g transform="translate(324.53125 478.39999999999964) rotate(0 105.46875 21.600000000000364)"><text x="105.46875" y="0" font-family="Cascadia, Segoe UI Emoji" font-size="36px" fill="#1e1e1e" text-anchor="middle" style="white-space: pre;" direction="ltr" dominant-baseline="text-before-edge">Consumer 1</text></g><g stroke-linecap="round" transform="translate(230 630) rotate(0 200 70)"><path d="M31.55 3.52 L370.62 3.74 L379.7 4.5 L388.1 11.21 L401.52 25.32 L401.69 104.55 L398.71 118.69 L384.76 138.78 L371.35 136.94 L34.08 139.54 L18.89 139.03 L1.29 125.61 L-1.86 116.55 L3.88 24.89 L11.3 5.71 L15.25 -1.61 L32.94 0.34" stroke="none" stroke-width="0" fill="#e7f5ff"></path><path d="M32 0 M32 0 C161.28 -3.93, 287.18 -1.16, 368 0 M32 0 C132.85 5.09, 233.38 4.14, 368 0 M368 0 C390.28 -0.9, 402.47 11.42, 400 32 M368 0 C385.56 1.68, 400.1 11.3, 400 32 M400 32 C397.32 64.86, 396.78 90.12, 400 108 M400 32 C399.84 61.52, 400.82 89.18, 400 108 M400 108 C403.95 132.17, 388.92 139.3, 368 140 M400 108 C402.89 131.61, 390.58 138.15, 368 140 M368 140 C262.83 141.9, 164.53 143.93, 32 140 M368 140 C248.43 137.44, 129.18 136.09, 32 140 M32 140 C7.1 139.74, -3.71 128.3, 0 108 M32 140 C7.98 136.9, -4.48 133.01, 0 108 M0 108 C-3.26 93.69, 2.16 71.2, 0 32 M0 108 C0.4 85.23, -0.29 60.07, 0 32 M0 32 C2.63 10.75, 14.37 -1.72, 32 0 M0 32 C-0.08 8.89, 7.56 -1.45, 32 0" stroke="#228be6" stroke-width="2" fill="none"></path></g><g transform="translate(324.53125 678.3999999999996) rotate(0 105.46875 21.600000000000364)"><text x="105.46875" y="0" font-family="Cascadia, Segoe UI Emoji" font-size="36px" fill="#1e1e1e" text-anchor="middle" style="white-space: pre;" direction="ltr" dominant-baseline="text-before-edge">Consumer 2</text></g><g stroke-linecap="round" transform="translate(230 830) rotate(0 200 70)"><path d="M29.7 2.5 L364.1 3.21 L384.02 2.82 L393.69 4.55 L400.21 21.19 L397.26 111.28 L401.35 118.94 L389.58 135.04 L368.89 141.03 L28.79 138.11 L15.64 139.05 L7.88 127.89 L3.8 113.21 L-2.25 20.89 L8.94 8.34 L21.16 -1.24 L35.02 2.89" stroke="none" stroke-width="0" fill="#e7f5ff"></path><path d="M32 0 M32 0 C126.36 -5.81, 218.31 -3.03, 368 0 M32 0 C156.23 -0.23, 280.65 0.33, 368 0 M368 0 C386.06 1.46, 400.08 11.22, 400 32 M368 0 C393.7 -1.24, 403.64 8.05, 400 32 M400 32 C402.23 64.21, 401.53 85.1, 400 108 M400 32 C401.45 57.95, 399.27 80.71, 400 108 M400 108 C402.51 131.31, 390.41 138.39, 368 140 M400 108 C400.25 133.76, 392.42 135.64, 368 140 M368 140 C282.78 141.14, 192.56 141.06, 32 140 M368 140 C245.15 138.16, 123.45 137.9, 32 140 M32 140 C8.33 137.3, -3.89 132.53, 0 108 M32 140 C7.77 139.01, -0.86 125.21, 0 108 M0 108 C-0.18 75.7, 1.9 47.24, 0 32 M0 108 C2.24 81.4, 2.78 53.85, 0 32 M0 32 C-0.07 9.12, 7.97 -1.26, 32 0 M0 32 C-2.46 7.86, 7.26 0.41, 32 0" stroke="#228be6" stroke-width="2" fill="none"></path></g><g transform="translate(324.53125 878.3999999999996) rotate(0 105.46875 21.600000000000364)"><text x="105.46875" y="0" font-family="Cascadia, Segoe UI Emoji" font-size="36px" fill="#1e1e1e" text-anchor="middle" style="white-space: pre;" direction="ltr" dominant-baseline="text-before-edge">Consumer 3</text></g><g transform="translate(350 330) rotate(0 73.828125 21.600000000000364)"><text x="0" y="0" font-family="Cascadia, Segoe UI Emoji" font-size="36px" fill="#1e1e1e" text-anchor="start" style="white-space: pre;" direction="ltr" dominant-baseline="text-before-edge">Group 1</text></g><g stroke-linecap="round" transform="translate(1450 170) rotate(0 250 50)"><path d="M22.26 3.28 L484.21 -2.67 L495.83 5.79 L499.32 15.09 L496.39 78.97 L491.39 94.8 L489.32 98.83 L478.3 97.71 L16.39 96 L10.71 96.82 L4.72 82.69 L3.02 27.89 L0.8 14.83 L9.6 6.21 L11.06 -2.12 L26.14 2.75" stroke="none" stroke-width="0" fill="#ffec99"></path><path d="M25 0 M25 0 C174.44 0.17, 325.11 -2.61, 475 0 M25 0 C177.33 -0.86, 328.58 -1.15, 475 0 M475 0 C494.52 -2.81, 498.1 11.63, 500 25 M475 0 C496.24 2.98, 496.15 9.38, 500 25 M500 25 C502.36 37.85, 498.83 54.05, 500 75 M500 25 C500.38 44.4, 501.61 58.05, 500 75 M500 75 C498.32 94.27, 492.99 102.21, 475 100 M500 75 C499.39 88.22, 490.92 102.85, 475 100 M475 100 C343.69 94.33, 212.13 95, 25 100 M475 100 C369.74 103.27, 265.52 102.61, 25 100 M25 100 C12.04 101.84, -0.76 92.18, 0 75 M25 100 C5.51 102.99, -1.22 93.99, 0 75 M0 75 C0.26 66.75, -1.53 51.03, 0 25 M0 75 C-0.39 60.71, -0.81 49.03, 0 25 M0 25 C-3.19 10.73, 11.33 3.46, 25 0 M0 25 C-1.7 6.75, 4.45 1.15, 25 0" stroke="#f08c00" stroke-width="2" fill="none"></path></g><g transform="translate(1478.515625 198.39999999999964) rotate(0 221.484375 21.600000000000364)"><text x="221.484375" y="0" font-family="Cascadia, Segoe UI Emoji" font-size="36px" fill="#1e1e1e" text-anchor="middle" style="white-space: pre;" direction="ltr" dominant-baseline="text-before-edge">Topic 1 - Partition 0</text></g><g stroke-linecap="round" transform="translate(1450 290) rotate(0 250 50)"><path d="M27.08 -0.46 L481.75 1.42 L490.54 4.36 L496.07 15.11 L502.99 81.25 L497.05 91.46 L483.19 94.82 L475.94 100.34 L22.3 96.37 L12.79 99.38 L0.8 86.71 L3.35 24.96 L-1.44 10.38 L7.39 9 L15.38 1.5 L25.94 -0.9" stroke="none" stroke-width="0" fill="#ffec99"></path><path d="M25 0 M25 0 C188.53 3.61, 350.91 5.4, 475 0 M25 0 C148.52 1.79, 270.21 3.27, 475 0 M475 0 C495.65 2.6, 496.65 9.24, 500 25 M475 0 C490.07 -2.18, 504.55 11.6, 500 25 M500 25 C501.8 40.56, 498.21 54.17, 500 75 M500 25 C499.83 46.11, 501.33 65.73, 500 75 M500 75 C499.47 88.67, 491.01 102.48, 475 100 M500 75 C499.61 89.88, 487.57 99.7, 475 100 M475 100 C380.46 95.58, 290.08 96.25, 25 100 M475 100 C350.55 96.55, 224.12 96.23, 25 100 M25 100 C5.88 102.6, -1.06 93.69, 0 75 M25 100 C5.53 99.15, 3.03 91.76, 0 75 M0 75 C-1.11 52.67, -0.83 33.6, 0 25 M0 75 C-0.86 64.25, 2.24 52.84, 0 25 M0 25 C-1.48 6.95, 4.95 1, 25 0 M0 25 C-2.14 8.91, 4.58 2.96, 25 0" stroke="#f08c00" stroke-width="2" fill="none"></path></g><g transform="translate(1478.515625 318.39999999999964) rotate(0 221.484375 21.600000000000364)"><text x="221.484375" y="0" font-family="Cascadia, Segoe UI Emoji" font-size="36px" fill="#1e1e1e" text-anchor="middle" style="white-space: pre;" direction="ltr" dominant-baseline="text-before-edge">Topic 1 - Partition 1</text></g><g stroke-linecap="round" transform="translate(1370 490) rotate(0 330 110)"><path d="M28.79 -1.89 L625.64 1.05 L645.38 2.39 L655.3 5.71 L656.75 20.89 L660.94 188.34 L661.16 198.76 L650.52 218.39 L627.24 220.77 L35.35 219.96 L15 214.32 L5.64 210.25 L1.82 195.43 L0.94 31.1 L4.47 18.75 L4.72 9.46 L18.08 2.55 L35.79 -1.08" stroke="none" stroke-width="0" fill="#fff"></path><path d="M32 0 M32 0 C256.85 -4.16, 485.26 -1.81, 628 0 M32 0 C249.2 -1.46, 467.74 -0.52, 628 0 M628 0 C648.92 -0.7, 662.51 12.64, 660 32 M628 0 C650.58 -1.85, 660.25 15.09, 660 32 M660 32 C659.64 90.58, 659.25 145.97, 660 188 M660 32 C659.32 66.33, 657.71 102.07, 660 188 M660 188 C656.29 208.3, 647 217.3, 628 220 M660 188 C655.52 213.01, 646.44 219.01, 628 220 M628 220 C461.06 224.12, 292.86 223.44, 32 220 M628 220 C409.98 222.26, 193.46 222.43, 32 220 M32 220 C14.37 218.28, -0.07 207.79, 0 188 M32 220 C7.56 218.55, -2.46 206.52, 0 188 M0 188 C2.12 155.75, 3.18 116.02, 0 32 M0 188 C1.7 146.84, 1 106.45, 0 32 M0 32 C0.17 13.61, 14.2 2.38, 32 0 M0 32 C2.88 7.74, 9.05 3.75, 32 0" stroke="#1e1e1e" stroke-width="2" fill="none"></path></g><g stroke-linecap="round" transform="translate(1450 550) rotate(0 250 60)"><path d="M33.3 -2.29 L474.28 -3.14 L493.44 7.84 L501.28 13.63 L503.02 32.89 L498.77 97.8 L495.85 112.46 L480.12 114.45 L471.14 122.75 L24.29 119.47 L12.66 114.88 L4.35 103.88 L-3.28 91.46 L0.08 30.55 L5.67 15.79 L10.67 5.23 L19.73 -0.94 L28.1 3.3" stroke="none" stroke-width="0" fill="#ffec99"></path><path d="M30 0 M30 0 C206.24 2.99, 380.63 5.66, 470 0 M30 0 C193.85 1.26, 356.71 0.37, 470 0 M470 0 C490.22 3.85, 502.68 6.21, 500 30 M470 0 C488.07 2.99, 501.53 12.54, 500 30 M500 30 C501.58 46.86, 497.55 60.84, 500 90 M500 30 C497.72 46.25, 496.94 66.8, 500 90 M500 90 C497.48 109.14, 489.25 116.42, 470 120 M500 90 C504.27 112.11, 489.12 120.59, 470 120 M470 120 C366 117.62, 259.6 120.15, 30 120 M470 120 C337.11 117.72, 203.58 117.79, 30 120 M30 120 C7.87 117.56, -2.96 110.36, 0 90 M30 120 C6.33 122.75, 3.45 113.97, 0 90 M0 90 C1.41 72.36, 0.92 55.18, 0 30 M0 90 C1.72 69.33, 1.2 45.01, 0 30 M0 30 C-1.41 13.26, 6.4 -3.81, 30 0 M0 30 C0.98 10.78, 8.26 -0.09, 30 0" stroke="#f08c00" stroke-width="2" fill="none"></path></g><g transform="translate(1478.515625 588.3999999999996) rotate(0 221.484375 21.600000000000364)"><text x="221.484375" y="0" font-family="Cascadia, Segoe UI Emoji" font-size="36px" fill="#1e1e1e" text-anchor="middle" style="white-space: pre;" direction="ltr" dominant-baseline="text-before-edge">Topic 2 - Partition 0</text></g><g stroke-linecap="round" transform="translate(1370 750) rotate(0 330 220)"><path d="M32.94 0.34 L631.16 -3.24 L650.52 7.39 L654.74 13.27 L663.35 31.96 L657 404.32 L656.64 430.25 L648.82 435.43 L628.94 439.1 L34.47 440.75 L9.22 436.96 L2.08 422.55 L3.79 406.92 L3.17 29.73 L4.86 15.19 L6.1 11.3 L21.98 4.6 L28.65 0.91" stroke="none" stroke-width="0" fill="#fff"></path><path d="M32 0 M32 0 C191.31 -4.88, 348.08 -3.71, 628 0 M32 0 C240.3 2.69, 449.05 1.16, 628 0 M628 0 C647.66 2.6, 661.33 12.88, 660 32 M628 0 C648.72 -3.45, 659.25 13.52, 660 32 M660 32 C658.07 139.36, 657.6 249.81, 660 408 M660 32 C654.8 119.18, 655.33 205.8, 660 408 M660 408 C663.71 431.17, 648.57 440.52, 628 440 M660 408 C657.18 432.32, 648.12 442.33, 628 440 M628 440 C485.55 444.62, 342.34 443.11, 32 440 M628 440 C471.75 438.01, 315.75 438.57, 32 440 M32 440 C7.47 442.39, 3 432.79, 0 408 M32 440 C8.96 438.41, -3.89 430.48, 0 408 M0 408 C0.99 312.81, 1.21 219.56, 0 32 M0 408 C-3.28 273.8, -3.95 136.46, 0 32 M0 32 C0.86 11.34, 9.15 -0.07, 32 0 M0 32 C3.04 9.17, 13.86 -2.24, 32 0" stroke="#1e1e1e" stroke-width="2" fill="none"></path></g><g stroke-linecap="round" transform="translate(1470 810) rotate(0 250 50)"><path d="M24.24 0.77 L484.21 0.35 L490.75 2.57 L499.57 16.81 L500.93 80.79 L494.69 92.85 L488.41 99.19 L471.72 101.46 L19.23 100.16 L13.56 95.4 L4.73 83.66 L2.86 22.19 L-0.34 17.36 L10.23 8.85 L10.72 2.47 L23.62 -1.89" stroke="none" stroke-width="0" fill="#ffec99"></path><path d="M25 0 M25 0 C204.13 1.67, 384.9 0.98, 475 0 M25 0 C142.53 -5.1, 258.35 -3.56, 475 0 M475 0 C492.99 2.21, 499.47 5.33, 500 25 M475 0 C490.92 2.85, 499.61 6.55, 500 25 M500 25 C498.9 33.21, 497.24 42.2, 500 75 M500 25 C499 42.2, 501.23 63.91, 500 75 M500 75 C499.24 92.18, 489.21 102.6, 475 100 M500 75 C498.78 93.99, 488.86 99.15, 475 100 M475 100 C309.58 104, 145.07 102.72, 25 100 M475 100 C353.42 97.43, 232.51 97.92, 25 100 M25 100 C11.33 103.46, -1.48 90.29, 0 75 M25 100 C4.45 101.15, -2.14 92.25, 0 75 M0 75 C2.3 67.62, 1.74 55.67, 0 25 M0 75 C-1.45 61.28, 0.78 51.7, 0 25 M0 25 C-1.51 8.26, 10.98 -1.3, 25 0 M0 25 C3.2 6.09, 10.24 2.36, 25 0" stroke="#f08c00" stroke-width="2" fill="none"></path></g><g transform="translate(1498.515625 838.3999999999996) rotate(0 221.484375 21.600000000000364)"><text x="221.484375" y="0" font-family="Cascadia, Segoe UI Emoji" font-size="36px" fill="#1e1e1e" text-anchor="middle" style="white-space: pre;" direction="ltr" dominant-baseline="text-before-edge">Topic 3 - Partition 0</text></g><g stroke-linecap="round" transform="translate(1470 930) rotate(0 250 50)"><path d="M22 -3.68 L482 3.14 L495.07 6.18 L499.38 13.16 L502.08 81.61 L490.47 95.21 L486.02 98.99 L478.79 98.92 L22.31 97.34 L12.62 93.67 L-0.34 89.23 L3.98 27.6 L-1.78 14.97 L4.87 4.36 L18.02 4.4 L24.58 -0.7" stroke="none" stroke-width="0" fill="#ffec99"></path><path d="M25 0 M25 0 C187.49 -1.07, 353.39 0.12, 475 0 M25 0 C117.63 -2.29, 209.5 -3.55, 475 0 M475 0 C491.01 2.48, 499.66 6.78, 500 25 M475 0 C487.57 -0.3, 495.73 7.14, 500 25 M500 25 C502.52 34.56, 498.47 48.42, 500 75 M500 25 C500.55 35.78, 499.7 47.34, 500 75 M500 75 C498.94 93.69, 489.23 99.26, 475 100 M500 75 C503.03 91.76, 495.93 98.02, 475 100 M475 100 C340.13 96.03, 205.29 95.63, 25 100 M475 100 C336.71 103.44, 196.61 102.27, 25 100 M25 100 C4.95 101, -1.86 92.17, 0 75 M25 100 C4.58 102.96, 0.2 95.05, 0 75 M0 75 C-3.14 54.17, 2.67 32.56, 0 25 M0 75 C-0.97 64.72, 1.11 53.87, 0 25 M0 25 C2.78 6.38, 9.99 2.05, 25 0 M0 25 C-3.84 9, 9.45 0.07, 25 0" stroke="#f08c00" stroke-width="2" fill="none"></path></g><g transform="translate(1498.515625 958.3999999999996) rotate(0 221.484375 21.600000000000364)"><text x="221.484375" y="0" font-family="Cascadia, Segoe UI Emoji" font-size="36px" fill="#1e1e1e" text-anchor="middle" style="white-space: pre;" direction="ltr" dominant-baseline="text-before-edge">Topic 3 - Partition 1</text></g><g stroke-linecap="round" transform="translate(1470 1050) rotate(0 250 50)"><path d="M26.32 -0.07 L481.8 -0.51 L496.22 7 L495.16 15.52 L499.69 81.41 L497.54 92.67 L489.1 96.16 L477.86 97.19 L17.24 102.91 L13.75 99.08 L-1.78 86.85 L-1.38 23.11 L5.52 16.9 L5.83 5.55 L16.57 3.54 L26.08 -1.61" stroke="none" stroke-width="0" fill="#ffec99"></path><path d="M25 0 M25 0 C160.59 -3.72, 301.11 -2.27, 475 0 M25 0 C184.69 3.86, 344.61 2.89, 475 0 M475 0 C488.1 -0.26, 496.29 7.3, 500 25 M475 0 C488.98 -3.1, 495.52 12.01, 500 25 M500 25 C496.2 40.56, 501.62 47.94, 500 75 M500 25 C498.86 41.66, 498.17 55.92, 500 75 M500 75 C502.63 91.75, 495.37 98.28, 475 100 M500 75 C499.92 89.89, 488.56 98.55, 475 100 M475 100 C364.19 95.24, 254.19 98.23, 25 100 M475 100 C300.3 98.74, 126.78 98.62, 25 100 M25 100 C5.07 102.57, 0.17 94.61, 0 75 M25 100 C12.4 102.74, 2.88 88.74, 0 75 M0 75 C-4.62 62.61, -0.14 47.01, 0 25 M0 75 C0.73 59.12, 0.17 46.21, 0 25 M0 25 C-3.34 8.92, 9.31 0.06, 25 0 M0 25 C1.02 6.24, 9.52 -1.52, 25 0" stroke="#f08c00" stroke-width="2" fill="none"></path></g><g transform="translate(1498.515625 1078.4000000000015) rotate(0 221.484375 21.600000000000364)"><text x="221.484375" y="0" font-family="Cascadia, Segoe UI Emoji" font-size="36px" fill="#1e1e1e" text-anchor="middle" style="white-space: pre;" direction="ltr" dominant-baseline="text-before-edge">Topic 3 - Partition 2</text></g><g stroke-linecap="round"><g transform="translate(1370 190) rotate(0 -329.2438937686384 140.00389405712485)"><path d="M0.9 -0.84 C-109.18 45.54, -549.26 233.98, -659.39 280.85" stroke="#1e1e1e" stroke-width="4.5" fill="none" stroke-dasharray="8 12"></path></g><g transform="translate(1370 190) rotate(0 -329.2438937686384 140.00389405712485)"><path d="M-638.68 261.22 C-643.31 267.59, -651.44 272.75, -656.13 280.21" stroke="#1e1e1e" stroke-width="4.5" fill="none"></path></g><g transform="translate(1370 190) rotate(0 -329.2438937686384 140.00389405712485)"><path d="M-630.63 280.09 C-638.32 280.14, -649.17 278.92, -656.13 280.21" stroke="#1e1e1e" stroke-width="4.5" fill="none"></path></g></g><mask></mask><g stroke-linecap="round"><g transform="translate(1370 330) rotate(0 -330.35233438983505 69.66666824594176)"><path d="M0.94 1.62 C-109.46 24.66, -551.28 115.09, -661.64 137.71" stroke="#1e1e1e" stroke-width="4.5" fill="none" stroke-dasharray="8 12"></path></g><g transform="translate(1370 330) rotate(0 -330.35233438983505 69.66666824594176)"><path d="M-633.77 119.65 C-647.77 125.5, -656.68 134.6, -664.74 136.26" stroke="#1e1e1e" stroke-width="4.5" fill="none"></path></g><g transform="translate(1370 330) rotate(0 -330.35233438983505 69.66666824594176)"><path d="M-629.65 139.76 C-644.93 139.05, -655.19 141.58, -664.74 136.26" stroke="#1e1e1e" stroke-width="4.5" fill="none"></path></g></g><mask></mask><g stroke-linecap="round"><g transform="translate(1370 590) rotate(0 -331.0133867360655 38.808863399178335)"><path d="M-2.63 -1.55 C-112.18 11.57, -549.95 65.43, -659.4 79.17" stroke="#1e1e1e" stroke-width="4.5" fill="none" stroke-dasharray="8 12"></path></g><g transform="translate(1370 590) rotate(0 -331.0133867360655 38.808863399178335)"><path d="M-634.9 66.38 C-639.87 69.09, -643.45 67.21, -656.27 80.55" stroke="#1e1e1e" stroke-width="4.5" fill="none"></path></g><g transform="translate(1370 590) rotate(0 -331.0133867360655 38.808863399178335)"><path d="M-632.38 86.74 C-637.98 84.8, -642.12 78.31, -656.27 80.55" stroke="#1e1e1e" stroke-width="4.5" fill="none"></path></g></g><mask></mask><g stroke-linecap="round"><g transform="translate(1370 850) rotate(0 -328.6029890798027 -40.08587118163723)"><path d="M0 1.74 C-109.78 -12.13, -547.31 -68.2, -657.21 -81.91" stroke="#1e1e1e" stroke-width="4.5" fill="none" stroke-dasharray="8 12"></path></g><g transform="translate(1370 850) rotate(0 -328.6029890798027 -40.08587118163723)"><path d="M-625.47 -84.56 C-640.95 -85.3, -649.3 -81.67, -655.99 -80.82" stroke="#1e1e1e" stroke-width="4.5" fill="none"></path></g><g transform="translate(1370 850) rotate(0 -328.6029890798027 -40.08587118163723)"><path d="M-628.05 -64.2 C-642.8 -72.13, -650.24 -75.69, -655.99 -80.82" stroke="#1e1e1e" stroke-width="4.5" fill="none"></path></g></g><mask></mask><g stroke-linecap="round"><g transform="translate(1370 990) rotate(0 -327.8423892594874 -91.57194471582807)"><path d="M2.73 -2.45 C-107.31 -32.56, -547.92 -151.16, -658.42 -180.7" stroke="#1e1e1e" stroke-width="4.5" fill="none" stroke-dasharray="8 12"></path></g><g transform="translate(1370 990) rotate(0 -327.8423892594874 -91.57194471582807)"><path d="M-632.02 -181.04 C-640.46 -182.15, -649.92 -184.12, -661.66 -180.94" stroke="#1e1e1e" stroke-width="4.5" fill="none"></path></g><g transform="translate(1370 990) rotate(0 -327.8423892594874 -91.57194471582807)"><path d="M-637.35 -161.22 C-643.83 -169.68, -651.35 -178.9, -661.66 -180.94" stroke="#1e1e1e" stroke-width="4.5" fill="none"></path></g></g><mask></mask><g stroke-linecap="round"><g transform="translate(1370 1110) rotate(0 -331.6712237216525 -140.84026792272834)"><path d="M-2.67 -2.55 C-112.7 -49.05, -551.3 -232.89, -660.67 -279.13" stroke="#1e1e1e" stroke-width="4.5" fill="none" stroke-dasharray="8 12"></path></g><g transform="translate(1370 1110) rotate(0 -331.6712237216525 -140.84026792272834)"><path d="M-634.35 -278.61 C-637.9 -277.04, -647.57 -277.38, -656.87 -279.28" stroke="#1e1e1e" stroke-width="4.5" fill="none"></path></g><g transform="translate(1370 1110) rotate(0 -331.6712237216525 -140.84026792272834)"><path d="M-642.31 -259.7 C-643.6 -263.3, -651.03 -268.96, -656.87 -279.28" stroke="#1e1e1e" stroke-width="4.5" fill="none"></path></g></g><mask></mask></svg>