<svg version="1.1" xmlns="http://www.w3.org/2000/svg" viewBox="0 0 1520 640" width="1520" height="640">
  <!-- svg-source:excalidraw -->
  
  <defs>
    <style class="style-fonts">
      @font-face {
        font-family: "Virgil";
        src: url("https://excalidraw.com/Virgil.woff2");
      }
      @font-face {
        font-family: "Cascadia";
        src: url("https://excalidraw.com/Cascadia.woff2");
      }
    </style>
    
  </defs>
  <rect x="0" y="0" width="1520" height="640" fill="#ffffff"></rect><g stroke-linecap="round" transform="translate(10 10) rotate(0 750 310)"><path d="M29.48 3.87 L1466.04 3.53 L1482.6 -1.16 L1494.22 9.93 L1496.26 34.26 L1498.12 584.89 L1498.98 602.71 L1487.58 615.69 L1471.91 622.13 L33.05 618.94 L16.82 615.84 L2.62 609.66 L0.1 588.54 L-3.01 28.24 L4.78 14.31 L4.01 8.93 L16.51 2.59 L34.13 -2.63" stroke="none" stroke-width="0" fill="#fff"></path><path d="M32 0 M32 0 C446.43 2.57, 862.14 4.11, 1468 0 M32 0 C495.17 -10.03, 959.65 -10.29, 1468 0 M1468 0 C1492 3.45, 1500.14 13.19, 1500 32 M1468 0 C1492.27 4.35, 1497.36 14.4, 1500 32 M1500 32 C1499.14 204.44, 1498.5 376.27, 1500 588 M1500 32 C1495.2 206.73, 1496.07 382.07, 1500 588 M1500 588 C1502.21 610.26, 1489.05 616.76, 1468 620 M1500 588 C1496.34 608.85, 1491.62 622.98, 1468 620 M1468 620 C1145.76 618.3, 823.33 618.78, 32 620 M1468 620 C1069.57 610.76, 671.1 610.83, 32 620 M32 620 C9.29 617.04, -2.03 610.18, 0 588 M32 620 C9.26 622.07, -1.2 611.17, 0 588 M0 588 C0.04 366.34, -0.99 143.23, 0 32 M0 588 C0.86 397.42, 1.84 205.52, 0 32 M0 32 C-3.18 10.74, 11.19 1.15, 32 0 M0 32 C-1.09 13.8, 6.62 2.49, 32 0" stroke="#1e1e1e" stroke-width="4" fill="none"></path></g><g stroke-linecap="round" transform="translate(70 90) rotate(0 160 78.5)"><path d="M273.18 20.77 C286.92 25.82, 295.41 37.52, 303.07 45.59 C310.73 53.67, 317.15 60.38, 319.15 69.23 C321.15 78.08, 319.8 90.04, 315.06 98.69 C310.31 107.35, 300.73 113.66, 290.66 121.17 C280.59 128.68, 269.28 138.41, 254.62 143.76 C239.96 149.1, 220.51 151.24, 202.7 153.23 C184.9 155.22, 165.94 156.55, 147.8 155.7 C129.66 154.84, 110.21 151.77, 93.86 148.11 C77.51 144.45, 62.87 139.52, 49.69 133.72 C36.51 127.93, 22.84 121.55, 14.79 113.35 C6.73 105.14, 3.08 93.31, 1.33 84.49 C-0.41 75.68, -0.12 68.99, 4.32 60.45 C8.76 51.91, 17.29 41.21, 27.97 33.25 C38.65 25.28, 53.63 18, 68.41 12.66 C83.19 7.32, 99.09 3.11, 116.64 1.2 C134.2 -0.7, 155.48 0.41, 173.74 1.24 C192 2.07, 207.93 1.53, 226.19 6.17 C244.46 10.81, 273.23 24.51, 283.33 29.05 C293.43 33.59, 289.31 33.09, 286.78 33.41 M213 6.83 C230.14 8.85, 251.52 14.9, 265.65 20.25 C279.79 25.6, 289.3 31.83, 297.82 38.93 C306.35 46.03, 313.49 54.03, 316.81 62.85 C320.12 71.68, 320.37 82.68, 317.69 91.88 C315 101.08, 309.61 110.71, 300.7 118.04 C291.8 125.38, 278.42 130.1, 264.26 135.89 C250.11 141.68, 233.46 149.24, 215.78 152.79 C198.1 156.34, 176.43 157.19, 158.19 157.17 C139.94 157.15, 123.48 155.84, 106.31 152.66 C89.13 149.48, 69.5 143.98, 55.12 138.1 C40.75 132.22, 28.35 125.2, 20.04 117.39 C11.73 109.59, 8.22 99.69, 5.25 91.28 C2.29 82.86, 0.03 75.88, 2.28 66.92 C4.52 57.96, 9.21 46.04, 18.74 37.52 C28.27 29, 44.62 20.79, 59.45 15.82 C74.27 10.84, 90.8 10.69, 107.71 7.68 C124.63 4.66, 143.5 -2.17, 160.96 -2.28 C178.41 -2.38, 203.61 5.51, 212.43 7.06 C221.26 8.61, 214.59 6.41, 213.88 7.03" stroke="none" stroke-width="0" fill="#ffc9c9"></path><path d="M187.19 0.64 C204.72 0.65, 223.49 6.05, 239.03 10.69 C254.57 15.32, 268.42 21.91, 280.41 28.47 C292.4 35.03, 304.49 41.5, 310.98 50.06 C317.48 58.61, 319.5 70.47, 319.36 79.8 C319.21 89.13, 316.23 97.86, 310.09 106.04 C303.95 114.23, 294 121.9, 282.51 128.89 C271.03 135.88, 256.57 143.76, 241.17 147.97 C225.76 152.18, 207.82 152.61, 190.08 154.15 C172.34 155.69, 153.08 158.68, 134.73 157.2 C116.37 155.72, 95.78 150.08, 79.96 145.26 C64.13 140.43, 51.22 134.94, 39.75 128.24 C28.28 121.54, 17.74 113.31, 11.14 105.08 C4.53 96.85, 0.65 87.73, 0.14 78.84 C-0.38 69.96, 1.75 60.2, 8.03 51.77 C14.31 43.34, 26.33 35.24, 37.81 28.25 C49.3 21.25, 61.18 14.16, 76.94 9.81 C92.7 5.46, 107.76 2.45, 132.38 2.14 C157 1.84, 204.03 5.38, 224.66 7.99 C245.3 10.61, 256.87 17.15, 256.2 17.84 M273.19 21.88 C287.86 27.53, 301.31 39.73, 309.48 48.3 C317.65 56.86, 321.11 64.26, 322.23 73.26 C323.35 82.27, 321.34 94.16, 316.19 102.32 C311.04 110.48, 302.74 115.73, 291.36 122.23 C279.98 128.74, 263.65 136.41, 247.92 141.36 C232.19 146.31, 214.79 149.12, 196.96 151.93 C179.14 154.74, 158.78 158.42, 140.96 158.22 C123.14 158.03, 106.49 154.76, 90.07 150.73 C73.64 146.7, 55.36 140.39, 42.4 134.06 C29.45 127.74, 19.59 121.27, 12.33 112.78 C5.07 104.3, -0.47 92.83, -1.15 83.14 C-1.83 73.44, 3.23 63.55, 8.25 54.62 C13.26 45.7, 18.21 36.57, 28.95 29.58 C39.69 22.59, 57.52 17.18, 72.67 12.69 C87.83 8.19, 102.09 4.45, 119.87 2.59 C137.64 0.74, 160.3 0.78, 179.34 1.55 C198.37 2.32, 217.78 3.71, 234.07 7.2 C250.36 10.69, 270.72 19.34, 277.09 22.49 C283.47 25.64, 274.51 25.01, 272.32 26.08" stroke="#fa5252" stroke-width="4" fill="none"></path></g><g transform="translate(134.94104001015148 146.8921176768563) rotate(0 94.921875 21.600000000000364)"><text x="94.921875" y="0" font-family="Cascadia, Segoe UI Emoji" font-size="36px" fill="#1e1e1e" text-anchor="middle" style="white-space: pre;" direction="ltr" dominant-baseline="text-before-edge">Consumer1</text></g><g stroke-linecap="round" transform="translate(70 370) rotate(0 160 78.5)"><path d="M40.38 24.64 C50.26 17.42, 68.32 14.28, 84.18 10.02 C100.04 5.76, 117.23 0.26, 135.52 -0.9 C153.82 -2.07, 175.9 1.07, 193.94 3.02 C211.99 4.97, 228.5 6.51, 243.79 10.8 C259.09 15.09, 274.35 21.89, 285.71 28.75 C297.07 35.61, 305.96 43.42, 311.95 51.96 C317.94 60.49, 322.34 70.55, 321.65 79.96 C320.96 89.38, 314.75 100.28, 307.82 108.46 C300.9 116.65, 292.21 122.3, 280.1 129.08 C268 135.86, 251.36 144.75, 235.2 149.13 C219.03 153.5, 200.79 154.61, 183.11 155.32 C165.42 156.03, 147.02 155.35, 129.09 153.4 C111.17 151.45, 91.1 147.84, 75.55 143.64 C60.01 139.44, 47.08 135.08, 35.84 128.19 C24.6 121.3, 13.85 110.77, 8.1 102.32 C2.36 93.88, 1.1 86.5, 1.37 77.54 C1.63 68.59, -7.05 60.98, 9.71 48.59 C26.47 36.2, 73.56 10.61, 101.92 3.2 C130.29 -4.21, 178.64 2.77, 179.89 4.13 M263.83 18.8 C277.97 22.78, 289.86 30.41, 298.89 38.24 C307.92 46.06, 314.62 56.52, 318.01 65.74 C321.4 74.96, 322.43 85.16, 319.22 93.54 C316.01 101.91, 308.27 108.25, 298.75 115.97 C289.23 123.69, 276.75 133.72, 262.07 139.86 C247.4 145.99, 227.93 149.87, 210.7 152.79 C193.48 155.7, 176.98 157.6, 158.71 157.35 C140.45 157.11, 118.54 154.61, 101.1 151.3 C83.65 148, 67.03 143.42, 54.04 137.52 C41.05 131.62, 31.85 123.3, 23.17 115.89 C14.49 108.48, 5.78 102.04, 1.95 93.06 C-1.87 84.08, -3.62 71.58, 0.22 62.03 C4.05 52.47, 14.76 42.64, 24.96 35.74 C35.16 28.84, 47.51 26.22, 61.42 20.61 C75.33 15, 92 5.15, 108.44 2.11 C124.87 -0.94, 141.91 1.72, 160.03 2.36 C178.15 3.01, 199.89 3.39, 217.15 5.95 C234.42 8.51, 255.7 14.9, 263.6 17.73 C271.5 20.56, 266.37 21.55, 264.55 22.95" stroke="none" stroke-width="0" fill="#ffc9c9"></path><path d="M123.65 2.86 C140.16 -0.45, 163.34 -1.63, 181.54 -0.31 C199.73 1, 216.93 6.26, 232.83 10.75 C248.73 15.24, 264.61 20.31, 276.92 26.63 C289.23 32.96, 299.55 40.36, 306.7 48.7 C313.85 57.04, 318.64 68.07, 319.8 76.67 C320.96 85.28, 318.9 91.9, 313.66 100.35 C308.42 108.8, 299.79 120.27, 288.36 127.38 C276.94 134.49, 260.42 138.61, 245.11 143.02 C229.8 147.43, 213.93 151.78, 196.51 153.85 C179.09 155.92, 158.89 156.44, 140.58 155.45 C122.28 154.46, 103.23 151.94, 86.67 147.9 C70.1 143.85, 53.38 137.76, 41.2 131.18 C29.03 124.6, 20.77 116.78, 13.63 108.43 C6.48 100.09, -0.88 89.85, -1.69 81.1 C-2.49 72.35, 3.15 64.12, 8.79 55.94 C14.44 47.77, 21.66 39.41, 32.19 32.06 C42.71 24.71, 43.88 17.12, 71.93 11.85 C99.98 6.57, 168.53 -0.62, 200.49 0.44 C232.45 1.5, 264.72 16.94, 263.67 18.21 M41.3 26.82 C50.72 19.65, 68.63 16.33, 84.58 11.54 C100.53 6.74, 119.52 0.19, 137 -1.94 C154.47 -4.06, 172.03 -2.9, 189.43 -1.22 C206.83 0.46, 225.81 2.83, 241.4 8.13 C256.99 13.42, 271.11 22.81, 282.96 30.55 C294.81 38.3, 306.59 46.17, 312.5 54.59 C318.42 63, 319.08 71.92, 318.45 81.04 C317.81 90.16, 315.13 101.19, 308.68 109.28 C302.24 117.37, 291.24 123.56, 279.77 129.58 C268.3 135.6, 255.93 141.38, 239.86 145.4 C223.78 149.43, 201.42 152.1, 183.31 153.75 C165.19 155.39, 149.14 156.5, 131.16 155.27 C113.18 154.05, 91.07 150.73, 75.43 146.39 C59.79 142.05, 47.97 136.4, 37.34 129.22 C26.7 122.05, 17.68 112.29, 11.63 103.34 C5.58 94.39, 1.49 84.2, 1.05 75.51 C0.6 66.83, 2.75 59.43, 8.96 51.23 C15.17 43.03, 33.43 30.4, 38.31 26.31 C43.19 22.21, 35.77 25.39, 38.25 26.67" stroke="#fa5252" stroke-width="4" fill="none"></path></g><g transform="translate(145.48791501015148 405.2921176768559) rotate(0 84.375 43.19999999999982)"><text x="84.375" y="0" font-family="Cascadia, Segoe UI Emoji" font-size="36px" fill="#1e1e1e" text-anchor="middle" style="white-space: pre;" direction="ltr" dominant-baseline="text-before-edge">Consumer</text><text x="84.375" y="43.199999999999996" font-family="Cascadia, Segoe UI Emoji" font-size="36px" fill="#1e1e1e" text-anchor="middle" style="white-space: pre;" direction="ltr" dominant-baseline="text-before-edge">Backup</text></g><g stroke-linecap="round" transform="translate(890 230) rotate(0 250 70)"><path d="M35.97 -1.45 L470.67 -1.88 L482.91 1.94 L495.65 9.85 L496.43 26.78 L502.55 105.5 L494.87 124.85 L485.02 137.51 L466.18 140.26 L31.33 137.71 L16.95 140.54 L3.86 123.78 L-1.61 118.56 L2.16 23.31 L10.33 4.58 L16.86 5.74 L28.23 3.25" stroke="none" stroke-width="0" fill="#ffec99"></path><path d="M32 0 M32 0 C119.95 6.09, 212.12 5.93, 468 0 M32 0 C157.3 -3.24, 280.62 -3.12, 468 0 M468 0 C488.82 -3.87, 498.76 12.97, 500 32 M468 0 C491.57 3.03, 497.64 13, 500 32 M500 32 C501.3 54.62, 499.4 69.57, 500 108 M500 32 C498.65 49.43, 501.32 67, 500 108 M500 108 C503.57 127.94, 490.71 137.37, 468 140 M500 108 C497.83 130.15, 488.62 138.53, 468 140 M468 140 C381.11 144.54, 293.28 141.72, 32 140 M468 140 C364.15 139.84, 262.3 139.13, 32 140 M32 140 C7.21 143.16, 2.79 128.92, 0 108 M32 140 C8.62 140.45, -2.45 129.49, 0 108 M0 108 C-3.04 94.2, -0.14 73.27, 0 32 M0 108 C-2.02 89.44, -3.14 67.53, 0 32 M0 32 C-3.34 13.36, 12.67 -0.03, 32 0 M0 32 C-1.99 13.65, 13.72 -3.67, 32 0" stroke="#f08c00" stroke-width="2" fill="none"></path></g><g transform="translate(1045.078125 278.39999999999964) rotate(0 94.921875 21.600000000000364)"><text x="94.921875" y="0" font-family="Cascadia, Segoe UI Emoji" font-size="36px" fill="#1e1e1e" text-anchor="middle" style="white-space: pre;" direction="ltr" dominant-baseline="text-before-edge">Partition</text></g><g mask="url(#mask-6JJkuO6WlPO-ayuIARpn-)" stroke-linecap="round"><g transform="translate(385.51493256990216 147.92549761877308) rotate(0 251.9476723648413 69.89553427465125)"><path d="M2.56 1.3 C86.01 24.39, 417.55 116.19, 501.34 138.49" stroke="#1e1e1e" stroke-width="4.5" fill="none" stroke-dasharray="8 12"></path></g><g transform="translate(385.51493256990216 147.92549761877308) rotate(0 251.9476723648413 69.89553427465125)"><path d="M473.29 137.92 C483.37 142.19, 488.24 135.7, 504.19 136.02" stroke="#1e1e1e" stroke-width="4.5" fill="none"></path></g><g transform="translate(385.51493256990216 147.92549761877308) rotate(0 251.9476723648413 69.89553427465125)"><path d="M478.69 118.12 C487.02 128.88, 490.14 128.78, 504.19 136.02" stroke="#1e1e1e" stroke-width="4.5" fill="none"></path></g></g><mask id="mask-6JJkuO6WlPO-ayuIARpn-"><rect x="0" y="0" fill="#fff" width="989.0000000000018" height="384.82103799909964"></rect><rect x="579.8355912849511" y="199.5732678089371" fill="#000" width="114.84375" height="33.6" opacity="1"></rect></mask><g transform="translate(579.8355912849511 199.5732678089371) rotate(0 57.62701364979239 18.247764084487244)"><text x="57.421875" y="0" font-family="Cascadia, Segoe UI Emoji" font-size="28px" fill="#1e1e1e" text-anchor="middle" style="white-space: pre;" direction="ltr" dominant-baseline="text-before-edge">Record1</text></g><g stroke-linecap="round"><g transform="translate(368.21218018308355 402.5719938120492) rotate(0 257.96730362248763 -27.16080570140184)"><path d="M1.79 -1.75 C87.84 -10.78, 428.68 -44, 514.15 -52.57" stroke="#1e1e1e" stroke-width="4.5" fill="none" stroke-dasharray="8 12"></path></g><g transform="translate(368.21218018308355 402.5719938120492) rotate(0 257.96730362248763 -27.16080570140184)"><path d="M484.6 -42.72 C495.84 -45.31, 501.04 -47.55, 514.41 -53.25" stroke="#1e1e1e" stroke-width="4.5" fill="none"></path></g><g transform="translate(368.21218018308355 402.5719938120492) rotate(0 257.96730362248763 -27.16080570140184)"><path d="M482.58 -63.14 C494.51 -61.2, 500.16 -58.88, 514.41 -53.25" stroke="#1e1e1e" stroke-width="4.5" fill="none"></path></g></g><mask></mask></svg>