<svg version="1.1" xmlns="http://www.w3.org/2000/svg" viewBox="0 0 1240 340" width="1240" height="340">
  <!-- svg-source:excalidraw -->
  
  <defs>
    <style class="style-fonts">
      @font-face {
        font-family: "Virgil";
        src: url("https://excalidraw.com/Virgil.woff2");
      }
      @font-face {
        font-family: "Cascadia";
        src: url("https://excalidraw.com/Cascadia.woff2");
      }
    </style>
    
  </defs>
  <rect x="0" y="0" width="1240" height="340" fill="#ffffff"></rect><g stroke-linecap="round" transform="translate(10 10) rotate(0 610 160)"><path d="M30.37 2.05 L1185.59 -3.11 L1198.37 5.09 L1213.72 11.85 L1222.92 33.7 L1217.32 284.75 L1220.04 304.96 L1205.74 319.35 L1186.37 321.3 L28.93 316.77 L19.19 314.55 L2.48 308.52 L0.4 289.91 L-1.41 35.5 L0.5 21.95 L4.61 8.46 L20.66 4.61 L30.48 -2.46" stroke="none" stroke-width="0" fill="#fff"></path><path d="M32 0 M32 0 C398.06 -7.27, 762.91 -6.5, 1188 0 M32 0 C304.85 -5.23, 578.95 -6, 1188 0 M1188 0 C1212.94 3.84, 1220.09 10.43, 1220 32 M1188 0 C1208.79 -2.13, 1221.88 8.46, 1220 32 M1220 32 C1218.55 130.34, 1217.95 224.45, 1220 288 M1220 32 C1216.37 96.8, 1216.02 160.51, 1220 288 M1220 288 C1220.15 312.64, 1210.6 317.5, 1188 320 M1220 288 C1221.47 312.37, 1212.35 321.16, 1188 320 M1188 320 C872.14 314.2, 552.24 316.5, 32 320 M1188 320 C942.75 321.17, 698.8 321.31, 32 320 M32 320 C12.85 318.83, 2.15 310.39, 0 288 M32 320 C8.61 317.82, -4.36 307.83, 0 288 M0 288 C-0.34 191.71, 1.87 89.26, 0 32 M0 288 C-2.95 207.54, -1.77 128.91, 0 32 M0 32 C1.42 11.54, 11.88 1.01, 32 0 M0 32 C4.33 9.51, 14.23 1.44, 32 0" stroke="#1e1e1e" stroke-width="4" fill="none"></path></g><g stroke-linecap="round" transform="translate(50 70) rotate(0 160 88.5)"><path d="M29.59 -3.11 L284.37 3.09 L305.72 3.85 L318.42 14.2 L317.32 28.75 L322.04 147.96 L313.74 168.35 L305.87 173.8 L284.93 173.77 L33.19 173.55 L10.48 173.52 L4.9 166.41 L-0.91 156 L-1 28.45 L4.61 8.46 L20.66 4.61 L30.48 -2.46" stroke="none" stroke-width="0" fill="#a5d8ff"></path><path d="M32 0 M32 0 C114.32 -2.72, 194.22 -1.17, 288 0 M32 0 C91.42 -1.57, 153.34 -3.11, 288 0 M288 0 C312.94 3.84, 320.09 10.43, 320 32 M288 0 C308.79 -2.13, 321.88 8.46, 320 32 M320 32 C318.74 76.32, 318 115.4, 320 145 M320 32 C317.15 61.49, 316.72 89.64, 320 145 M320 145 C320.15 169.64, 310.6 174.5, 288 177 M320 145 C321.47 169.37, 312.35 178.16, 288 177 M288 177 C220.56 172.21, 144.96 176.86, 32 177 M288 177 C233.1 176.53, 180.83 176.81, 32 177 M32 177 C12.85 175.83, 2.15 167.39, 0 145 M32 177 C8.61 174.82, -4.36 164.83, 0 145 M0 145 C-0.67 104.97, 2.07 57.3, 0 32 M0 145 C-2.6 108.87, -1.13 75.01, 0 32 M0 32 C1.42 11.54, 11.88 1.01, 32 0 M0 32 C4.33 9.51, 14.23 1.44, 32 0" stroke="#4dabf7" stroke-width="4" fill="none"></path></g><g transform="translate(144.375 141.70000000000073) rotate(0 65.625 16.799999999999272)"><text x="65.625" y="0" font-family="Cascadia, Segoe UI Emoji" font-size="28px" fill="#1e1e1e" text-anchor="middle" style="white-space: pre;" direction="ltr" dominant-baseline="text-before-edge">consumer</text></g><g stroke-linecap="round" transform="translate(870 90) rotate(0 160 80)"><path d="M30.22 -0.65 L290.92 1.7 L304.82 1.25 L317.54 15.46 L318.24 35.85 L318.37 129.3 L312.43 144.27 L308.69 152.05 L285.98 161.02 L32.4 161.91 L11.09 159 L3 151.45 L-2.89 135.96 L3.16 27.11 L6.48 5.54 L18.64 5.23 L35.29 1.75" stroke="none" stroke-width="0" fill="#ffec99"></path><path d="M32 0 M32 0 C112.14 -2.62, 198.37 -5.1, 288 0 M32 0 C125.91 2.97, 216.95 1.32, 288 0 M288 0 C308.86 -1.86, 321.63 8.75, 320 32 M288 0 C313 -0.86, 316.26 9.71, 320 32 M320 32 C317.19 61.89, 315.52 93.34, 320 128 M320 32 C318.18 69.09, 318.74 101.62, 320 128 M320 128 C321.28 151.97, 311.95 161.01, 288 160 M320 128 C318.82 150.74, 307.14 164.02, 288 160 M288 160 C230.74 163.76, 179.79 161.02, 32 160 M288 160 C232.34 156.98, 175.78 157.87, 32 160 M32 160 C8.88 158.1, -3.79 148.03, 0 128 M32 160 C14.72 159.6, 4.41 148.34, 0 128 M0 128 C-0.45 91.46, -4.38 48.45, 0 32 M0 128 C0.99 104.22, 0.89 80.08, 0 32 M0 32 C3.76 9.66, 13.76 1.25, 32 0 M0 32 C-3.43 6.11, 12.84 -1.49, 32 0" stroke="#f08c00" stroke-width="2" fill="none"></path></g><g transform="translate(966.71875 148.40000000000146) rotate(0 63.28125 21.600000000000364)"><text x="63.28125" y="0" font-family="Cascadia, Segoe UI Emoji" font-size="36px" fill="#1e1e1e" text-anchor="middle" style="white-space: pre;" direction="ltr" dominant-baseline="text-before-edge">Broker</text></g><g stroke-linecap="round"><g transform="translate(371.3945764912678 118.1155805837916) rotate(0 248.90084895648033 3.266579679289862)"><path d="M1.43 2.07 C84.47 3.19, 413.87 4.36, 496.37 4.46" stroke="#1e1e1e" stroke-width="4.5" fill="none" stroke-dasharray="8 12"></path></g><g transform="translate(371.3945764912678 118.1155805837916) rotate(0 248.90084895648033 3.266579679289862)"><path d="M471.11 12.89 C478.74 10.36, 482.77 6.54, 493.14 5.66" stroke="#1e1e1e" stroke-width="4.5" fill="none"></path></g><g transform="translate(371.3945764912678 118.1155805837916) rotate(0 248.90084895648033 3.266579679289862)"><path d="M471.17 -7.63 C478.45 -5.38, 482.47 -4.41, 493.14 5.66" stroke="#1e1e1e" stroke-width="4.5" fill="none"></path></g></g><mask></mask><g stroke-linecap="round"><g transform="translate(869 217.8413607610637) rotate(0 -250.18519607558846 1.1925249539362994)"><path d="M-1.23 2.69 C-84.66 2.3, -415.99 0.72, -499.14 -0.31" stroke="#1e1e1e" stroke-width="4.5" fill="none" stroke-dasharray="8 12"></path></g><g transform="translate(869 217.8413607610637) rotate(0 -250.18519607558846 1.1925249539362994)"><path d="M-467.02 -11.97 C-479.34 -10.14, -493.8 -2.35, -502.59 -2.33" stroke="#1e1e1e" stroke-width="4.5" fill="none"></path></g><g transform="translate(869 217.8413607610637) rotate(0 -250.18519607558846 1.1925249539362994)"><path d="M-467.18 8.55 C-479.75 3.18, -494.15 3.76, -502.59 -2.33" stroke="#1e1e1e" stroke-width="4.5" fill="none"></path></g></g><mask></mask><g transform="translate(470 70) rotate(0 121.625 16.799999999999272)"><text x="0" y="0" font-family="Cascadia, Segoe UI Emoji" font-size="28px" fill="#1e1e1e" text-anchor="start" style="white-space: pre;" direction="ltr" dominant-baseline="text-before-edge">消费  fetch 接口</text></g><g transform="translate(430 230) rotate(0 198.84375 16.799999999999272)"><text x="0" y="0" font-family="Cascadia, Segoe UI Emoji" font-size="28px" fill="#1e1e1e" text-anchor="start" style="white-space: pre;" direction="ltr" dominant-baseline="text-before-edge">消费提交进度  OffsetCommit</text></g></svg>