<svg version="1.1" xmlns="http://www.w3.org/2000/svg" viewBox="0 0 1240 1020" width="1240" height="1020">
  <!-- svg-source:excalidraw -->
  
  <defs>
    <style class="style-fonts">
      @font-face {
        font-family: "Virgil";
        src: url("https://excalidraw.com/Virgil.woff2");
      }
      @font-face {
        font-family: "Cascadia";
        src: url("https://excalidraw.com/Cascadia.woff2");
      }
    </style>
    
  </defs>
  <rect x="0" y="0" width="1240" height="1020" fill="#ffffff"></rect><g stroke-linecap="round" transform="translate(10 10) rotate(0 610 500)"><path d="M32.7 2.83 L1189.84 2.77 L1202.2 -1.43 L1212.24 9.15 L1221.96 18.24 L1220.23 31.09 L1221.99 967.24 L1221.51 979.28 L1213.67 991.59 L1203.15 995.07 L1191.75 1003.93 L29.6 1000.41 L20.39 1001.54 L10.67 993.89 L3.08 984.32 L-0.42 964.72 L-3.29 32.78 L2.88 14.73 L11.55 4.08 L18.53 0.38 L29.21 -2.02" stroke="none" stroke-width="0" fill="#fff"></path><path d="M32 0 M32 0 C315.18 -7.3, 602.28 -6.92, 1188 0 M32 0 C487.68 -6.75, 945.2 -7.94, 1188 0 M1188 0 C1210.39 -3.09, 1222.36 9.7, 1220 32 M1188 0 C1213.42 -4.29, 1217.67 14.3, 1220 32 M1220 32 C1216.9 397.04, 1214.73 760.84, 1220 968 M1220 32 C1224.94 403.87, 1224.81 776.88, 1220 968 M1220 968 C1221.56 986.23, 1209.94 996.76, 1188 1000 M1220 968 C1220.9 991.21, 1212.33 998.81, 1188 1000 M1188 1000 C812.37 996.87, 438.25 994.99, 32 1000 M1188 1000 C867.38 1004.5, 545.95 1004.3, 32 1000 M32 1000 C12.28 1000, 0.42 986.13, 0 968 M32 1000 C11.78 1002.85, -2.01 991.83, 0 968 M0 968 C3.59 701.65, 4.05 439.06, 0 32 M0 968 C-7.33 603.58, -7.61 239.03, 0 32 M0 32 C-1.58 8.56, 13.78 -2.17, 32 0 M0 32 C-3.06 6.92, 8.08 2.52, 32 0" stroke="#1e1e1e" stroke-width="4" fill="none"></path></g><g stroke-linecap="round" transform="translate(70 70) rotate(0 150 210)"><path d="M33.38 3.79 L271.38 3.27 L282.45 0.3 L297.43 15.75 L302.46 32.79 L296.73 391.21 L300.19 403.6 L289.36 418.65 L267.03 416.4 L32.04 416.47 L15 420.29 L3.09 409.41 L-3.25 389.7 L-2.03 24.12 L11.54 6.46 L15.28 5.11 L35.28 1.77" stroke="none" stroke-width="0" fill="#fff"></path><path d="M32 0 M32 0 C99.97 -4.9, 164.52 -5.57, 268 0 M32 0 C124.72 -4.08, 216.69 -3.43, 268 0 M268 0 C292.84 -3.49, 302.27 6.91, 300 32 M268 0 C287.37 -1.58, 298.69 14.21, 300 32 M300 32 C297.19 124.8, 297.65 220.26, 300 388 M300 32 C297.5 153.54, 295.96 277.66, 300 388 M300 388 C297.22 408.17, 290.13 417.34, 268 420 M300 388 C300.5 407.88, 292.61 421.05, 268 420 M268 420 C216.12 418.72, 169.34 416, 32 420 M268 420 C199.67 419.48, 130.22 419.57, 32 420 M32 420 C13.63 422.42, 2.18 407.03, 0 388 M32 420 C12.68 423.77, 0.67 412.46, 0 388 M0 388 C5.39 306.63, 4.72 219.47, 0 32 M0 388 C3.08 276.26, 4.21 163.7, 0 32 M0 32 C0.97 13.47, 10.83 2.25, 32 0 M0 32 C2 8.71, 7.81 3.97, 32 0" stroke="#1e1e1e" stroke-width="4" fill="none"></path></g><g stroke-linecap="round" transform="translate(870 210) rotate(0 160 50)"><path d="M24.42 -2.02 L293.61 1.71 L308.25 5.37 L316.98 7.54 L316.5 16.06 L318.23 85.61 L307.02 99.25 L296.48 98.54 L21.28 96.16 L17.19 101.32 L8.52 91.05 L3.35 79.45 L2.66 18.9 L6.04 3.17 L10.49 4.06 L26.1 2.51" stroke="none" stroke-width="0" fill="#ffec99"></path><path d="M25 0 M25 0 C87.19 0.28, 153.06 2.73, 295 0 M25 0 C86.33 -1.83, 144.5 -2.86, 295 0 M295 0 C309.71 -1.75, 320.51 7.9, 320 25 M295 0 C315.63 -2.57, 317.37 11.56, 320 25 M320 25 C316.74 36.12, 322.2 56.3, 320 75 M320 25 C321.74 40.79, 321.42 58.88, 320 75 M320 75 C323.95 91.73, 315.38 96.3, 295 100 M320 75 C322.63 93.4, 308.46 96.39, 295 100 M295 100 C231.86 98.26, 167.78 100.38, 25 100 M295 100 C195.08 99.31, 92.88 99.52, 25 100 M25 100 C5.74 96.32, 2.83 92.76, 0 75 M25 100 C11.34 98.1, 2.01 91.3, 0 75 M0 75 C2.52 57.03, 0.86 40.82, 0 25 M0 75 C0.86 60.8, 1.55 46.53, 0 25 M0 25 C1.5 4.42, 8 -0.84, 25 0 M0 25 C1.43 9.91, 12.23 0.01, 25 0" stroke="#f08c00" stroke-width="2" fill="none"></path></g><g transform="translate(956.171875 238.39999999999964) rotate(0 73.828125 21.600000000000364)"><text x="73.828125" y="0" font-family="Cascadia, Segoe UI Emoji" font-size="36px" fill="#1e1e1e" text-anchor="middle" style="white-space: pre;" direction="ltr" dominant-baseline="text-before-edge">Topic 1</text></g><g stroke-linecap="round" transform="translate(870 370) rotate(0 160 50)"><path d="M21.92 3.12 L298.97 0 L306.55 4.8 L320.03 7.29 L322.64 17.47 L318.62 88.58 L306.42 100.25 L292.57 98.04 L22.45 99.59 L10.85 97.51 L7.86 96.19 L-3.33 78.55 L-2.84 20.74 L6.12 8.73 L10.53 0.5 L25.76 -1.36" stroke="none" stroke-width="0" fill="#ffec99"></path><path d="M25 0 M25 0 C99.95 1.32, 183.44 4.26, 295 0 M25 0 C86.08 2.48, 146.85 4.53, 295 0 M295 0 C309 -0.87, 319.89 5.07, 320 25 M295 0 C310.27 0.22, 323.95 10.72, 320 25 M320 25 C315.65 37.54, 322.42 48.77, 320 75 M320 25 C322.5 43.3, 321.58 59.93, 320 75 M320 75 C317.52 88.92, 311.07 98.92, 295 100 M320 75 C324.46 90.14, 314.89 98.6, 295 100 M295 100 C238.01 95.12, 185.78 94.94, 25 100 M295 100 C188.73 100.44, 82.71 102.23, 25 100 M25 100 C7.48 101.06, 0.37 92.76, 0 75 M25 100 C10.16 97.35, -4.2 95.75, 0 75 M0 75 C-2.25 65.42, -1.38 51.3, 0 25 M0 75 C1.03 61.11, 1.41 47.1, 0 25 M0 25 C3.76 6.62, 6.05 -3.24, 25 0 M0 25 C-0.04 4.59, 9.49 -2.17, 25 0" stroke="#f08c00" stroke-width="2" fill="none"></path></g><g transform="translate(956.171875 398.39999999999964) rotate(0 73.828125 21.600000000000364)"><text x="73.828125" y="0" font-family="Cascadia, Segoe UI Emoji" font-size="36px" fill="#1e1e1e" text-anchor="middle" style="white-space: pre;" direction="ltr" dominant-baseline="text-before-edge">Topic 2</text></g><g stroke-linecap="round" transform="translate(870 570) rotate(0 160 50)"><path d="M22.12 -2.72 L292.65 0.63 L303.36 5.32 L317.7 11.61 L319.77 15.29 L319.39 86.64 L309.38 97.55 L295.37 101.1 L26.59 97.7 L10.41 101.99 L2.3 91.64 L3.55 78.08 L0.88 17.23 L2.68 6.11 L12.28 4.96 L26.16 1.88" stroke="none" stroke-width="0" fill="#ffec99"></path><path d="M25 0 M25 0 C117.7 -5.76, 210.54 -4, 295 0 M25 0 C85.19 2.59, 143.35 1.66, 295 0 M295 0 C314.8 -2.5, 318.78 8.42, 320 25 M295 0 C312.24 -2.05, 323.49 10.34, 320 25 M320 25 C317.05 36.38, 322.51 44.66, 320 75 M320 25 C321.11 35.54, 320.32 49.63, 320 75 M320 75 C316.65 89.89, 308.33 97.79, 295 100 M320 75 C316.69 89.25, 315.66 102.12, 295 100 M295 100 C202.65 97.33, 108.31 94.18, 25 100 M295 100 C191.93 104.56, 91.35 103.92, 25 100 M25 100 C7.11 103.27, 2.22 92.39, 0 75 M25 100 C6.45 99.09, -1.59 87.27, 0 75 M0 75 C2.4 60.13, -0.76 54.11, 0 25 M0 75 C0.24 61.83, 1.75 50.71, 0 25 M0 25 C3.74 9.91, 5.62 -2.67, 25 0 M0 25 C1.67 6.38, 4.69 -3.56, 25 0" stroke="#f08c00" stroke-width="2" fill="none"></path></g><g transform="translate(956.171875 598.3999999999996) rotate(0 73.828125 21.600000000000364)"><text x="73.828125" y="0" font-family="Cascadia, Segoe UI Emoji" font-size="36px" fill="#1e1e1e" text-anchor="middle" style="white-space: pre;" direction="ltr" dominant-baseline="text-before-edge">Topic 2</text></g><g stroke-linecap="round" transform="translate(870 750) rotate(0 160 50)"><path d="M22.11 2.79 L295.5 3.05 L302.41 4.7 L319.65 13.32 L317.42 21.18 L320.41 86.35 L309.01 99.75 L297.22 100.72 L23.36 99.21 L12.68 94.62 L3.21 96.64 L-0.38 83.98 L-3.28 19.1 L7.76 4.76 L13.67 -1.75 L25.28 -0.07" stroke="none" stroke-width="0" fill="#ffec99"></path><path d="M25 0 M25 0 C129.47 -6.08, 229.36 -2.81, 295 0 M25 0 C93.14 3.88, 165.13 4.63, 295 0 M295 0 C308.48 -0.57, 320.53 6.78, 320 25 M295 0 C312.23 -3.88, 322.37 8.13, 320 25 M320 25 C317.88 46.24, 322.56 57.46, 320 75 M320 25 C321.46 34.3, 318.86 46.92, 320 75 M320 75 C319.93 91.44, 314.54 97, 295 100 M320 75 C318.06 93.28, 309.99 95.43, 295 100 M295 100 C201.65 102.77, 114.89 106.68, 25 100 M295 100 C207.61 103.95, 117.83 104.12, 25 100 M25 100 C7.43 98.19, -1.38 89.56, 0 75 M25 100 C7.78 97.11, 0.33 89.33, 0 75 M0 75 C-1.87 52.98, 3.31 37.31, 0 25 M0 75 C0.85 56.8, -1.27 40.62, 0 25 M0 25 C-3.02 5.42, 4.63 -3.27, 25 0 M0 25 C-1.99 6.01, 7.01 -4, 25 0" stroke="#f08c00" stroke-width="2" fill="none"></path></g><g transform="translate(956.171875 778.3999999999996) rotate(0 73.828125 21.600000000000364)"><text x="73.828125" y="0" font-family="Cascadia, Segoe UI Emoji" font-size="36px" fill="#1e1e1e" text-anchor="middle" style="white-space: pre;" direction="ltr" dominant-baseline="text-before-edge">Topic 3</text></g><g stroke-linecap="round" transform="translate(110 130) rotate(0 110 48.5)"><path d="M23.77 -2.51 L206.65 -0.51 L219.36 6.83 L221.03 16.04 L214.93 86.01 L209.77 96.13 L193.23 99.82 L14.07 95.43 L2.26 94.88 L-2.64 75.52 L-3.32 15.29 L4.33 4.05 L12.49 -1.97 L23.32 3.28" stroke="none" stroke-width="0" fill="#a5d8ff"></path><path d="M24.25 0 M24.25 0 C87.84 -0.53, 148.47 -1.91, 195.75 0 M24.25 0 C61.34 0.19, 101.29 0.6, 195.75 0 M195.75 0 C208.55 3.31, 218.2 9.01, 220 24.25 M195.75 0 C207.87 2.52, 223.43 7.78, 220 24.25 M220 24.25 C222.99 39.72, 217.8 58.45, 220 72.75 M220 24.25 C220.06 34, 219.16 45.15, 220 72.75 M220 72.75 C218.34 88.75, 214.03 100.51, 195.75 97 M220 72.75 C224.49 92.86, 208.31 95.46, 195.75 97 M195.75 97 C160.03 97.67, 128.24 102.61, 24.25 97 M195.75 97 C142.51 98.41, 87.09 98.34, 24.25 97 M24.25 97 C11.9 100.18, 1.83 89.27, 0 72.75 M24.25 97 C5.81 93.37, 2.9 87.64, 0 72.75 M0 72.75 C2.94 57.29, -3.26 42.89, 0 24.25 M0 72.75 C-2.18 58.84, 0.2 41.52, 0 24.25 M0 24.25 C0.94 7.2, 7.93 -2.28, 24.25 0 M0 24.25 C-0.29 9.73, 6.91 0.49, 24.25 0" stroke="#4dabf7" stroke-width="4" fill="none"></path></g><g transform="translate(137.96875 161.70000000000073) rotate(0 82.03125 16.800000000000182)"><text x="82.03125" y="0" font-family="Cascadia, Segoe UI Emoji" font-size="28px" fill="#1e1e1e" text-anchor="middle" style="white-space: pre;" direction="ltr" dominant-baseline="text-before-edge">consumer 1</text></g><g stroke-linecap="round" transform="translate(110 250) rotate(0 110 48.5)"><path d="M24.68 -3.04 L207.36 0.85 L214.9 13.36 L217.13 18.66 L221.29 82.09 L209.29 92.18 L199.29 98.28 L15.74 97.4 L5.58 94.85 L2.58 80.19 L-0.48 22.24 L5.21 4.52 L9.79 3.7 L22.64 0.98" stroke="none" stroke-width="0" fill="#a5d8ff"></path><path d="M24.25 0 M24.25 0 C85.89 -6.07, 142.94 -5.94, 195.75 0 M24.25 0 C69.5 2.52, 114.54 4.64, 195.75 0 M195.75 0 C215.25 -1.68, 216.01 5.66, 220 24.25 M195.75 0 C216.36 2.53, 223.86 10.66, 220 24.25 M220 24.25 C222.39 42.65, 221.09 53.4, 220 72.75 M220 24.25 C219.11 34.94, 218.61 48.04, 220 72.75 M220 72.75 C221.35 85.27, 210.26 93.13, 195.75 97 M220 72.75 C218.98 85.08, 211.41 97.81, 195.75 97 M195.75 97 C132.34 96.29, 67.08 98.76, 24.25 97 M195.75 97 C138.9 94.31, 84.24 94.11, 24.25 97 M24.25 97 C5.68 94.76, -0.3 89.01, 0 72.75 M24.25 97 C8.46 94.49, 2.37 87.88, 0 72.75 M0 72.75 C0.5 61.6, 2.5 46.12, 0 24.25 M0 72.75 C2.04 58.89, 0.81 40.93, 0 24.25 M0 24.25 C3.21 10.28, 9.68 1.86, 24.25 0 M0 24.25 C3.62 6.97, 3.95 0.04, 24.25 0" stroke="#4dabf7" stroke-width="4" fill="none"></path></g><g transform="translate(137.96875 281.7000000000007) rotate(0 82.03125 16.800000000000182)"><text x="82.03125" y="0" font-family="Cascadia, Segoe UI Emoji" font-size="28px" fill="#1e1e1e" text-anchor="middle" style="white-space: pre;" direction="ltr" dominant-baseline="text-before-edge">consumer 2</text></g><g stroke-linecap="round" transform="translate(110 370) rotate(0 110 48.5)"><path d="M26.49 0.25 L205.13 4.43 L219.28 13.02 L221.01 18.01 L216.06 81.58 L210.51 92.68 L193.91 95.09 L14.8 96.83 L2.42 89.28 L-3.5 77.55 L-2.95 18.12 L6.77 8.7 L13.89 1.19 L23.61 -0.43" stroke="none" stroke-width="0" fill="#a5d8ff"></path><path d="M24.25 0 M24.25 0 C65.21 -4.07, 99.69 -1.14, 195.75 0 M24.25 0 C87.54 1.91, 153.12 2.22, 195.75 0 M195.75 0 C209.73 2.06, 219.1 8.41, 220 24.25 M195.75 0 C216.08 -3.88, 221.58 12.45, 220 24.25 M220 24.25 C219.09 44.83, 224.04 64.01, 220 72.75 M220 24.25 C220.3 40.56, 220.14 56.85, 220 72.75 M220 72.75 C219.03 85.32, 211.95 93.47, 195.75 97 M220 72.75 C216.55 91.55, 210.29 99.2, 195.75 97 M195.75 97 C157.87 98.37, 119.21 92.11, 24.25 97 M195.75 97 C130.59 100.14, 67.46 99.61, 24.25 97 M24.25 97 C5.19 97.31, -3.69 92.6, 0 72.75 M24.25 97 C9.72 101.52, 0.6 88.4, 0 72.75 M0 72.75 C-3.76 61.4, -4.03 43.79, 0 24.25 M0 72.75 C-0.46 59.54, 1.25 45.36, 0 24.25 M0 24.25 C-1.5 5.58, 9.21 1.8, 24.25 0 M0 24.25 C-3.36 4.94, 11.08 -4.52, 24.25 0" stroke="#4dabf7" stroke-width="4" fill="none"></path></g><g transform="translate(137.96875 401.7000000000007) rotate(0 82.03125 16.800000000000182)"><text x="82.03125" y="0" font-family="Cascadia, Segoe UI Emoji" font-size="28px" fill="#1e1e1e" text-anchor="middle" style="white-space: pre;" direction="ltr" dominant-baseline="text-before-edge">consumer 3</text></g><g transform="translate(170 70) rotate(0 57.421875 16.800000000000182)"><text x="0" y="0" font-family="Cascadia, Segoe UI Emoji" font-size="28px" fill="#1e1e1e" text-anchor="start" style="white-space: pre;" direction="ltr" dominant-baseline="text-before-edge">Group 1</text></g><g stroke-linecap="round" transform="translate(70 550) rotate(0 150 210)"><path d="M32.71 3.92 L270.31 3.69 L278.42 3.97 L295.37 13.63 L299.76 34.88 L300.24 385.53 L295.25 403.22 L288.77 412.67 L264.05 416.94 L33.4 417.67 L17.91 421.35 L4.22 405.55 L1.25 387.17 L4.45 23.19 L5.08 8.45 L16.41 3.35 L29.04 -3.35" stroke="none" stroke-width="0" fill="#fff"></path><path d="M32 0 M32 0 C102.04 2.69, 176.67 -0.18, 268 0 M32 0 C95.22 -2.88, 156.76 -2.17, 268 0 M268 0 C290.4 3.68, 299.7 13.48, 300 32 M268 0 C289.66 -4.26, 301.83 14.76, 300 32 M300 32 C302.31 125.6, 300.31 222.14, 300 388 M300 32 C297.69 141.39, 297.13 250.34, 300 388 M300 388 C298.35 406.72, 286.64 420.56, 268 420 M300 388 C297.92 413.56, 291.85 417.25, 268 420 M268 420 C192.96 419.16, 116.79 422.81, 32 420 M268 420 C187.75 415.38, 108.5 416.77, 32 420 M32 420 C7.69 421.24, -3.12 405.58, 0 388 M32 420 C7.33 423.37, 2.38 412.64, 0 388 M0 388 C-3.93 271.27, -4.02 156.6, 0 32 M0 388 C3.81 257.89, 5.46 129.14, 0 32 M0 32 C3.27 14.02, 7.73 0.37, 32 0 M0 32 C-4.13 9.17, 12.51 -2.43, 32 0" stroke="#1e1e1e" stroke-width="4" fill="none"></path></g><g stroke-linecap="round" transform="translate(110 610) rotate(0 110 48.5)"><path d="M26.56 3.69 L202.78 3.48 L216.46 10.6 L219.38 21.45 L218.73 80.89 L207.78 94.81 L197.02 94.17 L9.69 92.42 L7.46 88.61 L0.29 81.79 L0.1 16.62 L7.31 5.23 L17.59 0.21 L21.33 0.45" stroke="none" stroke-width="0" fill="#a5d8ff"></path><path d="M24.25 0 M24.25 0 C65.55 2.61, 114.72 1.95, 195.75 0 M24.25 0 C69.18 -3.04, 114.99 -0.43, 195.75 0 M195.75 0 C215.51 1.84, 223.17 11.61, 220 24.25 M195.75 0 C213.14 4.23, 219.65 11.32, 220 24.25 M220 24.25 C222.66 37.8, 220.49 51.6, 220 72.75 M220 24.25 C220.02 40.34, 218.31 57.44, 220 72.75 M220 72.75 C221.66 88.15, 211.83 94.1, 195.75 97 M220 72.75 C218.1 85.91, 208.82 97.65, 195.75 97 M195.75 97 C149.67 99.91, 104.71 98.6, 24.25 97 M195.75 97 C136.73 100.43, 75.11 98, 24.25 97 M24.25 97 C8.52 93.62, 3.22 88.84, 0 72.75 M24.25 97 C4.66 98.42, -3.59 84.6, 0 72.75 M0 72.75 C2.17 62.64, 1.8 49.06, 0 24.25 M0 72.75 C-0.36 61.47, -1.35 48.45, 0 24.25 M0 24.25 C-2.17 4.71, 11.1 -2.52, 24.25 0 M0 24.25 C3.76 11.94, 4.71 0.42, 24.25 0" stroke="#4dabf7" stroke-width="4" fill="none"></path></g><g transform="translate(137.96875 641.7000000000007) rotate(0 82.03125 16.800000000000182)"><text x="82.03125" y="0" font-family="Cascadia, Segoe UI Emoji" font-size="28px" fill="#1e1e1e" text-anchor="middle" style="white-space: pre;" direction="ltr" dominant-baseline="text-before-edge">consumer 1</text></g><g stroke-linecap="round" transform="translate(110 730) rotate(0 110 48.5)"><path d="M24.12 1.13 L206.12 4.39 L216.83 7 L216.87 19.79 L219.75 80.53 L206.57 90.53 L197.15 94.67 L13.56 98.84 L5.79 88.99 L1.63 77.6 L4.33 17.26 L3.14 6.51 L12.06 2.87 L21.29 -3.35" stroke="none" stroke-width="0" fill="#a5d8ff"></path><path d="M24.25 0 M24.25 0 C74.59 3.01, 130.42 -0.41, 195.75 0 M24.25 0 C70.89 -2.24, 115.53 -1.4, 195.75 0 M195.75 0 C212.98 3.68, 219.7 10.9, 220 24.25 M195.75 0 C212.25 -4.26, 221.83 12.17, 220 24.25 M220 24.25 C221.47 35.33, 218.36 51, 220 72.75 M220 24.25 C220.22 38.8, 219.35 52.67, 220 72.75 M220 72.75 C218.35 86.31, 209.22 97.56, 195.75 97 M220 72.75 C217.92 93.14, 214.44 94.25, 195.75 97 M195.75 97 C142.07 96.09, 87.05 100.43, 24.25 97 M195.75 97 C137.52 92.54, 80.47 94.19, 24.25 97 M24.25 97 C5.11 98.24, -3.12 85.16, 0 72.75 M24.25 97 C4.75 100.37, 2.38 92.23, 0 72.75 M0 72.75 C-2.27 54.48, -2.42 39.42, 0 24.25 M0 72.75 C-0.13 53.49, 2.46 36.33, 0 24.25 M0 24.25 C3.27 11.44, 5.15 0.37, 24.25 0 M0 24.25 C-4.13 6.59, 9.92 -2.43, 24.25 0" stroke="#4dabf7" stroke-width="4" fill="none"></path></g><g transform="translate(137.96875 761.7000000000007) rotate(0 82.03125 16.800000000000182)"><text x="82.03125" y="0" font-family="Cascadia, Segoe UI Emoji" font-size="28px" fill="#1e1e1e" text-anchor="middle" style="white-space: pre;" direction="ltr" dominant-baseline="text-before-edge">consumer 2</text></g><g stroke-linecap="round" transform="translate(110 850) rotate(0 110 48.5)"><path d="M24.49 -2.47 L203.61 2.73 L217.86 6.64 L215.67 15.5 L219.88 81.03 L210.44 96.94 L195.47 95.05 L14.89 94.65 L10.01 89.63 L-2.54 78.88 L-1.21 19.92 L3.1 2.71 L13.71 2.69 L23.66 -1.41" stroke="none" stroke-width="0" fill="#a5d8ff"></path><path d="M24.25 0 M24.25 0 C84.91 0.71, 152.34 4.37, 195.75 0 M24.25 0 C84.13 -1.19, 142.8 -1.62, 195.75 0 M195.75 0 C212.2 -3.71, 221.59 11.64, 220 24.25 M195.75 0 C210.36 1.59, 217.18 9.39, 220 24.25 M220 24.25 C219.84 34.09, 222.17 50.58, 220 72.75 M220 24.25 C219.15 36.56, 218.63 51.77, 220 72.75 M220 72.75 C218.19 92.59, 214.11 94.61, 195.75 97 M220 72.75 C221.19 84.72, 211.6 99.52, 195.75 97 M195.75 97 C148.84 102.3, 95.43 100.58, 24.25 97 M195.75 97 C157.29 97.55, 120.25 95.05, 24.25 97 M24.25 97 C5.19 99.93, 2.07 91.79, 0 72.75 M24.25 97 C9.15 99.89, -1.86 87, 0 72.75 M0 72.75 C2.94 57.4, 1.97 47.78, 0 24.25 M0 72.75 C0.9 63.97, -2.2 52.01, 0 24.25 M0 24.25 C-3.59 6.78, 9.68 -2.12, 24.25 0 M0 24.25 C-0.04 8.12, 4.22 -1.03, 24.25 0" stroke="#4dabf7" stroke-width="4" fill="none"></path></g><g transform="translate(137.96875 881.7000000000007) rotate(0 82.03125 16.800000000000182)"><text x="82.03125" y="0" font-family="Cascadia, Segoe UI Emoji" font-size="28px" fill="#1e1e1e" text-anchor="middle" style="white-space: pre;" direction="ltr" dominant-baseline="text-before-edge">consumer 3</text></g><g transform="translate(170 550) rotate(0 57.421875 16.800000000000182)"><text x="0" y="0" font-family="Cascadia, Segoe UI Emoji" font-size="28px" fill="#1e1e1e" text-anchor="start" style="white-space: pre;" direction="ltr" dominant-baseline="text-before-edge">Group 2</text></g><g stroke-linecap="round"><g transform="translate(870 250) rotate(0 -247.70135112032267 19.68007089123148)"><path d="M2.35 -1.16 C-80.64 6.05, -414.16 33.95, -497.76 40.52" stroke="#1e1e1e" stroke-width="4.5" fill="none" stroke-dasharray="8 12"></path></g><g transform="translate(870 250) rotate(0 -247.70135112032267 19.68007089123148)"><path d="M-472.16 31.21 C-478.38 33.4, -490.01 37.77, -493.87 42.45" stroke="#1e1e1e" stroke-width="4.5" fill="none"></path></g><g transform="translate(870 250) rotate(0 -247.70135112032267 19.68007089123148)"><path d="M-470.49 51.66 C-476.82 47.59, -488.96 45.66, -493.87 42.45" stroke="#1e1e1e" stroke-width="4.5" fill="none"></path></g></g><mask></mask><g stroke-linecap="round"><g transform="translate(870 410) rotate(0 -249.19965079799294 -50.74366991743409)"><path d="M2.35 1.01 C-81.09 -16.08, -416.59 -86.01, -500.75 -102.5" stroke="#1e1e1e" stroke-width="4.5" fill="none" stroke-dasharray="8 12"></path></g><g transform="translate(870 410) rotate(0 -249.19965079799294 -50.74366991743409)"><path d="M-469.64 -108.02 C-483.48 -108.88, -485.74 -107.29, -503.62 -103.29" stroke="#1e1e1e" stroke-width="4.5" fill="none"></path></g><g transform="translate(870 410) rotate(0 -249.19965079799294 -50.74366991743409)"><path d="M-473.72 -87.91 C-486.36 -94.82, -487.41 -99.21, -503.62 -103.29" stroke="#1e1e1e" stroke-width="4.5" fill="none"></path></g></g><mask></mask><g stroke-linecap="round"><g transform="translate(869.1592437170448 408.5723427988596) rotate(0 -250.35148100592232 161.9009244713925)"><path d="M-2.38 1.43 C-85.16 55.5, -415.48 268.91, -498.32 322.37" stroke="#1e1e1e" stroke-width="4.5" fill="none" stroke-dasharray="8 12"></path></g><g transform="translate(869.1592437170448 408.5723427988596) rotate(0 -250.35148100592232 161.9009244713925)"><path d="M-478.17 299.66 C-483.55 303.56, -488.15 309.46, -498.13 324.73" stroke="#1e1e1e" stroke-width="4.5" fill="none"></path></g><g transform="translate(869.1592437170448 408.5723427988596) rotate(0 -250.35148100592232 161.9009244713925)"><path d="M-467.03 316.9 C-474.84 316.47, -482.11 318.24, -498.13 324.73" stroke="#1e1e1e" stroke-width="4.5" fill="none"></path></g></g><mask></mask><g stroke-linecap="round"><g transform="translate(870 630) rotate(0 -250.12180257812133 60.467751500756094)"><path d="M1.69 2.6 C-82.22 22.17, -418.51 98.71, -501.93 118.33" stroke="#1e1e1e" stroke-width="4.5" fill="none" stroke-dasharray="8 12"></path></g><g transform="translate(870 630) rotate(0 -250.12180257812133 60.467751500756094)"><path d="M-473.05 99.24 C-487.96 109.79, -494.05 116.48, -498.47 115.63" stroke="#1e1e1e" stroke-width="4.5" fill="none"></path></g><g transform="translate(870 630) rotate(0 -250.12180257812133 60.467751500756094)"><path d="M-468.43 119.23 C-485.11 122.76, -492.84 122.36, -498.47 115.63" stroke="#1e1e1e" stroke-width="4.5" fill="none"></path></g></g><mask></mask><g stroke-linecap="round"><g transform="translate(870 630) rotate(0 -252.17535171732334 -160.80274690166152)"><path d="M-1.68 -2.79 C-85.18 -55.8, -420 -266.1, -502.67 -318.82" stroke="#1e1e1e" stroke-width="4.5" fill="none" stroke-dasharray="8 12"></path></g><g transform="translate(870 630) rotate(0 -252.17535171732334 -160.80274690166152)"><path d="M-477.34 -316.24 C-478.68 -311.06, -486.12 -319.35, -505.95 -320.12" stroke="#1e1e1e" stroke-width="4.5" fill="none"></path></g><g transform="translate(870 630) rotate(0 -252.17535171732334 -160.80274690166152)"><path d="M-488.31 -298.89 C-486.91 -297.75, -491.72 -310.22, -505.95 -320.12" stroke="#1e1e1e" stroke-width="4.5" fill="none"></path></g></g><mask></mask><g stroke-linecap="round"><g transform="translate(871.3544073082503 811.2553904913366) rotate(0 -250.61061139963522 -20.552978775277552)"><path d="M1.49 -1.26 C-82.57 -8.1, -419.21 -32.79, -502.71 -39.85" stroke="#1e1e1e" stroke-width="4.5" fill="none" stroke-dasharray="8 12"></path></g><g transform="translate(871.3544073082503 811.2553904913366) rotate(0 -250.61061139963522 -20.552978775277552)"><path d="M-475.6 -49.82 C-482.06 -42.09, -497.77 -40.77, -500.31 -41.64" stroke="#1e1e1e" stroke-width="4.5" fill="none"></path></g><g transform="translate(871.3544073082503 811.2553904913366) rotate(0 -250.61061139963522 -20.552978775277552)"><path d="M-477.2 -29.36 C-483.27 -28.96, -498.41 -34.96, -500.31 -41.64" stroke="#1e1e1e" stroke-width="4.5" fill="none"></path></g></g><mask></mask></svg>