<svg version="1.1" xmlns="http://www.w3.org/2000/svg" viewBox="0 0 1440 860" width="1440" height="860">
  <!-- svg-source:excalidraw -->
  
  <defs>
    <style class="style-fonts">
      @font-face {
        font-family: "Virgil";
        src: url("https://excalidraw.com/Virgil.woff2");
      }
      @font-face {
        font-family: "Cascadia";
        src: url("https://excalidraw.com/Cascadia.woff2");
      }
    </style>
    
  </defs>
  <rect x="0" y="0" width="1440" height="860" fill="#ffffff"></rect><g stroke-linecap="round" transform="translate(10 10) rotate(0 710 420)"><path d="M34.32 -3.59 L1384.26 0.44 L1404.3 6.26 L1414.17 8.99 L1421.64 29.29 L1421.27 806.67 L1419.17 825.74 L1407.73 837.44 L1386.36 837.27 L28.3 838.6 L10.29 831.88 L4.89 824.37 L-1.33 806.95 L-1.98 32.31 L0.33 19.74 L4.33 8.87 L20.74 4.9 L33.09 1.87" stroke="none" stroke-width="0" fill="#fff"></path><path d="M32 0 M32 0 C521.71 8.97, 1012.49 11.16, 1388 0 M32 0 C416.46 4.58, 802.59 4.49, 1388 0 M1388 0 C1409.34 2.86, 1416.18 9.68, 1420 32 M1388 0 C1409.33 1.76, 1416.75 6.24, 1420 32 M1420 32 C1414.93 325.75, 1414.12 622.48, 1420 808 M1420 32 C1416.83 244.8, 1418.3 456.7, 1420 808 M1420 808 C1421.39 830.27, 1407.72 840.2, 1388 840 M1420 808 C1417.69 827.25, 1405.69 839.52, 1388 840 M1388 840 C995.4 843.21, 603.34 843.3, 32 840 M1388 840 C1025.01 847.94, 662.03 847.77, 32 840 M32 840 C10.98 836.54, 3.03 826.95, 0 808 M32 840 C9.84 838.2, -3 831.48, 0 808 M0 808 C-4.09 576.49, -4.03 342.94, 0 32 M0 808 C4.07 529.79, 3.82 250.69, 0 32 M0 32 C1.05 14.09, 14.04 -1.08, 32 0 M0 32 C2.75 10.16, 13.94 1.92, 32 0" stroke="#1e1e1e" stroke-width="4" fill="none"></path></g><g stroke-linecap="round" transform="translate(90 50) rotate(0 160 78.5)"><path d="M132.45 1.23 C149.36 -1.06, 170.49 0.85, 188.14 2.44 C205.8 4.03, 222.88 6.82, 238.39 10.76 C253.9 14.7, 269.05 19.54, 281.2 26.06 C293.35 32.57, 304.93 41.37, 311.28 49.86 C317.62 58.35, 319.35 68.09, 319.28 76.99 C319.2 85.89, 317.16 94.55, 310.83 103.25 C304.5 111.95, 292.73 121.76, 281.31 129.22 C269.89 136.67, 257.89 143.37, 242.33 148 C226.77 152.62, 206.22 155.39, 187.95 156.94 C169.67 158.49, 150.45 159.17, 132.7 157.29 C114.95 155.41, 97.03 150.3, 81.45 145.67 C65.88 141.03, 51.29 136.07, 39.22 129.48 C27.15 122.89, 15.25 114.69, 9.03 106.13 C2.82 97.58, 1.57 87.14, 1.93 78.17 C2.29 69.2, 5.04 60.94, 11.19 52.3 C17.33 43.67, 27.62 33.03, 38.8 26.38 C49.98 19.73, 58.25 17.09, 78.24 12.41 C98.23 7.72, 141.64 -0.04, 158.73 -1.71 C175.83 -3.39, 181.1 0.76, 180.82 2.35 M34.9 28.09 C43.3 20.93, 56.51 16.39, 71.39 11.93 C86.27 7.47, 106.2 3.23, 124.18 1.32 C142.16 -0.6, 160.72 -0.38, 179.28 0.44 C197.84 1.25, 219.66 2.24, 235.52 6.22 C251.38 10.2, 262.34 17.16, 274.44 24.29 C286.53 31.42, 300.7 40.78, 308.09 49 C315.48 57.22, 318.03 65.02, 318.77 73.62 C319.5 82.22, 317.58 91.55, 312.51 100.6 C307.44 109.65, 298.89 120.12, 288.33 127.9 C277.78 135.69, 264.8 142.84, 249.18 147.33 C233.57 151.81, 213.28 153.59, 194.65 154.8 C176.03 156.01, 154.93 156.15, 137.43 154.58 C119.93 153.01, 105.36 149.43, 89.63 145.37 C73.9 141.32, 55.41 136.4, 43.04 130.25 C30.67 124.1, 22.44 115.98, 15.42 108.49 C8.4 101, 2.71 93.81, 0.91 85.28 C-0.88 76.76, -0.14 66.81, 4.66 57.33 C9.46 47.84, 24.16 32.55, 29.71 28.37 C35.26 24.19, 35.69 30.83, 37.97 32.26" stroke="none" stroke-width="0" fill="#ffc9c9"></path><path d="M106.23 4.97 C121.97 1.19, 143.47 1.79, 161.79 1.85 C180.11 1.9, 198.83 2.52, 216.15 5.27 C233.46 8.02, 251.97 12.8, 265.68 18.33 C279.39 23.86, 289.81 30.68, 298.41 38.45 C307.01 46.22, 314.46 55.57, 317.28 64.95 C320.1 74.34, 318.44 85.9, 315.31 94.76 C312.18 103.62, 307.65 110.85, 298.51 118.12 C289.36 125.4, 274.75 132.79, 260.43 138.41 C246.1 144.03, 229.57 149.05, 212.57 151.84 C195.56 154.63, 176.61 154.92, 158.42 155.15 C140.22 155.38, 120.36 156.01, 103.41 153.21 C86.46 150.42, 70.44 144.28, 56.73 138.4 C43.03 132.52, 30.12 126.16, 21.16 117.93 C12.2 109.71, 6.15 98.36, 2.98 89.05 C-0.19 79.73, -1.13 70.34, 2.13 62.05 C5.39 53.76, 13.1 46.61, 22.53 39.31 C31.96 32.02, 38.41 25.09, 58.73 18.28 C79.05 11.46, 123.49 1.02, 144.43 -1.56 C165.36 -4.13, 183.82 1.2, 184.35 2.82 M265.01 20.42 C279.85 24.72, 288.61 30.39, 297.85 37.58 C307.08 44.77, 317.47 54.13, 320.44 63.59 C323.4 73.04, 319.87 85.21, 315.64 94.32 C311.41 103.44, 303.97 110.85, 295.06 118.26 C286.14 125.66, 276.16 132.73, 262.13 138.75 C248.09 144.77, 228.82 151.31, 210.86 154.39 C192.91 157.46, 171.98 158.13, 154.4 157.2 C136.81 156.28, 121.73 151.95, 105.34 148.82 C88.94 145.69, 70.45 143.79, 56.03 138.43 C41.61 133.08, 28.09 124.86, 18.82 116.68 C9.56 108.51, 3.49 98.31, 0.45 89.39 C-2.59 80.47, -3.12 71.91, 0.57 63.18 C4.26 54.45, 12.56 44.59, 22.57 37.04 C32.59 29.49, 46.89 23.03, 60.65 17.87 C74.42 12.7, 88.57 9.18, 105.16 6.04 C121.76 2.9, 141.17 -1.15, 160.22 -0.95 C179.27 -0.75, 201.84 3.47, 219.45 7.24 C237.06 11.02, 258.33 19.2, 265.87 21.7 C273.4 24.2, 266.52 22.11, 264.67 22.26" stroke="#fa5252" stroke-width="4" fill="none"></path></g><g transform="translate(154.94104001015148 106.89211767685629) rotate(0 94.921875 21.600000000000364)"><text x="94.921875" y="0" font-family="Cascadia, Segoe UI Emoji" font-size="36px" fill="#1e1e1e" text-anchor="middle" style="white-space: pre;" direction="ltr" dominant-baseline="text-before-edge">Consumer1</text></g><g stroke-linecap="round" transform="translate(110 250) rotate(0 160 78.5)"><path d="M157.04 0.42 C174.01 -1.42, 194.38 0.05, 211.96 2.69 C229.53 5.34, 248.35 10.53, 262.5 16.29 C276.65 22.05, 287.69 29.61, 296.85 37.26 C306.01 44.9, 314.23 53.07, 317.45 62.15 C320.68 71.22, 318.89 82.3, 316.19 91.7 C313.49 101.11, 309.98 110.68, 301.25 118.6 C292.52 126.51, 277.96 133.41, 263.81 139.2 C249.66 144.99, 233.19 150.55, 216.35 153.35 C199.52 156.15, 180.79 156.09, 162.81 156.01 C144.83 155.92, 125.97 155.56, 108.47 152.85 C90.97 150.13, 71.83 145.53, 57.81 139.71 C43.79 133.89, 33.23 125.63, 24.36 117.91 C15.49 110.19, 7.97 102.41, 4.57 93.41 C1.16 84.4, 1.47 72.5, 3.92 63.9 C6.38 55.3, 10.37 49.58, 19.32 41.81 C28.27 34.03, 43.74 23.38, 57.62 17.26 C71.49 11.15, 78.8 7.57, 102.58 5.12 C126.37 2.66, 178.04 1.56, 200.33 2.52 C222.63 3.48, 237.34 9.34, 236.37 10.87 M25.55 35.1 C33.08 27.37, 48.02 21.31, 63.05 15.63 C78.07 9.94, 98.63 3.72, 115.71 0.99 C132.78 -1.74, 147.59 -1.77, 165.5 -0.73 C183.4 0.31, 206.06 3.74, 223.16 7.21 C240.26 10.68, 254.92 14.33, 268.09 20.1 C281.27 25.86, 293.61 33.33, 302.2 41.8 C310.79 50.27, 316.95 61.38, 319.63 70.92 C322.32 80.46, 322.71 90.68, 318.32 99.03 C313.93 107.38, 304.06 114.29, 293.29 121.02 C282.51 127.75, 267.64 134.46, 253.66 139.39 C239.69 144.32, 226.39 147.96, 209.44 150.6 C192.5 153.25, 170.17 155.32, 151.98 155.27 C133.8 155.21, 117.09 153.02, 100.35 150.28 C83.62 147.54, 65.82 144.5, 51.59 138.81 C37.36 133.11, 23.83 125.04, 14.97 116.13 C6.11 107.22, -0.27 94.53, -1.59 85.35 C-2.91 76.18, 2.77 69.15, 7.03 61.06 C11.28 52.98, 20.42 41.42, 23.96 36.85 C27.51 32.28, 26.21 32.8, 28.29 33.65" stroke="none" stroke-width="0" fill="#ffc9c9"></path><path d="M209.13 4.05 C226.65 5.09, 245.7 10.79, 259.95 16 C274.2 21.21, 285.31 27.74, 294.64 35.3 C303.97 42.86, 312.28 52.05, 315.93 61.36 C319.58 70.67, 318.84 82.23, 316.55 91.16 C314.26 100.09, 310.58 107.47, 302.18 114.95 C293.77 122.43, 279.86 130.11, 266.09 136.04 C252.32 141.98, 236.24 147.38, 219.54 150.56 C202.83 153.74, 184.04 154.48, 165.86 155.12 C147.67 155.77, 127.65 156.83, 110.42 154.43 C93.19 152.03, 76.72 146.28, 62.47 140.72 C48.22 135.16, 34.62 129.09, 24.93 121.08 C15.24 113.07, 8.34 101.88, 4.33 92.64 C0.33 83.4, -1.52 74, 0.9 65.65 C3.32 57.29, 10.16 49.99, 18.86 42.49 C27.55 34.99, 39.57 27.11, 53.07 20.64 C66.57 14.18, 82.67 7.08, 99.86 3.71 C117.05 0.34, 134.67 -0.18, 156.2 0.44 C177.73 1.07, 214.26 5.63, 229.04 7.47 C243.82 9.3, 246.25 10.28, 244.87 11.46 M222.21 3.03 C239.34 5.68, 252.72 14.63, 265.55 20.94 C278.37 27.25, 290.09 33.26, 299.15 40.89 C308.21 48.52, 317.2 57.48, 319.9 66.73 C322.61 75.99, 319.84 87.49, 315.36 96.41 C310.87 105.33, 302.01 113.43, 293.01 120.26 C284 127.08, 275.07 131.76, 261.34 137.36 C247.61 142.96, 228.61 150.55, 210.61 153.84 C192.61 157.13, 172 157.75, 153.34 157.11 C134.69 156.46, 115.79 153.37, 98.68 149.95 C81.57 146.53, 64.03 142.49, 50.66 136.57 C37.3 130.64, 26.45 122.19, 18.48 114.41 C10.52 106.62, 5.84 98.28, 2.88 89.88 C-0.09 81.48, -2.45 73, 0.67 64.02 C3.79 55.04, 11.15 43.55, 21.61 35.99 C32.07 28.44, 48.5 23.65, 63.44 18.7 C78.39 13.75, 93.99 9.1, 111.28 6.29 C128.58 3.48, 149.08 2.38, 167.21 1.84 C185.33 1.31, 211.1 2.51, 220.04 3.09 C228.99 3.68, 222.01 3.91, 220.89 5.36" stroke="#fa5252" stroke-width="4" fill="none"></path></g><g transform="translate(174.94104001015148 306.8921176768563) rotate(0 94.921875 21.600000000000364)"><text x="94.921875" y="0" font-family="Cascadia, Segoe UI Emoji" font-size="36px" fill="#1e1e1e" text-anchor="middle" style="white-space: pre;" direction="ltr" dominant-baseline="text-before-edge">Consumer2</text></g><g stroke-linecap="round" transform="translate(110 450) rotate(0 160 78.5)"><path d="M194.3 0.24 C211.81 0.89, 228.63 6.05, 243.95 10.73 C259.27 15.42, 275.16 21.02, 286.23 28.35 C297.31 35.68, 304.51 45.62, 310.41 54.7 C316.31 63.79, 322.04 73.8, 321.62 82.86 C321.19 91.91, 315 100.78, 307.86 109.04 C300.72 117.29, 290.74 126.1, 278.78 132.4 C266.81 138.69, 251.91 142.78, 236.07 146.79 C220.23 150.8, 202.08 154.99, 183.74 156.48 C165.39 157.97, 143.76 157.76, 126.01 155.76 C108.26 153.75, 92.3 149.19, 77.26 144.43 C62.22 139.67, 47.04 134.46, 35.78 127.21 C24.52 119.95, 15.84 109.17, 9.7 100.9 C3.56 92.62, -1.69 86.45, -1.05 77.54 C-0.41 68.63, 6.7 56.01, 13.56 47.43 C20.43 38.85, 28.3 32.44, 40.16 26.07 C52.02 19.7, 68.81 13.58, 84.74 9.21 C100.67 4.83, 113.3 0.1, 135.75 -0.18 C158.2 -0.45, 201.46 5.42, 219.42 7.58 C237.39 9.74, 244.32 11.88, 243.54 12.79 M128.46 -0.64 C144.49 -3.76, 160.85 -1.9, 178.62 -0.13 C196.38 1.65, 218.61 5.84, 235.06 9.98 C251.52 14.12, 265.24 18.41, 277.35 24.7 C289.46 30.98, 300.47 38.9, 307.7 47.68 C314.92 56.46, 319.51 67.77, 320.7 77.37 C321.89 86.96, 320.67 97.11, 314.83 105.27 C308.99 113.42, 297.66 119.99, 285.66 126.29 C273.66 132.59, 257.65 138.74, 242.82 143.07 C227.99 147.39, 214.02 150.3, 196.69 152.24 C179.37 154.17, 156.91 155.45, 138.86 154.66 C120.82 153.88, 104.54 150.92, 88.45 147.51 C72.36 144.1, 55.49 140.42, 42.33 134.21 C29.17 128, 16.97 119.47, 9.48 110.25 C1.98 101.03, -2.83 88.15, -2.65 78.91 C-2.48 69.67, 4.81 62.72, 10.52 54.83 C16.22 46.94, 20.95 39.18, 31.59 31.58 C42.23 23.97, 59.08 13.82, 74.35 9.18 C89.62 4.54, 114.6 4.31, 123.21 3.72 C131.82 3.13, 125.38 5.12, 126.02 5.64" stroke="none" stroke-width="0" fill="#ffc9c9"></path><path d="M167.67 -1.73 C184.83 -2.52, 205.74 1.18, 222.43 5.26 C239.11 9.34, 254.19 16.55, 267.79 22.75 C281.39 28.96, 295.62 34.9, 304.05 42.49 C312.47 50.07, 316.38 59.4, 318.36 68.26 C320.34 77.12, 319.85 87.07, 315.91 95.64 C311.96 104.21, 304.65 111.84, 294.7 119.69 C284.75 127.54, 270.72 137, 256.2 142.75 C241.68 148.51, 224.98 151.65, 207.6 154.21 C190.22 156.77, 170.2 159.02, 151.9 158.11 C133.61 157.19, 114.88 152.75, 97.84 148.74 C80.8 144.73, 63.13 139.68, 49.65 134.05 C36.18 128.42, 25.13 122.55, 16.99 114.95 C8.85 107.34, 3.04 97.81, 0.8 88.42 C-1.45 79.04, -0.93 67.39, 3.49 58.63 C7.92 49.87, 17.08 43.05, 27.36 35.88 C37.64 28.71, 50.54 21.36, 65.2 15.62 C79.85 9.88, 92.39 3.55, 115.28 1.43 C138.18 -0.69, 182.73 1.61, 202.58 2.9 C222.43 4.19, 235.33 7.63, 234.38 9.16 M33.9 28.22 C43.38 20.58, 63.67 14.51, 79.48 10.32 C95.3 6.12, 111.55 4.57, 128.77 3.05 C145.98 1.54, 164.09 0.56, 182.75 1.22 C201.41 1.88, 224.16 2.56, 240.72 7 C257.28 11.44, 270.84 20.59, 282.11 27.88 C293.38 35.17, 302.27 42.72, 308.33 50.74 C314.4 58.76, 318.4 67.13, 318.47 76 C318.54 84.88, 314.54 95.45, 308.75 103.96 C302.96 112.48, 294.64 120.02, 283.73 127.08 C272.82 134.13, 259.37 141.25, 243.29 146.3 C227.22 151.35, 205.83 155.92, 187.26 157.37 C168.69 158.83, 149.07 156.42, 131.87 155.03 C114.67 153.65, 99.42 152.86, 84.07 149.06 C68.72 145.26, 51.76 139.06, 39.79 132.25 C27.81 125.44, 18.81 117.41, 12.22 108.21 C5.63 99.01, 0.43 86.58, 0.25 77.04 C0.07 67.49, 5.29 59.15, 11.15 50.93 C17.01 42.72, 31.2 31.01, 35.42 27.74 C39.64 24.47, 34.33 30.02, 36.48 31.31" stroke="#fa5252" stroke-width="4" fill="none"></path></g><g transform="translate(174.94104001015148 506.8921176768563) rotate(0 94.921875 21.600000000000364)"><text x="94.921875" y="0" font-family="Cascadia, Segoe UI Emoji" font-size="36px" fill="#1e1e1e" text-anchor="middle" style="white-space: pre;" direction="ltr" dominant-baseline="text-before-edge">Consumer3</text></g><g stroke-linecap="round" transform="translate(110 650) rotate(0 160 78.5)"><path d="M53.58 18.22 C64.66 11.92, 81.67 8.89, 98.85 6.14 C116.03 3.4, 138.23 1.9, 156.66 1.73 C175.09 1.56, 192.4 2.37, 209.41 5.12 C226.42 7.87, 244.14 13.06, 258.71 18.23 C273.27 23.39, 286.93 28.73, 296.81 36.14 C306.68 43.55, 314.49 53.69, 317.94 62.69 C321.39 71.69, 320.01 81.44, 317.51 90.14 C315.01 98.85, 311.12 107.04, 302.95 114.91 C294.77 122.77, 282.05 131.58, 268.44 137.34 C254.83 143.09, 238.69 145.9, 221.26 149.46 C203.84 153.01, 182.11 158.36, 163.9 158.67 C145.7 158.99, 129.29 154.42, 112.01 151.35 C94.73 148.27, 74.9 145.49, 60.23 140.24 C45.56 134.99, 33.79 127.63, 24.01 119.86 C14.23 112.09, 5.57 102.1, 1.54 93.61 C-2.49 85.12, -2.75 77.82, -0.18 68.92 C2.4 60.01, 2.62 50.23, 16.99 40.18 C31.37 30.13, 68.14 14.79, 86.07 8.6 C104 2.41, 123.29 1.6, 124.56 3.07 M44.46 25.49 C54.87 18.44, 71.28 11.63, 87.43 7.29 C103.58 2.95, 122.94 -0.03, 141.37 -0.55 C159.8 -1.08, 179.82 1.4, 198.02 4.13 C216.23 6.87, 235.67 11.31, 250.6 15.87 C265.54 20.43, 277.6 25.09, 287.63 31.5 C297.65 37.91, 304.95 46.2, 310.75 54.33 C316.54 62.45, 322.98 71.28, 322.39 80.25 C321.79 89.21, 314.38 99.48, 307.16 108.11 C299.94 116.73, 291.53 124.75, 279.05 132 C266.56 139.26, 249.46 147.21, 232.25 151.62 C215.04 156.03, 194.51 158.39, 175.8 158.48 C157.1 158.57, 136.86 154.52, 120.02 152.14 C103.18 149.77, 89.81 148.53, 74.74 144.23 C59.68 139.93, 41.01 134.08, 29.62 126.36 C18.23 118.64, 11.77 106.36, 6.42 97.92 C1.07 89.48, -3.51 83.77, -2.48 75.71 C-1.46 67.66, 5.23 58.55, 12.57 49.58 C19.9 40.61, 35.69 25.41, 41.5 21.9 C47.32 18.38, 45.12 26.97, 47.47 28.48" stroke="none" stroke-width="0" fill="#ffc9c9"></path><path d="M30.4 32.71 C39.14 25.25, 58.52 17.29, 74.03 12 C89.54 6.72, 105.87 3.06, 123.47 1.02 C141.07 -1.02, 161.3 -1.2, 179.64 -0.25 C197.98 0.7, 217.2 2.29, 233.5 6.72 C249.8 11.14, 264.9 19.38, 277.44 26.33 C289.98 33.27, 301.51 40.15, 308.72 48.37 C315.94 56.58, 319.84 67.09, 320.72 75.62 C321.59 84.15, 319.59 91.47, 313.97 99.55 C308.36 107.63, 298.21 116.45, 287.05 124.1 C275.88 131.75, 262.23 140.17, 247 145.43 C231.78 150.69, 213.56 154.15, 195.69 155.66 C177.81 157.18, 157.61 155.66, 139.76 154.52 C121.9 153.39, 104.53 152.6, 88.56 148.85 C72.59 145.11, 56.36 138.98, 43.95 132.05 C31.55 125.12, 21.53 115.51, 14.16 107.27 C6.79 99.03, 0.8 91.47, -0.27 82.62 C-1.34 73.76, 1.07 63.37, 7.75 54.14 C14.44 44.91, 32.33 32.8, 39.82 27.22 C47.31 21.64, 50.31 20.27, 52.69 20.66 M121.89 3.77 C137.46 0.78, 157.01 0.48, 175.78 0.74 C194.55 1.01, 217.56 1.29, 234.5 5.38 C251.43 9.48, 265.53 18.3, 277.39 25.32 C289.26 32.35, 298.88 39.67, 305.69 47.54 C312.49 55.41, 317.35 63.7, 318.22 72.56 C319.09 81.41, 315.94 92.05, 310.91 100.68 C305.88 109.31, 298.33 117.06, 288.05 124.35 C277.78 131.65, 264.91 139.08, 249.25 144.46 C233.6 149.85, 212.54 154.81, 194.14 156.65 C175.74 158.49, 156.15 156.5, 138.84 155.51 C121.53 154.51, 106.01 154.13, 90.29 150.68 C74.57 147.23, 57.07 141.36, 44.5 134.81 C31.93 128.27, 22.19 120.46, 14.86 111.41 C7.53 102.35, 1.49 90.02, 0.51 80.49 C-0.47 70.96, 3.89 62.56, 8.98 54.22 C14.08 45.88, 20.92 37.11, 31.1 30.46 C41.28 23.82, 54.76 18.78, 70.08 14.32 C85.41 9.87, 113.74 5.74, 123.02 3.72 C132.3 1.69, 125.04 1.38, 125.77 2.16" stroke="#fa5252" stroke-width="4" fill="none"></path></g><g transform="translate(174.94104001015148 706.8921176768563) rotate(0 94.921875 21.600000000000364)"><text x="94.921875" y="0" font-family="Cascadia, Segoe UI Emoji" font-size="36px" fill="#1e1e1e" text-anchor="middle" style="white-space: pre;" direction="ltr" dominant-baseline="text-before-edge">Consumer4</text></g><g stroke-linecap="round" transform="translate(890 350) rotate(0 250 70)"><path d="M28.3 -1.4 L465.79 -3.62 L484.89 4.37 L490.67 6.95 L497.52 24.81 L498.33 109.74 L494.33 122.87 L490.24 138.4 L469.09 141.87 L34.46 141.92 L14.21 136.51 L1.23 127.2 L2.7 114.86 L1.86 22.99 L4.21 10.37 L18.81 3.92 L32.01 2.86" stroke="none" stroke-width="0" fill="#ffec99"></path><path d="M32 0 M32 0 C121.97 -1.43, 208.44 1.62, 468 0 M32 0 C123.43 -1.44, 216.74 -1.47, 468 0 M468 0 C487.77 2.2, 496.33 10.95, 500 32 M468 0 C493.52 -4.53, 501.6 11.75, 500 32 M500 32 C498.26 48.56, 499.66 71.06, 500 108 M500 32 C498.79 53.43, 498.91 71.85, 500 108 M500 108 C502.74 132.02, 490.47 143.24, 468 140 M500 108 C502.7 132.09, 489.69 136.02, 468 140 M468 140 C303.36 137.89, 141.24 139.18, 32 140 M468 140 C314.24 137.35, 159.18 138.41, 32 140 M32 140 C7.75 138.56, -2.32 129.81, 0 108 M32 140 C6.6 136.06, 1.21 133.26, 0 108 M0 108 C-0.03 81.63, 2.08 47.59, 0 32 M0 108 C0.26 82.07, -0.87 54.07, 0 32 M0 32 C0.65 14.32, 6.82 -2.28, 32 0 M0 32 C3.94 15.19, 6.69 -1.94, 32 0" stroke="#f08c00" stroke-width="2" fill="none"></path></g><g transform="translate(1045.078125 398.39999999999964) rotate(0 94.921875 21.600000000000364)"><text x="94.921875" y="0" font-family="Cascadia, Segoe UI Emoji" font-size="36px" fill="#1e1e1e" text-anchor="middle" style="white-space: pre;" direction="ltr" dominant-baseline="text-before-edge">Partition</text></g><g mask="url(#mask-qkPIDYQFOuBExfsta9Fyr)" stroke-linecap="round"><g transform="translate(410 130) rotate(0 238.8405738733709 119.74144148603045)"><path d="M-0.93 -0.74 C78.5 39.02, 398.65 199.89, 478.61 240.22" stroke="#1e1e1e" stroke-width="4.5" fill="none" stroke-dasharray="8 12"></path></g><g transform="translate(410 130) rotate(0 238.8405738733709 119.74144148603045)"><path d="M447.77 234.73 C460.26 236.55, 472.78 235.85, 479.48 242.95" stroke="#1e1e1e" stroke-width="4.5" fill="none"></path></g><g transform="translate(410 130) rotate(0 238.8405738733709 119.74144148603045)"><path d="M456.99 216.4 C466.27 224.98, 475.36 231.1, 479.48 242.95" stroke="#1e1e1e" stroke-width="4.5" fill="none"></path></g></g><mask id="mask-qkPIDYQFOuBExfsta9Fyr"><rect x="0" y="0" fill="#fff" width="990" height="470"></rect><rect x="592.578125" y="233.20000000000073" fill="#000" width="114.84375" height="33.6" opacity="1"></rect></mask><g transform="translate(592.578125 233.20000000000073) rotate(0 56.262448873370886 16.541441486029726)"><text x="57.421875" y="0" font-family="Cascadia, Segoe UI Emoji" font-size="28px" fill="#1e1e1e" text-anchor="middle" style="white-space: pre;" direction="ltr" dominant-baseline="text-before-edge">Record1</text></g><g mask="url(#mask-zDuy1_-D0ZzjsmVD4qysv)" stroke-linecap="round"><g transform="translate(432.78024952188207 331.42467073425723) rotate(0 226.7404819283629 40.20316403172819)"><path d="M-1.17 1.22 C74.84 14.38, 377.93 65.95, 454.65 79.19" stroke="#1e1e1e" stroke-width="4.5" fill="none" stroke-dasharray="8 12"></path></g><g transform="translate(432.78024952188207 331.42467073425723) rotate(0 226.7404819283629 40.20316403172819)"><path d="M426.87 80.87 C433.38 86.18, 442.8 83.2, 456.52 81.65" stroke="#1e1e1e" stroke-width="4.5" fill="none"></path></g><g transform="translate(432.78024952188207 331.42467073425723) rotate(0 226.7404819283629 40.20316403172819)"><path d="M430.34 60.64 C436.01 70.99, 444.56 73.07, 456.52 81.65" stroke="#1e1e1e" stroke-width="4.5" fill="none"></path></g></g><mask id="mask-zDuy1_-D0ZzjsmVD4qysv"><rect x="0" y="0" fill="#fff" width="990" height="510"></rect><rect x="603.968249760941" y="353.91233536712934" fill="#000" width="114.84375" height="33.6" opacity="1"></rect></mask><g transform="translate(603.968249760941 353.91233536712934) rotate(0 55.55248168930393 17.715499398856082)"><text x="57.421875" y="0" font-family="Cascadia, Segoe UI Emoji" font-size="28px" fill="#1e1e1e" text-anchor="middle" style="white-space: pre;" direction="ltr" dominant-baseline="text-before-edge">Record2</text></g><g mask="url(#mask-jSA-lK10B2IfSNoEzzkSv)" stroke-linecap="round"><g transform="translate(432.2295009352274 529.4396443270161) rotate(0 230.2246970210217 -48.05009822584725)"><path d="M1.91 2.03 C78.77 -14.43, 382.27 -81.44, 458.53 -98.13" stroke="#1e1e1e" stroke-width="4.5" fill="none" stroke-dasharray="8 12"></path></g><g transform="translate(432.2295009352274 529.4396443270161) rotate(0 230.2246970210217 -48.05009822584725)"><path d="M436.1 -80.96 C440.28 -83.28, 445.6 -92.88, 457.05 -101.4" stroke="#1e1e1e" stroke-width="4.5" fill="none"></path></g><g transform="translate(432.2295009352274 529.4396443270161) rotate(0 230.2246970210217 -48.05009822584725)"><path d="M431.7 -101.01 C436.88 -99.22, 443.12 -104.64, 457.05 -101.4" stroke="#1e1e1e" stroke-width="4.5" fill="none"></path></g></g><mask id="mask-jSA-lK10B2IfSNoEzzkSv"><rect x="0" y="0" fill="#fff" width="990" height="728.8792886540305"></rect><rect x="603.6928754676137" y="462.9198221635088" fill="#000" width="114.84375" height="33.6" opacity="1"></rect></mask><g transform="translate(603.6928754676137 462.9198221635088) rotate(0 58.761322488635415 18.469723937660092)"><text x="57.421875" y="0" font-family="Cascadia, Segoe UI Emoji" font-size="28px" fill="#1e1e1e" text-anchor="middle" style="white-space: pre;" direction="ltr" dominant-baseline="text-before-edge">Record3</text></g><g mask="url(#mask-T0uAbIDoLGv3OiPNYVXjf)" stroke-linecap="round"><g transform="translate(428.2756904818125 731.0638982653618) rotate(0 230.3449056457721 -129.85957290045917)"><path d="M1.72 1.34 C78.09 -42.38, 382.7 -217.47, 458.97 -261.06" stroke="#1e1e1e" stroke-width="4.5" fill="none" stroke-dasharray="8 12"></path></g><g transform="translate(428.2756904818125 731.0638982653618) rotate(0 230.3449056457721 -129.85957290045917)"><path d="M441.53 -241.93 C444.24 -249.16, 451.76 -251.18, 458.33 -259.71" stroke="#1e1e1e" stroke-width="4.5" fill="none"></path></g><g transform="translate(428.2756904818125 731.0638982653618) rotate(0 230.3449056457721 -129.85957290045917)"><path d="M431.33 -259.73 C437.54 -261.26, 448.4 -257.46, 458.33 -259.71" stroke="#1e1e1e" stroke-width="4.5" fill="none"></path></g></g><mask id="mask-T0uAbIDoLGv3OiPNYVXjf"><rect x="0" y="0" fill="#fff" width="989.8949811056264" height="1091.0861961461596"></rect><rect x="601.6634607937194" y="584.2527493249636" fill="#000" width="114.84375" height="33.6" opacity="1"></rect></mask><g transform="translate(601.6634607937194 584.2527493249636) rotate(0 56.95713533386515 16.951576039939027)"><text x="57.421875" y="0" font-family="Cascadia, Segoe UI Emoji" font-size="28px" fill="#1e1e1e" text-anchor="middle" style="white-space: pre;" direction="ltr" dominant-baseline="text-before-edge">Record4</text></g></svg>