<svg version="1.1" xmlns="http://www.w3.org/2000/svg" viewBox="0 0 1620 660" width="1620" height="660">
  <!-- svg-source:excalidraw -->
  
  <defs>
    <style class="style-fonts">
      @font-face {
        font-family: "Virgil";
        src: url("https://excalidraw.com/Virgil.woff2");
      }
      @font-face {
        font-family: "Cascadia";
        src: url("https://excalidraw.com/Cascadia.woff2");
      }
    </style>
    
  </defs>
  <rect x="0" y="0" width="1620" height="660" fill="#ffffff"></rect><g stroke-linecap="round" transform="translate(670 10) rotate(0 470 320)"><path d="M31.05 -3.75 L911.21 2.82 L927.29 7.56 L938.72 16.4 L941.54 35.05 L941.58 611.78 L937.8 625.13 L927.47 638.67 L909.47 640.8 L29.48 643.41 L12.29 634.72 L0.54 620.45 L-0.58 608.15 L-3.02 30.88 L5.85 17.5 L7.99 7.91 L19.97 -0.21 L28.16 -2.63" stroke="none" stroke-width="0" fill="#fff"></path><path d="M32 0 M32 0 C297.11 -6.91, 559.39 -7.15, 908 0 M32 0 C295.2 5.52, 558.67 5.63, 908 0 M908 0 C929.21 2.06, 937.15 13.93, 940 32 M908 0 C932.2 -3.38, 941.14 11.95, 940 32 M940 32 C941.93 242.68, 939.48 451.41, 940 608 M940 32 C942.19 184.15, 940.72 337.92, 940 608 M940 608 C937.94 629.05, 927.34 641.99, 908 640 M940 608 C942.64 628.72, 926.84 639.98, 908 640 M908 640 C684.63 641.79, 459.3 642.3, 32 640 M908 640 C612.68 642.28, 317.7 642.66, 32 640 M32 640 C11.79 642.54, -2.69 630.99, 0 608 M32 640 C10.09 638.06, -0.1 628.49, 0 608 M0 608 C-0.79 390.79, -0.56 173.47, 0 32 M0 608 C4.01 428.8, 3.22 249.75, 0 32 M0 32 C-1.27 11.42, 11.88 -1.27, 32 0 M0 32 C-3.57 6.71, 13.47 0.77, 32 0" stroke="#1e1e1e" stroke-width="4" fill="none"></path></g><g stroke-linecap="round" transform="translate(10 70) rotate(0 120 260)"><path d="M28.72 -0.89 L216.35 3.73 L233.61 9.67 L241.6 21.76 L236.23 35.66 L240.44 489.64 L238.96 508.77 L219.57 516.75 L210.84 516.08 L26.35 517.86 L14.99 518.53 L-1.29 499.11 L-0.79 490.45 L-1.75 33 L4.38 14.03 L7.18 9.41 L20.02 0.84 L32.82 -0.89" stroke="none" stroke-width="0" fill="#e9ecef"></path><path d="M32 0 M32 0 C84.49 0.45, 143.85 1.25, 208 0 M32 0 C68.86 -0.2, 104.74 1.73, 208 0 M208 0 C228.5 2.1, 241.86 9.88, 240 32 M208 0 C227.37 -2.58, 237.47 14.06, 240 32 M240 32 C240.11 207.91, 241.84 380.73, 240 488 M240 32 C238.83 172.14, 238.46 310.33, 240 488 M240 488 C236.17 507.25, 226.57 521.15, 208 520 M240 488 C236.78 512.01, 231.16 515.85, 208 520 M208 520 C140.14 521.36, 65.86 519.7, 32 520 M208 520 C143.29 522.73, 78.95 519.68, 32 520 M32 520 C14.18 523.14, -3.09 509.59, 0 488 M32 520 C6.18 518.56, 4.07 512.2, 0 488 M0 488 C-0.56 308.39, -0.17 128.8, 0 32 M0 488 C-2.71 315.73, -3.75 143.05, 0 32 M0 32 C-2.5 9.55, 8.09 0.29, 32 0 M0 32 C-4.58 11.98, 12.29 1.74, 32 0" stroke="#000000" stroke-width="4" fill="none"></path></g><g transform="translate(76 308.39999999999964) rotate(0 54 21.600000000000364)"><text x="54" y="0" font-family="Cascadia, Segoe UI Emoji" font-size="36px" fill="#000000" text-anchor="middle" style="white-space: pre;" direction="ltr" dominant-baseline="text-before-edge">消费端</text></g><g stroke-linecap="round" transform="translate(770 90) rotate(0 120 260)"><path d="M31.75 -1.18 L212.99 2.98 L229.47 7.9 L239.37 15.64 L240.7 28.8 L238.05 487.77 L231.88 508.48 L218.19 519.64 L208.84 520.52 L22.27 520.16 L16.27 515.64 L0.2 500.84 L0.25 485.17 L2.22 34.83 L0.73 15.56 L7.98 7.9 L15.02 1.91 L30.98 -2.06" stroke="none" stroke-width="0" fill="#ffc9c9"></path><path d="M32 0 M32 0 C78.91 3.12, 122.75 -2.47, 208 0 M32 0 C102.55 3.03, 168.39 1.06, 208 0 M208 0 C227.07 -0.3, 237.76 13.73, 240 32 M208 0 C233.62 3.39, 242.55 8.8, 240 32 M240 32 C241.18 134.51, 238.78 235.33, 240 488 M240 32 C239.21 136.89, 238.02 241.69, 240 488 M240 488 C237.88 511.29, 225.99 516.21, 208 520 M240 488 C244.23 508.24, 231.89 521.06, 208 520 M208 520 C142.72 516.37, 78.28 521.19, 32 520 M208 520 C156.8 515.83, 102.09 517.85, 32 520 M32 520 C10.02 519.93, 1.24 511.01, 0 488 M32 520 C12.48 517.16, -0.47 511.8, 0 488 M0 488 C1.23 361.68, 0.49 234.98, 0 32 M0 488 C1.35 356.65, 1 224.08, 0 32 M0 32 C0.8 11.79, 10.46 0.43, 32 0 M0 32 C3.56 11.96, 7.35 3.19, 32 0" stroke="#e95d8e" stroke-width="4" fill="none"></path></g><g transform="translate(818 328.39999999999964) rotate(0 72 21.600000000000364)"><text x="72" y="0" font-family="Cascadia, Segoe UI Emoji" font-size="36px" fill="#1e1e1e" text-anchor="middle" style="white-space: pre;" direction="ltr" dominant-baseline="text-before-edge">网络模块</text></g><g mask="url(#mask-etW2aFEkFO_LCQQj79L3s)" stroke-linecap="round"><g transform="translate(250 150) rotate(0 210.49203751221285 0.4427626557644544)"><path d="M2.43 0.83 C72.12 0.21, 351.35 -0.54, 420.67 -1.01 M0.31 -1.18 C69.45 -0.23, 348.13 1.86, 418.8 2.07" stroke="#1e1e1e" stroke-width="4" fill="none"></path></g><g transform="translate(250 150) rotate(0 210.49203751221285 0.4427626557644544)"><path d="M391.74 13.13 C399.98 5.39, 409.67 2.18, 415.37 4.15 M390.7 11.94 C398.64 10.5, 407.47 3.97, 419.62 1.07" stroke="#1e1e1e" stroke-width="4" fill="none"></path></g><g transform="translate(250 150) rotate(0 210.49203751221285 0.4427626557644544)"><path d="M391.86 -7.39 C400.45 -7.09, 410.1 -2.26, 415.37 4.15 M390.82 -8.58 C398.75 -3.97, 407.55 -4.44, 419.62 1.07" stroke="#1e1e1e" stroke-width="4" fill="none"></path></g></g><mask id="mask-etW2aFEkFO_LCQQj79L3s"><rect x="0" y="0" fill="#fff" width="770" height="250"></rect><rect x="404" y="133.20000000000073" fill="#000" width="112" height="33.6" opacity="1"></rect></mask><g transform="translate(404 133.20000000000073) rotate(0 56.492037512212846 17.242762655763727)"><text x="56" y="0" font-family="Cascadia, Segoe UI Emoji" font-size="28px" fill="#1e1e1e" text-anchor="middle" style="white-space: pre;" direction="ltr" dominant-baseline="text-before-edge">消费请求</text></g><g stroke-linecap="round" transform="translate(1070 110) rotate(0 230 40)"><path d="M23.74 -0.33 L443.16 3.58 L456.66 7.02 L460.07 11.61 L456.94 65.23 L454.82 74.92 L445.41 74.92 L439.45 80.58 L17.97 82.93 L6.1 79.54 L-0.11 70.19 L3.04 18.62 L-2.13 11.09 L2.05 5.14 L8.51 -1.86 L16.26 3.05" stroke="none" stroke-width="0" fill="#ffd8a8"></path><path d="M20 0 M20 0 C121.5 -1.31, 226.14 -2.87, 440 0 M20 0 C109.34 3.87, 197.85 3.49, 440 0 M440 0 C455.61 -0.59, 462.62 10.47, 460 20 M440 0 C454.26 -0.67, 464.32 3.4, 460 20 M460 20 C460.49 33.88, 462.12 44.54, 460 60 M460 20 C459.79 33.17, 459.71 43.62, 460 60 M460 60 C458.64 76.04, 454.16 81.38, 440 80 M460 60 C462.16 77.58, 454.94 77.39, 440 80 M440 80 C311.33 78.62, 182.19 80.98, 20 80 M440 80 C321.55 81.46, 204.04 80.57, 20 80 M20 80 C4.98 80.66, -1.74 70, 0 60 M20 80 C8.18 77.85, 0.61 70.56, 0 60 M0 60 C0.8 46.48, -3.39 32.17, 0 20 M0 60 C-1.61 48, 0.83 33.2, 0 20 M0 20 C1.58 2.8, 6.6 -1.31, 20 0 M0 20 C1.31 8.57, 7.12 -3.13, 20 0" stroke="#f08c00" stroke-width="4" fill="none"></path></g><g transform="translate(1226.171875 128.39999999999964) rotate(0 73.828125 21.600000000000364)"><text x="73.828125" y="0" font-family="Cascadia, Segoe UI Emoji" font-size="36px" fill="#1e1e1e" text-anchor="middle" style="white-space: pre;" direction="ltr" dominant-baseline="text-before-edge">Topic 1</text></g><g stroke-linecap="round" transform="translate(1070 230) rotate(0 230 40)"><path d="M16.67 1.32 L442.82 0.84 L452.59 5.45 L456.42 11.21 L460.02 63.63 L451.15 72.08 L450.23 79.35 L439.82 77.03 L18.29 81.59 L8.15 78.77 L-2.62 68.69 L-1.31 21.14 L2.91 11.65 L2.28 3.71 L8.87 2.87 L19.85 1.96" stroke="none" stroke-width="0" fill="#e7f5ff"></path><path d="M20 0 M20 0 C139.97 -6.1, 262.38 -4.57, 440 0 M20 0 C137.66 -3.06, 255.29 -2.2, 440 0 M440 0 C450.71 2.42, 462.78 3.37, 460 20 M440 0 C449.22 -1.64, 457.57 9.59, 460 20 M460 20 C458.87 33.05, 456.81 53.29, 460 60 M460 20 C458.17 30.21, 459.18 37.39, 460 60 M460 60 C462.36 73.76, 452.65 79.25, 440 80 M460 60 C459.03 72.05, 452.38 75.7, 440 80 M440 80 C331.5 83.99, 220.83 84.64, 20 80 M440 80 C308.11 76.55, 175.32 78.57, 20 80 M20 80 C8.05 82.9, -2.96 69.91, 0 60 M20 80 C3.36 78.57, 4.46 75.13, 0 60 M0 60 C-3.37 52.81, 3.64 40.06, 0 20 M0 60 C-0.42 51.24, -0.86 40.13, 0 20 M0 20 C0.72 5.93, 3.51 2.6, 20 0 M0 20 C-2.77 3.05, 3.69 2.41, 20 0" stroke="#4dabf7" stroke-width="4" fill="none"></path></g><g transform="translate(1226.171875 248.39999999999964) rotate(0 73.828125 21.600000000000364)"><text x="73.828125" y="0" font-family="Cascadia, Segoe UI Emoji" font-size="36px" fill="#1e1e1e" text-anchor="middle" style="white-space: pre;" direction="ltr" dominant-baseline="text-before-edge">Topic 2</text></g><g stroke-linecap="round" transform="translate(1070 350) rotate(0 230 40)"><path d="M20.36 2.82 L446.28 0.89 L457.04 2.85 L459.55 7.31 L457.93 68.35 L456.39 77.9 L445.79 75.33 L437.13 78.76 L19.19 81.25 L6.96 75.09 L-1.17 64.96 L3.95 23.22 L3.6 9.96 L6.44 3.24 L10.99 5.16 L18.86 3.11" stroke="none" stroke-width="0" fill="#e7f5ff"></path><path d="M20 0 M20 0 C154.91 2.25, 285.37 2.15, 440 0 M20 0 C169.09 -0.6, 315.88 -0.98, 440 0 M440 0 C450.53 -2.14, 459.49 3.96, 460 20 M440 0 C452.55 -4.55, 463.11 8.03, 460 20 M460 20 C456.73 31.33, 460.1 43.72, 460 60 M460 20 C459.78 31.42, 460.95 45.62, 460 60 M460 60 C457.54 75.89, 451.07 76.52, 440 80 M460 60 C463.36 77.03, 456.59 82.46, 440 80 M440 80 C321.88 81.1, 207.83 80.94, 20 80 M440 80 C285.1 83.4, 131.69 81.87, 20 80 M20 80 C7.13 77.98, 0.65 70.18, 0 60 M20 80 C9.17 82.69, -2.6 72.31, 0 60 M0 60 C1.43 45.17, -2.2 32.58, 0 20 M0 60 C0.15 50.33, 0 42.04, 0 20 M0 20 C2.54 2.88, 4.08 -3.14, 20 0 M0 20 C-1.56 9.81, 3.35 -4.09, 20 0" stroke="#4dabf7" stroke-width="4" fill="none"></path></g><g transform="translate(1226.171875 368.39999999999964) rotate(0 73.828125 21.600000000000364)"><text x="73.828125" y="0" font-family="Cascadia, Segoe UI Emoji" font-size="36px" fill="#1e1e1e" text-anchor="middle" style="white-space: pre;" direction="ltr" dominant-baseline="text-before-edge">Topic 3</text></g><g stroke-linecap="round" transform="translate(1070 470) rotate(0 230 40)"><path d="M20.91 -3.22 L441.09 1.15 L452.03 8.18 L458.37 8.79 L462.25 62.42 L451.52 77.92 L451.96 81.58 L442.14 79.05 L16.63 81.92 L3.92 74.57 L1.09 65.82 L2.7 18.73 L3.61 9.1 L7.82 6.29 L8.34 1.72 L17.98 0.65" stroke="none" stroke-width="0" fill="#e7f5ff"></path><path d="M20 0 M20 0 C111.72 -3.09, 206.71 -1.2, 440 0 M20 0 C133.85 1.32, 247.56 2.19, 440 0 M440 0 C454.72 1.53, 456.86 7.89, 460 20 M440 0 C449.28 2.92, 455.65 3.69, 460 20 M460 20 C456.85 25.3, 458.78 39.35, 460 60 M460 20 C461.72 29.24, 460.3 40.67, 460 60 M460 60 C460.52 70.44, 452.03 78.63, 440 80 M460 60 C457.77 70.48, 456.24 79.63, 440 80 M440 80 C325.84 75.9, 207.36 77.03, 20 80 M440 80 C271.73 76.87, 104.06 76.1, 20 80 M20 80 C4.62 82.32, -2.25 72.17, 0 60 M20 80 C5.24 77.86, -2.78 72.56, 0 60 M0 60 C2.33 46.65, 1.39 37.65, 0 20 M0 60 C0.32 50.79, -0.13 39.27, 0 20 M0 20 C-2.71 7.76, 6.29 -1.34, 20 0 M0 20 C-1.81 8.78, 6.34 -2.11, 20 0" stroke="#4dabf7" stroke-width="4" fill="none"></path></g><g transform="translate(1236.71875 488.39999999999964) rotate(0 63.28125 21.600000000000364)"><text x="63.28125" y="0" font-family="Cascadia, Segoe UI Emoji" font-size="36px" fill="#1e1e1e" text-anchor="middle" style="white-space: pre;" direction="ltr" dominant-baseline="text-before-edge">......</text></g><g transform="translate(1050 30) rotate(0 63.28125 21.600000000000364)"><text x="0" y="0" font-family="Cascadia, Segoe UI Emoji" font-size="36px" fill="#1e1e1e" text-anchor="start" style="white-space: pre;" direction="ltr" dominant-baseline="text-before-edge">Broker</text></g><g mask="url(#mask-zJe99Up_fVIRAo3YyXkra)" stroke-linecap="round"><g transform="translate(251.95503269091205 266.7999999999993) rotate(0 210.8699845348301 0.30348077192866185)"><path d="M0.97 -1.84 C71.03 -1.6, 348.57 1.6, 418.25 1.48 M-1.96 3.34 C69.21 2.74, 353.92 -2.03, 423.7 -2.73" stroke="#1e1e1e" stroke-width="4" fill="none"></path></g><g transform="translate(251.95503269091205 266.7999999999993) rotate(0 210.8699845348301 0.30348077192866185)"><path d="M393.02 5.41 C404.05 3.96, 404.57 6.61, 420.62 -0.38 M394.27 6.29 C402.19 6.36, 408.89 3.16, 424.21 -2.12" stroke="#1e1e1e" stroke-width="4" fill="none"></path></g><g transform="translate(251.95503269091205 266.7999999999993) rotate(0 210.8699845348301 0.30348077192866185)"><path d="M392.74 -15.11 C403.83 -11.96, 404.42 -4.7, 420.62 -0.38 M393.99 -14.23 C401.62 -8.92, 408.39 -6.87, 424.21 -2.12" stroke="#1e1e1e" stroke-width="4" fill="none"></path></g></g><mask id="mask-zJe99Up_fVIRAo3YyXkra"><rect x="0" y="0" fill="#fff" width="771.955032690912" height="366.7999999999993"></rect><rect x="405.95503269091205" y="250" fill="#000" width="112" height="33.6" opacity="1"></rect></mask><g transform="translate(405.95503269091205 250) rotate(0 56.86998453483011 17.103480771927934)"><text x="56" y="0" font-family="Cascadia, Segoe UI Emoji" font-size="28px" fill="#1e1e1e" text-anchor="middle" style="white-space: pre;" direction="ltr" dominant-baseline="text-before-edge">消费请求</text></g><g mask="url(#mask-I6TRD1pxWoZYsPj5a_hTl)" stroke-linecap="round"><g transform="translate(254.19451616242532 386.7999999999993) rotate(0 207.483721910864 -1.2736602920494988)"><path d="M-0.49 -0.82 C69.68 -0.6, 349.49 1.63, 419.16 1.37 M-4.19 -3.73 C65.69 -4.36, 345.26 -3.42, 416.47 -2.9" stroke="#1e1e1e" stroke-width="4" fill="none"></path></g><g transform="translate(254.19451616242532 386.7999999999993) rotate(0 207.483721910864 -1.2736602920494988)"><path d="M387.06 6.03 C396.81 1.43, 398.09 4.82, 418.66 -0.89 M388.21 8.37 C399 1.89, 410.16 -0.54, 416.28 -3.23" stroke="#1e1e1e" stroke-width="4" fill="none"></path></g><g transform="translate(254.19451616242532 386.7999999999993) rotate(0 207.483721910864 -1.2736602920494988)"><path d="M387.16 -14.49 C396.9 -14.27, 398.15 -6.07, 418.66 -0.89 M388.31 -12.15 C398.7 -10.55, 409.82 -4.9, 416.28 -3.23" stroke="#1e1e1e" stroke-width="4" fill="none"></path></g></g><mask id="mask-I6TRD1pxWoZYsPj5a_hTl"><rect x="0" y="0" fill="#fff" width="774.1945161624253" height="486.7999999999993"></rect><rect x="408.1945161624235" y="370" fill="#000" width="112" height="33.6" opacity="1"></rect></mask><g transform="translate(408.1945161624244 370) rotate(0 53.483721910864915 15.526339707949774)"><text x="56" y="0" font-family="Cascadia, Segoe UI Emoji" font-size="28px" fill="#1e1e1e" text-anchor="middle" style="white-space: pre;" direction="ltr" dominant-baseline="text-before-edge">消费请求</text></g><g mask="url(#mask-KhpAm88Nc_theePuZIW7a)" stroke-linecap="round"><g transform="translate(251.22762970700842 506.7999999999993) rotate(0 208.90685359463077 0.37345162257588527)"><path d="M-1.23 0.29 C68.16 1.11, 349.28 2.62, 419.04 2.77 M3.3 -2.03 C71.98 -1.71, 346.38 -0.46, 416.28 -0.73" stroke="#1e1e1e" stroke-width="4" fill="none"></path></g><g transform="translate(251.22762970700842 506.7999999999993) rotate(0 208.90685359463077 0.37345162257588527)"><path d="M388.49 8.13 C403.4 1.86, 412.39 -0.32, 417.84 1.53 M390.03 7.88 C397.28 7.59, 402.87 5.75, 416.51 -0.47" stroke="#1e1e1e" stroke-width="4" fill="none"></path></g><g transform="translate(251.22762970700842 506.7999999999993) rotate(0 208.90685359463077 0.37345162257588527)"><path d="M388.51 -12.39 C403.1 -10.51, 412.08 -4.54, 417.84 1.53 M390.04 -12.64 C396.91 -7.81, 402.5 -4.54, 416.51 -0.47" stroke="#1e1e1e" stroke-width="4" fill="none"></path></g></g><mask id="mask-KhpAm88Nc_theePuZIW7a"><rect x="0" y="0" fill="#fff" width="771.2276297070084" height="606.7999999999993"></rect><rect x="405.22762970701024" y="490" fill="#000" width="112" height="33.6" opacity="1"></rect></mask><g transform="translate(405.2276297070093 490) rotate(0 54.906853594629865 17.173451622575158)"><text x="56" y="0" font-family="Cascadia, Segoe UI Emoji" font-size="28px" fill="#1e1e1e" text-anchor="middle" style="white-space: pre;" direction="ltr" dominant-baseline="text-before-edge">消费请求</text></g></svg>