<svg version="1.1" xmlns="http://www.w3.org/2000/svg" viewBox="0 0 1060 320" width="1060" height="320">
  <!-- svg-source:excalidraw -->
  
  <defs>
    <style class="style-fonts">
      @font-face {
        font-family: "Virgil";
        src: url("https://excalidraw.com/Virgil.woff2");
      }
      @font-face {
        font-family: "Cascadia";
        src: url("https://excalidraw.com/Cascadia.woff2");
      }
    </style>
    
  </defs>
  <rect x="0" y="0" width="1060" height="320" fill="#ffffff"></rect><g stroke-linecap="round" transform="translate(10 10) rotate(0 520 150)"><path d="M29.61 -0.58 L1008.33 1.46 L1021.01 5.38 L1037.2 14.75 L1042.53 29.44 L1042.96 265.33 L1039.05 284.12 L1024.19 298.03 L1004.84 302.57 L28.82 302.3 L19.52 294.56 L3.18 285.24 L-3.39 277.99 L2.97 30.54 L4.99 21.38 L7.76 7.05 L15.93 4.88 L32.5 2.22" stroke="none" stroke-width="0" fill="#fff"></path><path d="M32 0 M32 0 C278.66 3.04, 523.77 3.29, 1008 0 M32 0 C312.63 -5, 593.76 -5.99, 1008 0 M1008 0 C1033.33 2.6, 1041.22 9.48, 1040 32 M1008 0 C1029.68 -3.04, 1035.89 7.81, 1040 32 M1040 32 C1039.83 90.46, 1040.63 151.58, 1040 268 M1040 32 C1039.8 106.67, 1039.18 177.55, 1040 268 M1040 268 C1036.41 287.57, 1031.85 298.29, 1008 300 M1040 268 C1036.91 291.42, 1033.3 296.32, 1008 300 M1008 300 C651.78 293.24, 294.6 294.16, 32 300 M1008 300 C673.72 305.49, 340.2 304.94, 32 300 M32 300 C7.58 298.02, 1.43 292.53, 0 268 M32 300 C14.86 295.66, 1.01 292.24, 0 268 M0 268 C1.78 198.05, -1.87 136.54, 0 32 M0 268 C-3 184.21, -4.92 100.57, 0 32 M0 32 C-3.12 12.02, 14.41 -2.32, 32 0 M0 32 C3.66 8.05, 13.53 1.23, 32 0" stroke="#000000" stroke-width="4" fill="none"></path></g><g stroke-linecap="round" transform="translate(50 110) rotate(0 140 60)"><path d="M26.72 -0.21 L250.49 2 L263.73 4.9 L273.14 4.88 L278.22 21.65 L282.14 86.85 L280.55 106.54 L266.04 116.5 L249.91 123.22 L30.9 118.69 L20.71 119.62 L5.07 114.34 L4.01 100.03 L2.9 25.57 L4.49 5.35 L19.62 0.68 L28.76 1.58" stroke="none" stroke-width="0" fill="#a5d8ff"></path><path d="M30 0 M30 0 C86.42 1.62, 147.69 0.58, 250 0 M30 0 C99.56 -2.05, 168.84 -1.65, 250 0 M250 0 C272.67 -0.51, 278.39 13.48, 280 30 M250 0 C268.51 0.37, 283.6 14.14, 280 30 M280 30 C279.61 48.15, 284.74 65.55, 280 90 M280 30 C278.21 41.55, 279.66 57.24, 280 90 M280 90 C278.51 112.16, 271.76 121.87, 250 120 M280 90 C279.42 107.41, 265.86 120.06, 250 120 M250 120 C159.22 122, 73.1 119.74, 30 120 M250 120 C181.45 119.53, 112.28 120.67, 30 120 M30 120 C8.04 123.82, 1.69 108.61, 0 90 M30 120 C12.8 116.29, 3.33 110.59, 0 90 M0 90 C-2.42 70.63, -0.53 57.97, 0 30 M0 90 C-0.14 68.26, 0.48 46.52, 0 30 M0 30 C2.51 6.11, 6.67 -1.02, 30 0 M0 30 C4.05 5.48, 10.41 0.9, 30 0" stroke="#1971c2" stroke-width="4" fill="none"></path></g><g transform="translate(105.625 148.39999999999964) rotate(0 84.375 21.600000000000364)"><text x="84.375" y="0" font-family="Cascadia, Segoe UI Emoji" font-size="36px" fill="#1971c2" text-anchor="middle" style="white-space: pre;" direction="ltr" dominant-baseline="text-before-edge">Consumer</text></g><g stroke-linecap="round" transform="translate(730 110) rotate(0 140 60)"><path d="M28.9 -0.83 L251.51 -1.96 L266.95 3.56 L271.11 9.94 L276.3 25.87 L280.51 88.72 L278.76 104.45 L266.05 112.49 L249.66 120.12 L32.35 118.87 L20.37 117.18 L7.06 112.79 L-0.39 99.54 L-3.42 19.64 L6.48 11.03 L12.94 2.23 L30.79 -0.26" stroke="none" stroke-width="0" fill="#ffc9c9"></path><path d="M30 0 M30 0 C102.07 -2.33, 173.47 -3.35, 250 0 M30 0 C93.17 -4.84, 157.72 -5.19, 250 0 M250 0 C268.9 3.39, 277.73 13.67, 280 30 M250 0 C271.17 -2.11, 276.13 11.32, 280 30 M280 30 C277.51 43.6, 276.11 52.36, 280 90 M280 30 C280.35 53.47, 279.65 75.9, 280 90 M280 90 C282.01 108.9, 270.8 118.93, 250 120 M280 90 C277.08 114.2, 267.17 117.42, 250 120 M250 120 C178.41 114.05, 111.34 114.71, 30 120 M250 120 C205.09 115.2, 157.4 116.39, 30 120 M30 120 C12.98 118.96, -0.88 112.8, 0 90 M30 120 C7.06 115.73, 0.49 109.16, 0 90 M0 90 C3.8 78.4, -3.85 60.25, 0 30 M0 90 C1.42 70.16, -0.44 49.98, 0 30 M0 30 C-3.21 10.22, 8.33 -3.57, 30 0 M0 30 C-3.48 7.65, 13.95 -3.92, 30 0" stroke="#fa5252" stroke-width="4" fill="none"></path></g><g transform="translate(806.71875 148.39999999999964) rotate(0 63.28125 21.600000000000364)"><text x="63.28125" y="0" font-family="Cascadia, Segoe UI Emoji" font-size="36px" fill="#fa5252" text-anchor="middle" style="white-space: pre;" direction="ltr" dominant-baseline="text-before-edge">Broker</text></g><g mask="url(#mask-TGGfW0BHsrbVoo4CspB_e)" stroke-linecap="round"><g transform="translate(330 210) rotate(0 200.14346687570196 -1.9799978339497102)"><path d="M-2.12 -1.43 C65.15 -1.41, 335.18 -3, 402.4 -2.39" stroke="#f08c00" stroke-width="4.5" fill="none" stroke-dasharray="8 12"></path></g><g transform="translate(330 210) rotate(0 200.14346687570196 -1.9799978339497102)"><path d="M372.16 11.29 C378.26 7.37, 392.12 5.47, 400.72 -2.27" stroke="#f08c00" stroke-width="4.5" fill="none"></path></g><g transform="translate(330 210) rotate(0 200.14346687570196 -1.9799978339497102)"><path d="M372.17 -9.23 C377.9 -7.86, 391.76 -4.46, 400.72 -2.27" stroke="#f08c00" stroke-width="4.5" fill="none"></path></g></g><mask id="mask-TGGfW0BHsrbVoo4CspB_e"><rect x="0" y="0" fill="#fff" width="830" height="310"></rect><rect x="474" y="193.20000000000073" fill="#000" width="112" height="33.6" opacity="1"></rect></mask><g transform="translate(473.9999999999991 193.20000000000073) rotate(0 56.14346687570196 14.820002166049562)"><text x="56" y="0" font-family="Cascadia, Segoe UI Emoji" font-size="28px" fill="#f08c00" text-anchor="middle" style="white-space: pre;" direction="ltr" dominant-baseline="text-before-edge">请求返回</text></g><g mask="url(#mask-vfPXOI8aU2QC5m7mUYrAf)" stroke-linecap="round"><g transform="translate(729 130) rotate(0 -200.7358239032328 -0.4556329511106014)"><path d="M-1.8 -2.26 C-68.12 -1.61, -333.63 1.32, -399.67 1.35" stroke="#f08c00" stroke-width="4.5" fill="none" stroke-dasharray="8 12"></path></g><g transform="translate(729 130) rotate(0 -200.7358239032328 -0.4556329511106014)"><path d="M-374.79 -10.06 C-376.47 -5.61, -388.02 -6.96, -396.71 -1.18" stroke="#f08c00" stroke-width="4.5" fill="none"></path></g><g transform="translate(729 130) rotate(0 -200.7358239032328 -0.4556329511106014)"><path d="M-374.65 10.47 C-375.99 10.05, -387.57 3.83, -396.71 -1.18" stroke="#f08c00" stroke-width="4.5" fill="none"></path></g></g><mask id="mask-vfPXOI8aU2QC5m7mUYrAf"><rect x="0" y="0" fill="#fff" width="1228" height="230"></rect><rect x="460.484375" y="113.20000000000073" fill="#000" width="138.03125" height="33.6" opacity="1"></rect></mask><g transform="translate(460.484375 113.20000000000073) rotate(0 67.77980109676719 16.34436704888867)"><text x="69.015625" y="0" font-family="Cascadia, Segoe UI Emoji" font-size="28px" fill="#f08c00" text-anchor="middle" style="white-space: pre;" direction="ltr" dominant-baseline="text-before-edge">Pull 模型</text></g></svg>