<svg version="1.1" xmlns="http://www.w3.org/2000/svg" viewBox="0 0 1600 1280" width="1600" height="1280">
  <!-- svg-source:excalidraw -->
  
  <defs>
    <style class="style-fonts">
      @font-face {
        font-family: "Virgil";
        src: url("https://excalidraw.com/Virgil.woff2");
      }
      @font-face {
        font-family: "Cascadia";
        src: url("https://excalidraw.com/Cascadia.woff2");
      }
    </style>
    
  </defs>
  <rect x="0" y="0" width="1600" height="1280" fill="#ffffff"></rect><g stroke-linecap="round" transform="translate(10 10) rotate(0 790 630)"><path d="M33.41 -3.83 L1548.13 3.4 L1559.68 4.82 L1575.99 11.47 L1581.76 19.19 L1583.26 31.93 L1577.04 1228.97 L1576.68 1242.17 L1571.55 1253.23 L1561.56 1254.94 L1545.93 1258.43 L31.88 1260.39 L17.45 1260.38 L10.2 1250.02 L2.01 1238.28 L1.75 1230.71 L0.13 32.7 L4.36 14.73 L4.96 9.6 L18.48 5.71 L32.26 -1.71" stroke="none" stroke-width="0" fill="#fff"></path><path d="M32 0 M32 0 C533.43 -0.46, 1031.27 -1.13, 1548 0 M32 0 C608.39 1.28, 1184.55 2.3, 1548 0 M1548 0 C1572.91 -2.46, 1581.61 7.14, 1580 32 M1548 0 C1573.62 -0.97, 1581.67 8.99, 1580 32 M1580 32 C1583.9 332.87, 1583.75 635.16, 1580 1228 M1580 32 C1576.43 391.2, 1576.91 751.17, 1580 1228 M1580 1228 C1580.83 1250.41, 1567.59 1263.83, 1548 1260 M1580 1228 C1576.15 1249.07, 1569.9 1258.58, 1548 1260 M1548 1260 C1235.45 1256.11, 923.27 1257.76, 32 1260 M1548 1260 C1147.34 1267.32, 747.88 1266.44, 32 1260 M32 1260 C11.07 1258.46, -2.58 1246.76, 0 1228 M32 1260 C13.3 1257.32, 1.31 1246.15, 0 1228 M0 1228 C-9.01 978.4, -8.39 726.96, 0 32 M0 1228 C-4.29 775.62, -5.25 324.12, 0 32 M0 32 C-3 6.67, 11.48 -0.51, 32 0 M0 32 C-2.79 13.78, 15.08 3.64, 32 0" stroke="#1e1e1e" stroke-width="4" fill="none"></path></g><g stroke-linecap="round" transform="translate(110 70) rotate(0 160 78.5)"><path d="M136.42 1.26 C153.49 -1.09, 174.79 -1.54, 192.62 0.41 C210.45 2.36, 227.7 8.28, 243.41 12.95 C259.11 17.61, 275.71 21.65, 286.86 28.41 C298.02 35.17, 304.54 44.94, 310.34 53.5 C316.14 62.05, 322.03 70.79, 321.68 79.73 C321.33 88.68, 315.25 98.43, 308.24 107.17 C301.23 115.91, 291.97 125.51, 279.61 132.18 C267.26 138.85, 250.55 143.15, 234.1 147.19 C217.65 151.23, 198.9 155.03, 180.91 156.41 C162.91 157.78, 143.85 157.05, 126.13 155.45 C108.41 153.85, 89.67 151.52, 74.61 146.83 C59.55 142.14, 46.63 134.6, 35.77 127.32 C24.91 120.05, 15.41 111.53, 9.45 103.2 C3.48 94.86, -0.18 86.49, -0.02 77.31 C0.13 68.14, 3.56 56.91, 10.37 48.17 C17.19 39.43, 28.65 31.21, 40.88 24.86 C53.11 18.51, 58.08 14.21, 83.75 10.09 C109.41 5.97, 167.85 -0.71, 194.85 0.14 C221.85 1, 246.79 13.58, 245.74 15.22 M40.73 23.35 C50.06 15.91, 67.73 10.66, 84.09 6.88 C100.45 3.1, 120.38 1.5, 138.87 0.66 C157.36 -0.18, 177.72 -0.23, 195.04 1.83 C212.37 3.89, 227.9 8.6, 242.82 13.02 C257.75 17.43, 273.29 21.27, 284.59 28.32 C295.9 35.37, 305.27 46.16, 310.67 55.35 C316.07 64.53, 317.01 75, 316.99 83.45 C316.97 91.89, 316.95 98.12, 310.54 106.01 C304.14 113.89, 291.09 123.74, 278.56 130.76 C266.03 137.77, 250.95 144.33, 235.38 148.11 C219.8 151.89, 203.33 151.91, 185.1 153.43 C166.88 154.95, 144.73 158.26, 126.03 157.22 C107.33 156.18, 88.72 152.04, 72.92 147.19 C57.13 142.35, 42.16 135.71, 31.28 128.15 C20.39 120.59, 12.5 110.43, 7.63 101.82 C2.76 93.21, 1.19 85.7, 2.04 76.51 C2.89 67.32, 6.23 55.02, 12.74 46.69 C19.25 38.36, 35.98 29.44, 41.1 26.55 C46.22 23.65, 41.49 28.71, 43.46 29.34" stroke="none" stroke-width="0" fill="#ffc9c9"></path><path d="M61.12 14.71 C73.48 8.65, 95.69 6.97, 113.69 4.8 C131.68 2.62, 151.25 1.41, 169.07 1.63 C186.88 1.85, 203.93 2.9, 220.56 6.11 C237.19 9.32, 255.38 14.94, 268.87 20.9 C282.36 26.85, 292.97 33.73, 301.52 41.86 C310.06 49.99, 317.78 60.41, 320.12 69.68 C322.47 78.96, 319.79 89.34, 315.57 97.53 C311.35 105.72, 304.82 111.92, 294.81 118.83 C284.8 125.74, 269.93 132.93, 255.51 139 C241.1 145.07, 225.75 152.38, 208.34 155.25 C190.92 158.11, 169.37 157.16, 151.03 156.19 C132.69 155.23, 114.87 152.64, 98.32 149.44 C81.78 146.25, 65.23 142.82, 51.76 137.01 C38.3 131.21, 26.1 122.98, 17.55 114.62 C9 106.25, 3.06 95.57, 0.48 86.83 C-2.11 78.09, -2.35 70.62, 2.05 62.15 C6.46 53.68, 10.67 45.17, 26.91 35.99 C43.15 26.81, 79.93 12.45, 99.5 7.07 C119.06 1.7, 142.99 2.59, 144.3 3.77 M118.66 3.44 C133.96 -0.34, 150.96 -1.44, 169.15 -0.8 C187.34 -0.16, 211.03 3.72, 227.8 7.29 C244.58 10.85, 257.27 14.73, 269.8 20.6 C282.33 26.47, 294.68 33.78, 302.99 42.51 C311.3 51.25, 317.82 64.28, 319.64 73.02 C321.47 81.77, 318.34 87.09, 313.96 95.01 C309.57 102.93, 303.43 112.83, 293.35 120.54 C283.27 128.24, 268.88 135.23, 253.47 141.22 C238.06 147.22, 218.86 154.4, 200.9 156.51 C182.94 158.62, 163.57 155.14, 145.7 153.89 C127.84 152.65, 109.52 152.06, 93.7 149.04 C77.88 146.01, 63.86 141.62, 50.76 135.74 C37.66 129.87, 23.62 121.97, 15.09 113.79 C6.56 105.61, 1.02 95.77, -0.41 86.66 C-1.85 77.55, 2.05 67.77, 6.48 59.14 C10.9 50.51, 16.18 42.41, 26.13 34.87 C36.08 27.34, 51.37 19.35, 66.18 13.92 C80.98 8.5, 106.54 4.32, 114.94 2.34 C123.34 0.35, 115.7 0.92, 116.6 2.02" stroke="#fa5252" stroke-width="4" fill="none"></path></g><g transform="translate(174.94104001015148 126.89211767685629) rotate(0 94.921875 21.600000000000364)"><text x="94.921875" y="0" font-family="Cascadia, Segoe UI Emoji" font-size="36px" fill="#1e1e1e" text-anchor="middle" style="white-space: pre;" direction="ltr" dominant-baseline="text-before-edge">Consumer1</text></g><g stroke-linecap="round" transform="translate(130 270) rotate(0 160 78.5)"><path d="M247.48 10.99 C263.12 15.05, 276.06 25, 286.97 32.41 C297.88 39.81, 307.3 47.09, 312.95 55.44 C318.59 63.79, 321.86 73.19, 320.86 82.49 C319.85 91.8, 314.59 103.26, 306.93 111.27 C299.26 119.29, 287.64 124.45, 274.88 130.58 C262.12 136.7, 246.32 143.49, 230.36 148.04 C214.4 152.58, 196.68 156.46, 179.13 157.84 C161.58 159.23, 142.91 158.4, 125.05 156.36 C107.18 154.31, 87.2 150.89, 71.91 145.58 C56.62 140.28, 44.21 132.05, 33.29 124.53 C22.36 117, 11.58 108.55, 6.38 100.44 C1.17 92.33, 1.26 84.66, 2.06 75.88 C2.86 67.1, 4.35 56.02, 11.17 47.77 C17.99 39.51, 30.17 32.61, 42.99 26.35 C55.81 20.09, 71.69 14.38, 88.09 10.19 C104.49 6.01, 123.17 2.28, 141.39 1.23 C159.62 0.18, 177.39 1.06, 197.43 3.89 C217.48 6.71, 248.95 14.67, 261.66 18.19 C274.38 21.7, 275.15 23.72, 273.73 24.97 M237.83 11.69 C254.5 14.2, 271.31 19.37, 283.08 25.89 C294.85 32.41, 302.57 41.92, 308.44 50.81 C314.31 59.7, 318.03 69.72, 318.29 79.24 C318.56 88.76, 316.53 99.49, 310.03 107.95 C303.53 116.41, 291.49 123.81, 279.3 130.02 C267.11 136.23, 251.88 140.51, 236.89 145.19 C221.91 149.87, 206.94 155.89, 189.4 158.12 C171.86 160.35, 149.72 161.01, 131.66 158.59 C113.61 156.16, 96.39 148.81, 81.09 143.57 C65.78 138.33, 51.49 134.02, 39.86 127.15 C28.23 120.28, 18.23 110.08, 11.3 102.35 C4.36 94.63, -1.16 88.81, -1.75 80.81 C-2.33 72.82, 1.16 63.07, 7.81 54.36 C14.46 45.65, 26.49 36.24, 38.17 28.57 C49.85 20.89, 61.7 12.84, 77.89 8.31 C94.09 3.77, 116.6 2.06, 135.36 1.35 C154.12 0.63, 172.61 2.41, 190.43 4.02 C208.26 5.64, 233.83 10.18, 242.31 11.04 C250.79 11.9, 243.22 8.34, 241.32 9.19" stroke="none" stroke-width="0" fill="#ffc9c9"></path><path d="M147.23 1.49 C164.06 -0.38, 182.41 -0.53, 199.53 1.86 C216.64 4.25, 234.6 10.8, 249.91 15.83 C265.23 20.87, 280.37 24.93, 291.43 32.07 C302.48 39.22, 311.67 49.56, 316.23 58.72 C320.79 67.88, 320.36 78.3, 318.81 87.02 C317.26 95.74, 314.68 102.97, 306.94 111.06 C299.2 119.15, 285.31 129.47, 272.37 135.56 C259.43 141.64, 245.28 144.13, 229.28 147.58 C213.29 151.04, 194.78 155.47, 176.4 156.3 C158.02 157.12, 137.28 154.54, 119 152.53 C100.72 150.53, 81.99 149.03, 66.73 144.28 C51.46 139.53, 37.7 131.42, 27.42 124.04 C17.13 116.65, 9.32 108.81, 5.01 99.99 C0.7 91.17, -0.2 80.09, 1.57 71.14 C3.33 62.19, 8.43 54.31, 15.59 46.3 C22.76 38.3, 31.86 29.66, 44.55 23.1 C57.24 16.54, 63.23 9.68, 91.71 6.93 C120.19 4.19, 185.18 3.63, 215.44 6.65 C245.7 9.68, 273.99 24.45, 273.28 25.1 M28.91 37.81 C36.05 29.2, 50.86 18.56, 65.57 12.86 C80.29 7.15, 99.91 5.7, 117.21 3.58 C134.51 1.47, 151.76 -0.4, 169.37 0.17 C186.99 0.73, 206.16 3.26, 222.9 6.96 C239.64 10.66, 256.11 16.38, 269.82 22.37 C283.54 28.35, 296.69 35.4, 305.19 42.86 C313.69 50.32, 318.87 58.55, 320.81 67.16 C322.74 75.76, 321.12 85.19, 316.8 94.46 C312.47 103.74, 304.78 114.99, 294.86 122.81 C284.94 130.62, 272.15 136.37, 257.3 141.36 C242.46 146.35, 223.37 149.75, 205.78 152.73 C188.2 155.7, 169.92 159.85, 151.79 159.21 C133.66 158.56, 114.05 152.81, 97.02 148.86 C79.99 144.92, 63.04 141.23, 49.6 135.54 C36.15 129.84, 24.42 123.09, 16.37 114.68 C8.33 106.26, 3.36 94.44, 1.31 85.06 C-0.74 75.68, 0.15 67.1, 4.07 58.42 C7.99 49.73, 20.89 36.77, 24.84 32.97 C28.79 29.17, 25.59 34.33, 27.77 35.6" stroke="#fa5252" stroke-width="4" fill="none"></path></g><g transform="translate(194.94104001015148 326.8921176768563) rotate(0 94.921875 21.600000000000364)"><text x="94.921875" y="0" font-family="Cascadia, Segoe UI Emoji" font-size="36px" fill="#1e1e1e" text-anchor="middle" style="white-space: pre;" direction="ltr" dominant-baseline="text-before-edge">Consumer2</text></g><g stroke-linecap="round" transform="translate(130 470) rotate(0 160 78.5)"><path d="M292.32 34.27 C304.12 40.67, 312.9 51.61, 317.55 60.87 C322.2 70.12, 322.5 80.9, 320.21 89.81 C317.93 98.71, 312.08 106.93, 303.86 114.29 C295.64 121.64, 284.6 128.02, 270.9 133.95 C257.21 139.87, 238.6 146.26, 221.7 149.84 C204.79 153.42, 187.26 154.5, 169.48 155.42 C151.7 156.34, 132.4 157.88, 115.04 155.34 C97.67 152.81, 79.81 145.91, 65.29 140.2 C50.77 134.49, 37.8 128.45, 27.9 121.1 C17.99 113.75, 10.45 104.85, 5.87 96.1 C1.29 87.34, -1.6 77.67, 0.42 68.55 C2.45 59.42, 9.81 49.58, 18.02 41.36 C26.24 33.13, 36.27 24.96, 49.72 19.2 C63.18 13.44, 81.64 10.14, 98.76 6.8 C115.87 3.46, 134.53 -0.37, 152.43 -0.81 C170.32 -1.25, 188.95 1.23, 206.14 4.16 C223.33 7.09, 239.35 10.24, 255.57 16.77 C271.78 23.31, 294.65 36.76, 303.43 43.36 C312.22 49.96, 310.64 55.33, 308.29 56.38 M274.6 26.93 C288.74 32.41, 301.5 42.05, 308.64 50.21 C315.78 58.37, 316.62 67.03, 317.41 75.9 C318.2 84.77, 318.38 95.51, 313.37 103.43 C308.37 111.34, 298.19 116.12, 287.37 123.38 C276.56 130.63, 263.45 141.28, 248.48 146.95 C233.52 152.61, 215.21 155.65, 197.58 157.37 C179.95 159.08, 161.59 158.51, 142.67 157.23 C123.76 155.96, 100.94 153.98, 84.11 149.71 C67.28 145.45, 54.07 138.19, 41.7 131.65 C29.33 125.11, 16.33 118.24, 9.89 110.48 C3.44 102.72, 3.85 94.08, 3.02 85.08 C2.19 76.09, -0.02 65.25, 4.89 56.5 C9.79 47.75, 20.94 39.55, 32.44 32.6 C43.93 25.64, 58.79 19.76, 73.85 14.75 C88.92 9.75, 105.61 5.26, 122.82 2.57 C140.02 -0.11, 159.03 -2.18, 177.08 -1.36 C195.13 -0.53, 214.82 3.5, 231.11 7.5 C247.41 11.49, 268.06 19.22, 274.87 22.6 C281.68 25.97, 273.36 26.29, 271.98 27.75" stroke="none" stroke-width="0" fill="#ffc9c9"></path><path d="M80.16 11.28 C93.98 5.72, 114.87 1.57, 132.83 -0.29 C150.79 -2.14, 170.19 -1.43, 187.9 0.16 C205.61 1.74, 223.43 4.6, 239.07 9.24 C254.71 13.87, 270.06 20.75, 281.73 27.99 C293.39 35.22, 302.67 44.39, 309.06 52.64 C315.46 60.89, 319.7 68.61, 320.08 77.47 C320.47 86.33, 317.95 97.21, 311.37 105.8 C304.79 114.38, 292.87 122.37, 280.61 128.98 C268.35 135.58, 253.2 140.99, 237.82 145.43 C222.44 149.87, 206.04 153.71, 188.31 155.61 C170.58 157.52, 149.62 158.44, 131.44 156.88 C113.27 155.32, 94.66 151.22, 79.26 146.25 C63.85 141.28, 50.92 134.2, 39.02 127.05 C27.12 119.91, 14.44 111.48, 7.85 103.38 C1.25 95.29, -1.09 86.88, -0.53 78.49 C0.02 70.1, 4.58 61.56, 11.19 53.05 C17.8 44.54, 15.74 36, 39.13 27.41 C62.52 18.83, 121.43 4.94, 151.53 1.56 C181.63 -1.83, 219.92 5.75, 219.73 7.12 M282.91 30.96 C296.36 37.13, 304.91 46.74, 311.17 54.95 C317.44 63.16, 320.49 71.25, 320.49 80.22 C320.5 89.18, 318.13 100.63, 311.19 108.72 C304.25 116.82, 291.37 122.83, 278.86 128.81 C266.36 134.79, 251.58 139.83, 236.15 144.6 C220.72 149.37, 203.58 156.01, 186.28 157.44 C168.99 158.87, 149.99 155.52, 132.39 153.19 C114.79 150.86, 96.49 147.55, 80.68 143.44 C64.87 139.34, 49.87 135.36, 37.55 128.55 C25.24 121.74, 13.24 111.32, 6.79 102.58 C0.35 93.84, -1.74 84.71, -1.11 76.09 C-0.47 67.48, 3.63 59.46, 10.59 50.88 C17.56 42.3, 28.77 31.84, 40.68 24.62 C52.6 17.41, 66.83 11.13, 82.08 7.57 C97.33 4.02, 113.96 4.31, 132.18 3.27 C150.41 2.23, 172.8 -0.19, 191.45 1.35 C210.1 2.88, 229.19 7.46, 244.06 12.47 C258.94 17.47, 274.82 28.23, 280.71 31.39 C286.6 34.55, 281.47 31.35, 279.42 31.43" stroke="#fa5252" stroke-width="4" fill="none"></path></g><g transform="translate(194.94104001015148 526.8921176768563) rotate(0 94.921875 21.600000000000364)"><text x="94.921875" y="0" font-family="Cascadia, Segoe UI Emoji" font-size="36px" fill="#1e1e1e" text-anchor="middle" style="white-space: pre;" direction="ltr" dominant-baseline="text-before-edge">Consumer3</text></g><g stroke-linecap="round" transform="translate(130 670) rotate(0 160 78.5)"><path d="M217.79 6.66 C234.7 8.46, 250.56 14.23, 263.94 19.64 C277.33 25.05, 289.29 31.49, 298.1 39.12 C306.91 46.76, 313.92 56.67, 316.82 65.45 C319.72 74.23, 319.09 82.72, 315.49 91.81 C311.89 100.9, 304.23 111.93, 295.23 119.98 C286.22 128.03, 275.61 134.37, 261.46 140.11 C247.3 145.85, 227.43 151.62, 210.28 154.43 C193.13 157.24, 176.63 157.2, 158.55 156.98 C140.47 156.77, 118.88 156.13, 101.8 153.14 C84.72 150.16, 69.75 145.1, 56.07 139.08 C42.39 133.06, 28.5 125.13, 19.72 117.04 C10.94 108.94, 6 99.47, 3.39 90.53 C0.79 81.58, 0.73 72.01, 4.1 63.38 C7.48 54.75, 14.46 46.3, 23.62 38.75 C32.78 31.2, 45.36 23.85, 59.08 18.09 C72.79 12.33, 88.93 7.16, 105.92 4.17 C122.92 1.17, 139.44 -0.61, 161.05 0.13 C182.67 0.86, 221.21 6.02, 235.62 8.57 C250.03 11.12, 248.64 14.23, 247.5 15.44 M121.15 4.14 C137.26 0.93, 156.46 1.11, 174.65 1.98 C192.84 2.85, 213.17 5.68, 230.31 9.37 C247.45 13.06, 264.87 18.22, 277.51 24.12 C290.14 30.01, 299.33 36.32, 306.1 44.74 C312.88 53.17, 316.61 65.05, 318.18 74.67 C319.75 84.3, 320.74 94.23, 315.53 102.5 C310.32 110.77, 298 117.72, 286.93 124.3 C275.86 130.87, 264.02 136.76, 249.1 141.96 C234.19 147.17, 215.54 153.3, 197.43 155.52 C179.32 157.74, 158 156.2, 140.44 155.29 C122.89 154.38, 107.83 153.44, 92.12 150.05 C76.4 146.66, 58.79 142.06, 46.15 134.94 C33.5 127.82, 24.18 116.06, 16.23 107.32 C8.29 98.58, 0.19 91.16, -1.51 82.48 C-3.21 73.8, 0.48 63.4, 6.06 55.22 C11.63 47.05, 20.92 40.7, 31.96 33.43 C42.99 26.17, 57.68 16.44, 72.27 11.62 C86.87 6.79, 111.63 5.42, 119.54 4.48 C127.45 3.53, 118.24 5.34, 119.73 5.93" stroke="none" stroke-width="0" fill="#ffc9c9"></path><path d="M154.39 -1.67 C171.19 -2.66, 190.4 2.19, 207.93 5.22 C225.45 8.24, 244.66 11.07, 259.55 16.48 C274.44 21.9, 288.1 29.84, 297.26 37.72 C306.43 45.6, 311.17 55, 314.53 63.77 C317.9 72.55, 319.93 82.01, 317.46 90.37 C315 98.74, 307.77 106.45, 299.73 113.94 C291.69 121.42, 282.11 129.04, 269.23 135.28 C256.35 141.53, 239.56 148.09, 222.47 151.41 C205.37 154.73, 185.45 154.61, 166.67 155.2 C147.88 155.79, 127.17 157.17, 109.74 154.95 C92.31 152.74, 75.97 147.48, 62.09 141.91 C48.21 136.34, 36.18 129.07, 26.47 121.54 C16.77 114.01, 8.35 105.83, 3.87 96.71 C-0.61 87.6, -2.7 75.82, -0.41 66.83 C1.87 57.84, 9.01 50.26, 17.58 42.78 C26.16 35.3, 37.09 27.87, 51.04 21.95 C64.99 16.02, 78.27 10.32, 101.26 7.22 C124.25 4.12, 168.66 2.91, 188.97 3.35 C209.28 3.79, 223.49 9.02, 223.14 9.85 M119.05 -0.52 C135.42 -3.28, 159.52 0.01, 178.17 1.16 C196.83 2.32, 215.02 2.45, 230.98 6.39 C246.94 10.34, 261.57 17.94, 273.92 24.84 C286.26 31.73, 297.74 40.21, 305.04 47.77 C312.33 55.33, 316.52 61.31, 317.7 70.23 C318.89 79.14, 316.98 91.92, 312.13 101.27 C307.29 110.63, 298.55 119.63, 288.63 126.34 C278.71 133.05, 267.16 137.26, 252.59 141.53 C238.01 145.79, 218.97 149.22, 201.19 151.94 C183.41 154.65, 163.97 158.69, 145.91 157.84 C127.84 157, 109.32 150.85, 92.8 146.84 C76.29 142.83, 59.61 139.81, 46.8 133.77 C34 127.72, 24.12 118.53, 15.98 110.56 C7.84 102.6, -0.8 94.54, -2.04 85.97 C-3.29 77.4, 2.76 67.6, 8.51 59.13 C14.26 50.66, 22.07 43.24, 32.44 35.16 C42.81 27.08, 55.81 16.3, 70.71 10.67 C85.62 5.04, 113.48 2.94, 121.87 1.36 C130.26 -0.21, 120.37 -0.68, 121.05 1.24" stroke="#fa5252" stroke-width="4" fill="none"></path></g><g transform="translate(194.94104001015148 726.8921176768563) rotate(0 94.921875 21.600000000000364)"><text x="94.921875" y="0" font-family="Cascadia, Segoe UI Emoji" font-size="36px" fill="#1e1e1e" text-anchor="middle" style="white-space: pre;" direction="ltr" dominant-baseline="text-before-edge">Consumer4</text></g><g stroke-linecap="round" transform="translate(130 870) rotate(0 160 68.5)"><path d="M219.23 2.66 C235.92 3.95, 250.42 10.73, 263.85 16.02 C277.29 21.31, 290.67 27.31, 299.83 34.42 C308.99 41.54, 315.78 51.02, 318.79 58.71 C321.8 66.39, 321.78 72.76, 317.91 80.53 C314.04 88.3, 305.43 98.2, 295.56 105.31 C285.69 112.42, 272.3 118.75, 258.68 123.2 C245.05 127.66, 230.59 129.87, 213.82 132.04 C197.04 134.21, 176.75 135.98, 158.03 136.23 C139.32 136.48, 118.83 135.94, 101.52 133.53 C84.22 131.11, 67.75 127.12, 54.21 121.74 C40.68 116.37, 29.18 108.64, 20.33 101.27 C11.48 93.91, 4.23 85.2, 1.11 77.57 C-2.01 69.93, -1.85 62.81, 1.62 55.47 C5.09 48.13, 12.12 40.39, 21.92 33.52 C31.71 26.65, 45.81 19.42, 60.41 14.24 C75.02 9.06, 92.33 4.88, 109.54 2.43 C126.75 -0.02, 136.78 -3.39, 163.68 -0.47 C190.58 2.45, 247.58 13.27, 270.92 19.96 C294.27 26.64, 306 38.81, 303.73 39.63 M273.11 21.67 C286.9 25.87, 295.46 33.01, 302.89 39.47 C310.32 45.94, 316.06 52.73, 317.67 60.47 C319.29 68.2, 316.76 78.2, 312.59 85.88 C308.41 93.56, 302.64 99.8, 292.63 106.55 C282.63 113.3, 268.26 121.19, 252.57 126.38 C236.88 131.56, 216.39 135.65, 198.49 137.65 C180.6 139.66, 163.39 139.42, 145.21 138.41 C127.04 137.39, 105.49 134.96, 89.45 131.58 C73.41 128.21, 60.92 124.08, 48.96 118.17 C37.01 112.26, 26.03 102.94, 17.73 96.12 C9.44 89.31, 1.52 84.95, -0.81 77.28 C-3.14 69.6, -1.13 58.57, 3.75 50.09 C8.63 41.61, 17.91 33.07, 28.48 26.4 C39.05 19.74, 51.82 14.18, 67.17 10.11 C82.51 6.04, 102.27 3.92, 120.55 1.96 C138.83 0, 158.87 -2.7, 176.86 -1.65 C194.84 -0.61, 212.84 4.25, 228.47 8.22 C244.11 12.19, 263.37 19.7, 270.68 22.14 C277.98 24.58, 273.55 21.94, 272.31 22.87" stroke="none" stroke-width="0" fill="#e9ecef"></path><path d="M47.05 20.36 C56.98 14.44, 72.86 10.89, 89.4 7.76 C105.94 4.63, 127.59 2.24, 146.29 1.58 C164.98 0.93, 184.09 2.42, 201.56 3.84 C219.04 5.25, 236.21 6.03, 251.13 10.06 C266.06 14.08, 280.64 21.61, 291.12 27.99 C301.59 34.38, 309.09 40.41, 313.98 48.36 C318.87 56.32, 321.58 67.88, 320.48 75.73 C319.38 83.57, 314.97 88.62, 307.37 95.42 C299.78 102.21, 287.81 110.62, 274.9 116.51 C261.99 122.41, 246.25 127.61, 229.91 130.8 C213.57 134, 195.1 135.32, 176.85 135.68 C158.59 136.05, 138.52 134.99, 120.39 133 C102.27 131.01, 83.35 128.14, 68.12 123.76 C52.89 119.38, 39.68 113.2, 29.02 106.73 C18.37 100.25, 8.76 92.03, 4.18 84.89 C-0.39 77.75, -0.25 71.66, 1.55 63.89 C3.36 56.12, -4.12 48.23, 14.99 38.27 C34.1 28.31, 86.4 10.17, 116.22 4.14 C146.03 -1.9, 193.18 1.02, 193.88 2.06 M260.42 14.04 C276.01 17.6, 287.77 25.01, 297.3 31.86 C306.83 38.71, 314.14 47.32, 317.62 55.14 C321.1 62.96, 321.36 71.25, 318.17 78.79 C314.98 86.34, 307.38 93.6, 298.47 100.38 C289.56 107.17, 277.54 114.37, 264.71 119.5 C251.87 124.63, 238.39 128.22, 221.45 131.17 C204.51 134.12, 181.15 136.83, 163.08 137.2 C145.01 137.56, 130.06 136.13, 113.04 133.38 C96.03 130.63, 75.51 125.55, 60.99 120.7 C46.47 115.84, 35.18 111, 25.92 104.26 C16.66 97.53, 9.24 87.85, 5.43 80.27 C1.61 72.7, 0.63 65.76, 3.04 58.8 C5.46 51.83, 11.64 45.4, 19.92 38.5 C28.19 31.6, 39.73 23.23, 52.7 17.4 C65.68 11.58, 80.61 6.15, 97.75 3.57 C114.89 0.99, 136.62 2.33, 155.54 1.92 C174.47 1.51, 194.27 -0.99, 211.3 1.1 C228.34 3.2, 250.53 12.23, 257.74 14.5 C264.95 16.78, 255.98 14.25, 254.57 14.75" stroke="#1e1e1e" stroke-width="4" fill="none"></path></g><g transform="translate(194.94104001015148 895.3631854887208) rotate(0 94.921875 43.19999999999982)"><text x="94.921875" y="0" font-family="Cascadia, Segoe UI Emoji" font-size="36px" fill="#1e1e1e" text-anchor="middle" style="white-space: pre;" direction="ltr" dominant-baseline="text-before-edge">Consumer5</text><text x="94.921875" y="43.199999999999996" font-family="Cascadia, Segoe UI Emoji" font-size="36px" fill="#1e1e1e" text-anchor="middle" style="white-space: pre;" direction="ltr" dominant-baseline="text-before-edge">[空闲]</text></g><g stroke-linecap="round" transform="translate(130 1050) rotate(0 160 68.5)"><path d="M226.73 6.33 C243.52 8.45, 258.28 12.11, 271.38 17.75 C284.48 23.38, 297.66 32.82, 305.34 40.13 C313.01 47.43, 316.05 54, 317.42 61.57 C318.79 69.14, 317.74 78.17, 313.57 85.56 C309.4 92.94, 302.57 99.19, 292.41 105.86 C282.25 112.53, 267.36 120.54, 252.61 125.56 C237.86 130.58, 221.03 134.31, 203.91 135.96 C186.79 137.61, 168.11 136.06, 149.92 135.46 C131.73 134.86, 111.48 135.03, 94.77 132.36 C78.07 129.69, 62.9 125.41, 49.71 119.46 C36.52 113.51, 23.61 104.35, 15.64 96.67 C7.67 88.99, 3.65 81.02, 1.88 73.38 C0.12 65.74, 0.66 58.34, 5.05 50.85 C9.44 43.37, 17.66 34.61, 28.21 28.48 C38.75 22.35, 53.69 18.46, 68.31 14.08 C82.93 9.7, 98.78 4.47, 115.91 2.21 C133.04 -0.06, 145.29 -1.87, 171.09 0.51 C196.88 2.89, 249.34 10.6, 270.65 16.48 C291.96 22.36, 301 34.69, 298.96 35.78 M81.45 5.36 C95.91 1.3, 119.63 4.55, 138.43 3.4 C157.22 2.25, 176.88 -2.4, 194.23 -1.56 C211.59 -0.71, 227.28 3.64, 242.55 8.49 C257.82 13.33, 274.6 20.81, 285.85 27.51 C297.1 34.22, 304.51 41.67, 310.06 48.7 C315.6 55.73, 319.24 62.48, 319.12 69.69 C318.99 76.9, 315.94 84.53, 309.31 91.95 C302.67 99.38, 291.86 108.57, 279.29 114.22 C266.73 119.87, 250.18 122.19, 233.91 125.86 C217.64 129.52, 199.65 134.21, 181.68 136.23 C163.72 138.25, 143.91 139.99, 126.11 137.99 C108.31 135.99, 89.73 128.64, 74.86 124.24 C59.99 119.84, 48.1 117.11, 36.89 111.59 C25.68 106.06, 13.39 98.17, 7.62 91.08 C1.85 83.98, 1.64 77.25, 2.28 69.04 C2.92 60.83, 5.02 49.24, 11.46 41.82 C17.9 34.4, 28.55 30.21, 40.92 24.54 C53.3 18.86, 78.64 10.68, 85.71 7.78 C92.77 4.87, 82.35 6.22, 83.32 7.12" stroke="none" stroke-width="0" fill="#e9ecef"></path><path d="M93.12 7.98 C107.86 3.8, 127.42 1.84, 145.83 0.62 C164.25 -0.59, 185.58 -1.46, 203.61 0.68 C221.63 2.83, 239.1 8.53, 253.97 13.48 C268.84 18.43, 282.4 24.03, 292.84 30.4 C303.29 36.78, 312.41 44.55, 316.63 51.71 C320.86 58.88, 319.87 65.66, 318.18 73.39 C316.49 81.12, 313.83 90.63, 306.48 98.07 C299.14 105.52, 287.13 112.7, 274.11 118.05 C261.1 123.41, 245.03 127.4, 228.4 130.2 C211.77 133.01, 192.85 134.13, 174.32 134.91 C155.79 135.68, 135.37 136.38, 117.22 134.87 C99.07 133.35, 80.15 130.44, 65.4 125.82 C50.64 121.2, 38.74 114.06, 28.69 107.14 C18.63 100.22, 9.94 91.62, 5.08 84.3 C0.23 76.99, -2.11 70.52, -0.44 63.27 C1.24 56.01, 7.04 48.21, 15.13 40.78 C23.22 33.35, 34 24.69, 48.1 18.67 C62.21 12.66, 89.2 6.68, 99.77 4.67 C110.34 2.67, 110.04 5.72, 111.5 6.65 M295.06 30.21 C306.52 34.86, 312.14 41.43, 315.81 49.41 C319.47 57.38, 319.23 69.72, 317.04 78.07 C314.84 86.42, 309.81 92.99, 302.63 99.51 C295.46 106.04, 286.48 112.09, 274 117.23 C261.51 122.36, 244.88 126.71, 227.73 130.3 C210.59 133.89, 190.19 137.67, 171.14 138.76 C152.1 139.85, 131.48 139.28, 113.47 136.82 C95.45 134.37, 77.88 129.45, 63.05 124.03 C48.22 118.61, 34.69 110.83, 24.47 104.29 C14.26 97.76, 5.55 91.71, 1.76 84.8 C-2.02 77.89, -0.23 70.88, 1.77 62.82 C3.77 54.77, 5.84 43.37, 13.77 36.46 C21.71 29.55, 36.23 26.2, 49.37 21.37 C62.51 16.54, 76.43 11.08, 92.61 7.48 C108.79 3.89, 128.34 0.17, 146.46 -0.2 C164.59 -0.57, 183.77 2.93, 201.36 5.24 C218.94 7.55, 237.2 9.05, 251.95 13.65 C266.7 18.26, 283.68 29.98, 289.86 32.88 C296.05 35.77, 290.89 30.67, 289.07 31.02" stroke="#1e1e1e" stroke-width="4" fill="none"></path></g><g transform="translate(194.94104001015148 1075.3631854887208) rotate(0 94.921875 43.19999999999982)"><text x="94.921875" y="0" font-family="Cascadia, Segoe UI Emoji" font-size="36px" fill="#1e1e1e" text-anchor="middle" style="white-space: pre;" direction="ltr" dominant-baseline="text-before-edge">Consumer6</text><text x="94.921875" y="43.199999999999996" font-family="Cascadia, Segoe UI Emoji" font-size="36px" fill="#1e1e1e" text-anchor="middle" style="white-space: pre;" direction="ltr" dominant-baseline="text-before-edge">[空闲]</text></g><g stroke-linecap="round" transform="translate(970 330) rotate(0 250 50)"><path d="M25.14 -2.01 L480.66 -0.17 L493.46 2.47 L494.95 11.72 L500.84 79.97 L490.17 90.5 L483.45 100.69 L477.02 101.61 L21.91 101.46 L10.97 94.25 L-1.87 88.67 L-0.78 24.37 L5.41 16.43 L8.97 7.44 L13 0.4 L28.7 2.61" stroke="none" stroke-width="0" fill="#ffec99"></path><path d="M25 0 M25 0 C177.13 -5.46, 330.43 -5.3, 475 0 M25 0 C170.32 1.53, 318.39 0.74, 475 0 M475 0 C490.48 2.2, 497.06 6.69, 500 25 M475 0 C495.69 2.87, 500.89 11.31, 500 25 M500 25 C499.72 41.01, 502.17 58.71, 500 75 M500 25 C498.97 42.01, 498.82 59.08, 500 75 M500 75 C501.36 90.36, 488.19 101.47, 475 100 M500 75 C501 87.77, 495.97 101.75, 475 100 M475 100 C304.08 102.64, 131.75 103.49, 25 100 M475 100 C334.38 100.09, 194.29 99.21, 25 100 M25 100 C11.21 99.22, -1.12 94.33, 0 75 M25 100 C7.14 98.07, 2.76 93.7, 0 75 M0 75 C-1.5 56.13, 2.49 33.43, 0 25 M0 75 C0.33 57.43, -0.93 40.02, 0 25 M0 25 C-0.8 9.44, 7.93 2.74, 25 0 M0 25 C-3.89 3.91, 11.48 4.46, 25 0" stroke="#f08c00" stroke-width="2" fill="none"></path></g><g transform="translate(1103.984375 358.39999999999964) rotate(0 116.015625 21.600000000000364)"><text x="116.015625" y="0" font-family="Cascadia, Segoe UI Emoji" font-size="36px" fill="#1e1e1e" text-anchor="middle" style="white-space: pre;" direction="ltr" dominant-baseline="text-before-edge">Partition 1</text></g><g stroke-linecap="round" transform="translate(970 470) rotate(0 250 50)"><path d="M26.98 0.1 L478.24 -1.51 L494.36 7.71 L498.64 13.47 L503.12 83.55 L495.73 96.1 L486.33 98.92 L473.1 100.96 L21.46 99.8 L11.09 98.36 L3.3 85.7 L1.78 25.38 L-1.96 11.85 L5.22 2.6 L11.79 3.03 L26.8 2.33" stroke="none" stroke-width="0" fill="#ffec99"></path><path d="M25 0 M25 0 C139.91 5.46, 252.34 5.12, 475 0 M25 0 C131.98 0.75, 238.21 -0.21, 475 0 M475 0 C490.86 2.5, 497.85 9.17, 500 25 M475 0 C495.76 0.19, 498.08 9.32, 500 25 M500 25 C501.53 37.9, 502.16 54, 500 75 M500 25 C501.88 40.56, 502.28 58.69, 500 75 M500 75 C503.04 90.07, 489.04 101.56, 475 100 M500 75 C500.24 90.38, 493.68 103.08, 475 100 M475 100 C366.39 99.85, 259.87 101.65, 25 100 M475 100 C333.48 104.9, 192.76 103.73, 25 100 M25 100 C9.03 98.81, 2.12 90.75, 0 75 M25 100 C8.22 101.93, 4.22 91.18, 0 75 M0 75 C2.6 59.39, -1.11 47.28, 0 25 M0 75 C-0.87 58.73, 1.27 40.12, 0 25 M0 25 C1.85 10.79, 11.24 -1.86, 25 0 M0 25 C2.67 12.38, 8.8 1.16, 25 0" stroke="#f08c00" stroke-width="2" fill="none"></path></g><g transform="translate(1103.984375 498.39999999999964) rotate(0 116.015625 21.600000000000364)"><text x="116.015625" y="0" font-family="Cascadia, Segoe UI Emoji" font-size="36px" fill="#1e1e1e" text-anchor="middle" style="white-space: pre;" direction="ltr" dominant-baseline="text-before-edge">Partition 1</text></g><g stroke-linecap="round" transform="translate(970 610) rotate(0 250 50)"><path d="M21.28 1.63 L477.66 -3.58 L491.67 6.01 L499.02 16.25 L503.39 81.14 L497.04 97.57 L484.37 99.13 L473.81 102.12 L18.22 99.51 L11.44 100.15 L1.14 84.09 L-0.97 21.41 L3.92 11.14 L4.9 3.9 L16.59 1.26 L21.92 -1.89" stroke="none" stroke-width="0" fill="#ffec99"></path><path d="M25 0 M25 0 C203.44 -1.93, 381.51 -4.02, 475 0 M25 0 C186.32 -0.84, 346.31 0.38, 475 0 M475 0 C494.04 2.1, 503.75 6.04, 500 25 M475 0 C489.07 -0.93, 499.95 11.39, 500 25 M500 25 C498.01 43.85, 497.63 61.07, 500 75 M500 25 C499.32 39.68, 498.98 54.04, 500 75 M500 75 C501.44 93.69, 495.5 103.72, 475 100 M500 75 C503.55 88.35, 491.94 98.56, 475 100 M475 100 C339.91 102.33, 208.75 99.95, 25 100 M475 100 C318.39 97.53, 162.25 97.36, 25 100 M25 100 C8.19 99.73, 3.91 92.38, 0 75 M25 100 C4.37 95.82, -3.44 95.02, 0 75 M0 75 C1.99 58.82, 3.28 46.8, 0 25 M0 75 C0.69 54.42, -2.43 35.8, 0 25 M0 25 C-0.2 8.15, 5.99 0.67, 25 0 M0 25 C4.11 3.8, 7.96 -3.28, 25 0" stroke="#f08c00" stroke-width="2" fill="none"></path></g><g transform="translate(1103.984375 638.3999999999996) rotate(0 116.015625 21.600000000000364)"><text x="116.015625" y="0" font-family="Cascadia, Segoe UI Emoji" font-size="36px" fill="#1e1e1e" text-anchor="middle" style="white-space: pre;" direction="ltr" dominant-baseline="text-before-edge">Partition 1</text></g><g stroke-linecap="round" transform="translate(970 750) rotate(0 250 50)"><path d="M26.11 -0.61 L476.93 -3.04 L495.48 8.95 L500.96 14.84 L496.32 82.47 L496.83 94.87 L489.65 99.99 L473.71 100.75 L16.13 96.98 L8.76 92.65 L5.01 83.18 L-1.87 26.26 L0.17 12.81 L5.22 5.54 L16.68 -1.61 L21.97 -1.11" stroke="none" stroke-width="0" fill="#ffec99"></path><path d="M25 0 M25 0 C163.76 2.62, 299.28 4.8, 475 0 M25 0 C117.75 -0.22, 209.58 -0.23, 475 0 M475 0 C495.23 1.79, 500.26 7.7, 500 25 M475 0 C488.32 3.32, 503.94 12.73, 500 25 M500 25 C499.56 34.17, 497.65 50.19, 500 75 M500 25 C502.16 40.6, 502.48 61.2, 500 75 M500 75 C496.44 92.79, 487.99 103.97, 475 100 M500 75 C497.92 88.64, 494.05 99.98, 475 100 M475 100 C303.08 97.25, 130.88 98.88, 25 100 M475 100 C341.76 98.25, 209.27 98.09, 25 100 M25 100 C10.5 96.35, -3.91 95.26, 0 75 M25 100 C7.26 97.01, 2.94 94.95, 0 75 M0 75 C3.58 53.89, -2.22 38.68, 0 25 M0 75 C0.71 63.52, -1.32 54.03, 0 25 M0 25 C3.32 5.39, 9.23 -0.04, 25 0 M0 25 C-4.55 8.98, 4.23 1.93, 25 0" stroke="#f08c00" stroke-width="2" fill="none"></path></g><g transform="translate(1103.984375 778.3999999999996) rotate(0 116.015625 21.600000000000364)"><text x="116.015625" y="0" font-family="Cascadia, Segoe UI Emoji" font-size="36px" fill="#1e1e1e" text-anchor="middle" style="white-space: pre;" direction="ltr" dominant-baseline="text-before-edge">Partition 1</text></g><g stroke-linecap="round"><g transform="translate(458.8722956589372 388.837375353065) rotate(0 254.93049762365627 63.00269736804876)"><path d="M-2.53 1.82 C83.23 22.09, 426.79 103.29, 512.39 124.19" stroke="#1e1e1e" stroke-width="4.5" fill="none" stroke-dasharray="8 12"></path></g><g transform="translate(458.8722956589372 388.837375353065) rotate(0 254.93049762365627 63.00269736804876)"><path d="M485.18 130.83 C486.69 128.77, 497.66 122.99, 516.19 120.73" stroke="#1e1e1e" stroke-width="4.5" fill="none"></path></g><g transform="translate(458.8722956589372 388.837375353065) rotate(0 254.93049762365627 63.00269736804876)"><path d="M489.96 110.88 C490.77 113.17, 500.68 111.84, 516.19 120.73" stroke="#1e1e1e" stroke-width="4.5" fill="none"></path></g></g><mask></mask><g stroke-linecap="round"><g transform="translate(430 150) rotate(0 270.98039821609837 309.2022892929617)"><path d="M0.31 -1.89 C90.47 101.82, 451.27 517.04, 541.65 620.29" stroke="#1e1e1e" stroke-width="4.5" fill="none" stroke-dasharray="8 12"></path></g><g transform="translate(430 150) rotate(0 270.98039821609837 309.2022892929617)"><path d="M512.69 608.14 C524.16 614.12, 528.89 615.28, 544.35 621.23" stroke="#1e1e1e" stroke-width="4.5" fill="none"></path></g><g transform="translate(430 150) rotate(0 270.98039821609837 309.2022892929617)"><path d="M528.16 594.65 C534.4 605.06, 534.1 610.62, 544.35 621.23" stroke="#1e1e1e" stroke-width="4.5" fill="none"></path></g></g><mask></mask><g stroke-linecap="round"><g transform="translate(470 750) rotate(0 251.4954911135137 -37.94845957979578)"><path d="M1.28 2.72 C85.15 -10.37, 419.04 -65.16, 501.71 -78.61" stroke="#1e1e1e" stroke-width="4.5" fill="none" stroke-dasharray="8 12"></path></g><g transform="translate(470 750) rotate(0 251.4954911135137 -37.94845957979578)"><path d="M479.42 -61.5 C483.99 -71.65, 491.36 -69.73, 504.4 -75.78" stroke="#1e1e1e" stroke-width="4.5" fill="none"></path></g><g transform="translate(470 750) rotate(0 251.4954911135137 -37.94845957979578)"><path d="M476.11 -81.75 C481.48 -86.94, 489.66 -80.02, 504.4 -75.78" stroke="#1e1e1e" stroke-width="4.5" fill="none"></path></g></g><mask></mask><g stroke-linecap="round"><g transform="translate(450 570) rotate(0 258.6868128441274 -82.45720112547224)"><path d="M-2.69 -2.27 C83.85 -29.83, 433.21 -136.77, 520.06 -162.65" stroke="#1e1e1e" stroke-width="4.5" fill="none" stroke-dasharray="8 12"></path></g><g transform="translate(450 570) rotate(0 258.6868128441274 -82.45720112547224)"><path d="M492.81 -144.57 C499.83 -152.37, 515.08 -155.52, 519.18 -165.6" stroke="#1e1e1e" stroke-width="4.5" fill="none"></path></g><g transform="translate(450 570) rotate(0 258.6868128441274 -82.45720112547224)"><path d="M486.86 -164.21 C496.23 -165.42, 513.44 -162.1, 519.18 -165.6" stroke="#1e1e1e" stroke-width="4.5" fill="none"></path></g></g><mask></mask></svg>