<svg version="1.1" xmlns="http://www.w3.org/2000/svg" viewBox="0 0 2300 740" width="2300" height="740">
  <!-- svg-source:excalidraw -->
  
  <defs>
    <style class="style-fonts">
      @font-face {
        font-family: "Virgil";
        src: url("https://excalidraw.com/Virgil.woff2");
      }
      @font-face {
        font-family: "Cascadia";
        src: url("https://excalidraw.com/Cascadia.woff2");
      }
    </style>
    
  </defs>
  <rect x="0" y="0" width="2300" height="740" fill="#ffffff"></rect><g stroke-linecap="round" transform="translate(10 10) rotate(0 1140 360)"><path d="M32.54 -3.6 L2248.87 -2.06 L2261.28 4.08 L2273.62 14.82 L2279.71 32.29 L2279.24 690.81 L2275.59 701.04 L2269.76 713.11 L2248.22 723.75 L30.77 720.39 L16.45 715.3 L6.4 703.73 L2.73 687.99 L2.38 33.64 L1.03 19.56 L4.47 4.6 L18.93 -0.8 L30.01 0.5" stroke="none" stroke-width="0" fill="#fff"></path><path d="M32 0 M32 0 C557.96 -11.59, 1088.01 -11.16, 2248 0 M32 0 C581.03 -8.32, 1130.44 -8.54, 2248 0 M2248 0 C2271.36 1.84, 2281.93 12.94, 2280 32 M2248 0 C2268.2 2.02, 2281.68 7.88, 2280 32 M2280 32 C2284.79 218.36, 2283.26 403.13, 2280 688 M2280 32 C2277.94 173, 2277.56 313.66, 2280 688 M2280 688 C2280.05 707.92, 2269.24 717.06, 2248 720 M2280 688 C2276.33 711.59, 2268.6 718.64, 2248 720 M2248 720 C1601.32 712, 955.75 712.78, 32 720 M2248 720 C1805.56 733.78, 1361.81 733.36, 32 720 M32 720 C10.54 722.51, 2.9 708.47, 0 688 M32 720 C7.37 720.94, -2.85 706.37, 0 688 M0 688 C0.61 489.03, -1.04 289.56, 0 32 M0 688 C4.19 427.21, 4.25 167.56, 0 32 M0 32 C-2.36 12.65, 10.32 -0.55, 32 0 M0 32 C2.3 7.47, 15.04 1.89, 32 0" stroke="#1e1e1e" stroke-width="4" fill="none"></path></g><g stroke-linecap="round" transform="translate(90 170) rotate(0 420 200)"><path d="M35.38 -2.58 L804.07 3.96 L823.81 4.59 L836.63 9.6 L838.7 32.13 L837.36 365.05 L838.32 386.83 L826.72 394.39 L806.33 401.01 L28.61 397.21 L12.86 393.58 L0.86 380.2 L-2.53 368.99 L-1.25 31.6 L5.64 19.77 L8.5 10.72 L16.3 4 L31.74 0.42" stroke="none" stroke-width="0" fill="#fff"></path><path d="M32 0 M32 0 C309 -4.74, 587.9 -4.54, 808 0 M32 0 C202.96 -4.37, 374.69 -3.42, 808 0 M808 0 C830.37 3.02, 843.8 10.46, 840 32 M808 0 C828.01 3.79, 842.29 7.82, 840 32 M840 32 C843.49 101.82, 840.73 172.81, 840 368 M840 32 C834.97 150.02, 835.62 267.15, 840 368 M840 368 C842.87 389.4, 828.79 397.06, 808 400 M840 368 C840.64 386.75, 828.42 399.07, 808 400 M808 400 C650.72 395.73, 496.53 394.08, 32 400 M808 400 C513.6 403.76, 218.81 402.92, 32 400 M32 400 C11.61 397.8, -0.26 390.11, 0 368 M32 400 C7.82 397.22, -3.81 389.62, 0 368 M0 368 C-0.45 237.46, 1.14 104.35, 0 32 M0 368 C1.36 233.84, 3.65 98.15, 0 32 M0 32 C3.7 13.06, 7.36 1.32, 32 0 M0 32 C3.17 13.04, 8.11 -2.94, 32 0" stroke="#1e1e1e" stroke-width="4" fill="none"></path></g><g stroke-linecap="round" transform="translate(490 270) rotate(0 190 100)"><path d="M33.57 -2.07 L348.57 -2.16 L370.37 1.55 L378.15 15.11 L377.41 31.18 L381.13 169.86 L372.87 188.64 L367.91 195.21 L348.37 197.34 L32.33 203.82 L13.97 195.24 L4.67 184.94 L-2.34 177.36 L3.13 23.88 L5.37 6.78 L19.86 -1.99 L29.46 -0.85" stroke="none" stroke-width="0" fill="#a5d8ff"></path><path d="M32 0 M32 0 C152.16 -0.56, 273.88 3.35, 348 0 M32 0 C132.01 2.06, 231.04 1.51, 348 0 M348 0 C371.74 2.78, 381.52 10.21, 380 32 M348 0 C367.94 0.93, 383.5 7.74, 380 32 M380 32 C384.38 67.94, 382.91 96.18, 380 168 M380 32 C381.56 63.08, 380.85 93.01, 380 168 M380 168 C379.52 186.84, 370.44 200.29, 348 200 M380 168 C375.7 192.41, 366.35 195.67, 348 200 M348 200 C222.06 200.02, 97.54 203.33, 32 200 M348 200 C249.83 202.43, 152.59 202.94, 32 200 M32 200 C13.31 200.36, -3.33 187.14, 0 168 M32 200 C10.7 203.46, 1.01 187.17, 0 168 M0 168 C-1.26 131.61, -0.53 99.21, 0 32 M0 168 C-1.53 125.39, -2.73 85.35, 0 32 M0 32 C-1.73 8.99, 8.31 1.91, 32 0 M0 32 C4.43 9.63, 7.14 -4.01, 32 0" stroke="#1971c2" stroke-width="4" fill="none"></path></g><g transform="translate(574.53125 348.39999999999964) rotate(0 105.46875 21.600000000000364)"><text x="105.46875" y="0" font-family="Cascadia, Segoe UI Emoji" font-size="36px" fill="#1e1e1e" text-anchor="middle" style="white-space: pre;" direction="ltr" dominant-baseline="text-before-edge">Client SDK</text></g><g transform="translate(130 350) rotate(0 96.1875 21.600000000000364)"><text x="0" y="0" font-family="Cascadia, Segoe UI Emoji" font-size="36px" fill="#1e1e1e" text-anchor="start" style="white-space: pre;" direction="ltr" dominant-baseline="text-before-edge">命令行 CLI</text></g><g stroke-linecap="round" transform="translate(1450 110) rotate(0 380 260)"><path d="M35.54 2.07 L727.99 -1.81 L749.39 2.7 L752.83 9.24 L758.63 32.32 L763.21 488.39 L753.94 505.99 L750.07 518.9 L725.56 520.21 L33.95 523.49 L16.29 517.9 L3.43 499.81 L0.5 491.43 L-1.34 34.94 L0.61 17.11 L8.85 10.91 L18.63 4.68 L28.77 1.19" stroke="none" stroke-width="0" fill="#fff"></path><path d="M32 0 M32 0 C181.78 -1, 330.1 -0.77, 728 0 M32 0 C235.53 -2.99, 438.67 -3.18, 728 0 M728 0 C749.21 -1.16, 757.75 9.68, 760 32 M728 0 C747.87 0.99, 763.42 11.28, 760 32 M760 32 C757.48 178.1, 759.04 322.48, 760 488 M760 32 C763.11 201.82, 762.66 370.9, 760 488 M760 488 C758.46 506.99, 747.58 517.92, 728 520 M760 488 C758.46 510.71, 752.85 521.28, 728 520 M728 520 C545.01 515.01, 362.19 514.02, 32 520 M728 520 C526.86 517.72, 325.05 517.84, 32 520 M32 520 C12.37 516.28, -3.82 508.4, 0 488 M32 520 C7.63 523.67, 1.94 509.23, 0 488 M0 488 C1.53 317.31, 2.85 147.56, 0 32 M0 488 C-1.58 369.05, -2.06 249.9, 0 32 M0 32 C2.62 7.52, 8.58 -1.58, 32 0 M0 32 C3.66 13, 12.77 0.78, 32 0" stroke="#1e1e1e" stroke-width="4" fill="none"></path></g><g stroke-linecap="round" transform="translate(1530 170) rotate(0 130 200)"><path d="M28.28 -3.82 L227.06 -2.64 L245.19 3.69 L255.41 15.45 L257.19 29.13 L256.84 367.35 L257.62 382.68 L245.9 396.54 L227.26 398.07 L30.6 396.03 L14.31 400.62 L1.35 385.41 L-1.58 371.19 L2.53 26.33 L8.68 8.2 L14.44 -1.5 L29.62 1.65" stroke="none" stroke-width="0" fill="#ffec99"></path><path d="M32 0 M32 0 C112.68 -5.75, 187.9 -4.32, 228 0 M32 0 C89.67 -0.53, 145.48 0.24, 228 0 M228 0 C252.26 -3.66, 260.33 11.92, 260 32 M228 0 C248.66 -3.99, 258.93 9.29, 260 32 M260 32 C259.8 149.57, 262.23 267.94, 260 368 M260 32 C262.3 111.6, 263.27 192.22, 260 368 M260 368 C259.47 392.94, 252.65 401.48, 228 400 M260 368 C263.16 391.89, 248.66 402.35, 228 400 M228 400 C170.66 397.97, 119.6 398.7, 32 400 M228 400 C168.03 403.39, 111.13 401.59, 32 400 M32 400 C6.72 403.21, -0.04 389.64, 0 368 M32 400 C10.8 397.09, 1.2 385.14, 0 368 M0 368 C2.71 269.16, 2.06 173.02, 0 32 M0 368 C2.87 243.36, 0.63 117.07, 0 32 M0 32 C2.22 14.15, 7.55 0.8, 32 0 M0 32 C0.69 6.87, 11.65 -4.42, 32 0" stroke="#f08c00" stroke-width="4" fill="none"></path></g><g transform="translate(1575.625 326.7999999999993) rotate(0 84.375 43.19999999999982)"><text x="84.375" y="0" font-family="Cascadia, Segoe UI Emoji" font-size="36px" fill="#1e1e1e" text-anchor="middle" style="white-space: pre;" direction="ltr" dominant-baseline="text-before-edge">Kafka</text><text x="84.375" y="43.199999999999996" font-family="Cascadia, Segoe UI Emoji" font-size="36px" fill="#1e1e1e" text-anchor="middle" style="white-space: pre;" direction="ltr" dominant-baseline="text-before-edge">Protocol</text></g><g transform="translate(2030 350) rotate(0 63.28125 21.600000000000364)"><text x="0" y="0" font-family="Cascadia, Segoe UI Emoji" font-size="36px" fill="#1e1e1e" text-anchor="start" style="white-space: pre;" direction="ltr" dominant-baseline="text-before-edge">Broker</text></g><g mask="url(#mask-g7RIMDegTc-do9Eg16aWJ)" stroke-linecap="round"><g transform="translate(931 350.1693238350581) rotate(0 260.1622882607953 0.29488967155248247)"><path d="M2.36 -1.87 C89.16 -2.44, 434.11 -2.95, 520.13 -2.55 M0.19 3.28 C86.88 2.9, 432.93 -0.36, 519.05 -0.25" stroke="#1e1e1e" stroke-width="4" fill="none"></path></g><g transform="translate(931 350.1693238350581) rotate(0 260.1622882607953 0.29488967155248247)"><path d="M488.23 13.19 C495.11 7.47, 507.26 -0.01, 521.45 3.12 M491.37 10.5 C497.63 8.19, 507.15 4.7, 517.19 -1.09" stroke="#1e1e1e" stroke-width="4" fill="none"></path></g><g transform="translate(931 350.1693238350581) rotate(0 260.1622882607953 0.29488967155248247)"><path d="M488.13 -7.33 C495.16 -7.39, 507.33 -9.22, 521.45 3.12 M491.27 -10.02 C497.59 -6.44, 507.14 -4.03, 517.19 -1.09" stroke="#1e1e1e" stroke-width="4" fill="none"></path></g></g><mask id="mask-g7RIMDegTc-do9Eg16aWJ"><rect x="0" y="0" fill="#fff" width="1549" height="450.2701663843891"></rect><rect x="1090.71875" y="328.51890256039223" fill="#000" width="198.5625" height="43.199999999999996" opacity="1"></rect></mask><g transform="translate(1090.71875 328.51890256039223) rotate(0 100.44353826079532 21.945310946218342)"><text x="99.28125" y="0" font-family="Cascadia, Segoe UI Emoji" font-size="36px" fill="#1e1e1e" text-anchor="middle" style="white-space: pre;" direction="ltr" dominant-baseline="text-before-edge">Admin 操作</text></g></svg>