<svg version="1.1" xmlns="http://www.w3.org/2000/svg" viewBox="0 0 1280 742.6470588235297" width="1280" height="742.6470588235297">
  <!-- svg-source:excalidraw -->
  
  <defs>
    <style class="style-fonts">
      @font-face {
        font-family: "Virgil";
        src: url("https://excalidraw.com/Virgil.woff2");
      }
      @font-face {
        font-family: "Cascadia";
        src: url("https://excalidraw.com/Cascadia.woff2");
      }
    </style>
    
  </defs>
  <rect x="0" y="0" width="1280" height="742.6470588235297" fill="#ffffff"></rect><g stroke-linecap="round" transform="translate(10 10) rotate(0 630 361.32352941176487)"><path d="M35.17 -0.86 L1224.09 3.71 L1243.56 7.56 L1258.97 15.69 L1258.69 29.1 L1259.16 688.24 L1256.07 712.39 L1249.41 720.33 L1230.66 725.7 L35.89 724.45 L9.87 717.79 L0.72 707.5 L-3.47 694.34 L1.46 29.27 L5.41 20.44 L4.6 6.61 L18.73 4.69 L30.08 -2.07" stroke="none" stroke-width="0" fill="#fff"></path><path d="M32 0 M32 0 C469.82 7.65, 906.42 6.13, 1228 0 M32 0 C471.85 -4.2, 910.55 -4.73, 1228 0 M1228 0 C1249.58 3.52, 1259.46 12.66, 1260 32 M1228 0 C1250.09 2.02, 1260.99 12.56, 1260 32 M1260 32 C1261 183.81, 1260.21 333.74, 1260 690.65 M1260 32 C1259.79 277.57, 1260.41 522.06, 1260 690.65 M1260 690.65 C1258.48 715.86, 1251.05 719.2, 1228 722.65 M1260 690.65 C1260.84 708.05, 1248.65 718.34, 1228 722.65 M1228 722.65 C926.71 728.33, 625.62 727.66, 32 722.65 M1228 722.65 C817.94 715.13, 407.01 715.69, 32 722.65 M32 722.65 C14.45 724.38, 2.12 715.21, 0 690.65 M32 722.65 C8.55 722.04, -1.44 709.75, 0 690.65 M0 690.65 C0.93 500.9, 1.17 308.45, 0 32 M0 690.65 C-0.13 531.52, -0.68 370.63, 0 32 M0 32 C-2.66 14.38, 8.74 -1.75, 32 0 M0 32 C-0.11 11.67, 7.02 -4.17, 32 0" stroke="#1e1e1e" stroke-width="4" fill="none"></path></g><g stroke-linecap="round" transform="translate(65.58823529411711 473.23529411764684) rotate(0 213.08823529411802 101.91176470588198)"><path d="M43.55 40.72 C52.83 32.05, 72.03 23.79, 89.14 18.2 C106.25 12.6, 126.26 10.04, 146.22 7.16 C166.18 4.28, 188.57 1.69, 208.91 0.92 C229.25 0.16, 248.22 0.14, 268.27 2.56 C288.33 4.98, 311.02 9.89, 329.24 15.45 C347.45 21, 364.32 27.83, 377.56 35.87 C390.8 43.9, 400.51 54.48, 408.68 63.66 C416.86 72.84, 424.63 81.4, 426.6 90.93 C428.57 100.45, 425.03 110.58, 420.49 120.82 C415.95 131.05, 408.71 143.28, 399.35 152.32 C390 161.37, 379.06 168.11, 364.36 175.07 C349.66 182.04, 330.22 189.85, 311.16 194.12 C292.11 198.39, 270.57 198.89, 250.01 200.69 C229.45 202.49, 208.13 205.96, 187.79 204.91 C167.46 203.87, 147.18 198.76, 127.99 194.43 C108.79 190.11, 88.91 185.24, 72.61 178.99 C56.3 172.73, 41.32 165.48, 30.16 156.9 C19 148.33, 10.56 137.42, 5.64 127.54 C0.73 117.67, -0.33 107.95, 0.69 97.65 C1.71 87.36, -0.34 77.92, 11.76 65.75 C23.87 53.59, 56.75 33.02, 73.31 24.66 C89.86 16.31, 108.81 14.19, 111.08 15.62 M284.24 6.93 C303.97 9.08, 324.7 16.07, 341.66 21.82 C358.62 27.57, 373.96 33.43, 386.01 41.43 C398.06 49.42, 407.05 60.57, 413.95 69.79 C420.86 79.01, 426.97 86.9, 427.44 96.74 C427.9 106.58, 422.24 118.75, 416.74 128.82 C411.24 138.88, 404.86 148.22, 394.42 157.12 C383.98 166.02, 370.16 176.07, 354.11 182.23 C338.06 188.39, 317.48 190.65, 298.14 194.06 C278.8 197.48, 258.74 201.7, 238.07 202.74 C217.39 203.79, 194.87 202.19, 174.09 200.33 C153.32 198.48, 132.17 196.05, 113.41 191.61 C94.66 187.16, 76.67 180.84, 61.57 173.66 C46.47 166.47, 32.49 157.34, 22.82 148.48 C13.16 139.63, 7.22 130.08, 3.58 120.51 C-0.07 110.94, -1.53 100.86, 0.95 91.06 C3.42 81.26, 9.46 71.1, 18.42 61.74 C27.38 52.38, 40.83 42.36, 54.71 34.91 C68.58 27.47, 84.55 22.68, 101.69 17.09 C118.83 11.5, 138 4.05, 157.55 1.37 C177.1 -1.31, 198.16 -0.08, 219 1 C239.83 2.09, 271.48 6.74, 282.55 7.87 C293.63 9.01, 286.81 6.31, 285.45 7.82" stroke="none" stroke-width="0" fill="#e7f5ff"></path><path d="M160.61 3.98 C178.87 0.27, 203.7 -0.85, 225.01 -0.54 C246.31 -0.23, 268.92 2.17, 288.43 5.82 C307.94 9.47, 325.4 15.51, 342.07 21.36 C358.73 27.21, 376.4 32.72, 388.43 40.91 C400.45 49.11, 408.1 60.65, 414.22 70.54 C420.34 80.43, 424.42 90.21, 425.14 100.26 C425.85 110.3, 424.39 121.1, 418.5 130.79 C412.62 140.49, 401.39 149.93, 389.83 158.43 C378.27 166.92, 364.91 175.74, 349.16 181.75 C333.4 187.76, 314.83 190.74, 295.3 194.47 C275.76 198.21, 252.88 203.09, 231.94 204.16 C211 205.23, 190.01 202.94, 169.66 200.91 C149.31 198.87, 128.34 196.4, 109.84 191.97 C91.34 187.54, 73.14 181.46, 58.67 174.31 C44.2 167.16, 32.05 158.46, 23.05 149.08 C14.05 139.71, 8.48 127.91, 4.66 118.04 C0.84 108.18, -2.31 99.47, 0.11 89.92 C2.53 80.37, 10.33 70.36, 19.21 60.74 C28.09 51.11, 39.54 39.65, 53.39 32.16 C67.24 24.67, 80.94 20.86, 102.31 15.8 C123.68 10.74, 165.02 4.02, 181.6 1.78 C198.19 -0.47, 201.46 0.87, 201.8 2.33 M361.73 26.2 C378.97 31.62, 390.61 44.7, 400.6 54.09 C410.6 63.49, 417.98 72.89, 421.73 82.57 C425.48 92.25, 424.66 102.02, 423.11 112.16 C421.55 122.31, 419.95 134.49, 412.41 143.42 C404.87 152.36, 391.94 158.78, 377.88 165.79 C363.82 172.8, 345.3 179.39, 328.03 185.49 C310.75 191.59, 293.86 199.68, 274.22 202.41 C254.58 205.14, 231.16 202.71, 210.17 201.89 C189.18 201.07, 168.81 200.03, 148.3 197.5 C127.78 194.97, 104.9 192.37, 87.09 186.71 C69.28 181.05, 53.29 171.31, 41.45 163.53 C29.62 155.75, 23 149.81, 16.1 140.03 C9.2 130.25, 1.7 115.75, 0.04 104.84 C-1.61 93.94, 1.18 84.36, 6.18 74.62 C11.18 64.89, 19.13 54.67, 30.06 46.43 C40.99 38.2, 55.94 30.92, 71.75 25.2 C87.55 19.48, 105.7 15.97, 124.88 12.13 C144.06 8.29, 166.31 3.77, 186.82 2.18 C207.33 0.59, 227.75 0.87, 247.93 2.58 C268.1 4.3, 289.36 7.98, 307.88 12.45 C326.39 16.93, 350.14 26.37, 359.01 29.42 C367.87 32.47, 363.42 29.63, 361.07 30.73" stroke="#a5d8ff" stroke-width="4" fill="none"></path></g><g transform="translate(219.8772875456889 555.0727942114281) rotate(0 58.623046875 20.011764705882342)"><text x="58.623046875" y="0" font-family="Cascadia, Segoe UI Emoji" font-size="33.35294117647059px" fill="#1e1e1e" text-anchor="middle" style="white-space: pre;" direction="ltr" dominant-baseline="text-before-edge">Client</text></g><g stroke-linecap="round" transform="translate(769.7058823529405 84.11764705882342) rotate(0 194.5588235294117 64.85294117647027)"><path d="M30.14 0.13 L358.2 -0.68 L367.41 3.6 L379.89 9.54 L388.74 26.6 L386.76 101.13 L390.6 115.48 L378.38 121.6 L354.81 132.05 L30.67 133.14 L17.48 126.77 L7.83 120.32 L-0.46 101.99 L-1.37 22.04 L11.98 11.9 L18.91 2.39 L35.36 -1.63" stroke="none" stroke-width="0" fill="#ffc9c9"></path><path d="M32 0 M32 0 C107.34 -4.85, 177.5 -3.54, 357.12 0 M32 0 C105.3 2.86, 178.74 1.97, 357.12 0 M357.12 0 C375.17 -0.36, 388.61 7.86, 389.12 32 M357.12 0 C381.27 -1.2, 390.55 12.23, 389.12 32 M389.12 32 C389.98 58.78, 390.78 83.11, 389.12 97.71 M389.12 32 C389.82 50.01, 387.57 70.43, 389.12 97.71 M389.12 97.71 C390.86 119.95, 381.91 133.49, 357.12 129.71 M389.12 97.71 C389.92 116.9, 381.3 128.97, 357.12 129.71 M357.12 129.71 C244.73 130.24, 132.73 129.13, 32 129.71 M357.12 129.71 C267.32 130.14, 178.11 130.13, 32 129.71 M32 129.71 C14.19 129.37, 1.78 121.24, 0 97.71 M32 129.71 C8.97 126.63, -4.3 120.45, 0 97.71 M0 97.71 C-0.82 77.95, 1.04 68.3, 0 32 M0 97.71 C0.89 76.94, -0.42 56.86, 0 32 M0 32 C3.44 9.76, 9.21 2.77, 32 0 M0 32 C-4.5 13.61, 10.89 1.56, 32 0" stroke="#fa5252" stroke-width="4" fill="none"></path></g><g transform="translate(876.3301355698532 128.95882352941226) rotate(0 87.9345703125 20.011764705882342)"><text x="87.9345703125" y="0" font-family="Cascadia, Segoe UI Emoji" font-size="33.35294117647059px" fill="#1e1e1e" text-anchor="middle" style="white-space: pre;" direction="ltr" dominant-baseline="text-before-edge">Zookeeper</text></g><g stroke-linecap="round" transform="translate(769.7058823529405 491.76470588235316) rotate(0 203.82352941176487 74.11764705882342)"><path d="M28.59 3.41 L379.14 3.88 L386.26 2.77 L401.51 5.04 L410.28 22.25 L406.8 115.38 L406.04 128.06 L393.05 147.61 L375.86 150.18 L34.19 144.64 L15.94 142.71 L5.66 137.55 L1.02 120.94 L4.03 27.12 L6.44 5.39 L14.57 5.79 L33.74 3.71" stroke="none" stroke-width="0" fill="#ffd8a8"></path><path d="M32 0 M32 0 C161.97 3.85, 292.08 6.16, 375.65 0 M32 0 C141.38 0.51, 250.29 -1.86, 375.65 0 M375.65 0 C399.6 -1.76, 409.32 12.06, 407.65 32 M375.65 0 C392.8 -2.58, 404.71 9.45, 407.65 32 M407.65 32 C403.51 63.25, 409.4 92.87, 407.65 116.24 M407.65 32 C406.75 51.66, 404.25 73.58, 407.65 116.24 M407.65 116.24 C407.94 137, 399.22 150.04, 375.65 148.24 M407.65 116.24 C409.98 140.69, 396.12 152.43, 375.65 148.24 M375.65 148.24 C257.25 146.8, 132.38 149.34, 32 148.24 M375.65 148.24 C239.38 151.13, 102.2 149.55, 32 148.24 M32 148.24 C14.55 148.37, 2.55 138.22, 0 116.24 M32 148.24 C10.35 150.72, 1.94 137.7, 0 116.24 M0 116.24 C-2.36 86.68, -2.23 64.93, 0 32 M0 116.24 C-1.54 87.69, -3.39 57.88, 0 32 M0 32 C1.25 9.47, 11.14 3.61, 32 0 M0 32 C-2.4 13.36, 6.58 0.66, 32 0" stroke="#fab005" stroke-width="4" fill="none"></path></g><g transform="translate(914.9063648897045 545.8705882352951) rotate(0 58.623046875 20.011764705882342)"><text x="58.623046875" y="0" font-family="Cascadia, Segoe UI Emoji" font-size="33.35294117647059px" fill="#1e1e1e" text-anchor="middle" style="white-space: pre;" direction="ltr" dominant-baseline="text-before-edge">Broker</text></g><g stroke-linecap="round"><g transform="translate(491.76470588235316 565.8823529411766) rotate(0 137.90159534141276 0.6137036989930493)"><path d="M0.49 0.06 C46.6 -0.3, 232.54 0.27, 278.49 -0.02 M-2.69 -2.38 C42.94 -2.46, 229.1 3.12, 276.55 3.6" stroke="#1e1e1e" stroke-width="4" fill="none"></path></g><g transform="translate(491.76470588235316 565.8823529411766) rotate(0 137.90159534141276 0.6137036989930493)"><path d="M248.24 14.06 C258.33 7.12, 266.33 6.25, 277.8 5.32 M246.53 14.06 C253.91 11.48, 263.4 8.2, 275.21 5.36" stroke="#1e1e1e" stroke-width="4" fill="none"></path></g><g transform="translate(491.76470588235316 565.8823529411766) rotate(0 137.90159534141276 0.6137036989930493)"><path d="M248.67 -6.46 C258.92 -5.92, 266.77 0.69, 277.8 5.32 M246.96 -6.46 C254.2 -4.16, 263.59 -2.58, 275.21 5.36" stroke="#1e1e1e" stroke-width="4" fill="none"></path></g></g><mask></mask><g stroke-linecap="round"><g transform="translate(843.823529411764 213.82352941176396) rotate(0 -0.7239338886738551 138.4378480631467)"><path d="M-0.18 -0.58 C-0.43 45.72, -2.89 230.51, -2.68 277.07 M-3.72 -3.36 C-3.04 43.41, 1.68 234.05, 2.27 280.23" stroke="#1e1e1e" stroke-width="4" fill="none"></path></g><g transform="translate(843.823529411764 213.82352941176396) rotate(0 -0.7239338886738551 138.4378480631467)"><path d="M-9.36 248.42 C-7.13 261.01, -1.88 270.28, 4.58 281.04 M-9.72 252.94 C-3.24 260.78, -2.28 268.72, 3.59 281.84" stroke="#1e1e1e" stroke-width="4" fill="none"></path></g><g transform="translate(843.823529411764 213.82352941176396) rotate(0 -0.7239338886738551 138.4378480631467)"><path d="M11.16 248.02 C8.09 260.69, 8.05 270.06, 4.58 281.04 M10.8 252.54 C11.61 260.81, 6.89 268.86, 3.59 281.84" stroke="#1e1e1e" stroke-width="4" fill="none"></path></g></g><mask></mask><g stroke-linecap="round"><g transform="translate(1103.2352941176468 491.76470588235316) rotate(0 -1.2755785807594293 -139.0642600754627)"><path d="M0.84 1.64 C0.44 -44.57, -0.57 -229, -0.75 -275.88 M-2.15 0.07 C-3.13 -47.04, -3.38 -233.52, -3.39 -279.77" stroke="#1e1e1e" stroke-width="4" fill="none"></path></g><g transform="translate(1103.2352941176468 491.76470588235316) rotate(0 -1.2755785807594293 -139.0642600754627)"><path d="M9.25 -252.66 C5.88 -261.99, -3.2 -275.32, -5.46 -283.35 M4.92 -249.93 C4.11 -260.58, -0.74 -270.95, -3.33 -279.14" stroke="#1e1e1e" stroke-width="4" fill="none"></path></g><g transform="translate(1103.2352941176468 491.76470588235316) rotate(0 -1.2755785807594293 -139.0642600754627)"><path d="M-11.27 -252.64 C-7.29 -262.1, -9.01 -275.44, -5.46 -283.35 M-15.6 -249.91 C-8.86 -260.79, -6.17 -271.17, -3.33 -279.14" stroke="#1e1e1e" stroke-width="4" fill="none"></path></g></g><mask></mask><g stroke-linecap="round"><g transform="translate(343.5294117647063 473.23529411764684) rotate(0 212.44342144694838 -158.50921670831758)"><path d="M-2.24 -0.37 C7.68 -46.54, -14.54 -225.57, 57.02 -278.28 C128.58 -331, 365.41 -310.81, 427.13 -316.65" stroke="#1e1e1e" stroke-width="4.5" fill="none" stroke-dasharray="8 12"></path></g><g transform="translate(343.5294117647063 473.23529411764684) rotate(0 212.44342144694838 -158.50921670831758)"><path d="M398.51 -304.07 C404.54 -306.52, 408.56 -308.42, 429.53 -319.9" stroke="#1e1e1e" stroke-width="4.5" fill="none"></path></g><g transform="translate(343.5294117647063 473.23529411764684) rotate(0 212.44342144694838 -158.50921670831758)"><path d="M398.32 -324.6 C404.2 -322.73, 408.26 -320.33, 429.53 -319.9" stroke="#1e1e1e" stroke-width="4.5" fill="none"></path></g></g><mask></mask><g transform="translate(531.2320967864889 123.21173266882215) rotate(0 -37.05882352941171 46.323529411764866)" stroke="none"><path fill="#e03131" d="M 6.80,6.23 Q 6.80,6.23 -0.09,12.98 -6.98,19.73 -12.27,25.09 -17.55,30.44 -22.08,35.19 -26.60,39.94 -30.84,44.39 -35.07,48.84 -39.77,54.01 -44.47,59.17 -47.24,63.55 -50.02,67.93 -52.35,71.79 -54.67,75.66 -56.04,79.74 -57.40,83.82 -59.29,88.26 -61.19,92.71 -64.30,97.05 -67.41,101.39 -68.98,102.23 -70.55,103.07 -72.31,103.37 -74.07,103.66 -75.83,103.38 -77.59,103.10 -79.17,102.27 -80.75,101.44 -81.98,100.15 -83.21,98.86 -83.97,97.25 -84.72,95.63 -84.92,93.86 -85.12,92.09 -84.74,90.34 -84.37,88.60 -83.45,87.07 -82.54,85.54 -81.18,84.38 -79.83,83.22 -78.18,82.55 -76.52,81.89 -74.74,81.78 -72.96,81.68 -71.24,82.15 -69.52,82.62 -68.04,83.62 -66.56,84.61 -65.48,86.03 -64.39,87.44 -63.82,89.13 -63.24,90.82 -63.24,92.60 -63.23,94.39 -63.79,96.08 -64.36,97.77 -65.43,99.19 -66.50,100.62 -67.98,101.62 -69.45,102.63 -71.17,103.11 -72.88,103.59 -74.66,103.50 -76.44,103.41 -78.10,102.76 -79.76,102.11 -81.12,100.96 -82.49,99.81 -83.41,98.28 -84.34,96.76 -84.73,95.02 -85.12,93.28 -84.93,91.50 -84.74,89.73 -84.00,88.11 -83.26,86.49 -82.03,85.19 -80.81,83.89 -80.81,83.89 -80.82,83.89 -80.98,85.16 -81.14,86.43 -78.75,82.22 -76.37,78.00 -72.95,71.79 -69.54,65.57 -66.76,61.93 -63.99,58.28 -60.32,53.33 -56.66,48.39 -51.78,42.75 -46.91,37.12 -42.54,32.88 -38.17,28.64 -33.60,24.07 -29.03,19.50 -24.04,14.09 -19.05,8.67 -12.92,1.22 -6.80,-6.23 -5.95,-6.95 -5.11,-7.67 -4.11,-8.17 -3.12,-8.67 -2.04,-8.92 -0.95,-9.17 0.15,-9.15 1.26,-9.13 2.34,-8.85 3.41,-8.56 4.39,-8.03 5.36,-7.50 6.18,-6.75 7.00,-5.99 7.62,-5.07 8.23,-4.14 8.61,-3.10 8.99,-2.05 9.10,-0.94 9.22,0.15 9.07,1.25 8.91,2.35 8.50,3.39 8.09,4.42 7.44,5.32 6.79,6.23 6.79,6.23 L 6.80,6.23 Z"></path></g><g transform="translate(413.87919330820296 100.56466127923159) rotate(0 81.32352312873354 65.88235608269224)" stroke="none"><path fill="#e03131" d="M 4.45,-7.12 Q 4.45,-7.12 9.27,-4.30 14.09,-1.47 18.07,0.81 22.05,3.11 25.76,6.37 29.46,9.64 36.49,15.84 43.53,22.04 48.35,26.80 53.17,31.56 58.59,35.65 64.01,39.73 72.11,45.41 80.21,51.10 86.82,56.08 93.44,61.06 98.91,65.54 104.38,70.02 108.38,72.71 112.38,75.41 117.80,78.94 123.21,82.47 126.61,85.13 130.00,87.79 137.05,93.74 144.10,99.70 147.14,103.52 150.19,107.35 155.91,112.40 161.63,117.45 164.95,119.62 168.26,121.79 169.71,122.95 171.15,124.10 172.15,125.66 173.15,127.22 173.60,129.02 174.05,130.81 173.90,132.66 173.75,134.51 173.03,136.21 172.30,137.91 171.06,139.29 169.83,140.67 168.22,141.58 166.60,142.50 164.79,142.85 162.97,143.20 161.13,142.95 159.30,142.71 157.64,141.89 155.98,141.07 154.67,139.76 153.35,138.45 152.53,136.79 151.70,135.13 151.45,133.30 151.20,131.47 151.55,129.65 151.89,127.83 152.80,126.21 153.71,124.60 155.09,123.36 156.46,122.12 158.16,121.39 159.86,120.65 161.71,120.50 163.56,120.35 165.35,120.79 167.15,121.24 168.71,122.23 170.28,123.23 171.44,124.67 172.60,126.11 173.24,127.85 173.88,129.59 173.93,131.44 173.99,133.29 173.44,135.06 172.90,136.83 171.82,138.34 170.75,139.84 169.24,140.93 167.74,142.01 165.97,142.55 164.20,143.10 162.35,143.05 160.50,143.00 158.76,142.37 157.02,141.73 157.02,141.73 157.02,141.73 153.51,139.43 150.00,137.13 145.28,132.22 140.56,127.32 137.04,123.81 133.52,120.30 129.30,114.20 125.09,108.11 118.85,103.04 112.61,97.96 107.47,93.26 102.34,88.57 98.39,85.20 94.45,81.83 89.58,77.62 84.72,73.41 78.16,69.10 71.60,64.78 62.62,59.72 53.64,54.66 46.73,50.18 39.82,45.70 35.14,41.46 30.46,37.22 25.97,33.32 21.49,29.42 16.76,23.95 12.03,18.49 8.44,15.90 4.84,13.31 0.19,10.22 -4.45,7.12 -5.24,6.48 -6.02,5.85 -6.64,5.04 -7.25,4.23 -7.65,3.31 -8.05,2.38 -8.22,1.38 -8.39,0.38 -8.31,-0.62 -8.24,-1.63 -7.92,-2.60 -7.61,-3.56 -7.07,-4.42 -6.53,-5.28 -5.81,-5.98 -5.08,-6.69 -4.20,-7.20 -3.33,-7.71 -2.36,-8.00 -1.39,-8.28 -0.37,-8.33 0.63,-8.37 1.62,-8.18 2.61,-7.98 3.53,-7.55 4.45,-7.12 4.45,-7.12 L 4.45,-7.12 Z"></path></g></svg>