<svg version="1.1" xmlns="http://www.w3.org/2000/svg" viewBox="0 0 3380 1660" width="3380" height="1660">
  <!-- svg-source:excalidraw -->
  
  <defs>
    <style class="style-fonts">
      @font-face {
        font-family: "Virgil";
        src: url("https://excalidraw.com/Virgil.woff2");
      }
      @font-face {
        font-family: "Cascadia";
        src: url("https://excalidraw.com/Cascadia.woff2");
      }
    </style>
    
  </defs>
  <rect x="0" y="0" width="3380" height="1660" fill="#ffffff"></rect><g stroke-linecap="round" transform="translate(10 10) rotate(0 1680 820)"><path d="M32.61 -1.92 L3329.57 -2.14 L3351.43 4.35 L3354.09 15.64 L3358.21 29.13 L3358.03 1606.7 L3352.27 1624.84 L3344.99 1635.71 L3324.47 1641.35 L32.11 1642.74 L10.25 1634.96 L4.6 1622.82 L0.59 1607.43 L-0.76 32.41 L2.54 16.44 L9.85 6.91 L18.73 5.09 L35.84 -2.83" stroke="none" stroke-width="0" fill="#fff"></path><path d="M32 0 M32 0 C1008.11 -2.71, 1981.08 -1.39, 3328 0 M32 0 C811.57 8.29, 1590.31 8, 3328 0 M3328 0 C3345.55 -3.29, 3363.6 14.03, 3360 32 M3328 0 C3352.49 -1.64, 3357.85 7.68, 3360 32 M3360 32 C3353.24 418.97, 3352.6 807.74, 3360 1608 M3360 32 C3362.61 516.09, 3361.66 998.63, 3360 1608 M3360 1608 C3356.17 1625.52, 3351.45 1639.79, 3328 1640 M3360 1608 C3363.98 1632.69, 3345.15 1637.28, 3328 1640 M3328 1640 C2483.59 1643.36, 1636.96 1642.82, 32 1640 M3328 1640 C2620.26 1618.95, 1911.81 1620.11, 32 1640 M32 1640 C13.14 1636.61, 2.47 1631.47, 0 1608 M32 1640 C14.75 1637.31, -0.62 1629.74, 0 1608 M0 1608 C4.82 1024.78, 5.23 438.83, 0 32 M0 1608 C-10.91 1194.87, -11.2 779.71, 0 32 M0 32 C0.38 12.31, 14.43 -0.6, 32 0 M0 32 C-3.92 13.54, 6.18 1.56, 32 0" stroke="#1e1e1e" stroke-width="4" fill="none"></path></g><g stroke-linecap="round" transform="translate(990 590) rotate(0 680 440)"><path d="M29.29 3.22 L1329.47 3.97 L1347.7 0.88 L1358.56 13.34 L1361.49 28.82 L1357.88 847.78 L1354.21 865.5 L1351.19 873.01 L1326.86 878.93 L33.71 882.35 L10.86 875.71 L-1.4 860.17 L3.08 847.98 L-3.57 28.38 L2.34 15.94 L8.73 7.98 L20.87 1.38 L28.47 -0.47" stroke="none" stroke-width="0" fill="#fff"></path><path d="M32 0 M32 0 C319.33 -4.53, 604.78 -5.58, 1328 0 M32 0 C371.96 8.72, 711.91 7.76, 1328 0 M1328 0 C1350.65 -3.07, 1361.26 11.25, 1360 32 M1328 0 C1348.14 -0.93, 1359.46 7.3, 1360 32 M1360 32 C1358.32 236.72, 1358.22 440.48, 1360 848 M1360 32 C1359.91 200.71, 1359.47 367.38, 1360 848 M1360 848 C1357.51 867.23, 1349.49 880.96, 1328 880 M1360 848 C1362.55 865.18, 1345.05 883.82, 1328 880 M1328 880 C1027.69 879.52, 729.19 877.7, 32 880 M1328 880 C864.09 877.9, 401.61 877.9, 32 880 M32 880 C8.14 879.88, 2.69 866.59, 0 848 M32 880 C10.63 876.37, 1.73 872.19, 0 848 M0 848 C-3.14 638.76, -2.56 432.16, 0 32 M0 848 C-0.51 590.8, -0.83 335.12, 0 32 M0 32 C-2.85 7.09, 7.31 3, 32 0 M0 32 C1.39 13.76, 9.28 -2.39, 32 0" stroke="#1e1e1e" stroke-width="4" fill="none"></path></g><g stroke-linecap="round" transform="translate(1250 690) rotate(0 260 160)"><path d="M33.73 0.67 L490.13 -3.65 L510.55 4.67 L512.64 15.82 L520.12 31.93 L519.69 284.25 L511.89 307.22 L508 311.63 L488.89 322.75 L33.89 317.41 L12.69 319.17 L-0.28 305.94 L2.46 288.57 L1.41 33.03 L3.4 16.98 L9.97 7.43 L14.28 1.85 L31.94 -0.69" stroke="none" stroke-width="0" fill="#e9ecef"></path><path d="M32 0 M32 0 C214.68 -4.3, 394.26 -3.64, 488 0 M32 0 C162.72 -2.81, 293.61 -2.74, 488 0 M488 0 C507.05 -0.38, 521.69 14.14, 520 32 M488 0 C513.64 -0.06, 515.91 10.48, 520 32 M520 32 C515.04 94.85, 514.61 149.33, 520 288 M520 32 C515.3 117.1, 514.96 202.47, 520 288 M520 288 C522.95 306.91, 511.72 319.37, 488 320 M520 288 C515.45 304.93, 508.55 323.04, 488 320 M488 320 C326.75 318.55, 164.58 318.93, 32 320 M488 320 C358.44 317.77, 228.27 319.09, 32 320 M32 320 C11.54 321.36, 0.91 311.05, 0 288 M32 320 C15 318.37, 1.77 307.73, 0 288 M0 288 C6.32 196.44, 4.27 100.1, 0 32 M0 288 C2.43 201.75, 1.54 116.07, 0 32 M0 32 C1.8 12.68, 14.23 -1.26, 32 0 M0 32 C-2.51 12.95, 9.77 2.88, 32 0" stroke="#1e1e1e" stroke-width="4" fill="none"></path></g><g stroke-linecap="round" transform="translate(1310 710) rotate(0 190 60)"><path d="M29.91 -3.13 L353.39 0.6 L366.22 2.82 L369.13 10 L377.46 22.54 L382.15 91.31 L380.69 99.95 L371.67 112.11 L346.71 116.24 L29.33 116.32 L14.52 114.91 L8.03 111.95 L0.67 93.88 L1.57 20.31 L4.28 5.76 L15.6 4.92 L27.32 2.32" stroke="none" stroke-width="0" fill="#ffec99"></path><path d="M30 0 M30 0 C113.57 -0.38, 198.45 -0.13, 350 0 M30 0 C98.04 -4.05, 166.88 -2.34, 350 0 M350 0 C367.18 2.64, 378.76 12.37, 380 30 M350 0 C367.36 3.77, 381.67 11.88, 380 30 M380 30 C377.07 43.47, 378.01 65.01, 380 90 M380 30 C378.48 52.53, 380.96 73.78, 380 90 M380 90 C381.34 111.99, 371.96 121.78, 350 120 M380 90 C375.64 112.83, 372.86 122.32, 350 120 M350 120 C269.01 119.85, 188.26 119.01, 30 120 M350 120 C232.74 123.82, 114.84 124.07, 30 120 M30 120 C6.88 116.29, 1.89 108.36, 0 90 M30 120 C13.02 116.29, 2.65 109.29, 0 90 M0 90 C-4.02 72.18, 2.55 53.69, 0 30 M0 90 C-1.52 65.05, -0.25 43.85, 0 30 M0 30 C-3.99 6.62, 11.87 -0.72, 30 0 M0 30 C-0.01 13.27, 5.73 -3.26, 30 0" stroke="#f08c00" stroke-width="2" fill="none"></path></g><g transform="translate(1405.078125 748.3999999999996) rotate(0 94.921875 21.600000000000364)"><text x="94.921875" y="0" font-family="Cascadia, Segoe UI Emoji" font-size="36px" fill="#1e1e1e" text-anchor="middle" style="white-space: pre;" direction="ltr" dominant-baseline="text-before-edge">Partition</text></g><g stroke-linecap="round" transform="translate(1310 870) rotate(0 190 60)"><path d="M29.83 1.98 L351.69 -2.38 L365.95 2.55 L375.18 6.81 L376.73 24.24 L383.65 89.03 L379.68 106.02 L365.79 113.9 L348.09 122.08 L32.71 117.35 L17.4 114.97 L10.78 113.43 L2.65 95.63 L1.27 19.48 L11.42 3.71 L19.3 1.06 L32.17 0" stroke="none" stroke-width="0" fill="#ffec99"></path><path d="M30 0 M30 0 C131.22 0.63, 235.17 -1.22, 350 0 M30 0 C113.22 -1.22, 199.31 -0.59, 350 0 M350 0 C367.5 1.29, 379.55 9.52, 380 30 M350 0 C371.62 -3.64, 379.27 12.36, 380 30 M380 30 C377.09 43.09, 378.43 63.92, 380 90 M380 30 C381.59 43.33, 380.19 57.47, 380 90 M380 90 C381.73 110.67, 372.13 116.35, 350 120 M380 90 C383.51 110.2, 366.71 123.81, 350 120 M350 120 C250.42 117.12, 155.9 120, 30 120 M350 120 C285.59 122.17, 219.93 124.36, 30 120 M30 120 C7.72 123.94, 2.46 110.57, 0 90 M30 120 C11.63 121.19, 1.61 108.83, 0 90 M0 90 C0.02 68.99, -0.52 52.02, 0 30 M0 90 C-1.65 65.63, -0.96 42.96, 0 30 M0 30 C-3.28 12.43, 11.3 -0.76, 30 0 M0 30 C3.84 9.47, 7.37 -0.44, 30 0" stroke="#f08c00" stroke-width="2" fill="none"></path></g><g transform="translate(1405.078125 908.3999999999996) rotate(0 94.921875 21.600000000000364)"><text x="94.921875" y="0" font-family="Cascadia, Segoe UI Emoji" font-size="36px" fill="#1e1e1e" text-anchor="middle" style="white-space: pre;" direction="ltr" dominant-baseline="text-before-edge">Partition</text></g><g stroke-linecap="round" transform="translate(1250 1070) rotate(0 260 160)"><path d="M35.89 -2.73 L487.21 2.35 L507.81 6.5 L518.56 14.68 L519.47 29.66 L518.72 288.99 L511.86 310.77 L510.9 318.59 L487.43 319.4 L33.76 316.35 L15.04 311.71 L-0.12 298.2 L-3.02 285.41 L3.28 33.63 L1.52 14.27 L8.92 7.19 L18.32 5.62 L29.22 -1" stroke="none" stroke-width="0" fill="#e9ecef"></path><path d="M32 0 M32 0 C156.79 -1.86, 282.29 -1.9, 488 0 M32 0 C209.69 3.49, 387.63 3.22, 488 0 M488 0 C506.48 -0.27, 519.26 11.08, 520 32 M488 0 C508.16 3.69, 519.94 8.1, 520 32 M520 32 C518.93 122.44, 518.35 211.9, 520 288 M520 32 C515.76 109.88, 515.57 187.96, 520 288 M520 288 C520.52 306.59, 512.69 321.5, 488 320 M520 288 C516.9 309.38, 511.91 316.08, 488 320 M488 320 C321.66 321.41, 153.21 321.59, 32 320 M488 320 C354.15 321, 219.77 321.5, 32 320 M32 320 C12.14 318.21, 0.52 307.51, 0 288 M32 320 C14.6 316.32, -1.81 306.75, 0 288 M0 288 C-5.95 222.26, -4.31 148.71, 0 32 M0 288 C1.84 201.31, 2.38 112.76, 0 32 M0 32 C-2.51 10.9, 13.47 -2.7, 32 0 M0 32 C1.56 13.22, 12.81 0.55, 32 0" stroke="#1e1e1e" stroke-width="4" fill="none"></path></g><g stroke-linecap="round" transform="translate(1310 1090) rotate(0 190 60)"><path d="M29.21 2.35 L350.31 2 L366.19 4.05 L371.97 5.16 L378.25 23.96 L376.36 93.27 L381.53 106.22 L367.71 115.18 L351.76 116.35 L32.54 116.21 L14.75 114.33 L4.48 109.91 L3.75 98.66 L-0.02 19.24 L8.42 6.69 L17.19 5.49 L27.22 -1" stroke="none" stroke-width="0" fill="#ffec99"></path><path d="M30 0 M30 0 C117.11 -1.8, 205.26 -1.86, 350 0 M30 0 C154.24 3.47, 278.84 3.07, 350 0 M350 0 C367.15 -0.27, 379.26 10.41, 380 30 M350 0 C368.82 3.69, 379.94 7.43, 380 30 M380 30 C382.15 51.83, 381.44 72.45, 380 90 M380 30 C377.57 48.77, 377.33 67.8, 380 90 M380 90 C380.52 107.26, 373.36 121.5, 350 120 M380 90 C376.9 110.05, 372.58 116.08, 350 120 M350 120 C233.71 121.75, 114.3 122.02, 30 120 M350 120 C256.08 121.06, 161.38 121.8, 30 120 M30 120 C11.47 118.21, 0.52 108.17, 0 90 M30 120 C13.93 116.32, -1.81 107.42, 0 90 M0 90 C-4.76 77.6, -2.73 55.51, 0 30 M0 90 C0.36 69.85, 1.03 47.41, 0 30 M0 30 C-2.51 10.23, 12.81 -2.7, 30 0 M0 30 C1.56 12.55, 12.14 0.55, 30 0" stroke="#f08c00" stroke-width="2" fill="none"></path></g><g transform="translate(1405.078125 1128.3999999999996) rotate(0 94.921875 21.600000000000364)"><text x="94.921875" y="0" font-family="Cascadia, Segoe UI Emoji" font-size="36px" fill="#1e1e1e" text-anchor="middle" style="white-space: pre;" direction="ltr" dominant-baseline="text-before-edge">Partition</text></g><g stroke-linecap="round" transform="translate(1310 1250) rotate(0 190 60)"><path d="M33.06 2.18 L349.47 -2.34 L361.85 2.86 L368.86 10.77 L382.93 26.06 L379.43 89.4 L379.88 99.48 L370.82 111.99 L347.88 116.2 L26.98 117.41 L20.15 119.75 L7.02 108.77 L1.39 96.22 L0.78 26.59 L4.72 6.5 L15.87 5.74 L31.99 -1.27" stroke="none" stroke-width="0" fill="#ffec99"></path><path d="M30 0 M30 0 C133.53 1.99, 229.48 -2.32, 350 0 M30 0 C113.12 2.85, 197.97 3.09, 350 0 M350 0 C368.98 3.21, 379.95 7.77, 380 30 M350 0 C372.34 -4.08, 382.79 13.7, 380 30 M380 30 C380.84 46.29, 384.73 65.21, 380 90 M380 30 C379.18 48.55, 380.59 70.6, 380 90 M380 90 C377.3 110.04, 372.24 116.59, 350 120 M380 90 C383.04 109.09, 370.79 121.37, 350 120 M350 120 C242.57 121.94, 136.1 122.04, 30 120 M350 120 C252.67 122, 154.48 121.99, 30 120 M30 120 C13.42 116.8, -1.58 107.75, 0 90 M30 120 C8.55 123.08, 4.21 105.45, 0 90 M0 90 C2.15 64.47, 1.39 42.42, 0 30 M0 90 C-1.52 71.49, 1.14 51.4, 0 30 M0 30 C1.35 12.22, 11.86 0.47, 30 0 M0 30 C-1.84 6.73, 9.42 -2.51, 30 0" stroke="#f08c00" stroke-width="2" fill="none"></path></g><g transform="translate(1405.078125 1288.3999999999996) rotate(0 94.921875 21.600000000000364)"><text x="94.921875" y="0" font-family="Cascadia, Segoe UI Emoji" font-size="36px" fill="#1e1e1e" text-anchor="middle" style="white-space: pre;" direction="ltr" dominant-baseline="text-before-edge">Partition</text></g><g stroke-linecap="round" transform="translate(190 710) rotate(0 180 110)"><path d="M205.83 2.78 C223.68 2.48, 245.89 6.7, 262.33 11.37 C278.78 16.03, 291.58 22.71, 304.49 30.78 C317.4 38.85, 330.64 49.26, 339.8 59.78 C348.96 70.3, 356.23 82.49, 359.45 93.91 C362.66 105.34, 362.08 117.54, 359.07 128.34 C356.06 139.15, 349.79 148.77, 341.38 158.74 C332.96 168.71, 321.36 179.97, 308.58 188.17 C295.79 196.37, 281.51 202.55, 264.66 207.94 C247.82 213.32, 225.81 218.46, 207.52 220.48 C189.24 222.5, 172.78 222.23, 154.95 220.07 C137.13 217.9, 117.78 213.07, 100.58 207.5 C83.38 201.93, 64.93 194.75, 51.75 186.66 C38.57 178.58, 29.7 168.8, 21.48 159 C13.26 149.2, 5.51 138.89, 2.43 127.85 C-0.65 116.82, 0.47 103.8, 3.01 92.81 C5.55 81.82, 9.63 71.73, 17.69 61.9 C25.75 52.08, 37.99 42.46, 51.39 33.88 C64.8 25.3, 81.74 15.66, 98.12 10.42 C114.5 5.19, 118.78 0.63, 149.68 2.47 C180.58 4.31, 252.82 12.08, 283.53 21.47 C314.25 30.87, 335.78 57.85, 333.98 58.83 M107.03 8.73 C121.92 2.87, 143.35 -1.67, 161.63 -2.31 C179.91 -2.95, 197.93 2.14, 216.71 4.9 C235.5 7.65, 257.54 9.26, 274.34 14.22 C291.14 19.17, 305.82 25.66, 317.52 34.61 C329.22 43.57, 337.76 57.41, 344.55 67.94 C351.34 78.47, 355.99 86.54, 358.26 97.79 C360.54 109.04, 361.99 123.94, 358.2 135.46 C354.41 146.98, 345.08 157.36, 335.54 166.9 C325.99 176.45, 315.33 185.35, 300.93 192.72 C286.54 200.08, 266.22 206.26, 249.16 211.1 C232.11 215.95, 217.19 221.17, 198.6 221.8 C180.01 222.43, 156.07 217.76, 137.63 214.88 C119.2 212.01, 103.42 210.07, 87.97 204.53 C72.52 198.99, 56.8 190.17, 44.95 181.65 C33.09 173.12, 24.11 163.72, 16.86 153.39 C9.6 143.05, 3.01 130.47, 1.41 119.62 C-0.18 108.78, 3.38 99.61, 7.27 88.31 C11.15 77.01, 16 62.17, 24.73 51.83 C33.47 41.49, 45.37 33.28, 59.67 26.3 C73.97 19.32, 102.57 12.82, 110.52 9.95 C118.47 7.07, 106.24 7.36, 107.37 9.05" stroke="none" stroke-width="0" fill="#e9ecef"></path><path d="M172.09 -1.46 C189.52 -3.68, 211.99 0.47, 230.29 3.54 C248.59 6.6, 266.38 10.87, 281.9 16.95 C297.41 23.03, 311.9 30.75, 323.38 40.01 C334.86 49.28, 344.58 61.26, 350.77 72.53 C356.96 83.79, 360.28 96.26, 360.51 107.6 C360.75 118.93, 357.43 129.84, 352.16 140.52 C346.89 151.2, 338.93 162.53, 328.89 171.67 C318.85 180.81, 306.62 188.19, 291.93 195.36 C277.24 202.54, 258.21 210.87, 240.72 214.74 C223.24 218.6, 205.33 218.36, 187.02 218.56 C168.7 218.76, 148.94 218.87, 130.83 215.94 C112.72 213, 93.85 207.08, 78.36 200.96 C62.87 194.84, 49.32 188, 37.88 179.2 C26.43 170.41, 16.3 158.77, 9.68 148.17 C3.06 137.58, -1.22 127.01, -1.86 115.63 C-2.49 104.24, 0.55 91.14, 5.87 79.86 C11.19 68.58, 19.54 57.26, 30.05 47.93 C40.56 38.61, 54.19 30.72, 68.94 23.93 C83.69 17.13, 96.82 10.95, 118.56 7.18 C140.29 3.41, 181.1 1.3, 199.34 1.31 C217.58 1.32, 228.19 5.21, 228 7.23 M115.67 6.42 C131.15 0.54, 155.46 -2.16, 174.07 -2.04 C192.67 -1.92, 209.34 3.71, 227.32 7.15 C245.29 10.58, 266.11 12.74, 281.93 18.57 C297.76 24.4, 310.78 32.75, 322.27 42.13 C333.76 51.5, 344.63 63.9, 350.87 74.82 C357.12 85.74, 359.48 96.53, 359.73 107.66 C359.97 118.78, 357.85 131.1, 352.34 141.55 C346.84 152, 336.92 161.14, 326.7 170.35 C316.49 179.55, 305.41 189.27, 291.05 196.78 C276.68 204.3, 258.25 211.13, 240.5 215.44 C222.74 219.75, 203.05 222.33, 184.51 222.65 C165.98 222.96, 146.53 221.31, 129.28 217.31 C112.02 213.3, 95.84 205.05, 81 198.6 C66.16 192.15, 51.86 186.74, 40.23 178.61 C28.6 170.48, 17.54 160.33, 11.23 149.82 C4.92 139.32, 3.29 126.98, 2.38 115.58 C1.48 104.19, 1.53 92.46, 5.81 81.45 C10.1 70.44, 17.38 59.46, 28.12 49.52 C38.86 39.57, 55.5 28.95, 70.25 21.77 C85.01 14.58, 108.14 9.05, 116.65 6.41 C125.16 3.77, 119.68 4.13, 121.32 5.91" stroke="#1e1e1e" stroke-width="4" fill="none"></path></g><g transform="translate(285.8457793864218 798.618254069479) rotate(0 84.375 21.600000000000364)"><text x="84.375" y="0" font-family="Cascadia, Segoe UI Emoji" font-size="36px" fill="#1e1e1e" text-anchor="middle" style="white-space: pre;" direction="ltr" dominant-baseline="text-before-edge">Producer</text></g><g stroke-linecap="round" transform="translate(190 1110) rotate(0 180 110)"><path d="M239.97 4.44 C257.58 6.56, 272.35 16.15, 286.68 23.33 C301.01 30.5, 315.17 38.24, 325.94 47.48 C336.7 56.72, 345.9 68.28, 351.27 78.77 C356.64 89.26, 358.23 99.27, 358.16 110.41 C358.1 121.56, 356.73 134.96, 350.87 145.65 C345.01 156.34, 334.15 165.37, 323.03 174.56 C311.9 183.74, 299.33 194.16, 284.13 200.77 C268.94 207.39, 249.52 210.73, 231.87 214.26 C214.23 217.79, 196.62 222.26, 178.27 221.93 C159.92 221.61, 139.28 216.3, 121.78 212.29 C104.29 208.27, 88.24 204.63, 73.32 197.84 C58.4 191.04, 43.06 181, 32.27 171.53 C21.49 162.06, 14.15 151.46, 8.61 141.01 C3.08 130.57, -1.07 119.91, -0.94 108.84 C-0.8 97.77, 3.43 85.57, 9.44 74.61 C15.45 63.65, 24.07 52.47, 35.12 43.08 C46.16 33.69, 60.25 24.85, 75.71 18.28 C91.17 11.7, 109.78 6.65, 127.86 3.64 C145.94 0.63, 159.19 -2.28, 184.2 0.24 C209.21 2.76, 257.09 12.53, 277.9 18.77 C298.71 25.02, 310.44 36.6, 309.07 37.71 M138.88 1.03 C155.94 -2.96, 178.2 1.68, 196.15 2.66 C214.1 3.65, 230 3.26, 246.58 6.91 C263.17 10.57, 280.9 16.67, 295.66 24.6 C310.43 32.53, 325.56 44.53, 335.17 54.47 C344.78 64.42, 349.22 73.55, 353.31 84.25 C357.39 94.95, 360.7 107.61, 359.69 118.69 C358.68 129.77, 354.37 139.91, 347.22 150.76 C340.07 161.6, 328.86 175.14, 316.78 183.78 C304.71 192.43, 290.66 196.63, 274.77 202.64 C258.88 208.65, 239.54 217.52, 221.45 219.86 C203.36 222.2, 184.83 217.82, 166.22 216.68 C147.6 215.55, 126.6 217.42, 109.76 213.05 C92.92 208.68, 78.78 198.02, 65.16 190.46 C51.54 182.91, 38.27 176.86, 28.03 167.72 C17.79 158.58, 8.12 146.48, 3.72 135.62 C-0.69 124.76, -0.2 114.33, 1.6 102.57 C3.41 90.81, 7.57 75.28, 14.56 65.06 C21.56 54.84, 32.09 49.19, 43.58 41.25 C55.07 33.32, 68.09 23.38, 83.5 17.45 C98.91 11.52, 126.54 7.41, 136.03 5.69 C145.52 3.96, 139.01 5.52, 140.43 7.09" stroke="none" stroke-width="0" fill="#e9ecef"></path><path d="M190.56 1.9 C208.38 0.29, 228.65 2.3, 246.14 6.42 C263.62 10.53, 281.31 19.55, 295.48 26.59 C309.65 33.62, 321.53 39.4, 331.15 48.64 C340.77 57.88, 348.36 70.44, 353.19 82.03 C358.02 93.61, 360.71 106.64, 360.12 118.14 C359.52 129.63, 356.1 140.67, 349.62 150.99 C343.15 161.31, 333.39 171.39, 321.25 180.05 C309.12 188.71, 292.58 196.58, 276.82 202.94 C261.06 209.3, 244.5 215.71, 226.7 218.2 C208.9 220.7, 188.36 218.58, 170.02 217.94 C151.68 217.3, 133.77 217.97, 116.66 214.37 C99.55 210.77, 82.19 204.12, 67.37 196.33 C52.55 188.53, 38.24 177.12, 27.72 167.61 C17.2 158.1, 9.1 149.9, 4.25 139.26 C-0.59 128.61, -2.65 115.1, -1.34 103.74 C-0.02 92.37, 5.27 81.87, 12.14 71.09 C19.02 60.3, 27.95 48.02, 39.9 39.02 C51.85 30.01, 67.92 22.77, 83.83 17.03 C99.73 11.29, 111.48 6.88, 135.34 4.58 C159.21 2.28, 205.47 1.54, 227.01 3.23 C248.54 4.93, 264.83 13.09, 264.55 14.75 M147.94 1 C164.5 -2.39, 184.12 -1.93, 202.63 -0.48 C221.14 0.98, 242.35 4.9, 259 9.71 C275.66 14.52, 288.83 19.81, 302.55 28.39 C316.28 36.98, 332.42 50.34, 341.36 61.21 C350.31 72.07, 353.85 82.97, 356.2 93.58 C358.56 104.19, 357.67 114.22, 355.49 124.87 C353.32 135.53, 351.19 146.79, 343.16 157.51 C335.12 168.22, 320.2 180.76, 307.26 189.16 C294.32 197.56, 281.46 202.71, 265.53 207.91 C249.6 213.11, 230.16 218.89, 211.69 220.36 C193.21 221.82, 173.16 218.31, 154.68 216.67 C136.21 215.03, 117.12 215.64, 100.83 210.52 C84.54 205.41, 70.67 194.19, 56.93 185.96 C43.2 177.72, 27.48 170.62, 18.42 161.11 C9.35 151.59, 5.49 139.65, 2.55 128.88 C-0.4 118.12, -1.84 107.65, 0.76 96.53 C3.37 85.41, 9.94 72.21, 18.17 62.17 C26.4 52.13, 36.81 44.61, 50.16 36.31 C63.5 28.01, 82.1 18.37, 98.25 12.36 C114.4 6.35, 138.65 1.36, 147.05 0.25 C155.45 -0.86, 147.62 4.11, 148.64 5.7" stroke="#1e1e1e" stroke-width="4" fill="none"></path></g><g transform="translate(285.8457793864218 1198.618254069479) rotate(0 84.375 21.600000000000364)"><text x="84.375" y="0" font-family="Cascadia, Segoe UI Emoji" font-size="36px" fill="#1e1e1e" text-anchor="middle" style="white-space: pre;" direction="ltr" dominant-baseline="text-before-edge">Producer</text></g><g transform="translate(1070 830) rotate(0 52.734375 21.600000000000364)"><text x="0" y="0" font-family="Cascadia, Segoe UI Emoji" font-size="36px" fill="#1e1e1e" text-anchor="start" style="white-space: pre;" direction="ltr" dominant-baseline="text-before-edge">Topic</text></g><g transform="translate(1070 1230) rotate(0 52.734375 21.600000000000364)"><text x="0" y="0" font-family="Cascadia, Segoe UI Emoji" font-size="36px" fill="#1e1e1e" text-anchor="start" style="white-space: pre;" direction="ltr" dominant-baseline="text-before-edge">Topic</text></g><g stroke-linecap="round" transform="translate(1930 690) rotate(0 190 60)"><path d="M32.77 -2.07 L347.97 1.47 L360.73 4.38 L374.58 3.87 L381.57 23.21 L383.19 92.27 L377.38 105.82 L365.04 118.74 L353.98 118.85 L29.8 121.63 L19.41 117.27 L6.4 113.45 L-2.75 96.48 L2.68 21.97 L7.65 8.56 L20.31 3.17 L31.62 -1.28" stroke="none" stroke-width="0" fill="#fff"></path><path d="M30 0 M30 0 C141.3 -3.16, 250.29 -1.5, 350 0 M30 0 C129.76 2.86, 226.83 3.83, 350 0 M350 0 C371.13 -0.89, 383.59 8.57, 380 30 M350 0 C366.22 -4.02, 384.3 8.74, 380 30 M380 30 C381.4 51.14, 375.2 78.64, 380 90 M380 30 C378.2 52.42, 378.39 72.54, 380 90 M380 90 C382.64 109.41, 371.66 117.69, 350 120 M380 90 C380.82 110.27, 368.43 115.55, 350 120 M350 120 C229.01 126.58, 105.76 126.38, 30 120 M350 120 C240.67 122.39, 128.86 122.51, 30 120 M30 120 C6.18 122.36, -0.36 110.21, 0 90 M30 120 C11.4 123.42, 1.36 113.44, 0 90 M0 90 C-2.19 69.06, -2.78 50.48, 0 30 M0 90 C-2.02 70.72, -0.87 46.82, 0 30 M0 30 C3.97 8.71, 12.5 3.33, 30 0 M0 30 C2.91 12.03, 14.21 -2.62, 30 0" stroke="#1e1e1e" stroke-width="4" fill="none"></path></g><g transform="translate(1951.25 728.3999999999996) rotate(0 168.75 21.600000000000364)"><text x="168.75" y="0" font-family="Cascadia, Segoe UI Emoji" font-size="36px" fill="#1e1e1e" text-anchor="middle" style="white-space: pre;" direction="ltr" dominant-baseline="text-before-edge">_consumer_offset</text></g><g stroke-linecap="round"><g transform="translate(550 810) rotate(0 221.57640043765332 -0.622789848782304)"><path d="M2.2 -1.01 C75.6 -0.11, 365.11 2.32, 437.93 2.78 M-0.05 -4.02 C74.45 -3.59, 370.39 -0.93, 443.2 -0.73" stroke="#1e1e1e" stroke-width="4" fill="none"></path></g><g transform="translate(550 810) rotate(0 221.57640043765332 -0.622789848782304)"><path d="M413.51 6.39 C425.08 5.49, 429.59 7.98, 445.73 1.04 M413.39 7.85 C426.13 3.93, 437.23 2.28, 442.92 1.08" stroke="#1e1e1e" stroke-width="4" fill="none"></path></g><g transform="translate(550 810) rotate(0 221.57640043765332 -0.622789848782304)"><path d="M413.64 -14.13 C424.8 -10.68, 429.28 -3.86, 445.73 1.04 M413.52 -12.67 C425.97 -8.56, 437.02 -2.17, 442.92 1.08" stroke="#1e1e1e" stroke-width="4" fill="none"></path></g></g><mask></mask><g stroke-linecap="round"><g transform="translate(550 1230) rotate(0 219.87962894182692 -0.04675325785410678)"><path d="M1.16 0.78 C75.01 0.92, 368.73 2.3, 441.41 2 M-1.65 -1.26 C72.1 -2.01, 365.9 -2.4, 439.94 -1.93" stroke="#1e1e1e" stroke-width="4" fill="none"></path></g><g transform="translate(550 1230) rotate(0 219.87962894182692 -0.04675325785410678)"><path d="M412.85 10.3 C421.28 1.64, 423.75 -0.02, 440.12 0.14 M410.13 8.89 C418.53 6.54, 426.19 5.01, 438.77 -0.05" stroke="#1e1e1e" stroke-width="4" fill="none"></path></g><g transform="translate(550 1230) rotate(0 219.87962894182692 -0.04675325785410678)"><path d="M412.89 -10.22 C421.48 -13.95, 423.95 -10.68, 440.12 0.14 M410.16 -11.64 C418.44 -9.26, 426.1 -6.08, 438.77 -0.05" stroke="#1e1e1e" stroke-width="4" fill="none"></path></g></g><mask></mask><g stroke-linecap="round" transform="translate(1170 130) rotate(0 530 120)"><path d="M30.67 3.63 L1036.78 0.91 L1055.09 9.16 L1062.81 26.56 L1062.63 211.79 L1050.8 230.86 L1044.82 241.5 L1025 239.57 L26.13 240.36 L4.58 230.53 L-1.05 213.47 L-2.33 35.65 L5.62 18.02 L5.81 8.37 L20.92 5.74 L36 3.73" stroke="none" stroke-width="0" fill="#ffc9c9"></path><path d="M32 0 M32 0 C368.66 5.1, 707.08 5.71, 1028 0 M32 0 C287.63 5.01, 541.74 4.94, 1028 0 M1028 0 C1048.77 2.63, 1057.99 9.48, 1060 32 M1028 0 C1048.29 3.65, 1059.76 10.27, 1060 32 M1060 32 C1060.26 73.41, 1064.11 107.78, 1060 208 M1060 32 C1060.05 79.09, 1061.5 124.06, 1060 208 M1060 208 C1056.89 228.74, 1046.33 236.24, 1028 240 M1060 208 C1064.36 226.3, 1052.11 243.35, 1028 240 M1028 240 C772.56 244.92, 517.48 244.34, 32 240 M1028 240 C681.05 235.07, 333.66 235.77, 32 240 M32 240 C11.7 238.55, -3.78 229.66, 0 208 M32 240 C6.19 242.4, 2.36 231.65, 0 208 M0 208 C-2.47 170.32, -2.84 139.61, 0 32 M0 208 C-1.75 162.89, -2.56 115.35, 0 32 M0 32 C-3.79 11.58, 10.13 -1.7, 32 0 M0 32 C0.76 14.73, 12.44 -1.42, 32 0" stroke="#fa5252" stroke-width="4" fill="none"></path></g><g transform="translate(1605.078125 228.39999999999964) rotate(0 94.921875 21.600000000000364)"><text x="94.921875" y="0" font-family="Cascadia, Segoe UI Emoji" font-size="36px" fill="#1e1e1e" text-anchor="middle" style="white-space: pre;" direction="ltr" dominant-baseline="text-before-edge">Zookeeper</text></g><g stroke-linecap="round"><g transform="translate(1430 370) rotate(0 -0.10893380008656095 110.66773741215457)"><path d="M-2.52 2.54 C-2.06 39.04, 1.65 181.1, 2.31 217.57 M1.3 1.46 C1.65 38.34, 1.48 184.03, 1.32 219.88" stroke="#1e1e1e" stroke-width="4" fill="none"></path></g><g transform="translate(1430 370) rotate(0 -0.10893380008656095 110.66773741215457)"><path d="M-5.24 194.96 C-9.75 201.8, -1.47 206.5, 1.18 220.96 M-9.71 193.56 C-5.89 197.2, -4.04 204.6, 0.05 220.41" stroke="#1e1e1e" stroke-width="4" fill="none"></path></g><g transform="translate(1430 370) rotate(0 -0.10893380008656095 110.66773741215457)"><path d="M15.28 195.01 C4.98 201.47, 7.48 206.15, 1.18 220.96 M10.81 193.61 C9.56 196.83, 6.34 204.22, 0.05 220.41" stroke="#1e1e1e" stroke-width="4" fill="none"></path></g></g><mask></mask><g stroke-linecap="round"><g transform="translate(1850 590) rotate(0 -0.2838415864862327 -110.14370263021465)"><path d="M-2.77 2 C-2.07 -34.08, 1.7 -181.14, 2.2 -218.24 M0.92 0.62 C1.62 -36.1, 1.56 -185.88, 1.16 -222.29" stroke="#1e1e1e" stroke-width="4" fill="none"></path></g><g transform="translate(1850 590) rotate(0 -0.2838415864862327 -110.14370263021465)"><path d="M14.41 -191 C12.04 -200.48, 6.28 -205.15, -0.11 -221.63 M10.5 -195.58 C6.51 -202.88, 4.3 -209.05, -0.71 -220.57" stroke="#1e1e1e" stroke-width="4" fill="none"></path></g><g transform="translate(1850 590) rotate(0 -0.2838415864862327 -110.14370263021465)"><path d="M-6.11 -190.9 C-3.77 -200.01, -4.83 -204.69, -0.11 -221.63 M-10.02 -195.49 C-7.98 -203.05, -4.15 -209.25, -0.71 -220.57" stroke="#1e1e1e" stroke-width="4" fill="none"></path></g></g><mask></mask><g transform="translate(2053.987670598088 493.77082900479945) rotate(0 63.28125 21.600000000000364)"><text x="0" y="0" font-family="Cascadia, Segoe UI Emoji" font-size="36px" fill="#1e1e1e" text-anchor="start" style="white-space: pre;" direction="ltr" dominant-baseline="text-before-edge">Broker</text></g><g stroke-linecap="round" transform="translate(2850 670) rotate(0 180 110)"><path d="M186.44 -1.08 C204.34 -2.71, 224.89 2.74, 242.82 6.72 C260.75 10.7, 279.71 15.36, 294.02 22.78 C308.33 30.21, 318.52 41.8, 328.68 51.25 C338.83 60.69, 349.82 68.55, 354.94 79.46 C360.06 90.37, 360.57 105.46, 359.37 116.69 C358.18 127.92, 354.37 136.42, 347.75 146.85 C341.14 157.28, 331.47 170.17, 319.69 179.26 C307.9 188.35, 292.62 195.01, 277.06 201.41 C261.5 207.81, 244.06 214.91, 226.34 217.68 C208.62 220.45, 189.08 218.89, 170.74 218.02 C152.39 217.16, 133.43 216.2, 116.28 212.49 C99.13 208.79, 82.02 202.94, 67.83 195.77 C53.64 188.6, 41.62 179.03, 31.12 169.49 C20.63 159.95, 10.23 149.25, 4.87 138.55 C-0.49 127.84, -2.03 116.76, -1.06 105.26 C-0.09 93.77, 3.94 79.93, 10.71 69.56 C17.48 59.18, 28.09 51.77, 39.57 43.01 C51.05 34.26, 63.8 23.37, 79.6 17.03 C95.39 10.69, 108.79 7.34, 134.35 4.96 C159.92 2.59, 210.72 1.09, 232.99 2.79 C255.26 4.5, 269.11 13.46, 267.98 15.19 M86.37 14.48 C100.18 6.65, 123.14 3.35, 141.14 0.66 C159.13 -2.03, 175.86 -3.51, 194.34 -1.66 C212.83 0.18, 234.39 6.5, 252.06 11.75 C269.73 17, 286.8 23.28, 300.36 29.84 C313.93 36.4, 324.38 41.47, 333.45 51.11 C342.53 60.76, 350.86 76.49, 354.83 87.73 C358.8 98.96, 358.45 107.61, 357.25 118.53 C356.05 129.45, 354.71 143.06, 347.61 153.24 C340.5 163.42, 327.33 171.23, 314.61 179.62 C301.9 188.02, 286.68 197.81, 271.33 203.63 C255.98 209.45, 240.26 211.98, 222.53 214.55 C204.8 217.12, 183.97 219.45, 164.95 219.04 C145.93 218.63, 125.25 216.45, 108.43 212.11 C91.62 207.76, 78.25 200.68, 64.05 192.96 C49.86 185.25, 32.92 176.05, 23.25 165.8 C13.59 155.55, 10.2 142.43, 6.04 131.46 C1.88 120.49, -2.74 111.2, -1.72 99.99 C-0.69 88.79, 4.92 74.86, 12.19 64.25 C19.46 53.64, 29.22 44.51, 41.92 36.34 C54.61 28.16, 80.57 17.95, 88.36 15.2 C96.15 12.44, 87.68 18.02, 88.66 19.82" stroke="none" stroke-width="0" fill="#a5d8ff"></path><path d="M275.4 17.85 C291.72 21.82, 305.96 31.38, 318.21 39.81 C330.46 48.23, 341.88 57.71, 348.88 68.4 C355.88 79.08, 359.2 92.24, 360.2 103.9 C361.2 115.56, 359.54 127.29, 354.87 138.37 C350.2 149.46, 341.9 161.16, 332.16 170.42 C322.43 179.68, 310.55 186.87, 296.44 193.95 C282.34 201.03, 264.78 208.9, 247.52 212.9 C230.25 216.91, 211.16 217.27, 192.85 217.98 C174.54 218.7, 155.63 219.46, 137.64 217.2 C119.65 214.94, 100.93 210.34, 84.89 204.44 C68.85 198.55, 53.24 190.56, 41.41 181.83 C29.57 173.11, 20.94 162.94, 13.87 152.08 C6.8 141.22, 0.67 128.02, -1 116.67 C-2.67 105.33, -1.03 94.87, 3.83 84.04 C8.69 73.2, 17.94 61.3, 28.17 51.66 C38.39 42.02, 51.17 33.2, 65.17 26.19 C79.17 19.18, 95.11 14.07, 112.17 9.59 C129.23 5.11, 148.61 0.48, 167.54 -0.7 C186.47 -1.88, 199.87 -4.9, 225.75 2.51 C251.62 9.93, 302.22 30.78, 322.79 43.78 C343.36 56.79, 351.14 79.24, 349.17 80.55 M261.09 9.02 C277.63 12.57, 289.23 22.29, 302.24 30.23 C315.24 38.17, 330.08 46.48, 339.13 56.65 C348.19 66.82, 353.62 79.85, 356.59 91.23 C359.56 102.61, 359.72 114.16, 356.94 124.95 C354.15 135.74, 347.84 145.49, 339.87 155.98 C331.91 166.46, 321.78 179.41, 309.13 187.86 C296.48 196.3, 280.24 201.12, 263.98 206.65 C247.71 212.19, 229.19 218.6, 211.55 221.07 C193.9 223.55, 176.17 223.69, 158.1 221.51 C140.03 219.32, 120.39 213.06, 103.13 207.98 C85.87 202.9, 67.94 199.11, 54.53 191 C41.13 182.89, 30.82 169.73, 22.68 159.32 C14.55 148.92, 9.19 138.99, 5.7 128.58 C2.21 118.18, -0.39 107.76, 1.74 96.89 C3.88 86.02, 10.49 74.24, 18.51 63.36 C26.53 52.48, 36.68 40.45, 49.88 31.62 C63.08 22.79, 81.22 15.82, 97.71 10.36 C114.2 4.9, 131.26 0.65, 148.82 -1.12 C166.38 -2.89, 185.12 -2.2, 203.07 -0.27 C221.02 1.67, 247.39 8.29, 256.51 10.49 C265.63 12.68, 259.16 10.98, 257.78 12.89" stroke="#1971c2" stroke-width="4" fill="none"></path></g><g transform="translate(2945.845779386422 758.618254069479) rotate(0 84.375 21.600000000000364)"><text x="84.375" y="0" font-family="Cascadia, Segoe UI Emoji" font-size="36px" fill="#1e1e1e" text-anchor="middle" style="white-space: pre;" direction="ltr" dominant-baseline="text-before-edge">Consumer</text></g><g stroke-linecap="round"><g transform="translate(2350 790) rotate(0 249.0430344458673 -0.7144979944541774)"><path d="M-0.92 -0.5 C82.06 -0.25, 415.32 1.5, 499.01 1.93 M3.77 -3.23 C86.18 -3.81, 413.51 -2.18, 496.23 -2.04" stroke="#1e1e1e" stroke-width="4" fill="none"></path></g><g transform="translate(2350 790) rotate(0 249.0430344458673 -0.7144979944541774)"><path d="M467.3 6.71 C480.35 6.59, 490.14 0.06, 499.89 -3.18 M467.52 7.65 C473.38 7.74, 481.42 4.75, 497.6 -0.26" stroke="#1e1e1e" stroke-width="4" fill="none"></path></g><g transform="translate(2350 790) rotate(0 249.0430344458673 -0.7144979944541774)"><path d="M467.37 -13.81 C480.46 -6.93, 490.22 -6.47, 499.89 -3.18 M467.59 -12.87 C473.39 -7.7, 481.41 -5.59, 497.6 -0.26" stroke="#1e1e1e" stroke-width="4" fill="none"></path></g></g><mask></mask><g stroke-linecap="round" transform="translate(2850.807437793017 1150) rotate(0 180 110)"><path d="M231.03 3.35 C249.2 4.8, 268.76 12.37, 283.8 18.73 C298.83 25.09, 310.27 32.63, 321.23 41.51 C332.2 50.38, 342.85 61.05, 349.57 72 C356.29 82.94, 361.26 95.94, 361.56 107.17 C361.85 118.4, 357.09 128.39, 351.33 139.39 C345.58 150.38, 337.37 163.74, 327.03 173.15 C316.7 182.57, 303.87 188.97, 289.31 195.88 C274.75 202.79, 256.78 210.81, 239.66 214.63 C222.55 218.44, 204.92 218.45, 186.61 218.78 C168.31 219.12, 147.9 219.45, 129.81 216.64 C111.72 213.83, 93.47 208.34, 78.06 201.93 C62.64 195.51, 48.86 187.65, 37.33 178.16 C25.79 168.66, 14.86 155.61, 8.86 144.96 C2.86 134.32, 1.28 125.03, 1.32 114.29 C1.36 103.56, 3.85 91.48, 9.09 80.55 C14.34 69.62, 22.66 58.07, 32.78 48.73 C42.9 39.38, 55.39 31.56, 69.79 24.49 C84.19 17.43, 101.38 10.46, 119.17 6.34 C136.96 2.23, 154.39 -0.87, 176.52 -0.2 C198.64 0.47, 236.55 7.58, 251.89 10.35 C267.23 13.13, 270.06 14.98, 268.55 16.47 M63.22 22.4 C75.36 13.89, 97.08 11.41, 114.79 8.05 C132.5 4.68, 150.99 2.56, 169.49 2.21 C187.99 1.86, 208.08 3.8, 225.78 5.96 C243.48 8.12, 259.82 9.59, 275.7 15.16 C291.59 20.73, 309.59 30.27, 321.09 39.37 C332.59 48.47, 337.83 58.96, 344.69 69.77 C351.55 80.59, 361.13 92.63, 362.26 104.26 C363.39 115.9, 356.23 129.21, 351.48 139.57 C346.72 149.93, 342.85 157.73, 333.71 166.43 C324.57 175.12, 311.31 184.51, 296.65 191.72 C281.98 198.93, 263.1 205.32, 245.72 209.69 C228.35 214.05, 211.13 216.46, 192.42 217.94 C173.71 219.41, 152.05 220.88, 133.47 218.53 C114.9 216.18, 96.3 210.02, 80.97 203.84 C65.64 197.65, 53.28 189.78, 41.5 181.41 C29.73 173.05, 17.48 164.15, 10.32 153.66 C3.16 143.16, -0.33 129.94, -1.44 118.45 C-2.55 106.97, -0.72 96.32, 3.66 84.75 C8.04 73.19, 14.82 59.36, 24.86 49.07 C34.91 38.78, 57.26 26.35, 63.95 23.02 C70.63 19.69, 62.63 27, 64.97 29.09" stroke="none" stroke-width="0" fill="#a5d8ff"></path><path d="M98.37 13.12 C112.95 6.46, 132.83 3.63, 151.22 1.55 C169.6 -0.54, 190.53 -1.11, 208.69 0.61 C226.85 2.33, 243.89 6.42, 260.18 11.84 C276.47 17.27, 293.37 24.9, 306.42 33.15 C319.47 41.39, 329.74 51.4, 338.48 61.34 C347.22 71.28, 355.89 82, 358.86 92.8 C361.83 103.6, 359.02 115.11, 356.3 126.15 C353.58 137.19, 350.77 148.91, 342.53 159.02 C334.3 169.14, 320.53 178.75, 306.87 186.83 C293.22 194.9, 277.21 201.93, 260.58 207.49 C243.96 213.04, 224.84 218.43, 207.14 220.15 C189.43 221.88, 172.13 219.54, 154.33 217.84 C136.54 216.15, 117.12 215.15, 100.37 209.98 C83.62 204.81, 67.27 194.85, 53.84 186.81 C40.42 178.78, 28.13 171.63, 19.81 161.79 C11.48 151.94, 6.77 138.86, 3.9 127.75 C1.03 116.65, -0.03 106.43, 2.57 95.17 C5.18 83.91, 11.24 70.92, 19.51 60.2 C27.77 49.48, 31.54 40.7, 52.16 30.84 C72.78 20.97, 119.89 5.49, 143.25 1.01 C166.6 -3.47, 191.42 1.72, 192.29 3.95 M85.31 13.96 C98.36 7.14, 116.58 5.85, 134.27 3.63 C151.96 1.42, 172.82 -0.57, 191.43 0.66 C210.05 1.89, 229.03 6.74, 245.96 11.01 C262.89 15.28, 278.68 19.01, 293.01 26.26 C307.34 33.52, 321.53 45.17, 331.92 54.54 C342.32 63.91, 350.8 71.84, 355.36 82.49 C359.92 93.13, 361.21 107.42, 359.3 118.4 C357.39 129.37, 350.91 138.18, 343.89 148.34 C336.87 158.5, 328.23 170.47, 317.19 179.34 C306.15 188.21, 293.26 194.88, 277.65 201.55 C262.05 208.22, 242.3 216.37, 223.56 219.35 C204.82 222.34, 184.12 220.37, 165.22 219.45 C146.32 218.53, 127.16 217.79, 110.16 213.81 C93.17 209.83, 76.64 202.91, 63.23 195.57 C49.83 188.22, 39.67 179.18, 29.73 169.76 C19.8 160.33, 8.44 149.95, 3.62 139.02 C-1.2 128.09, -0.52 116.05, 0.81 104.18 C2.14 92.3, 5.02 78.37, 11.61 67.78 C18.2 57.19, 28.59 49.38, 40.33 40.63 C52.08 31.88, 74.02 19.07, 82.09 15.28 C90.16 11.49, 87.2 16.24, 88.74 17.9" stroke="#1971c2" stroke-width="4" fill="none"></path></g><g transform="translate(2946.653217179439 1238.618254069479) rotate(0 84.375 21.600000000000364)"><text x="84.375" y="0" font-family="Cascadia, Segoe UI Emoji" font-size="36px" fill="#1e1e1e" text-anchor="middle" style="white-space: pre;" direction="ltr" dominant-baseline="text-before-edge">Consumer</text></g><g stroke-linecap="round"><g transform="translate(2350.807437793017 1270) rotate(0 250.2399159441511 1.5792745402723085)"><path d="M1.71 1.09 C85.48 1.41, 418.21 0.07, 501.29 0.19 M-0.81 -0.79 C82.83 0.18, 416.54 4.25, 499.75 3.93" stroke="#1e1e1e" stroke-width="4" fill="none"></path></g><g transform="translate(2350.807437793017 1270) rotate(0 250.2399159441511 1.5792745402723085)"><path d="M473.06 15.88 C479.04 11.37, 488.47 7.25, 498.06 4.07 M473.2 15.24 C479.87 10, 486.84 10.53, 499.26 2.98" stroke="#1e1e1e" stroke-width="4" fill="none"></path></g><g transform="translate(2350.807437793017 1270) rotate(0 250.2399159441511 1.5792745402723085)"><path d="M473.17 -4.64 C478.87 -3.97, 488.28 -2.91, 498.06 4.07 M473.31 -5.28 C480.21 -4.69, 487.14 1.67, 499.26 2.98" stroke="#1e1e1e" stroke-width="4" fill="none"></path></g></g><mask></mask></svg>