<svg version="1.1" xmlns="http://www.w3.org/2000/svg" viewBox="0 0 2080 980" width="2080" height="980">
  <!-- svg-source:excalidraw -->
  
  <defs>
    <style class="style-fonts">
      @font-face {
        font-family: "Virgil";
        src: url("https://excalidraw.com/Virgil.woff2");
      }
      @font-face {
        font-family: "Cascadia";
        src: url("https://excalidraw.com/Cascadia.woff2");
      }
    </style>
    
  </defs>
  <rect x="0" y="0" width="2080" height="980" fill="#ffffff"></rect><g stroke-linecap="round" transform="translate(10 10) rotate(0 1030 480)"><path d="M31.4 0.24 L2029.2 -1.86 L2045.92 8.2 L2054.29 19.37 L2061.5 29.04 L2059.33 930.97 L2054.29 950.13 L2049.2 955.08 L2027.88 958.38 L32.21 957.42 L10.29 957.3 L3.09 942.25 L-3.01 929.94 L0.02 29.41 L3.38 21.41 L10.13 7.8 L20.28 0.4 L33.96 3.88" stroke="none" stroke-width="0" fill="#fff"></path><path d="M32 0 M32 0 C556.74 -13.98, 1079.92 -13.96, 2028 0 M32 0 C769.04 -14.17, 1504.53 -14.28, 2028 0 M2028 0 C2045.36 -3.03, 2056.06 14.33, 2060 32 M2028 0 C2046.07 3.54, 2063.07 14.09, 2060 32 M2060 32 C2057.54 244.81, 2056.61 460.64, 2060 928 M2060 32 C2067.52 342.31, 2067.02 651.28, 2060 928 M2060 928 C2063.98 951.32, 2046.83 963.92, 2028 960 M2060 928 C2057.69 949.66, 2044.92 964.37, 2028 960 M2028 960 C1393.64 955.8, 763.47 955.88, 32 960 M2028 960 C1249.69 967.35, 472.77 967.53, 32 960 M32 960 C10.3 961.7, -1.57 947.37, 0 928 M32 960 C14.93 962.7, -2.66 947.21, 0 928 M0 928 C-7.92 730.09, -5.62 530.09, 0 32 M0 928 C-2.41 569.04, -3.46 211.33, 0 32 M0 32 C2.41 8.92, 13.63 -2.72, 32 0 M0 32 C-3.98 13.25, 7.14 1.58, 32 0" stroke="#1e1e1e" stroke-width="4" fill="none"></path></g><g stroke-linecap="round" transform="translate(90 70) rotate(0 530 420)"><path d="M33.36 2.47 L1028.86 1.58 L1039.76 4.78 L1054.91 4.85 L1061.61 16.16 L1056.52 33.81 L1060.53 808.73 L1059.6 820.82 L1049.69 828.05 L1041.6 839.63 L1031.85 843.1 L33.55 843.47 L17.3 836.33 L4.03 828.98 L5.9 821.59 L1.18 810.26 L1.09 30.19 L-1.28 16.81 L5.87 10.88 L17.92 3.62 L28.77 3.84" stroke="none" stroke-width="0" fill="#fff"></path><path d="M32 0 M32 0 C271.86 -0.56, 510.78 -1.05, 1028 0 M1028 0 C1047.79 3.65, 1056.69 11.92, 1060 32 M1060 32 C1055.06 334.51, 1054.77 640.68, 1060 808 M1060 808 C1062.03 826.89, 1049.47 836.61, 1028 840 M1028 840 C657.69 841.04, 287.94 840.32, 32 840 M32 840 C13.39 842.83, -2.87 826.17, 0 808 M0 808 C-0.11 533.22, -1.03 256.17, 0 32 M0 32 C-3.3 11.43, 12.53 -1.46, 32 0" stroke="#f08c00" stroke-width="4.5" fill="none" stroke-dasharray="8 12"></path></g><g stroke-linecap="round" transform="translate(550 190) rotate(0 50 60)"><path d="M28.06 -2.96 L83.92 1.42 L93.01 2.63 L95 12.13 L103.57 21.91 L101.09 92.12 L95.37 104.62 L86.81 116.24 L76.93 122.1 L15.43 119.78 L6.93 114.77 L4.66 109.94 L-3.19 94.79 L-2.02 18.26 L4.88 2.86 L15.72 4.21 L28.9 0.18" stroke="none" stroke-width="0" fill="#96f2d7"></path><path d="M25 0 M25 0 C38.02 -2.84, 52.34 0.5, 75 0 M25 0 C35.09 1.75, 46.8 -0.73, 75 0 M75 0 C94.08 -3.14, 98.4 6.16, 100 25 M75 0 C93.11 4.53, 100.16 11.67, 100 25 M100 25 C102.01 46.31, 96.32 63.39, 100 95 M100 25 C98.69 51.73, 98.53 73.79, 100 95 M100 95 C103.38 111.57, 92.87 121.52, 75 120 M100 95 C99.53 113.57, 93.4 120.99, 75 120 M75 120 C63.29 122.33, 53.47 121.38, 25 120 M75 120 C63.97 118.15, 49.19 120.92, 25 120 M25 120 C6.87 122.97, 1.2 113.19, 0 95 M25 120 C7.81 122.37, -4.31 109.52, 0 95 M0 95 C-0.87 78.39, 1.21 57.35, 0 25 M0 95 C-1.46 75.81, -0.71 53.09, 0 25 M0 25 C1.47 10.65, 7.28 0.28, 25 0 M0 25 C-3.11 7.41, 4.63 2, 25 0" stroke="#12b886" stroke-width="4" fill="none"></path></g><g stroke-linecap="round" transform="translate(650 190) rotate(0 50 60)"><path d="M28.06 1.03 L83.63 -0.49 L88.75 5.88 L100.05 6.68 L101.09 22.12 L96.94 93.68 L95.01 105.69 L92.16 118.58 L71.29 120.17 L16.3 117.89 L10.91 116.19 L0.33 110.02 L-2.41 94.12 L-0.98 15.75 L7.91 8.89 L17.96 1.74 L23.92 -2.08" stroke="none" stroke-width="0" fill="#96f2d7"></path><path d="M25 0 M25 0 C36.91 0.74, 45.25 4.08, 75 0 M25 0 C39.99 -1.66, 54.96 -2.38, 75 0 M75 0 C90.07 -2.18, 101.25 12.27, 100 25 M75 0 C91.83 3.34, 97.92 8.94, 100 25 M100 25 C96.78 44.17, 102.93 56.81, 100 95 M100 25 C98.27 40.73, 101.04 58.86, 100 95 M100 95 C101.21 113.19, 91.25 121.65, 75 120 M100 95 C101.74 112.65, 88.86 117.9, 75 120 M75 120 C58.88 121.09, 35.78 118.1, 25 120 M75 120 C60.39 120.53, 47.84 120.74, 25 120 M25 120 C9.53 121.52, -0.46 113.73, 0 95 M25 120 C4.03 117.86, -0.87 109.55, 0 95 M0 95 C1.1 78.29, 0.61 58.18, 0 25 M0 95 C0.31 81.31, 1.76 68.06, 0 25 M0 25 C-1.05 8.61, 5.63 -0.81, 25 0 M0 25 C-3.7 10.33, 8.91 -2.53, 25 0" stroke="#12b886" stroke-width="4" fill="none"></path></g><g stroke-linecap="round" transform="translate(750 190) rotate(0 50 60)"><path d="M27.77 -0.88 L79.37 2.76 L93.8 0.43 L97.57 6.89 L96.94 23.68 L96.57 94.76 L100.37 108.04 L86.52 116.66 L72.16 118.28 L20.28 119.31 L6.58 116.27 L1.11 109.36 L-1.37 91.61 L2.05 21.78 L10.15 6.43 L12.99 -0.52 L22.51 -0.63" stroke="none" stroke-width="0" fill="#96f2d7"></path><path d="M25 0 M25 0 C32.15 3.25, 45.85 -0.98, 75 0 M25 0 C45.26 -1.15, 62.31 -0.66, 75 0 M75 0 C92.92 3.94, 100.14 11.24, 100 25 M75 0 C89.59 0.61, 97.01 10.43, 100 25 M100 25 C100.94 50.98, 96.34 77.31, 100 95 M100 25 C100.93 51.99, 99.84 79.85, 100 95 M100 95 C99.59 113.32, 93.18 120.86, 75 120 M100 95 C97.19 109.57, 94.88 120.27, 75 120 M75 120 C55.73 117.86, 39.5 122.52, 25 120 M75 120 C63 122.12, 53.07 121.4, 25 120 M25 120 C7.88 122.06, -3.75 109.8, 0 95 M25 120 C7.46 117.88, -1.7 109.92, 0 95 M0 95 C-0.12 68.63, -4.17 39.36, 0 25 M0 95 C1.23 68.35, -0.03 39.53, 0 25 M0 25 C-2.7 7.53, 5.11 1.74, 25 0 M0 25 C0.58 5.8, 12.14 -2.76, 25 0" stroke="#12b886" stroke-width="4" fill="none"></path></g><g stroke-linecap="round" transform="translate(850 190) rotate(0 50 60)"><path d="M23.51 2.37 L84.43 -2.69 L91.32 0.64 L93.42 8.45 L96.57 24.76 L101.93 97.1 L94.73 106.11 L87.4 114.77 L76.14 119.7 L15.95 119.4 L7.36 115.61 L2.14 106.85 L1.66 97.64 L4.29 19.32 L5.17 4.17 L11.57 0.93 L21.54 0.03" stroke="none" stroke-width="0" fill="#96f2d7"></path><path d="M25 0 M25 0 C39.35 -1.81, 57.93 0.42, 75 0 M25 0 C37.07 -0.3, 51.38 2.75, 75 0 M75 0 C91.81 2.91, 98.19 8.86, 100 25 M75 0 C88.68 2.1, 104 3.89, 100 25 M100 25 C98.49 48.9, 104.25 74.33, 100 95 M100 25 C101.78 42.47, 100.98 59.24, 100 95 M100 95 C101.51 112.53, 89.23 118.18, 75 120 M100 95 C103.22 111.94, 93.54 122.73, 75 120 M75 120 C57.72 121.77, 40.31 116.63, 25 120 M75 120 C57.41 121.5, 38.4 121.77, 25 120 M25 120 C4.59 118.14, -0.76 109.82, 0 95 M25 120 C6.63 118.25, 3.52 112.32, 0 95 M0 95 C-4 68.1, 3.86 45.63, 0 25 M0 95 C-1.04 72.87, -1.87 50.06, 0 25 M0 25 C-3.22 10.07, 8.84 -2.2, 25 0 M0 25 C3.8 5.57, 9.04 -3.63, 25 0" stroke="#12b886" stroke-width="4" fill="none"></path></g><g stroke-linecap="round" transform="translate(950 190) rotate(0 50 60)"><path d="M28.57 -3.09 L81.95 -2.49 L87.17 2.2 L93.06 9.52 L101.93 27.1 L96.29 95.17 L95.6 104.22 L91.38 116.19 L71.81 119.79 L16.73 118.73 L8.39 113.1 L5.17 112.88 L3.9 95.18 L-0.69 17.06 L3.76 5.62 L10.6 1.59 L24.88 -3.53" stroke="none" stroke-width="0" fill="#96f2d7"></path><path d="M25 0 M25 0 C47.26 1.48, 61.34 2.66, 75 0 M25 0 C36.7 2.51, 47.21 2, 75 0 M75 0 C89.86 0.53, 97.4 10.16, 100 25 M75 0 C95.66 -4.44, 103.12 10.97, 100 25 M100 25 C102.64 41.9, 96.74 66.52, 100 95 M100 25 C100.22 46.65, 101.18 67.08, 100 95 M100 95 C97.56 109.84, 94.46 120.23, 75 120 M100 95 C101.87 114.39, 92.45 117.43, 75 120 M75 120 C59.9 117.79, 53.32 119.12, 25 120 M75 120 C56.06 121.41, 35.71 119.45, 25 120 M25 120 C7.58 118.16, -1.48 110.15, 0 95 M25 120 C11.85 120.65, 1.96 111.76, 0 95 M0 95 C5.28 72.6, 2.12 54.52, 0 25 M0 95 C-0.98 69.54, -1.24 45.76, 0 25 M0 25 C0.5 6.13, 11.64 -2.4, 25 0 M0 25 C0.71 4.7, 9.87 2.07, 25 0" stroke="#12b886" stroke-width="4" fill="none"></path></g><g stroke-linecap="round" transform="translate(550 450) rotate(0 50 60)"><path d="M26.09 -2.88 L77.8 -0.93 L86.81 3.27 L98.41 11.86 L96.29 25.17 L97.16 93.28 L99.58 105.64 L87.05 116.27 L72.59 119.12 L17.77 116.22 L11.42 119.13 L7.42 110.42 L-1.08 92.92 L-2.1 18.51 L2.79 6.28 L13.94 -1.96 L28.22 -0.5" stroke="none" stroke-width="0" fill="#99e9f2"></path><path d="M25 0 M25 0 C37.04 2.11, 49.34 -1.91, 75 0 M25 0 C37.35 0.47, 48.65 -0.72, 75 0 M75 0 C89.07 1.82, 103.47 4.47, 100 25 M75 0 C94.79 2.63, 98.73 5.67, 100 25 M100 25 C98.76 46.15, 101.11 61.75, 100 95 M100 25 C100.61 49.1, 98.63 71.42, 100 95 M100 95 C102.8 111.9, 93.29 122.37, 75 120 M100 95 C100.79 109.1, 89.01 118.36, 75 120 M75 120 C59.61 117.84, 42.1 120.5, 25 120 M75 120 C56.22 119.58, 40.82 119.59, 25 120 M25 120 C6.85 118.48, 3.06 112.23, 0 95 M25 120 C10.29 120.09, -0.01 107.1, 0 95 M0 95 C-0.64 80.59, 0.95 62.19, 0 25 M0 95 C-0.66 74.38, 1.2 50.93, 0 25 M0 25 C3.31 5.93, 8.95 -3.16, 25 0 M0 25 C1.54 10.4, 4.56 2.84, 25 0" stroke="#15aabf" stroke-width="4" fill="none"></path></g><g stroke-linecap="round" transform="translate(650 450) rotate(0 50 60)"><path d="M21.94 -1.32 L77.43 0.15 L92.16 5.61 L92.77 9.94 L97.16 23.28 L101.14 94.7 L95.25 105.73 L87.83 115.61 L73.63 116.61 L20.8 122.25 L13.67 116.67 L2.44 108.15 L-2.49 94.37 L-3.07 19.17 L6.13 2.72 L17.28 1.06 L23.99 3.24" stroke="none" stroke-width="0" fill="#99e9f2"></path><path d="M25 0 M25 0 C38.39 -2.2, 55.88 0.65, 75 0 M25 0 C44.02 -0.46, 63.54 0.19, 75 0 M75 0 C95.14 -3.86, 102.71 10.62, 100 25 M75 0 C90.4 -2.66, 97.88 12.3, 100 25 M100 25 C99.04 43.41, 100.67 59, 100 95 M100 25 C99.31 47.98, 101.93 72.9, 100 95 M100 95 C101.63 114.04, 92.35 117.77, 75 120 M100 95 C97.34 110.02, 94.37 116.57, 75 120 M75 120 C66.46 120.83, 53.51 119.18, 25 120 M75 120 C57.05 118.61, 39.11 118.77, 25 120 M25 120 C11.39 120.56, 1.7 111.74, 0 95 M25 120 C8.32 115.43, -3.37 116.14, 0 95 M0 95 C2.06 75.44, 0.02 55.27, 0 25 M0 95 C1.38 74.31, 2.78 54.62, 0 25 M0 25 C0.62 5.17, 9.67 1.8, 25 0 M0 25 C-3.77 11.17, 5.16 -2.65, 25 0" stroke="#15aabf" stroke-width="4" fill="none"></path></g><g stroke-linecap="round" transform="translate(750 450) rotate(0 50 60)"><path d="M21.57 -0.24 L82.79 2.49 L86.52 3.69 L93.65 8.05 L101.14 24.7 L96.81 94.79 L96.03 105.06 L88.86 113.1 L76.66 122.64 L23.04 119.79 L8.69 114.4 L1.02 109.6 L-3.46 95.03 L0.27 15.61 L9.47 5.75 L13.05 4.81 L26.23 -1.7" stroke="none" stroke-width="0" fill="#99e9f2"></path><path d="M25 0 M25 0 C40.84 1.65, 64.97 0.54, 75 0 M25 0 C42.33 0.78, 64 -2.06, 75 0 M75 0 C94.38 2.29, 98.9 6.02, 100 25 M75 0 C89.55 3.97, 97.51 5.51, 100 25 M100 25 C101.49 51.5, 101.62 80.33, 100 95 M100 25 C100.54 47.62, 99.96 71.19, 100 95 M100 95 C100.68 109.43, 89.36 118.57, 75 120 M100 95 C102.7 108.23, 88.45 122.93, 75 120 M75 120 C63.35 119.84, 50.72 116.55, 25 120 M75 120 C61.59 118.78, 51.19 119.82, 25 120 M25 120 C10.03 120.08, -0.01 107.69, 0 95 M25 120 C4.97 124.47, -1.63 112.5, 0 95 M0 95 C-0.53 68.72, -1.62 44.62, 0 25 M0 95 C1.48 69.76, 0.13 45.34, 0 25 M0 25 C1.34 10.13, 5.06 2.47, 25 0 M0 25 C-3.17 5.68, 10.02 0.31, 25 0" stroke="#15aabf" stroke-width="4" fill="none"></path></g><g stroke-linecap="round" transform="translate(850 450) rotate(0 50 60)"><path d="M26.93 2.1 L77.15 0.56 L87.4 1.8 L97.63 9.47 L96.81 24.79 L97.59 94.12 L97.06 102.55 L91.89 119.13 L78.9 120.18 L18.06 117.53 L7.27 115.85 L0.06 110.26 L-0.12 91.47 L3.61 18.64 L5.24 9.49 L15.29 -0.14 L27.41 -3.14" stroke="none" stroke-width="0" fill="#99e9f2"></path><path d="M25 0 M25 0 C41.94 -0.17, 53.91 -2.12, 75 0 M25 0 C42.4 -2.39, 57.68 0.69, 75 0 M75 0 C90.57 -2.31, 98.16 11.79, 100 25 M75 0 C89.17 -2.82, 103.88 8.22, 100 25 M100 25 C102.19 49.62, 101.39 68.78, 100 95 M100 25 C101.79 43.99, 101.32 59.5, 100 95 M100 95 C97.69 110.24, 94.02 117.01, 75 120 M100 95 C96.79 114.6, 89.98 123.41, 75 120 M75 120 C60.56 116.14, 40.14 119.13, 25 120 M75 120 C63.84 119.9, 50.46 119.66, 25 120 M25 120 C8.32 116.03, -2.93 115.56, 0 95 M25 120 C6.7 120.83, 1.69 114.33, 0 95 M0 95 C-0.9 72.62, 1.64 57.18, 0 25 M0 95 C-0.85 76.27, -0.49 61.61, 0 25 M0 25 C-3.28 10.8, 5.57 -2.31, 25 0 M0 25 C1.68 8.65, 9.41 -2.19, 25 0" stroke="#15aabf" stroke-width="4" fill="none"></path></g><g stroke-linecap="round" transform="translate(950 450) rotate(0 50 60)"><path d="M21.29 0.17 L78.02 -1.33 L91.38 3.22 L93.3 9.55 L97.59 24.12 L98.63 91.61 L100.09 108.58 L94.14 116.67 L73.92 117.92 L16.65 118.98 L6.31 116.51 L3.39 106.71 L3.22 94.5 L-0.62 22.38 L7.48 4.55 L16.48 -1.58 L23.4 -2.18" stroke="none" stroke-width="0" fill="#99e9f2"></path><path d="M25 0 M25 0 C44.47 -1.84, 58.67 -2.63, 75 0 M25 0 C43.64 2.11, 59.01 -0.19, 75 0 M75 0 C89.82 3.45, 97.83 5.88, 100 25 M75 0 C95.55 -0.12, 101.39 10.09, 100 25 M100 25 C101.44 42.84, 98.76 68.35, 100 95 M100 25 C100.91 45.29, 99.41 67.1, 100 95 M100 95 C102.35 108.68, 88.87 122.55, 75 120 M100 95 C98.31 115.08, 93.05 121.75, 75 120 M75 120 C58.71 118.31, 44.3 117.58, 25 120 M75 120 C62.75 120.18, 48.79 118.16, 25 120 M25 120 C5.41 123.89, -1.42 112.39, 0 95 M25 120 C10.03 122.66, -1.21 111.99, 0 95 M0 95 C2.02 79.23, -1.92 65.77, 0 25 M0 95 C0.45 79.1, -1.86 62.63, 0 25 M0 25 C-2.76 6.03, 9.8 0.27, 25 0 M0 25 C1.08 6.14, 4.95 -0.83, 25 0" stroke="#15aabf" stroke-width="4" fill="none"></path></g><g stroke-linecap="round" transform="translate(550 710) rotate(0 50 60)"><path d="M25.49 -2.96 L78.73 -2.14 L92.61 2.92 L94.76 9.6 L97.02 21.6 L98.19 96.49 L100.77 107.36 L94.06 119.96 L78.8 116.12 L22.11 121.86 L8.26 116.86 L4.45 111.94 L-0.97 98.3 L1.02 20.32 L3.82 5.71 L12.57 1.01 L26.86 0.83" stroke="none" stroke-width="0" fill="#eebefa"></path><path d="M25 0 M25 0 C36.63 -1.31, 47.19 0.69, 75 0 M25 0 C41.09 -1.69, 62.96 -0.44, 75 0 M75 0 C91.76 -3.25, 102.23 10.82, 100 25 M75 0 C89.33 -1.78, 102.77 8.68, 100 25 M100 25 C97.82 43.43, 103.26 62.18, 100 95 M100 25 C103.02 47.35, 99.48 71.96, 100 95 M100 95 C100.09 107.82, 91.22 120.18, 75 120 M100 95 C103.77 111.01, 92.75 121.93, 75 120 M75 120 C65.38 119.89, 52.94 124.05, 25 120 M75 120 C61.07 120.92, 48.81 121.17, 25 120 M25 120 C10.41 122.33, -2.15 115.45, 0 95 M25 120 C10.92 123.84, -3.02 108.23, 0 95 M0 95 C-0.3 77.24, 3.27 67.62, 0 25 M0 95 C1.31 80.78, 1.09 64.62, 0 25 M0 25 C-2.69 9.81, 10.45 -1.03, 25 0 M0 25 C-2.06 4.53, 6.07 3.47, 25 0" stroke="#da77f2" stroke-width="4" fill="none"></path></g><g stroke-linecap="round" transform="translate(650 710) rotate(0 50 60)"><path d="M22.87 -2.53 L83.24 -0.21 L88.51 3.35 L93.5 6.36 L98.19 26.49 L102.33 96.42 L102.27 109.42 L94.04 112.6 L77.97 122.25 L17.64 119.98 L10.7 118.19 L2.54 113.53 L0.63 96.18 L-2.04 18.6 L4.76 5.7 L15.92 2.4 L21.61 -1.27" stroke="none" stroke-width="0" fill="#eebefa"></path><path d="M25 0 M25 0 C39.69 0.87, 55.46 -2.29, 75 0 M25 0 C44.85 0.7, 60.94 -1.07, 75 0 M75 0 C93.9 2.49, 97.97 6.79, 100 25 M75 0 C94.43 0.35, 98.68 12.39, 100 25 M100 25 C100.83 51.73, 100.41 84.03, 100 95 M100 25 C99.25 47.86, 101.19 70.1, 100 95 M100 95 C99.55 111.84, 94.95 119.43, 75 120 M100 95 C101.08 113.59, 87.13 118.74, 75 120 M75 120 C54.5 123.14, 37.02 122.79, 25 120 M75 120 C61.95 121.71, 46.54 121.65, 25 120 M25 120 C6.19 123.78, 2.25 115.01, 0 95 M25 120 C5.32 116.56, -3.64 108.67, 0 95 M0 95 C2.78 80.06, -2.37 54.34, 0 25 M0 95 C-0.23 73.15, -1.36 48.34, 0 25 M0 25 C2.11 7.3, 6.54 -3.31, 25 0 M0 25 C-2.27 11.8, 11.92 -0.84, 25 0" stroke="#da77f2" stroke-width="4" fill="none"></path></g><g stroke-linecap="round" transform="translate(750 710) rotate(0 50 60)"><path d="M27.38 -0.6 L79.13 0.22 L87.25 0.11 L94.67 11.26 L102.33 26.42 L103.83 98.48 L102.24 102.05 L93.2 118.73 L73.5 120.37 L20.07 121.31 L8.79 119.78 L4.14 111.41 L-2.43 94.46 L-1.1 18.59 L8.11 7.08 L10.67 0.3 L24.21 0.87" stroke="none" stroke-width="0" fill="#eebefa"></path><path d="M25 0 M25 0 C40.54 -2.79, 53.6 -4, 75 0 M25 0 C37.3 -1.7, 50.62 1.17, 75 0 M75 0 C89.64 -1.55, 102.41 8.64, 100 25 M75 0 C90.35 4.05, 104.3 4.4, 100 25 M100 25 C102.31 48.96, 102.14 68.3, 100 95 M100 25 C98.72 38.97, 98.45 56.87, 100 95 M100 95 C103.28 111.09, 92.61 121.68, 75 120 M100 95 C95.46 110.41, 94.95 120.51, 75 120 M75 120 C60.18 123.83, 46.85 120.86, 25 120 M75 120 C58.62 121.78, 39.1 122.5, 25 120 M25 120 C10.58 123.34, -2.62 108.68, 0 95 M25 120 C4.69 117, -1.66 110.28, 0 95 M0 95 C-3.62 74.3, 0.72 61.07, 0 25 M0 95 C-1.2 68.12, 1.21 39.25, 0 25 M0 25 C-1.79 5.03, 6.36 3.02, 25 0 M0 25 C3.59 7.49, 9.48 -3.59, 25 0" stroke="#da77f2" stroke-width="4" fill="none"></path></g><g stroke-linecap="round" transform="translate(850 710) rotate(0 50 60)"><path d="M23.27 -0.17 L77.88 -3.01 L88.42 5.01 L98.81 11.18 L103.83 28.48 L103.8 91.12 L101.4 108.19 L88.73 116.86 L75.93 121.7 L18.17 122.91 L10.39 117.66 L1.08 109.69 L-1.49 94.45 L2.25 19.98 L2.86 4.98 L13.28 2.43 L23.5 0.67" stroke="none" stroke-width="0" fill="#eebefa"></path><path d="M25 0 M25 0 C42.97 -3.21, 54.03 4.49, 75 0 M25 0 C41.5 2.06, 54.75 0.04, 75 0 M75 0 C94.07 0.3, 98.86 11.86, 100 25 M75 0 C95.96 -3.93, 99.35 10.66, 100 25 M100 25 C102 47.85, 97.64 60.35, 100 95 M100 25 C99.81 43.81, 101.67 62.15, 100 95 M100 95 C100.94 113.34, 87.72 118.91, 75 120 M100 95 C103.28 112.18, 90.72 117.78, 75 120 M75 120 C55.62 120.77, 38.58 124.15, 25 120 M75 120 C55.87 122.47, 40.01 122.25, 25 120 M25 120 C5.71 117.01, -3.17 109.06, 0 95 M25 120 C6.67 118.61, -2.64 114.38, 0 95 M0 95 C2.52 67.84, 4.76 40.2, 0 25 M0 95 C2 67.04, 0.05 38.45, 0 25 M0 25 C-1.97 11.35, 11.45 -0.73, 25 0 M0 25 C1.15 4.74, 6.05 2.85, 25 0" stroke="#da77f2" stroke-width="4" fill="none"></path></g><g stroke-linecap="round" transform="translate(950 710) rotate(0 50 60)"><path d="M22.02 -3.4 L79.05 1.88 L92.56 4.93 L100.31 13.24 L103.8 21.12 L102.97 97.25 L96.93 106.31 L91.17 118.19 L74.03 123.3 L19.77 120.79 L7.33 115.94 L2.03 109.69 L1.86 95.83 L-3 17.87 L5.46 7.12 L12.56 2.23 L25.49 2.42" stroke="none" stroke-width="0" fill="#eebefa"></path><path d="M25 0 M25 0 C34.47 4.79, 48.64 1.07, 75 0 M25 0 C34.93 -1.39, 48.09 -0.47, 75 0 M75 0 C90.52 3.53, 103.74 4.92, 100 25 M75 0 C91.02 2.32, 99.06 10.18, 100 25 M100 25 C97.58 49.11, 99.2 80.91, 100 95 M100 25 C101.48 38.99, 100.31 54.39, 100 95 M100 95 C96.05 110.57, 94.52 120.44, 75 120 M100 95 C99.06 109.44, 95.51 119.03, 75 120 M75 120 C58.19 123.41, 39.96 122.08, 25 120 M75 120 C58.21 122.61, 37.87 119.45, 25 120 M25 120 C5.17 117.39, -1.45 110.46, 0 95 M25 120 C5.69 122.71, 4.07 108.45, 0 95 M0 95 C3.24 80.07, 3.15 63.31, 0 25 M0 95 C-1.64 69.76, -1.73 49.34, 0 25 M0 25 C3.12 7.6, 9.33 -3.12, 25 0 M0 25 C-2.28 11.18, 8.63 3.5, 25 0" stroke="#da77f2" stroke-width="4" fill="none"></path></g><g transform="translate(690 130) rotate(0 116.015625 21.600000000000364)"><text x="0" y="0" font-family="Cascadia, Segoe UI Emoji" font-size="36px" fill="#1e1e1e" text-anchor="start" style="white-space: pre;" direction="ltr" dominant-baseline="text-before-edge">Partition 1</text></g><g transform="translate(690 390) rotate(0 116.015625 21.600000000000364)"><text x="0" y="0" font-family="Cascadia, Segoe UI Emoji" font-size="36px" fill="#1e1e1e" text-anchor="start" style="white-space: pre;" direction="ltr" dominant-baseline="text-before-edge">Partition 2</text></g><g transform="translate(710 650) rotate(0 116.015625 21.600000000000364)"><text x="0" y="0" font-family="Cascadia, Segoe UI Emoji" font-size="36px" fill="#1e1e1e" text-anchor="start" style="white-space: pre;" direction="ltr" dominant-baseline="text-before-edge">Partition 3</text></g><g transform="translate(150 470) rotate(0 108 21.600000000000364)"><text x="0" y="0" font-family="Cascadia, Segoe UI Emoji" font-size="36px" fill="#1e1e1e" text-anchor="start" style="white-space: pre;" direction="ltr" dominant-baseline="text-before-edge">生产者客户端</text></g><g stroke-linecap="round" transform="translate(1490 170) rotate(0 230 70)"><path d="M32.01 1.72 L427.05 3.78 L444.39 -1.91 L452.37 8.24 L459.65 27.57 L458.63 105.73 L457.3 118.87 L448.64 137.19 L427.44 139.14 L30.76 142.98 L15.71 140.96 L6.41 125.41 L1.32 116.37 L-2.9 24.73 L5.04 4.82 L14.38 -0.9 L32.21 2.22" stroke="none" stroke-width="0" fill="#ffc9c9"></path><path d="M32 0 M32 0 C134.47 4.42, 236.19 4.04, 428 0 M32 0 C112.71 -0.37, 193.34 -0.5, 428 0 M428 0 C447.1 -1.48, 463.29 10.55, 460 32 M428 0 C451.5 2.8, 457.37 10.02, 460 32 M460 32 C460.2 59.5, 459.94 84.29, 460 108 M460 32 C462.84 56.01, 462.15 80.39, 460 108 M460 108 C462.83 127.74, 448.28 141.19, 428 140 M460 108 C459.96 129.95, 452.24 142.23, 428 140 M428 140 C282.99 138.21, 135.18 134.46, 32 140 M428 140 C323.08 141.69, 218.18 142.07, 32 140 M32 140 C9.24 138.61, 0.48 128.25, 0 108 M32 140 C7.75 138.17, 0.56 128.12, 0 108 M0 108 C-3.15 83.06, -0.97 56.9, 0 32 M0 108 C-0.3 80.77, 0.72 54.94, 0 32 M0 32 C1.13 10.14, 11.32 -4, 32 0 M0 32 C0.43 9.46, 14.61 3.09, 32 0" stroke="#e95d8e" stroke-width="4" fill="none"></path></g><g transform="translate(1635.625 218.39999999999964) rotate(0 84.375 21.600000000000364)"><text x="84.375" y="0" font-family="Cascadia, Segoe UI Emoji" font-size="36px" fill="#1e1e1e" text-anchor="middle" style="white-space: pre;" direction="ltr" dominant-baseline="text-before-edge">Broker 1</text></g><g stroke-linecap="round" transform="translate(1510 450) rotate(0 230 70)"><path d="M31.37 2.73 L424.61 0.83 L440.79 2.46 L454.39 6.78 L456.86 22.97 L460.22 108.51 L461.23 123.13 L446.97 136.15 L424 140.37 L30.95 143.43 L20.69 141.69 L3.4 130.11 L-1.75 113.62 L-2.5 26.02 L11.1 10.3 L18.36 3.07 L28.06 -1.6" stroke="none" stroke-width="0" fill="#ffc9c9"></path><path d="M32 0 M32 0 C126.6 -0.13, 221.86 -1.96, 428 0 M32 0 C159.94 -4.06, 287.88 -3.82, 428 0 M428 0 C448.43 -1.76, 457.95 7.78, 460 32 M428 0 C447.61 3.8, 458.73 13.91, 460 32 M460 32 C463.26 60.28, 464.02 85.63, 460 108 M460 32 C457.61 63.23, 457.52 92.66, 460 108 M460 108 C457.51 127.42, 445.78 137.44, 428 140 M460 108 C459.7 132.47, 449.95 139.21, 428 140 M428 140 C341.72 137.32, 254.74 137.12, 32 140 M428 140 C275.43 143.69, 123.99 142.51, 32 140 M32 140 C10.84 140.95, -1.28 126.07, 0 108 M32 140 C8.14 138.92, 1.89 132.15, 0 108 M0 108 C-1.07 86.86, -1.57 67.06, 0 32 M0 108 C1.68 86.13, 1.49 59.19, 0 32 M0 32 C0.92 13.39, 12.62 -0.58, 32 0 M0 32 C-1.66 8.13, 13.19 -0.62, 32 0" stroke="#e95d8e" stroke-width="4" fill="none"></path></g><g transform="translate(1655.625 498.39999999999964) rotate(0 84.375 21.600000000000364)"><text x="84.375" y="0" font-family="Cascadia, Segoe UI Emoji" font-size="36px" fill="#1e1e1e" text-anchor="middle" style="white-space: pre;" direction="ltr" dominant-baseline="text-before-edge">Broker 2</text></g><g stroke-linecap="round" transform="translate(1510 710) rotate(0 230 70)"><path d="M30.72 -3.26 L425.8 -0.94 L443.65 4.45 L451.71 11.19 L459.28 24.64 L461.11 107.64 L461.55 122.39 L444.16 133.79 L428.83 143.35 L32.43 136.55 L18.92 140.73 L6.46 126.92 L-0.94 113.3 L2.7 23.96 L9.94 5.39 L19.55 -1.22 L28.67 -0.09" stroke="none" stroke-width="0" fill="#ffc9c9"></path><path d="M32 0 M32 0 C187.48 0.42, 344.63 1.26, 428 0 M32 0 C182.47 -3.29, 332.08 -2.88, 428 0 M428 0 C453.14 1.86, 459.66 14.66, 460 32 M428 0 C446.9 -2.71, 462.98 14.03, 460 32 M460 32 C463.54 56.8, 456.75 77.46, 460 108 M460 32 C461.61 60.8, 459.28 88.36, 460 108 M460 108 C460.1 126.4, 445.56 142.53, 428 140 M460 108 C463.69 132.79, 451.37 138.07, 428 140 M428 140 C327.72 141.7, 224.93 141.27, 32 140 M428 140 C335.41 142.58, 242.57 142.25, 32 140 M32 140 C13.81 140.06, 0.51 128.28, 0 108 M32 140 C6.76 142.78, 0.99 133.77, 0 108 M0 108 C-4 82.98, 0.54 60.78, 0 32 M0 108 C-0.47 77.55, 1.34 48.52, 0 32 M0 32 C1.75 7.62, 7.97 -2.79, 32 0 M0 32 C0.2 8.74, 11.47 -3.32, 32 0" stroke="#e95d8e" stroke-width="4" fill="none"></path></g><g transform="translate(1655.625 758.3999999999996) rotate(0 84.375 21.600000000000364)"><text x="84.375" y="0" font-family="Cascadia, Segoe UI Emoji" font-size="36px" fill="#1e1e1e" text-anchor="middle" style="white-space: pre;" direction="ltr" dominant-baseline="text-before-edge">Broker 3</text></g><g stroke-linecap="round"><g transform="translate(1050 250) rotate(0 220.24346036873794 0.006188805330566538)"><path d="M-2.12 -2.29 C71.9 -2.87, 368.66 -2.57, 442.61 -2.36 M1.92 2.64 C75.95 2.22, 368.67 0.18, 441.79 -0.01" stroke="#1e1e1e" stroke-width="4" fill="none"></path></g><g transform="translate(1050 250) rotate(0 220.24346036873794 0.006188805330566538)"><path d="M410.38 14.12 C417.08 10.54, 425.84 3.48, 444.39 1.2 M414.93 8.87 C424.78 8.27, 432.74 3.87, 443.35 0.93" stroke="#1e1e1e" stroke-width="4" fill="none"></path></g><g transform="translate(1050 250) rotate(0 220.24346036873794 0.006188805330566538)"><path d="M410.27 -6.4 C417.17 -4.96, 425.96 -6.99, 444.39 1.2 M414.83 -11.65 C424.95 -5.36, 432.95 -2.88, 443.35 0.93" stroke="#1e1e1e" stroke-width="4" fill="none"></path></g></g><mask></mask><g stroke-linecap="round"><g transform="translate(1050 510) rotate(0 229.78525561790957 -1.1684130746962182)"><path d="M1.47 -0.44 C78.45 -0.81, 384.16 -1.85, 460.75 -1.83 M-1.18 -3.14 C75.6 -3.23, 382.09 -0.15, 458.92 0.81" stroke="#1e1e1e" stroke-width="4" fill="none"></path></g><g transform="translate(1050 510) rotate(0 229.78525561790957 -1.1684130746962182)"><path d="M429.99 11.84 C435.31 9.36, 444.8 4.26, 456.31 4.31 M432.03 10.15 C438.59 8.88, 447 3.66, 457.42 -0.53" stroke="#1e1e1e" stroke-width="4" fill="none"></path></g><g transform="translate(1050 510) rotate(0 229.78525561790957 -1.1684130746962182)"><path d="M430.22 -8.68 C435.53 -5.84, 444.97 -5.63, 456.31 4.31 M432.25 -10.37 C438.38 -6.43, 446.73 -6.44, 457.42 -0.53" stroke="#1e1e1e" stroke-width="4" fill="none"></path></g></g><mask></mask><g stroke-linecap="round"><g transform="translate(1050 770) rotate(0 229.32780740223825 -0.305361065082252)"><path d="M-0.81 2.08 C75.77 2.07, 382.43 1.66, 459.46 1.51 M3.95 0.73 C80.1 -0.23, 380.86 -1.94, 456.93 -2.69" stroke="#1e1e1e" stroke-width="4" fill="none"></path></g><g transform="translate(1050 770) rotate(0 229.32780740223825 -0.305361065082252)"><path d="M431.79 7.02 C439.3 6.82, 447.23 1.92, 456.14 -6.56 M426.89 7.21 C439.42 5.17, 447.22 1.19, 458.28 -2.37" stroke="#1e1e1e" stroke-width="4" fill="none"></path></g><g transform="translate(1050 770) rotate(0 229.32780740223825 -0.305361065082252)"><path d="M431.63 -13.5 C439.41 -7.54, 447.4 -6.28, 456.14 -6.56 M426.73 -13.31 C439.09 -8.42, 446.94 -5.46, 458.28 -2.37" stroke="#1e1e1e" stroke-width="4" fill="none"></path></g></g><mask></mask></svg>