<svg version="1.1" xmlns="http://www.w3.org/2000/svg" viewBox="0 0 896.6277687053353 465.0932482882172" width="1793.2555374106705" height="930.1864965764344">
  <!-- svg-source:excalidraw -->
  
  <defs>
    <style class="style-fonts">
      @font-face {
        font-family: "Virgil";
        src: url("https://excalidraw.com/Virgil.woff2");
      }
      @font-face {
        font-family: "Cascadia";
        src: url("https://excalidraw.com/Cascadia.woff2");
      }
    </style>
    
  </defs>
  <rect x="0" y="0" width="896.6277687053353" height="465.0932482882172" fill="#ffffff"></rect><g stroke-linecap="round" transform="translate(10 10) rotate(0 438.3138843526676 222.5466241441086)"><path d="M33.59 -0.02 L844.21 1.74 L851 -0.62 L865.3 6.2 L872.09 11.5 L875.01 19.16 L877.85 33.26 L875.45 411.14 L877.18 421.67 L871.31 434.33 L866.02 438.92 L857.77 442.2 L844.82 444.45 L33.44 445.56 L24.94 443.57 L12.31 442.22 L5.67 431.06 L3.07 428.95 L0.93 412.67 L-0.98 33.88 L2.31 16.53 L8.51 9.9 L17.93 2.01 L31.43 -0.4" stroke="none" stroke-width="0" fill="#ffffff"></path><path d="M32 0 M32 0 C211.61 1.5, 391 2.21, 844.63 0 M32 0 C196.32 0.64, 360.64 1.02, 844.63 0 M844.63 0 C867.12 -0.02, 877.89 8.92, 876.63 32 M844.63 0 C867.75 -1.68, 877.76 10.21, 876.63 32 M876.63 32 C877.09 113.6, 875.79 197.82, 876.63 413.09 M876.63 32 C876.59 149.03, 876.87 266.58, 876.63 413.09 M876.63 413.09 C875.55 434.87, 866.67 443.81, 844.63 445.09 M876.63 413.09 C877.48 433.53, 866.55 444.25, 844.63 445.09 M844.63 445.09 C575.04 447.01, 305.18 446.68, 32 445.09 M844.63 445.09 C598.64 443.68, 353.33 443.81, 32 445.09 M32 445.09 C9.01 446.61, 1.86 436.39, 0 413.09 M32 445.09 C12.53 445.03, 0.09 434.33, 0 413.09 M0 413.09 C1.49 296.85, 1.74 180.17, 0 32 M0 413.09 C-1.83 324.42, -2.21 235.81, 0 32 M0 32 C-2 9.4, 9.19 -1.37, 32 0 M0 32 C-2.27 9.13, 11.08 1.16, 32 0" stroke="#1e1e1e" stroke-width="1" fill="none"></path></g><g stroke-linecap="round" transform="translate(432.6185082566608 103.2539282169555) rotate(0 60.78100764738065 33.89496094551885)"><path d="M16.53 1.74 L103.49 -1.12 L116.12 4.08 L119.14 5.62 L121.68 14.14 L122.78 52.1 L118.01 59.22 L113.08 67.81 L103.8 69.53 L18.84 66.12 L5.77 64.51 L2.57 60.53 L1.7 55.28 L0.71 11.95 L2.2 8.25 L7.79 0.85 L18.01 1.85" stroke="none" stroke-width="0" fill="#a5d8ff"></path><path d="M16.95 0 M16.95 0 C49.22 0.74, 76.26 0.94, 104.61 0 M16.95 0 C51.29 -0.21, 85.42 -0.42, 104.61 0 M104.61 0 C114.61 0.11, 120.04 5.31, 121.56 16.95 M104.61 0 C116.2 -2.24, 122.48 5.12, 121.56 16.95 M121.56 16.95 C122.87 26.7, 121.46 35.4, 121.56 50.84 M121.56 16.95 C122.32 23.95, 120.99 31.18, 121.56 50.84 M121.56 50.84 C119.68 63.57, 114.49 67.06, 104.61 67.79 M121.56 50.84 C123.35 62.33, 116.43 66.43, 104.61 67.79 M104.61 67.79 C85.48 66.31, 68.44 68.1, 16.95 67.79 M104.61 67.79 C84.19 67.08, 63.56 68.12, 16.95 67.79 M16.95 67.79 C6.43 67.91, 1.62 61.73, 0 50.84 M16.95 67.79 C6.55 67.85, -1.42 61.24, 0 50.84 M0 50.84 C0.07 40.95, 1.64 36.23, 0 16.95 M0 50.84 C-0.24 37.31, -0.22 23.45, 0 16.95 M0 16.95 C-1.02 6.6, 5.9 1.37, 16.95 0 M0 16.95 C-0.27 4.08, 7.4 0.06, 16.95 0" stroke="#1e1e1e" stroke-width="1" fill="none"></path></g><g transform="translate(465.0596721540405 125.64888916247423) rotate(0 28.33984375 11.5)"><text x="28.33984375" y="0" font-family="Helvetica, Segoe UI Emoji" font-size="20px" fill="#1e1e1e" text-anchor="middle" style="white-space: pre;" direction="ltr" dominant-baseline="text-before-edge">程序 1</text></g><g stroke-linecap="round" transform="translate(231.81496938599048 291.4340046085772) rotate(0 60.78100764738065 33.89496094551885)"><path d="M18.12 1.7 L104.57 -1 L115.32 3.55 L120.4 7.88 L120.12 11.02 L122.61 51.92 L118.36 62.91 L113.92 65.06 L103.76 66.89 L17.14 67.15 L8.06 65.88 L2.82 60.15 L0.08 56.44 L1.44 11.44 L3.45 8.47 L7.55 1.96 L15.96 1.88" stroke="none" stroke-width="0" fill="#a5d8ff"></path><path d="M16.95 0 M16.95 0 C46.52 -0.3, 72.3 -0.79, 104.61 0 M16.95 0 C40.84 0.42, 65.26 0.19, 104.61 0 M104.61 0 C116.17 -1.95, 122.36 5.19, 121.56 16.95 M104.61 0 C114.84 -0.59, 119.42 7.25, 121.56 16.95 M121.56 16.95 C119.81 30.63, 120.1 42.18, 121.56 50.84 M121.56 16.95 C120.34 27.16, 120.57 35.58, 121.56 50.84 M121.56 50.84 C123.12 62.3, 116.36 66.6, 104.61 67.79 M121.56 50.84 C119.47 60.66, 114.87 66.84, 104.61 67.79 M104.61 67.79 C81.77 68.84, 60.7 68.61, 16.95 67.79 M104.61 67.79 C81.91 68.44, 59.24 68.17, 16.95 67.79 M16.95 67.79 C6.44 67.84, -1.24 61.36, 0 50.84 M16.95 67.79 C4.33 66.96, 1.3 62.08, 0 50.84 M0 50.84 C1.7 45.11, -0.32 36.21, 0 16.95 M0 50.84 C-0.53 41.28, 0.11 31.46, 0 16.95 M0 16.95 C-0.24 4.29, 7.17 0.05, 16.95 0 M0 16.95 C-0.37 4.56, 3.85 -1.95, 16.95 0" stroke="#1e1e1e" stroke-width="1" fill="none"></path></g><g transform="translate(264.2561332833702 313.82896555409593) rotate(0 28.33984375 11.5)"><text x="28.33984375" y="0" font-family="Helvetica, Segoe UI Emoji" font-size="20px" fill="#1e1e1e" text-anchor="middle" style="white-space: pre;" direction="ltr" dominant-baseline="text-before-edge">程序 2</text></g><g stroke-linecap="round" transform="translate(650.3818890008788 306.2083508237797) rotate(0 60.78100764738065 33.89496094551885)"><path d="M17.33 1.16 L105.83 1.26 L113.77 0.43 L120.23 7.7 L120.48 14.72 L123.45 49.17 L118.32 60.27 L112.22 66.09 L106.05 68.26 L17.39 66.77 L6.43 67.04 L3.55 59.63 L1.33 56.67 L1.2 12.55 L1.4 8.5 L6.93 0.91 L17.46 1.9" stroke="none" stroke-width="0" fill="#a5d8ff"></path><path d="M16.95 0 M16.95 0 C42.52 -1.33, 68.07 -1.05, 104.61 0 M16.95 0 C43.86 -0.83, 70.92 -0.08, 104.61 0 M104.61 0 C114.98 -0.51, 119.7 7.05, 121.56 16.95 M104.61 0 C117.24 -0.02, 123.02 3.64, 121.56 16.95 M121.56 16.95 C120.92 28.07, 120.97 40.67, 121.56 50.84 M121.56 16.95 C122.1 29.62, 121.55 41.54, 121.56 50.84 M121.56 50.84 C119.74 60.85, 115 66.97, 104.61 67.79 M121.56 50.84 C120.32 62.66, 116.72 66.32, 104.61 67.79 M104.61 67.79 C74.33 68.65, 46.85 68.8, 16.95 67.79 M104.61 67.79 C78.17 67.63, 50.32 67.22, 16.95 67.79 M16.95 67.79 C4.51 67.07, 1.13 62.09, 0 50.84 M16.95 67.79 C3.74 69.54, 2.13 64.4, 0 50.84 M0 50.84 C-0.07 38.04, -0.8 23.99, 0 16.95 M0 50.84 C-0.16 38.39, 0.72 27.32, 0 16.95 M0 16.95 C-0.32 4.71, 4.08 -1.7, 16.95 0 M0 16.95 C-2.3 4.19, 3.95 -1.58, 16.95 0" stroke="#1e1e1e" stroke-width="1" fill="none"></path></g><g transform="translate(682.8230528982585 328.60331176929844) rotate(0 28.33984375 11.5)"><text x="28.33984375" y="0" font-family="Helvetica, Segoe UI Emoji" font-size="20px" fill="#1e1e1e" text-anchor="middle" style="white-space: pre;" direction="ltr" dominant-baseline="text-before-edge">程序 3</text></g><g mask="url(#mask-4Lw6uQRMtZXgnxt5-nzDm)" stroke-linecap="round"><g transform="translate(725.9030917723594 300.9329313992689) rotate(0 -84.61752869820066 -67.6960822386875)"><path d="M0.7 -0.92 C-27.5 -23.59, -140.97 -112.48, -169.33 -135.06 M-0.39 1.21 C-28.68 -21.86, -141.69 -113.86, -169.94 -136.6" stroke="#1e1e1e" stroke-width="1" fill="none"></path></g><g transform="translate(725.9030917723594 300.9329313992689) rotate(0 -84.61752869820066 -67.6960822386875)"><path d="M-143.11 -125.76 C-148.05 -128.57, -158.57 -133.33, -168.06 -136.29 M-141.61 -126.82 C-148.31 -128.97, -155.24 -131.39, -170.59 -136.55" stroke="#1e1e1e" stroke-width="1" fill="none"></path></g><g transform="translate(725.9030917723594 300.9329313992689) rotate(0 -84.61752869820066 -67.6960822386875)"><path d="M-156.03 -109.81 C-157.34 -117.34, -164.11 -126.73, -168.06 -136.29 M-154.53 -110.88 C-158.34 -116.76, -162.35 -122.79, -170.59 -136.55" stroke="#1e1e1e" stroke-width="1" fill="none"></path></g></g><mask id="mask-4Lw6uQRMtZXgnxt5-nzDm"><rect x="0" y="0" fill="#fff" width="995.8697133133282" height="537.1087178682187"></rect><rect x="620.9197810018741" y="221.345038164794" fill="#000" width="40" height="23" opacity="1"></rect></mask><g transform="translate(620.9197810018741 221.345038164794) rotate(0 20.365782072284674 11.89181099578741)"><text x="20" y="0" font-family="Helvetica, Segoe UI Emoji" font-size="20px" fill="#1e1e1e" text-anchor="middle" style="white-space: pre;" direction="ltr" dominant-baseline="text-before-edge">同意</text></g><g stroke-linecap="round" transform="translate(41.11707395493249 89.39884647362987) rotate(0 121.93558519474118 28)"><path d="M13.02 1.88 L233.46 -1.25 L240.88 5.4 L242.92 7.89 L243.09 44.88 L238.79 51.68 L234.7 55.24 L228.35 55.66 L10.97 53.83 L4.3 52.04 L-0.06 47.62 L-1.86 15.4 L2.03 7.86 L4.77 1.75 L9.43 -0.58 L14.98 -0.4" stroke="none" stroke-width="0" fill="#a5d8ff"></path><path d="M14 0 M14 0 C61.95 0.53, 106.77 3.13, 229.87 0 M14 0 C79.71 0.56, 146.62 0.76, 229.87 0 M229.87 0 C238.12 0.45, 244.58 3.39, 243.87 14 M229.87 0 C240.06 -0.9, 244.46 3.83, 243.87 14 M243.87 14 C244.18 24.92, 243.65 33.37, 243.87 42 M243.87 14 C243.13 22.11, 244.26 30.91, 243.87 42 M243.87 42 C242.21 52.85, 241.06 57.96, 229.87 56 M243.87 42 C245.73 51.27, 239.29 55.91, 229.87 56 M229.87 56 C164.77 55.25, 99.21 54.83, 14 56 M229.87 56 C179.66 55.64, 129.05 55.31, 14 56 M14 56 C2.67 54.73, -1.48 49.96, 0 42 M14 56 C2.4 54.47, 0.41 52.49, 0 42 M0 42 C1.14 32.64, 1.89 20.82, 0 14 M0 42 C0.77 34.87, -0.79 28.05, 0 14 M0 14 C-1.36 2.9, 6.28 -1.95, 14 0 M0 14 C2.12 2.48, 3.54 -1.38, 14 0" stroke="#1e1e1e" stroke-width="1" fill="none"></path></g><g transform="translate(65.70109664967458 108.19884647362983) rotate(0 97.3515625 9.200000000000045)"><text x="97.3515625" y="0" font-family="Helvetica, Segoe UI Emoji" font-size="16px" fill="#1e1e1e" text-anchor="middle" style="white-space: pre;" direction="ltr" dominant-baseline="text-before-edge">资源 A，程序 3，时间戳 12</text></g><g transform="translate(79.40716259851251 61.09934621958337) rotate(0 80.89453125 9.200000000000045)"><text x="0" y="0" font-family="Helvetica, Segoe UI Emoji" font-size="16px" fill="#1e1e1e" text-anchor="start" style="white-space: pre;" direction="ltr" dominant-baseline="text-before-edge">程序 1 维护的请求队列</text></g><g stroke-linecap="round" transform="translate(42.09534892994998 144.94759055473423) rotate(0 121.93558519474209 28)"><path d="M13.93 0.01 L232.59 -0.18 L238.79 2.68 L241.7 7.99 L242.13 44.94 L240.62 50.55 L236.8 54.67 L228.94 55.49 L8.86 57.18 L4.66 52.48 L2.14 46.37 L1.55 12.54 L1.86 7.48 L1.83 3.15 L6 2.3 L12.58 -0.73" stroke="none" stroke-width="0" fill="#a5d8ff"></path><path d="M14 0 M14 0 C94.5 -2.02, 175.94 -1.22, 229.87 0 M14 0 C70.18 -0.98, 126.08 -0.76, 229.87 0 M229.87 0 C239.72 -0.73, 244.51 6.01, 243.87 14 M229.87 0 C240.1 0.14, 245.74 4.19, 243.87 14 M243.87 14 C243.1 22.36, 243.16 34.14, 243.87 42 M243.87 14 C244.57 23.3, 244.45 30.62, 243.87 42 M243.87 42 C243.95 51.25, 239.31 55.19, 229.87 56 M243.87 42 C242.69 52.42, 239.49 57.57, 229.87 56 M229.87 56 C167.72 57.16, 104.65 56.07, 14 56 M229.87 56 C182.78 54.2, 136.13 54.22, 14 56 M14 56 C5.02 57.01, 1.1 49.66, 0 42 M14 56 C4.13 57.04, 0.67 53.24, 0 42 M0 42 C-0.83 36.92, 0.5 27.24, 0 14 M0 42 C1 30.65, 1.11 20.31, 0 14 M0 14 C-0.98 3.46, 6.54 -1.23, 14 0 M0 14 C-2.14 4.59, 2.95 -1.7, 14 0" stroke="#1e1e1e" stroke-width="1" fill="none"></path></g><g mask="url(#mask-h7E3HYWRUV9RdO8krL-O0)" stroke-linecap="round"><g transform="translate(312.7768231523132 291.3860950650719) rotate(0 59.976047859645405 -65.26587069607979)"><path d="M0.43 0.24 C20 -21.16, 98.66 -107.46, 118.58 -129.04 M-0.8 -0.68 C19.02 -22.37, 100.72 -108.99, 120.75 -130.77" stroke="#1e1e1e" stroke-width="1" fill="none"></path></g><g transform="translate(312.7768231523132 291.3860950650719) rotate(0 59.976047859645405 -65.26587069607979)"><path d="M109.43 -104.85 C115.1 -113.61, 119.4 -124.21, 122.07 -131.23 M109.12 -103.52 C112.74 -113.58, 117.95 -123, 120.11 -130.77" stroke="#1e1e1e" stroke-width="1" fill="none"></path></g><g transform="translate(312.7768231523132 291.3860950650719) rotate(0 59.976047859645405 -65.26587069607979)"><path d="M94.42 -118.85 C106.01 -122.08, 116.29 -127.1, 122.07 -131.23 M94.12 -117.52 C103.18 -122.48, 113.85 -126.8, 120.11 -130.77" stroke="#1e1e1e" stroke-width="1" fill="none"></path></g></g><mask id="mask-h7E3HYWRUV9RdO8krL-O0"><rect x="0" y="0" fill="#fff" width="532.3717561691865" height="521.1790456260196"></rect><rect x="356.57428966074986" y="217.28961978459802" fill="#000" width="32" height="18.4" opacity="1"></rect></mask><g transform="translate(356.57428966074986 217.28961978459802) rotate(0 16.178581351208777 8.83060458439411)"><text x="16" y="0" font-family="Helvetica, Segoe UI Emoji" font-size="16px" fill="#1e1e1e" text-anchor="middle" style="white-space: pre;" direction="ltr" dominant-baseline="text-before-edge">同意</text></g><g mask="url(#mask-B57ko0iUVSk-Znv7E-EE1)" stroke-linecap="round"><g transform="translate(357.0493531040702 330.48622142155773) rotate(0 146.937269510664 1.8637346731608204)"><path d="M-0.29 0.08 C48.76 0.75, 245.36 4.09, 294.16 4.64 M1.76 -0.92 C50.76 -0.67, 245.5 1.91, 293.79 2.78" stroke="#1e1e1e" stroke-width="1" fill="none"></path></g><g transform="translate(357.0493531040702 330.48622142155773) rotate(0 146.937269510664 1.8637346731608204)"><path d="M265.59 14.45 C274.41 8.98, 280.52 7.52, 294.98 2.38 M266.35 13.32 C270.49 11.12, 277.97 9.26, 294.33 3.74" stroke="#1e1e1e" stroke-width="1" fill="none"></path></g><g transform="translate(357.0493531040702 330.48622142155773) rotate(0 146.937269510664 1.8637346731608204)"><path d="M265.9 -6.07 C274.74 -5.61, 280.77 -1.14, 294.98 2.38 M266.66 -7.2 C270.79 -5.17, 278.2 -2.8, 294.33 3.74" stroke="#1e1e1e" stroke-width="1" fill="none"></path></g></g><mask id="mask-B57ko0iUVSk-Znv7E-EE1"><rect x="0" y="0" fill="#fff" width="750.1110193914774" height="434.6349603769879"></rect><rect x="487.5801862477747" y="323.3605908992729" fill="#000" width="32" height="18.4" opacity="1"></rect></mask><g transform="translate(487.5801862477747 323.3605908992729) rotate(0 16.406436366959497 8.989365195445657)"><text x="16" y="0" font-family="Helvetica, Segoe UI Emoji" font-size="16px" fill="#1e1e1e" text-anchor="middle" style="white-space: pre;" direction="ltr" dominant-baseline="text-before-edge">同意</text></g><g transform="translate(234.2804051420353 415.48268271407846) rotate(0 217.34765625 9.200000000000045)"><text x="0" y="0" font-family="Helvetica, Segoe UI Emoji" font-size="16px" fill="#1e1e1e" text-anchor="start" style="white-space: pre;" direction="ltr" dominant-baseline="text-before-edge">程序 1 的请求时间比程序 3 更早，获得所有授权，访问资源 A</text></g></svg>