<svg version="1.1" xmlns="http://www.w3.org/2000/svg" viewBox="0 0 896.6277687053353 465.0932482882172" width="1793.2555374106705" height="930.1864965764344">
  <!-- svg-source:excalidraw -->
  
  <defs>
    <style class="style-fonts">
      @font-face {
        font-family: "Virgil";
        src: url("https://excalidraw.com/Virgil.woff2");
      }
      @font-face {
        font-family: "Cascadia";
        src: url("https://excalidraw.com/Cascadia.woff2");
      }
    </style>
    
  </defs>
  <rect x="0" y="0" width="896.6277687053353" height="465.0932482882172" fill="#ffffff"></rect><g stroke-linecap="round" transform="translate(10 10) rotate(0 438.3138843526676 222.5466241441086)"><path d="M32.31 0.24 L842.82 -1.48 L851.11 0.98 L862.56 4.44 L872.3 11.55 L873.44 16.18 L877.6 31.93 L877.02 412.08 L875.08 418.72 L873.86 430.72 L862.25 442.28 L859.47 442.49 L843.63 446.76 L33.2 445.74 L25.05 442.77 L14.27 440.32 L2.72 430.93 L0.97 427.64 L1.9 411.42 L0.7 31.04 L3.97 19.34 L8.3 9.15 L17.28 1.59 L30.62 0.88" stroke="none" stroke-width="0" fill="#ffffff"></path><path d="M32 0 M32 0 C240.46 -2.62, 450.27 -3.14, 844.63 0 M32 0 C329.82 -2.46, 627.62 -2.16, 844.63 0 M844.63 0 C866.93 0.93, 875.4 10.27, 876.63 32 M844.63 0 C864.43 -0.32, 876.04 10.45, 876.63 32 M876.63 32 C878.5 163.94, 876.4 293.96, 876.63 413.09 M876.63 32 C874.75 180.7, 875.67 330.07, 876.63 413.09 M876.63 413.09 C875.99 434.01, 867.27 444.84, 844.63 445.09 M876.63 413.09 C874.42 436, 863.88 444.72, 844.63 445.09 M844.63 445.09 C571.58 441.61, 298.79 442.93, 32 445.09 M844.63 445.09 C609.28 446.33, 374.21 446.16, 32 445.09 M32 445.09 C11.12 446.16, -1.62 432.77, 0 413.09 M32 445.09 C12.2 444.02, 0.13 433.98, 0 413.09 M0 413.09 C1.08 304.53, -0.19 194.36, 0 32 M0 413.09 C-0.03 281.6, -0.13 148.92, 0 32 M0 32 C0.83 9.25, 10.47 0.5, 32 0 M0 32 C-0.34 11.41, 10.83 -1.17, 32 0" stroke="#1e1e1e" stroke-width="1" fill="none"></path></g><g stroke-linecap="round" transform="translate(432.61850825665897 103.2539282169555) rotate(0 60.78100764738065 33.89496094551885)"><path d="M15.14 -1.48 L103.6 0.48 L113.38 2.32 L119.36 5.67 L120.11 11.16 L122.54 50.77 L119.57 60.16 L110.98 64.86 L106.35 65.91 L15.07 69.47 L7.46 64.8 L1.38 62.83 L1.47 55.46 L0.82 11.15 L4.15 6.35 L4.84 0.72 L15.92 0.55" stroke="none" stroke-width="0" fill="#a5d8ff"></path><path d="M16.95 0 M16.95 0 C50.6 1.67, 87.53 0, 104.61 0 M16.95 0 C47.6 0.62, 79.22 0.35, 104.61 0 M104.61 0 C117.85 -1.74, 122.91 5.53, 121.56 16.95 M104.61 0 C115.96 1.53, 119.4 7.41, 121.56 16.95 M121.56 16.95 C123.24 28.33, 122.52 36.55, 121.56 50.84 M121.56 16.95 C121.08 26.34, 121.79 36.3, 121.56 50.84 M121.56 50.84 C122.04 63.86, 116.68 65.99, 104.61 67.79 M121.56 50.84 C119.65 64.22, 114.59 65.87, 104.61 67.79 M104.61 67.79 C87.96 67.68, 68.07 69.62, 16.95 67.79 M104.61 67.79 C78.52 68.23, 54.6 69.17, 16.95 67.79 M16.95 67.79 C3.94 67.34, -1.78 61.91, 0 50.84 M16.95 67.79 C7.41 67.55, 0.01 62.91, 0 50.84 M0 50.84 C-0.19 42.32, 0.93 31.26, 0 16.95 M0 50.84 C-0.17 43.28, -0.36 35.78, 0 16.95 M0 16.95 C0.45 6.18, 6.55 -1.6, 16.95 0 M0 16.95 C-1.02 6.72, 5.18 -1.3, 16.95 0" stroke="#1e1e1e" stroke-width="1" fill="none"></path></g><g transform="translate(465.0596721540387 125.64888916247435) rotate(0 28.33984375 11.5)"><text x="28.33984375" y="0" font-family="Helvetica, Segoe UI Emoji" font-size="20px" fill="#1e1e1e" text-anchor="middle" style="white-space: pre;" direction="ltr" dominant-baseline="text-before-edge">程序 1</text></g><g stroke-linecap="round" transform="translate(231.81496938598866 291.4340046085772) rotate(0 60.78100764738065 33.89496094551885)"><path d="M15.38 -0.06 L104.79 -0.95 L113.75 0.57 L120.16 6.55 L121.69 11.96 L120.51 48.97 L120.91 59.29 L110.15 68.41 L105.45 67.19 L15.95 69.46 L7.82 66.05 L2.94 59.34 L2.04 54.54 L-1.52 11.32 L1.36 7.17 L8.52 0.71 L17.64 -0.96" stroke="none" stroke-width="0" fill="#a5d8ff"></path><path d="M16.95 0 M16.95 0 C53.05 -0.85, 86.43 -1.51, 104.61 0 M16.95 0 C48.1 -1.02, 77.97 -0.21, 104.61 0 M104.61 0 C115.95 1.33, 119.68 7.18, 121.56 16.95 M104.61 0 C116.08 0.21, 121.79 7.54, 121.56 16.95 M121.56 16.95 C121.32 27.42, 121.44 40.05, 121.56 50.84 M121.56 16.95 C121.95 27.65, 122.1 35.74, 121.56 50.84 M121.56 50.84 C119.9 63.95, 114.76 66.12, 104.61 67.79 M121.56 50.84 C119.4 61.66, 117.28 69.41, 104.61 67.79 M104.61 67.79 C80.83 66.44, 58.93 66.56, 16.95 67.79 M104.61 67.79 C78.9 68.25, 54.01 68.35, 16.95 67.79 M16.95 67.79 C7.18 67.58, 0.01 62.81, 0 50.84 M16.95 67.79 C4.84 68.72, -0.06 62.08, 0 50.84 M0 50.84 C-1.84 41.23, -1.11 29.07, 0 16.95 M0 50.84 C0.27 41.6, 0.5 31.03, 0 16.95 M0 16.95 C-0.88 6.58, 5.24 -1.13, 16.95 0 M0 16.95 C-1.9 7.55, 3.35 -0.75, 16.95 0" stroke="#1e1e1e" stroke-width="1" fill="none"></path></g><g transform="translate(264.2561332833684 313.82896555409616) rotate(0 28.33984375 11.5)"><text x="28.33984375" y="0" font-family="Helvetica, Segoe UI Emoji" font-size="20px" fill="#1e1e1e" text-anchor="middle" style="white-space: pre;" direction="ltr" dominant-baseline="text-before-edge">程序 2</text></g><g stroke-linecap="round" transform="translate(650.381889000877 306.2083508237797) rotate(0 60.78100764738065 33.89496094551885)"><path d="M15.76 -1.82 L105.59 -0.07 L115.34 1.37 L118.13 4.75 L123.03 11.1 L119.68 52.53 L120.02 60.57 L111.03 68.4 L105.82 68.43 L17.5 65.96 L8.39 65.13 L0.6 59.51 L-0.76 55.36 L2.16 11.31 L3.08 5.66 L8.59 3.72 L17.25 1.15" stroke="none" stroke-width="0" fill="#a5d8ff"></path><path d="M16.95 0 M16.95 0 C41 -0.25, 63.62 2.55, 104.61 0 M16.95 0 C35.64 0.72, 53.35 0.82, 104.61 0 M104.61 0 C116.06 0.18, 121.76 7.29, 121.56 16.95 M104.61 0 C117.02 1.07, 120.15 5.19, 121.56 16.95 M121.56 16.95 C121.32 25.76, 122.26 33.25, 121.56 50.84 M121.56 16.95 C120.86 30.94, 121.12 42.28, 121.56 50.84 M121.56 50.84 C119.68 61.72, 117.1 69.2, 104.61 67.79 M121.56 50.84 C120.83 61.66, 117.42 67.5, 104.61 67.79 M104.61 67.79 C86.42 67.71, 70.44 65.29, 16.95 67.79 M104.61 67.79 C81.04 67.58, 55.94 68.02, 16.95 67.79 M16.95 67.79 C4.95 68.6, -0.06 62.09, 0 50.84 M16.95 67.79 C6.17 69.02, -1.87 60.24, 0 50.84 M0 50.84 C-0.23 38.14, -0.51 26.43, 0 16.95 M0 50.84 C-0.59 40.24, -0.36 28.14, 0 16.95 M0 16.95 C-1.65 7.3, 3.65 -0.65, 16.95 0 M0 16.95 C0.95 4.02, 5.43 0.57, 16.95 0" stroke="#1e1e1e" stroke-width="1" fill="none"></path></g><g transform="translate(682.8230528982567 328.60331176929867) rotate(0 28.33984375 11.5)"><text x="28.33984375" y="0" font-family="Helvetica, Segoe UI Emoji" font-size="20px" fill="#1e1e1e" text-anchor="middle" style="white-space: pre;" direction="ltr" dominant-baseline="text-before-edge">程序 3</text></g><g mask="url(#mask-ns9FZHAQWYFT2SDWXxCVt)" stroke-linecap="round"><g transform="translate(561.1062190112716 161.37756188191963) rotate(0 62.18917473060537 69.59108064035621)"><path d="M-0.63 -1.12 C20.16 22.2, 104.43 115.59, 125.01 139.36 M1.24 0.9 C21.95 24.39, 103.96 117.17, 124.61 140.3" stroke="#1e1e1e" stroke-width="1" fill="none"></path></g><g transform="translate(561.1062190112716 161.37756188191963) rotate(0 62.18917473060537 69.59108064035621)"><path d="M96.35 127.76 C104.71 128.86, 116.71 136.14, 124 139.31 M98.5 125.12 C109.3 131.28, 117.64 136.06, 124.09 140.58" stroke="#1e1e1e" stroke-width="1" fill="none"></path></g><g transform="translate(561.1062190112716 161.37756188191963) rotate(0 62.18917473060537 69.59108064035621)"><path d="M111.7 114.14 C115.08 119.51, 122.17 131.15, 124 139.31 M113.84 111.5 C118.85 122.93, 121.31 132.93, 124.09 140.58" stroke="#1e1e1e" stroke-width="1" fill="none"></path></g></g><mask id="mask-ns9FZHAQWYFT2SDWXxCVt"><rect x="0" y="0" fill="#fff" width="785.0764693717447" height="401.8615558152642"></rect><rect x="603.091344191509" y="220.11955884859196" fill="#000" width="40" height="23" opacity="1"></rect></mask><g transform="translate(603.091344191509 220.11955884859185) rotate(0 20.204049550367927 10.849083673683992)"><text x="20" y="0" font-family="Helvetica, Segoe UI Emoji" font-size="20px" fill="#1e1e1e" text-anchor="middle" style="white-space: pre;" direction="ltr" dominant-baseline="text-before-edge">同意</text></g><g stroke-linecap="round" transform="translate(41.117073954930675 89.39884647362987) rotate(0 121.93558519474118 28)"><path d="M15.73 -1.88 L231.28 1.9 L241.21 2.9 L242 9.54 L244.85 45.92 L240.92 50.67 L237.77 54.85 L228.09 54.34 L9.69 56.33 L5.4 50.83 L1.57 47.16 L1.97 15.34 L1.18 9.03 L2.78 3.09 L6.49 1.76 L13.15 0.34" stroke="none" stroke-width="0" fill="#a5d8ff"></path><path d="M14 0 M14 0 C99.61 -1.23, 186.59 -2.91, 229.87 0 M14 0 C95.4 0.55, 177.04 0.24, 229.87 0 M229.87 0 C237.98 -0.4, 242.54 4.39, 243.87 14 M229.87 0 C238.62 -0.22, 244.91 5.52, 243.87 14 M243.87 14 C242.31 21.4, 245.92 30.99, 243.87 42 M243.87 14 C244.2 20.77, 243.29 25.91, 243.87 42 M243.87 42 C245.18 51.08, 237.28 57.37, 229.87 56 M243.87 42 C241.79 50.96, 240.03 57.79, 229.87 56 M229.87 56 C183.34 55.66, 137.03 54.33, 14 56 M229.87 56 C157.91 56.74, 86.2 57.23, 14 56 M14 56 C3.04 54.35, 1.33 50.4, 0 42 M14 56 C4.8 55.55, -0.32 50.56, 0 42 M0 42 C-1.68 32.09, 0.85 23.54, 0 14 M0 42 C-0.77 34.86, 0.64 27.67, 0 14 M0 14 C-0.19 5.16, 4.37 0.65, 14 0 M0 14 C0.16 3.5, 5.38 -0.26, 14 0" stroke="#1e1e1e" stroke-width="1" fill="none"></path></g><g transform="translate(79.40716259851251 61.09934621958337) rotate(0 80.89453125 9.199999999999989)"><text x="0" y="0" font-family="Helvetica, Segoe UI Emoji" font-size="16px" fill="#1e1e1e" text-anchor="start" style="white-space: pre;" direction="ltr" dominant-baseline="text-before-edge">程序 1 维护的请求队列</text></g><g stroke-linecap="round" transform="translate(42.09534892994998 144.94759055473423) rotate(0 121.93558519474118 28)"><path d="M13 1.67 L234.35 0.86 L240.92 1.67 L244.77 7.6 L241.87 43.62 L239.34 53.05 L237.89 53.45 L230.57 55.04 L12.69 57.12 L3.8 53.65 L0.16 47.71 L-1.38 14.88 L0.02 8.22 L5.44 1.76 L9.22 0.76 L14.04 1.33" stroke="none" stroke-width="0" fill="#a5d8ff"></path><path d="M14 0 M14 0 C58.64 0.04, 104.4 0.71, 229.87 0 M14 0 C88.21 0.26, 163.35 0.29, 229.87 0 M229.87 0 C240.1 0.74, 244.35 6.39, 243.87 14 M229.87 0 C240.09 -2.07, 241.96 6.75, 243.87 14 M243.87 14 C243.22 21.97, 245.05 26.94, 243.87 42 M243.87 14 C243.09 22.5, 243.15 29.46, 243.87 42 M243.87 42 C244.59 52.89, 237.5 55.55, 229.87 56 M243.87 42 C241.83 51.06, 240.96 55.76, 229.87 56 M229.87 56 C165.72 55.29, 100.11 55.74, 14 56 M229.87 56 C154.13 54.03, 77.27 54.27, 14 56 M14 56 C4.39 55.33, 0.45 51.86, 0 42 M14 56 C5.7 54.16, -1.02 52.4, 0 42 M0 42 C1.81 32.17, -0.49 27.17, 0 14 M0 42 C-0.12 35.9, 0.1 28.65, 0 14 M0 14 C0.62 4.44, 4.29 1.52, 14 0 M0 14 C-0.39 5.75, 2.74 -1.31, 14 0" stroke="#1e1e1e" stroke-width="1" fill="none"></path></g><g transform="translate(234.2804051420353 415.48268271407824) rotate(0 192.90625 9.200000000000045)"><text x="0" y="0" font-family="Helvetica, Segoe UI Emoji" font-size="16px" fill="#1e1e1e" text-anchor="start" style="white-space: pre;" direction="ltr" dominant-baseline="text-before-edge">程序 1 释放资源 A，程序 3 获得所有授权，访问资源 A</text></g></svg>