<svg version="1.1" xmlns="http://www.w3.org/2000/svg" viewBox="0 0 793.831963431152 593.1498177777069" width="1587.663926862304" height="1186.2996355554137">
  <!-- svg-source:excalidraw -->
  
  <defs>
    <style class="style-fonts">
      @font-face {
        font-family: "Virgil";
        src: url("https://excalidraw.com/Virgil.woff2");
      }
      @font-face {
        font-family: "Cascadia";
        src: url("https://excalidraw.com/Cascadia.woff2");
      }
    </style>
    
  </defs>
  <rect x="0" y="0" width="793.831963431152" height="593.1498177777069" fill="#ffffff"></rect><g stroke-linecap="round" transform="translate(10 10) rotate(0 386.915981715576 286.57490888885343)"><path d="M30.9 -1.25 L740.57 -1.53 L747.73 0.48 L762.61 5.56 L770.75 13.57 L770.44 16.86 L773.21 32.7 L773.95 539.43 L773.47 549.21 L770.01 560.43 L759.38 568.02 L754.45 571.02 L741.76 572.05 L33.73 574.21 L23.55 574.57 L13.77 570.56 L5.67 558.92 L3.99 554.15 L-1.49 539.93 L0.09 32.94 L1.75 19.35 L9.23 6.4 L18.05 2.89 L30.57 -1.97" stroke="none" stroke-width="0" fill="#ffffff"></path><path d="M32 0 M32 0 C211.17 1.37, 389.76 1.73, 741.83 0 M32 0 C200.56 -0.01, 368.93 -0.06, 741.83 0 M741.83 0 C761.2 1.13, 772.61 9.92, 773.83 32 M741.83 0 C761.84 1.12, 776.12 10.12, 773.83 32 M773.83 32 C772.79 173.52, 773.7 313.08, 773.83 541.15 M773.83 32 C775.86 234.76, 775.27 437.06, 773.83 541.15 M773.83 541.15 C772.9 562.28, 764.74 571.56, 741.83 573.15 M773.83 541.15 C775.5 561.57, 761.3 575.29, 741.83 573.15 M741.83 573.15 C480.89 572.6, 222.07 573.24, 32 573.15 M741.83 573.15 C523.19 576.17, 304.77 575.7, 32 573.15 M32 573.15 C10.4 573.55, 1.95 562.12, 0 541.15 M32 573.15 C12.74 574.16, -0.59 560.97, 0 541.15 M0 541.15 C-0.08 384.09, -0.42 226.17, 0 32 M0 541.15 C-1.85 375.1, -2.01 208.6, 0 32 M0 32 C1 11.29, 9.02 0.3, 32 0 M0 32 C0.05 12.76, 12.19 1.28, 32 0" stroke="#1e1e1e" stroke-width="1" fill="none"></path></g><g stroke-linecap="round" transform="translate(320.1868896074466 35.944605852953146) rotate(0 60.78100764738065 33.89496094551885)"><path d="M16.33 0.6 L106.5 -0.58 L116.25 1.7 L120.87 7.76 L122.63 14.62 L121.45 50.32 L118.61 60.3 L111.51 67.52 L102.71 68.17 L15.87 67.22 L6.87 66.45 L0.5 60.97 L-0.43 56.58 L0.73 11.31 L3.52 4.86 L5.46 3.86 L15.04 -0.79" stroke="none" stroke-width="0" fill="#a5d8ff"></path><path d="M16.95 0 M16.95 0 C50.45 -1.16, 84.73 -0.47, 104.61 0 M16.95 0 C36.48 1.01, 58.39 0.41, 104.61 0 M104.61 0 C114.31 -1.44, 121.36 4.46, 121.56 16.95 M104.61 0 C114.22 1.08, 119.91 4.6, 121.56 16.95 M121.56 16.95 C119.96 26.06, 123.02 34.37, 121.56 50.84 M121.56 16.95 C121.09 24.15, 121.19 31.27, 121.56 50.84 M121.56 50.84 C120.21 62.78, 116.05 68.48, 104.61 67.79 M121.56 50.84 C121.55 62.06, 113.84 67.63, 104.61 67.79 M104.61 67.79 C86.77 67.13, 66.68 68.02, 16.95 67.79 M104.61 67.79 C81.35 67.63, 58.21 67.1, 16.95 67.79 M16.95 67.79 C4.95 69.18, 1.24 63.01, 0 50.84 M16.95 67.79 C5.07 65.92, 0.73 63.6, 0 50.84 M0 50.84 C1.92 40.77, -0.52 29.35, 0 16.95 M0 50.84 C-0.35 40, -0.29 30.16, 0 16.95 M0 16.95 C1.71 5.72, 7.16 -0.29, 16.95 0 M0 16.95 C-1.5 4.02, 4.45 -1.94, 16.95 0" stroke="#1e1e1e" stroke-width="1" fill="none"></path></g><g transform="translate(352.6280535048263 58.339566798472106) rotate(0 28.33984375 11.5)"><text x="28.33984375" y="0" font-family="Helvetica, Segoe UI Emoji" font-size="20px" fill="#1e1e1e" text-anchor="middle" style="white-space: pre;" direction="ltr" dominant-baseline="text-before-edge">程序 1</text></g><g stroke-linecap="round" transform="translate(599.485423114962 171.65259629900447) rotate(0 60.78100764737974 33.89496094551885)"><path d="M15.08 -1.07 L102.87 -1.33 L116.75 4.3 L118.09 7.62 L119.32 14.18 L121.41 52.7 L120.45 60.53 L113.33 67.02 L105.65 68.23 L18.5 69.64 L6.49 65.35 L1.28 61.7 L-0.39 53.69 L1.94 13.76 L0.44 8.29 L4.88 1.96 L18.58 -1.73" stroke="none" stroke-width="0" fill="#a5d8ff"></path><path d="M16.95 0 M16.95 0 C37.06 -1.89, 59.89 0.76, 104.61 0 M16.95 0 C43.4 -1.62, 67.96 -1.09, 104.61 0 M104.61 0 C115.31 0.45, 120.74 6.68, 121.56 16.95 M104.61 0 C118.1 -2, 121.57 6.71, 121.56 16.95 M121.56 16.95 C120.63 25.7, 120.22 30.99, 121.56 50.84 M121.56 16.95 C121.09 26.72, 122.27 36.7, 121.56 50.84 M121.56 50.84 C119.63 61.99, 115.65 67.81, 104.61 67.79 M121.56 50.84 C123.39 62.59, 117.71 69.29, 104.61 67.79 M104.61 67.79 C68.67 69.23, 38.22 66.85, 16.95 67.79 M104.61 67.79 C73.05 67.69, 41.86 68.39, 16.95 67.79 M16.95 67.79 C7 67.97, 0.68 64.03, 0 50.84 M16.95 67.79 C3.75 69.45, 0.29 61.37, 0 50.84 M0 50.84 C0.37 39.46, 1.92 26.16, 0 16.95 M0 50.84 C0.38 43.22, -0.54 35.35, 0 16.95 M0 16.95 C-0.28 5.21, 4.36 0.87, 16.95 0 M0 16.95 C-0.08 5.61, 7.57 0.07, 16.95 0" stroke="#1e1e1e" stroke-width="1" fill="none"></path></g><g transform="translate(631.9265870123418 194.0475572445232) rotate(0 28.33984375 11.5)"><text x="28.33984375" y="0" font-family="Helvetica, Segoe UI Emoji" font-size="20px" fill="#1e1e1e" text-anchor="middle" style="white-space: pre;" direction="ltr" dominant-baseline="text-before-edge">程序 2</text></g><g stroke-linecap="round" transform="translate(475.5699625132256 467.87189333160336) rotate(0 60.78100764737974 33.89496094551885)"><path d="M16.91 0.55 L103.32 -0.51 L112.99 2.25 L120.52 5.04 L121.03 11.32 L120.77 50.07 L120.83 62.12 L111.96 68.37 L103.52 69.43 L15.52 69.18 L5.67 66.83 L2.07 61.43 L0.37 53.16 L-0.45 13.02 L2.98 8.1 L5.48 2.96 L18.42 0.92" stroke="none" stroke-width="0" fill="#a5d8ff"></path><path d="M16.95 0 M16.95 0 C42.28 -0.85, 65.42 0.54, 104.61 0 M16.95 0 C35.34 -0.89, 53.57 -1.64, 104.61 0 M104.61 0 C114.6 -0.12, 120.7 4.65, 121.56 16.95 M104.61 0 C114.15 0.55, 121.55 3.76, 121.56 16.95 M121.56 16.95 C119.69 26.06, 120.19 39.71, 121.56 50.84 M121.56 16.95 C121.79 24.54, 121.31 32.93, 121.56 50.84 M121.56 50.84 C119.58 61.69, 114.09 67.65, 104.61 67.79 M121.56 50.84 C123.14 62.67, 115.23 65.83, 104.61 67.79 M104.61 67.79 C72.3 68.03, 40.75 66.98, 16.95 67.79 M104.61 67.79 C85.28 68.65, 65.37 67.85, 16.95 67.79 M16.95 67.79 C4.76 69.66, 1.05 60.68, 0 50.84 M16.95 67.79 C6.31 69.5, 0.67 63.28, 0 50.84 M0 50.84 C0.43 43.67, -1.35 33.77, 0 16.95 M0 50.84 C0.92 40.58, -0.4 32.3, 0 16.95 M0 16.95 C0.55 4.27, 5.53 -0.58, 16.95 0 M0 16.95 C-0.04 7.21, 4.9 0.54, 16.95 0" stroke="#1e1e1e" stroke-width="1" fill="none"></path></g><g transform="translate(508.01112641060536 490.2668542771223) rotate(0 28.33984375 11.5)"><text x="28.33984375" y="0" font-family="Helvetica, Segoe UI Emoji" font-size="20px" fill="#1e1e1e" text-anchor="middle" style="white-space: pre;" direction="ltr" dominant-baseline="text-before-edge">程序 3</text></g><g stroke-linecap="round" transform="translate(165.20348186176489 433.03361100263965) rotate(0 60.78100764737974 33.89496094551885)"><path d="M15.48 0.58 L106.37 -0.49 L114.74 1.37 L120.15 6.19 L119.33 11.67 L119.69 50.52 L117.87 59.99 L113.47 65.17 L104.86 69.73 L16.09 66.7 L6.83 65.52 L3.9 59.79 L1.37 55.65 L-0.87 12.55 L2.9 7.72 L6.15 0.62 L17.99 1.37" stroke="none" stroke-width="0" fill="#a5d8ff"></path><path d="M16.95 0 M16.95 0 C42.18 -1.88, 67.22 0.85, 104.61 0 M16.95 0 C48.27 0.26, 79.33 0.81, 104.61 0 M104.61 0 C114.3 0.9, 119.92 4.14, 121.56 16.95 M104.61 0 C115.43 1.57, 121.17 5.12, 121.56 16.95 M121.56 16.95 C120.5 24.61, 123.52 32.86, 121.56 50.84 M121.56 16.95 C122.42 27.84, 122.6 38.77, 121.56 50.84 M121.56 50.84 C119.75 61.61, 116.98 67.66, 104.61 67.79 M121.56 50.84 C121.92 62.14, 114.12 67.91, 104.61 67.79 M104.61 67.79 C77.74 66.66, 49.51 69.53, 16.95 67.79 M104.61 67.79 C77.75 67.82, 49.74 69.14, 16.95 67.79 M16.95 67.79 C4.45 67.72, -1.19 63.69, 0 50.84 M16.95 67.79 C6.08 68.19, 1.51 61.38, 0 50.84 M0 50.84 C1.23 40.29, -0.83 33.02, 0 16.95 M0 50.84 C-0.55 41.26, -0.61 33.4, 0 16.95 M0 16.95 C-0.32 7.38, 7.32 0.73, 16.95 0 M0 16.95 C1.42 7.41, 5.65 0.53, 16.95 0" stroke="#1e1e1e" stroke-width="1" fill="none"></path></g><g transform="translate(197.64464575914462 455.4285719481584) rotate(0 28.33984375 11.5)"><text x="28.33984375" y="0" font-family="Helvetica, Segoe UI Emoji" font-size="20px" fill="#1e1e1e" text-anchor="middle" style="white-space: pre;" direction="ltr" dominant-baseline="text-before-edge">程序 4</text></g><g stroke-linecap="round" transform="translate(73.21308163888534 187.5621588166125) rotate(0 60.78100764737974 33.89496094551885)"><path d="M15.13 0.07 L104.32 -0.52 L116.54 2.87 L117.53 5.32 L121.53 13.19 L121.91 50.3 L118.89 60.36 L110.33 67.18 L104.74 66.2 L17.24 68.21 L4.66 67.27 L2.24 61.32 L0.75 53.41 L-1.71 13.41 L1.35 7.3 L7.9 2.49 L16.4 1.21" stroke="none" stroke-width="0" fill="#a5d8ff"></path><path d="M16.95 0 M16.95 0 C41.66 0.15, 64.9 -1.53, 104.61 0 M16.95 0 C39.42 0.83, 61.37 0.14, 104.61 0 M104.61 0 C115.09 1.92, 121.13 4.5, 121.56 16.95 M104.61 0 C117.76 -0.8, 121.27 5.87, 121.56 16.95 M121.56 16.95 C123.11 28.7, 119.98 44.2, 121.56 50.84 M121.56 16.95 C120.44 24.91, 120.67 30.72, 121.56 50.84 M121.56 50.84 C119.75 61.88, 116.63 68.54, 104.61 67.79 M121.56 50.84 C120.89 60.8, 117.34 69.89, 104.61 67.79 M104.61 67.79 C85.59 69.62, 68.42 68.72, 16.95 67.79 M104.61 67.79 C74.27 67.38, 45.26 66.21, 16.95 67.79 M16.95 67.79 C5.92 67.13, 1.13 61.61, 0 50.84 M16.95 67.79 C4.6 65.83, 0.22 63.25, 0 50.84 M0 50.84 C0.53 37.52, 1.02 26.37, 0 16.95 M0 50.84 C-1.03 42.8, -0.77 35.62, 0 16.95 M0 16.95 C-0.61 4.77, 5.96 -1.97, 16.95 0 M0 16.95 C-0.13 3.46, 5.4 -2.01, 16.95 0" stroke="#1e1e1e" stroke-width="1" fill="none"></path></g><g transform="translate(103.99408928626508 209.95711976213147) rotate(0 30 11.5)"><text x="30" y="0" font-family="Helvetica, Segoe UI Emoji" font-size="20px" fill="#1e1e1e" text-anchor="middle" style="white-space: pre;" direction="ltr" dominant-baseline="text-before-edge">程序 N</text></g><g stroke-linecap="round"><g transform="translate(443.8983066200308 62.84363133367083) rotate(0 97.52072670785219 53.71880933976843)"><path d="M-0.71 0.65 C19.39 4.3, 87.16 4.29, 119.52 21.88 C151.88 39.47, 180.96 91.99, 193.45 106.19 M1.12 -0.05 C21.67 3.27, 89.24 2.36, 121.68 20.28 C154.12 38.2, 183.59 93.37, 195.75 107.49" stroke="#1e1e1e" stroke-width="1" fill="none"></path></g><g transform="translate(443.8983066200308 62.84363133367083) rotate(0 97.52072670785219 53.71880933976843)"><path d="M172.23 88.57 C178.04 92.21, 181.51 97.55, 197.18 105.98 M172.06 91.16 C178.32 96.25, 186.6 102.33, 195.72 107.66" stroke="#1e1e1e" stroke-width="1" fill="none"></path></g><g transform="translate(443.8983066200308 62.84363133367083) rotate(0 97.52072670785219 53.71880933976843)"><path d="M189.02 76.77 C191.27 82.82, 191.18 90.66, 197.18 105.98 M188.85 79.36 C189.76 88.03, 192.74 97.82, 195.72 107.66" stroke="#1e1e1e" stroke-width="1" fill="none"></path></g></g><mask></mask><g stroke-linecap="round"><g transform="translate(723.6205815021021 245.59593238342995) rotate(0 -59.88136201589623 132.05809894934453)"><path d="M0.76 -0.53 C-0.06 24.1, 15.49 104.25, -5.44 148.45 C-26.36 192.65, -104.71 245.23, -124.78 264.65 M-0.3 1.8 C-1.16 26.04, 14.87 103.3, -5.96 146.75 C-26.8 190.2, -105.3 243.18, -125.31 262.51" stroke="#1e1e1e" stroke-width="1" fill="none"></path></g><g transform="translate(723.6205815021021 245.59593238342995) rotate(0 -59.88136201589623 132.05809894934453)"><path d="M-110.99 237.99 C-112.49 244.08, -117.05 248.79, -124.15 260.64 M-109.51 236.85 C-114.12 241.86, -116.44 248.01, -124.42 263.18" stroke="#1e1e1e" stroke-width="1" fill="none"></path></g><g transform="translate(723.6205815021021 245.59593238342995) rotate(0 -59.88136201589623 132.05809894934453)"><path d="M-97.93 253.82 C-102.84 255.96, -110.73 256.64, -124.15 260.64 M-96.44 252.68 C-103.7 254.39, -108.74 257.25, -124.42 263.18" stroke="#1e1e1e" stroke-width="1" fill="none"></path></g></g><mask></mask><g stroke-linecap="round"><g transform="translate(468.6775465460596 525.7687919528341) rotate(0 -90.64817732008214 -6.734676639287613)"><path d="M-1.17 1.05 C-17.37 5.1, -67.4 30.04, -97.49 23.78 C-127.58 17.52, -167.88 -26.45, -181.72 -36.52 M0.42 0.55 C-15.36 4.3, -65.2 28.45, -95.14 21.98 C-125.08 15.52, -165.05 -28.14, -179.2 -38.25" stroke="#1e1e1e" stroke-width="1" fill="none"></path></g><g transform="translate(468.6775465460596 525.7687919528341) rotate(0 -90.64817732008214 -6.734676639287613)"><path d="M-149.44 -28.68 C-157.8 -31.96, -164.61 -32.93, -177.48 -36.63 M-151.88 -26.93 C-160.03 -31.32, -171.1 -34.54, -180.14 -37.54" stroke="#1e1e1e" stroke-width="1" fill="none"></path></g><g transform="translate(468.6775465460596 525.7687919528341) rotate(0 -90.64817732008214 -6.734676639287613)"><path d="M-162.88 -13.18 C-167.48 -20.59, -170.58 -25.83, -177.48 -36.63 M-165.32 -11.43 C-168.65 -21.24, -175.06 -29.84, -180.14 -37.54" stroke="#1e1e1e" stroke-width="1" fill="none"></path></g></g><mask></mask><g stroke-linecap="round"><g transform="translate(178.47977796261694 428.0021484032595) rotate(0 -31.583250642036546 -84.99400154360023)"><path d="M0.97 0.2 C-8.88 -9.14, -50.35 -27.82, -60.21 -56.22 C-70.08 -84.62, -58.21 -151.4, -58.21 -170.19" stroke="#1e1e1e" stroke-width="1.5" fill="none" stroke-dasharray="8 9"></path></g><g transform="translate(178.47977796261694 428.0021484032595) rotate(0 -31.583250642036546 -84.99400154360023)"><path d="M-50 -142.61 C-51.85 -145.16, -54.56 -154.41, -57.13 -169.07" stroke="#1e1e1e" stroke-width="1.5" fill="none"></path></g><g transform="translate(178.47977796261694 428.0021484032595) rotate(0 -31.583250642036546 -84.99400154360023)"><path d="M-70.45 -144.31 C-68.11 -146.68, -66.62 -155.58, -57.13 -169.07" stroke="#1e1e1e" stroke-width="1.5" fill="none"></path></g></g><mask></mask><g stroke-linecap="round"><g transform="translate(129.44559708119596 183.55152771049347) rotate(0 90.98413271574464 -51.686341819964014)"><path d="M-1.12 0.7 C6.11 -11.95, 13.58 -58.46, 44.28 -75.92 C74.98 -93.39, 159.74 -99.46, 183.08 -104.07 M0.5 0.02 C7.57 -13, 13.56 -60.6, 43.83 -77.79 C74.09 -94.99, 158.56 -99.01, 182.09 -103.15" stroke="#1e1e1e" stroke-width="1" fill="none"></path></g><g transform="translate(129.44559708119596 183.55152771049347) rotate(0 90.98413271574464 -51.686341819964014)"><path d="M156.46 -88.12 C166.17 -95.22, 174.19 -98.19, 181.63 -104.75 M155.13 -89.86 C165.79 -95.28, 176.02 -98.95, 182.49 -102.57" stroke="#1e1e1e" stroke-width="1" fill="none"></path></g><g transform="translate(129.44559708119596 183.55152771049347) rotate(0 90.98413271574464 -51.686341819964014)"><path d="M154.07 -108.5 C164.68 -107.91, 173.6 -103.22, 181.63 -104.75 M152.74 -110.24 C164.43 -108, 175.57 -104.01, 182.49 -102.57" stroke="#1e1e1e" stroke-width="1" fill="none"></path></g></g><mask></mask><g stroke-linecap="round" transform="translate(606.872005712421 54.29549651717957) rotate(0 49.460371606552144 22.875277585486742)"><path d="M10.81 -0.18 L88.31 -1.21 L95.74 2.04 L97.43 10.39 L99.29 32.38 L95.46 39.45 L95.81 43.2 L87.4 46.25 L12.86 46.56 L2.64 42.93 L0.41 38.71 L-1.28 7.97 L6.38 0.84 L11.58 1.97" stroke="none" stroke-width="0" fill="#ffc9c9"></path><path d="M11.44 0 M11.44 0 C37.54 0.12, 66.04 -1.78, 87.48 0 M11.44 0 C39.73 -1.07, 68.68 -1.33, 87.48 0 M87.48 0 C95.54 -0.27, 97.4 2.48, 98.92 11.44 M87.48 0 C93.08 0.52, 96.9 3.72, 98.92 11.44 M98.92 11.44 C99.62 16.32, 97.95 22.59, 98.92 34.31 M98.92 11.44 C99.16 17.58, 98.82 21.85, 98.92 34.31 M98.92 34.31 C97.99 42.93, 93.19 46.76, 87.48 45.75 M98.92 34.31 C99.62 43.64, 95.71 43.85, 87.48 45.75 M87.48 45.75 C67.12 44.51, 49.22 46.71, 11.44 45.75 M87.48 45.75 C66.69 44.99, 44.46 46.11, 11.44 45.75 M11.44 45.75 C4.57 44.85, 1.78 40.12, 0 34.31 M11.44 45.75 C3.21 47.41, -0.46 40.05, 0 34.31 M0 34.31 C-0.33 27.49, 1.19 22.97, 0 11.44 M0 34.31 C0.88 26.64, 0.86 19.01, 0 11.44 M0 11.44 C-1.66 4.01, 4.08 1.61, 11.44 0 M0 11.44 C-0.5 3.66, 4.34 0.44, 11.44 0" stroke="#1e1e1e" stroke-width="1" fill="none"></path></g><g transform="translate(636.3323773189732 65.67077410266643) rotate(0 20 11.5)"><text x="20" y="0" font-family="Helvetica, Segoe UI Emoji" font-size="20px" fill="#1e1e1e" text-anchor="middle" style="white-space: pre;" direction="ltr" dominant-baseline="text-before-edge">令牌</text></g></svg>
